0, 0, Header, 1, 7, 480
1, 0, Start_track
1, 0, Copyright_t, "Copyright (c) xxxx Copyright Holder"
1, 0, Cue_point_t, "Created by Rosegarden"
1, 0, Cue_point_t, "http://www.rosegardenmusic.com/"
1, 0, Tempo, 434782
1, 0, Time_signature, 4, 2, 24, 8
1, 120960, End_track
2, 0, Start_track
2, 0, Title_t, "Cammy's Stage"
2, 17280, Control_c, 0, 91, 0
2, 17280, Control_c, 0, 7, 127
2, 17280, Control_c, 0, 93, 0
2, 17280, Control_c, 0, 10, 64
2, 17280, Control_c, 0, 121, 0
2, 17280, Program_c, 0, 65
2, 17280, Control_c, 0, 32, 0
2, 17280, Control_c, 0, 0, 0
2, 17280, Note_on_c, 0, 65, 110
2, 18475, Note_off_c, 0, 65, 127
2, 18479, Note_on_c, 0, 58, 110
2, 18714, Note_off_c, 0, 58, 127
2, 18720, Note_on_c, 0, 61, 110
2, 18954, Note_off_c, 0, 61, 127
2, 18959, Note_on_c, 0, 63, 110
2, 19195, Note_off_c, 0, 63, 127
2, 19199, Note_on_c, 0, 65, 110
2, 19600, Note_off_c, 0, 65, 127
2, 19679, Note_on_c, 0, 66, 110
2, 19915, Note_off_c, 0, 66, 127
2, 19919, Note_on_c, 0, 65, 110
2, 20559, Note_off_c, 0, 65, 127
2, 20639, Note_on_c, 0, 61, 110
2, 21039, Note_off_c, 0, 61, 127
2, 21119, Note_on_c, 0, 63, 110
2, 21959, Note_off_c, 0, 63, 127
2, 22080, Note_on_c, 0, 63, 110
2, 22435, Note_off_c, 0, 63, 127
2, 22439, Note_on_c, 0, 65, 110
2, 22794, Note_off_c, 0, 65, 127
2, 22800, Note_on_c, 0, 66, 110
2, 23034, Note_off_c, 0, 66, 127
2, 23040, Note_on_c, 0, 61, 110
2, 23395, Note_off_c, 0, 61, 127
2, 23399, Note_on_c, 0, 70, 110
2, 23754, Note_off_c, 0, 70, 127
2, 23760, Note_on_c, 0, 68, 110
2, 23995, Note_off_c, 0, 68, 127
2, 23999, Note_on_c, 0, 66, 110
2, 24354, Note_off_c, 0, 66, 127
2, 24360, Note_on_c, 0, 65, 110
2, 24715, Note_off_c, 0, 65, 127
2, 24719, Note_on_c, 0, 66, 110
2, 24954, Note_off_c, 0, 66, 127
2, 24960, Note_on_c, 0, 65, 110
2, 25600, Note_off_c, 0, 65, 127
2, 25680, Note_on_c, 0, 65, 110
2, 25915, Note_off_c, 0, 65, 127
2, 25919, Note_on_c, 0, 63, 110
2, 26559, Note_off_c, 0, 63, 127
2, 26639, Note_on_c, 0, 58, 110
2, 26875, Note_off_c, 0, 58, 127
2, 26879, Note_on_c, 0, 61, 110
2, 27234, Note_off_c, 0, 61, 127
2, 27239, Note_on_c, 0, 65, 110
2, 27594, Note_off_c, 0, 65, 127
2, 27600, Note_on_c, 0, 70, 110
2, 27834, Note_off_c, 0, 70, 127
2, 27840, Note_on_c, 0, 70, 110
2, 28195, Note_off_c, 0, 70, 127
2, 28199, Note_on_c, 0, 71, 110
2, 28554, Note_off_c, 0, 71, 127
2, 28560, Note_on_c, 0, 70, 110
2, 28795, Note_off_c, 0, 70, 127
2, 28799, Note_on_c, 0, 68, 110
2, 29439, Note_off_c, 0, 68, 127
2, 29519, Note_on_c, 0, 66, 110
2, 30159, Note_off_c, 0, 66, 127
2, 30239, Note_on_c, 0, 65, 110
2, 30640, Note_off_c, 0, 65, 127
2, 30719, Note_on_c, 0, 65, 110
2, 31120, Note_off_c, 0, 65, 127
2, 31200, Note_on_c, 0, 66, 110
2, 31435, Note_off_c, 0, 66, 127
2, 31439, Note_on_c, 0, 65, 110
2, 31495, Note_off_c, 0, 65, 127
2, 31499, Note_on_c, 0, 68, 110
2, 31914, Note_off_c, 0, 68, 127
2, 31920, Note_on_c, 0, 66, 110
2, 32155, Note_off_c, 0, 66, 127
2, 32159, Note_on_c, 0, 65, 110
2, 32560, Note_off_c, 0, 65, 127
2, 44160, Note_on_c, 0, 70, 110
2, 44559, Note_off_c, 0, 70, 127
2, 44639, Note_on_c, 0, 70, 110
2, 44874, Note_off_c, 0, 70, 127
2, 44880, Note_on_c, 0, 68, 110
2, 45355, Note_off_c, 0, 68, 127
2, 45359, Note_on_c, 0, 68, 110
2, 45834, Note_off_c, 0, 68, 127
2, 45840, Note_on_c, 0, 61, 110
2, 46075, Note_off_c, 0, 61, 127
2, 46079, Note_on_c, 0, 61, 110
2, 46480, Note_off_c, 0, 61, 127
2, 46559, Note_on_c, 0, 63, 110
2, 46795, Note_off_c, 0, 63, 127
2, 46799, Note_on_c, 0, 65, 110
2, 47275, Note_off_c, 0, 65, 127
2, 47279, Note_on_c, 0, 61, 110
2, 47515, Note_off_c, 0, 61, 127
2, 47519, Note_on_c, 0, 63, 110
2, 47920, Note_off_c, 0, 63, 127
2, 47999, Note_on_c, 0, 65, 110
2, 48400, Note_off_c, 0, 65, 127
2, 48480, Note_on_c, 0, 63, 110
2, 48715, Note_off_c, 0, 63, 127
2, 48719, Note_on_c, 0, 61, 110
2, 49194, Note_off_c, 0, 61, 127
2, 49200, Note_on_c, 0, 63, 110
2, 49435, Note_off_c, 0, 63, 127
2, 49439, Note_on_c, 0, 65, 110
2, 49674, Note_off_c, 0, 65, 127
2, 49680, Note_on_c, 0, 61, 110
2, 50155, Note_off_c, 0, 61, 127
2, 50159, Note_on_c, 0, 63, 110
2, 51039, Note_off_c, 0, 63, 127
2, 51120, Note_on_c, 0, 63, 110
2, 51354, Note_off_c, 0, 63, 127
2, 51360, Note_on_c, 0, 61, 110
2, 51595, Note_off_c, 0, 61, 127
2, 51599, Note_on_c, 0, 63, 110
2, 51834, Note_off_c, 0, 63, 127
2, 51840, Note_on_c, 0, 63, 110
2, 52074, Note_off_c, 0, 63, 127
2, 52079, Note_on_c, 0, 65, 110
2, 52315, Note_off_c, 0, 65, 127
2, 52319, Note_on_c, 0, 66, 110
2, 52554, Note_off_c, 0, 66, 127
2, 52560, Note_on_c, 0, 73, 110
2, 53035, Note_off_c, 0, 73, 127
2, 53039, Note_on_c, 0, 70, 110
2, 53274, Note_off_c, 0, 70, 127
2, 53280, Note_on_c, 0, 73, 110
2, 53515, Note_off_c, 0, 73, 127
2, 53519, Note_on_c, 0, 73, 110
2, 53994, Note_off_c, 0, 73, 127
2, 54000, Note_on_c, 0, 75, 110
2, 54235, Note_off_c, 0, 75, 127
2, 54239, Note_on_c, 0, 75, 110
2, 57480, Note_off_c, 0, 75, 127
2, 78720, Note_on_c, 0, 65, 110
2, 79915, Note_off_c, 0, 65, 127
2, 79919, Note_on_c, 0, 58, 110
2, 80154, Note_off_c, 0, 58, 127
2, 80160, Note_on_c, 0, 61, 110
2, 80395, Note_off_c, 0, 61, 127
2, 80399, Note_on_c, 0, 63, 110
2, 80635, Note_off_c, 0, 63, 127
2, 80639, Note_on_c, 0, 65, 110
2, 81040, Note_off_c, 0, 65, 127
2, 81119, Note_on_c, 0, 66, 110
2, 81355, Note_off_c, 0, 66, 127
2, 81359, Note_on_c, 0, 65, 110
2, 81999, Note_off_c, 0, 65, 127
2, 82079, Note_on_c, 0, 61, 110
2, 82479, Note_off_c, 0, 61, 127
2, 82559, Note_on_c, 0, 63, 110
2, 83399, Note_off_c, 0, 63, 127
2, 83520, Note_on_c, 0, 63, 110
2, 83875, Note_off_c, 0, 63, 127
2, 83879, Note_on_c, 0, 65, 110
2, 84234, Note_off_c, 0, 65, 127
2, 84240, Note_on_c, 0, 66, 110
2, 84474, Note_off_c, 0, 66, 127
2, 84480, Note_on_c, 0, 61, 110
2, 84835, Note_off_c, 0, 61, 127
2, 84839, Note_on_c, 0, 70, 110
2, 85194, Note_off_c, 0, 70, 127
2, 85199, Note_on_c, 0, 68, 110
2, 85435, Note_off_c, 0, 68, 127
2, 85439, Note_on_c, 0, 66, 110
2, 85794, Note_off_c, 0, 66, 127
2, 85800, Note_on_c, 0, 65, 110
2, 86155, Note_off_c, 0, 65, 127
2, 86159, Note_on_c, 0, 66, 110
2, 86394, Note_off_c, 0, 66, 127
2, 86400, Note_on_c, 0, 65, 110
2, 87040, Note_off_c, 0, 65, 127
2, 87120, Note_on_c, 0, 65, 110
2, 87355, Note_off_c, 0, 65, 127
2, 87359, Note_on_c, 0, 63, 110
2, 87999, Note_off_c, 0, 63, 127
2, 88079, Note_on_c, 0, 58, 110
2, 88314, Note_off_c, 0, 58, 127
2, 88320, Note_on_c, 0, 61, 110
2, 88675, Note_off_c, 0, 61, 127
2, 88679, Note_on_c, 0, 65, 110
2, 89034, Note_off_c, 0, 65, 127
2, 89040, Note_on_c, 0, 70, 110
2, 89274, Note_off_c, 0, 70, 127
2, 89280, Note_on_c, 0, 70, 110
2, 89635, Note_off_c, 0, 70, 127
2, 89639, Note_on_c, 0, 71, 110
2, 89994, Note_off_c, 0, 71, 127
2, 90000, Note_on_c, 0, 70, 110
2, 90235, Note_off_c, 0, 70, 127
2, 90239, Note_on_c, 0, 68, 110
2, 90879, Note_off_c, 0, 68, 127
2, 90959, Note_on_c, 0, 66, 110
2, 91599, Note_off_c, 0, 66, 127
2, 91679, Note_on_c, 0, 65, 110
2, 92080, Note_off_c, 0, 65, 127
2, 92159, Note_on_c, 0, 65, 110
2, 92560, Note_off_c, 0, 65, 127
2, 92640, Note_on_c, 0, 66, 110
2, 92875, Note_off_c, 0, 66, 127
2, 92879, Note_on_c, 0, 65, 110
2, 92935, Note_off_c, 0, 65, 127
2, 92939, Note_on_c, 0, 68, 110
2, 93354, Note_off_c, 0, 68, 127
2, 93360, Note_on_c, 0, 66, 110
2, 93595, Note_off_c, 0, 66, 127
2, 93599, Note_on_c, 0, 65, 110
2, 94000, Note_off_c, 0, 65, 127
2, 105600, Note_on_c, 0, 70, 110
2, 105999, Note_off_c, 0, 70, 127
2, 106079, Note_on_c, 0, 70, 110
2, 106314, Note_off_c, 0, 70, 127
2, 106320, Note_on_c, 0, 68, 110
2, 106795, Note_off_c, 0, 68, 127
2, 106799, Note_on_c, 0, 68, 110
2, 107274, Note_off_c, 0, 68, 127
2, 107279, Note_on_c, 0, 61, 110
2, 107515, Note_off_c, 0, 61, 127
2, 107519, Note_on_c, 0, 61, 110
2, 107920, Note_off_c, 0, 61, 127
2, 107999, Note_on_c, 0, 63, 110
2, 108235, Note_off_c, 0, 63, 127
2, 108239, Note_on_c, 0, 65, 110
2, 108715, Note_off_c, 0, 65, 127
2, 108719, Note_on_c, 0, 61, 110
2, 108955, Note_off_c, 0, 61, 127
2, 108959, Note_on_c, 0, 63, 110
2, 109359, Note_off_c, 0, 63, 127
2, 109439, Note_on_c, 0, 65, 110
2, 109840, Note_off_c, 0, 65, 127
2, 109920, Note_on_c, 0, 63, 110
2, 110155, Note_off_c, 0, 63, 127
2, 110159, Note_on_c, 0, 61, 110
2, 110634, Note_off_c, 0, 61, 127
2, 110640, Note_on_c, 0, 63, 110
2, 110875, Note_off_c, 0, 63, 127
2, 110879, Note_on_c, 0, 65, 110
2, 111114, Note_off_c, 0, 65, 127
2, 111120, Note_on_c, 0, 61, 110
2, 111595, Note_off_c, 0, 61, 127
2, 111599, Note_on_c, 0, 63, 110
2, 112480, Note_off_c, 0, 63, 127
2, 112560, Note_on_c, 0, 63, 110
2, 112794, Note_off_c, 0, 63, 127
2, 112799, Note_on_c, 0, 61, 110
2, 113035, Note_off_c, 0, 61, 127
2, 113039, Note_on_c, 0, 63, 110
2, 113274, Note_off_c, 0, 63, 127
2, 113280, Note_on_c, 0, 63, 110
2, 113515, Note_off_c, 0, 63, 127
2, 113519, Note_on_c, 0, 65, 110
2, 113755, Note_off_c, 0, 65, 127
2, 113759, Note_on_c, 0, 66, 110
2, 113994, Note_off_c, 0, 66, 127
2, 114000, Note_on_c, 0, 73, 110
2, 114475, Note_off_c, 0, 73, 127
2, 114479, Note_on_c, 0, 70, 110
2, 114714, Note_off_c, 0, 70, 127
2, 114720, Note_on_c, 0, 73, 110
2, 114955, Note_off_c, 0, 73, 127
2, 114959, Note_on_c, 0, 73, 110
2, 115434, Note_off_c, 0, 73, 127
2, 115440, Note_on_c, 0, 75, 110
2, 115675, Note_off_c, 0, 75, 127
2, 115679, Note_on_c, 0, 75, 110
2, 118920, Note_off_c, 0, 75, 127
2, 120960, End_track
3, 0, Start_track
3, 0, Title_t, "Cammy's Stage-2"
3, 32640, Note_on_c, 1, 65, 110
3, 32640, Control_c, 1, 91, 0
3, 32640, Control_c, 1, 7, 127
3, 32640, Control_c, 1, 93, 0
3, 32640, Control_c, 1, 10, 64
3, 32640, Control_c, 1, 121, 0
3, 32640, Program_c, 1, 30
3, 32640, Control_c, 1, 32, 0
3, 32640, Control_c, 1, 0, 0
3, 33834, Note_off_c, 1, 65, 127
3, 33840, Note_on_c, 1, 58, 110
3, 34074, Note_off_c, 1, 58, 127
3, 34080, Note_on_c, 1, 61, 110
3, 34315, Note_off_c, 1, 61, 127
3, 34319, Note_on_c, 1, 63, 110
3, 34554, Note_off_c, 1, 63, 127
3, 34560, Note_on_c, 1, 65, 110
3, 34959, Note_off_c, 1, 65, 127
3, 35039, Note_on_c, 1, 66, 110
3, 35274, Note_off_c, 1, 66, 127
3, 35280, Note_on_c, 1, 65, 110
3, 35920, Note_off_c, 1, 65, 127
3, 36000, Note_on_c, 1, 61, 110
3, 36399, Note_off_c, 1, 61, 127
3, 36479, Note_on_c, 1, 63, 110
3, 37320, Note_off_c, 1, 63, 127
3, 37440, Note_on_c, 1, 63, 110
3, 37795, Note_off_c, 1, 63, 127
3, 37799, Note_on_c, 1, 65, 110
3, 38154, Note_off_c, 1, 65, 127
3, 38160, Note_on_c, 1, 66, 110
3, 38395, Note_off_c, 1, 66, 127
3, 38399, Note_on_c, 1, 61, 110
3, 38754, Note_off_c, 1, 61, 127
3, 38760, Note_on_c, 1, 68, 110
3, 39279, Note_off_c, 1, 68, 127
3, 39360, Note_on_c, 1, 66, 110
3, 39715, Note_off_c, 1, 66, 127
3, 39719, Note_on_c, 1, 65, 110
3, 40074, Note_off_c, 1, 65, 127
3, 40080, Note_on_c, 1, 66, 110
3, 40314, Note_off_c, 1, 66, 127
3, 40320, Note_on_c, 1, 65, 110
3, 40960, Note_off_c, 1, 65, 127
3, 41039, Note_on_c, 1, 66, 110
3, 41155, Note_off_c, 1, 66, 127
3, 41159, Note_on_c, 1, 65, 110
3, 41275, Note_off_c, 1, 65, 127
3, 41279, Note_on_c, 1, 63, 110
3, 41919, Note_off_c, 1, 63, 127
3, 41999, Note_on_c, 1, 58, 110
3, 42234, Note_off_c, 1, 58, 127
3, 42240, Note_on_c, 1, 61, 110
3, 42595, Note_off_c, 1, 61, 127
3, 42599, Note_on_c, 1, 65, 110
3, 42954, Note_off_c, 1, 65, 127
3, 42960, Note_on_c, 1, 70, 110
3, 43195, Note_off_c, 1, 70, 127
3, 43199, Note_on_c, 1, 70, 110
3, 43554, Note_off_c, 1, 70, 127
3, 43560, Note_on_c, 1, 71, 110
3, 43915, Note_off_c, 1, 71, 127
3, 43919, Note_on_c, 1, 73, 110
3, 44154, Note_off_c, 1, 73, 127
3, 44160, Note_on_c, 1, 73, 110
3, 44559, Note_off_c, 1, 73, 127
3, 44639, Note_on_c, 1, 73, 110
3, 44874, Note_off_c, 1, 73, 127
3, 44880, Note_on_c, 1, 71, 110
3, 45355, Note_off_c, 1, 71, 127
3, 45359, Note_on_c, 1, 71, 110
3, 45834, Note_off_c, 1, 71, 127
3, 45840, Note_on_c, 1, 70, 110
3, 46075, Note_off_c, 1, 70, 127
3, 46079, Note_on_c, 1, 65, 110
3, 46480, Note_off_c, 1, 65, 127
3, 46559, Note_on_c, 1, 66, 110
3, 46795, Note_off_c, 1, 66, 127
3, 46799, Note_on_c, 1, 68, 110
3, 47275, Note_off_c, 1, 68, 127
3, 47279, Note_on_c, 1, 65, 110
3, 47515, Note_off_c, 1, 65, 127
3, 47519, Note_on_c, 1, 66, 110
3, 47754, Note_off_c, 1, 66, 127
3, 47760, Note_on_c, 1, 68, 110
3, 47995, Note_off_c, 1, 68, 127
3, 47999, Note_on_c, 1, 68, 110
3, 48400, Note_off_c, 1, 68, 127
3, 48480, Note_on_c, 1, 66, 110
3, 48715, Note_off_c, 1, 66, 127
3, 48719, Note_on_c, 1, 65, 110
3, 49194, Note_off_c, 1, 65, 127
3, 49200, Note_on_c, 1, 66, 110
3, 49435, Note_off_c, 1, 66, 127
3, 49439, Note_on_c, 1, 68, 110
3, 49674, Note_off_c, 1, 68, 127
3, 49680, Note_on_c, 1, 65, 110
3, 50155, Note_off_c, 1, 65, 127
3, 50159, Note_on_c, 1, 63, 110
3, 51039, Note_off_c, 1, 63, 127
3, 51120, Note_on_c, 1, 63, 110
3, 51354, Note_off_c, 1, 63, 127
3, 51360, Note_on_c, 1, 65, 110
3, 51595, Note_off_c, 1, 65, 127
3, 51599, Note_on_c, 1, 66, 110
3, 51834, Note_off_c, 1, 66, 127
3, 51840, Note_on_c, 1, 65, 110
3, 51954, Note_off_c, 1, 65, 127
3, 51960, Note_on_c, 1, 66, 110
3, 52074, Note_off_c, 1, 66, 127
3, 52079, Note_on_c, 1, 68, 110
3, 52315, Note_off_c, 1, 68, 127
3, 52319, Note_on_c, 1, 70, 110
3, 52554, Note_off_c, 1, 70, 127
3, 52560, Note_on_c, 1, 68, 110
3, 53035, Note_off_c, 1, 68, 127
3, 53039, Note_on_c, 1, 66, 110
3, 53274, Note_off_c, 1, 66, 127
3, 53280, Note_on_c, 1, 65, 110
3, 53515, Note_off_c, 1, 65, 127
3, 53519, Note_on_c, 1, 61, 110
3, 53994, Note_off_c, 1, 61, 127
3, 54000, Note_on_c, 1, 63, 110
3, 54235, Note_off_c, 1, 63, 127
3, 54239, Note_on_c, 1, 63, 110
3, 56999, Note_off_c, 1, 63, 127
3, 94080, Note_on_c, 1, 65, 110
3, 95274, Note_off_c, 1, 65, 127
3, 95280, Note_on_c, 1, 58, 110
3, 95514, Note_off_c, 1, 58, 127
3, 95520, Note_on_c, 1, 61, 110
3, 95755, Note_off_c, 1, 61, 127
3, 95759, Note_on_c, 1, 63, 110
3, 95994, Note_off_c, 1, 63, 127
3, 96000, Note_on_c, 1, 65, 110
3, 96399, Note_off_c, 1, 65, 127
3, 96479, Note_on_c, 1, 66, 110
3, 96714, Note_off_c, 1, 66, 127
3, 96720, Note_on_c, 1, 65, 110
3, 97360, Note_off_c, 1, 65, 127
3, 97440, Note_on_c, 1, 61, 110
3, 97839, Note_off_c, 1, 61, 127
3, 97919, Note_on_c, 1, 63, 110
3, 98760, Note_off_c, 1, 63, 127
3, 98880, Note_on_c, 1, 63, 110
3, 99235, Note_off_c, 1, 63, 127
3, 99239, Note_on_c, 1, 65, 110
3, 99594, Note_off_c, 1, 65, 127
3, 99600, Note_on_c, 1, 66, 110
3, 99835, Note_off_c, 1, 66, 127
3, 99839, Note_on_c, 1, 61, 110
3, 100194, Note_off_c, 1, 61, 127
3, 100200, Note_on_c, 1, 68, 110
3, 100719, Note_off_c, 1, 68, 127
3, 100800, Note_on_c, 1, 66, 110
3, 101155, Note_off_c, 1, 66, 127
3, 101159, Note_on_c, 1, 65, 110
3, 101514, Note_off_c, 1, 65, 127
3, 101520, Note_on_c, 1, 66, 110
3, 101754, Note_off_c, 1, 66, 127
3, 101759, Note_on_c, 1, 65, 110
3, 102400, Note_off_c, 1, 65, 127
3, 102479, Note_on_c, 1, 66, 110
3, 102595, Note_off_c, 1, 66, 127
3, 102599, Note_on_c, 1, 65, 110
3, 102715, Note_off_c, 1, 65, 127
3, 102719, Note_on_c, 1, 63, 110
3, 103359, Note_off_c, 1, 63, 127
3, 103439, Note_on_c, 1, 58, 110
3, 103674, Note_off_c, 1, 58, 127
3, 103680, Note_on_c, 1, 61, 110
3, 104035, Note_off_c, 1, 61, 127
3, 104039, Note_on_c, 1, 65, 110
3, 104394, Note_off_c, 1, 65, 127
3, 104400, Note_on_c, 1, 70, 110
3, 104635, Note_off_c, 1, 70, 127
3, 104639, Note_on_c, 1, 70, 110
3, 104994, Note_off_c, 1, 70, 127
3, 105000, Note_on_c, 1, 71, 110
3, 105355, Note_off_c, 1, 71, 127
3, 105359, Note_on_c, 1, 73, 110
3, 105594, Note_off_c, 1, 73, 127
3, 105600, Note_on_c, 1, 73, 110
3, 105999, Note_off_c, 1, 73, 127
3, 106079, Note_on_c, 1, 73, 110
3, 106314, Note_off_c, 1, 73, 127
3, 106320, Note_on_c, 1, 71, 110
3, 106795, Note_off_c, 1, 71, 127
3, 106799, Note_on_c, 1, 71, 110
3, 107274, Note_off_c, 1, 71, 127
3, 107279, Note_on_c, 1, 70, 110
3, 107515, Note_off_c, 1, 70, 127
3, 107519, Note_on_c, 1, 65, 110
3, 107920, Note_off_c, 1, 65, 127
3, 107999, Note_on_c, 1, 66, 110
3, 108235, Note_off_c, 1, 66, 127
3, 108239, Note_on_c, 1, 68, 110
3, 108715, Note_off_c, 1, 68, 127
3, 108719, Note_on_c, 1, 65, 110
3, 108955, Note_off_c, 1, 65, 127
3, 108959, Note_on_c, 1, 66, 110
3, 109194, Note_off_c, 1, 66, 127
3, 109200, Note_on_c, 1, 68, 110
3, 109435, Note_off_c, 1, 68, 127
3, 109439, Note_on_c, 1, 68, 110
3, 109840, Note_off_c, 1, 68, 127
3, 109920, Note_on_c, 1, 66, 110
3, 110155, Note_off_c, 1, 66, 127
3, 110159, Note_on_c, 1, 65, 110
3, 110634, Note_off_c, 1, 65, 127
3, 110640, Note_on_c, 1, 66, 110
3, 110875, Note_off_c, 1, 66, 127
3, 110879, Note_on_c, 1, 68, 110
3, 111114, Note_off_c, 1, 68, 127
3, 111120, Note_on_c, 1, 65, 110
3, 111595, Note_off_c, 1, 65, 127
3, 111599, Note_on_c, 1, 63, 110
3, 112480, Note_off_c, 1, 63, 127
3, 112560, Note_on_c, 1, 63, 110
3, 112794, Note_off_c, 1, 63, 127
3, 112799, Note_on_c, 1, 65, 110
3, 113035, Note_off_c, 1, 65, 127
3, 113039, Note_on_c, 1, 66, 110
3, 113274, Note_off_c, 1, 66, 127
3, 113280, Note_on_c, 1, 65, 110
3, 113394, Note_off_c, 1, 65, 127
3, 113400, Note_on_c, 1, 66, 110
3, 113515, Note_off_c, 1, 66, 127
3, 113519, Note_on_c, 1, 68, 110
3, 113755, Note_off_c, 1, 68, 127
3, 113759, Note_on_c, 1, 70, 110
3, 113994, Note_off_c, 1, 70, 127
3, 114000, Note_on_c, 1, 68, 110
3, 114475, Note_off_c, 1, 68, 127
3, 114479, Note_on_c, 1, 66, 110
3, 114714, Note_off_c, 1, 66, 127
3, 114720, Note_on_c, 1, 65, 110
3, 114955, Note_off_c, 1, 65, 127
3, 114959, Note_on_c, 1, 61, 110
3, 115434, Note_off_c, 1, 61, 127
3, 115440, Note_on_c, 1, 63, 110
3, 115675, Note_off_c, 1, 63, 127
3, 115679, Note_on_c, 1, 63, 110
3, 118439, Note_off_c, 1, 63, 127
3, 120960, End_track
4, 0, Start_track
4, 0, Title_t, "Cammy's Stage-3"
4, 1919, Note_on_c, 2, 39, 110
4, 1919, Control_c, 2, 91, 0
4, 1919, Control_c, 2, 7, 127
4, 1919, Control_c, 2, 93, 0
4, 1919, Control_c, 2, 10, 64
4, 1919, Control_c, 2, 121, 0
4, 1919, Program_c, 2, 37
4, 1919, Control_c, 2, 32, 0
4, 1919, Control_c, 2, 0, 0
4, 2274, Note_off_c, 2, 39, 127
4, 2280, Note_on_c, 2, 46, 110
4, 2635, Note_off_c, 2, 46, 127
4, 2639, Note_on_c, 2, 51, 110
4, 3115, Note_off_c, 2, 51, 127
4, 3119, Note_on_c, 2, 49, 110
4, 3355, Note_off_c, 2, 49, 127
4, 3359, Note_on_c, 2, 44, 110
4, 3760, Note_off_c, 2, 44, 127
4, 3839, Note_on_c, 2, 47, 110
4, 4194, Note_off_c, 2, 47, 127
4, 4200, Note_on_c, 2, 42, 110
4, 4555, Note_off_c, 2, 42, 127
4, 4559, Note_on_c, 2, 39, 110
4, 4795, Note_off_c, 2, 39, 127
4, 4799, Note_on_c, 2, 47, 110
4, 5154, Note_off_c, 2, 47, 127
4, 5159, Note_on_c, 2, 47, 110
4, 5514, Note_off_c, 2, 47, 127
4, 5520, Note_on_c, 2, 49, 110
4, 5754, Note_off_c, 2, 49, 127
4, 5760, Note_on_c, 2, 39, 110
4, 6115, Note_off_c, 2, 39, 127
4, 6119, Note_on_c, 2, 46, 110
4, 6474, Note_off_c, 2, 46, 127
4, 6480, Note_on_c, 2, 51, 110
4, 6954, Note_off_c, 2, 51, 127
4, 6960, Note_on_c, 2, 49, 110
4, 7194, Note_off_c, 2, 49, 127
4, 7200, Note_on_c, 2, 44, 110
4, 7600, Note_off_c, 2, 44, 127
4, 7680, Note_on_c, 2, 47, 110
4, 8035, Note_off_c, 2, 47, 127
4, 8039, Note_on_c, 2, 42, 110
4, 8394, Note_off_c, 2, 42, 127
4, 8400, Note_on_c, 2, 39, 110
4, 8635, Note_off_c, 2, 39, 127
4, 8639, Note_on_c, 2, 47, 110
4, 8994, Note_off_c, 2, 47, 127
4, 9000, Note_on_c, 2, 47, 110
4, 9355, Note_off_c, 2, 47, 127
4, 9359, Note_on_c, 2, 49, 110
4, 9595, Note_off_c, 2, 49, 127
4, 9599, Note_on_c, 2, 32, 110
4, 9954, Note_off_c, 2, 32, 127
4, 9960, Note_on_c, 2, 32, 110
4, 10315, Note_off_c, 2, 32, 127
4, 10319, Note_on_c, 2, 32, 110
4, 10554, Note_off_c, 2, 32, 127
4, 10560, Note_on_c, 2, 32, 110
4, 10915, Note_off_c, 2, 32, 127
4, 10919, Note_on_c, 2, 32, 110
4, 11274, Note_off_c, 2, 32, 127
4, 11280, Note_on_c, 2, 32, 110
4, 11515, Note_off_c, 2, 32, 127
4, 11519, Note_on_c, 2, 34, 110
4, 11874, Note_off_c, 2, 34, 127
4, 11880, Note_on_c, 2, 34, 110
4, 12235, Note_off_c, 2, 34, 127
4, 12239, Note_on_c, 2, 34, 110
4, 12474, Note_off_c, 2, 34, 127
4, 12480, Note_on_c, 2, 34, 110
4, 12835, Note_off_c, 2, 34, 127
4, 12839, Note_on_c, 2, 34, 110
4, 13194, Note_off_c, 2, 34, 127
4, 13200, Note_on_c, 2, 34, 110
4, 13434, Note_off_c, 2, 34, 127
4, 13439, Note_on_c, 2, 35, 110
4, 13794, Note_off_c, 2, 35, 127
4, 13800, Note_on_c, 2, 35, 110
4, 14155, Note_off_c, 2, 35, 127
4, 14159, Note_on_c, 2, 35, 110
4, 14395, Note_off_c, 2, 35, 127
4, 14399, Note_on_c, 2, 35, 110
4, 14754, Note_off_c, 2, 35, 127
4, 14760, Note_on_c, 2, 35, 110
4, 15115, Note_off_c, 2, 35, 127
4, 15119, Note_on_c, 2, 35, 110
4, 15354, Note_off_c, 2, 35, 127
4, 15360, Note_on_c, 2, 37, 110
4, 15595, Note_off_c, 2, 37, 127
4, 15599, Note_on_c, 2, 37, 110
4, 15835, Note_off_c, 2, 37, 127
4, 15839, Note_on_c, 2, 32, 110
4, 16074, Note_off_c, 2, 32, 127
4, 16080, Note_on_c, 2, 44, 110
4, 16315, Note_off_c, 2, 44, 127
4, 16319, Note_on_c, 2, 41, 110
4, 16674, Note_off_c, 2, 41, 127
4, 16680, Note_on_c, 2, 42, 110
4, 17035, Note_off_c, 2, 42, 127
4, 17039, Note_on_c, 2, 44, 110
4, 17274, Note_off_c, 2, 44, 127
4, 17280, Note_on_c, 2, 39, 110
4, 17514, Note_off_c, 2, 39, 127
4, 17520, Note_on_c, 2, 51, 110
4, 17635, Note_off_c, 2, 51, 127
4, 17639, Note_on_c, 2, 49, 110
4, 17755, Note_off_c, 2, 49, 127
4, 17759, Note_on_c, 2, 39, 110
4, 17994, Note_off_c, 2, 39, 127
4, 18000, Note_on_c, 2, 39, 110
4, 18234, Note_off_c, 2, 39, 127
4, 18240, Note_on_c, 2, 39, 110
4, 18595, Note_off_c, 2, 39, 127
4, 18599, Note_on_c, 2, 42, 110
4, 18954, Note_off_c, 2, 42, 127
4, 18959, Note_on_c, 2, 39, 110
4, 19195, Note_off_c, 2, 39, 127
4, 19199, Note_on_c, 2, 34, 110
4, 19434, Note_off_c, 2, 34, 127
4, 19440, Note_on_c, 2, 34, 110
4, 19675, Note_off_c, 2, 34, 127
4, 19799, Note_on_c, 2, 34, 110
4, 19915, Note_off_c, 2, 34, 127
4, 19919, Note_on_c, 2, 34, 110
4, 20154, Note_off_c, 2, 34, 127
4, 20160, Note_on_c, 2, 34, 110
4, 20515, Note_off_c, 2, 34, 127
4, 20519, Note_on_c, 2, 41, 110
4, 20874, Note_off_c, 2, 41, 127
4, 20880, Note_on_c, 2, 37, 110
4, 21115, Note_off_c, 2, 37, 127
4, 21119, Note_on_c, 2, 32, 110
4, 21355, Note_off_c, 2, 32, 127
4, 21359, Note_on_c, 2, 32, 110
4, 21594, Note_off_c, 2, 32, 127
4, 21600, Note_on_c, 2, 32, 110
4, 21835, Note_off_c, 2, 32, 127
4, 21839, Note_on_c, 2, 32, 110
4, 22074, Note_off_c, 2, 32, 127
4, 22080, Note_on_c, 2, 32, 110
4, 22435, Note_off_c, 2, 32, 127
4, 22439, Note_on_c, 2, 35, 110
4, 22555, Note_off_c, 2, 35, 127
4, 22559, Note_on_c, 2, 32, 110
4, 22794, Note_off_c, 2, 32, 127
4, 22800, Note_on_c, 2, 39, 110
4, 23034, Note_off_c, 2, 39, 127
4, 23040, Note_on_c, 2, 37, 110
4, 23275, Note_off_c, 2, 37, 127
4, 23279, Note_on_c, 2, 37, 110
4, 23514, Note_off_c, 2, 37, 127
4, 23520, Note_on_c, 2, 37, 110
4, 23754, Note_off_c, 2, 37, 127
4, 23760, Note_on_c, 2, 37, 110
4, 23995, Note_off_c, 2, 37, 127
4, 23999, Note_on_c, 2, 37, 110
4, 24354, Note_off_c, 2, 37, 127
4, 24360, Note_on_c, 2, 39, 110
4, 24715, Note_off_c, 2, 39, 127
4, 24719, Note_on_c, 2, 41, 110
4, 24954, Note_off_c, 2, 41, 127
4, 24960, Note_on_c, 2, 39, 110
4, 25195, Note_off_c, 2, 39, 127
4, 25199, Note_on_c, 2, 51, 110
4, 25315, Note_off_c, 2, 51, 127
4, 25319, Note_on_c, 2, 49, 110
4, 25435, Note_off_c, 2, 49, 127
4, 25439, Note_on_c, 2, 39, 110
4, 25674, Note_off_c, 2, 39, 127
4, 25680, Note_on_c, 2, 39, 110
4, 25915, Note_off_c, 2, 39, 127
4, 25919, Note_on_c, 2, 39, 110
4, 26274, Note_off_c, 2, 39, 127
4, 26280, Note_on_c, 2, 42, 110
4, 26635, Note_off_c, 2, 42, 127
4, 26639, Note_on_c, 2, 39, 110
4, 26875, Note_off_c, 2, 39, 127
4, 26879, Note_on_c, 2, 34, 110
4, 27114, Note_off_c, 2, 34, 127
4, 27120, Note_on_c, 2, 34, 110
4, 27355, Note_off_c, 2, 34, 127
4, 27479, Note_on_c, 2, 34, 110
4, 27594, Note_off_c, 2, 34, 127
4, 27600, Note_on_c, 2, 34, 110
4, 27834, Note_off_c, 2, 34, 127
4, 27840, Note_on_c, 2, 34, 110
4, 28195, Note_off_c, 2, 34, 127
4, 28199, Note_on_c, 2, 41, 110
4, 28554, Note_off_c, 2, 41, 127
4, 28560, Note_on_c, 2, 37, 110
4, 28795, Note_off_c, 2, 37, 127
4, 28799, Note_on_c, 2, 32, 110
4, 29034, Note_off_c, 2, 32, 127
4, 29040, Note_on_c, 2, 32, 110
4, 29274, Note_off_c, 2, 32, 127
4, 29280, Note_on_c, 2, 32, 110
4, 29515, Note_off_c, 2, 32, 127
4, 29519, Note_on_c, 2, 32, 110
4, 29754, Note_off_c, 2, 32, 127
4, 29760, Note_on_c, 2, 32, 110
4, 30115, Note_off_c, 2, 32, 127
4, 30119, Note_on_c, 2, 35, 110
4, 30235, Note_off_c, 2, 35, 127
4, 30239, Note_on_c, 2, 32, 110
4, 30474, Note_off_c, 2, 32, 127
4, 30480, Note_on_c, 2, 39, 110
4, 30715, Note_off_c, 2, 39, 127
4, 30719, Note_on_c, 2, 37, 110
4, 30955, Note_off_c, 2, 37, 127
4, 30959, Note_on_c, 2, 37, 110
4, 31194, Note_off_c, 2, 37, 127
4, 31200, Note_on_c, 2, 37, 110
4, 31435, Note_off_c, 2, 37, 127
4, 31439, Note_on_c, 2, 37, 110
4, 31675, Note_off_c, 2, 37, 127
4, 31679, Note_on_c, 2, 37, 110
4, 32034, Note_off_c, 2, 37, 127
4, 32040, Note_on_c, 2, 39, 110
4, 32395, Note_off_c, 2, 39, 127
4, 32399, Note_on_c, 2, 41, 110
4, 32634, Note_off_c, 2, 41, 127
4, 32640, Note_on_c, 2, 39, 110
4, 32875, Note_off_c, 2, 39, 127
4, 32879, Note_on_c, 2, 39, 110
4, 33114, Note_off_c, 2, 39, 127
4, 33120, Note_on_c, 2, 42, 110
4, 33354, Note_off_c, 2, 42, 127
4, 33360, Note_on_c, 2, 39, 110
4, 33595, Note_off_c, 2, 39, 127
4, 33599, Note_on_c, 2, 44, 110
4, 33834, Note_off_c, 2, 44, 127
4, 33840, Note_on_c, 2, 39, 110
4, 33954, Note_off_c, 2, 39, 127
4, 33960, Note_on_c, 2, 46, 110
4, 34195, Note_off_c, 2, 46, 127
4, 34199, Note_on_c, 2, 39, 110
4, 34315, Note_off_c, 2, 39, 127
4, 34319, Note_on_c, 2, 44, 110
4, 34554, Note_off_c, 2, 44, 127
4, 34560, Note_on_c, 2, 39, 110
4, 34794, Note_off_c, 2, 39, 127
4, 34800, Note_on_c, 2, 39, 110
4, 35035, Note_off_c, 2, 39, 127
4, 35039, Note_on_c, 2, 42, 110
4, 35274, Note_off_c, 2, 42, 127
4, 35280, Note_on_c, 2, 39, 110
4, 35514, Note_off_c, 2, 39, 127
4, 35519, Note_on_c, 2, 44, 110
4, 35755, Note_off_c, 2, 44, 127
4, 35759, Note_on_c, 2, 39, 110
4, 35874, Note_off_c, 2, 39, 127
4, 35880, Note_on_c, 2, 46, 110
4, 36114, Note_off_c, 2, 46, 127
4, 36120, Note_on_c, 2, 39, 110
4, 36235, Note_off_c, 2, 39, 127
4, 36239, Note_on_c, 2, 44, 110
4, 36475, Note_off_c, 2, 44, 127
4, 36479, Note_on_c, 2, 39, 110
4, 36714, Note_off_c, 2, 39, 127
4, 36720, Note_on_c, 2, 39, 110
4, 36955, Note_off_c, 2, 39, 127
4, 36959, Note_on_c, 2, 42, 110
4, 37195, Note_off_c, 2, 42, 127
4, 37199, Note_on_c, 2, 39, 110
4, 37434, Note_off_c, 2, 39, 127
4, 37440, Note_on_c, 2, 44, 110
4, 37675, Note_off_c, 2, 44, 127
4, 37679, Note_on_c, 2, 39, 110
4, 37795, Note_off_c, 2, 39, 127
4, 37799, Note_on_c, 2, 46, 110
4, 38034, Note_off_c, 2, 46, 127
4, 38040, Note_on_c, 2, 39, 110
4, 38154, Note_off_c, 2, 39, 127
4, 38160, Note_on_c, 2, 44, 110
4, 38395, Note_off_c, 2, 44, 127
4, 38399, Note_on_c, 2, 39, 110
4, 38634, Note_off_c, 2, 39, 127
4, 38640, Note_on_c, 2, 39, 110
4, 38874, Note_off_c, 2, 39, 127
4, 38880, Note_on_c, 2, 42, 110
4, 39115, Note_off_c, 2, 42, 127
4, 39119, Note_on_c, 2, 39, 110
4, 39354, Note_off_c, 2, 39, 127
4, 39360, Note_on_c, 2, 44, 110
4, 39594, Note_off_c, 2, 44, 127
4, 39600, Note_on_c, 2, 39, 110
4, 39715, Note_off_c, 2, 39, 127
4, 39719, Note_on_c, 2, 46, 110
4, 39955, Note_off_c, 2, 46, 127
4, 39959, Note_on_c, 2, 39, 110
4, 40074, Note_off_c, 2, 39, 127
4, 40080, Note_on_c, 2, 44, 110
4, 40314, Note_off_c, 2, 44, 127
4, 40320, Note_on_c, 2, 39, 110
4, 40555, Note_off_c, 2, 39, 127
4, 40559, Note_on_c, 2, 39, 110
4, 40794, Note_off_c, 2, 39, 127
4, 40800, Note_on_c, 2, 42, 110
4, 41034, Note_off_c, 2, 42, 127
4, 41039, Note_on_c, 2, 39, 110
4, 41275, Note_off_c, 2, 39, 127
4, 41279, Note_on_c, 2, 44, 110
4, 41514, Note_off_c, 2, 44, 127
4, 41520, Note_on_c, 2, 39, 110
4, 41634, Note_off_c, 2, 39, 127
4, 41640, Note_on_c, 2, 46, 110
4, 41875, Note_off_c, 2, 46, 127
4, 41879, Note_on_c, 2, 39, 110
4, 41995, Note_off_c, 2, 39, 127
4, 41999, Note_on_c, 2, 44, 110
4, 42234, Note_off_c, 2, 44, 127
4, 42240, Note_on_c, 2, 39, 110
4, 42475, Note_off_c, 2, 39, 127
4, 42479, Note_on_c, 2, 39, 110
4, 42715, Note_off_c, 2, 39, 127
4, 42719, Note_on_c, 2, 42, 110
4, 42954, Note_off_c, 2, 42, 127
4, 42960, Note_on_c, 2, 39, 110
4, 43195, Note_off_c, 2, 39, 127
4, 43199, Note_on_c, 2, 44, 110
4, 43435, Note_off_c, 2, 44, 127
4, 43439, Note_on_c, 2, 39, 110
4, 43554, Note_off_c, 2, 39, 127
4, 43560, Note_on_c, 2, 46, 110
4, 43794, Note_off_c, 2, 46, 127
4, 43799, Note_on_c, 2, 39, 110
4, 43915, Note_off_c, 2, 39, 127
4, 43919, Note_on_c, 2, 44, 110
4, 44154, Note_off_c, 2, 44, 127
4, 44160, Note_on_c, 2, 39, 110
4, 44394, Note_off_c, 2, 39, 127
4, 44400, Note_on_c, 2, 39, 110
4, 44635, Note_off_c, 2, 39, 127
4, 44639, Note_on_c, 2, 42, 110
4, 44874, Note_off_c, 2, 42, 127
4, 44880, Note_on_c, 2, 39, 110
4, 45114, Note_off_c, 2, 39, 127
4, 45120, Note_on_c, 2, 44, 110
4, 45355, Note_off_c, 2, 44, 127
4, 45359, Note_on_c, 2, 39, 110
4, 45475, Note_off_c, 2, 39, 127
4, 45479, Note_on_c, 2, 46, 110
4, 45714, Note_off_c, 2, 46, 127
4, 45720, Note_on_c, 2, 39, 110
4, 45834, Note_off_c, 2, 39, 127
4, 45840, Note_on_c, 2, 44, 110
4, 46075, Note_off_c, 2, 44, 127
4, 46079, Note_on_c, 2, 39, 110
4, 46314, Note_off_c, 2, 39, 127
4, 46320, Note_on_c, 2, 39, 110
4, 46554, Note_off_c, 2, 39, 127
4, 46559, Note_on_c, 2, 42, 110
4, 46795, Note_off_c, 2, 42, 127
4, 46799, Note_on_c, 2, 39, 110
4, 47034, Note_off_c, 2, 39, 127
4, 47040, Note_on_c, 2, 44, 110
4, 47275, Note_off_c, 2, 44, 127
4, 47279, Note_on_c, 2, 39, 110
4, 47395, Note_off_c, 2, 39, 127
4, 47399, Note_on_c, 2, 46, 110
4, 47634, Note_off_c, 2, 46, 127
4, 47640, Note_on_c, 2, 39, 110
4, 47754, Note_off_c, 2, 39, 127
4, 47760, Note_on_c, 2, 44, 110
4, 47995, Note_off_c, 2, 44, 127
4, 47999, Note_on_c, 2, 32, 110
4, 48235, Note_off_c, 2, 32, 127
4, 48239, Note_on_c, 2, 44, 110
4, 48474, Note_off_c, 2, 44, 127
4, 48480, Note_on_c, 2, 32, 110
4, 48715, Note_off_c, 2, 32, 127
4, 48719, Note_on_c, 2, 34, 110
4, 49194, Note_off_c, 2, 34, 127
4, 49200, Note_on_c, 2, 46, 110
4, 49435, Note_off_c, 2, 46, 127
4, 49439, Note_on_c, 2, 34, 110
4, 49674, Note_off_c, 2, 34, 127
4, 49680, Note_on_c, 2, 35, 110
4, 50155, Note_off_c, 2, 35, 127
4, 50159, Note_on_c, 2, 35, 110
4, 50394, Note_off_c, 2, 35, 127
4, 50400, Note_on_c, 2, 35, 110
4, 50634, Note_off_c, 2, 35, 127
4, 50640, Note_on_c, 2, 35, 110
4, 50875, Note_off_c, 2, 35, 127
4, 50879, Note_on_c, 2, 35, 110
4, 51114, Note_off_c, 2, 35, 127
4, 51120, Note_on_c, 2, 35, 110
4, 51354, Note_off_c, 2, 35, 127
4, 51360, Note_on_c, 2, 35, 110
4, 51595, Note_off_c, 2, 35, 127
4, 51599, Note_on_c, 2, 35, 110
4, 51834, Note_off_c, 2, 35, 127
4, 51840, Note_on_c, 2, 35, 110
4, 52074, Note_off_c, 2, 35, 127
4, 52079, Note_on_c, 2, 47, 110
4, 52315, Note_off_c, 2, 47, 127
4, 52319, Note_on_c, 2, 35, 110
4, 52554, Note_off_c, 2, 35, 127
4, 52560, Note_on_c, 2, 37, 110
4, 53035, Note_off_c, 2, 37, 127
4, 53039, Note_on_c, 2, 49, 110
4, 53274, Note_off_c, 2, 49, 127
4, 53280, Note_on_c, 2, 37, 110
4, 53515, Note_off_c, 2, 37, 127
4, 53519, Note_on_c, 2, 39, 110
4, 53994, Note_off_c, 2, 39, 127
4, 54000, Note_on_c, 2, 39, 110
4, 54235, Note_off_c, 2, 39, 127
4, 54239, Note_on_c, 2, 39, 110
4, 54475, Note_off_c, 2, 39, 127
4, 54479, Note_on_c, 2, 39, 110
4, 54714, Note_off_c, 2, 39, 127
4, 54720, Note_on_c, 2, 39, 110
4, 54955, Note_off_c, 2, 39, 127
4, 54959, Note_on_c, 2, 39, 110
4, 55194, Note_off_c, 2, 39, 127
4, 55200, Note_on_c, 2, 39, 110
4, 55434, Note_off_c, 2, 39, 127
4, 55440, Note_on_c, 2, 39, 110
4, 55675, Note_off_c, 2, 39, 127
4, 55679, Note_on_c, 2, 39, 110
4, 55914, Note_off_c, 2, 39, 127
4, 55920, Note_on_c, 2, 51, 110
4, 56154, Note_off_c, 2, 51, 127
4, 56160, Note_on_c, 2, 39, 110
4, 56395, Note_off_c, 2, 39, 127
4, 56399, Note_on_c, 2, 41, 110
4, 56874, Note_off_c, 2, 41, 127
4, 56880, Note_on_c, 2, 53, 110
4, 57115, Note_off_c, 2, 53, 127
4, 57119, Note_on_c, 2, 41, 110
4, 57354, Note_off_c, 2, 41, 127
4, 57360, Note_on_c, 2, 42, 110
4, 57835, Note_off_c, 2, 42, 127
4, 57839, Note_on_c, 2, 54, 110
4, 58074, Note_off_c, 2, 54, 127
4, 58080, Note_on_c, 2, 42, 110
4, 58315, Note_off_c, 2, 42, 127
4, 58319, Note_on_c, 2, 32, 110
4, 58555, Note_off_c, 2, 32, 127
4, 58559, Note_on_c, 2, 32, 110
4, 58794, Note_off_c, 2, 32, 127
4, 58800, Note_on_c, 2, 32, 110
4, 59035, Note_off_c, 2, 32, 127
4, 59039, Note_on_c, 2, 32, 110
4, 59275, Note_off_c, 2, 32, 127
4, 59279, Note_on_c, 2, 37, 110
4, 59514, Note_off_c, 2, 37, 127
4, 59759, Note_on_c, 2, 37, 110
4, 59995, Note_off_c, 2, 37, 127
4, 59999, Note_on_c, 2, 37, 110
4, 60234, Note_off_c, 2, 37, 127
4, 60240, Note_on_c, 2, 37, 110
4, 60475, Note_off_c, 2, 37, 127
4, 60479, Note_on_c, 2, 37, 110
4, 60714, Note_off_c, 2, 37, 127
4, 60720, Note_on_c, 2, 37, 110
4, 60954, Note_off_c, 2, 37, 127
4, 60960, Note_on_c, 2, 37, 110
4, 61195, Note_off_c, 2, 37, 127
4, 61199, Note_on_c, 2, 37, 110
4, 61434, Note_off_c, 2, 37, 127
4, 61440, Note_on_c, 2, 35, 110
4, 61674, Note_off_c, 2, 35, 127
4, 61680, Note_on_c, 2, 35, 110
4, 61915, Note_off_c, 2, 35, 127
4, 61919, Note_on_c, 2, 35, 110
4, 62154, Note_off_c, 2, 35, 127
4, 62160, Note_on_c, 2, 37, 110
4, 62635, Note_off_c, 2, 37, 127
4, 62639, Note_on_c, 2, 37, 110
4, 62874, Note_off_c, 2, 37, 127
4, 62880, Note_on_c, 2, 37, 110
4, 63114, Note_off_c, 2, 37, 127
4, 63119, Note_on_c, 2, 37, 110
4, 63355, Note_off_c, 2, 37, 127
4, 63359, Note_on_c, 2, 39, 110
4, 63714, Note_off_c, 2, 39, 127
4, 63720, Note_on_c, 2, 46, 110
4, 64075, Note_off_c, 2, 46, 127
4, 64079, Note_on_c, 2, 51, 110
4, 64555, Note_off_c, 2, 51, 127
4, 64559, Note_on_c, 2, 49, 110
4, 64795, Note_off_c, 2, 49, 127
4, 64799, Note_on_c, 2, 44, 110
4, 65199, Note_off_c, 2, 44, 127
4, 65279, Note_on_c, 2, 47, 110
4, 65634, Note_off_c, 2, 47, 127
4, 65640, Note_on_c, 2, 42, 110
4, 65995, Note_off_c, 2, 42, 127
4, 65999, Note_on_c, 2, 39, 110
4, 66234, Note_off_c, 2, 39, 127
4, 66240, Note_on_c, 2, 47, 110
4, 66595, Note_off_c, 2, 47, 127
4, 66599, Note_on_c, 2, 47, 110
4, 66954, Note_off_c, 2, 47, 127
4, 66960, Note_on_c, 2, 49, 110
4, 67194, Note_off_c, 2, 49, 127
4, 67200, Note_on_c, 2, 39, 110
4, 67555, Note_off_c, 2, 39, 127
4, 67559, Note_on_c, 2, 46, 110
4, 67914, Note_off_c, 2, 46, 127
4, 67920, Note_on_c, 2, 51, 110
4, 68394, Note_off_c, 2, 51, 127
4, 68400, Note_on_c, 2, 49, 110
4, 68634, Note_off_c, 2, 49, 127
4, 68639, Note_on_c, 2, 44, 110
4, 69040, Note_off_c, 2, 44, 127
4, 69120, Note_on_c, 2, 47, 110
4, 69475, Note_off_c, 2, 47, 127
4, 69479, Note_on_c, 2, 42, 110
4, 69834, Note_off_c, 2, 42, 127
4, 69840, Note_on_c, 2, 39, 110
4, 70075, Note_off_c, 2, 39, 127
4, 70079, Note_on_c, 2, 47, 110
4, 70434, Note_off_c, 2, 47, 127
4, 70440, Note_on_c, 2, 47, 110
4, 70795, Note_off_c, 2, 47, 127
4, 70799, Note_on_c, 2, 49, 110
4, 71035, Note_off_c, 2, 49, 127
4, 71039, Note_on_c, 2, 32, 110
4, 71394, Note_off_c, 2, 32, 127
4, 71399, Note_on_c, 2, 32, 110
4, 71754, Note_off_c, 2, 32, 127
4, 71760, Note_on_c, 2, 32, 110
4, 71994, Note_off_c, 2, 32, 127
4, 72000, Note_on_c, 2, 32, 110
4, 72355, Note_off_c, 2, 32, 127
4, 72359, Note_on_c, 2, 32, 110
4, 72714, Note_off_c, 2, 32, 127
4, 72720, Note_on_c, 2, 32, 110
4, 72955, Note_off_c, 2, 32, 127
4, 72959, Note_on_c, 2, 34, 110
4, 73314, Note_off_c, 2, 34, 127
4, 73320, Note_on_c, 2, 34, 110
4, 73675, Note_off_c, 2, 34, 127
4, 73679, Note_on_c, 2, 34, 110
4, 73914, Note_off_c, 2, 34, 127
4, 73920, Note_on_c, 2, 34, 110
4, 74275, Note_off_c, 2, 34, 127
4, 74279, Note_on_c, 2, 34, 110
4, 74634, Note_off_c, 2, 34, 127
4, 74640, Note_on_c, 2, 34, 110
4, 74875, Note_off_c, 2, 34, 127
4, 74879, Note_on_c, 2, 35, 110
4, 75234, Note_off_c, 2, 35, 127
4, 75240, Note_on_c, 2, 35, 110
4, 75595, Note_off_c, 2, 35, 127
4, 75599, Note_on_c, 2, 35, 110
4, 75835, Note_off_c, 2, 35, 127
4, 75839, Note_on_c, 2, 35, 110
4, 76194, Note_off_c, 2, 35, 127
4, 76200, Note_on_c, 2, 35, 110
4, 76555, Note_off_c, 2, 35, 127
4, 76559, Note_on_c, 2, 35, 110
4, 76794, Note_off_c, 2, 35, 127
4, 76800, Note_on_c, 2, 37, 110
4, 77035, Note_off_c, 2, 37, 127
4, 77039, Note_on_c, 2, 37, 110
4, 77274, Note_off_c, 2, 37, 127
4, 77280, Note_on_c, 2, 32, 110
4, 77514, Note_off_c, 2, 32, 127
4, 77520, Note_on_c, 2, 44, 110
4, 77755, Note_off_c, 2, 44, 127
4, 77759, Note_on_c, 2, 41, 110
4, 78114, Note_off_c, 2, 41, 127
4, 78120, Note_on_c, 2, 42, 110
4, 78475, Note_off_c, 2, 42, 127
4, 78479, Note_on_c, 2, 44, 110
4, 78714, Note_off_c, 2, 44, 127
4, 78720, Note_on_c, 2, 39, 110
4, 78954, Note_off_c, 2, 39, 127
4, 78960, Note_on_c, 2, 51, 110
4, 79075, Note_off_c, 2, 51, 127
4, 79079, Note_on_c, 2, 49, 110
4, 79195, Note_off_c, 2, 49, 127
4, 79199, Note_on_c, 2, 39, 110
4, 79434, Note_off_c, 2, 39, 127
4, 79440, Note_on_c, 2, 39, 110
4, 79674, Note_off_c, 2, 39, 127
4, 79679, Note_on_c, 2, 39, 110
4, 80034, Note_off_c, 2, 39, 127
4, 80040, Note_on_c, 2, 42, 110
4, 80395, Note_off_c, 2, 42, 127
4, 80399, Note_on_c, 2, 39, 110
4, 80635, Note_off_c, 2, 39, 127
4, 80639, Note_on_c, 2, 34, 110
4, 80874, Note_off_c, 2, 34, 127
4, 80880, Note_on_c, 2, 34, 110
4, 81115, Note_off_c, 2, 34, 127
4, 81239, Note_on_c, 2, 34, 110
4, 81355, Note_off_c, 2, 34, 127
4, 81359, Note_on_c, 2, 34, 110
4, 81594, Note_off_c, 2, 34, 127
4, 81600, Note_on_c, 2, 34, 110
4, 81955, Note_off_c, 2, 34, 127
4, 81959, Note_on_c, 2, 41, 110
4, 82314, Note_off_c, 2, 41, 127
4, 82320, Note_on_c, 2, 37, 110
4, 82555, Note_off_c, 2, 37, 127
4, 82559, Note_on_c, 2, 32, 110
4, 82794, Note_off_c, 2, 32, 127
4, 82800, Note_on_c, 2, 32, 110
4, 83034, Note_off_c, 2, 32, 127
4, 83040, Note_on_c, 2, 32, 110
4, 83275, Note_off_c, 2, 32, 127
4, 83279, Note_on_c, 2, 32, 110
4, 83514, Note_off_c, 2, 32, 127
4, 83520, Note_on_c, 2, 32, 110
4, 83875, Note_off_c, 2, 32, 127
4, 83879, Note_on_c, 2, 35, 110
4, 83995, Note_off_c, 2, 35, 127
4, 83999, Note_on_c, 2, 32, 110
4, 84234, Note_off_c, 2, 32, 127
4, 84240, Note_on_c, 2, 39, 110
4, 84474, Note_off_c, 2, 39, 127
4, 84480, Note_on_c, 2, 37, 110
4, 84715, Note_off_c, 2, 37, 127
4, 84719, Note_on_c, 2, 37, 110
4, 84954, Note_off_c, 2, 37, 127
4, 84960, Note_on_c, 2, 37, 110
4, 85194, Note_off_c, 2, 37, 127
4, 85199, Note_on_c, 2, 37, 110
4, 85435, Note_off_c, 2, 37, 127
4, 85439, Note_on_c, 2, 37, 110
4, 85794, Note_off_c, 2, 37, 127
4, 85800, Note_on_c, 2, 39, 110
4, 86155, Note_off_c, 2, 39, 127
4, 86159, Note_on_c, 2, 41, 110
4, 86394, Note_off_c, 2, 41, 127
4, 86400, Note_on_c, 2, 39, 110
4, 86635, Note_off_c, 2, 39, 127
4, 86639, Note_on_c, 2, 51, 110
4, 86755, Note_off_c, 2, 51, 127
4, 86759, Note_on_c, 2, 49, 110
4, 86875, Note_off_c, 2, 49, 127
4, 86879, Note_on_c, 2, 39, 110
4, 87114, Note_off_c, 2, 39, 127
4, 87120, Note_on_c, 2, 39, 110
4, 87355, Note_off_c, 2, 39, 127
4, 87359, Note_on_c, 2, 39, 110
4, 87714, Note_off_c, 2, 39, 127
4, 87720, Note_on_c, 2, 42, 110
4, 88075, Note_off_c, 2, 42, 127
4, 88079, Note_on_c, 2, 39, 110
4, 88314, Note_off_c, 2, 39, 127
4, 88320, Note_on_c, 2, 34, 110
4, 88554, Note_off_c, 2, 34, 127
4, 88560, Note_on_c, 2, 34, 110
4, 88795, Note_off_c, 2, 34, 127
4, 88919, Note_on_c, 2, 34, 110
4, 89034, Note_off_c, 2, 34, 127
4, 89040, Note_on_c, 2, 34, 110
4, 89274, Note_off_c, 2, 34, 127
4, 89280, Note_on_c, 2, 34, 110
4, 89635, Note_off_c, 2, 34, 127
4, 89639, Note_on_c, 2, 41, 110
4, 89994, Note_off_c, 2, 41, 127
4, 90000, Note_on_c, 2, 37, 110
4, 90235, Note_off_c, 2, 37, 127
4, 90239, Note_on_c, 2, 32, 110
4, 90474, Note_off_c, 2, 32, 127
4, 90480, Note_on_c, 2, 32, 110
4, 90714, Note_off_c, 2, 32, 127
4, 90719, Note_on_c, 2, 32, 110
4, 90955, Note_off_c, 2, 32, 127
4, 90959, Note_on_c, 2, 32, 110
4, 91194, Note_off_c, 2, 32, 127
4, 91200, Note_on_c, 2, 32, 110
4, 91555, Note_off_c, 2, 32, 127
4, 91559, Note_on_c, 2, 35, 110
4, 91675, Note_off_c, 2, 35, 127
4, 91679, Note_on_c, 2, 32, 110
4, 91914, Note_off_c, 2, 32, 127
4, 91920, Note_on_c, 2, 39, 110
4, 92155, Note_off_c, 2, 39, 127
4, 92159, Note_on_c, 2, 37, 110
4, 92395, Note_off_c, 2, 37, 127
4, 92399, Note_on_c, 2, 37, 110
4, 92634, Note_off_c, 2, 37, 127
4, 92640, Note_on_c, 2, 37, 110
4, 92875, Note_off_c, 2, 37, 127
4, 92879, Note_on_c, 2, 37, 110
4, 93115, Note_off_c, 2, 37, 127
4, 93119, Note_on_c, 2, 37, 110
4, 93474, Note_off_c, 2, 37, 127
4, 93479, Note_on_c, 2, 39, 110
4, 93834, Note_off_c, 2, 39, 127
4, 93840, Note_on_c, 2, 41, 110
4, 94074, Note_off_c, 2, 41, 127
4, 94080, Note_on_c, 2, 39, 110
4, 94315, Note_off_c, 2, 39, 127
4, 94319, Note_on_c, 2, 39, 110
4, 94554, Note_off_c, 2, 39, 127
4, 94560, Note_on_c, 2, 42, 110
4, 94794, Note_off_c, 2, 42, 127
4, 94800, Note_on_c, 2, 39, 110
4, 95035, Note_off_c, 2, 39, 127
4, 95039, Note_on_c, 2, 44, 110
4, 95274, Note_off_c, 2, 44, 127
4, 95280, Note_on_c, 2, 39, 110
4, 95394, Note_off_c, 2, 39, 127
4, 95400, Note_on_c, 2, 46, 110
4, 95635, Note_off_c, 2, 46, 127
4, 95639, Note_on_c, 2, 39, 110
4, 95755, Note_off_c, 2, 39, 127
4, 95759, Note_on_c, 2, 44, 110
4, 95994, Note_off_c, 2, 44, 127
4, 96000, Note_on_c, 2, 39, 110
4, 96234, Note_off_c, 2, 39, 127
4, 96239, Note_on_c, 2, 39, 110
4, 96475, Note_off_c, 2, 39, 127
4, 96479, Note_on_c, 2, 42, 110
4, 96714, Note_off_c, 2, 42, 127
4, 96720, Note_on_c, 2, 39, 110
4, 96955, Note_off_c, 2, 39, 127
4, 96959, Note_on_c, 2, 44, 110
4, 97195, Note_off_c, 2, 44, 127
4, 97199, Note_on_c, 2, 39, 110
4, 97314, Note_off_c, 2, 39, 127
4, 97320, Note_on_c, 2, 46, 110
4, 97554, Note_off_c, 2, 46, 127
4, 97560, Note_on_c, 2, 39, 110
4, 97675, Note_off_c, 2, 39, 127
4, 97679, Note_on_c, 2, 44, 110
4, 97915, Note_off_c, 2, 44, 127
4, 97919, Note_on_c, 2, 39, 110
4, 98154, Note_off_c, 2, 39, 127
4, 98160, Note_on_c, 2, 39, 110
4, 98395, Note_off_c, 2, 39, 127
4, 98399, Note_on_c, 2, 42, 110
4, 98635, Note_off_c, 2, 42, 127
4, 98639, Note_on_c, 2, 39, 110
4, 98874, Note_off_c, 2, 39, 127
4, 98880, Note_on_c, 2, 44, 110
4, 99115, Note_off_c, 2, 44, 127
4, 99119, Note_on_c, 2, 39, 110
4, 99235, Note_off_c, 2, 39, 127
4, 99239, Note_on_c, 2, 46, 110
4, 99474, Note_off_c, 2, 46, 127
4, 99480, Note_on_c, 2, 39, 110
4, 99594, Note_off_c, 2, 39, 127
4, 99600, Note_on_c, 2, 44, 110
4, 99835, Note_off_c, 2, 44, 127
4, 99839, Note_on_c, 2, 39, 110
4, 100074, Note_off_c, 2, 39, 127
4, 100080, Note_on_c, 2, 39, 110
4, 100314, Note_off_c, 2, 39, 127
4, 100320, Note_on_c, 2, 42, 110
4, 100555, Note_off_c, 2, 42, 127
4, 100559, Note_on_c, 2, 39, 110
4, 100794, Note_off_c, 2, 39, 127
4, 100800, Note_on_c, 2, 44, 110
4, 101034, Note_off_c, 2, 44, 127
4, 101040, Note_on_c, 2, 39, 110
4, 101155, Note_off_c, 2, 39, 127
4, 101159, Note_on_c, 2, 46, 110
4, 101395, Note_off_c, 2, 46, 127
4, 101399, Note_on_c, 2, 39, 110
4, 101514, Note_off_c, 2, 39, 127
4, 101520, Note_on_c, 2, 44, 110
4, 101754, Note_off_c, 2, 44, 127
4, 101759, Note_on_c, 2, 39, 110
4, 101995, Note_off_c, 2, 39, 127
4, 101999, Note_on_c, 2, 39, 110
4, 102234, Note_off_c, 2, 39, 127
4, 102240, Note_on_c, 2, 42, 110
4, 102475, Note_off_c, 2, 42, 127
4, 102479, Note_on_c, 2, 39, 110
4, 102715, Note_off_c, 2, 39, 127
4, 102719, Note_on_c, 2, 44, 110
4, 102954, Note_off_c, 2, 44, 127
4, 102960, Note_on_c, 2, 39, 110
4, 103074, Note_off_c, 2, 39, 127
4, 103080, Note_on_c, 2, 46, 110
4, 103315, Note_off_c, 2, 46, 127
4, 103319, Note_on_c, 2, 39, 110
4, 103435, Note_off_c, 2, 39, 127
4, 103439, Note_on_c, 2, 44, 110
4, 103674, Note_off_c, 2, 44, 127
4, 103680, Note_on_c, 2, 39, 110
4, 103915, Note_off_c, 2, 39, 127
4, 103919, Note_on_c, 2, 39, 110
4, 104155, Note_off_c, 2, 39, 127
4, 104159, Note_on_c, 2, 42, 110
4, 104394, Note_off_c, 2, 42, 127
4, 104400, Note_on_c, 2, 39, 110
4, 104635, Note_off_c, 2, 39, 127
4, 104639, Note_on_c, 2, 44, 110
4, 104874, Note_off_c, 2, 44, 127
4, 104880, Note_on_c, 2, 39, 110
4, 104994, Note_off_c, 2, 39, 127
4, 105000, Note_on_c, 2, 46, 110
4, 105235, Note_off_c, 2, 46, 127
4, 105239, Note_on_c, 2, 39, 110
4, 105355, Note_off_c, 2, 39, 127
4, 105359, Note_on_c, 2, 44, 110
4, 105594, Note_off_c, 2, 44, 127
4, 105600, Note_on_c, 2, 39, 110
4, 105834, Note_off_c, 2, 39, 127
4, 105840, Note_on_c, 2, 39, 110
4, 106075, Note_off_c, 2, 39, 127
4, 106079, Note_on_c, 2, 42, 110
4, 106314, Note_off_c, 2, 42, 127
4, 106320, Note_on_c, 2, 39, 110
4, 106554, Note_off_c, 2, 39, 127
4, 106560, Note_on_c, 2, 44, 110
4, 106795, Note_off_c, 2, 44, 127
4, 106799, Note_on_c, 2, 39, 110
4, 106915, Note_off_c, 2, 39, 127
4, 106919, Note_on_c, 2, 46, 110
4, 107154, Note_off_c, 2, 46, 127
4, 107160, Note_on_c, 2, 39, 110
4, 107274, Note_off_c, 2, 39, 127
4, 107279, Note_on_c, 2, 44, 110
4, 107515, Note_off_c, 2, 44, 127
4, 107519, Note_on_c, 2, 39, 110
4, 107754, Note_off_c, 2, 39, 127
4, 107760, Note_on_c, 2, 39, 110
4, 107995, Note_off_c, 2, 39, 127
4, 107999, Note_on_c, 2, 42, 110
4, 108235, Note_off_c, 2, 42, 127
4, 108239, Note_on_c, 2, 39, 110
4, 108474, Note_off_c, 2, 39, 127
4, 108480, Note_on_c, 2, 44, 110
4, 108715, Note_off_c, 2, 44, 127
4, 108719, Note_on_c, 2, 39, 110
4, 108835, Note_off_c, 2, 39, 127
4, 108839, Note_on_c, 2, 46, 110
4, 109074, Note_off_c, 2, 46, 127
4, 109080, Note_on_c, 2, 39, 110
4, 109194, Note_off_c, 2, 39, 127
4, 109200, Note_on_c, 2, 44, 110
4, 109435, Note_off_c, 2, 44, 127
4, 109439, Note_on_c, 2, 32, 110
4, 109675, Note_off_c, 2, 32, 127
4, 109679, Note_on_c, 2, 44, 110
4, 109914, Note_off_c, 2, 44, 127
4, 109920, Note_on_c, 2, 32, 110
4, 110155, Note_off_c, 2, 32, 127
4, 110159, Note_on_c, 2, 34, 110
4, 110634, Note_off_c, 2, 34, 127
4, 110640, Note_on_c, 2, 46, 110
4, 110875, Note_off_c, 2, 46, 127
4, 110879, Note_on_c, 2, 34, 110
4, 111114, Note_off_c, 2, 34, 127
4, 111120, Note_on_c, 2, 35, 110
4, 111595, Note_off_c, 2, 35, 127
4, 111599, Note_on_c, 2, 35, 110
4, 111834, Note_off_c, 2, 35, 127
4, 111840, Note_on_c, 2, 35, 110
4, 112074, Note_off_c, 2, 35, 127
4, 112080, Note_on_c, 2, 35, 110
4, 112315, Note_off_c, 2, 35, 127
4, 112319, Note_on_c, 2, 35, 110
4, 112554, Note_off_c, 2, 35, 127
4, 112560, Note_on_c, 2, 35, 110
4, 112794, Note_off_c, 2, 35, 127
4, 112799, Note_on_c, 2, 35, 110
4, 113035, Note_off_c, 2, 35, 127
4, 113039, Note_on_c, 2, 35, 110
4, 113274, Note_off_c, 2, 35, 127
4, 113280, Note_on_c, 2, 35, 110
4, 113515, Note_off_c, 2, 35, 127
4, 113519, Note_on_c, 2, 47, 110
4, 113755, Note_off_c, 2, 47, 127
4, 113759, Note_on_c, 2, 35, 110
4, 113994, Note_off_c, 2, 35, 127
4, 114000, Note_on_c, 2, 37, 110
4, 114475, Note_off_c, 2, 37, 127
4, 114479, Note_on_c, 2, 49, 110
4, 114714, Note_off_c, 2, 49, 127
4, 114720, Note_on_c, 2, 37, 110
4, 114955, Note_off_c, 2, 37, 127
4, 114959, Note_on_c, 2, 39, 110
4, 115434, Note_off_c, 2, 39, 127
4, 115440, Note_on_c, 2, 39, 110
4, 115675, Note_off_c, 2, 39, 127
4, 115679, Note_on_c, 2, 39, 110
4, 115914, Note_off_c, 2, 39, 127
4, 115920, Note_on_c, 2, 39, 110
4, 116154, Note_off_c, 2, 39, 127
4, 116160, Note_on_c, 2, 39, 110
4, 116395, Note_off_c, 2, 39, 127
4, 116399, Note_on_c, 2, 39, 110
4, 116634, Note_off_c, 2, 39, 127
4, 116640, Note_on_c, 2, 39, 110
4, 116874, Note_off_c, 2, 39, 127
4, 116880, Note_on_c, 2, 39, 110
4, 117115, Note_off_c, 2, 39, 127
4, 117119, Note_on_c, 2, 39, 110
4, 117354, Note_off_c, 2, 39, 127
4, 117360, Note_on_c, 2, 51, 110
4, 117594, Note_off_c, 2, 51, 127
4, 117600, Note_on_c, 2, 39, 110
4, 117835, Note_off_c, 2, 39, 127
4, 117839, Note_on_c, 2, 41, 110
4, 118314, Note_off_c, 2, 41, 127
4, 118319, Note_on_c, 2, 53, 110
4, 118555, Note_off_c, 2, 53, 127
4, 118559, Note_on_c, 2, 41, 110
4, 118794, Note_off_c, 2, 41, 127
4, 118800, Note_on_c, 2, 42, 110
4, 119275, Note_off_c, 2, 42, 127
4, 119279, Note_on_c, 2, 54, 110
4, 119514, Note_off_c, 2, 54, 127
4, 119520, Note_on_c, 2, 42, 110
4, 119755, Note_off_c, 2, 42, 127
4, 119759, Note_on_c, 2, 32, 110
4, 119995, Note_off_c, 2, 32, 127
4, 119999, Note_on_c, 2, 32, 110
4, 120234, Note_off_c, 2, 32, 127
4, 120240, Note_on_c, 2, 32, 110
4, 120475, Note_off_c, 2, 32, 127
4, 120479, Note_on_c, 2, 32, 110
4, 120880, Note_off_c, 2, 32, 127
4, 120960, End_track
5, 0, Start_track
5, 0, Title_t, "Cammy's Stage-4"
5, 1919, Control_c, 3, 0, 0
5, 1919, Control_c, 3, 10, 64
5, 1919, Control_c, 3, 121, 0
5, 1919, Program_c, 3, 29
5, 1919, Note_on_c, 3, 51, 110
5, 1919, Control_c, 3, 91, 0
5, 1919, Control_c, 3, 32, 0
5, 1919, Control_c, 3, 7, 127
5, 1919, Control_c, 3, 93, 0
5, 3239, Note_off_c, 3, 51, 127
5, 3359, Note_on_c, 3, 49, 110
5, 3760, Note_off_c, 3, 49, 127
5, 3839, Note_on_c, 3, 47, 110
5, 5159, Note_off_c, 3, 47, 127
5, 5279, Note_on_c, 3, 49, 110
5, 5680, Note_off_c, 3, 49, 127
5, 5760, Note_on_c, 3, 51, 110
5, 7080, Note_off_c, 3, 51, 127
5, 7200, Note_on_c, 3, 49, 110
5, 7600, Note_off_c, 3, 49, 127
5, 7680, Note_on_c, 3, 47, 110
5, 9000, Note_off_c, 3, 47, 127
5, 9120, Note_on_c, 3, 49, 110
5, 9519, Note_off_c, 3, 49, 127
5, 9599, Note_on_c, 3, 44, 110
5, 11395, Note_off_c, 3, 44, 127
5, 11399, Note_on_c, 3, 44, 110
5, 11515, Note_off_c, 3, 44, 127
5, 11519, Note_on_c, 3, 46, 110
5, 13320, Note_off_c, 3, 46, 127
5, 13439, Note_on_c, 3, 47, 110
5, 15240, Note_off_c, 3, 47, 127
5, 15360, Note_on_c, 3, 49, 110
5, 16000, Note_off_c, 3, 49, 127
5, 16080, Note_on_c, 3, 46, 110
5, 16194, Note_off_c, 3, 46, 127
5, 16199, Note_on_c, 3, 46, 110
5, 16315, Note_off_c, 3, 46, 127
5, 16319, Note_on_c, 3, 49, 110
5, 16674, Note_off_c, 3, 49, 127
5, 16680, Note_on_c, 3, 51, 110
5, 17035, Note_off_c, 3, 51, 127
5, 17039, Note_on_c, 3, 49, 110
5, 17274, Note_off_c, 3, 49, 127
5, 55679, Note_on_c, 3, 51, 110
5, 56319, Note_off_c, 3, 51, 127
5, 56399, Note_on_c, 3, 56, 110
5, 57280, Note_off_c, 3, 56, 127
5, 57360, Note_on_c, 3, 54, 110
5, 57835, Note_off_c, 3, 54, 127
5, 57839, Note_on_c, 3, 54, 110
5, 58074, Note_off_c, 3, 54, 127
5, 58080, Note_on_c, 3, 54, 110
5, 58315, Note_off_c, 3, 54, 127
5, 58319, Note_on_c, 3, 56, 110
5, 58794, Note_off_c, 3, 56, 127
5, 58800, Note_on_c, 3, 53, 110
5, 59035, Note_off_c, 3, 53, 127
5, 59039, Note_on_c, 3, 53, 110
5, 59275, Note_off_c, 3, 53, 127
5, 59279, Note_on_c, 3, 49, 110
5, 59755, Note_off_c, 3, 49, 127
5, 59759, Note_on_c, 3, 49, 110
5, 59995, Note_off_c, 3, 49, 127
5, 59999, Note_on_c, 3, 49, 110
5, 60114, Note_off_c, 3, 49, 127
5, 60120, Note_on_c, 3, 49, 110
5, 60354, Note_off_c, 3, 49, 127
5, 60359, Note_on_c, 3, 49, 110
5, 60475, Note_off_c, 3, 49, 127
5, 60479, Note_on_c, 3, 49, 110
5, 60714, Note_off_c, 3, 49, 127
5, 60720, Note_on_c, 3, 49, 110
5, 60954, Note_off_c, 3, 49, 127
5, 60960, Note_on_c, 3, 49, 110
5, 61075, Note_off_c, 3, 49, 127
5, 61079, Note_on_c, 3, 49, 110
5, 61195, Note_off_c, 3, 49, 127
5, 61199, Note_on_c, 3, 49, 110
5, 61434, Note_off_c, 3, 49, 127
5, 61440, Note_on_c, 3, 47, 110
5, 62079, Note_off_c, 3, 47, 127
5, 62160, Note_on_c, 3, 49, 110
5, 63239, Note_off_c, 3, 49, 127
5, 63359, Note_on_c, 3, 51, 110
5, 64679, Note_off_c, 3, 51, 127
5, 64799, Note_on_c, 3, 49, 110
5, 65199, Note_off_c, 3, 49, 127
5, 65279, Note_on_c, 3, 47, 110
5, 66599, Note_off_c, 3, 47, 127
5, 66719, Note_on_c, 3, 49, 110
5, 67120, Note_off_c, 3, 49, 127
5, 67200, Note_on_c, 3, 51, 110
5, 68520, Note_off_c, 3, 51, 127
5, 68639, Note_on_c, 3, 49, 110
5, 69040, Note_off_c, 3, 49, 127
5, 69120, Note_on_c, 3, 47, 110
5, 70440, Note_off_c, 3, 47, 127
5, 70560, Note_on_c, 3, 49, 110
5, 70959, Note_off_c, 3, 49, 127
5, 71039, Note_on_c, 3, 44, 110
5, 72835, Note_off_c, 3, 44, 127
5, 72839, Note_on_c, 3, 44, 110
5, 72955, Note_off_c, 3, 44, 127
5, 72959, Note_on_c, 3, 46, 110
5, 74760, Note_off_c, 3, 46, 127
5, 74879, Note_on_c, 3, 47, 110
5, 76680, Note_off_c, 3, 47, 127
5, 76800, Note_on_c, 3, 49, 110
5, 77440, Note_off_c, 3, 49, 127
5, 77520, Note_on_c, 3, 46, 110
5, 77635, Note_off_c, 3, 46, 127
5, 77639, Note_on_c, 3, 46, 110
5, 77755, Note_off_c, 3, 46, 127
5, 77759, Note_on_c, 3, 49, 110
5, 78114, Note_off_c, 3, 49, 127
5, 78120, Note_on_c, 3, 51, 110
5, 78475, Note_off_c, 3, 51, 127
5, 78479, Note_on_c, 3, 49, 110
5, 78714, Note_off_c, 3, 49, 127
5, 117119, Note_on_c, 3, 51, 110
5, 117759, Note_off_c, 3, 51, 127
5, 117839, Note_on_c, 3, 56, 110
5, 118720, Note_off_c, 3, 56, 127
5, 118800, Note_on_c, 3, 54, 110
5, 119275, Note_off_c, 3, 54, 127
5, 119279, Note_on_c, 3, 54, 110
5, 119514, Note_off_c, 3, 54, 127
5, 119520, Note_on_c, 3, 54, 110
5, 119755, Note_off_c, 3, 54, 127
5, 119759, Note_on_c, 3, 56, 110
5, 120234, Note_off_c, 3, 56, 127
5, 120240, Note_on_c, 3, 53, 110
5, 120475, Note_off_c, 3, 53, 127
5, 120479, Note_on_c, 3, 53, 110
5, 120880, Note_off_c, 3, 53, 127
5, 120960, End_track
6, 0, Start_track
6, 0, Title_t, "Cammy's Stage-5"
6, 1919, Control_c, 4, 121, 0
6, 1919, Program_c, 4, 2
6, 1919, Control_c, 4, 32, 0
6, 1919, Control_c, 4, 0, 0
6, 1919, Note_on_c, 4, 70, 110
6, 1919, Control_c, 4, 91, 0
6, 1919, Control_c, 4, 7, 127
6, 1919, Control_c, 4, 93, 0
6, 1919, Control_c, 4, 10, 64
6, 2274, Note_off_c, 4, 70, 127
6, 2280, Note_on_c, 4, 70, 110
6, 2635, Note_off_c, 4, 70, 127
6, 2639, Note_on_c, 4, 70, 110
6, 2874, Note_off_c, 4, 70, 127
6, 3119, Note_on_c, 4, 70, 110
6, 3355, Note_off_c, 4, 70, 127
6, 3359, Note_on_c, 4, 68, 110
6, 3760, Note_off_c, 4, 68, 127
6, 3839, Note_on_c, 4, 70, 110
6, 4194, Note_off_c, 4, 70, 127
6, 4200, Note_on_c, 4, 66, 110
6, 4555, Note_off_c, 4, 66, 127
6, 4559, Note_on_c, 4, 63, 110
6, 4795, Note_off_c, 4, 63, 127
6, 5040, Note_on_c, 4, 70, 110
6, 5275, Note_off_c, 4, 70, 127
6, 5279, Note_on_c, 4, 68, 110
6, 5680, Note_off_c, 4, 68, 127
6, 5760, Note_on_c, 4, 70, 110
6, 6115, Note_off_c, 4, 70, 127
6, 6119, Note_on_c, 4, 70, 110
6, 6474, Note_off_c, 4, 70, 127
6, 6480, Note_on_c, 4, 70, 110
6, 6715, Note_off_c, 4, 70, 127
6, 6960, Note_on_c, 4, 70, 110
6, 7194, Note_off_c, 4, 70, 127
6, 7200, Note_on_c, 4, 68, 110
6, 7600, Note_off_c, 4, 68, 127
6, 7680, Note_on_c, 4, 70, 110
6, 8035, Note_off_c, 4, 70, 127
6, 8039, Note_on_c, 4, 66, 110
6, 8394, Note_off_c, 4, 66, 127
6, 8400, Note_on_c, 4, 63, 110
6, 8635, Note_off_c, 4, 63, 127
6, 8879, Note_on_c, 4, 70, 110
6, 9114, Note_off_c, 4, 70, 127
6, 9120, Note_on_c, 4, 68, 110
6, 9519, Note_off_c, 4, 68, 127
6, 9840, Note_on_c, 4, 66, 110
6, 9954, Note_off_c, 4, 66, 127
6, 9960, Note_on_c, 4, 65, 110
6, 10075, Note_off_c, 4, 65, 127
6, 10199, Note_on_c, 4, 66, 110
6, 10554, Note_off_c, 4, 66, 127
6, 10560, Note_on_c, 4, 66, 110
6, 10915, Note_off_c, 4, 66, 127
6, 10919, Note_on_c, 4, 70, 110
6, 11274, Note_off_c, 4, 70, 127
6, 11280, Note_on_c, 4, 63, 110
6, 11515, Note_off_c, 4, 63, 127
6, 11760, Note_on_c, 4, 61, 110
6, 11994, Note_off_c, 4, 61, 127
6, 12000, Note_on_c, 4, 65, 110
6, 12355, Note_off_c, 4, 65, 127
6, 12359, Note_on_c, 4, 65, 110
6, 12474, Note_off_c, 4, 65, 127
6, 12480, Note_on_c, 4, 65, 110
6, 12835, Note_off_c, 4, 65, 127
6, 12839, Note_on_c, 4, 66, 110
6, 13194, Note_off_c, 4, 66, 127
6, 13200, Note_on_c, 4, 68, 110
6, 13434, Note_off_c, 4, 68, 127
6, 13679, Note_on_c, 4, 70, 110
6, 13794, Note_off_c, 4, 70, 127
6, 13800, Note_on_c, 4, 66, 110
6, 13914, Note_off_c, 4, 66, 127
6, 13920, Note_on_c, 4, 70, 110
6, 14275, Note_off_c, 4, 70, 127
6, 14279, Note_on_c, 4, 58, 110
6, 14395, Note_off_c, 4, 58, 127
6, 14399, Note_on_c, 4, 65, 110
6, 14754, Note_off_c, 4, 65, 127
6, 14760, Note_on_c, 4, 66, 110
6, 15115, Note_off_c, 4, 66, 127
6, 15119, Note_on_c, 4, 70, 110
6, 15354, Note_off_c, 4, 70, 127
6, 15360, Note_on_c, 4, 68, 110
6, 15715, Note_off_c, 4, 68, 127
6, 15719, Note_on_c, 4, 73, 110
6, 16074, Note_off_c, 4, 73, 127
6, 16080, Note_on_c, 4, 73, 110
6, 16315, Note_off_c, 4, 73, 127
6, 16319, Note_on_c, 4, 68, 110
6, 16674, Note_off_c, 4, 68, 127
6, 16680, Note_on_c, 4, 73, 110
6, 17035, Note_off_c, 4, 73, 127
6, 17039, Note_on_c, 4, 68, 110
6, 17274, Note_off_c, 4, 68, 127
6, 17520, Note_on_c, 4, 66, 110
6, 17755, Note_off_c, 4, 66, 127
6, 17879, Note_on_c, 4, 66, 110
6, 18234, Note_off_c, 4, 66, 127
6, 18240, Note_on_c, 4, 66, 110
6, 18595, Note_off_c, 4, 66, 127
6, 18599, Note_on_c, 4, 66, 110
6, 18954, Note_off_c, 4, 66, 127
6, 18959, Note_on_c, 4, 66, 110
6, 19195, Note_off_c, 4, 66, 127
6, 19440, Note_on_c, 4, 65, 110
6, 19675, Note_off_c, 4, 65, 127
6, 19799, Note_on_c, 4, 65, 110
6, 20154, Note_off_c, 4, 65, 127
6, 20160, Note_on_c, 4, 65, 110
6, 20515, Note_off_c, 4, 65, 127
6, 20519, Note_on_c, 4, 65, 110
6, 20874, Note_off_c, 4, 65, 127
6, 20880, Note_on_c, 4, 65, 110
6, 21115, Note_off_c, 4, 65, 127
6, 21359, Note_on_c, 4, 68, 110
6, 21594, Note_off_c, 4, 68, 127
6, 21719, Note_on_c, 4, 68, 110
6, 22074, Note_off_c, 4, 68, 127
6, 22080, Note_on_c, 4, 68, 110
6, 22435, Note_off_c, 4, 68, 127
6, 22439, Note_on_c, 4, 68, 110
6, 22794, Note_off_c, 4, 68, 127
6, 22800, Note_on_c, 4, 68, 110
6, 23034, Note_off_c, 4, 68, 127
6, 23279, Note_on_c, 4, 66, 110
6, 23514, Note_off_c, 4, 66, 127
6, 23640, Note_on_c, 4, 66, 110
6, 23995, Note_off_c, 4, 66, 127
6, 23999, Note_on_c, 4, 66, 110
6, 24354, Note_off_c, 4, 66, 127
6, 24360, Note_on_c, 4, 66, 110
6, 24715, Note_off_c, 4, 66, 127
6, 24719, Note_on_c, 4, 66, 110
6, 24954, Note_off_c, 4, 66, 127
6, 25199, Note_on_c, 4, 66, 110
6, 25435, Note_off_c, 4, 66, 127
6, 25560, Note_on_c, 4, 66, 110
6, 25915, Note_off_c, 4, 66, 127
6, 25919, Note_on_c, 4, 66, 110
6, 26274, Note_off_c, 4, 66, 127
6, 26280, Note_on_c, 4, 66, 110
6, 26635, Note_off_c, 4, 66, 127
6, 26639, Note_on_c, 4, 66, 110
6, 26875, Note_off_c, 4, 66, 127
6, 27120, Note_on_c, 4, 65, 110
6, 27355, Note_off_c, 4, 65, 127
6, 27479, Note_on_c, 4, 65, 110
6, 27834, Note_off_c, 4, 65, 127
6, 27840, Note_on_c, 4, 65, 110
6, 28195, Note_off_c, 4, 65, 127
6, 28199, Note_on_c, 4, 65, 110
6, 28554, Note_off_c, 4, 65, 127
6, 28560, Note_on_c, 4, 65, 110
6, 28795, Note_off_c, 4, 65, 127
6, 29040, Note_on_c, 4, 68, 110
6, 29274, Note_off_c, 4, 68, 127
6, 29399, Note_on_c, 4, 68, 110
6, 29754, Note_off_c, 4, 68, 127
6, 29760, Note_on_c, 4, 68, 110
6, 30115, Note_off_c, 4, 68, 127
6, 30119, Note_on_c, 4, 68, 110
6, 30474, Note_off_c, 4, 68, 127
6, 30480, Note_on_c, 4, 68, 110
6, 30715, Note_off_c, 4, 68, 127
6, 30959, Note_on_c, 4, 66, 110
6, 31194, Note_off_c, 4, 66, 127
6, 31320, Note_on_c, 4, 66, 110
6, 31675, Note_off_c, 4, 66, 127
6, 31679, Note_on_c, 4, 66, 110
6, 32034, Note_off_c, 4, 66, 127
6, 32040, Note_on_c, 4, 66, 110
6, 32395, Note_off_c, 4, 66, 127
6, 32399, Note_on_c, 4, 66, 110
6, 32634, Note_off_c, 4, 66, 127
6, 32879, Note_on_c, 4, 66, 110
6, 33114, Note_off_c, 4, 66, 127
6, 33240, Note_on_c, 4, 66, 110
6, 33595, Note_off_c, 4, 66, 127
6, 33599, Note_on_c, 4, 66, 110
6, 33954, Note_off_c, 4, 66, 127
6, 33960, Note_on_c, 4, 66, 110
6, 34315, Note_off_c, 4, 66, 127
6, 34319, Note_on_c, 4, 66, 110
6, 34554, Note_off_c, 4, 66, 127
6, 34800, Note_on_c, 4, 65, 110
6, 35035, Note_off_c, 4, 65, 127
6, 35159, Note_on_c, 4, 65, 110
6, 35514, Note_off_c, 4, 65, 127
6, 35519, Note_on_c, 4, 65, 110
6, 35874, Note_off_c, 4, 65, 127
6, 35880, Note_on_c, 4, 65, 110
6, 36235, Note_off_c, 4, 65, 127
6, 36239, Note_on_c, 4, 65, 110
6, 36475, Note_off_c, 4, 65, 127
6, 36720, Note_on_c, 4, 68, 110
6, 36955, Note_off_c, 4, 68, 127
6, 37079, Note_on_c, 4, 68, 110
6, 37434, Note_off_c, 4, 68, 127
6, 37440, Note_on_c, 4, 68, 110
6, 37795, Note_off_c, 4, 68, 127
6, 37799, Note_on_c, 4, 68, 110
6, 38154, Note_off_c, 4, 68, 127
6, 38160, Note_on_c, 4, 68, 110
6, 38395, Note_off_c, 4, 68, 127
6, 38640, Note_on_c, 4, 66, 110
6, 38874, Note_off_c, 4, 66, 127
6, 38999, Note_on_c, 4, 66, 110
6, 39354, Note_off_c, 4, 66, 127
6, 39360, Note_on_c, 4, 66, 110
6, 39715, Note_off_c, 4, 66, 127
6, 39719, Note_on_c, 4, 66, 110
6, 40074, Note_off_c, 4, 66, 127
6, 40080, Note_on_c, 4, 66, 110
6, 40314, Note_off_c, 4, 66, 127
6, 40559, Note_on_c, 4, 66, 110
6, 40794, Note_off_c, 4, 66, 127
6, 40920, Note_on_c, 4, 66, 110
6, 41275, Note_off_c, 4, 66, 127
6, 41279, Note_on_c, 4, 66, 110
6, 41634, Note_off_c, 4, 66, 127
6, 41640, Note_on_c, 4, 66, 110
6, 41995, Note_off_c, 4, 66, 127
6, 41999, Note_on_c, 4, 66, 110
6, 42234, Note_off_c, 4, 66, 127
6, 42479, Note_on_c, 4, 65, 110
6, 42715, Note_off_c, 4, 65, 127
6, 42840, Note_on_c, 4, 65, 110
6, 43195, Note_off_c, 4, 65, 127
6, 43199, Note_on_c, 4, 65, 110
6, 43554, Note_off_c, 4, 65, 127
6, 43560, Note_on_c, 4, 65, 110
6, 43915, Note_off_c, 4, 65, 127
6, 43919, Note_on_c, 4, 65, 110
6, 44154, Note_off_c, 4, 65, 127
6, 44400, Note_on_c, 4, 68, 110
6, 44635, Note_off_c, 4, 68, 127
6, 44759, Note_on_c, 4, 68, 110
6, 45114, Note_off_c, 4, 68, 127
6, 45120, Note_on_c, 4, 68, 110
6, 45475, Note_off_c, 4, 68, 127
6, 45479, Note_on_c, 4, 68, 110
6, 45834, Note_off_c, 4, 68, 127
6, 45840, Note_on_c, 4, 68, 110
6, 46075, Note_off_c, 4, 68, 127
6, 46320, Note_on_c, 4, 66, 110
6, 46554, Note_off_c, 4, 66, 127
6, 46679, Note_on_c, 4, 66, 110
6, 47034, Note_off_c, 4, 66, 127
6, 47040, Note_on_c, 4, 66, 110
6, 47395, Note_off_c, 4, 66, 127
6, 47399, Note_on_c, 4, 66, 110
6, 47754, Note_off_c, 4, 66, 127
6, 47760, Note_on_c, 4, 66, 110
6, 47995, Note_off_c, 4, 66, 127
6, 48239, Note_on_c, 4, 66, 110
6, 48474, Note_off_c, 4, 66, 127
6, 48600, Note_on_c, 4, 66, 110
6, 48715, Note_off_c, 4, 66, 127
6, 48719, Note_on_c, 4, 68, 110
6, 48955, Note_off_c, 4, 68, 127
6, 49680, Note_on_c, 4, 70, 110
6, 49914, Note_off_c, 4, 70, 127
6, 50400, Note_on_c, 4, 70, 110
6, 50799, Note_off_c, 4, 70, 127
6, 50879, Note_on_c, 4, 70, 110
6, 51234, Note_off_c, 4, 70, 127
6, 51240, Note_on_c, 4, 70, 110
6, 51354, Note_off_c, 4, 70, 127
6, 51479, Note_on_c, 4, 70, 110
6, 51834, Note_off_c, 4, 70, 127
6, 52079, Note_on_c, 4, 70, 110
6, 52315, Note_off_c, 4, 70, 127
6, 52440, Note_on_c, 4, 70, 110
6, 52554, Note_off_c, 4, 70, 127
6, 52560, Note_on_c, 4, 73, 110
6, 52795, Note_off_c, 4, 73, 127
6, 53519, Note_on_c, 4, 73, 110
6, 53755, Note_off_c, 4, 73, 127
6, 54000, Note_on_c, 4, 75, 110
6, 54235, Note_off_c, 4, 75, 127
6, 54239, Note_on_c, 4, 75, 110
6, 55079, Note_off_c, 4, 75, 127
6, 55920, Note_on_c, 4, 70, 110
6, 56154, Note_off_c, 4, 70, 127
6, 56880, Note_on_c, 4, 73, 110
6, 57115, Note_off_c, 4, 73, 127
6, 57839, Note_on_c, 4, 73, 110
6, 58074, Note_off_c, 4, 73, 127
6, 58559, Note_on_c, 4, 75, 110
6, 58960, Note_off_c, 4, 75, 127
6, 59279, Note_on_c, 4, 68, 110
6, 59514, Note_off_c, 4, 68, 127
6, 59999, Note_on_c, 4, 68, 110
6, 60399, Note_off_c, 4, 68, 127
6, 60479, Note_on_c, 4, 73, 110
6, 60880, Note_off_c, 4, 73, 127
6, 60960, Note_on_c, 4, 68, 110
6, 61359, Note_off_c, 4, 68, 127
6, 61440, Note_on_c, 4, 70, 110
6, 61839, Note_off_c, 4, 70, 127
6, 62160, Note_on_c, 4, 68, 110
6, 63239, Note_off_c, 4, 68, 127
6, 63359, Note_on_c, 4, 70, 110
6, 63714, Note_off_c, 4, 70, 127
6, 63720, Note_on_c, 4, 70, 110
6, 64075, Note_off_c, 4, 70, 127
6, 64079, Note_on_c, 4, 70, 110
6, 64314, Note_off_c, 4, 70, 127
6, 64559, Note_on_c, 4, 70, 110
6, 64795, Note_off_c, 4, 70, 127
6, 64799, Note_on_c, 4, 68, 110
6, 65199, Note_off_c, 4, 68, 127
6, 65279, Note_on_c, 4, 70, 110
6, 65634, Note_off_c, 4, 70, 127
6, 65640, Note_on_c, 4, 66, 110
6, 65995, Note_off_c, 4, 66, 127
6, 65999, Note_on_c, 4, 63, 110
6, 66234, Note_off_c, 4, 63, 127
6, 66480, Note_on_c, 4, 70, 110
6, 66715, Note_off_c, 4, 70, 127
6, 66719, Note_on_c, 4, 68, 110
6, 67120, Note_off_c, 4, 68, 127
6, 67200, Note_on_c, 4, 70, 110
6, 67555, Note_off_c, 4, 70, 127
6, 67559, Note_on_c, 4, 70, 110
6, 67914, Note_off_c, 4, 70, 127
6, 67920, Note_on_c, 4, 70, 110
6, 68155, Note_off_c, 4, 70, 127
6, 68400, Note_on_c, 4, 70, 110
6, 68634, Note_off_c, 4, 70, 127
6, 68639, Note_on_c, 4, 68, 110
6, 69040, Note_off_c, 4, 68, 127
6, 69120, Note_on_c, 4, 70, 110
6, 69475, Note_off_c, 4, 70, 127
6, 69479, Note_on_c, 4, 66, 110
6, 69834, Note_off_c, 4, 66, 127
6, 69840, Note_on_c, 4, 63, 110
6, 70075, Note_off_c, 4, 63, 127
6, 70319, Note_on_c, 4, 70, 110
6, 70554, Note_off_c, 4, 70, 127
6, 70560, Note_on_c, 4, 68, 110
6, 70959, Note_off_c, 4, 68, 127
6, 71280, Note_on_c, 4, 66, 110
6, 71394, Note_off_c, 4, 66, 127
6, 71399, Note_on_c, 4, 65, 110
6, 71515, Note_off_c, 4, 65, 127
6, 71639, Note_on_c, 4, 66, 110
6, 71994, Note_off_c, 4, 66, 127
6, 72000, Note_on_c, 4, 66, 110
6, 72355, Note_off_c, 4, 66, 127
6, 72359, Note_on_c, 4, 70, 110
6, 72714, Note_off_c, 4, 70, 127
6, 72720, Note_on_c, 4, 63, 110
6, 72955, Note_off_c, 4, 63, 127
6, 73200, Note_on_c, 4, 61, 110
6, 73434, Note_off_c, 4, 61, 127
6, 73440, Note_on_c, 4, 65, 110
6, 73795, Note_off_c, 4, 65, 127
6, 73799, Note_on_c, 4, 65, 110
6, 73914, Note_off_c, 4, 65, 127
6, 73920, Note_on_c, 4, 65, 110
6, 74275, Note_off_c, 4, 65, 127
6, 74279, Note_on_c, 4, 66, 110
6, 74634, Note_off_c, 4, 66, 127
6, 74640, Note_on_c, 4, 68, 110
6, 74875, Note_off_c, 4, 68, 127
6, 75119, Note_on_c, 4, 70, 110
6, 75234, Note_off_c, 4, 70, 127
6, 75240, Note_on_c, 4, 66, 110
6, 75354, Note_off_c, 4, 66, 127
6, 75360, Note_on_c, 4, 70, 110
6, 75715, Note_off_c, 4, 70, 127
6, 75719, Note_on_c, 4, 58, 110
6, 75835, Note_off_c, 4, 58, 127
6, 75839, Note_on_c, 4, 65, 110
6, 76194, Note_off_c, 4, 65, 127
6, 76200, Note_on_c, 4, 66, 110
6, 76555, Note_off_c, 4, 66, 127
6, 76559, Note_on_c, 4, 70, 110
6, 76794, Note_off_c, 4, 70, 127
6, 76800, Note_on_c, 4, 68, 110
6, 77155, Note_off_c, 4, 68, 127
6, 77159, Note_on_c, 4, 73, 110
6, 77514, Note_off_c, 4, 73, 127
6, 77520, Note_on_c, 4, 73, 110
6, 77755, Note_off_c, 4, 73, 127
6, 77759, Note_on_c, 4, 68, 110
6, 78114, Note_off_c, 4, 68, 127
6, 78120, Note_on_c, 4, 73, 110
6, 78475, Note_off_c, 4, 73, 127
6, 78479, Note_on_c, 4, 68, 110
6, 78714, Note_off_c, 4, 68, 127
6, 78960, Note_on_c, 4, 66, 110
6, 79195, Note_off_c, 4, 66, 127
6, 79319, Note_on_c, 4, 66, 110
6, 79674, Note_off_c, 4, 66, 127
6, 79679, Note_on_c, 4, 66, 110
6, 80034, Note_off_c, 4, 66, 127
6, 80040, Note_on_c, 4, 66, 110
6, 80395, Note_off_c, 4, 66, 127
6, 80399, Note_on_c, 4, 66, 110
6, 80635, Note_off_c, 4, 66, 127
6, 80880, Note_on_c, 4, 65, 110
6, 81115, Note_off_c, 4, 65, 127
6, 81239, Note_on_c, 4, 65, 110
6, 81594, Note_off_c, 4, 65, 127
6, 81600, Note_on_c, 4, 65, 110
6, 81955, Note_off_c, 4, 65, 127
6, 81959, Note_on_c, 4, 65, 110
6, 82314, Note_off_c, 4, 65, 127
6, 82320, Note_on_c, 4, 65, 110
6, 82555, Note_off_c, 4, 65, 127
6, 82800, Note_on_c, 4, 68, 110
6, 83034, Note_off_c, 4, 68, 127
6, 83159, Note_on_c, 4, 68, 110
6, 83514, Note_off_c, 4, 68, 127
6, 83520, Note_on_c, 4, 68, 110
6, 83875, Note_off_c, 4, 68, 127
6, 83879, Note_on_c, 4, 68, 110
6, 84234, Note_off_c, 4, 68, 127
6, 84240, Note_on_c, 4, 68, 110
6, 84474, Note_off_c, 4, 68, 127
6, 84719, Note_on_c, 4, 66, 110
6, 84954, Note_off_c, 4, 66, 127
6, 85080, Note_on_c, 4, 66, 110
6, 85435, Note_off_c, 4, 66, 127
6, 85439, Note_on_c, 4, 66, 110
6, 85794, Note_off_c, 4, 66, 127
6, 85800, Note_on_c, 4, 66, 110
6, 86155, Note_off_c, 4, 66, 127
6, 86159, Note_on_c, 4, 66, 110
6, 86394, Note_off_c, 4, 66, 127
6, 86639, Note_on_c, 4, 66, 110
6, 86875, Note_off_c, 4, 66, 127
6, 87000, Note_on_c, 4, 66, 110
6, 87355, Note_off_c, 4, 66, 127
6, 87359, Note_on_c, 4, 66, 110
6, 87714, Note_off_c, 4, 66, 127
6, 87720, Note_on_c, 4, 66, 110
6, 88075, Note_off_c, 4, 66, 127
6, 88079, Note_on_c, 4, 66, 110
6, 88314, Note_off_c, 4, 66, 127
6, 88560, Note_on_c, 4, 65, 110
6, 88795, Note_off_c, 4, 65, 127
6, 88919, Note_on_c, 4, 65, 110
6, 89274, Note_off_c, 4, 65, 127
6, 89280, Note_on_c, 4, 65, 110
6, 89635, Note_off_c, 4, 65, 127
6, 89639, Note_on_c, 4, 65, 110
6, 89994, Note_off_c, 4, 65, 127
6, 90000, Note_on_c, 4, 65, 110
6, 90235, Note_off_c, 4, 65, 127
6, 90480, Note_on_c, 4, 68, 110
6, 90714, Note_off_c, 4, 68, 127
6, 90839, Note_on_c, 4, 68, 110
6, 91194, Note_off_c, 4, 68, 127
6, 91200, Note_on_c, 4, 68, 110
6, 91555, Note_off_c, 4, 68, 127
6, 91559, Note_on_c, 4, 68, 110
6, 91914, Note_off_c, 4, 68, 127
6, 91920, Note_on_c, 4, 68, 110
6, 92155, Note_off_c, 4, 68, 127
6, 92399, Note_on_c, 4, 66, 110
6, 92634, Note_off_c, 4, 66, 127
6, 92760, Note_on_c, 4, 66, 110
6, 93115, Note_off_c, 4, 66, 127
6, 93119, Note_on_c, 4, 66, 110
6, 93474, Note_off_c, 4, 66, 127
6, 93479, Note_on_c, 4, 66, 110
6, 93834, Note_off_c, 4, 66, 127
6, 93840, Note_on_c, 4, 66, 110
6, 94074, Note_off_c, 4, 66, 127
6, 94319, Note_on_c, 4, 66, 110
6, 94554, Note_off_c, 4, 66, 127
6, 94680, Note_on_c, 4, 66, 110
6, 95035, Note_off_c, 4, 66, 127
6, 95039, Note_on_c, 4, 66, 110
6, 95394, Note_off_c, 4, 66, 127
6, 95400, Note_on_c, 4, 66, 110
6, 95755, Note_off_c, 4, 66, 127
6, 95759, Note_on_c, 4, 66, 110
6, 95994, Note_off_c, 4, 66, 127
6, 96239, Note_on_c, 4, 65, 110
6, 96475, Note_off_c, 4, 65, 127
6, 96600, Note_on_c, 4, 65, 110
6, 96955, Note_off_c, 4, 65, 127
6, 96959, Note_on_c, 4, 65, 110
6, 97314, Note_off_c, 4, 65, 127
6, 97320, Note_on_c, 4, 65, 110
6, 97675, Note_off_c, 4, 65, 127
6, 97679, Note_on_c, 4, 65, 110
6, 97915, Note_off_c, 4, 65, 127
6, 98160, Note_on_c, 4, 68, 110
6, 98395, Note_off_c, 4, 68, 127
6, 98519, Note_on_c, 4, 68, 110
6, 98874, Note_off_c, 4, 68, 127
6, 98880, Note_on_c, 4, 68, 110
6, 99235, Note_off_c, 4, 68, 127
6, 99239, Note_on_c, 4, 68, 110
6, 99594, Note_off_c, 4, 68, 127
6, 99600, Note_on_c, 4, 68, 110
6, 99835, Note_off_c, 4, 68, 127
6, 100080, Note_on_c, 4, 66, 110
6, 100314, Note_off_c, 4, 66, 127
6, 100439, Note_on_c, 4, 66, 110
6, 100794, Note_off_c, 4, 66, 127
6, 100800, Note_on_c, 4, 66, 110
6, 101155, Note_off_c, 4, 66, 127
6, 101159, Note_on_c, 4, 66, 110
6, 101514, Note_off_c, 4, 66, 127
6, 101520, Note_on_c, 4, 66, 110
6, 101754, Note_off_c, 4, 66, 127
6, 101999, Note_on_c, 4, 66, 110
6, 102234, Note_off_c, 4, 66, 127
6, 102360, Note_on_c, 4, 66, 110
6, 102715, Note_off_c, 4, 66, 127
6, 102719, Note_on_c, 4, 66, 110
6, 103074, Note_off_c, 4, 66, 127
6, 103080, Note_on_c, 4, 66, 110
6, 103435, Note_off_c, 4, 66, 127
6, 103439, Note_on_c, 4, 66, 110
6, 103674, Note_off_c, 4, 66, 127
6, 103919, Note_on_c, 4, 65, 110
6, 104155, Note_off_c, 4, 65, 127
6, 104280, Note_on_c, 4, 65, 110
6, 104635, Note_off_c, 4, 65, 127
6, 104639, Note_on_c, 4, 65, 110
6, 104994, Note_off_c, 4, 65, 127
6, 105000, Note_on_c, 4, 65, 110
6, 105355, Note_off_c, 4, 65, 127
6, 105359, Note_on_c, 4, 65, 110
6, 105594, Note_off_c, 4, 65, 127
6, 105840, Note_on_c, 4, 68, 110
6, 106075, Note_off_c, 4, 68, 127
6, 106199, Note_on_c, 4, 68, 110
6, 106554, Note_off_c, 4, 68, 127
6, 106560, Note_on_c, 4, 68, 110
6, 106915, Note_off_c, 4, 68, 127
6, 106919, Note_on_c, 4, 68, 110
6, 107274, Note_off_c, 4, 68, 127
6, 107279, Note_on_c, 4, 68, 110
6, 107515, Note_off_c, 4, 68, 127
6, 107760, Note_on_c, 4, 66, 110
6, 107995, Note_off_c, 4, 66, 127
6, 108119, Note_on_c, 4, 66, 110
6, 108474, Note_off_c, 4, 66, 127
6, 108480, Note_on_c, 4, 66, 110
6, 108835, Note_off_c, 4, 66, 127
6, 108839, Note_on_c, 4, 66, 110
6, 109194, Note_off_c, 4, 66, 127
6, 109200, Note_on_c, 4, 66, 110
6, 109435, Note_off_c, 4, 66, 127
6, 109679, Note_on_c, 4, 66, 110
6, 109914, Note_off_c, 4, 66, 127
6, 110039, Note_on_c, 4, 66, 110
6, 110155, Note_off_c, 4, 66, 127
6, 110159, Note_on_c, 4, 68, 110
6, 110394, Note_off_c, 4, 68, 127
6, 111120, Note_on_c, 4, 70, 110
6, 111354, Note_off_c, 4, 70, 127
6, 111840, Note_on_c, 4, 70, 110
6, 112239, Note_off_c, 4, 70, 127
6, 112319, Note_on_c, 4, 70, 110
6, 112674, Note_off_c, 4, 70, 127
6, 112680, Note_on_c, 4, 70, 110
6, 112794, Note_off_c, 4, 70, 127
6, 112919, Note_on_c, 4, 70, 110
6, 113274, Note_off_c, 4, 70, 127
6, 113519, Note_on_c, 4, 70, 110
6, 113755, Note_off_c, 4, 70, 127
6, 113880, Note_on_c, 4, 70, 110
6, 113994, Note_off_c, 4, 70, 127
6, 114000, Note_on_c, 4, 73, 110
6, 114235, Note_off_c, 4, 73, 127
6, 114959, Note_on_c, 4, 73, 110
6, 115195, Note_off_c, 4, 73, 127
6, 115440, Note_on_c, 4, 75, 110
6, 115675, Note_off_c, 4, 75, 127
6, 115679, Note_on_c, 4, 75, 110
6, 116519, Note_off_c, 4, 75, 127
6, 117360, Note_on_c, 4, 70, 110
6, 117594, Note_off_c, 4, 70, 127
6, 118319, Note_on_c, 4, 73, 110
6, 118555, Note_off_c, 4, 73, 127
6, 119279, Note_on_c, 4, 73, 110
6, 119514, Note_off_c, 4, 73, 127
6, 119999, Note_on_c, 4, 75, 110
6, 120399, Note_off_c, 4, 75, 127
6, 120960, End_track
7, 0, Start_track
7, 0, Title_t, "Cammy's Stage-12"
7, 32759, Note_on_c, 5, 65, 110
7, 32759, Control_c, 5, 91, 0
7, 32759, Control_c, 5, 7, 127
7, 32759, Control_c, 5, 93, 0
7, 32759, Control_c, 5, 10, 64
7, 32759, Control_c, 5, 121, 0
7, 32759, Program_c, 5, 30
7, 32759, Control_c, 5, 32, 0
7, 32759, Control_c, 5, 0, 0
7, 33954, Note_off_c, 5, 65, 127
7, 33960, Note_on_c, 5, 58, 110
7, 34195, Note_off_c, 5, 58, 127
7, 34199, Note_on_c, 5, 61, 110
7, 34435, Note_off_c, 5, 61, 127
7, 34439, Note_on_c, 5, 63, 110
7, 34674, Note_off_c, 5, 63, 127
7, 34680, Note_on_c, 5, 65, 110
7, 35155, Note_off_c, 5, 65, 127
7, 35159, Note_on_c, 5, 66, 110
7, 35394, Note_off_c, 5, 66, 127
7, 35400, Note_on_c, 5, 65, 110
7, 36114, Note_off_c, 5, 65, 127
7, 36120, Note_on_c, 5, 61, 110
7, 36594, Note_off_c, 5, 61, 127
7, 36600, Note_on_c, 5, 63, 110
7, 37554, Note_off_c, 5, 63, 127
7, 37560, Note_on_c, 5, 63, 110
7, 37915, Note_off_c, 5, 63, 127
7, 37919, Note_on_c, 5, 65, 110
7, 38274, Note_off_c, 5, 65, 127
7, 38279, Note_on_c, 5, 66, 110
7, 38515, Note_off_c, 5, 66, 127
7, 38519, Note_on_c, 5, 61, 110
7, 38874, Note_off_c, 5, 61, 127
7, 38880, Note_on_c, 5, 68, 110
7, 39474, Note_off_c, 5, 68, 127
7, 39480, Note_on_c, 5, 66, 110
7, 39835, Note_off_c, 5, 66, 127
7, 39839, Note_on_c, 5, 65, 110
7, 40194, Note_off_c, 5, 65, 127
7, 40200, Note_on_c, 5, 66, 110
7, 40435, Note_off_c, 5, 66, 127
7, 40439, Note_on_c, 5, 65, 110
7, 41155, Note_off_c, 5, 65, 127
7, 41159, Note_on_c, 5, 66, 110
7, 41275, Note_off_c, 5, 66, 127
7, 41279, Note_on_c, 5, 65, 110
7, 41394, Note_off_c, 5, 65, 127
7, 41400, Note_on_c, 5, 63, 110
7, 42114, Note_off_c, 5, 63, 127
7, 42120, Note_on_c, 5, 58, 110
7, 42354, Note_off_c, 5, 58, 127
7, 42360, Note_on_c, 5, 61, 110
7, 42715, Note_off_c, 5, 61, 127
7, 42719, Note_on_c, 5, 65, 110
7, 43074, Note_off_c, 5, 65, 127
7, 43080, Note_on_c, 5, 70, 110
7, 43315, Note_off_c, 5, 70, 127
7, 43319, Note_on_c, 5, 70, 110
7, 43674, Note_off_c, 5, 70, 127
7, 43680, Note_on_c, 5, 71, 110
7, 44035, Note_off_c, 5, 71, 127
7, 44039, Note_on_c, 5, 73, 110
7, 44274, Note_off_c, 5, 73, 127
7, 44280, Note_on_c, 5, 73, 110
7, 44755, Note_off_c, 5, 73, 127
7, 44759, Note_on_c, 5, 73, 110
7, 44994, Note_off_c, 5, 73, 127
7, 45000, Note_on_c, 5, 71, 110
7, 45475, Note_off_c, 5, 71, 127
7, 45479, Note_on_c, 5, 71, 110
7, 45955, Note_off_c, 5, 71, 127
7, 45959, Note_on_c, 5, 70, 110
7, 46195, Note_off_c, 5, 70, 127
7, 46199, Note_on_c, 5, 65, 110
7, 46675, Note_off_c, 5, 65, 127
7, 46679, Note_on_c, 5, 66, 110
7, 46914, Note_off_c, 5, 66, 127
7, 46920, Note_on_c, 5, 68, 110
7, 47395, Note_off_c, 5, 68, 127
7, 47399, Note_on_c, 5, 65, 110
7, 47515, Note_off_c, 5, 65, 127
7, 47640, Note_on_c, 5, 66, 110
7, 47874, Note_off_c, 5, 66, 127
7, 47880, Note_on_c, 5, 68, 110
7, 48115, Note_off_c, 5, 68, 127
7, 48119, Note_on_c, 5, 68, 110
7, 48594, Note_off_c, 5, 68, 127
7, 48600, Note_on_c, 5, 66, 110
7, 48835, Note_off_c, 5, 66, 127
7, 48839, Note_on_c, 5, 65, 110
7, 49314, Note_off_c, 5, 65, 127
7, 49319, Note_on_c, 5, 66, 110
7, 49555, Note_off_c, 5, 66, 127
7, 49559, Note_on_c, 5, 68, 110
7, 49794, Note_off_c, 5, 68, 127
7, 49800, Note_on_c, 5, 65, 110
7, 50275, Note_off_c, 5, 65, 127
7, 50279, Note_on_c, 5, 63, 110
7, 51234, Note_off_c, 5, 63, 127
7, 51240, Note_on_c, 5, 63, 110
7, 51354, Note_off_c, 5, 63, 127
7, 51479, Note_on_c, 5, 65, 110
7, 51715, Note_off_c, 5, 65, 127
7, 51719, Note_on_c, 5, 66, 110
7, 51834, Note_off_c, 5, 66, 127
7, 51960, Note_on_c, 5, 65, 110
7, 52014, Note_off_c, 5, 65, 127
7, 52020, Note_on_c, 5, 66, 110
7, 52195, Note_off_c, 5, 66, 127
7, 52199, Note_on_c, 5, 68, 110
7, 52434, Note_off_c, 5, 68, 127
7, 52440, Note_on_c, 5, 70, 110
7, 52674, Note_off_c, 5, 70, 127
7, 52680, Note_on_c, 5, 68, 110
7, 53154, Note_off_c, 5, 68, 127
7, 53160, Note_on_c, 5, 66, 110
7, 53394, Note_off_c, 5, 66, 127
7, 53400, Note_on_c, 5, 65, 110
7, 53635, Note_off_c, 5, 65, 127
7, 53639, Note_on_c, 5, 61, 110
7, 54114, Note_off_c, 5, 61, 127
7, 54120, Note_on_c, 5, 63, 110
7, 54355, Note_off_c, 5, 63, 127
7, 54359, Note_on_c, 5, 63, 110
7, 57480, Note_off_c, 5, 63, 127
7, 94199, Note_on_c, 5, 65, 110
7, 95394, Note_off_c, 5, 65, 127
7, 95400, Note_on_c, 5, 58, 110
7, 95635, Note_off_c, 5, 58, 127
7, 95639, Note_on_c, 5, 61, 110
7, 95875, Note_off_c, 5, 61, 127
7, 95879, Note_on_c, 5, 63, 110
7, 96114, Note_off_c, 5, 63, 127
7, 96120, Note_on_c, 5, 65, 110
7, 96594, Note_off_c, 5, 65, 127
7, 96600, Note_on_c, 5, 66, 110
7, 96834, Note_off_c, 5, 66, 127
7, 96840, Note_on_c, 5, 65, 110
7, 97554, Note_off_c, 5, 65, 127
7, 97560, Note_on_c, 5, 61, 110
7, 98034, Note_off_c, 5, 61, 127
7, 98040, Note_on_c, 5, 63, 110
7, 98994, Note_off_c, 5, 63, 127
7, 98999, Note_on_c, 5, 63, 110
7, 99354, Note_off_c, 5, 63, 127
7, 99360, Note_on_c, 5, 65, 110
7, 99715, Note_off_c, 5, 65, 127
7, 99719, Note_on_c, 5, 66, 110
7, 99955, Note_off_c, 5, 66, 127
7, 99959, Note_on_c, 5, 61, 110
7, 100314, Note_off_c, 5, 61, 127
7, 100320, Note_on_c, 5, 68, 110
7, 100914, Note_off_c, 5, 68, 127
7, 100920, Note_on_c, 5, 66, 110
7, 101275, Note_off_c, 5, 66, 127
7, 101279, Note_on_c, 5, 65, 110
7, 101634, Note_off_c, 5, 65, 127
7, 101640, Note_on_c, 5, 66, 110
7, 101875, Note_off_c, 5, 66, 127
7, 101879, Note_on_c, 5, 65, 110
7, 102595, Note_off_c, 5, 65, 127
7, 102599, Note_on_c, 5, 66, 110
7, 102715, Note_off_c, 5, 66, 127
7, 102719, Note_on_c, 5, 65, 110
7, 102834, Note_off_c, 5, 65, 127
7, 102840, Note_on_c, 5, 63, 110
7, 103554, Note_off_c, 5, 63, 127
7, 103560, Note_on_c, 5, 58, 110
7, 103794, Note_off_c, 5, 58, 127
7, 103800, Note_on_c, 5, 61, 110
7, 104155, Note_off_c, 5, 61, 127
7, 104159, Note_on_c, 5, 65, 110
7, 104514, Note_off_c, 5, 65, 127
7, 104519, Note_on_c, 5, 70, 110
7, 104755, Note_off_c, 5, 70, 127
7, 104759, Note_on_c, 5, 70, 110
7, 105114, Note_off_c, 5, 70, 127
7, 105120, Note_on_c, 5, 71, 110
7, 105475, Note_off_c, 5, 71, 127
7, 105479, Note_on_c, 5, 73, 110
7, 105714, Note_off_c, 5, 73, 127
7, 105720, Note_on_c, 5, 73, 110
7, 106195, Note_off_c, 5, 73, 127
7, 106199, Note_on_c, 5, 73, 110
7, 106434, Note_off_c, 5, 73, 127
7, 106440, Note_on_c, 5, 71, 110
7, 106915, Note_off_c, 5, 71, 127
7, 106919, Note_on_c, 5, 71, 110
7, 107395, Note_off_c, 5, 71, 127
7, 107399, Note_on_c, 5, 70, 110
7, 107634, Note_off_c, 5, 70, 127
7, 107640, Note_on_c, 5, 65, 110
7, 108115, Note_off_c, 5, 65, 127
7, 108119, Note_on_c, 5, 66, 110
7, 108354, Note_off_c, 5, 66, 127
7, 108360, Note_on_c, 5, 68, 110
7, 108835, Note_off_c, 5, 68, 127
7, 108839, Note_on_c, 5, 65, 110
7, 108955, Note_off_c, 5, 65, 127
7, 109080, Note_on_c, 5, 66, 110
7, 109314, Note_off_c, 5, 66, 127
7, 109320, Note_on_c, 5, 68, 110
7, 109555, Note_off_c, 5, 68, 127
7, 109559, Note_on_c, 5, 68, 110
7, 110034, Note_off_c, 5, 68, 127
7, 110039, Note_on_c, 5, 66, 110
7, 110275, Note_off_c, 5, 66, 127
7, 110279, Note_on_c, 5, 65, 110
7, 110755, Note_off_c, 5, 65, 127
7, 110759, Note_on_c, 5, 66, 110
7, 110995, Note_off_c, 5, 66, 127
7, 110999, Note_on_c, 5, 68, 110
7, 111234, Note_off_c, 5, 68, 127
7, 111240, Note_on_c, 5, 65, 110
7, 111715, Note_off_c, 5, 65, 127
7, 111719, Note_on_c, 5, 63, 110
7, 112674, Note_off_c, 5, 63, 127
7, 112680, Note_on_c, 5, 63, 110
7, 112794, Note_off_c, 5, 63, 127
7, 112919, Note_on_c, 5, 65, 110
7, 113154, Note_off_c, 5, 65, 127
7, 113160, Note_on_c, 5, 66, 110
7, 113274, Note_off_c, 5, 66, 127
7, 113400, Note_on_c, 5, 65, 110
7, 113454, Note_off_c, 5, 65, 127
7, 113460, Note_on_c, 5, 66, 110
7, 113635, Note_off_c, 5, 66, 127
7, 113639, Note_on_c, 5, 68, 110
7, 113874, Note_off_c, 5, 68, 127
7, 113880, Note_on_c, 5, 70, 110
7, 114114, Note_off_c, 5, 70, 127
7, 114120, Note_on_c, 5, 68, 110
7, 114594, Note_off_c, 5, 68, 127
7, 114600, Note_on_c, 5, 66, 110
7, 114834, Note_off_c, 5, 66, 127
7, 114840, Note_on_c, 5, 65, 110
7, 115075, Note_off_c, 5, 65, 127
7, 115079, Note_on_c, 5, 61, 110
7, 115554, Note_off_c, 5, 61, 127
7, 115559, Note_on_c, 5, 63, 110
7, 115795, Note_off_c, 5, 63, 127
7, 115799, Note_on_c, 5, 63, 110
7, 118920, Note_off_c, 5, 63, 127
7, 120960, End_track
0, 0, End_of_file
