0, 0, Header, 1, 7, 480
1, 0, Start_track
1, 0, Copyright_t, "Copyright (c) xxxx Copyright Holder"
1, 0, Cue_point_t, "Created by Rosegarden"
1, 0, Cue_point_t, "http://www.rosegardenmusic.com/"
1, 0, Tempo, 413793
1, 0, Time_signature, 4, 2, 24, 8
1, 224640, End_track
2, 0, Start_track
2, 0, Title_t, "Track2"
2, 3839, Program_c, 1, 11
2, 3839, Control_c, 1, 32, 0
2, 3839, Control_c, 1, 0, 0
2, 3839, Note_on_c, 1, 69, 110
2, 3839, Control_c, 1, 91, 0
2, 3839, Note_on_c, 1, 76, 110
2, 3839, Control_c, 1, 7, 127
2, 3839, Control_c, 1, 93, 0
2, 3839, Control_c, 1, 10, 64
2, 3839, Control_c, 1, 121, 0
2, 4074, Note_off_c, 1, 76, 127
2, 4074, Note_off_c, 1, 69, 127
2, 4079, Note_on_c, 1, 76, 110
2, 4079, Note_on_c, 1, 69, 110
2, 4314, Note_off_c, 1, 76, 127
2, 4314, Note_off_c, 1, 69, 127
2, 4319, Note_on_c, 1, 69, 110
2, 4319, Note_on_c, 1, 76, 110
2, 4554, Note_off_c, 1, 76, 127
2, 4554, Note_off_c, 1, 69, 127
2, 4559, Note_on_c, 1, 77, 110
2, 4559, Note_on_c, 1, 69, 110
2, 5035, Note_off_c, 1, 77, 127
2, 5035, Note_off_c, 1, 69, 127
2, 5040, Note_on_c, 1, 74, 110
2, 5040, Note_on_c, 1, 69, 110
2, 5515, Note_off_c, 1, 74, 127
2, 5515, Note_off_c, 1, 69, 127
2, 5520, Note_on_c, 1, 74, 110
2, 5520, Note_on_c, 1, 69, 110
2, 5995, Note_off_c, 1, 74, 127
2, 5995, Note_off_c, 1, 69, 127
2, 5999, Note_on_c, 1, 76, 110
2, 5999, Note_on_c, 1, 69, 110
2, 6234, Note_off_c, 1, 76, 127
2, 6234, Note_off_c, 1, 69, 127
2, 6239, Note_on_c, 1, 76, 110
2, 6239, Note_on_c, 1, 69, 110
2, 7559, Note_off_c, 1, 69, 127
2, 7559, Note_off_c, 1, 76, 127
2, 7680, Note_on_c, 1, 76, 110
2, 7680, Note_on_c, 1, 69, 110
2, 7915, Note_off_c, 1, 76, 127
2, 7915, Note_off_c, 1, 69, 127
2, 7920, Note_on_c, 1, 76, 110
2, 7920, Note_on_c, 1, 69, 110
2, 8155, Note_off_c, 1, 76, 127
2, 8155, Note_off_c, 1, 69, 127
2, 8160, Note_on_c, 1, 76, 110
2, 8160, Note_on_c, 1, 69, 110
2, 8395, Note_off_c, 1, 76, 127
2, 8395, Note_off_c, 1, 69, 127
2, 8400, Note_on_c, 1, 77, 110
2, 8400, Note_on_c, 1, 69, 110
2, 8875, Note_off_c, 1, 77, 127
2, 8875, Note_off_c, 1, 69, 127
2, 8879, Note_on_c, 1, 74, 110
2, 8879, Note_on_c, 1, 69, 110
2, 9354, Note_off_c, 1, 74, 127
2, 9354, Note_off_c, 1, 69, 127
2, 9359, Note_on_c, 1, 74, 110
2, 9359, Note_on_c, 1, 69, 110
2, 9834, Note_off_c, 1, 74, 127
2, 9834, Note_off_c, 1, 69, 127
2, 9839, Note_on_c, 1, 76, 110
2, 9839, Note_on_c, 1, 69, 110
2, 10074, Note_off_c, 1, 76, 127
2, 10074, Note_off_c, 1, 69, 127
2, 10079, Note_on_c, 1, 76, 110
2, 10079, Note_on_c, 1, 69, 110
2, 11399, Note_off_c, 1, 76, 127
2, 11399, Note_off_c, 1, 69, 127
2, 11520, Note_on_c, 1, 76, 110
2, 11520, Note_on_c, 1, 69, 110
2, 11755, Note_off_c, 1, 76, 127
2, 11755, Note_off_c, 1, 69, 127
2, 11759, Note_on_c, 1, 76, 110
2, 11759, Note_on_c, 1, 69, 110
2, 11994, Note_off_c, 1, 76, 127
2, 11994, Note_off_c, 1, 69, 127
2, 11999, Note_on_c, 1, 69, 110
2, 11999, Note_on_c, 1, 76, 110
2, 12234, Note_off_c, 1, 76, 127
2, 12234, Note_off_c, 1, 69, 127
2, 12239, Note_on_c, 1, 77, 110
2, 12239, Note_on_c, 1, 69, 110
2, 12714, Note_off_c, 1, 77, 127
2, 12714, Note_off_c, 1, 69, 127
2, 12719, Note_on_c, 1, 74, 110
2, 12719, Note_on_c, 1, 69, 110
2, 13194, Note_off_c, 1, 74, 127
2, 13194, Note_off_c, 1, 69, 127
2, 13199, Note_on_c, 1, 74, 110
2, 13199, Note_on_c, 1, 69, 110
2, 13675, Note_off_c, 1, 74, 127
2, 13675, Note_off_c, 1, 69, 127
2, 13680, Note_on_c, 1, 76, 110
2, 13680, Note_on_c, 1, 69, 110
2, 13915, Note_off_c, 1, 76, 127
2, 13915, Note_off_c, 1, 69, 127
2, 13920, Note_on_c, 1, 76, 110
2, 13920, Note_on_c, 1, 69, 110
2, 15240, Note_off_c, 1, 76, 127
2, 15240, Note_off_c, 1, 69, 127
2, 15359, Note_on_c, 1, 76, 110
2, 15359, Note_on_c, 1, 69, 110
2, 15594, Note_off_c, 1, 76, 127
2, 15594, Note_off_c, 1, 69, 127
2, 15599, Note_on_c, 1, 76, 110
2, 15599, Note_on_c, 1, 69, 110
2, 15834, Note_off_c, 1, 76, 127
2, 15834, Note_off_c, 1, 69, 127
2, 15839, Note_on_c, 1, 76, 110
2, 15839, Note_on_c, 1, 69, 110
2, 16074, Note_off_c, 1, 76, 127
2, 16074, Note_off_c, 1, 69, 127
2, 16079, Note_on_c, 1, 76, 110
2, 16079, Note_on_c, 1, 69, 110
2, 16314, Note_off_c, 1, 76, 127
2, 16314, Note_off_c, 1, 69, 127
2, 16320, Note_on_c, 1, 76, 110
2, 16320, Note_on_c, 1, 69, 110
2, 16555, Note_off_c, 1, 76, 127
2, 16555, Note_off_c, 1, 69, 127
2, 16560, Note_on_c, 1, 76, 110
2, 16560, Note_on_c, 1, 69, 110
2, 16795, Note_off_c, 1, 76, 127
2, 16795, Note_off_c, 1, 69, 127
2, 16800, Note_on_c, 1, 76, 110
2, 16800, Note_on_c, 1, 69, 110
2, 17035, Note_off_c, 1, 76, 127
2, 17035, Note_off_c, 1, 69, 127
2, 17040, Note_on_c, 1, 76, 110
2, 17040, Note_on_c, 1, 69, 110
2, 17275, Note_off_c, 1, 76, 127
2, 17275, Note_off_c, 1, 69, 127
2, 17280, Note_on_c, 1, 74, 110
2, 17280, Note_on_c, 1, 69, 110
2, 17515, Note_off_c, 1, 74, 127
2, 17515, Note_off_c, 1, 69, 127
2, 17520, Note_on_c, 1, 74, 110
2, 17520, Note_on_c, 1, 69, 110
2, 17754, Note_off_c, 1, 74, 127
2, 17754, Note_off_c, 1, 69, 127
2, 17759, Note_on_c, 1, 74, 110
2, 17759, Note_on_c, 1, 69, 110
2, 17994, Note_off_c, 1, 74, 127
2, 17994, Note_off_c, 1, 69, 127
2, 17999, Note_on_c, 1, 74, 110
2, 17999, Note_on_c, 1, 69, 110
2, 18234, Note_off_c, 1, 74, 127
2, 18234, Note_off_c, 1, 69, 127
2, 18239, Note_on_c, 1, 74, 110
2, 18239, Note_on_c, 1, 69, 110
2, 18474, Note_off_c, 1, 74, 127
2, 18474, Note_off_c, 1, 69, 127
2, 18479, Note_on_c, 1, 74, 110
2, 18479, Note_on_c, 1, 69, 110
2, 18714, Note_off_c, 1, 74, 127
2, 18714, Note_off_c, 1, 69, 127
2, 18719, Note_on_c, 1, 74, 110
2, 18719, Note_on_c, 1, 69, 110
2, 18954, Note_off_c, 1, 74, 127
2, 18954, Note_off_c, 1, 69, 127
2, 18959, Note_on_c, 1, 74, 110
2, 18959, Note_on_c, 1, 69, 110
2, 19194, Note_off_c, 1, 74, 127
2, 19194, Note_off_c, 1, 69, 127
2, 19199, Note_on_c, 1, 76, 110
2, 19199, Note_on_c, 1, 69, 110
2, 19435, Note_off_c, 1, 76, 127
2, 19435, Note_off_c, 1, 69, 127
2, 19440, Note_on_c, 1, 76, 110
2, 19440, Note_on_c, 1, 69, 110
2, 19675, Note_off_c, 1, 76, 127
2, 19675, Note_off_c, 1, 69, 127
2, 19680, Note_on_c, 1, 76, 110
2, 19680, Note_on_c, 1, 69, 110
2, 19915, Note_off_c, 1, 69, 127
2, 19915, Note_off_c, 1, 76, 127
2, 19920, Note_on_c, 1, 77, 110
2, 19920, Note_on_c, 1, 69, 110
2, 20395, Note_off_c, 1, 77, 127
2, 20395, Note_off_c, 1, 69, 127
2, 20400, Note_on_c, 1, 74, 110
2, 20400, Note_on_c, 1, 69, 110
2, 20874, Note_off_c, 1, 74, 127
2, 20874, Note_off_c, 1, 69, 127
2, 20879, Note_on_c, 1, 74, 110
2, 20879, Note_on_c, 1, 69, 110
2, 21354, Note_off_c, 1, 74, 127
2, 21354, Note_off_c, 1, 69, 127
2, 21359, Note_on_c, 1, 76, 110
2, 21359, Note_on_c, 1, 69, 110
2, 21594, Note_off_c, 1, 76, 127
2, 21594, Note_off_c, 1, 69, 127
2, 21599, Note_on_c, 1, 76, 110
2, 21599, Note_on_c, 1, 69, 110
2, 22919, Note_off_c, 1, 76, 127
2, 22919, Note_off_c, 1, 69, 127
2, 23040, Note_on_c, 1, 76, 110
2, 23040, Note_on_c, 1, 69, 110
2, 23275, Note_off_c, 1, 76, 127
2, 23275, Note_off_c, 1, 69, 127
2, 23280, Note_on_c, 1, 76, 110
2, 23280, Note_on_c, 1, 69, 110
2, 23515, Note_off_c, 1, 76, 127
2, 23515, Note_off_c, 1, 69, 127
2, 23519, Note_on_c, 1, 76, 110
2, 23519, Note_on_c, 1, 69, 110
2, 23754, Note_off_c, 1, 76, 127
2, 23754, Note_off_c, 1, 69, 127
2, 23759, Note_on_c, 1, 77, 110
2, 23759, Note_on_c, 1, 69, 110
2, 24234, Note_off_c, 1, 77, 127
2, 24234, Note_off_c, 1, 69, 127
2, 24239, Note_on_c, 1, 74, 110
2, 24239, Note_on_c, 1, 69, 110
2, 24714, Note_off_c, 1, 74, 127
2, 24714, Note_off_c, 1, 69, 127
2, 24719, Note_on_c, 1, 74, 110
2, 24719, Note_on_c, 1, 69, 110
2, 25194, Note_off_c, 1, 74, 127
2, 25194, Note_off_c, 1, 69, 127
2, 25200, Note_on_c, 1, 76, 110
2, 25200, Note_on_c, 1, 69, 110
2, 25435, Note_off_c, 1, 76, 127
2, 25435, Note_off_c, 1, 69, 127
2, 25440, Note_on_c, 1, 76, 110
2, 25440, Note_on_c, 1, 69, 110
2, 26760, Note_off_c, 1, 76, 127
2, 26760, Note_off_c, 1, 69, 127
2, 26879, Note_on_c, 1, 76, 110
2, 26879, Note_on_c, 1, 69, 110
2, 27114, Note_off_c, 1, 76, 127
2, 27114, Note_off_c, 1, 69, 127
2, 27119, Note_on_c, 1, 76, 110
2, 27119, Note_on_c, 1, 69, 110
2, 27354, Note_off_c, 1, 76, 127
2, 27354, Note_off_c, 1, 69, 127
2, 27359, Note_on_c, 1, 76, 110
2, 27359, Note_on_c, 1, 69, 110
2, 27594, Note_off_c, 1, 76, 127
2, 27594, Note_off_c, 1, 69, 127
2, 27599, Note_on_c, 1, 77, 110
2, 27599, Note_on_c, 1, 69, 110
2, 28074, Note_off_c, 1, 77, 127
2, 28074, Note_off_c, 1, 69, 127
2, 28080, Note_on_c, 1, 74, 110
2, 28080, Note_on_c, 1, 69, 110
2, 28555, Note_off_c, 1, 74, 127
2, 28555, Note_off_c, 1, 69, 127
2, 28560, Note_on_c, 1, 74, 110
2, 28560, Note_on_c, 1, 69, 110
2, 29035, Note_off_c, 1, 74, 127
2, 29035, Note_off_c, 1, 69, 127
2, 29040, Note_on_c, 1, 76, 110
2, 29040, Note_on_c, 1, 69, 110
2, 29275, Note_off_c, 1, 76, 127
2, 29275, Note_off_c, 1, 69, 127
2, 29279, Note_on_c, 1, 76, 110
2, 29279, Note_on_c, 1, 69, 110
2, 30600, Note_off_c, 1, 76, 127
2, 30600, Note_off_c, 1, 69, 127
2, 30719, Note_on_c, 1, 76, 110
2, 30719, Note_on_c, 1, 69, 110
2, 30954, Note_off_c, 1, 76, 127
2, 30954, Note_off_c, 1, 69, 127
2, 30960, Note_on_c, 1, 76, 110
2, 30960, Note_on_c, 1, 69, 110
2, 31195, Note_off_c, 1, 76, 127
2, 31195, Note_off_c, 1, 69, 127
2, 31200, Note_on_c, 1, 76, 110
2, 31200, Note_on_c, 1, 69, 110
2, 31435, Note_off_c, 1, 76, 127
2, 31435, Note_off_c, 1, 69, 127
2, 31440, Note_on_c, 1, 76, 110
2, 31440, Note_on_c, 1, 69, 110
2, 31675, Note_off_c, 1, 76, 127
2, 31675, Note_off_c, 1, 69, 127
2, 31680, Note_on_c, 1, 76, 110
2, 31680, Note_on_c, 1, 69, 110
2, 31915, Note_off_c, 1, 76, 127
2, 31915, Note_off_c, 1, 69, 127
2, 31920, Note_on_c, 1, 76, 110
2, 31920, Note_on_c, 1, 69, 110
2, 32155, Note_off_c, 1, 76, 127
2, 32155, Note_off_c, 1, 69, 127
2, 32160, Note_on_c, 1, 76, 110
2, 32160, Note_on_c, 1, 69, 110
2, 32394, Note_off_c, 1, 76, 127
2, 32394, Note_off_c, 1, 69, 127
2, 32399, Note_on_c, 1, 76, 110
2, 32399, Note_on_c, 1, 69, 110
2, 32634, Note_off_c, 1, 76, 127
2, 32634, Note_off_c, 1, 69, 127
2, 32639, Note_on_c, 1, 74, 110
2, 32639, Note_on_c, 1, 67, 110
2, 34439, Note_off_c, 1, 74, 127
2, 34439, Note_off_c, 1, 67, 127
2, 34560, Note_on_c, 1, 76, 110
2, 34795, Note_off_c, 1, 76, 127
2, 34800, Note_on_c, 1, 76, 110
2, 35035, Note_off_c, 1, 76, 127
2, 35040, Note_on_c, 1, 76, 110
2, 35275, Note_off_c, 1, 76, 127
2, 35279, Note_on_c, 1, 76, 110
2, 35514, Note_off_c, 1, 76, 127
2, 35519, Note_on_c, 1, 76, 110
2, 35754, Note_off_c, 1, 76, 127
2, 35759, Note_on_c, 1, 76, 110
2, 35994, Note_off_c, 1, 76, 127
2, 35999, Note_on_c, 1, 76, 110
2, 36234, Note_off_c, 1, 76, 127
2, 36239, Note_on_c, 1, 76, 110
2, 36474, Note_off_c, 1, 76, 127
2, 36479, Note_on_c, 1, 76, 110
2, 36714, Note_off_c, 1, 76, 127
2, 36719, Note_on_c, 1, 76, 110
2, 36955, Note_off_c, 1, 76, 127
2, 36960, Note_on_c, 1, 76, 110
2, 37195, Note_off_c, 1, 76, 127
2, 37200, Note_on_c, 1, 76, 110
2, 37435, Note_off_c, 1, 76, 127
2, 37440, Note_on_c, 1, 76, 110
2, 37675, Note_off_c, 1, 76, 127
2, 37680, Note_on_c, 1, 76, 110
2, 37915, Note_off_c, 1, 76, 127
2, 37920, Note_on_c, 1, 76, 110
2, 38155, Note_off_c, 1, 76, 127
2, 38159, Note_on_c, 1, 76, 110
2, 38394, Note_off_c, 1, 76, 127
2, 38399, Note_on_c, 1, 74, 110
2, 38634, Note_off_c, 1, 74, 127
2, 38639, Note_on_c, 1, 74, 110
2, 38874, Note_off_c, 1, 74, 127
2, 38879, Note_on_c, 1, 74, 110
2, 39114, Note_off_c, 1, 74, 127
2, 39119, Note_on_c, 1, 74, 110
2, 39354, Note_off_c, 1, 74, 127
2, 39359, Note_on_c, 1, 74, 110
2, 39594, Note_off_c, 1, 74, 127
2, 39599, Note_on_c, 1, 74, 110
2, 39834, Note_off_c, 1, 74, 127
2, 39840, Note_on_c, 1, 74, 110
2, 40075, Note_off_c, 1, 74, 127
2, 40080, Note_on_c, 1, 74, 110
2, 40315, Note_off_c, 1, 74, 127
2, 40320, Note_on_c, 1, 74, 110
2, 40555, Note_off_c, 1, 74, 127
2, 40560, Note_on_c, 1, 74, 110
2, 40795, Note_off_c, 1, 74, 127
2, 40800, Note_on_c, 1, 74, 110
2, 41035, Note_off_c, 1, 74, 127
2, 41039, Note_on_c, 1, 74, 110
2, 41274, Note_off_c, 1, 74, 127
2, 41279, Note_on_c, 1, 74, 110
2, 41514, Note_off_c, 1, 74, 127
2, 41519, Note_on_c, 1, 74, 110
2, 41754, Note_off_c, 1, 74, 127
2, 41759, Note_on_c, 1, 74, 110
2, 41994, Note_off_c, 1, 74, 127
2, 41999, Note_on_c, 1, 74, 110
2, 42234, Note_off_c, 1, 74, 127
2, 42239, Note_on_c, 1, 76, 110
2, 42474, Note_off_c, 1, 76, 127
2, 42479, Note_on_c, 1, 76, 110
2, 42714, Note_off_c, 1, 76, 127
2, 42720, Note_on_c, 1, 76, 110
2, 42955, Note_off_c, 1, 76, 127
2, 42960, Note_on_c, 1, 76, 110
2, 43195, Note_off_c, 1, 76, 127
2, 43200, Note_on_c, 1, 76, 110
2, 43435, Note_off_c, 1, 76, 127
2, 43440, Note_on_c, 1, 76, 110
2, 43675, Note_off_c, 1, 76, 127
2, 43680, Note_on_c, 1, 76, 110
2, 43915, Note_off_c, 1, 76, 127
2, 43919, Note_on_c, 1, 76, 110
2, 44154, Note_off_c, 1, 76, 127
2, 44159, Note_on_c, 1, 74, 110
2, 44394, Note_off_c, 1, 74, 127
2, 44399, Note_on_c, 1, 74, 110
2, 44634, Note_off_c, 1, 74, 127
2, 44639, Note_on_c, 1, 74, 110
2, 44874, Note_off_c, 1, 74, 127
2, 44879, Note_on_c, 1, 74, 110
2, 45114, Note_off_c, 1, 74, 127
2, 45119, Note_on_c, 1, 74, 110
2, 45354, Note_off_c, 1, 74, 127
2, 45359, Note_on_c, 1, 74, 110
2, 45594, Note_off_c, 1, 74, 127
2, 45600, Note_on_c, 1, 74, 110
2, 45835, Note_off_c, 1, 74, 127
2, 45840, Note_on_c, 1, 74, 110
2, 46075, Note_off_c, 1, 74, 127
2, 46080, Note_on_c, 1, 76, 110
2, 46315, Note_off_c, 1, 76, 127
2, 46320, Note_on_c, 1, 76, 110
2, 46555, Note_off_c, 1, 76, 127
2, 46560, Note_on_c, 1, 76, 110
2, 46795, Note_off_c, 1, 76, 127
2, 46800, Note_on_c, 1, 76, 110
2, 47034, Note_off_c, 1, 76, 127
2, 47039, Note_on_c, 1, 76, 110
2, 47274, Note_off_c, 1, 76, 127
2, 47279, Note_on_c, 1, 76, 110
2, 47514, Note_off_c, 1, 76, 127
2, 47519, Note_on_c, 1, 76, 110
2, 47754, Note_off_c, 1, 76, 127
2, 47759, Note_on_c, 1, 76, 110
2, 47994, Note_off_c, 1, 76, 127
2, 47999, Note_on_c, 1, 76, 110
2, 48234, Note_off_c, 1, 76, 127
2, 48239, Note_on_c, 1, 76, 110
2, 48474, Note_off_c, 1, 76, 127
2, 48480, Note_on_c, 1, 76, 110
2, 48715, Note_off_c, 1, 76, 127
2, 48720, Note_on_c, 1, 76, 110
2, 48955, Note_off_c, 1, 76, 127
2, 48960, Note_on_c, 1, 76, 110
2, 49195, Note_off_c, 1, 76, 127
2, 49200, Note_on_c, 1, 76, 110
2, 49435, Note_off_c, 1, 76, 127
2, 49440, Note_on_c, 1, 76, 110
2, 49675, Note_off_c, 1, 76, 127
2, 49680, Note_on_c, 1, 76, 110
2, 49915, Note_off_c, 1, 76, 127
2, 49919, Note_on_c, 1, 76, 110
2, 50154, Note_off_c, 1, 76, 127
2, 50159, Note_on_c, 1, 76, 110
2, 50394, Note_off_c, 1, 76, 127
2, 50399, Note_on_c, 1, 76, 110
2, 50634, Note_off_c, 1, 76, 127
2, 50639, Note_on_c, 1, 76, 110
2, 50874, Note_off_c, 1, 76, 127
2, 50879, Note_on_c, 1, 76, 110
2, 51114, Note_off_c, 1, 76, 127
2, 51119, Note_on_c, 1, 76, 110
2, 51354, Note_off_c, 1, 76, 127
2, 51359, Note_on_c, 1, 76, 110
2, 51595, Note_off_c, 1, 76, 127
2, 51600, Note_on_c, 1, 76, 110
2, 51835, Note_off_c, 1, 76, 127
2, 51840, Note_on_c, 1, 76, 110
2, 52075, Note_off_c, 1, 76, 127
2, 52080, Note_on_c, 1, 76, 110
2, 52315, Note_off_c, 1, 76, 127
2, 52320, Note_on_c, 1, 76, 110
2, 52555, Note_off_c, 1, 76, 127
2, 52560, Note_on_c, 1, 76, 110
2, 52795, Note_off_c, 1, 76, 127
2, 52799, Note_on_c, 1, 76, 110
2, 53034, Note_off_c, 1, 76, 127
2, 53039, Note_on_c, 1, 76, 110
2, 53274, Note_off_c, 1, 76, 127
2, 53279, Note_on_c, 1, 76, 110
2, 53514, Note_off_c, 1, 76, 127
2, 53519, Note_on_c, 1, 76, 110
2, 53754, Note_off_c, 1, 76, 127
2, 53759, Note_on_c, 1, 74, 110
2, 53994, Note_off_c, 1, 74, 127
2, 53999, Note_on_c, 1, 74, 110
2, 54234, Note_off_c, 1, 74, 127
2, 54239, Note_on_c, 1, 74, 110
2, 54474, Note_off_c, 1, 74, 127
2, 54480, Note_on_c, 1, 74, 110
2, 54715, Note_off_c, 1, 74, 127
2, 54720, Note_on_c, 1, 74, 110
2, 54955, Note_off_c, 1, 74, 127
2, 54960, Note_on_c, 1, 74, 110
2, 55195, Note_off_c, 1, 74, 127
2, 55200, Note_on_c, 1, 74, 110
2, 55435, Note_off_c, 1, 74, 127
2, 55440, Note_on_c, 1, 74, 110
2, 55675, Note_off_c, 1, 74, 127
2, 55679, Note_on_c, 1, 74, 110
2, 55914, Note_off_c, 1, 74, 127
2, 55919, Note_on_c, 1, 74, 110
2, 56154, Note_off_c, 1, 74, 127
2, 56159, Note_on_c, 1, 74, 110
2, 56394, Note_off_c, 1, 74, 127
2, 56399, Note_on_c, 1, 74, 110
2, 56634, Note_off_c, 1, 74, 127
2, 56639, Note_on_c, 1, 74, 110
2, 56874, Note_off_c, 1, 74, 127
2, 56879, Note_on_c, 1, 74, 110
2, 57114, Note_off_c, 1, 74, 127
2, 57119, Note_on_c, 1, 74, 110
2, 57354, Note_off_c, 1, 74, 127
2, 57360, Note_on_c, 1, 74, 110
2, 57595, Note_off_c, 1, 74, 127
2, 57600, Note_on_c, 1, 76, 110
2, 57835, Note_off_c, 1, 76, 127
2, 57840, Note_on_c, 1, 76, 110
2, 58075, Note_off_c, 1, 76, 127
2, 58080, Note_on_c, 1, 76, 110
2, 58315, Note_off_c, 1, 76, 127
2, 58320, Note_on_c, 1, 76, 110
2, 58555, Note_off_c, 1, 76, 127
2, 58559, Note_on_c, 1, 76, 110
2, 58794, Note_off_c, 1, 76, 127
2, 58799, Note_on_c, 1, 76, 110
2, 59034, Note_off_c, 1, 76, 127
2, 59039, Note_on_c, 1, 76, 110
2, 59274, Note_off_c, 1, 76, 127
2, 59279, Note_on_c, 1, 76, 110
2, 59514, Note_off_c, 1, 76, 127
2, 59519, Note_on_c, 1, 74, 110
2, 59754, Note_off_c, 1, 74, 127
2, 59759, Note_on_c, 1, 74, 110
2, 59994, Note_off_c, 1, 74, 127
2, 59999, Note_on_c, 1, 74, 110
2, 60234, Note_off_c, 1, 74, 127
2, 60240, Note_on_c, 1, 74, 110
2, 60475, Note_off_c, 1, 74, 127
2, 60480, Note_on_c, 1, 74, 110
2, 60715, Note_off_c, 1, 74, 127
2, 60720, Note_on_c, 1, 74, 110
2, 60955, Note_off_c, 1, 74, 127
2, 60960, Note_on_c, 1, 74, 110
2, 61195, Note_off_c, 1, 74, 127
2, 61200, Note_on_c, 1, 74, 110
2, 61435, Note_off_c, 1, 74, 127
2, 61439, Note_on_c, 1, 76, 110
2, 61674, Note_off_c, 1, 76, 127
2, 61679, Note_on_c, 1, 76, 110
2, 61914, Note_off_c, 1, 76, 127
2, 61919, Note_on_c, 1, 76, 110
2, 62154, Note_off_c, 1, 76, 127
2, 62159, Note_on_c, 1, 76, 110
2, 62394, Note_off_c, 1, 76, 127
2, 62399, Note_on_c, 1, 76, 110
2, 62634, Note_off_c, 1, 76, 127
2, 62639, Note_on_c, 1, 76, 110
2, 62874, Note_off_c, 1, 76, 127
2, 62879, Note_on_c, 1, 76, 110
2, 63114, Note_off_c, 1, 76, 127
2, 63120, Note_on_c, 1, 76, 110
2, 63355, Note_off_c, 1, 76, 127
2, 63360, Note_on_c, 1, 76, 110
2, 63595, Note_off_c, 1, 76, 127
2, 63600, Note_on_c, 1, 76, 110
2, 63835, Note_off_c, 1, 76, 127
2, 63840, Note_on_c, 1, 76, 110
2, 64075, Note_off_c, 1, 76, 127
2, 64080, Note_on_c, 1, 76, 110
2, 64315, Note_off_c, 1, 76, 127
2, 64320, Note_on_c, 1, 74, 110
2, 64554, Note_off_c, 1, 74, 127
2, 64559, Note_on_c, 1, 74, 110
2, 64794, Note_off_c, 1, 74, 127
2, 64799, Note_on_c, 1, 74, 110
2, 65034, Note_off_c, 1, 74, 127
2, 65039, Note_on_c, 1, 74, 110
2, 65274, Note_off_c, 1, 74, 127
2, 65279, Note_on_c, 1, 60, 110
2, 67079, Note_off_c, 1, 60, 127
2, 67200, Note_on_c, 1, 62, 110
2, 68999, Note_off_c, 1, 62, 127
2, 69120, Note_on_c, 1, 64, 110
2, 69959, Note_off_c, 1, 64, 127
2, 70080, Note_on_c, 1, 67, 110
2, 70920, Note_off_c, 1, 67, 127
2, 71039, Note_on_c, 1, 60, 110
2, 71879, Note_off_c, 1, 60, 127
2, 72000, Note_on_c, 1, 62, 110
2, 72839, Note_off_c, 1, 62, 127
2, 72960, Note_on_c, 1, 60, 110
2, 74759, Note_off_c, 1, 60, 127
2, 74880, Note_on_c, 1, 62, 110
2, 76680, Note_off_c, 1, 62, 127
2, 76799, Note_on_c, 1, 64, 110
2, 80519, Note_off_c, 1, 64, 127
2, 80639, Note_on_c, 1, 60, 110
2, 82440, Note_off_c, 1, 60, 127
2, 82559, Note_on_c, 1, 62, 110
2, 84359, Note_off_c, 1, 62, 127
2, 84480, Note_on_c, 1, 64, 110
2, 85320, Note_off_c, 1, 64, 127
2, 85439, Note_on_c, 1, 67, 110
2, 86280, Note_off_c, 1, 67, 127
2, 86399, Note_on_c, 1, 60, 110
2, 87239, Note_off_c, 1, 60, 127
2, 87360, Note_on_c, 1, 62, 110
2, 88200, Note_off_c, 1, 62, 127
2, 88319, Note_on_c, 1, 60, 110
2, 90119, Note_off_c, 1, 60, 127
2, 90240, Note_on_c, 1, 62, 110
2, 92040, Note_off_c, 1, 62, 127
2, 92159, Note_on_c, 1, 60, 110
2, 95879, Note_off_c, 1, 60, 127
2, 96000, Note_on_c, 1, 76, 110
2, 96000, Note_on_c, 1, 69, 110
2, 96235, Note_off_c, 1, 76, 127
2, 96235, Note_off_c, 1, 69, 127
2, 96240, Note_on_c, 1, 76, 110
2, 96240, Note_on_c, 1, 69, 110
2, 96475, Note_off_c, 1, 76, 127
2, 96475, Note_off_c, 1, 69, 127
2, 96480, Note_on_c, 1, 76, 110
2, 96480, Note_on_c, 1, 69, 110
2, 96715, Note_off_c, 1, 76, 127
2, 96715, Note_off_c, 1, 69, 127
2, 96719, Note_on_c, 1, 77, 110
2, 96719, Note_on_c, 1, 69, 110
2, 97194, Note_off_c, 1, 77, 127
2, 97194, Note_off_c, 1, 69, 127
2, 97199, Note_on_c, 1, 74, 110
2, 97199, Note_on_c, 1, 69, 110
2, 97674, Note_off_c, 1, 74, 127
2, 97674, Note_off_c, 1, 69, 127
2, 97679, Note_on_c, 1, 74, 110
2, 97679, Note_on_c, 1, 69, 110
2, 98154, Note_off_c, 1, 74, 127
2, 98154, Note_off_c, 1, 69, 127
2, 98159, Note_on_c, 1, 76, 110
2, 98159, Note_on_c, 1, 69, 110
2, 98395, Note_off_c, 1, 76, 127
2, 98395, Note_off_c, 1, 69, 127
2, 98400, Note_on_c, 1, 76, 110
2, 98400, Note_on_c, 1, 69, 110
2, 99720, Note_off_c, 1, 76, 127
2, 99720, Note_off_c, 1, 69, 127
2, 99839, Note_on_c, 1, 76, 110
2, 99839, Note_on_c, 1, 69, 110
2, 100074, Note_off_c, 1, 76, 127
2, 100074, Note_off_c, 1, 69, 127
2, 100079, Note_on_c, 1, 76, 110
2, 100079, Note_on_c, 1, 69, 110
2, 100314, Note_off_c, 1, 76, 127
2, 100314, Note_off_c, 1, 69, 127
2, 100319, Note_on_c, 1, 76, 110
2, 100319, Note_on_c, 1, 69, 110
2, 100554, Note_off_c, 1, 76, 127
2, 100554, Note_off_c, 1, 69, 127
2, 100559, Note_on_c, 1, 77, 110
2, 100559, Note_on_c, 1, 69, 110
2, 101034, Note_off_c, 1, 77, 127
2, 101034, Note_off_c, 1, 69, 127
2, 101039, Note_on_c, 1, 74, 110
2, 101039, Note_on_c, 1, 69, 110
2, 101515, Note_off_c, 1, 74, 127
2, 101515, Note_off_c, 1, 69, 127
2, 101520, Note_on_c, 1, 74, 110
2, 101520, Note_on_c, 1, 69, 110
2, 101995, Note_off_c, 1, 74, 127
2, 101995, Note_off_c, 1, 69, 127
2, 102000, Note_on_c, 1, 76, 110
2, 102000, Note_on_c, 1, 69, 110
2, 102235, Note_off_c, 1, 76, 127
2, 102235, Note_off_c, 1, 69, 127
2, 102240, Note_on_c, 1, 69, 110
2, 102240, Note_on_c, 1, 76, 110
2, 103560, Note_off_c, 1, 76, 127
2, 103560, Note_off_c, 1, 69, 127
2, 103679, Note_on_c, 1, 76, 110
2, 103679, Note_on_c, 1, 69, 110
2, 103914, Note_off_c, 1, 76, 127
2, 103914, Note_off_c, 1, 69, 127
2, 103919, Note_on_c, 1, 76, 110
2, 103919, Note_on_c, 1, 69, 110
2, 104154, Note_off_c, 1, 76, 127
2, 104154, Note_off_c, 1, 69, 127
2, 104160, Note_on_c, 1, 76, 110
2, 104160, Note_on_c, 1, 69, 110
2, 104395, Note_off_c, 1, 76, 127
2, 104395, Note_off_c, 1, 69, 127
2, 104400, Note_on_c, 1, 77, 110
2, 104400, Note_on_c, 1, 69, 110
2, 104875, Note_off_c, 1, 77, 127
2, 104875, Note_off_c, 1, 69, 127
2, 104880, Note_on_c, 1, 74, 110
2, 104880, Note_on_c, 1, 69, 110
2, 105355, Note_off_c, 1, 74, 127
2, 105355, Note_off_c, 1, 69, 127
2, 105359, Note_on_c, 1, 74, 110
2, 105359, Note_on_c, 1, 69, 110
2, 105834, Note_off_c, 1, 74, 127
2, 105834, Note_off_c, 1, 69, 127
2, 105839, Note_on_c, 1, 76, 110
2, 105839, Note_on_c, 1, 69, 110
2, 106074, Note_off_c, 1, 76, 127
2, 106074, Note_off_c, 1, 69, 127
2, 106079, Note_on_c, 1, 76, 110
2, 106079, Note_on_c, 1, 69, 110
2, 107399, Note_off_c, 1, 76, 127
2, 107399, Note_off_c, 1, 69, 127
2, 107520, Note_on_c, 1, 76, 110
2, 107520, Note_on_c, 1, 69, 110
2, 107755, Note_off_c, 1, 76, 127
2, 107755, Note_off_c, 1, 69, 127
2, 107760, Note_on_c, 1, 76, 110
2, 107760, Note_on_c, 1, 69, 110
2, 107995, Note_off_c, 1, 76, 127
2, 107995, Note_off_c, 1, 69, 127
2, 108000, Note_on_c, 1, 76, 110
2, 108000, Note_on_c, 1, 69, 110
2, 108235, Note_off_c, 1, 76, 127
2, 108235, Note_off_c, 1, 69, 127
2, 108240, Note_on_c, 1, 76, 110
2, 108240, Note_on_c, 1, 69, 110
2, 108474, Note_off_c, 1, 76, 127
2, 108474, Note_off_c, 1, 69, 127
2, 108479, Note_on_c, 1, 76, 110
2, 108479, Note_on_c, 1, 69, 110
2, 108714, Note_off_c, 1, 76, 127
2, 108714, Note_off_c, 1, 69, 127
2, 108719, Note_on_c, 1, 76, 110
2, 108719, Note_on_c, 1, 69, 110
2, 108954, Note_off_c, 1, 76, 127
2, 108954, Note_off_c, 1, 69, 127
2, 108959, Note_on_c, 1, 76, 110
2, 108959, Note_on_c, 1, 69, 110
2, 109194, Note_off_c, 1, 76, 127
2, 109194, Note_off_c, 1, 69, 127
2, 109199, Note_on_c, 1, 76, 110
2, 109199, Note_on_c, 1, 69, 110
2, 109434, Note_off_c, 1, 76, 127
2, 109434, Note_off_c, 1, 69, 127
2, 109439, Note_on_c, 1, 74, 110
2, 109439, Note_on_c, 1, 69, 110
2, 109674, Note_off_c, 1, 74, 127
2, 109674, Note_off_c, 1, 69, 127
2, 109679, Note_on_c, 1, 74, 110
2, 109679, Note_on_c, 1, 69, 110
2, 109914, Note_off_c, 1, 74, 127
2, 109914, Note_off_c, 1, 69, 127
2, 109920, Note_on_c, 1, 74, 110
2, 109920, Note_on_c, 1, 69, 110
2, 110155, Note_off_c, 1, 74, 127
2, 110155, Note_off_c, 1, 69, 127
2, 110160, Note_on_c, 1, 74, 110
2, 110160, Note_on_c, 1, 69, 110
2, 110395, Note_off_c, 1, 74, 127
2, 110395, Note_off_c, 1, 69, 127
2, 110400, Note_on_c, 1, 74, 110
2, 110400, Note_on_c, 1, 69, 110
2, 110635, Note_off_c, 1, 74, 127
2, 110635, Note_off_c, 1, 69, 127
2, 110640, Note_on_c, 1, 74, 110
2, 110640, Note_on_c, 1, 69, 110
2, 110875, Note_off_c, 1, 74, 127
2, 110875, Note_off_c, 1, 69, 127
2, 110880, Note_on_c, 1, 74, 110
2, 110880, Note_on_c, 1, 69, 110
2, 111115, Note_off_c, 1, 74, 127
2, 111115, Note_off_c, 1, 69, 127
2, 111120, Note_on_c, 1, 74, 110
2, 111120, Note_on_c, 1, 69, 110
2, 111354, Note_off_c, 1, 74, 127
2, 111354, Note_off_c, 1, 69, 127
2, 111359, Note_on_c, 1, 76, 110
2, 111359, Note_on_c, 1, 69, 110
2, 111594, Note_off_c, 1, 76, 127
2, 111594, Note_off_c, 1, 69, 127
2, 111599, Note_on_c, 1, 76, 110
2, 111599, Note_on_c, 1, 69, 110
2, 111834, Note_off_c, 1, 76, 127
2, 111834, Note_off_c, 1, 69, 127
2, 111839, Note_on_c, 1, 76, 110
2, 111839, Note_on_c, 1, 69, 110
2, 112074, Note_off_c, 1, 76, 127
2, 112074, Note_off_c, 1, 69, 127
2, 112079, Note_on_c, 1, 77, 110
2, 112079, Note_on_c, 1, 69, 110
2, 112554, Note_off_c, 1, 77, 127
2, 112554, Note_off_c, 1, 69, 127
2, 112559, Note_on_c, 1, 74, 110
2, 112559, Note_on_c, 1, 69, 110
2, 113035, Note_off_c, 1, 74, 127
2, 113035, Note_off_c, 1, 69, 127
2, 113040, Note_on_c, 1, 74, 110
2, 113040, Note_on_c, 1, 69, 110
2, 113515, Note_off_c, 1, 74, 127
2, 113515, Note_off_c, 1, 69, 127
2, 113520, Note_on_c, 1, 76, 110
2, 113520, Note_on_c, 1, 69, 110
2, 113755, Note_off_c, 1, 76, 127
2, 113755, Note_off_c, 1, 69, 127
2, 113760, Note_on_c, 1, 76, 110
2, 113760, Note_on_c, 1, 69, 110
2, 115080, Note_off_c, 1, 76, 127
2, 115080, Note_off_c, 1, 69, 127
2, 115199, Note_on_c, 1, 76, 110
2, 115199, Note_on_c, 1, 69, 110
2, 115434, Note_off_c, 1, 76, 127
2, 115434, Note_off_c, 1, 69, 127
2, 115439, Note_on_c, 1, 76, 110
2, 115439, Note_on_c, 1, 69, 110
2, 115674, Note_off_c, 1, 76, 127
2, 115674, Note_off_c, 1, 69, 127
2, 115679, Note_on_c, 1, 76, 110
2, 115679, Note_on_c, 1, 69, 110
2, 115914, Note_off_c, 1, 76, 127
2, 115914, Note_off_c, 1, 69, 127
2, 115920, Note_on_c, 1, 77, 110
2, 115920, Note_on_c, 1, 69, 110
2, 116395, Note_off_c, 1, 77, 127
2, 116395, Note_off_c, 1, 69, 127
2, 116400, Note_on_c, 1, 74, 110
2, 116400, Note_on_c, 1, 69, 110
2, 116875, Note_off_c, 1, 74, 127
2, 116875, Note_off_c, 1, 69, 127
2, 116880, Note_on_c, 1, 74, 110
2, 116880, Note_on_c, 1, 69, 110
2, 117354, Note_off_c, 1, 74, 127
2, 117354, Note_off_c, 1, 69, 127
2, 117359, Note_on_c, 1, 76, 110
2, 117359, Note_on_c, 1, 69, 110
2, 117594, Note_off_c, 1, 76, 127
2, 117594, Note_off_c, 1, 69, 127
2, 117599, Note_on_c, 1, 76, 110
2, 117599, Note_on_c, 1, 69, 110
2, 118919, Note_off_c, 1, 76, 127
2, 118919, Note_off_c, 1, 69, 127
2, 119040, Note_on_c, 1, 76, 110
2, 119040, Note_on_c, 1, 69, 110
2, 119275, Note_off_c, 1, 76, 127
2, 119275, Note_off_c, 1, 69, 127
2, 119280, Note_on_c, 1, 76, 110
2, 119280, Note_on_c, 1, 69, 110
2, 119515, Note_off_c, 1, 76, 127
2, 119515, Note_off_c, 1, 69, 127
2, 119520, Note_on_c, 1, 76, 110
2, 119520, Note_on_c, 1, 69, 110
2, 119755, Note_off_c, 1, 76, 127
2, 119755, Note_off_c, 1, 69, 127
2, 119760, Note_on_c, 1, 77, 110
2, 119760, Note_on_c, 1, 69, 110
2, 120234, Note_off_c, 1, 77, 127
2, 120234, Note_off_c, 1, 69, 127
2, 120239, Note_on_c, 1, 74, 110
2, 120239, Note_on_c, 1, 69, 110
2, 120714, Note_off_c, 1, 74, 127
2, 120714, Note_off_c, 1, 69, 127
2, 120719, Note_on_c, 1, 74, 110
2, 120719, Note_on_c, 1, 69, 110
2, 121194, Note_off_c, 1, 74, 127
2, 121194, Note_off_c, 1, 69, 127
2, 121199, Note_on_c, 1, 76, 110
2, 121199, Note_on_c, 1, 69, 110
2, 121434, Note_off_c, 1, 76, 127
2, 121434, Note_off_c, 1, 69, 127
2, 121439, Note_on_c, 1, 76, 110
2, 121439, Note_on_c, 1, 69, 110
2, 122759, Note_off_c, 1, 76, 127
2, 122759, Note_off_c, 1, 69, 127
2, 122879, Note_on_c, 1, 76, 110
2, 122879, Note_on_c, 1, 69, 110
2, 123114, Note_off_c, 1, 76, 127
2, 123114, Note_off_c, 1, 69, 127
2, 123119, Note_on_c, 1, 76, 110
2, 123119, Note_on_c, 1, 69, 110
2, 123354, Note_off_c, 1, 76, 127
2, 123354, Note_off_c, 1, 69, 127
2, 123359, Note_on_c, 1, 76, 110
2, 123359, Note_on_c, 1, 69, 110
2, 123594, Note_off_c, 1, 76, 127
2, 123594, Note_off_c, 1, 69, 127
2, 123599, Note_on_c, 1, 76, 110
2, 123599, Note_on_c, 1, 69, 110
2, 123834, Note_off_c, 1, 76, 127
2, 123834, Note_off_c, 1, 69, 127
2, 123839, Note_on_c, 1, 76, 110
2, 123839, Note_on_c, 1, 69, 110
2, 124074, Note_off_c, 1, 76, 127
2, 124074, Note_off_c, 1, 69, 127
2, 124079, Note_on_c, 1, 76, 110
2, 124079, Note_on_c, 1, 69, 110
2, 124314, Note_off_c, 1, 76, 127
2, 124314, Note_off_c, 1, 69, 127
2, 124319, Note_on_c, 1, 76, 110
2, 124319, Note_on_c, 1, 69, 110
2, 124554, Note_off_c, 1, 76, 127
2, 124554, Note_off_c, 1, 69, 127
2, 124560, Note_on_c, 1, 76, 110
2, 124560, Note_on_c, 1, 69, 110
2, 124795, Note_off_c, 1, 76, 127
2, 124795, Note_off_c, 1, 69, 127
2, 124800, Note_on_c, 1, 74, 110
2, 124800, Note_on_c, 1, 69, 110
2, 126600, Note_off_c, 1, 74, 127
2, 126600, Note_off_c, 1, 69, 127
2, 126719, Note_on_c, 1, 76, 110
2, 126954, Note_off_c, 1, 76, 127
2, 126959, Note_on_c, 1, 76, 110
2, 127194, Note_off_c, 1, 76, 127
2, 127199, Note_on_c, 1, 76, 110
2, 127434, Note_off_c, 1, 76, 127
2, 127439, Note_on_c, 1, 76, 110
2, 127675, Note_off_c, 1, 76, 127
2, 127680, Note_on_c, 1, 76, 110
2, 127915, Note_off_c, 1, 76, 127
2, 127920, Note_on_c, 1, 76, 110
2, 128155, Note_off_c, 1, 76, 127
2, 128160, Note_on_c, 1, 76, 110
2, 128395, Note_off_c, 1, 76, 127
2, 128400, Note_on_c, 1, 76, 110
2, 128635, Note_off_c, 1, 76, 127
2, 128640, Note_on_c, 1, 76, 110
2, 128875, Note_off_c, 1, 76, 127
2, 128879, Note_on_c, 1, 76, 110
2, 129114, Note_off_c, 1, 76, 127
2, 129119, Note_on_c, 1, 76, 110
2, 129354, Note_off_c, 1, 76, 127
2, 129359, Note_on_c, 1, 76, 110
2, 129594, Note_off_c, 1, 76, 127
2, 129599, Note_on_c, 1, 76, 110
2, 129834, Note_off_c, 1, 76, 127
2, 129839, Note_on_c, 1, 76, 110
2, 130074, Note_off_c, 1, 76, 127
2, 130079, Note_on_c, 1, 76, 110
2, 130314, Note_off_c, 1, 76, 127
2, 130319, Note_on_c, 1, 76, 110
2, 130554, Note_off_c, 1, 76, 127
2, 130560, Note_on_c, 1, 74, 110
2, 130795, Note_off_c, 1, 74, 127
2, 130800, Note_on_c, 1, 74, 110
2, 131035, Note_off_c, 1, 74, 127
2, 131040, Note_on_c, 1, 74, 110
2, 131275, Note_off_c, 1, 74, 127
2, 131280, Note_on_c, 1, 74, 110
2, 131515, Note_off_c, 1, 74, 127
2, 131520, Note_on_c, 1, 74, 110
2, 131755, Note_off_c, 1, 74, 127
2, 131759, Note_on_c, 1, 74, 110
2, 131994, Note_off_c, 1, 74, 127
2, 131999, Note_on_c, 1, 74, 110
2, 132234, Note_off_c, 1, 74, 127
2, 132239, Note_on_c, 1, 74, 110
2, 132474, Note_off_c, 1, 74, 127
2, 132479, Note_on_c, 1, 74, 110
2, 132714, Note_off_c, 1, 74, 127
2, 132719, Note_on_c, 1, 74, 110
2, 132954, Note_off_c, 1, 74, 127
2, 132959, Note_on_c, 1, 74, 110
2, 133194, Note_off_c, 1, 74, 127
2, 133199, Note_on_c, 1, 74, 110
2, 133434, Note_off_c, 1, 74, 127
2, 133440, Note_on_c, 1, 74, 110
2, 133675, Note_off_c, 1, 74, 127
2, 133680, Note_on_c, 1, 74, 110
2, 133915, Note_off_c, 1, 74, 127
2, 133920, Note_on_c, 1, 74, 110
2, 134155, Note_off_c, 1, 74, 127
2, 134160, Note_on_c, 1, 74, 110
2, 134395, Note_off_c, 1, 74, 127
2, 134400, Note_on_c, 1, 76, 110
2, 134635, Note_off_c, 1, 76, 127
2, 134639, Note_on_c, 1, 76, 110
2, 134874, Note_off_c, 1, 76, 127
2, 134879, Note_on_c, 1, 76, 110
2, 135114, Note_off_c, 1, 76, 127
2, 135119, Note_on_c, 1, 76, 110
2, 135354, Note_off_c, 1, 76, 127
2, 135359, Note_on_c, 1, 76, 110
2, 135594, Note_off_c, 1, 76, 127
2, 135599, Note_on_c, 1, 76, 110
2, 135834, Note_off_c, 1, 76, 127
2, 135839, Note_on_c, 1, 76, 110
2, 136074, Note_off_c, 1, 76, 127
2, 136079, Note_on_c, 1, 76, 110
2, 136314, Note_off_c, 1, 76, 127
2, 136320, Note_on_c, 1, 74, 110
2, 136555, Note_off_c, 1, 74, 127
2, 136560, Note_on_c, 1, 74, 110
2, 136795, Note_off_c, 1, 74, 127
2, 136800, Note_on_c, 1, 74, 110
2, 137035, Note_off_c, 1, 74, 127
2, 137040, Note_on_c, 1, 74, 110
2, 137275, Note_off_c, 1, 74, 127
2, 137280, Note_on_c, 1, 74, 110
2, 137515, Note_off_c, 1, 74, 127
2, 137519, Note_on_c, 1, 74, 110
2, 137754, Note_off_c, 1, 74, 127
2, 137759, Note_on_c, 1, 74, 110
2, 137994, Note_off_c, 1, 74, 127
2, 137999, Note_on_c, 1, 74, 110
2, 138234, Note_off_c, 1, 74, 127
2, 138239, Note_on_c, 1, 76, 110
2, 138474, Note_off_c, 1, 76, 127
2, 138479, Note_on_c, 1, 76, 110
2, 138714, Note_off_c, 1, 76, 127
2, 138719, Note_on_c, 1, 76, 110
2, 138954, Note_off_c, 1, 76, 127
2, 138959, Note_on_c, 1, 76, 110
2, 139194, Note_off_c, 1, 76, 127
2, 139200, Note_on_c, 1, 76, 110
2, 139435, Note_off_c, 1, 76, 127
2, 139440, Note_on_c, 1, 76, 110
2, 139675, Note_off_c, 1, 76, 127
2, 139680, Note_on_c, 1, 76, 110
2, 139915, Note_off_c, 1, 76, 127
2, 139920, Note_on_c, 1, 76, 110
2, 140155, Note_off_c, 1, 76, 127
2, 140160, Note_on_c, 1, 76, 110
2, 140395, Note_off_c, 1, 76, 127
2, 140400, Note_on_c, 1, 76, 110
2, 140634, Note_off_c, 1, 76, 127
2, 140639, Note_on_c, 1, 76, 110
2, 140874, Note_off_c, 1, 76, 127
2, 140879, Note_on_c, 1, 76, 110
2, 141114, Note_off_c, 1, 76, 127
2, 141119, Note_on_c, 1, 76, 110
2, 141354, Note_off_c, 1, 76, 127
2, 141359, Note_on_c, 1, 76, 110
2, 141594, Note_off_c, 1, 76, 127
2, 141599, Note_on_c, 1, 76, 110
2, 141834, Note_off_c, 1, 76, 127
2, 141839, Note_on_c, 1, 76, 110
2, 142074, Note_off_c, 1, 76, 127
2, 142079, Note_on_c, 1, 76, 110
2, 142315, Note_off_c, 1, 76, 127
2, 142320, Note_on_c, 1, 76, 110
2, 142555, Note_off_c, 1, 76, 127
2, 142560, Note_on_c, 1, 76, 110
2, 142795, Note_off_c, 1, 76, 127
2, 142800, Note_on_c, 1, 76, 110
2, 143035, Note_off_c, 1, 76, 127
2, 143040, Note_on_c, 1, 76, 110
2, 143275, Note_off_c, 1, 76, 127
2, 143280, Note_on_c, 1, 76, 110
2, 143515, Note_off_c, 1, 76, 127
2, 143519, Note_on_c, 1, 76, 110
2, 143754, Note_off_c, 1, 76, 127
2, 143759, Note_on_c, 1, 76, 110
2, 143994, Note_off_c, 1, 76, 127
2, 143999, Note_on_c, 1, 76, 110
2, 144234, Note_off_c, 1, 76, 127
2, 144239, Note_on_c, 1, 76, 110
2, 144474, Note_off_c, 1, 76, 127
2, 144479, Note_on_c, 1, 76, 110
2, 144714, Note_off_c, 1, 76, 127
2, 144719, Note_on_c, 1, 76, 110
2, 144954, Note_off_c, 1, 76, 127
2, 144959, Note_on_c, 1, 76, 110
2, 145194, Note_off_c, 1, 76, 127
2, 145200, Note_on_c, 1, 76, 110
2, 145435, Note_off_c, 1, 76, 127
2, 145440, Note_on_c, 1, 76, 110
2, 145675, Note_off_c, 1, 76, 127
2, 145680, Note_on_c, 1, 76, 110
2, 145915, Note_off_c, 1, 76, 127
2, 145920, Note_on_c, 1, 74, 110
2, 146155, Note_off_c, 1, 74, 127
2, 146160, Note_on_c, 1, 74, 110
2, 146395, Note_off_c, 1, 74, 127
2, 146399, Note_on_c, 1, 74, 110
2, 146634, Note_off_c, 1, 74, 127
2, 146639, Note_on_c, 1, 74, 110
2, 146874, Note_off_c, 1, 74, 127
2, 146879, Note_on_c, 1, 74, 110
2, 147114, Note_off_c, 1, 74, 127
2, 147119, Note_on_c, 1, 74, 110
2, 147354, Note_off_c, 1, 74, 127
2, 147359, Note_on_c, 1, 74, 110
2, 147594, Note_off_c, 1, 74, 127
2, 147599, Note_on_c, 1, 74, 110
2, 147834, Note_off_c, 1, 74, 127
2, 147839, Note_on_c, 1, 74, 110
2, 148074, Note_off_c, 1, 74, 127
2, 148080, Note_on_c, 1, 74, 110
2, 148315, Note_off_c, 1, 74, 127
2, 148320, Note_on_c, 1, 74, 110
2, 148555, Note_off_c, 1, 74, 127
2, 148560, Note_on_c, 1, 74, 110
2, 148795, Note_off_c, 1, 74, 127
2, 148800, Note_on_c, 1, 74, 110
2, 149035, Note_off_c, 1, 74, 127
2, 149040, Note_on_c, 1, 74, 110
2, 149275, Note_off_c, 1, 74, 127
2, 149279, Note_on_c, 1, 74, 110
2, 149514, Note_off_c, 1, 74, 127
2, 149519, Note_on_c, 1, 74, 110
2, 149754, Note_off_c, 1, 74, 127
2, 149759, Note_on_c, 1, 76, 110
2, 149994, Note_off_c, 1, 76, 127
2, 149999, Note_on_c, 1, 76, 110
2, 150234, Note_off_c, 1, 76, 127
2, 150239, Note_on_c, 1, 76, 110
2, 150474, Note_off_c, 1, 76, 127
2, 150479, Note_on_c, 1, 76, 110
2, 150714, Note_off_c, 1, 76, 127
2, 150719, Note_on_c, 1, 76, 110
2, 150954, Note_off_c, 1, 76, 127
2, 150960, Note_on_c, 1, 76, 110
2, 151195, Note_off_c, 1, 76, 127
2, 151200, Note_on_c, 1, 76, 110
2, 151435, Note_off_c, 1, 76, 127
2, 151440, Note_on_c, 1, 76, 110
2, 151675, Note_off_c, 1, 76, 127
2, 151680, Note_on_c, 1, 74, 110
2, 151915, Note_off_c, 1, 74, 127
2, 151920, Note_on_c, 1, 74, 110
2, 152155, Note_off_c, 1, 74, 127
2, 152159, Note_on_c, 1, 74, 110
2, 152394, Note_off_c, 1, 74, 127
2, 152399, Note_on_c, 1, 74, 110
2, 152634, Note_off_c, 1, 74, 127
2, 152639, Note_on_c, 1, 74, 110
2, 152874, Note_off_c, 1, 74, 127
2, 152879, Note_on_c, 1, 74, 110
2, 153114, Note_off_c, 1, 74, 127
2, 153119, Note_on_c, 1, 74, 110
2, 153354, Note_off_c, 1, 74, 127
2, 153359, Note_on_c, 1, 74, 110
2, 153594, Note_off_c, 1, 74, 127
2, 153599, Note_on_c, 1, 76, 110
2, 153834, Note_off_c, 1, 76, 127
2, 153840, Note_on_c, 1, 76, 110
2, 154075, Note_off_c, 1, 76, 127
2, 154080, Note_on_c, 1, 76, 110
2, 154315, Note_off_c, 1, 76, 127
2, 154320, Note_on_c, 1, 76, 110
2, 154555, Note_off_c, 1, 76, 127
2, 154560, Note_on_c, 1, 76, 110
2, 154795, Note_off_c, 1, 76, 127
2, 154800, Note_on_c, 1, 76, 110
2, 155035, Note_off_c, 1, 76, 127
2, 155040, Note_on_c, 1, 76, 110
2, 155274, Note_off_c, 1, 76, 127
2, 155279, Note_on_c, 1, 76, 110
2, 155514, Note_off_c, 1, 76, 127
2, 155519, Note_on_c, 1, 76, 110
2, 155754, Note_off_c, 1, 76, 127
2, 155759, Note_on_c, 1, 76, 110
2, 155994, Note_off_c, 1, 76, 127
2, 155999, Note_on_c, 1, 76, 110
2, 156234, Note_off_c, 1, 76, 127
2, 156239, Note_on_c, 1, 76, 110
2, 156474, Note_off_c, 1, 76, 127
2, 156479, Note_on_c, 1, 74, 110
2, 156714, Note_off_c, 1, 74, 127
2, 156720, Note_on_c, 1, 74, 110
2, 156955, Note_off_c, 1, 74, 127
2, 156960, Note_on_c, 1, 74, 110
2, 157195, Note_off_c, 1, 74, 127
2, 157200, Note_on_c, 1, 74, 110
2, 157435, Note_off_c, 1, 74, 127
2, 157440, Note_on_c, 1, 60, 110
2, 159240, Note_off_c, 1, 60, 127
2, 159359, Note_on_c, 1, 62, 110
2, 161160, Note_off_c, 1, 62, 127
2, 161279, Note_on_c, 1, 64, 110
2, 162120, Note_off_c, 1, 64, 127
2, 162239, Note_on_c, 1, 67, 110
2, 163079, Note_off_c, 1, 67, 127
2, 163200, Note_on_c, 1, 60, 110
2, 164040, Note_off_c, 1, 60, 127
2, 164159, Note_on_c, 1, 62, 110
2, 165000, Note_off_c, 1, 62, 127
2, 165119, Note_on_c, 1, 60, 110
2, 166919, Note_off_c, 1, 60, 127
2, 167039, Note_on_c, 1, 62, 110
2, 168839, Note_off_c, 1, 62, 127
2, 168960, Note_on_c, 1, 64, 110
2, 172679, Note_off_c, 1, 64, 127
2, 172799, Note_on_c, 1, 60, 110
2, 174599, Note_off_c, 1, 60, 127
2, 174720, Note_on_c, 1, 62, 110
2, 176520, Note_off_c, 1, 62, 127
2, 176639, Note_on_c, 1, 64, 110
2, 177479, Note_off_c, 1, 64, 127
2, 177600, Note_on_c, 1, 67, 110
2, 178439, Note_off_c, 1, 67, 127
2, 178559, Note_on_c, 1, 60, 110
2, 179400, Note_off_c, 1, 60, 127
2, 179519, Note_on_c, 1, 62, 110
2, 180359, Note_off_c, 1, 62, 127
2, 180480, Note_on_c, 1, 60, 110
2, 182280, Note_off_c, 1, 60, 127
2, 182399, Note_on_c, 1, 62, 110
2, 184199, Note_off_c, 1, 62, 127
2, 184319, Note_on_c, 1, 60, 110
2, 188040, Note_off_c, 1, 60, 127
2, 188159, Note_on_c, 1, 76, 110
2, 188159, Note_on_c, 1, 69, 110
2, 188394, Note_off_c, 1, 69, 127
2, 188394, Note_off_c, 1, 76, 127
2, 188399, Note_on_c, 1, 76, 110
2, 188399, Note_on_c, 1, 69, 110
2, 188634, Note_off_c, 1, 69, 127
2, 188634, Note_off_c, 1, 76, 127
2, 188639, Note_on_c, 1, 69, 110
2, 188639, Note_on_c, 1, 76, 110
2, 188874, Note_off_c, 1, 69, 127
2, 188874, Note_off_c, 1, 76, 127
2, 188879, Note_on_c, 1, 77, 110
2, 188879, Note_on_c, 1, 69, 110
2, 189355, Note_off_c, 1, 77, 127
2, 189355, Note_off_c, 1, 69, 127
2, 189360, Note_on_c, 1, 69, 110
2, 189360, Note_on_c, 1, 74, 110
2, 189835, Note_off_c, 1, 69, 127
2, 189835, Note_off_c, 1, 74, 127
2, 189840, Note_on_c, 1, 74, 110
2, 189840, Note_on_c, 1, 69, 110
2, 190315, Note_off_c, 1, 69, 127
2, 190315, Note_off_c, 1, 74, 127
2, 190319, Note_on_c, 1, 69, 110
2, 190319, Note_on_c, 1, 76, 110
2, 190554, Note_off_c, 1, 69, 127
2, 190554, Note_off_c, 1, 76, 127
2, 190559, Note_on_c, 1, 76, 110
2, 190559, Note_on_c, 1, 69, 110
2, 191879, Note_off_c, 1, 76, 127
2, 191879, Note_off_c, 1, 69, 127
2, 192000, Note_on_c, 1, 69, 110
2, 192000, Note_on_c, 1, 76, 110
2, 192235, Note_off_c, 1, 69, 127
2, 192235, Note_off_c, 1, 76, 127
2, 192240, Note_on_c, 1, 69, 110
2, 192240, Note_on_c, 1, 76, 110
2, 192475, Note_off_c, 1, 76, 127
2, 192475, Note_off_c, 1, 69, 127
2, 192480, Note_on_c, 1, 69, 110
2, 192480, Note_on_c, 1, 76, 110
2, 192715, Note_off_c, 1, 69, 127
2, 192715, Note_off_c, 1, 76, 127
2, 192720, Note_on_c, 1, 77, 110
2, 192720, Note_on_c, 1, 69, 110
2, 193195, Note_off_c, 1, 69, 127
2, 193195, Note_off_c, 1, 77, 127
2, 193199, Note_on_c, 1, 69, 110
2, 193199, Note_on_c, 1, 74, 110
2, 193674, Note_off_c, 1, 69, 127
2, 193674, Note_off_c, 1, 74, 127
2, 193679, Note_on_c, 1, 69, 110
2, 193679, Note_on_c, 1, 74, 110
2, 194154, Note_off_c, 1, 69, 127
2, 194154, Note_off_c, 1, 74, 127
2, 194159, Note_on_c, 1, 76, 110
2, 194159, Note_on_c, 1, 69, 110
2, 194394, Note_off_c, 1, 69, 127
2, 194394, Note_off_c, 1, 76, 127
2, 194399, Note_on_c, 1, 69, 110
2, 194399, Note_on_c, 1, 76, 110
2, 195719, Note_off_c, 1, 69, 127
2, 195719, Note_off_c, 1, 76, 127
2, 195840, Note_on_c, 1, 69, 110
2, 195840, Note_on_c, 1, 76, 110
2, 196075, Note_off_c, 1, 69, 127
2, 196075, Note_off_c, 1, 76, 127
2, 196079, Note_on_c, 1, 69, 110
2, 196079, Note_on_c, 1, 76, 110
2, 196314, Note_off_c, 1, 69, 127
2, 196314, Note_off_c, 1, 76, 127
2, 196319, Note_on_c, 1, 69, 110
2, 196319, Note_on_c, 1, 76, 110
2, 196554, Note_off_c, 1, 69, 127
2, 196554, Note_off_c, 1, 76, 127
2, 196559, Note_on_c, 1, 69, 110
2, 196559, Note_on_c, 1, 77, 110
2, 197034, Note_off_c, 1, 77, 127
2, 197034, Note_off_c, 1, 69, 127
2, 197039, Note_on_c, 1, 74, 110
2, 197039, Note_on_c, 1, 69, 110
2, 197514, Note_off_c, 1, 74, 127
2, 197514, Note_off_c, 1, 69, 127
2, 197519, Note_on_c, 1, 74, 110
2, 197519, Note_on_c, 1, 69, 110
2, 197995, Note_off_c, 1, 74, 127
2, 197995, Note_off_c, 1, 69, 127
2, 198000, Note_on_c, 1, 69, 110
2, 198000, Note_on_c, 1, 76, 110
2, 198235, Note_off_c, 1, 76, 127
2, 198235, Note_off_c, 1, 69, 127
2, 198240, Note_on_c, 1, 69, 110
2, 198240, Note_on_c, 1, 76, 110
2, 199560, Note_off_c, 1, 69, 127
2, 199560, Note_off_c, 1, 76, 127
2, 199679, Note_on_c, 1, 76, 110
2, 199679, Note_on_c, 1, 69, 110
2, 199914, Note_off_c, 1, 69, 127
2, 199914, Note_off_c, 1, 76, 127
2, 199919, Note_on_c, 1, 76, 110
2, 199919, Note_on_c, 1, 69, 110
2, 200154, Note_off_c, 1, 69, 127
2, 200154, Note_off_c, 1, 76, 127
2, 200159, Note_on_c, 1, 69, 110
2, 200159, Note_on_c, 1, 76, 110
2, 200394, Note_off_c, 1, 69, 127
2, 200394, Note_off_c, 1, 76, 127
2, 200399, Note_on_c, 1, 69, 110
2, 200399, Note_on_c, 1, 76, 110
2, 200634, Note_off_c, 1, 76, 127
2, 200634, Note_off_c, 1, 69, 127
2, 200640, Note_on_c, 1, 76, 110
2, 200640, Note_on_c, 1, 69, 110
2, 200875, Note_off_c, 1, 76, 127
2, 200875, Note_off_c, 1, 69, 127
2, 200880, Note_on_c, 1, 69, 110
2, 200880, Note_on_c, 1, 76, 110
2, 201115, Note_off_c, 1, 76, 127
2, 201115, Note_off_c, 1, 69, 127
2, 201120, Note_on_c, 1, 69, 110
2, 201120, Note_on_c, 1, 76, 110
2, 201355, Note_off_c, 1, 69, 127
2, 201355, Note_off_c, 1, 76, 127
2, 201360, Note_on_c, 1, 69, 110
2, 201360, Note_on_c, 1, 76, 110
2, 201595, Note_off_c, 1, 69, 127
2, 201595, Note_off_c, 1, 76, 127
2, 201600, Note_on_c, 1, 74, 110
2, 201600, Note_on_c, 1, 69, 110
2, 201835, Note_off_c, 1, 74, 127
2, 201835, Note_off_c, 1, 69, 127
2, 201840, Note_on_c, 1, 74, 110
2, 201840, Note_on_c, 1, 69, 110
2, 202074, Note_off_c, 1, 69, 127
2, 202074, Note_off_c, 1, 74, 127
2, 202079, Note_on_c, 1, 74, 110
2, 202079, Note_on_c, 1, 69, 110
2, 202314, Note_off_c, 1, 74, 127
2, 202314, Note_off_c, 1, 69, 127
2, 202319, Note_on_c, 1, 74, 110
2, 202319, Note_on_c, 1, 69, 110
2, 202554, Note_off_c, 1, 74, 127
2, 202554, Note_off_c, 1, 69, 127
2, 202559, Note_on_c, 1, 74, 110
2, 202559, Note_on_c, 1, 69, 110
2, 202794, Note_off_c, 1, 69, 127
2, 202794, Note_off_c, 1, 74, 127
2, 202799, Note_on_c, 1, 69, 110
2, 202799, Note_on_c, 1, 74, 110
2, 203034, Note_off_c, 1, 74, 127
2, 203034, Note_off_c, 1, 69, 127
2, 203039, Note_on_c, 1, 74, 110
2, 203039, Note_on_c, 1, 69, 110
2, 203274, Note_off_c, 1, 69, 127
2, 203274, Note_off_c, 1, 74, 127
2, 203279, Note_on_c, 1, 69, 110
2, 203279, Note_on_c, 1, 74, 110
2, 203514, Note_off_c, 1, 69, 127
2, 203514, Note_off_c, 1, 74, 127
2, 203519, Note_on_c, 1, 76, 110
2, 203519, Note_on_c, 1, 71, 110
2, 203755, Note_off_c, 1, 76, 127
2, 203755, Note_off_c, 1, 71, 127
2, 203760, Note_on_c, 1, 72, 110
2, 203760, Note_on_c, 1, 76, 110
2, 203995, Note_off_c, 1, 72, 127
2, 203995, Note_off_c, 1, 76, 127
2, 204000, Note_on_c, 1, 69, 110
2, 204000, Note_on_c, 1, 76, 110
2, 204235, Note_off_c, 1, 69, 127
2, 204235, Note_off_c, 1, 76, 127
2, 204240, Note_on_c, 1, 77, 110
2, 204240, Note_on_c, 1, 71, 110
2, 204715, Note_off_c, 1, 71, 127
2, 204715, Note_off_c, 1, 77, 127
2, 204720, Note_on_c, 1, 74, 110
2, 204720, Note_on_c, 1, 72, 110
2, 205194, Note_off_c, 1, 72, 127
2, 205194, Note_off_c, 1, 74, 127
2, 205199, Note_on_c, 1, 74, 110
2, 205674, Note_off_c, 1, 74, 127
2, 205679, Note_on_c, 1, 76, 110
2, 205679, Note_on_c, 1, 72, 110
2, 205914, Note_off_c, 1, 72, 127
2, 205914, Note_off_c, 1, 76, 127
2, 205919, Note_on_c, 1, 76, 110
2, 206154, Note_off_c, 1, 76, 127
2, 206159, Note_on_c, 1, 71, 110
2, 206635, Note_off_c, 1, 71, 127
2, 206640, Note_on_c, 1, 72, 110
2, 207280, Note_off_c, 1, 72, 127
2, 207360, Note_on_c, 1, 76, 110
2, 207360, Note_on_c, 1, 71, 110
2, 207595, Note_off_c, 1, 76, 127
2, 207595, Note_off_c, 1, 71, 127
2, 207600, Note_on_c, 1, 72, 110
2, 207600, Note_on_c, 1, 76, 110
2, 207835, Note_off_c, 1, 76, 127
2, 207835, Note_off_c, 1, 72, 127
2, 207839, Note_on_c, 1, 76, 110
2, 207839, Note_on_c, 1, 69, 110
2, 208074, Note_off_c, 1, 69, 127
2, 208074, Note_off_c, 1, 76, 127
2, 208079, Note_on_c, 1, 77, 110
2, 208079, Note_on_c, 1, 71, 110
2, 208554, Note_off_c, 1, 77, 127
2, 208554, Note_off_c, 1, 71, 127
2, 208559, Note_on_c, 1, 72, 110
2, 208559, Note_on_c, 1, 74, 110
2, 209034, Note_off_c, 1, 74, 127
2, 209034, Note_off_c, 1, 72, 127
2, 209039, Note_on_c, 1, 74, 110
2, 209514, Note_off_c, 1, 74, 127
2, 209520, Note_on_c, 1, 72, 110
2, 209520, Note_on_c, 1, 76, 110
2, 209755, Note_off_c, 1, 72, 127
2, 209755, Note_off_c, 1, 76, 127
2, 209760, Note_on_c, 1, 76, 110
2, 209995, Note_off_c, 1, 76, 127
2, 210000, Note_on_c, 1, 71, 110
2, 210475, Note_off_c, 1, 71, 127
2, 210480, Note_on_c, 1, 72, 110
2, 211119, Note_off_c, 1, 72, 127
2, 211199, Note_on_c, 1, 71, 110
2, 211199, Note_on_c, 1, 76, 110
2, 211434, Note_off_c, 1, 71, 127
2, 211434, Note_off_c, 1, 76, 127
2, 211439, Note_on_c, 1, 72, 110
2, 211439, Note_on_c, 1, 76, 110
2, 211674, Note_off_c, 1, 76, 127
2, 211674, Note_off_c, 1, 72, 127
2, 211679, Note_on_c, 1, 69, 110
2, 211679, Note_on_c, 1, 76, 110
2, 211914, Note_off_c, 1, 69, 127
2, 211914, Note_off_c, 1, 76, 127
2, 211919, Note_on_c, 1, 71, 110
2, 211919, Note_on_c, 1, 77, 110
2, 212394, Note_off_c, 1, 77, 127
2, 212394, Note_off_c, 1, 71, 127
2, 212400, Note_on_c, 1, 72, 110
2, 212400, Note_on_c, 1, 74, 110
2, 212875, Note_off_c, 1, 74, 127
2, 212875, Note_off_c, 1, 72, 127
2, 212880, Note_on_c, 1, 74, 110
2, 213355, Note_off_c, 1, 74, 127
2, 213360, Note_on_c, 1, 76, 110
2, 213360, Note_on_c, 1, 72, 110
2, 213595, Note_off_c, 1, 72, 127
2, 213595, Note_off_c, 1, 76, 127
2, 213599, Note_on_c, 1, 76, 110
2, 213834, Note_off_c, 1, 76, 127
2, 213839, Note_on_c, 1, 71, 110
2, 214314, Note_off_c, 1, 71, 127
2, 214319, Note_on_c, 1, 72, 110
2, 214959, Note_off_c, 1, 72, 127
2, 215039, Note_on_c, 1, 76, 110
2, 215039, Note_on_c, 1, 72, 110
2, 215274, Note_off_c, 1, 72, 127
2, 215274, Note_off_c, 1, 76, 127
2, 215280, Note_on_c, 1, 71, 110
2, 215280, Note_on_c, 1, 76, 110
2, 215515, Note_off_c, 1, 71, 127
2, 215515, Note_off_c, 1, 76, 127
2, 215520, Note_on_c, 1, 76, 110
2, 215520, Note_on_c, 1, 69, 110
2, 215755, Note_off_c, 1, 76, 127
2, 215755, Note_off_c, 1, 69, 127
2, 215760, Note_on_c, 1, 72, 110
2, 215760, Note_on_c, 1, 76, 110
2, 215995, Note_off_c, 1, 72, 127
2, 215995, Note_off_c, 1, 76, 127
2, 216000, Note_on_c, 1, 76, 110
2, 216000, Note_on_c, 1, 71, 110
2, 216235, Note_off_c, 1, 76, 127
2, 216235, Note_off_c, 1, 71, 127
2, 216240, Note_on_c, 1, 76, 110
2, 216240, Note_on_c, 1, 69, 110
2, 216475, Note_off_c, 1, 69, 127
2, 216475, Note_off_c, 1, 76, 127
2, 216480, Note_on_c, 1, 72, 110
2, 216480, Note_on_c, 1, 76, 110
2, 216714, Note_off_c, 1, 72, 127
2, 216714, Note_off_c, 1, 76, 127
2, 216719, Note_on_c, 1, 71, 110
2, 216719, Note_on_c, 1, 76, 110
2, 216954, Note_off_c, 1, 71, 127
2, 216954, Note_off_c, 1, 76, 127
2, 216959, Note_on_c, 1, 71, 110
2, 216959, Note_on_c, 1, 79, 110
2, 217194, Note_off_c, 1, 71, 127
2, 217194, Note_off_c, 1, 79, 127
2, 217199, Note_on_c, 1, 79, 110
2, 217199, Note_on_c, 1, 71, 110
2, 217434, Note_off_c, 1, 79, 127
2, 217434, Note_off_c, 1, 71, 127
2, 217439, Note_on_c, 1, 79, 110
2, 217674, Note_off_c, 1, 79, 127
2, 217679, Note_on_c, 1, 72, 110
2, 217679, Note_on_c, 1, 79, 110
2, 217914, Note_off_c, 1, 79, 127
2, 217914, Note_off_c, 1, 72, 127
2, 217919, Note_on_c, 1, 79, 110
2, 218154, Note_off_c, 1, 79, 127
2, 218160, Note_on_c, 1, 74, 110
2, 218160, Note_on_c, 1, 79, 110
2, 218395, Note_off_c, 1, 74, 127
2, 218395, Note_off_c, 1, 79, 127
2, 218400, Note_on_c, 1, 79, 110
2, 218635, Note_off_c, 1, 79, 127
2, 218640, Note_on_c, 1, 79, 110
2, 218875, Note_off_c, 1, 79, 127
2, 218880, Note_on_c, 1, 81, 110
2, 218880, Note_on_c, 1, 72, 110
2, 219115, Note_off_c, 1, 81, 127
2, 219115, Note_off_c, 1, 72, 127
2, 219120, Note_on_c, 1, 81, 110
2, 219120, Note_on_c, 1, 69, 110
2, 219355, Note_off_c, 1, 69, 127
2, 219355, Note_off_c, 1, 81, 127
2, 219839, Note_on_c, 1, 69, 110
2, 219839, Note_on_c, 1, 81, 110
2, 220074, Note_off_c, 1, 81, 127
2, 220074, Note_off_c, 1, 69, 127
2, 220079, Note_on_c, 1, 81, 110
2, 220079, Note_on_c, 1, 69, 110
2, 220314, Note_off_c, 1, 81, 127
2, 220314, Note_off_c, 1, 69, 127
2, 220319, Note_on_c, 1, 67, 110
2, 220319, Note_on_c, 1, 79, 110
2, 220554, Note_off_c, 1, 67, 127
2, 220554, Note_off_c, 1, 79, 127
2, 220559, Note_on_c, 1, 81, 110
2, 220559, Note_on_c, 1, 69, 110
2, 221639, Note_off_c, 1, 69, 127
2, 221639, Note_off_c, 1, 81, 127
2, 221760, Note_on_c, 1, 69, 110
2, 222600, Note_off_c, 1, 69, 127
2, 224640, End_track
3, 0, Start_track
3, 0, Title_t, "Track3"
3, 34560, Note_on_c, 2, 64, 110
3, 34560, Control_c, 2, 91, 0
3, 34560, Control_c, 2, 7, 127
3, 34560, Control_c, 2, 93, 0
3, 34560, Control_c, 2, 10, 64
3, 34560, Control_c, 2, 121, 0
3, 34560, Program_c, 2, 68
3, 34560, Control_c, 2, 32, 0
3, 34560, Control_c, 2, 0, 0
3, 34795, Note_off_c, 2, 64, 127
3, 34800, Note_on_c, 2, 67, 110
3, 35035, Note_off_c, 2, 67, 127
3, 35040, Note_on_c, 2, 72, 110
3, 35275, Note_off_c, 2, 72, 127
3, 35279, Note_on_c, 2, 76, 110
3, 35754, Note_off_c, 2, 76, 127
3, 35759, Note_on_c, 2, 77, 110
3, 36234, Note_off_c, 2, 77, 127
3, 36239, Note_on_c, 2, 76, 110
3, 36474, Note_off_c, 2, 76, 127
3, 36479, Note_on_c, 2, 79, 110
3, 37675, Note_off_c, 2, 79, 127
3, 37680, Note_on_c, 2, 79, 110
3, 37915, Note_off_c, 2, 79, 127
3, 37920, Note_on_c, 2, 77, 110
3, 38155, Note_off_c, 2, 77, 127
3, 38159, Note_on_c, 2, 76, 110
3, 38394, Note_off_c, 2, 76, 127
3, 38399, Note_on_c, 2, 74, 110
3, 38799, Note_off_c, 2, 74, 127
3, 38879, Note_on_c, 2, 76, 110
3, 39114, Note_off_c, 2, 76, 127
3, 39119, Note_on_c, 2, 74, 110
3, 39594, Note_off_c, 2, 74, 127
3, 39599, Note_on_c, 2, 72, 110
3, 40075, Note_off_c, 2, 72, 127
3, 40080, Note_on_c, 2, 71, 110
3, 40720, Note_off_c, 2, 71, 127
3, 40800, Note_on_c, 2, 71, 110
3, 41035, Note_off_c, 2, 71, 127
3, 41039, Note_on_c, 2, 72, 110
3, 41274, Note_off_c, 2, 72, 127
3, 41279, Note_on_c, 2, 74, 110
3, 41514, Note_off_c, 2, 74, 127
3, 41519, Note_on_c, 2, 72, 110
3, 41994, Note_off_c, 2, 72, 127
3, 41999, Note_on_c, 2, 71, 110
3, 42234, Note_off_c, 2, 71, 127
3, 42239, Note_on_c, 2, 76, 110
3, 42474, Note_off_c, 2, 76, 127
3, 42479, Note_on_c, 2, 76, 110
3, 42714, Note_off_c, 2, 76, 127
3, 42720, Note_on_c, 2, 76, 110
3, 42955, Note_off_c, 2, 76, 127
3, 42960, Note_on_c, 2, 77, 110
3, 43435, Note_off_c, 2, 77, 127
3, 43440, Note_on_c, 2, 76, 110
3, 43915, Note_off_c, 2, 76, 127
3, 43919, Note_on_c, 2, 79, 110
3, 45354, Note_off_c, 2, 79, 127
3, 45359, Note_on_c, 2, 76, 110
3, 45594, Note_off_c, 2, 76, 127
3, 45600, Note_on_c, 2, 74, 110
3, 45835, Note_off_c, 2, 74, 127
3, 45840, Note_on_c, 2, 72, 110
3, 46075, Note_off_c, 2, 72, 127
3, 46080, Note_on_c, 2, 71, 110
3, 46480, Note_off_c, 2, 71, 127
3, 46560, Note_on_c, 2, 72, 110
3, 46795, Note_off_c, 2, 72, 127
3, 46800, Note_on_c, 2, 69, 110
3, 49799, Note_off_c, 2, 69, 127
3, 49919, Note_on_c, 2, 76, 110
3, 50319, Note_off_c, 2, 76, 127
3, 50399, Note_on_c, 2, 64, 110
3, 50634, Note_off_c, 2, 64, 127
3, 50639, Note_on_c, 2, 69, 110
3, 51114, Note_off_c, 2, 69, 127
3, 51119, Note_on_c, 2, 72, 110
3, 51595, Note_off_c, 2, 72, 127
3, 51600, Note_on_c, 2, 76, 110
3, 52480, Note_off_c, 2, 76, 127
3, 52560, Note_on_c, 2, 76, 110
3, 52795, Note_off_c, 2, 76, 127
3, 52799, Note_on_c, 2, 79, 110
3, 53199, Note_off_c, 2, 79, 127
3, 53279, Note_on_c, 2, 81, 110
3, 53679, Note_off_c, 2, 81, 127
3, 53759, Note_on_c, 2, 83, 110
3, 54159, Note_off_c, 2, 83, 127
3, 54239, Note_on_c, 2, 84, 110
3, 54474, Note_off_c, 2, 84, 127
3, 54480, Note_on_c, 2, 83, 110
3, 54955, Note_off_c, 2, 83, 127
3, 54960, Note_on_c, 2, 81, 110
3, 55435, Note_off_c, 2, 81, 127
3, 55440, Note_on_c, 2, 83, 110
3, 57479, Note_off_c, 2, 83, 127
3, 57600, Note_on_c, 2, 84, 110
3, 58240, Note_off_c, 2, 84, 127
3, 58320, Note_on_c, 2, 83, 110
3, 58794, Note_off_c, 2, 83, 127
3, 58799, Note_on_c, 2, 81, 110
3, 59439, Note_off_c, 2, 81, 127
3, 59519, Note_on_c, 2, 88, 110
3, 60159, Note_off_c, 2, 88, 127
3, 60240, Note_on_c, 2, 86, 110
3, 60715, Note_off_c, 2, 86, 127
3, 60720, Note_on_c, 2, 84, 110
3, 61360, Note_off_c, 2, 84, 127
3, 61439, Note_on_c, 2, 83, 110
3, 61839, Note_off_c, 2, 83, 127
3, 61919, Note_on_c, 2, 84, 110
3, 62154, Note_off_c, 2, 84, 127
3, 62159, Note_on_c, 2, 83, 110
3, 62634, Note_off_c, 2, 83, 127
3, 62639, Note_on_c, 2, 81, 110
3, 63114, Note_off_c, 2, 81, 127
3, 63120, Note_on_c, 2, 79, 110
3, 63355, Note_off_c, 2, 79, 127
3, 63360, Note_on_c, 2, 81, 110
3, 64199, Note_off_c, 2, 81, 127
3, 64320, Note_on_c, 2, 79, 110
3, 65160, Note_off_c, 2, 79, 127
3, 65279, Note_on_c, 2, 65, 110
3, 65919, Note_off_c, 2, 65, 127
3, 65999, Note_on_c, 2, 69, 110
3, 66640, Note_off_c, 2, 69, 127
3, 66720, Note_on_c, 2, 72, 110
3, 67120, Note_off_c, 2, 72, 127
3, 67200, Note_on_c, 2, 71, 110
3, 67839, Note_off_c, 2, 71, 127
3, 67919, Note_on_c, 2, 72, 110
3, 68035, Note_off_c, 2, 72, 127
3, 68040, Note_on_c, 2, 71, 110
3, 68154, Note_off_c, 2, 71, 127
3, 68159, Note_on_c, 2, 69, 110
3, 68559, Note_off_c, 2, 69, 127
3, 68639, Note_on_c, 2, 71, 110
3, 69040, Note_off_c, 2, 71, 127
3, 69120, Note_on_c, 2, 72, 110
3, 69959, Note_off_c, 2, 72, 127
3, 70080, Note_on_c, 2, 71, 110
3, 70315, Note_off_c, 2, 71, 127
3, 70319, Note_on_c, 2, 72, 110
3, 70554, Note_off_c, 2, 72, 127
3, 70559, Note_on_c, 2, 74, 110
3, 70959, Note_off_c, 2, 74, 127
3, 71039, Note_on_c, 2, 76, 110
3, 71879, Note_off_c, 2, 76, 127
3, 72000, Note_on_c, 2, 74, 110
3, 72839, Note_off_c, 2, 74, 127
3, 72960, Note_on_c, 2, 65, 110
3, 73599, Note_off_c, 2, 65, 127
3, 73679, Note_on_c, 2, 69, 110
3, 74319, Note_off_c, 2, 69, 127
3, 74399, Note_on_c, 2, 72, 110
3, 74799, Note_off_c, 2, 72, 127
3, 74880, Note_on_c, 2, 71, 110
3, 75520, Note_off_c, 2, 71, 127
3, 75600, Note_on_c, 2, 72, 110
3, 75714, Note_off_c, 2, 72, 127
3, 75719, Note_on_c, 2, 71, 110
3, 75835, Note_off_c, 2, 71, 127
3, 75840, Note_on_c, 2, 69, 110
3, 76239, Note_off_c, 2, 69, 127
3, 76319, Note_on_c, 2, 71, 110
3, 76719, Note_off_c, 2, 71, 127
3, 76799, Note_on_c, 2, 72, 110
3, 77639, Note_off_c, 2, 72, 127
3, 77760, Note_on_c, 2, 71, 110
3, 78599, Note_off_c, 2, 71, 127
3, 78720, Note_on_c, 2, 69, 110
3, 80519, Note_off_c, 2, 69, 127
3, 80639, Note_on_c, 2, 65, 110
3, 81280, Note_off_c, 2, 65, 127
3, 81360, Note_on_c, 2, 69, 110
3, 81999, Note_off_c, 2, 69, 127
3, 82079, Note_on_c, 2, 72, 110
3, 82479, Note_off_c, 2, 72, 127
3, 82559, Note_on_c, 2, 71, 110
3, 83199, Note_off_c, 2, 71, 127
3, 83279, Note_on_c, 2, 72, 110
3, 83395, Note_off_c, 2, 72, 127
3, 83399, Note_on_c, 2, 71, 110
3, 83514, Note_off_c, 2, 71, 127
3, 83519, Note_on_c, 2, 69, 110
3, 83920, Note_off_c, 2, 69, 127
3, 84000, Note_on_c, 2, 71, 110
3, 84400, Note_off_c, 2, 71, 127
3, 84480, Note_on_c, 2, 72, 110
3, 85320, Note_off_c, 2, 72, 127
3, 85439, Note_on_c, 2, 71, 110
3, 85674, Note_off_c, 2, 71, 127
3, 85679, Note_on_c, 2, 72, 110
3, 85914, Note_off_c, 2, 72, 127
3, 85919, Note_on_c, 2, 74, 110
3, 86319, Note_off_c, 2, 74, 127
3, 86399, Note_on_c, 2, 76, 110
3, 87239, Note_off_c, 2, 76, 127
3, 87360, Note_on_c, 2, 74, 110
3, 88200, Note_off_c, 2, 74, 127
3, 88319, Note_on_c, 2, 65, 110
3, 88959, Note_off_c, 2, 65, 127
3, 89039, Note_on_c, 2, 69, 110
3, 89680, Note_off_c, 2, 69, 127
3, 89760, Note_on_c, 2, 72, 110
3, 90160, Note_off_c, 2, 72, 127
3, 90240, Note_on_c, 2, 71, 110
3, 90879, Note_off_c, 2, 71, 127
3, 90959, Note_on_c, 2, 72, 110
3, 91074, Note_off_c, 2, 72, 127
3, 91080, Note_on_c, 2, 71, 110
3, 91194, Note_off_c, 2, 71, 127
3, 91199, Note_on_c, 2, 69, 110
3, 91599, Note_off_c, 2, 69, 127
3, 91679, Note_on_c, 2, 71, 110
3, 92079, Note_off_c, 2, 71, 127
3, 92159, Note_on_c, 2, 72, 110
3, 93960, Note_off_c, 2, 72, 127
3, 126719, Note_on_c, 2, 64, 110
3, 126954, Note_off_c, 2, 64, 127
3, 126959, Note_on_c, 2, 67, 110
3, 127194, Note_off_c, 2, 67, 127
3, 127199, Note_on_c, 2, 72, 110
3, 127434, Note_off_c, 2, 72, 127
3, 127439, Note_on_c, 2, 76, 110
3, 127915, Note_off_c, 2, 76, 127
3, 127920, Note_on_c, 2, 77, 110
3, 128395, Note_off_c, 2, 77, 127
3, 128400, Note_on_c, 2, 76, 110
3, 128635, Note_off_c, 2, 76, 127
3, 128640, Note_on_c, 2, 79, 110
3, 129834, Note_off_c, 2, 79, 127
3, 129839, Note_on_c, 2, 79, 110
3, 130074, Note_off_c, 2, 79, 127
3, 130079, Note_on_c, 2, 77, 110
3, 130314, Note_off_c, 2, 77, 127
3, 130319, Note_on_c, 2, 76, 110
3, 130554, Note_off_c, 2, 76, 127
3, 130560, Note_on_c, 2, 74, 110
3, 130960, Note_off_c, 2, 74, 127
3, 131040, Note_on_c, 2, 76, 110
3, 131275, Note_off_c, 2, 76, 127
3, 131280, Note_on_c, 2, 74, 110
3, 131755, Note_off_c, 2, 74, 127
3, 131759, Note_on_c, 2, 72, 110
3, 132234, Note_off_c, 2, 72, 127
3, 132239, Note_on_c, 2, 71, 110
3, 132879, Note_off_c, 2, 71, 127
3, 132959, Note_on_c, 2, 71, 110
3, 133194, Note_off_c, 2, 71, 127
3, 133199, Note_on_c, 2, 72, 110
3, 133434, Note_off_c, 2, 72, 127
3, 133440, Note_on_c, 2, 74, 110
3, 133675, Note_off_c, 2, 74, 127
3, 133680, Note_on_c, 2, 72, 110
3, 134155, Note_off_c, 2, 72, 127
3, 134160, Note_on_c, 2, 71, 110
3, 134395, Note_off_c, 2, 71, 127
3, 134400, Note_on_c, 2, 76, 110
3, 134635, Note_off_c, 2, 76, 127
3, 134639, Note_on_c, 2, 76, 110
3, 134874, Note_off_c, 2, 76, 127
3, 134879, Note_on_c, 2, 76, 110
3, 135114, Note_off_c, 2, 76, 127
3, 135119, Note_on_c, 2, 77, 110
3, 135594, Note_off_c, 2, 77, 127
3, 135599, Note_on_c, 2, 76, 110
3, 136074, Note_off_c, 2, 76, 127
3, 136079, Note_on_c, 2, 79, 110
3, 137515, Note_off_c, 2, 79, 127
3, 137519, Note_on_c, 2, 76, 110
3, 137754, Note_off_c, 2, 76, 127
3, 137759, Note_on_c, 2, 74, 110
3, 137994, Note_off_c, 2, 74, 127
3, 137999, Note_on_c, 2, 72, 110
3, 138234, Note_off_c, 2, 72, 127
3, 138239, Note_on_c, 2, 71, 110
3, 138639, Note_off_c, 2, 71, 127
3, 138719, Note_on_c, 2, 72, 110
3, 138954, Note_off_c, 2, 72, 127
3, 138959, Note_on_c, 2, 69, 110
3, 141959, Note_off_c, 2, 69, 127
3, 142079, Note_on_c, 2, 76, 110
3, 142480, Note_off_c, 2, 76, 127
3, 142560, Note_on_c, 2, 64, 110
3, 142795, Note_off_c, 2, 64, 127
3, 142800, Note_on_c, 2, 69, 110
3, 143275, Note_off_c, 2, 69, 127
3, 143280, Note_on_c, 2, 72, 110
3, 143754, Note_off_c, 2, 72, 127
3, 143759, Note_on_c, 2, 76, 110
3, 144639, Note_off_c, 2, 76, 127
3, 144719, Note_on_c, 2, 76, 110
3, 144954, Note_off_c, 2, 76, 127
3, 144959, Note_on_c, 2, 79, 110
3, 145360, Note_off_c, 2, 79, 127
3, 145440, Note_on_c, 2, 81, 110
3, 145840, Note_off_c, 2, 81, 127
3, 145920, Note_on_c, 2, 83, 110
3, 146319, Note_off_c, 2, 83, 127
3, 146399, Note_on_c, 2, 84, 110
3, 146634, Note_off_c, 2, 84, 127
3, 146639, Note_on_c, 2, 83, 110
3, 147114, Note_off_c, 2, 83, 127
3, 147119, Note_on_c, 2, 81, 110
3, 147594, Note_off_c, 2, 81, 127
3, 147599, Note_on_c, 2, 83, 110
3, 149640, Note_off_c, 2, 83, 127
3, 149759, Note_on_c, 2, 84, 110
3, 150399, Note_off_c, 2, 84, 127
3, 150479, Note_on_c, 2, 83, 110
3, 150954, Note_off_c, 2, 83, 127
3, 150960, Note_on_c, 2, 81, 110
3, 151600, Note_off_c, 2, 81, 127
3, 151680, Note_on_c, 2, 88, 110
3, 152319, Note_off_c, 2, 88, 127
3, 152399, Note_on_c, 2, 86, 110
3, 152874, Note_off_c, 2, 86, 127
3, 152879, Note_on_c, 2, 84, 110
3, 153519, Note_off_c, 2, 84, 127
3, 153599, Note_on_c, 2, 83, 110
3, 154000, Note_off_c, 2, 83, 127
3, 154080, Note_on_c, 2, 84, 110
3, 154315, Note_off_c, 2, 84, 127
3, 154320, Note_on_c, 2, 83, 110
3, 154795, Note_off_c, 2, 83, 127
3, 154800, Note_on_c, 2, 81, 110
3, 155274, Note_off_c, 2, 81, 127
3, 155279, Note_on_c, 2, 79, 110
3, 155514, Note_off_c, 2, 79, 127
3, 155519, Note_on_c, 2, 81, 110
3, 156360, Note_off_c, 2, 81, 127
3, 156479, Note_on_c, 2, 79, 110
3, 157319, Note_off_c, 2, 79, 127
3, 157440, Note_on_c, 2, 65, 110
3, 158079, Note_off_c, 2, 65, 127
3, 158159, Note_on_c, 2, 69, 110
3, 158799, Note_off_c, 2, 69, 127
3, 158879, Note_on_c, 2, 72, 110
3, 159279, Note_off_c, 2, 72, 127
3, 159359, Note_on_c, 2, 71, 110
3, 160000, Note_off_c, 2, 71, 127
3, 160080, Note_on_c, 2, 72, 110
3, 160194, Note_off_c, 2, 72, 127
3, 160199, Note_on_c, 2, 71, 110
3, 160315, Note_off_c, 2, 71, 127
3, 160320, Note_on_c, 2, 69, 110
3, 160720, Note_off_c, 2, 69, 127
3, 160800, Note_on_c, 2, 71, 110
3, 161199, Note_off_c, 2, 71, 127
3, 161279, Note_on_c, 2, 72, 110
3, 162120, Note_off_c, 2, 72, 127
3, 162239, Note_on_c, 2, 71, 110
3, 162474, Note_off_c, 2, 71, 127
3, 162479, Note_on_c, 2, 72, 110
3, 162714, Note_off_c, 2, 72, 127
3, 162720, Note_on_c, 2, 74, 110
3, 163120, Note_off_c, 2, 74, 127
3, 163200, Note_on_c, 2, 76, 110
3, 164040, Note_off_c, 2, 76, 127
3, 164159, Note_on_c, 2, 74, 110
3, 165000, Note_off_c, 2, 74, 127
3, 165119, Note_on_c, 2, 65, 110
3, 165760, Note_off_c, 2, 65, 127
3, 165840, Note_on_c, 2, 69, 110
3, 166480, Note_off_c, 2, 69, 127
3, 166560, Note_on_c, 2, 72, 110
3, 166959, Note_off_c, 2, 72, 127
3, 167039, Note_on_c, 2, 71, 110
3, 167679, Note_off_c, 2, 71, 127
3, 167759, Note_on_c, 2, 72, 110
3, 167875, Note_off_c, 2, 72, 127
3, 167880, Note_on_c, 2, 71, 110
3, 167994, Note_off_c, 2, 71, 127
3, 167999, Note_on_c, 2, 69, 110
3, 168399, Note_off_c, 2, 69, 127
3, 168480, Note_on_c, 2, 71, 110
3, 168880, Note_off_c, 2, 71, 127
3, 168960, Note_on_c, 2, 72, 110
3, 169799, Note_off_c, 2, 72, 127
3, 169919, Note_on_c, 2, 71, 110
3, 170760, Note_off_c, 2, 71, 127
3, 170879, Note_on_c, 2, 69, 110
3, 172679, Note_off_c, 2, 69, 127
3, 172799, Note_on_c, 2, 65, 110
3, 173439, Note_off_c, 2, 65, 127
3, 173519, Note_on_c, 2, 69, 110
3, 174159, Note_off_c, 2, 69, 127
3, 174239, Note_on_c, 2, 72, 110
3, 174640, Note_off_c, 2, 72, 127
3, 174720, Note_on_c, 2, 71, 110
3, 175360, Note_off_c, 2, 71, 127
3, 175440, Note_on_c, 2, 72, 110
3, 175554, Note_off_c, 2, 72, 127
3, 175559, Note_on_c, 2, 71, 110
3, 175675, Note_off_c, 2, 71, 127
3, 175679, Note_on_c, 2, 69, 110
3, 176079, Note_off_c, 2, 69, 127
3, 176159, Note_on_c, 2, 71, 110
3, 176559, Note_off_c, 2, 71, 127
3, 176639, Note_on_c, 2, 72, 110
3, 177479, Note_off_c, 2, 72, 127
3, 177600, Note_on_c, 2, 71, 110
3, 177835, Note_off_c, 2, 71, 127
3, 177840, Note_on_c, 2, 72, 110
3, 178075, Note_off_c, 2, 72, 127
3, 178080, Note_on_c, 2, 74, 110
3, 178479, Note_off_c, 2, 74, 127
3, 178559, Note_on_c, 2, 76, 110
3, 179400, Note_off_c, 2, 76, 127
3, 179519, Note_on_c, 2, 74, 110
3, 180359, Note_off_c, 2, 74, 127
3, 180480, Note_on_c, 2, 65, 110
3, 181120, Note_off_c, 2, 65, 127
3, 181200, Note_on_c, 2, 69, 110
3, 181839, Note_off_c, 2, 69, 127
3, 181919, Note_on_c, 2, 72, 110
3, 182319, Note_off_c, 2, 72, 127
3, 182399, Note_on_c, 2, 71, 110
3, 183039, Note_off_c, 2, 71, 127
3, 183120, Note_on_c, 2, 72, 110
3, 183234, Note_off_c, 2, 72, 127
3, 183239, Note_on_c, 2, 71, 110
3, 183355, Note_off_c, 2, 71, 127
3, 183360, Note_on_c, 2, 69, 110
3, 183760, Note_off_c, 2, 69, 127
3, 183840, Note_on_c, 2, 71, 110
3, 184240, Note_off_c, 2, 71, 127
3, 184319, Note_on_c, 2, 72, 110
3, 186119, Note_off_c, 2, 72, 127
3, 203519, Note_on_c, 2, 71, 110
3, 203755, Note_off_c, 2, 71, 127
3, 203760, Note_on_c, 2, 72, 110
3, 203995, Note_off_c, 2, 72, 127
3, 204000, Note_on_c, 2, 69, 110
3, 204235, Note_off_c, 2, 69, 127
3, 204240, Note_on_c, 2, 71, 110
3, 204715, Note_off_c, 2, 71, 127
3, 204720, Note_on_c, 2, 72, 110
3, 205194, Note_off_c, 2, 72, 127
3, 205199, Note_on_c, 2, 74, 110
3, 205674, Note_off_c, 2, 74, 127
3, 205679, Note_on_c, 2, 72, 110
3, 206154, Note_off_c, 2, 72, 127
3, 206159, Note_on_c, 2, 71, 110
3, 206635, Note_off_c, 2, 71, 127
3, 206640, Note_on_c, 2, 72, 110
3, 207280, Note_off_c, 2, 72, 127
3, 207360, Note_on_c, 2, 71, 110
3, 207595, Note_off_c, 2, 71, 127
3, 207600, Note_on_c, 2, 72, 110
3, 207835, Note_off_c, 2, 72, 127
3, 207839, Note_on_c, 2, 69, 110
3, 208074, Note_off_c, 2, 69, 127
3, 208079, Note_on_c, 2, 71, 110
3, 208554, Note_off_c, 2, 71, 127
3, 208559, Note_on_c, 2, 72, 110
3, 209034, Note_off_c, 2, 72, 127
3, 209039, Note_on_c, 2, 74, 110
3, 209514, Note_off_c, 2, 74, 127
3, 209520, Note_on_c, 2, 72, 110
3, 209995, Note_off_c, 2, 72, 127
3, 210000, Note_on_c, 2, 71, 110
3, 210475, Note_off_c, 2, 71, 127
3, 210480, Note_on_c, 2, 72, 110
3, 211119, Note_off_c, 2, 72, 127
3, 211199, Note_on_c, 2, 71, 110
3, 211434, Note_off_c, 2, 71, 127
3, 211439, Note_on_c, 2, 72, 110
3, 211674, Note_off_c, 2, 72, 127
3, 211679, Note_on_c, 2, 69, 110
3, 211914, Note_off_c, 2, 69, 127
3, 211919, Note_on_c, 2, 71, 110
3, 212394, Note_off_c, 2, 71, 127
3, 212400, Note_on_c, 2, 72, 110
3, 212875, Note_off_c, 2, 72, 127
3, 212880, Note_on_c, 2, 74, 110
3, 213355, Note_off_c, 2, 74, 127
3, 213360, Note_on_c, 2, 72, 110
3, 213834, Note_off_c, 2, 72, 127
3, 213839, Note_on_c, 2, 71, 110
3, 214314, Note_off_c, 2, 71, 127
3, 214319, Note_on_c, 2, 72, 110
3, 214959, Note_off_c, 2, 72, 127
3, 215039, Note_on_c, 2, 72, 110
3, 215274, Note_off_c, 2, 72, 127
3, 215280, Note_on_c, 2, 71, 110
3, 215515, Note_off_c, 2, 71, 127
3, 215520, Note_on_c, 2, 69, 110
3, 215755, Note_off_c, 2, 69, 127
3, 215760, Note_on_c, 2, 72, 110
3, 215995, Note_off_c, 2, 72, 127
3, 216000, Note_on_c, 2, 71, 110
3, 216235, Note_off_c, 2, 71, 127
3, 216240, Note_on_c, 2, 69, 110
3, 216475, Note_off_c, 2, 69, 127
3, 216480, Note_on_c, 2, 72, 110
3, 216714, Note_off_c, 2, 72, 127
3, 216719, Note_on_c, 2, 71, 110
3, 216954, Note_off_c, 2, 71, 127
3, 216959, Note_on_c, 2, 71, 110
3, 217194, Note_off_c, 2, 71, 127
3, 217199, Note_on_c, 2, 71, 110
3, 217674, Note_off_c, 2, 71, 127
3, 217679, Note_on_c, 2, 72, 110
3, 218154, Note_off_c, 2, 72, 127
3, 218160, Note_on_c, 2, 74, 110
3, 218800, Note_off_c, 2, 74, 127
3, 218880, Note_on_c, 2, 72, 110
3, 219115, Note_off_c, 2, 72, 127
3, 219120, Note_on_c, 2, 69, 110
3, 219759, Note_off_c, 2, 69, 127
3, 219839, Note_on_c, 2, 69, 110
3, 220074, Note_off_c, 2, 69, 127
3, 220079, Note_on_c, 2, 69, 110
3, 220314, Note_off_c, 2, 69, 127
3, 220319, Note_on_c, 2, 67, 110
3, 220554, Note_off_c, 2, 67, 127
3, 220559, Note_on_c, 2, 69, 110
3, 221639, Note_off_c, 2, 69, 127
3, 221760, Note_on_c, 2, 57, 110
3, 223560, Note_off_c, 2, 57, 127
3, 224640, End_track
4, 0, Start_track
4, 0, Title_t, "Track4"
4, 3839, Control_c, 3, 0, 0
4, 3839, Note_on_c, 3, 57, 110
4, 3839, Control_c, 3, 91, 0
4, 3839, Control_c, 3, 7, 127
4, 3839, Control_c, 3, 93, 0
4, 3839, Control_c, 3, 10, 64
4, 3839, Control_c, 3, 121, 0
4, 3839, Program_c, 3, 63
4, 3839, Control_c, 3, 32, 0
4, 6600, Note_off_c, 3, 57, 127
4, 6719, Note_on_c, 3, 57, 110
4, 7119, Note_off_c, 3, 57, 127
4, 7199, Note_on_c, 3, 55, 110
4, 7600, Note_off_c, 3, 55, 127
4, 7680, Note_on_c, 3, 53, 110
4, 10439, Note_off_c, 3, 53, 127
4, 10560, Note_on_c, 3, 53, 110
4, 10960, Note_off_c, 3, 53, 127
4, 11040, Note_on_c, 3, 52, 110
4, 11440, Note_off_c, 3, 52, 127
4, 11520, Note_on_c, 3, 50, 110
4, 13840, Note_off_c, 3, 50, 127
4, 14400, Note_on_c, 3, 50, 110
4, 14799, Note_off_c, 3, 50, 127
4, 14879, Note_on_c, 3, 48, 110
4, 15279, Note_off_c, 3, 48, 127
4, 15359, Note_on_c, 3, 52, 110
4, 15999, Note_off_c, 3, 52, 127
4, 16079, Note_on_c, 3, 52, 110
4, 16720, Note_off_c, 3, 52, 127
4, 16800, Note_on_c, 3, 52, 110
4, 17200, Note_off_c, 3, 52, 127
4, 17280, Note_on_c, 3, 52, 110
4, 17919, Note_off_c, 3, 52, 127
4, 17999, Note_on_c, 3, 52, 110
4, 18639, Note_off_c, 3, 52, 127
4, 18719, Note_on_c, 3, 52, 110
4, 19119, Note_off_c, 3, 52, 127
4, 19199, Note_on_c, 3, 45, 110
4, 19314, Note_off_c, 3, 45, 127
4, 19319, Note_on_c, 3, 45, 110
4, 19435, Note_off_c, 3, 45, 127
4, 19440, Note_on_c, 3, 45, 110
4, 19675, Note_off_c, 3, 45, 127
4, 19680, Note_on_c, 3, 57, 110
4, 19915, Note_off_c, 3, 57, 127
4, 19920, Note_on_c, 3, 45, 110
4, 20395, Note_off_c, 3, 45, 127
4, 20400, Note_on_c, 3, 45, 110
4, 20635, Note_off_c, 3, 45, 127
4, 20639, Note_on_c, 3, 57, 110
4, 20874, Note_off_c, 3, 57, 127
4, 20879, Note_on_c, 3, 45, 110
4, 21114, Note_off_c, 3, 45, 127
4, 21119, Note_on_c, 3, 45, 110
4, 21354, Note_off_c, 3, 45, 127
4, 21359, Note_on_c, 3, 45, 110
4, 21594, Note_off_c, 3, 45, 127
4, 21599, Note_on_c, 3, 57, 110
4, 21834, Note_off_c, 3, 57, 127
4, 21839, Note_on_c, 3, 45, 110
4, 22074, Note_off_c, 3, 45, 127
4, 22079, Note_on_c, 3, 45, 110
4, 22194, Note_off_c, 3, 45, 127
4, 22199, Note_on_c, 3, 45, 110
4, 22314, Note_off_c, 3, 45, 127
4, 22320, Note_on_c, 3, 57, 110
4, 22555, Note_off_c, 3, 57, 127
4, 22560, Note_on_c, 3, 43, 110
4, 22795, Note_off_c, 3, 43, 127
4, 22800, Note_on_c, 3, 55, 110
4, 23035, Note_off_c, 3, 55, 127
4, 23040, Note_on_c, 3, 41, 110
4, 23154, Note_off_c, 3, 41, 127
4, 23159, Note_on_c, 3, 41, 110
4, 23275, Note_off_c, 3, 41, 127
4, 23280, Note_on_c, 3, 41, 110
4, 23515, Note_off_c, 3, 41, 127
4, 23519, Note_on_c, 3, 53, 110
4, 23754, Note_off_c, 3, 53, 127
4, 23759, Note_on_c, 3, 41, 110
4, 24234, Note_off_c, 3, 41, 127
4, 24239, Note_on_c, 3, 41, 110
4, 24474, Note_off_c, 3, 41, 127
4, 24479, Note_on_c, 3, 53, 110
4, 24714, Note_off_c, 3, 53, 127
4, 24719, Note_on_c, 3, 41, 110
4, 24954, Note_off_c, 3, 41, 127
4, 24959, Note_on_c, 3, 41, 110
4, 25194, Note_off_c, 3, 41, 127
4, 25200, Note_on_c, 3, 41, 110
4, 25435, Note_off_c, 3, 41, 127
4, 25440, Note_on_c, 3, 53, 110
4, 25675, Note_off_c, 3, 53, 127
4, 25680, Note_on_c, 3, 41, 110
4, 25915, Note_off_c, 3, 41, 127
4, 25920, Note_on_c, 3, 41, 110
4, 26034, Note_off_c, 3, 41, 127
4, 26039, Note_on_c, 3, 41, 110
4, 26155, Note_off_c, 3, 41, 127
4, 26160, Note_on_c, 3, 53, 110
4, 26395, Note_off_c, 3, 53, 127
4, 26399, Note_on_c, 3, 40, 110
4, 26634, Note_off_c, 3, 40, 127
4, 26639, Note_on_c, 3, 52, 110
4, 26874, Note_off_c, 3, 52, 127
4, 26879, Note_on_c, 3, 38, 110
4, 26995, Note_off_c, 3, 38, 127
4, 27000, Note_on_c, 3, 38, 110
4, 27114, Note_off_c, 3, 38, 127
4, 27119, Note_on_c, 3, 38, 110
4, 27354, Note_off_c, 3, 38, 127
4, 27359, Note_on_c, 3, 50, 110
4, 27594, Note_off_c, 3, 50, 127
4, 27599, Note_on_c, 3, 38, 110
4, 28074, Note_off_c, 3, 38, 127
4, 28080, Note_on_c, 3, 38, 110
4, 28315, Note_off_c, 3, 38, 127
4, 28320, Note_on_c, 3, 50, 110
4, 28555, Note_off_c, 3, 50, 127
4, 28560, Note_on_c, 3, 38, 110
4, 28795, Note_off_c, 3, 38, 127
4, 28800, Note_on_c, 3, 38, 110
4, 29035, Note_off_c, 3, 38, 127
4, 29040, Note_on_c, 3, 38, 110
4, 29275, Note_off_c, 3, 38, 127
4, 29279, Note_on_c, 3, 50, 110
4, 29514, Note_off_c, 3, 50, 127
4, 29519, Note_on_c, 3, 38, 110
4, 29754, Note_off_c, 3, 38, 127
4, 29759, Note_on_c, 3, 38, 110
4, 29875, Note_off_c, 3, 38, 127
4, 29880, Note_on_c, 3, 38, 110
4, 29994, Note_off_c, 3, 38, 127
4, 29999, Note_on_c, 3, 50, 110
4, 30234, Note_off_c, 3, 50, 127
4, 30239, Note_on_c, 3, 38, 110
4, 30474, Note_off_c, 3, 38, 127
4, 30479, Note_on_c, 3, 50, 110
4, 30714, Note_off_c, 3, 50, 127
4, 30719, Note_on_c, 3, 40, 110
4, 30954, Note_off_c, 3, 40, 127
4, 30960, Note_on_c, 3, 40, 110
4, 31195, Note_off_c, 3, 40, 127
4, 31200, Note_on_c, 3, 40, 110
4, 31435, Note_off_c, 3, 40, 127
4, 31440, Note_on_c, 3, 40, 110
4, 31675, Note_off_c, 3, 40, 127
4, 31680, Note_on_c, 3, 40, 110
4, 31915, Note_off_c, 3, 40, 127
4, 31920, Note_on_c, 3, 40, 110
4, 32155, Note_off_c, 3, 40, 127
4, 32160, Note_on_c, 3, 40, 110
4, 32394, Note_off_c, 3, 40, 127
4, 32399, Note_on_c, 3, 40, 110
4, 32634, Note_off_c, 3, 40, 127
4, 32639, Note_on_c, 3, 43, 110
4, 32874, Note_off_c, 3, 43, 127
4, 32879, Note_on_c, 3, 43, 110
4, 33354, Note_off_c, 3, 43, 127
4, 33359, Note_on_c, 3, 43, 110
4, 33834, Note_off_c, 3, 43, 127
4, 33839, Note_on_c, 3, 43, 110
4, 34315, Note_off_c, 3, 43, 127
4, 34320, Note_on_c, 3, 43, 110
4, 34555, Note_off_c, 3, 43, 127
4, 34560, Note_on_c, 3, 45, 110
4, 34674, Note_off_c, 3, 45, 127
4, 34679, Note_on_c, 3, 45, 110
4, 34795, Note_off_c, 3, 45, 127
4, 34800, Note_on_c, 3, 45, 110
4, 35035, Note_off_c, 3, 45, 127
4, 35040, Note_on_c, 3, 57, 110
4, 35275, Note_off_c, 3, 57, 127
4, 35279, Note_on_c, 3, 45, 110
4, 35754, Note_off_c, 3, 45, 127
4, 35759, Note_on_c, 3, 45, 110
4, 35994, Note_off_c, 3, 45, 127
4, 35999, Note_on_c, 3, 57, 110
4, 36234, Note_off_c, 3, 57, 127
4, 36239, Note_on_c, 3, 45, 110
4, 36474, Note_off_c, 3, 45, 127
4, 36479, Note_on_c, 3, 45, 110
4, 36714, Note_off_c, 3, 45, 127
4, 36719, Note_on_c, 3, 45, 110
4, 36955, Note_off_c, 3, 45, 127
4, 36960, Note_on_c, 3, 57, 110
4, 37195, Note_off_c, 3, 57, 127
4, 37200, Note_on_c, 3, 45, 110
4, 37435, Note_off_c, 3, 45, 127
4, 37440, Note_on_c, 3, 45, 110
4, 37554, Note_off_c, 3, 45, 127
4, 37559, Note_on_c, 3, 45, 110
4, 37675, Note_off_c, 3, 45, 127
4, 37680, Note_on_c, 3, 57, 110
4, 37915, Note_off_c, 3, 57, 127
4, 37920, Note_on_c, 3, 45, 110
4, 38155, Note_off_c, 3, 45, 127
4, 38159, Note_on_c, 3, 57, 110
4, 38394, Note_off_c, 3, 57, 127
4, 38399, Note_on_c, 3, 43, 110
4, 38515, Note_off_c, 3, 43, 127
4, 38520, Note_on_c, 3, 43, 110
4, 38634, Note_off_c, 3, 43, 127
4, 38639, Note_on_c, 3, 43, 110
4, 38874, Note_off_c, 3, 43, 127
4, 38879, Note_on_c, 3, 55, 110
4, 39114, Note_off_c, 3, 55, 127
4, 39119, Note_on_c, 3, 43, 110
4, 39594, Note_off_c, 3, 43, 127
4, 39599, Note_on_c, 3, 43, 110
4, 39834, Note_off_c, 3, 43, 127
4, 39840, Note_on_c, 3, 55, 110
4, 40075, Note_off_c, 3, 55, 127
4, 40080, Note_on_c, 3, 43, 110
4, 40315, Note_off_c, 3, 43, 127
4, 40320, Note_on_c, 3, 43, 110
4, 40555, Note_off_c, 3, 43, 127
4, 40560, Note_on_c, 3, 43, 110
4, 40795, Note_off_c, 3, 43, 127
4, 40800, Note_on_c, 3, 55, 110
4, 41035, Note_off_c, 3, 55, 127
4, 41039, Note_on_c, 3, 43, 110
4, 41274, Note_off_c, 3, 43, 127
4, 41279, Note_on_c, 3, 43, 110
4, 41514, Note_off_c, 3, 43, 127
4, 41519, Note_on_c, 3, 43, 110
4, 41635, Note_off_c, 3, 43, 127
4, 41640, Note_on_c, 3, 43, 110
4, 41754, Note_off_c, 3, 43, 127
4, 41759, Note_on_c, 3, 43, 110
4, 41875, Note_off_c, 3, 43, 127
4, 41880, Note_on_c, 3, 43, 110
4, 41994, Note_off_c, 3, 43, 127
4, 41999, Note_on_c, 3, 43, 110
4, 42115, Note_off_c, 3, 43, 127
4, 42120, Note_on_c, 3, 43, 110
4, 42234, Note_off_c, 3, 43, 127
4, 42239, Note_on_c, 3, 40, 110
4, 42355, Note_off_c, 3, 40, 127
4, 42360, Note_on_c, 3, 40, 110
4, 42474, Note_off_c, 3, 40, 127
4, 42479, Note_on_c, 3, 40, 110
4, 42714, Note_off_c, 3, 40, 127
4, 42720, Note_on_c, 3, 52, 110
4, 42955, Note_off_c, 3, 52, 127
4, 42960, Note_on_c, 3, 40, 110
4, 43435, Note_off_c, 3, 40, 127
4, 43440, Note_on_c, 3, 40, 110
4, 43675, Note_off_c, 3, 40, 127
4, 43680, Note_on_c, 3, 52, 110
4, 43915, Note_off_c, 3, 52, 127
4, 43919, Note_on_c, 3, 40, 110
4, 44154, Note_off_c, 3, 40, 127
4, 44159, Note_on_c, 3, 43, 110
4, 44394, Note_off_c, 3, 43, 127
4, 44399, Note_on_c, 3, 43, 110
4, 44634, Note_off_c, 3, 43, 127
4, 44639, Note_on_c, 3, 55, 110
4, 44874, Note_off_c, 3, 55, 127
4, 44879, Note_on_c, 3, 43, 110
4, 45114, Note_off_c, 3, 43, 127
4, 45119, Note_on_c, 3, 43, 110
4, 45235, Note_off_c, 3, 43, 127
4, 45240, Note_on_c, 3, 43, 110
4, 45354, Note_off_c, 3, 43, 127
4, 45359, Note_on_c, 3, 55, 110
4, 45594, Note_off_c, 3, 55, 127
4, 45600, Note_on_c, 3, 43, 110
4, 45835, Note_off_c, 3, 43, 127
4, 45840, Note_on_c, 3, 55, 110
4, 46075, Note_off_c, 3, 55, 127
4, 46080, Note_on_c, 3, 45, 110
4, 46194, Note_off_c, 3, 45, 127
4, 46199, Note_on_c, 3, 45, 110
4, 46315, Note_off_c, 3, 45, 127
4, 46320, Note_on_c, 3, 45, 110
4, 46555, Note_off_c, 3, 45, 127
4, 46560, Note_on_c, 3, 57, 110
4, 46795, Note_off_c, 3, 57, 127
4, 46800, Note_on_c, 3, 45, 110
4, 47274, Note_off_c, 3, 45, 127
4, 47279, Note_on_c, 3, 45, 110
4, 47514, Note_off_c, 3, 45, 127
4, 47519, Note_on_c, 3, 57, 110
4, 47754, Note_off_c, 3, 57, 127
4, 47759, Note_on_c, 3, 45, 110
4, 47994, Note_off_c, 3, 45, 127
4, 47999, Note_on_c, 3, 45, 110
4, 48234, Note_off_c, 3, 45, 127
4, 48239, Note_on_c, 3, 45, 110
4, 48474, Note_off_c, 3, 45, 127
4, 48480, Note_on_c, 3, 57, 110
4, 48715, Note_off_c, 3, 57, 127
4, 48720, Note_on_c, 3, 45, 110
4, 48955, Note_off_c, 3, 45, 127
4, 48960, Note_on_c, 3, 45, 110
4, 49195, Note_off_c, 3, 45, 127
4, 49200, Note_on_c, 3, 45, 110
4, 49314, Note_off_c, 3, 45, 127
4, 49319, Note_on_c, 3, 45, 110
4, 49435, Note_off_c, 3, 45, 127
4, 49440, Note_on_c, 3, 45, 110
4, 49554, Note_off_c, 3, 45, 127
4, 49559, Note_on_c, 3, 45, 110
4, 49675, Note_off_c, 3, 45, 127
4, 49680, Note_on_c, 3, 45, 110
4, 49794, Note_off_c, 3, 45, 127
4, 49799, Note_on_c, 3, 45, 110
4, 49915, Note_off_c, 3, 45, 127
4, 49919, Note_on_c, 3, 45, 110
4, 50034, Note_off_c, 3, 45, 127
4, 50040, Note_on_c, 3, 45, 110
4, 50154, Note_off_c, 3, 45, 127
4, 50159, Note_on_c, 3, 45, 110
4, 50394, Note_off_c, 3, 45, 127
4, 50399, Note_on_c, 3, 57, 110
4, 50634, Note_off_c, 3, 57, 127
4, 50639, Note_on_c, 3, 45, 110
4, 51114, Note_off_c, 3, 45, 127
4, 51119, Note_on_c, 3, 45, 110
4, 51354, Note_off_c, 3, 45, 127
4, 51359, Note_on_c, 3, 57, 110
4, 51595, Note_off_c, 3, 57, 127
4, 51600, Note_on_c, 3, 45, 110
4, 51835, Note_off_c, 3, 45, 127
4, 51840, Note_on_c, 3, 45, 110
4, 52075, Note_off_c, 3, 45, 127
4, 52080, Note_on_c, 3, 45, 110
4, 52315, Note_off_c, 3, 45, 127
4, 52320, Note_on_c, 3, 57, 110
4, 52555, Note_off_c, 3, 57, 127
4, 52560, Note_on_c, 3, 45, 110
4, 52795, Note_off_c, 3, 45, 127
4, 52799, Note_on_c, 3, 45, 110
4, 52914, Note_off_c, 3, 45, 127
4, 52920, Note_on_c, 3, 45, 110
4, 53034, Note_off_c, 3, 45, 127
4, 53039, Note_on_c, 3, 57, 110
4, 53274, Note_off_c, 3, 57, 127
4, 53279, Note_on_c, 3, 45, 110
4, 53514, Note_off_c, 3, 45, 127
4, 53519, Note_on_c, 3, 57, 110
4, 53754, Note_off_c, 3, 57, 127
4, 53759, Note_on_c, 3, 43, 110
4, 53875, Note_off_c, 3, 43, 127
4, 53880, Note_on_c, 3, 43, 110
4, 53994, Note_off_c, 3, 43, 127
4, 53999, Note_on_c, 3, 43, 110
4, 54234, Note_off_c, 3, 43, 127
4, 54239, Note_on_c, 3, 55, 110
4, 54474, Note_off_c, 3, 55, 127
4, 54480, Note_on_c, 3, 43, 110
4, 54955, Note_off_c, 3, 43, 127
4, 54960, Note_on_c, 3, 43, 110
4, 55195, Note_off_c, 3, 43, 127
4, 55200, Note_on_c, 3, 55, 110
4, 55435, Note_off_c, 3, 55, 127
4, 55440, Note_on_c, 3, 43, 110
4, 55675, Note_off_c, 3, 43, 127
4, 55679, Note_on_c, 3, 43, 110
4, 55914, Note_off_c, 3, 43, 127
4, 55919, Note_on_c, 3, 43, 110
4, 56154, Note_off_c, 3, 43, 127
4, 56159, Note_on_c, 3, 55, 110
4, 56394, Note_off_c, 3, 55, 127
4, 56399, Note_on_c, 3, 43, 110
4, 56634, Note_off_c, 3, 43, 127
4, 56639, Note_on_c, 3, 43, 110
4, 56874, Note_off_c, 3, 43, 127
4, 56879, Note_on_c, 3, 43, 110
4, 56995, Note_off_c, 3, 43, 127
4, 57000, Note_on_c, 3, 43, 110
4, 57114, Note_off_c, 3, 43, 127
4, 57119, Note_on_c, 3, 43, 110
4, 57234, Note_off_c, 3, 43, 127
4, 57239, Note_on_c, 3, 43, 110
4, 57354, Note_off_c, 3, 43, 127
4, 57360, Note_on_c, 3, 43, 110
4, 57474, Note_off_c, 3, 43, 127
4, 57479, Note_on_c, 3, 43, 110
4, 57595, Note_off_c, 3, 43, 127
4, 57600, Note_on_c, 3, 40, 110
4, 57714, Note_off_c, 3, 40, 127
4, 57719, Note_on_c, 3, 40, 110
4, 57835, Note_off_c, 3, 40, 127
4, 57840, Note_on_c, 3, 40, 110
4, 58075, Note_off_c, 3, 40, 127
4, 58080, Note_on_c, 3, 52, 110
4, 58315, Note_off_c, 3, 52, 127
4, 58320, Note_on_c, 3, 40, 110
4, 58794, Note_off_c, 3, 40, 127
4, 58799, Note_on_c, 3, 40, 110
4, 59034, Note_off_c, 3, 40, 127
4, 59039, Note_on_c, 3, 52, 110
4, 59274, Note_off_c, 3, 52, 127
4, 59279, Note_on_c, 3, 40, 110
4, 59514, Note_off_c, 3, 40, 127
4, 59519, Note_on_c, 3, 43, 110
4, 59754, Note_off_c, 3, 43, 127
4, 59759, Note_on_c, 3, 43, 110
4, 59994, Note_off_c, 3, 43, 127
4, 59999, Note_on_c, 3, 55, 110
4, 60234, Note_off_c, 3, 55, 127
4, 60240, Note_on_c, 3, 43, 110
4, 60475, Note_off_c, 3, 43, 127
4, 60480, Note_on_c, 3, 43, 110
4, 60594, Note_off_c, 3, 43, 127
4, 60599, Note_on_c, 3, 43, 110
4, 60715, Note_off_c, 3, 43, 127
4, 60720, Note_on_c, 3, 55, 110
4, 60955, Note_off_c, 3, 55, 127
4, 60960, Note_on_c, 3, 43, 110
4, 61195, Note_off_c, 3, 43, 127
4, 61200, Note_on_c, 3, 55, 110
4, 61435, Note_off_c, 3, 55, 127
4, 61439, Note_on_c, 3, 45, 110
4, 61554, Note_off_c, 3, 45, 127
4, 61559, Note_on_c, 3, 45, 110
4, 61674, Note_off_c, 3, 45, 127
4, 61679, Note_on_c, 3, 45, 110
4, 61914, Note_off_c, 3, 45, 127
4, 61919, Note_on_c, 3, 57, 110
4, 62154, Note_off_c, 3, 57, 127
4, 62159, Note_on_c, 3, 45, 110
4, 62634, Note_off_c, 3, 45, 127
4, 62639, Note_on_c, 3, 45, 110
4, 62874, Note_off_c, 3, 45, 127
4, 62879, Note_on_c, 3, 57, 110
4, 63114, Note_off_c, 3, 57, 127
4, 63120, Note_on_c, 3, 45, 110
4, 63355, Note_off_c, 3, 45, 127
4, 63360, Note_on_c, 3, 45, 110
4, 63595, Note_off_c, 3, 45, 127
4, 63600, Note_on_c, 3, 45, 110
4, 63835, Note_off_c, 3, 45, 127
4, 63840, Note_on_c, 3, 57, 110
4, 64075, Note_off_c, 3, 57, 127
4, 64080, Note_on_c, 3, 45, 110
4, 64315, Note_off_c, 3, 45, 127
4, 64320, Note_on_c, 3, 43, 110
4, 64554, Note_off_c, 3, 43, 127
4, 64559, Note_on_c, 3, 43, 110
4, 64674, Note_off_c, 3, 43, 127
4, 64680, Note_on_c, 3, 43, 110
4, 64794, Note_off_c, 3, 43, 127
4, 64799, Note_on_c, 3, 43, 110
4, 64915, Note_off_c, 3, 43, 127
4, 64920, Note_on_c, 3, 43, 110
4, 65034, Note_off_c, 3, 43, 127
4, 65039, Note_on_c, 3, 43, 110
4, 65155, Note_off_c, 3, 43, 127
4, 65160, Note_on_c, 3, 43, 110
4, 65274, Note_off_c, 3, 43, 127
4, 65279, Note_on_c, 3, 41, 110
4, 67079, Note_off_c, 3, 41, 127
4, 67200, Note_on_c, 3, 43, 110
4, 68999, Note_off_c, 3, 43, 127
4, 69120, Note_on_c, 3, 45, 110
4, 69520, Note_off_c, 3, 45, 127
4, 69600, Note_on_c, 3, 57, 110
4, 69835, Note_off_c, 3, 57, 127
4, 69840, Note_on_c, 3, 45, 110
4, 70075, Note_off_c, 3, 45, 127
4, 70080, Note_on_c, 3, 43, 110
4, 70479, Note_off_c, 3, 43, 127
4, 70559, Note_on_c, 3, 55, 110
4, 70794, Note_off_c, 3, 55, 127
4, 70799, Note_on_c, 3, 43, 110
4, 71034, Note_off_c, 3, 43, 127
4, 71039, Note_on_c, 3, 40, 110
4, 71439, Note_off_c, 3, 40, 127
4, 71519, Note_on_c, 3, 52, 110
4, 71754, Note_off_c, 3, 52, 127
4, 71759, Note_on_c, 3, 40, 110
4, 71994, Note_off_c, 3, 40, 127
4, 72000, Note_on_c, 3, 43, 110
4, 72400, Note_off_c, 3, 43, 127
4, 72480, Note_on_c, 3, 55, 110
4, 72715, Note_off_c, 3, 55, 127
4, 72720, Note_on_c, 3, 43, 110
4, 72955, Note_off_c, 3, 43, 127
4, 72960, Note_on_c, 3, 41, 110
4, 74759, Note_off_c, 3, 41, 127
4, 74880, Note_on_c, 3, 43, 110
4, 76680, Note_off_c, 3, 43, 127
4, 76799, Note_on_c, 3, 45, 110
4, 78599, Note_off_c, 3, 45, 127
4, 78720, Note_on_c, 3, 57, 110
4, 80519, Note_off_c, 3, 57, 127
4, 80639, Note_on_c, 3, 41, 110
4, 80875, Note_off_c, 3, 41, 127
4, 80880, Note_on_c, 3, 41, 110
4, 81115, Note_off_c, 3, 41, 127
4, 81120, Note_on_c, 3, 53, 110
4, 81355, Note_off_c, 3, 53, 127
4, 81360, Note_on_c, 3, 41, 110
4, 81595, Note_off_c, 3, 41, 127
4, 81600, Note_on_c, 3, 41, 110
4, 81835, Note_off_c, 3, 41, 127
4, 81840, Note_on_c, 3, 41, 110
4, 82075, Note_off_c, 3, 41, 127
4, 82079, Note_on_c, 3, 53, 110
4, 82314, Note_off_c, 3, 53, 127
4, 82319, Note_on_c, 3, 41, 110
4, 82554, Note_off_c, 3, 41, 127
4, 82559, Note_on_c, 3, 41, 110
4, 82794, Note_off_c, 3, 41, 127
4, 82799, Note_on_c, 3, 41, 110
4, 83034, Note_off_c, 3, 41, 127
4, 83039, Note_on_c, 3, 53, 110
4, 83274, Note_off_c, 3, 53, 127
4, 83279, Note_on_c, 3, 41, 110
4, 83514, Note_off_c, 3, 41, 127
4, 83519, Note_on_c, 3, 41, 110
4, 83754, Note_off_c, 3, 41, 127
4, 83760, Note_on_c, 3, 41, 110
4, 83995, Note_off_c, 3, 41, 127
4, 84000, Note_on_c, 3, 53, 110
4, 84235, Note_off_c, 3, 53, 127
4, 84240, Note_on_c, 3, 41, 110
4, 84475, Note_off_c, 3, 41, 127
4, 84480, Note_on_c, 3, 45, 110
4, 84879, Note_off_c, 3, 45, 127
4, 84959, Note_on_c, 3, 57, 110
4, 85194, Note_off_c, 3, 57, 127
4, 85199, Note_on_c, 3, 45, 110
4, 85434, Note_off_c, 3, 45, 127
4, 85439, Note_on_c, 3, 43, 110
4, 85839, Note_off_c, 3, 43, 127
4, 85919, Note_on_c, 3, 55, 110
4, 86154, Note_off_c, 3, 55, 127
4, 86159, Note_on_c, 3, 43, 110
4, 86394, Note_off_c, 3, 43, 127
4, 86399, Note_on_c, 3, 40, 110
4, 86800, Note_off_c, 3, 40, 127
4, 86880, Note_on_c, 3, 52, 110
4, 87115, Note_off_c, 3, 52, 127
4, 87120, Note_on_c, 3, 40, 110
4, 87355, Note_off_c, 3, 40, 127
4, 87360, Note_on_c, 3, 43, 110
4, 87760, Note_off_c, 3, 43, 127
4, 87839, Note_on_c, 3, 55, 110
4, 88074, Note_off_c, 3, 55, 127
4, 88079, Note_on_c, 3, 43, 110
4, 88314, Note_off_c, 3, 43, 127
4, 88319, Note_on_c, 3, 41, 110
4, 88554, Note_off_c, 3, 41, 127
4, 88559, Note_on_c, 3, 41, 110
4, 88794, Note_off_c, 3, 41, 127
4, 88799, Note_on_c, 3, 53, 110
4, 89034, Note_off_c, 3, 53, 127
4, 89039, Note_on_c, 3, 41, 110
4, 89274, Note_off_c, 3, 41, 127
4, 89279, Note_on_c, 3, 41, 110
4, 89514, Note_off_c, 3, 41, 127
4, 89520, Note_on_c, 3, 41, 110
4, 89755, Note_off_c, 3, 41, 127
4, 89760, Note_on_c, 3, 53, 110
4, 89995, Note_off_c, 3, 53, 127
4, 90000, Note_on_c, 3, 41, 110
4, 90235, Note_off_c, 3, 41, 127
4, 90240, Note_on_c, 3, 43, 110
4, 90475, Note_off_c, 3, 43, 127
4, 90480, Note_on_c, 3, 43, 110
4, 90715, Note_off_c, 3, 43, 127
4, 90719, Note_on_c, 3, 55, 110
4, 90954, Note_off_c, 3, 55, 127
4, 90959, Note_on_c, 3, 43, 110
4, 91194, Note_off_c, 3, 43, 127
4, 91199, Note_on_c, 3, 43, 110
4, 91434, Note_off_c, 3, 43, 127
4, 91439, Note_on_c, 3, 43, 110
4, 91674, Note_off_c, 3, 43, 127
4, 91679, Note_on_c, 3, 55, 110
4, 91914, Note_off_c, 3, 55, 127
4, 91919, Note_on_c, 3, 43, 110
4, 92154, Note_off_c, 3, 43, 127
4, 92159, Note_on_c, 3, 36, 110
4, 92394, Note_off_c, 3, 36, 127
4, 92400, Note_on_c, 3, 36, 110
4, 92635, Note_off_c, 3, 36, 127
4, 92640, Note_on_c, 3, 36, 110
4, 92875, Note_off_c, 3, 36, 127
4, 92880, Note_on_c, 3, 36, 110
4, 93115, Note_off_c, 3, 36, 127
4, 93120, Note_on_c, 3, 36, 110
4, 93355, Note_off_c, 3, 36, 127
4, 93360, Note_on_c, 3, 36, 110
4, 93595, Note_off_c, 3, 36, 127
4, 93600, Note_on_c, 3, 48, 110
4, 93834, Note_off_c, 3, 48, 127
4, 93839, Note_on_c, 3, 36, 110
4, 94074, Note_off_c, 3, 36, 127
4, 94079, Note_on_c, 3, 36, 110
4, 94314, Note_off_c, 3, 36, 127
4, 94319, Note_on_c, 3, 36, 110
4, 94554, Note_off_c, 3, 36, 127
4, 94559, Note_on_c, 3, 36, 110
4, 94794, Note_off_c, 3, 36, 127
4, 94799, Note_on_c, 3, 36, 110
4, 95034, Note_off_c, 3, 36, 127
4, 95039, Note_on_c, 3, 36, 110
4, 95274, Note_off_c, 3, 36, 127
4, 95279, Note_on_c, 3, 36, 110
4, 95515, Note_off_c, 3, 36, 127
4, 95520, Note_on_c, 3, 48, 110
4, 95755, Note_off_c, 3, 48, 127
4, 95760, Note_on_c, 3, 36, 110
4, 95995, Note_off_c, 3, 36, 127
4, 96000, Note_on_c, 3, 57, 110
4, 98759, Note_off_c, 3, 57, 127
4, 98880, Note_on_c, 3, 57, 110
4, 99280, Note_off_c, 3, 57, 127
4, 99360, Note_on_c, 3, 55, 110
4, 99759, Note_off_c, 3, 55, 127
4, 99839, Note_on_c, 3, 53, 110
4, 102600, Note_off_c, 3, 53, 127
4, 102719, Note_on_c, 3, 53, 110
4, 103119, Note_off_c, 3, 53, 127
4, 103199, Note_on_c, 3, 52, 110
4, 103599, Note_off_c, 3, 52, 127
4, 103679, Note_on_c, 3, 50, 110
4, 105999, Note_off_c, 3, 50, 127
4, 106559, Note_on_c, 3, 50, 110
4, 106959, Note_off_c, 3, 50, 127
4, 107040, Note_on_c, 3, 48, 110
4, 107440, Note_off_c, 3, 48, 127
4, 107520, Note_on_c, 3, 52, 110
4, 108160, Note_off_c, 3, 52, 127
4, 108240, Note_on_c, 3, 52, 110
4, 108879, Note_off_c, 3, 52, 127
4, 108959, Note_on_c, 3, 52, 110
4, 109359, Note_off_c, 3, 52, 127
4, 109439, Note_on_c, 3, 52, 110
4, 110080, Note_off_c, 3, 52, 127
4, 110160, Note_on_c, 3, 52, 110
4, 110800, Note_off_c, 3, 52, 127
4, 110880, Note_on_c, 3, 52, 110
4, 111279, Note_off_c, 3, 52, 127
4, 111359, Note_on_c, 3, 45, 110
4, 111474, Note_off_c, 3, 45, 127
4, 111480, Note_on_c, 3, 45, 110
4, 111594, Note_off_c, 3, 45, 127
4, 111599, Note_on_c, 3, 45, 110
4, 111834, Note_off_c, 3, 45, 127
4, 111839, Note_on_c, 3, 57, 110
4, 112074, Note_off_c, 3, 57, 127
4, 112079, Note_on_c, 3, 45, 110
4, 112554, Note_off_c, 3, 45, 127
4, 112559, Note_on_c, 3, 45, 110
4, 112794, Note_off_c, 3, 45, 127
4, 112799, Note_on_c, 3, 57, 110
4, 113035, Note_off_c, 3, 57, 127
4, 113040, Note_on_c, 3, 45, 110
4, 113275, Note_off_c, 3, 45, 127
4, 113280, Note_on_c, 3, 45, 110
4, 113515, Note_off_c, 3, 45, 127
4, 113520, Note_on_c, 3, 45, 110
4, 113755, Note_off_c, 3, 45, 127
4, 113760, Note_on_c, 3, 57, 110
4, 113995, Note_off_c, 3, 57, 127
4, 114000, Note_on_c, 3, 45, 110
4, 114235, Note_off_c, 3, 45, 127
4, 114239, Note_on_c, 3, 45, 110
4, 114354, Note_off_c, 3, 45, 127
4, 114360, Note_on_c, 3, 45, 110
4, 114474, Note_off_c, 3, 45, 127
4, 114479, Note_on_c, 3, 57, 110
4, 114714, Note_off_c, 3, 57, 127
4, 114719, Note_on_c, 3, 43, 110
4, 114954, Note_off_c, 3, 43, 127
4, 114959, Note_on_c, 3, 55, 110
4, 115194, Note_off_c, 3, 55, 127
4, 115199, Note_on_c, 3, 41, 110
4, 115315, Note_off_c, 3, 41, 127
4, 115320, Note_on_c, 3, 41, 110
4, 115434, Note_off_c, 3, 41, 127
4, 115439, Note_on_c, 3, 41, 110
4, 115674, Note_off_c, 3, 41, 127
4, 115679, Note_on_c, 3, 53, 110
4, 115914, Note_off_c, 3, 53, 127
4, 115920, Note_on_c, 3, 41, 110
4, 116395, Note_off_c, 3, 41, 127
4, 116400, Note_on_c, 3, 41, 110
4, 116635, Note_off_c, 3, 41, 127
4, 116640, Note_on_c, 3, 53, 110
4, 116875, Note_off_c, 3, 53, 127
4, 116880, Note_on_c, 3, 41, 110
4, 117115, Note_off_c, 3, 41, 127
4, 117119, Note_on_c, 3, 41, 110
4, 117354, Note_off_c, 3, 41, 127
4, 117359, Note_on_c, 3, 41, 110
4, 117594, Note_off_c, 3, 41, 127
4, 117599, Note_on_c, 3, 53, 110
4, 117834, Note_off_c, 3, 53, 127
4, 117839, Note_on_c, 3, 41, 110
4, 118074, Note_off_c, 3, 41, 127
4, 118079, Note_on_c, 3, 41, 110
4, 118195, Note_off_c, 3, 41, 127
4, 118200, Note_on_c, 3, 41, 110
4, 118314, Note_off_c, 3, 41, 127
4, 118319, Note_on_c, 3, 53, 110
4, 118554, Note_off_c, 3, 53, 127
4, 118559, Note_on_c, 3, 40, 110
4, 118794, Note_off_c, 3, 40, 127
4, 118800, Note_on_c, 3, 52, 110
4, 119035, Note_off_c, 3, 52, 127
4, 119040, Note_on_c, 3, 38, 110
4, 119154, Note_off_c, 3, 38, 127
4, 119159, Note_on_c, 3, 38, 110
4, 119275, Note_off_c, 3, 38, 127
4, 119280, Note_on_c, 3, 38, 110
4, 119515, Note_off_c, 3, 38, 127
4, 119520, Note_on_c, 3, 50, 110
4, 119755, Note_off_c, 3, 50, 127
4, 119760, Note_on_c, 3, 38, 110
4, 120234, Note_off_c, 3, 38, 127
4, 120239, Note_on_c, 3, 38, 110
4, 120474, Note_off_c, 3, 38, 127
4, 120479, Note_on_c, 3, 50, 110
4, 120714, Note_off_c, 3, 50, 127
4, 120719, Note_on_c, 3, 38, 110
4, 120954, Note_off_c, 3, 38, 127
4, 120959, Note_on_c, 3, 38, 110
4, 121194, Note_off_c, 3, 38, 127
4, 121199, Note_on_c, 3, 38, 110
4, 121434, Note_off_c, 3, 38, 127
4, 121439, Note_on_c, 3, 50, 110
4, 121674, Note_off_c, 3, 50, 127
4, 121680, Note_on_c, 3, 38, 110
4, 121915, Note_off_c, 3, 38, 127
4, 121920, Note_on_c, 3, 38, 110
4, 122034, Note_off_c, 3, 38, 127
4, 122039, Note_on_c, 3, 38, 110
4, 122155, Note_off_c, 3, 38, 127
4, 122160, Note_on_c, 3, 50, 110
4, 122395, Note_off_c, 3, 50, 127
4, 122400, Note_on_c, 3, 38, 110
4, 122635, Note_off_c, 3, 38, 127
4, 122640, Note_on_c, 3, 50, 110
4, 122875, Note_off_c, 3, 50, 127
4, 122879, Note_on_c, 3, 40, 110
4, 123114, Note_off_c, 3, 40, 127
4, 123119, Note_on_c, 3, 40, 110
4, 123354, Note_off_c, 3, 40, 127
4, 123359, Note_on_c, 3, 40, 110
4, 123594, Note_off_c, 3, 40, 127
4, 123599, Note_on_c, 3, 40, 110
4, 123834, Note_off_c, 3, 40, 127
4, 123839, Note_on_c, 3, 40, 110
4, 124074, Note_off_c, 3, 40, 127
4, 124079, Note_on_c, 3, 40, 110
4, 124314, Note_off_c, 3, 40, 127
4, 124319, Note_on_c, 3, 40, 110
4, 124554, Note_off_c, 3, 40, 127
4, 124560, Note_on_c, 3, 40, 110
4, 124795, Note_off_c, 3, 40, 127
4, 124800, Note_on_c, 3, 43, 110
4, 125035, Note_off_c, 3, 43, 127
4, 125040, Note_on_c, 3, 43, 110
4, 125515, Note_off_c, 3, 43, 127
4, 125520, Note_on_c, 3, 43, 110
4, 125994, Note_off_c, 3, 43, 127
4, 125999, Note_on_c, 3, 43, 110
4, 126474, Note_off_c, 3, 43, 127
4, 126479, Note_on_c, 3, 43, 110
4, 126714, Note_off_c, 3, 43, 127
4, 126719, Note_on_c, 3, 45, 110
4, 126835, Note_off_c, 3, 45, 127
4, 126840, Note_on_c, 3, 45, 110
4, 126954, Note_off_c, 3, 45, 127
4, 126959, Note_on_c, 3, 45, 110
4, 127194, Note_off_c, 3, 45, 127
4, 127199, Note_on_c, 3, 57, 110
4, 127434, Note_off_c, 3, 57, 127
4, 127439, Note_on_c, 3, 45, 110
4, 127915, Note_off_c, 3, 45, 127
4, 127920, Note_on_c, 3, 45, 110
4, 128155, Note_off_c, 3, 45, 127
4, 128160, Note_on_c, 3, 57, 110
4, 128395, Note_off_c, 3, 57, 127
4, 128400, Note_on_c, 3, 45, 110
4, 128635, Note_off_c, 3, 45, 127
4, 128640, Note_on_c, 3, 45, 110
4, 128875, Note_off_c, 3, 45, 127
4, 128879, Note_on_c, 3, 45, 110
4, 129114, Note_off_c, 3, 45, 127
4, 129119, Note_on_c, 3, 57, 110
4, 129354, Note_off_c, 3, 57, 127
4, 129359, Note_on_c, 3, 45, 110
4, 129594, Note_off_c, 3, 45, 127
4, 129599, Note_on_c, 3, 45, 110
4, 129715, Note_off_c, 3, 45, 127
4, 129720, Note_on_c, 3, 45, 110
4, 129834, Note_off_c, 3, 45, 127
4, 129839, Note_on_c, 3, 57, 110
4, 130074, Note_off_c, 3, 57, 127
4, 130079, Note_on_c, 3, 45, 110
4, 130314, Note_off_c, 3, 45, 127
4, 130319, Note_on_c, 3, 57, 110
4, 130554, Note_off_c, 3, 57, 127
4, 130560, Note_on_c, 3, 43, 110
4, 130674, Note_off_c, 3, 43, 127
4, 130679, Note_on_c, 3, 43, 110
4, 130795, Note_off_c, 3, 43, 127
4, 130800, Note_on_c, 3, 43, 110
4, 131035, Note_off_c, 3, 43, 127
4, 131040, Note_on_c, 3, 55, 110
4, 131275, Note_off_c, 3, 55, 127
4, 131280, Note_on_c, 3, 43, 110
4, 131755, Note_off_c, 3, 43, 127
4, 131759, Note_on_c, 3, 43, 110
4, 131994, Note_off_c, 3, 43, 127
4, 131999, Note_on_c, 3, 55, 110
4, 132234, Note_off_c, 3, 55, 127
4, 132239, Note_on_c, 3, 43, 110
4, 132474, Note_off_c, 3, 43, 127
4, 132479, Note_on_c, 3, 43, 110
4, 132714, Note_off_c, 3, 43, 127
4, 132719, Note_on_c, 3, 43, 110
4, 132954, Note_off_c, 3, 43, 127
4, 132959, Note_on_c, 3, 55, 110
4, 133194, Note_off_c, 3, 55, 127
4, 133199, Note_on_c, 3, 43, 110
4, 133434, Note_off_c, 3, 43, 127
4, 133440, Note_on_c, 3, 43, 110
4, 133675, Note_off_c, 3, 43, 127
4, 133680, Note_on_c, 3, 43, 110
4, 133794, Note_off_c, 3, 43, 127
4, 133799, Note_on_c, 3, 43, 110
4, 133915, Note_off_c, 3, 43, 127
4, 133920, Note_on_c, 3, 43, 110
4, 134034, Note_off_c, 3, 43, 127
4, 134039, Note_on_c, 3, 43, 110
4, 134155, Note_off_c, 3, 43, 127
4, 134160, Note_on_c, 3, 43, 110
4, 134274, Note_off_c, 3, 43, 127
4, 134279, Note_on_c, 3, 43, 110
4, 134395, Note_off_c, 3, 43, 127
4, 134400, Note_on_c, 3, 40, 110
4, 134514, Note_off_c, 3, 40, 127
4, 134519, Note_on_c, 3, 40, 110
4, 134635, Note_off_c, 3, 40, 127
4, 134639, Note_on_c, 3, 40, 110
4, 134874, Note_off_c, 3, 40, 127
4, 134879, Note_on_c, 3, 52, 110
4, 135114, Note_off_c, 3, 52, 127
4, 135119, Note_on_c, 3, 40, 110
4, 135594, Note_off_c, 3, 40, 127
4, 135599, Note_on_c, 3, 40, 110
4, 135834, Note_off_c, 3, 40, 127
4, 135839, Note_on_c, 3, 52, 110
4, 136074, Note_off_c, 3, 52, 127
4, 136079, Note_on_c, 3, 40, 110
4, 136314, Note_off_c, 3, 40, 127
4, 136320, Note_on_c, 3, 43, 110
4, 136555, Note_off_c, 3, 43, 127
4, 136560, Note_on_c, 3, 43, 110
4, 136795, Note_off_c, 3, 43, 127
4, 136800, Note_on_c, 3, 55, 110
4, 137035, Note_off_c, 3, 55, 127
4, 137040, Note_on_c, 3, 43, 110
4, 137275, Note_off_c, 3, 43, 127
4, 137280, Note_on_c, 3, 43, 110
4, 137394, Note_off_c, 3, 43, 127
4, 137399, Note_on_c, 3, 43, 110
4, 137515, Note_off_c, 3, 43, 127
4, 137519, Note_on_c, 3, 55, 110
4, 137754, Note_off_c, 3, 55, 127
4, 137759, Note_on_c, 3, 43, 110
4, 137994, Note_off_c, 3, 43, 127
4, 137999, Note_on_c, 3, 55, 110
4, 138234, Note_off_c, 3, 55, 127
4, 138239, Note_on_c, 3, 45, 110
4, 138355, Note_off_c, 3, 45, 127
4, 138360, Note_on_c, 3, 45, 110
4, 138474, Note_off_c, 3, 45, 127
4, 138479, Note_on_c, 3, 45, 110
4, 138714, Note_off_c, 3, 45, 127
4, 138719, Note_on_c, 3, 57, 110
4, 138954, Note_off_c, 3, 57, 127
4, 138959, Note_on_c, 3, 45, 110
4, 139435, Note_off_c, 3, 45, 127
4, 139440, Note_on_c, 3, 45, 110
4, 139675, Note_off_c, 3, 45, 127
4, 139680, Note_on_c, 3, 57, 110
4, 139915, Note_off_c, 3, 57, 127
4, 139920, Note_on_c, 3, 45, 110
4, 140155, Note_off_c, 3, 45, 127
4, 140160, Note_on_c, 3, 45, 110
4, 140395, Note_off_c, 3, 45, 127
4, 140400, Note_on_c, 3, 45, 110
4, 140634, Note_off_c, 3, 45, 127
4, 140639, Note_on_c, 3, 57, 110
4, 140874, Note_off_c, 3, 57, 127
4, 140879, Note_on_c, 3, 45, 110
4, 141114, Note_off_c, 3, 45, 127
4, 141119, Note_on_c, 3, 45, 110
4, 141354, Note_off_c, 3, 45, 127
4, 141359, Note_on_c, 3, 45, 110
4, 141475, Note_off_c, 3, 45, 127
4, 141480, Note_on_c, 3, 45, 110
4, 141594, Note_off_c, 3, 45, 127
4, 141599, Note_on_c, 3, 45, 110
4, 141715, Note_off_c, 3, 45, 127
4, 141720, Note_on_c, 3, 45, 110
4, 141834, Note_off_c, 3, 45, 127
4, 141839, Note_on_c, 3, 45, 110
4, 141955, Note_off_c, 3, 45, 127
4, 141959, Note_on_c, 3, 45, 110
4, 142074, Note_off_c, 3, 45, 127
4, 142079, Note_on_c, 3, 45, 110
4, 142194, Note_off_c, 3, 45, 127
4, 142199, Note_on_c, 3, 45, 110
4, 142315, Note_off_c, 3, 45, 127
4, 142320, Note_on_c, 3, 45, 110
4, 142555, Note_off_c, 3, 45, 127
4, 142560, Note_on_c, 3, 57, 110
4, 142795, Note_off_c, 3, 57, 127
4, 142800, Note_on_c, 3, 45, 110
4, 143275, Note_off_c, 3, 45, 127
4, 143280, Note_on_c, 3, 45, 110
4, 143515, Note_off_c, 3, 45, 127
4, 143519, Note_on_c, 3, 57, 110
4, 143754, Note_off_c, 3, 57, 127
4, 143759, Note_on_c, 3, 45, 110
4, 143994, Note_off_c, 3, 45, 127
4, 143999, Note_on_c, 3, 45, 110
4, 144234, Note_off_c, 3, 45, 127
4, 144239, Note_on_c, 3, 45, 110
4, 144474, Note_off_c, 3, 45, 127
4, 144479, Note_on_c, 3, 57, 110
4, 144714, Note_off_c, 3, 57, 127
4, 144719, Note_on_c, 3, 45, 110
4, 144954, Note_off_c, 3, 45, 127
4, 144959, Note_on_c, 3, 45, 110
4, 145074, Note_off_c, 3, 45, 127
4, 145079, Note_on_c, 3, 45, 110
4, 145194, Note_off_c, 3, 45, 127
4, 145200, Note_on_c, 3, 57, 110
4, 145435, Note_off_c, 3, 57, 127
4, 145440, Note_on_c, 3, 45, 110
4, 145675, Note_off_c, 3, 45, 127
4, 145680, Note_on_c, 3, 57, 110
4, 145915, Note_off_c, 3, 57, 127
4, 145920, Note_on_c, 3, 43, 110
4, 146034, Note_off_c, 3, 43, 127
4, 146039, Note_on_c, 3, 43, 110
4, 146155, Note_off_c, 3, 43, 127
4, 146160, Note_on_c, 3, 43, 110
4, 146395, Note_off_c, 3, 43, 127
4, 146399, Note_on_c, 3, 55, 110
4, 146634, Note_off_c, 3, 55, 127
4, 146639, Note_on_c, 3, 43, 110
4, 147114, Note_off_c, 3, 43, 127
4, 147119, Note_on_c, 3, 43, 110
4, 147354, Note_off_c, 3, 43, 127
4, 147359, Note_on_c, 3, 55, 110
4, 147594, Note_off_c, 3, 55, 127
4, 147599, Note_on_c, 3, 43, 110
4, 147834, Note_off_c, 3, 43, 127
4, 147839, Note_on_c, 3, 43, 110
4, 148074, Note_off_c, 3, 43, 127
4, 148080, Note_on_c, 3, 43, 110
4, 148315, Note_off_c, 3, 43, 127
4, 148320, Note_on_c, 3, 55, 110
4, 148555, Note_off_c, 3, 55, 127
4, 148560, Note_on_c, 3, 43, 110
4, 148795, Note_off_c, 3, 43, 127
4, 148800, Note_on_c, 3, 43, 110
4, 149035, Note_off_c, 3, 43, 127
4, 149040, Note_on_c, 3, 43, 110
4, 149154, Note_off_c, 3, 43, 127
4, 149159, Note_on_c, 3, 43, 110
4, 149275, Note_off_c, 3, 43, 127
4, 149279, Note_on_c, 3, 43, 110
4, 149394, Note_off_c, 3, 43, 127
4, 149399, Note_on_c, 3, 43, 110
4, 149514, Note_off_c, 3, 43, 127
4, 149519, Note_on_c, 3, 43, 110
4, 149635, Note_off_c, 3, 43, 127
4, 149640, Note_on_c, 3, 43, 110
4, 149754, Note_off_c, 3, 43, 127
4, 149759, Note_on_c, 3, 40, 110
4, 149875, Note_off_c, 3, 40, 127
4, 149880, Note_on_c, 3, 40, 110
4, 149994, Note_off_c, 3, 40, 127
4, 149999, Note_on_c, 3, 40, 110
4, 150234, Note_off_c, 3, 40, 127
4, 150239, Note_on_c, 3, 52, 110
4, 150474, Note_off_c, 3, 52, 127
4, 150479, Note_on_c, 3, 40, 110
4, 150954, Note_off_c, 3, 40, 127
4, 150960, Note_on_c, 3, 40, 110
4, 151195, Note_off_c, 3, 40, 127
4, 151200, Note_on_c, 3, 52, 110
4, 151435, Note_off_c, 3, 52, 127
4, 151440, Note_on_c, 3, 40, 110
4, 151675, Note_off_c, 3, 40, 127
4, 151680, Note_on_c, 3, 43, 110
4, 151915, Note_off_c, 3, 43, 127
4, 151920, Note_on_c, 3, 43, 110
4, 152155, Note_off_c, 3, 43, 127
4, 152159, Note_on_c, 3, 55, 110
4, 152394, Note_off_c, 3, 55, 127
4, 152399, Note_on_c, 3, 43, 110
4, 152634, Note_off_c, 3, 43, 127
4, 152639, Note_on_c, 3, 43, 110
4, 152755, Note_off_c, 3, 43, 127
4, 152760, Note_on_c, 3, 43, 110
4, 152874, Note_off_c, 3, 43, 127
4, 152879, Note_on_c, 3, 55, 110
4, 153114, Note_off_c, 3, 55, 127
4, 153119, Note_on_c, 3, 43, 110
4, 153354, Note_off_c, 3, 43, 127
4, 153359, Note_on_c, 3, 55, 110
4, 153594, Note_off_c, 3, 55, 127
4, 153599, Note_on_c, 3, 45, 110
4, 153715, Note_off_c, 3, 45, 127
4, 153719, Note_on_c, 3, 45, 110
4, 153834, Note_off_c, 3, 45, 127
4, 153840, Note_on_c, 3, 45, 110
4, 154075, Note_off_c, 3, 45, 127
4, 154080, Note_on_c, 3, 57, 110
4, 154315, Note_off_c, 3, 57, 127
4, 154320, Note_on_c, 3, 45, 110
4, 154795, Note_off_c, 3, 45, 127
4, 154800, Note_on_c, 3, 45, 110
4, 155035, Note_off_c, 3, 45, 127
4, 155040, Note_on_c, 3, 57, 110
4, 155274, Note_off_c, 3, 57, 127
4, 155279, Note_on_c, 3, 45, 110
4, 155514, Note_off_c, 3, 45, 127
4, 155519, Note_on_c, 3, 45, 110
4, 155754, Note_off_c, 3, 45, 127
4, 155759, Note_on_c, 3, 45, 110
4, 155994, Note_off_c, 3, 45, 127
4, 155999, Note_on_c, 3, 57, 110
4, 156234, Note_off_c, 3, 57, 127
4, 156239, Note_on_c, 3, 45, 110
4, 156474, Note_off_c, 3, 45, 127
4, 156479, Note_on_c, 3, 43, 110
4, 156714, Note_off_c, 3, 43, 127
4, 156720, Note_on_c, 3, 43, 110
4, 156834, Note_off_c, 3, 43, 127
4, 156839, Note_on_c, 3, 43, 110
4, 156955, Note_off_c, 3, 43, 127
4, 156960, Note_on_c, 3, 43, 110
4, 157074, Note_off_c, 3, 43, 127
4, 157079, Note_on_c, 3, 43, 110
4, 157195, Note_off_c, 3, 43, 127
4, 157200, Note_on_c, 3, 43, 110
4, 157314, Note_off_c, 3, 43, 127
4, 157319, Note_on_c, 3, 43, 110
4, 157435, Note_off_c, 3, 43, 127
4, 157440, Note_on_c, 3, 41, 110
4, 159240, Note_off_c, 3, 41, 127
4, 159359, Note_on_c, 3, 43, 110
4, 161160, Note_off_c, 3, 43, 127
4, 161279, Note_on_c, 3, 45, 110
4, 161679, Note_off_c, 3, 45, 127
4, 161759, Note_on_c, 3, 57, 110
4, 161994, Note_off_c, 3, 57, 127
4, 161999, Note_on_c, 3, 45, 110
4, 162234, Note_off_c, 3, 45, 127
4, 162239, Note_on_c, 3, 43, 110
4, 162640, Note_off_c, 3, 43, 127
4, 162720, Note_on_c, 3, 55, 110
4, 162955, Note_off_c, 3, 55, 127
4, 162960, Note_on_c, 3, 43, 110
4, 163195, Note_off_c, 3, 43, 127
4, 163200, Note_on_c, 3, 40, 110
4, 163600, Note_off_c, 3, 40, 127
4, 163680, Note_on_c, 3, 52, 110
4, 163915, Note_off_c, 3, 52, 127
4, 163919, Note_on_c, 3, 40, 110
4, 164154, Note_off_c, 3, 40, 127
4, 164159, Note_on_c, 3, 43, 110
4, 164559, Note_off_c, 3, 43, 127
4, 164639, Note_on_c, 3, 55, 110
4, 164874, Note_off_c, 3, 55, 127
4, 164879, Note_on_c, 3, 43, 110
4, 165114, Note_off_c, 3, 43, 127
4, 165119, Note_on_c, 3, 41, 110
4, 166919, Note_off_c, 3, 41, 127
4, 167039, Note_on_c, 3, 43, 110
4, 168839, Note_off_c, 3, 43, 127
4, 168960, Note_on_c, 3, 45, 110
4, 170760, Note_off_c, 3, 45, 127
4, 170879, Note_on_c, 3, 57, 110
4, 172679, Note_off_c, 3, 57, 127
4, 172799, Note_on_c, 3, 41, 110
4, 173034, Note_off_c, 3, 41, 127
4, 173039, Note_on_c, 3, 41, 110
4, 173274, Note_off_c, 3, 41, 127
4, 173279, Note_on_c, 3, 53, 110
4, 173514, Note_off_c, 3, 53, 127
4, 173519, Note_on_c, 3, 41, 110
4, 173754, Note_off_c, 3, 41, 127
4, 173759, Note_on_c, 3, 41, 110
4, 173994, Note_off_c, 3, 41, 127
4, 173999, Note_on_c, 3, 41, 110
4, 174234, Note_off_c, 3, 41, 127
4, 174239, Note_on_c, 3, 53, 110
4, 174475, Note_off_c, 3, 53, 127
4, 174480, Note_on_c, 3, 41, 110
4, 174715, Note_off_c, 3, 41, 127
4, 174720, Note_on_c, 3, 41, 110
4, 174955, Note_off_c, 3, 41, 127
4, 174960, Note_on_c, 3, 41, 110
4, 175195, Note_off_c, 3, 41, 127
4, 175200, Note_on_c, 3, 53, 110
4, 175435, Note_off_c, 3, 53, 127
4, 175440, Note_on_c, 3, 41, 110
4, 175675, Note_off_c, 3, 41, 127
4, 175679, Note_on_c, 3, 41, 110
4, 175914, Note_off_c, 3, 41, 127
4, 175919, Note_on_c, 3, 41, 110
4, 176154, Note_off_c, 3, 41, 127
4, 176159, Note_on_c, 3, 53, 110
4, 176394, Note_off_c, 3, 53, 127
4, 176399, Note_on_c, 3, 41, 110
4, 176634, Note_off_c, 3, 41, 127
4, 176639, Note_on_c, 3, 45, 110
4, 177039, Note_off_c, 3, 45, 127
4, 177119, Note_on_c, 3, 57, 110
4, 177354, Note_off_c, 3, 57, 127
4, 177360, Note_on_c, 3, 45, 110
4, 177595, Note_off_c, 3, 45, 127
4, 177600, Note_on_c, 3, 43, 110
4, 178000, Note_off_c, 3, 43, 127
4, 178080, Note_on_c, 3, 55, 110
4, 178315, Note_off_c, 3, 55, 127
4, 178320, Note_on_c, 3, 43, 110
4, 178555, Note_off_c, 3, 43, 127
4, 178559, Note_on_c, 3, 40, 110
4, 178959, Note_off_c, 3, 40, 127
4, 179039, Note_on_c, 3, 52, 110
4, 179274, Note_off_c, 3, 52, 127
4, 179279, Note_on_c, 3, 40, 110
4, 179514, Note_off_c, 3, 40, 127
4, 179519, Note_on_c, 3, 43, 110
4, 179919, Note_off_c, 3, 43, 127
4, 179999, Note_on_c, 3, 55, 110
4, 180234, Note_off_c, 3, 55, 127
4, 180240, Note_on_c, 3, 43, 110
4, 180475, Note_off_c, 3, 43, 127
4, 180480, Note_on_c, 3, 41, 110
4, 180715, Note_off_c, 3, 41, 127
4, 180720, Note_on_c, 3, 41, 110
4, 180955, Note_off_c, 3, 41, 127
4, 180960, Note_on_c, 3, 53, 110
4, 181195, Note_off_c, 3, 53, 127
4, 181200, Note_on_c, 3, 41, 110
4, 181435, Note_off_c, 3, 41, 127
4, 181439, Note_on_c, 3, 41, 110
4, 181674, Note_off_c, 3, 41, 127
4, 181679, Note_on_c, 3, 41, 110
4, 181914, Note_off_c, 3, 41, 127
4, 181919, Note_on_c, 3, 53, 110
4, 182154, Note_off_c, 3, 53, 127
4, 182159, Note_on_c, 3, 41, 110
4, 182394, Note_off_c, 3, 41, 127
4, 182399, Note_on_c, 3, 43, 110
4, 182634, Note_off_c, 3, 43, 127
4, 182639, Note_on_c, 3, 43, 110
4, 182874, Note_off_c, 3, 43, 127
4, 182879, Note_on_c, 3, 55, 110
4, 183114, Note_off_c, 3, 55, 127
4, 183120, Note_on_c, 3, 43, 110
4, 183355, Note_off_c, 3, 43, 127
4, 183360, Note_on_c, 3, 43, 110
4, 183595, Note_off_c, 3, 43, 127
4, 183600, Note_on_c, 3, 43, 110
4, 183835, Note_off_c, 3, 43, 127
4, 183840, Note_on_c, 3, 55, 110
4, 184075, Note_off_c, 3, 55, 127
4, 184080, Note_on_c, 3, 43, 110
4, 184315, Note_off_c, 3, 43, 127
4, 184319, Note_on_c, 3, 36, 110
4, 184554, Note_off_c, 3, 36, 127
4, 184559, Note_on_c, 3, 36, 110
4, 184794, Note_off_c, 3, 36, 127
4, 184799, Note_on_c, 3, 36, 110
4, 185034, Note_off_c, 3, 36, 127
4, 185039, Note_on_c, 3, 36, 110
4, 185274, Note_off_c, 3, 36, 127
4, 185279, Note_on_c, 3, 36, 110
4, 185514, Note_off_c, 3, 36, 127
4, 185519, Note_on_c, 3, 36, 110
4, 185754, Note_off_c, 3, 36, 127
4, 185759, Note_on_c, 3, 48, 110
4, 185994, Note_off_c, 3, 48, 127
4, 186000, Note_on_c, 3, 36, 110
4, 186235, Note_off_c, 3, 36, 127
4, 186240, Note_on_c, 3, 36, 110
4, 186475, Note_off_c, 3, 36, 127
4, 186480, Note_on_c, 3, 36, 110
4, 186715, Note_off_c, 3, 36, 127
4, 186720, Note_on_c, 3, 36, 110
4, 186955, Note_off_c, 3, 36, 127
4, 186960, Note_on_c, 3, 36, 110
4, 187195, Note_off_c, 3, 36, 127
4, 187200, Note_on_c, 3, 36, 110
4, 187434, Note_off_c, 3, 36, 127
4, 187439, Note_on_c, 3, 36, 110
4, 187674, Note_off_c, 3, 36, 127
4, 187679, Note_on_c, 3, 48, 110
4, 187914, Note_off_c, 3, 48, 127
4, 187919, Note_on_c, 3, 36, 110
4, 188154, Note_off_c, 3, 36, 127
4, 188159, Note_on_c, 3, 57, 110
4, 190920, Note_off_c, 3, 57, 127
4, 191039, Note_on_c, 3, 57, 110
4, 191439, Note_off_c, 3, 57, 127
4, 191519, Note_on_c, 3, 55, 110
4, 191920, Note_off_c, 3, 55, 127
4, 192000, Note_on_c, 3, 53, 110
4, 194759, Note_off_c, 3, 53, 127
4, 194880, Note_on_c, 3, 53, 110
4, 195280, Note_off_c, 3, 53, 127
4, 195360, Note_on_c, 3, 52, 110
4, 195760, Note_off_c, 3, 52, 127
4, 195840, Note_on_c, 3, 50, 110
4, 198160, Note_off_c, 3, 50, 127
4, 198720, Note_on_c, 3, 50, 110
4, 199119, Note_off_c, 3, 50, 127
4, 199199, Note_on_c, 3, 48, 110
4, 199599, Note_off_c, 3, 48, 127
4, 199679, Note_on_c, 3, 52, 110
4, 200319, Note_off_c, 3, 52, 127
4, 200399, Note_on_c, 3, 52, 110
4, 201040, Note_off_c, 3, 52, 127
4, 201120, Note_on_c, 3, 52, 110
4, 201520, Note_off_c, 3, 52, 127
4, 201600, Note_on_c, 3, 52, 110
4, 202239, Note_off_c, 3, 52, 127
4, 202319, Note_on_c, 3, 52, 110
4, 202959, Note_off_c, 3, 52, 127
4, 203039, Note_on_c, 3, 52, 110
4, 203439, Note_off_c, 3, 52, 127
4, 203519, Note_on_c, 3, 45, 110
4, 203634, Note_off_c, 3, 45, 127
4, 203639, Note_on_c, 3, 45, 110
4, 203755, Note_off_c, 3, 45, 127
4, 203760, Note_on_c, 3, 45, 110
4, 203995, Note_off_c, 3, 45, 127
4, 204000, Note_on_c, 3, 57, 110
4, 204235, Note_off_c, 3, 57, 127
4, 204240, Note_on_c, 3, 45, 110
4, 204715, Note_off_c, 3, 45, 127
4, 204720, Note_on_c, 3, 45, 110
4, 204955, Note_off_c, 3, 45, 127
4, 204959, Note_on_c, 3, 57, 110
4, 205194, Note_off_c, 3, 57, 127
4, 205199, Note_on_c, 3, 45, 110
4, 205434, Note_off_c, 3, 45, 127
4, 205439, Note_on_c, 3, 45, 110
4, 205674, Note_off_c, 3, 45, 127
4, 205679, Note_on_c, 3, 45, 110
4, 205914, Note_off_c, 3, 45, 127
4, 205919, Note_on_c, 3, 57, 110
4, 206154, Note_off_c, 3, 57, 127
4, 206159, Note_on_c, 3, 45, 110
4, 206394, Note_off_c, 3, 45, 127
4, 206399, Note_on_c, 3, 45, 110
4, 206514, Note_off_c, 3, 45, 127
4, 206519, Note_on_c, 3, 45, 110
4, 206635, Note_off_c, 3, 45, 127
4, 206640, Note_on_c, 3, 57, 110
4, 206875, Note_off_c, 3, 57, 127
4, 206880, Note_on_c, 3, 43, 110
4, 207115, Note_off_c, 3, 43, 127
4, 207120, Note_on_c, 3, 55, 110
4, 207355, Note_off_c, 3, 55, 127
4, 207360, Note_on_c, 3, 41, 110
4, 207474, Note_off_c, 3, 41, 127
4, 207479, Note_on_c, 3, 41, 110
4, 207595, Note_off_c, 3, 41, 127
4, 207600, Note_on_c, 3, 41, 110
4, 207835, Note_off_c, 3, 41, 127
4, 207839, Note_on_c, 3, 53, 110
4, 208074, Note_off_c, 3, 53, 127
4, 208079, Note_on_c, 3, 41, 110
4, 208554, Note_off_c, 3, 41, 127
4, 208559, Note_on_c, 3, 41, 110
4, 208794, Note_off_c, 3, 41, 127
4, 208799, Note_on_c, 3, 53, 110
4, 209034, Note_off_c, 3, 53, 127
4, 209039, Note_on_c, 3, 41, 110
4, 209274, Note_off_c, 3, 41, 127
4, 209279, Note_on_c, 3, 41, 110
4, 209514, Note_off_c, 3, 41, 127
4, 209520, Note_on_c, 3, 41, 110
4, 209755, Note_off_c, 3, 41, 127
4, 209760, Note_on_c, 3, 53, 110
4, 209995, Note_off_c, 3, 53, 127
4, 210000, Note_on_c, 3, 41, 110
4, 210235, Note_off_c, 3, 41, 127
4, 210240, Note_on_c, 3, 41, 110
4, 210354, Note_off_c, 3, 41, 127
4, 210359, Note_on_c, 3, 41, 110
4, 210475, Note_off_c, 3, 41, 127
4, 210480, Note_on_c, 3, 53, 110
4, 210715, Note_off_c, 3, 53, 127
4, 210719, Note_on_c, 3, 40, 110
4, 210954, Note_off_c, 3, 40, 127
4, 210959, Note_on_c, 3, 52, 110
4, 211194, Note_off_c, 3, 52, 127
4, 211199, Note_on_c, 3, 38, 110
4, 211315, Note_off_c, 3, 38, 127
4, 211320, Note_on_c, 3, 38, 110
4, 211434, Note_off_c, 3, 38, 127
4, 211439, Note_on_c, 3, 38, 110
4, 211674, Note_off_c, 3, 38, 127
4, 211679, Note_on_c, 3, 50, 110
4, 211914, Note_off_c, 3, 50, 127
4, 211919, Note_on_c, 3, 38, 110
4, 212394, Note_off_c, 3, 38, 127
4, 212400, Note_on_c, 3, 38, 110
4, 212635, Note_off_c, 3, 38, 127
4, 212640, Note_on_c, 3, 50, 110
4, 212875, Note_off_c, 3, 50, 127
4, 212880, Note_on_c, 3, 38, 110
4, 213115, Note_off_c, 3, 38, 127
4, 213120, Note_on_c, 3, 38, 110
4, 213355, Note_off_c, 3, 38, 127
4, 213360, Note_on_c, 3, 38, 110
4, 213595, Note_off_c, 3, 38, 127
4, 213599, Note_on_c, 3, 50, 110
4, 213834, Note_off_c, 3, 50, 127
4, 213839, Note_on_c, 3, 38, 110
4, 214074, Note_off_c, 3, 38, 127
4, 214079, Note_on_c, 3, 38, 110
4, 214195, Note_off_c, 3, 38, 127
4, 214200, Note_on_c, 3, 38, 110
4, 214314, Note_off_c, 3, 38, 127
4, 214319, Note_on_c, 3, 50, 110
4, 214554, Note_off_c, 3, 50, 127
4, 214559, Note_on_c, 3, 38, 110
4, 214794, Note_off_c, 3, 38, 127
4, 214799, Note_on_c, 3, 50, 110
4, 215034, Note_off_c, 3, 50, 127
4, 215039, Note_on_c, 3, 40, 110
4, 215274, Note_off_c, 3, 40, 127
4, 215280, Note_on_c, 3, 40, 110
4, 215515, Note_off_c, 3, 40, 127
4, 215520, Note_on_c, 3, 40, 110
4, 215755, Note_off_c, 3, 40, 127
4, 215760, Note_on_c, 3, 40, 110
4, 215995, Note_off_c, 3, 40, 127
4, 216000, Note_on_c, 3, 40, 110
4, 216235, Note_off_c, 3, 40, 127
4, 216240, Note_on_c, 3, 40, 110
4, 216475, Note_off_c, 3, 40, 127
4, 216480, Note_on_c, 3, 40, 110
4, 216714, Note_off_c, 3, 40, 127
4, 216719, Note_on_c, 3, 40, 110
4, 216954, Note_off_c, 3, 40, 127
4, 216959, Note_on_c, 3, 43, 110
4, 217194, Note_off_c, 3, 43, 127
4, 217199, Note_on_c, 3, 43, 110
4, 217674, Note_off_c, 3, 43, 127
4, 217679, Note_on_c, 3, 43, 110
4, 218154, Note_off_c, 3, 43, 127
4, 218160, Note_on_c, 3, 43, 110
4, 218635, Note_off_c, 3, 43, 127
4, 218640, Note_on_c, 3, 43, 110
4, 218875, Note_off_c, 3, 43, 127
4, 218880, Note_on_c, 3, 45, 110
4, 218994, Note_off_c, 3, 45, 127
4, 218999, Note_on_c, 3, 45, 110
4, 219115, Note_off_c, 3, 45, 127
4, 219120, Note_on_c, 3, 45, 110
4, 219355, Note_off_c, 3, 45, 127
4, 219839, Note_on_c, 3, 45, 110
4, 220074, Note_off_c, 3, 45, 127
4, 220079, Note_on_c, 3, 45, 110
4, 220314, Note_off_c, 3, 45, 127
4, 220319, Note_on_c, 3, 45, 110
4, 220554, Note_off_c, 3, 45, 127
4, 220559, Note_on_c, 3, 45, 110
4, 220794, Note_off_c, 3, 45, 127
4, 224640, End_track
5, 0, Start_track
5, 0, Title_t, "Track5"
5, 3839, Note_on_c, 4, 72, 110
5, 3839, Control_c, 4, 91, 0
5, 3839, Control_c, 4, 7, 127
5, 3839, Control_c, 4, 93, 0
5, 3839, Control_c, 4, 10, 64
5, 3839, Control_c, 4, 121, 0
5, 3839, Program_c, 4, 4
5, 3839, Control_c, 4, 32, 0
5, 3839, Control_c, 4, 0, 0
5, 4074, Note_off_c, 4, 72, 127
5, 4079, Note_on_c, 4, 72, 110
5, 4314, Note_off_c, 4, 72, 127
5, 4319, Note_on_c, 4, 72, 110
5, 4554, Note_off_c, 4, 72, 127
5, 4559, Note_on_c, 4, 74, 110
5, 5035, Note_off_c, 4, 74, 127
5, 5040, Note_on_c, 4, 71, 110
5, 5515, Note_off_c, 4, 71, 127
5, 5520, Note_on_c, 4, 71, 110
5, 5995, Note_off_c, 4, 71, 127
5, 5999, Note_on_c, 4, 72, 110
5, 6234, Note_off_c, 4, 72, 127
5, 6239, Note_on_c, 4, 72, 110
5, 7559, Note_off_c, 4, 72, 127
5, 7680, Note_on_c, 4, 72, 110
5, 7915, Note_off_c, 4, 72, 127
5, 7920, Note_on_c, 4, 72, 110
5, 8155, Note_off_c, 4, 72, 127
5, 8160, Note_on_c, 4, 72, 110
5, 8395, Note_off_c, 4, 72, 127
5, 8400, Note_on_c, 4, 74, 110
5, 8875, Note_off_c, 4, 74, 127
5, 8879, Note_on_c, 4, 71, 110
5, 9354, Note_off_c, 4, 71, 127
5, 9359, Note_on_c, 4, 71, 110
5, 9834, Note_off_c, 4, 71, 127
5, 9839, Note_on_c, 4, 72, 110
5, 10074, Note_off_c, 4, 72, 127
5, 10079, Note_on_c, 4, 72, 110
5, 11399, Note_off_c, 4, 72, 127
5, 11520, Note_on_c, 4, 72, 110
5, 11755, Note_off_c, 4, 72, 127
5, 11759, Note_on_c, 4, 72, 110
5, 11994, Note_off_c, 4, 72, 127
5, 11999, Note_on_c, 4, 72, 110
5, 12234, Note_off_c, 4, 72, 127
5, 12239, Note_on_c, 4, 74, 110
5, 12714, Note_off_c, 4, 74, 127
5, 12719, Note_on_c, 4, 71, 110
5, 13194, Note_off_c, 4, 71, 127
5, 13199, Note_on_c, 4, 71, 110
5, 13675, Note_off_c, 4, 71, 127
5, 13680, Note_on_c, 4, 72, 110
5, 13915, Note_off_c, 4, 72, 127
5, 13920, Note_on_c, 4, 72, 110
5, 15240, Note_off_c, 4, 72, 127
5, 15359, Note_on_c, 4, 72, 110
5, 15594, Note_off_c, 4, 72, 127
5, 15599, Note_on_c, 4, 72, 110
5, 15834, Note_off_c, 4, 72, 127
5, 15839, Note_on_c, 4, 72, 110
5, 16074, Note_off_c, 4, 72, 127
5, 16079, Note_on_c, 4, 72, 110
5, 16314, Note_off_c, 4, 72, 127
5, 16320, Note_on_c, 4, 72, 110
5, 16555, Note_off_c, 4, 72, 127
5, 16560, Note_on_c, 4, 72, 110
5, 16795, Note_off_c, 4, 72, 127
5, 16800, Note_on_c, 4, 72, 110
5, 17035, Note_off_c, 4, 72, 127
5, 17040, Note_on_c, 4, 72, 110
5, 17275, Note_off_c, 4, 72, 127
5, 17280, Note_on_c, 4, 71, 110
5, 17515, Note_off_c, 4, 71, 127
5, 17520, Note_on_c, 4, 71, 110
5, 17754, Note_off_c, 4, 71, 127
5, 17759, Note_on_c, 4, 71, 110
5, 17994, Note_off_c, 4, 71, 127
5, 17999, Note_on_c, 4, 71, 110
5, 18234, Note_off_c, 4, 71, 127
5, 18239, Note_on_c, 4, 71, 110
5, 18474, Note_off_c, 4, 71, 127
5, 18479, Note_on_c, 4, 71, 110
5, 18714, Note_off_c, 4, 71, 127
5, 18719, Note_on_c, 4, 71, 110
5, 18954, Note_off_c, 4, 71, 127
5, 18959, Note_on_c, 4, 71, 110
5, 19194, Note_off_c, 4, 71, 127
5, 19199, Note_on_c, 4, 72, 110
5, 19435, Note_off_c, 4, 72, 127
5, 19440, Note_on_c, 4, 72, 110
5, 19675, Note_off_c, 4, 72, 127
5, 19680, Note_on_c, 4, 72, 110
5, 19915, Note_off_c, 4, 72, 127
5, 19920, Note_on_c, 4, 74, 110
5, 20395, Note_off_c, 4, 74, 127
5, 20400, Note_on_c, 4, 71, 110
5, 20874, Note_off_c, 4, 71, 127
5, 20879, Note_on_c, 4, 71, 110
5, 21354, Note_off_c, 4, 71, 127
5, 21359, Note_on_c, 4, 72, 110
5, 21594, Note_off_c, 4, 72, 127
5, 21599, Note_on_c, 4, 72, 110
5, 22919, Note_off_c, 4, 72, 127
5, 23040, Note_on_c, 4, 72, 110
5, 23275, Note_off_c, 4, 72, 127
5, 23280, Note_on_c, 4, 72, 110
5, 23515, Note_off_c, 4, 72, 127
5, 23519, Note_on_c, 4, 72, 110
5, 23754, Note_off_c, 4, 72, 127
5, 23759, Note_on_c, 4, 74, 110
5, 24234, Note_off_c, 4, 74, 127
5, 24239, Note_on_c, 4, 71, 110
5, 24714, Note_off_c, 4, 71, 127
5, 24719, Note_on_c, 4, 71, 110
5, 25194, Note_off_c, 4, 71, 127
5, 25200, Note_on_c, 4, 72, 110
5, 25435, Note_off_c, 4, 72, 127
5, 25440, Note_on_c, 4, 72, 110
5, 26760, Note_off_c, 4, 72, 127
5, 26879, Note_on_c, 4, 72, 110
5, 27114, Note_off_c, 4, 72, 127
5, 27119, Note_on_c, 4, 72, 110
5, 27354, Note_off_c, 4, 72, 127
5, 27359, Note_on_c, 4, 72, 110
5, 27594, Note_off_c, 4, 72, 127
5, 27599, Note_on_c, 4, 74, 110
5, 28074, Note_off_c, 4, 74, 127
5, 28080, Note_on_c, 4, 71, 110
5, 28555, Note_off_c, 4, 71, 127
5, 28560, Note_on_c, 4, 71, 110
5, 29035, Note_off_c, 4, 71, 127
5, 29040, Note_on_c, 4, 72, 110
5, 29275, Note_off_c, 4, 72, 127
5, 29279, Note_on_c, 4, 72, 110
5, 30600, Note_off_c, 4, 72, 127
5, 30719, Note_on_c, 4, 76, 110
5, 30954, Note_off_c, 4, 76, 127
5, 30960, Note_on_c, 4, 72, 110
5, 31195, Note_off_c, 4, 72, 127
5, 31200, Note_on_c, 4, 69, 110
5, 31435, Note_off_c, 4, 69, 127
5, 31440, Note_on_c, 4, 64, 110
5, 31675, Note_off_c, 4, 64, 127
5, 31680, Note_on_c, 4, 76, 110
5, 31915, Note_off_c, 4, 76, 127
5, 31920, Note_on_c, 4, 72, 110
5, 32155, Note_off_c, 4, 72, 127
5, 32160, Note_on_c, 4, 69, 110
5, 32394, Note_off_c, 4, 69, 127
5, 32399, Note_on_c, 4, 64, 110
5, 32634, Note_off_c, 4, 64, 127
5, 32639, Note_on_c, 4, 71, 110
5, 34439, Note_off_c, 4, 71, 127
5, 34560, Note_on_c, 4, 69, 110
5, 34795, Note_off_c, 4, 69, 127
5, 34800, Note_on_c, 4, 69, 110
5, 35035, Note_off_c, 4, 69, 127
5, 35040, Note_on_c, 4, 69, 110
5, 35275, Note_off_c, 4, 69, 127
5, 35279, Note_on_c, 4, 69, 110
5, 35514, Note_off_c, 4, 69, 127
5, 35519, Note_on_c, 4, 69, 110
5, 35754, Note_off_c, 4, 69, 127
5, 35759, Note_on_c, 4, 69, 110
5, 35994, Note_off_c, 4, 69, 127
5, 35999, Note_on_c, 4, 69, 110
5, 36234, Note_off_c, 4, 69, 127
5, 36239, Note_on_c, 4, 69, 110
5, 36474, Note_off_c, 4, 69, 127
5, 36479, Note_on_c, 4, 69, 110
5, 36714, Note_off_c, 4, 69, 127
5, 36719, Note_on_c, 4, 69, 110
5, 36955, Note_off_c, 4, 69, 127
5, 36960, Note_on_c, 4, 69, 110
5, 37195, Note_off_c, 4, 69, 127
5, 37200, Note_on_c, 4, 69, 110
5, 37435, Note_off_c, 4, 69, 127
5, 37440, Note_on_c, 4, 69, 110
5, 37675, Note_off_c, 4, 69, 127
5, 37680, Note_on_c, 4, 69, 110
5, 37915, Note_off_c, 4, 69, 127
5, 37920, Note_on_c, 4, 69, 110
5, 38155, Note_off_c, 4, 69, 127
5, 38159, Note_on_c, 4, 69, 110
5, 38394, Note_off_c, 4, 69, 127
5, 38399, Note_on_c, 4, 67, 110
5, 38634, Note_off_c, 4, 67, 127
5, 38639, Note_on_c, 4, 67, 110
5, 38874, Note_off_c, 4, 67, 127
5, 38879, Note_on_c, 4, 67, 110
5, 39114, Note_off_c, 4, 67, 127
5, 39119, Note_on_c, 4, 67, 110
5, 39354, Note_off_c, 4, 67, 127
5, 39359, Note_on_c, 4, 67, 110
5, 39594, Note_off_c, 4, 67, 127
5, 39599, Note_on_c, 4, 67, 110
5, 39834, Note_off_c, 4, 67, 127
5, 39840, Note_on_c, 4, 67, 110
5, 40075, Note_off_c, 4, 67, 127
5, 40080, Note_on_c, 4, 67, 110
5, 40315, Note_off_c, 4, 67, 127
5, 40320, Note_on_c, 4, 67, 110
5, 40555, Note_off_c, 4, 67, 127
5, 40560, Note_on_c, 4, 67, 110
5, 40795, Note_off_c, 4, 67, 127
5, 40800, Note_on_c, 4, 67, 110
5, 41035, Note_off_c, 4, 67, 127
5, 41039, Note_on_c, 4, 67, 110
5, 41274, Note_off_c, 4, 67, 127
5, 41279, Note_on_c, 4, 67, 110
5, 41514, Note_off_c, 4, 67, 127
5, 41519, Note_on_c, 4, 67, 110
5, 41754, Note_off_c, 4, 67, 127
5, 41759, Note_on_c, 4, 67, 110
5, 41994, Note_off_c, 4, 67, 127
5, 41999, Note_on_c, 4, 67, 110
5, 42234, Note_off_c, 4, 67, 127
5, 42239, Note_on_c, 4, 67, 110
5, 42474, Note_off_c, 4, 67, 127
5, 42479, Note_on_c, 4, 67, 110
5, 42714, Note_off_c, 4, 67, 127
5, 42720, Note_on_c, 4, 67, 110
5, 42955, Note_off_c, 4, 67, 127
5, 42960, Note_on_c, 4, 67, 110
5, 43195, Note_off_c, 4, 67, 127
5, 43200, Note_on_c, 4, 67, 110
5, 43435, Note_off_c, 4, 67, 127
5, 43440, Note_on_c, 4, 67, 110
5, 43675, Note_off_c, 4, 67, 127
5, 43680, Note_on_c, 4, 67, 110
5, 43915, Note_off_c, 4, 67, 127
5, 43919, Note_on_c, 4, 67, 110
5, 44154, Note_off_c, 4, 67, 127
5, 44159, Note_on_c, 4, 67, 110
5, 44394, Note_off_c, 4, 67, 127
5, 44399, Note_on_c, 4, 67, 110
5, 44634, Note_off_c, 4, 67, 127
5, 44639, Note_on_c, 4, 67, 110
5, 44874, Note_off_c, 4, 67, 127
5, 44879, Note_on_c, 4, 67, 110
5, 45114, Note_off_c, 4, 67, 127
5, 45119, Note_on_c, 4, 67, 110
5, 45354, Note_off_c, 4, 67, 127
5, 45359, Note_on_c, 4, 67, 110
5, 45594, Note_off_c, 4, 67, 127
5, 45600, Note_on_c, 4, 67, 110
5, 45835, Note_off_c, 4, 67, 127
5, 45840, Note_on_c, 4, 67, 110
5, 46075, Note_off_c, 4, 67, 127
5, 46080, Note_on_c, 4, 69, 110
5, 46315, Note_off_c, 4, 69, 127
5, 46320, Note_on_c, 4, 69, 110
5, 46555, Note_off_c, 4, 69, 127
5, 46560, Note_on_c, 4, 69, 110
5, 46795, Note_off_c, 4, 69, 127
5, 46800, Note_on_c, 4, 69, 110
5, 47034, Note_off_c, 4, 69, 127
5, 47039, Note_on_c, 4, 69, 110
5, 47274, Note_off_c, 4, 69, 127
5, 47279, Note_on_c, 4, 69, 110
5, 47514, Note_off_c, 4, 69, 127
5, 47519, Note_on_c, 4, 69, 110
5, 47754, Note_off_c, 4, 69, 127
5, 47759, Note_on_c, 4, 69, 110
5, 47994, Note_off_c, 4, 69, 127
5, 47999, Note_on_c, 4, 69, 110
5, 48234, Note_off_c, 4, 69, 127
5, 48239, Note_on_c, 4, 69, 110
5, 48474, Note_off_c, 4, 69, 127
5, 48480, Note_on_c, 4, 69, 110
5, 48715, Note_off_c, 4, 69, 127
5, 48720, Note_on_c, 4, 69, 110
5, 48955, Note_off_c, 4, 69, 127
5, 48960, Note_on_c, 4, 69, 110
5, 49195, Note_off_c, 4, 69, 127
5, 49200, Note_on_c, 4, 69, 110
5, 49435, Note_off_c, 4, 69, 127
5, 49440, Note_on_c, 4, 69, 110
5, 49675, Note_off_c, 4, 69, 127
5, 49680, Note_on_c, 4, 69, 110
5, 49915, Note_off_c, 4, 69, 127
5, 49919, Note_on_c, 4, 69, 110
5, 50154, Note_off_c, 4, 69, 127
5, 50159, Note_on_c, 4, 72, 110
5, 50394, Note_off_c, 4, 72, 127
5, 50399, Note_on_c, 4, 76, 110
5, 50634, Note_off_c, 4, 76, 127
5, 50639, Note_on_c, 4, 81, 110
5, 50874, Note_off_c, 4, 81, 127
5, 50879, Note_on_c, 4, 69, 110
5, 51114, Note_off_c, 4, 69, 127
5, 51119, Note_on_c, 4, 72, 110
5, 51354, Note_off_c, 4, 72, 127
5, 51359, Note_on_c, 4, 76, 110
5, 51595, Note_off_c, 4, 76, 127
5, 51600, Note_on_c, 4, 81, 110
5, 51835, Note_off_c, 4, 81, 127
5, 51840, Note_on_c, 4, 69, 110
5, 52075, Note_off_c, 4, 69, 127
5, 52080, Note_on_c, 4, 72, 110
5, 52315, Note_off_c, 4, 72, 127
5, 52320, Note_on_c, 4, 76, 110
5, 52555, Note_off_c, 4, 76, 127
5, 52560, Note_on_c, 4, 81, 110
5, 52795, Note_off_c, 4, 81, 127
5, 52799, Note_on_c, 4, 69, 110
5, 53034, Note_off_c, 4, 69, 127
5, 53039, Note_on_c, 4, 72, 110
5, 53274, Note_off_c, 4, 72, 127
5, 53279, Note_on_c, 4, 76, 110
5, 53514, Note_off_c, 4, 76, 127
5, 53519, Note_on_c, 4, 81, 110
5, 53754, Note_off_c, 4, 81, 127
5, 53759, Note_on_c, 4, 67, 110
5, 53994, Note_off_c, 4, 67, 127
5, 53999, Note_on_c, 4, 71, 110
5, 54234, Note_off_c, 4, 71, 127
5, 54239, Note_on_c, 4, 74, 110
5, 54474, Note_off_c, 4, 74, 127
5, 54480, Note_on_c, 4, 79, 110
5, 54715, Note_off_c, 4, 79, 127
5, 54720, Note_on_c, 4, 67, 110
5, 54955, Note_off_c, 4, 67, 127
5, 54960, Note_on_c, 4, 71, 110
5, 55195, Note_off_c, 4, 71, 127
5, 55200, Note_on_c, 4, 74, 110
5, 55435, Note_off_c, 4, 74, 127
5, 55440, Note_on_c, 4, 79, 110
5, 55675, Note_off_c, 4, 79, 127
5, 55679, Note_on_c, 4, 67, 110
5, 55914, Note_off_c, 4, 67, 127
5, 55919, Note_on_c, 4, 71, 110
5, 56154, Note_off_c, 4, 71, 127
5, 56159, Note_on_c, 4, 74, 110
5, 56394, Note_off_c, 4, 74, 127
5, 56399, Note_on_c, 4, 79, 110
5, 56634, Note_off_c, 4, 79, 127
5, 56639, Note_on_c, 4, 67, 110
5, 56874, Note_off_c, 4, 67, 127
5, 56879, Note_on_c, 4, 71, 110
5, 57114, Note_off_c, 4, 71, 127
5, 57119, Note_on_c, 4, 74, 110
5, 57354, Note_off_c, 4, 74, 127
5, 57360, Note_on_c, 4, 79, 110
5, 57595, Note_off_c, 4, 79, 127
5, 57600, Note_on_c, 4, 64, 110
5, 57835, Note_off_c, 4, 64, 127
5, 57840, Note_on_c, 4, 67, 110
5, 58075, Note_off_c, 4, 67, 127
5, 58080, Note_on_c, 4, 72, 110
5, 58315, Note_off_c, 4, 72, 127
5, 58320, Note_on_c, 4, 76, 110
5, 58555, Note_off_c, 4, 76, 127
5, 58559, Note_on_c, 4, 64, 110
5, 58794, Note_off_c, 4, 64, 127
5, 58799, Note_on_c, 4, 67, 110
5, 59034, Note_off_c, 4, 67, 127
5, 59039, Note_on_c, 4, 72, 110
5, 59274, Note_off_c, 4, 72, 127
5, 59279, Note_on_c, 4, 76, 110
5, 59514, Note_off_c, 4, 76, 127
5, 59519, Note_on_c, 4, 67, 110
5, 59754, Note_off_c, 4, 67, 127
5, 59759, Note_on_c, 4, 71, 110
5, 59994, Note_off_c, 4, 71, 127
5, 59999, Note_on_c, 4, 74, 110
5, 60234, Note_off_c, 4, 74, 127
5, 60240, Note_on_c, 4, 79, 110
5, 60475, Note_off_c, 4, 79, 127
5, 60480, Note_on_c, 4, 67, 110
5, 60715, Note_off_c, 4, 67, 127
5, 60720, Note_on_c, 4, 71, 110
5, 60955, Note_off_c, 4, 71, 127
5, 60960, Note_on_c, 4, 74, 110
5, 61195, Note_off_c, 4, 74, 127
5, 61200, Note_on_c, 4, 79, 110
5, 61435, Note_off_c, 4, 79, 127
5, 61439, Note_on_c, 4, 69, 110
5, 61674, Note_off_c, 4, 69, 127
5, 61679, Note_on_c, 4, 72, 110
5, 61914, Note_off_c, 4, 72, 127
5, 61919, Note_on_c, 4, 76, 110
5, 62154, Note_off_c, 4, 76, 127
5, 62159, Note_on_c, 4, 81, 110
5, 62394, Note_off_c, 4, 81, 127
5, 62399, Note_on_c, 4, 69, 110
5, 62634, Note_off_c, 4, 69, 127
5, 62639, Note_on_c, 4, 72, 110
5, 62874, Note_off_c, 4, 72, 127
5, 62879, Note_on_c, 4, 76, 110
5, 63114, Note_off_c, 4, 76, 127
5, 63120, Note_on_c, 4, 81, 110
5, 63355, Note_off_c, 4, 81, 127
5, 63360, Note_on_c, 4, 69, 110
5, 63595, Note_off_c, 4, 69, 127
5, 63600, Note_on_c, 4, 72, 110
5, 63835, Note_off_c, 4, 72, 127
5, 63840, Note_on_c, 4, 76, 110
5, 64075, Note_off_c, 4, 76, 127
5, 64080, Note_on_c, 4, 81, 110
5, 64315, Note_off_c, 4, 81, 127
5, 64320, Note_on_c, 4, 67, 110
5, 64554, Note_off_c, 4, 67, 127
5, 64559, Note_on_c, 4, 71, 110
5, 64794, Note_off_c, 4, 71, 127
5, 64799, Note_on_c, 4, 74, 110
5, 65034, Note_off_c, 4, 74, 127
5, 65039, Note_on_c, 4, 79, 110
5, 65274, Note_off_c, 4, 79, 127
5, 65279, Note_on_c, 4, 65, 110
5, 65514, Note_off_c, 4, 65, 127
5, 65519, Note_on_c, 4, 69, 110
5, 65754, Note_off_c, 4, 69, 127
5, 65759, Note_on_c, 4, 72, 110
5, 65994, Note_off_c, 4, 72, 127
5, 65999, Note_on_c, 4, 77, 110
5, 66235, Note_off_c, 4, 77, 127
5, 66240, Note_on_c, 4, 65, 110
5, 66475, Note_off_c, 4, 65, 127
5, 66480, Note_on_c, 4, 69, 110
5, 66715, Note_off_c, 4, 69, 127
5, 66720, Note_on_c, 4, 72, 110
5, 66955, Note_off_c, 4, 72, 127
5, 66960, Note_on_c, 4, 77, 110
5, 67195, Note_off_c, 4, 77, 127
5, 67200, Note_on_c, 4, 67, 110
5, 67435, Note_off_c, 4, 67, 127
5, 67439, Note_on_c, 4, 71, 110
5, 67674, Note_off_c, 4, 71, 127
5, 67679, Note_on_c, 4, 74, 110
5, 67914, Note_off_c, 4, 74, 127
5, 67919, Note_on_c, 4, 79, 110
5, 68154, Note_off_c, 4, 79, 127
5, 68159, Note_on_c, 4, 67, 110
5, 68394, Note_off_c, 4, 67, 127
5, 68399, Note_on_c, 4, 71, 110
5, 68634, Note_off_c, 4, 71, 127
5, 68639, Note_on_c, 4, 74, 110
5, 68874, Note_off_c, 4, 74, 127
5, 68879, Note_on_c, 4, 79, 110
5, 69114, Note_off_c, 4, 79, 127
5, 69120, Note_on_c, 4, 69, 110
5, 69355, Note_off_c, 4, 69, 127
5, 69360, Note_on_c, 4, 72, 110
5, 69595, Note_off_c, 4, 72, 127
5, 69600, Note_on_c, 4, 76, 110
5, 69835, Note_off_c, 4, 76, 127
5, 69840, Note_on_c, 4, 81, 110
5, 70075, Note_off_c, 4, 81, 127
5, 70080, Note_on_c, 4, 67, 110
5, 70315, Note_off_c, 4, 67, 127
5, 70319, Note_on_c, 4, 71, 110
5, 70554, Note_off_c, 4, 71, 127
5, 70559, Note_on_c, 4, 74, 110
5, 70794, Note_off_c, 4, 74, 127
5, 70799, Note_on_c, 4, 79, 110
5, 71034, Note_off_c, 4, 79, 127
5, 71039, Note_on_c, 4, 64, 110
5, 71274, Note_off_c, 4, 64, 127
5, 71279, Note_on_c, 4, 67, 110
5, 71514, Note_off_c, 4, 67, 127
5, 71519, Note_on_c, 4, 72, 110
5, 71754, Note_off_c, 4, 72, 127
5, 71759, Note_on_c, 4, 76, 110
5, 71994, Note_off_c, 4, 76, 127
5, 72000, Note_on_c, 4, 67, 110
5, 72235, Note_off_c, 4, 67, 127
5, 72240, Note_on_c, 4, 71, 110
5, 72475, Note_off_c, 4, 71, 127
5, 72480, Note_on_c, 4, 74, 110
5, 72715, Note_off_c, 4, 74, 127
5, 72720, Note_on_c, 4, 79, 110
5, 72955, Note_off_c, 4, 79, 127
5, 72960, Note_on_c, 4, 65, 110
5, 73195, Note_off_c, 4, 65, 127
5, 73199, Note_on_c, 4, 69, 110
5, 73434, Note_off_c, 4, 69, 127
5, 73439, Note_on_c, 4, 72, 110
5, 73674, Note_off_c, 4, 72, 127
5, 73679, Note_on_c, 4, 77, 110
5, 73914, Note_off_c, 4, 77, 127
5, 73919, Note_on_c, 4, 65, 110
5, 74154, Note_off_c, 4, 65, 127
5, 74159, Note_on_c, 4, 69, 110
5, 74394, Note_off_c, 4, 69, 127
5, 74399, Note_on_c, 4, 72, 110
5, 74634, Note_off_c, 4, 72, 127
5, 74639, Note_on_c, 4, 77, 110
5, 74874, Note_off_c, 4, 77, 127
5, 74880, Note_on_c, 4, 67, 110
5, 75115, Note_off_c, 4, 67, 127
5, 75120, Note_on_c, 4, 71, 110
5, 75355, Note_off_c, 4, 71, 127
5, 75360, Note_on_c, 4, 74, 110
5, 75595, Note_off_c, 4, 74, 127
5, 75600, Note_on_c, 4, 79, 110
5, 75835, Note_off_c, 4, 79, 127
5, 75840, Note_on_c, 4, 67, 110
5, 76075, Note_off_c, 4, 67, 127
5, 76079, Note_on_c, 4, 71, 110
5, 76314, Note_off_c, 4, 71, 127
5, 76319, Note_on_c, 4, 74, 110
5, 76554, Note_off_c, 4, 74, 127
5, 76559, Note_on_c, 4, 79, 110
5, 76794, Note_off_c, 4, 79, 127
5, 76799, Note_on_c, 4, 69, 110
5, 77034, Note_off_c, 4, 69, 127
5, 77039, Note_on_c, 4, 72, 110
5, 77274, Note_off_c, 4, 72, 127
5, 77279, Note_on_c, 4, 76, 110
5, 77514, Note_off_c, 4, 76, 127
5, 77519, Note_on_c, 4, 81, 110
5, 77754, Note_off_c, 4, 81, 127
5, 77760, Note_on_c, 4, 69, 110
5, 77995, Note_off_c, 4, 69, 127
5, 78000, Note_on_c, 4, 72, 110
5, 78235, Note_off_c, 4, 72, 127
5, 78240, Note_on_c, 4, 76, 110
5, 78475, Note_off_c, 4, 76, 127
5, 78480, Note_on_c, 4, 81, 110
5, 78715, Note_off_c, 4, 81, 127
5, 78720, Note_on_c, 4, 69, 110
5, 78955, Note_off_c, 4, 69, 127
5, 78960, Note_on_c, 4, 72, 110
5, 79194, Note_off_c, 4, 72, 127
5, 79199, Note_on_c, 4, 76, 110
5, 79434, Note_off_c, 4, 76, 127
5, 79439, Note_on_c, 4, 81, 110
5, 79674, Note_off_c, 4, 81, 127
5, 79679, Note_on_c, 4, 69, 110
5, 79914, Note_off_c, 4, 69, 127
5, 79919, Note_on_c, 4, 72, 110
5, 80154, Note_off_c, 4, 72, 127
5, 80159, Note_on_c, 4, 76, 110
5, 80394, Note_off_c, 4, 76, 127
5, 80399, Note_on_c, 4, 81, 110
5, 80634, Note_off_c, 4, 81, 127
5, 80639, Note_on_c, 4, 65, 110
5, 80875, Note_off_c, 4, 65, 127
5, 80880, Note_on_c, 4, 69, 110
5, 81115, Note_off_c, 4, 69, 127
5, 81120, Note_on_c, 4, 72, 110
5, 81355, Note_off_c, 4, 72, 127
5, 81360, Note_on_c, 4, 77, 110
5, 81595, Note_off_c, 4, 77, 127
5, 81600, Note_on_c, 4, 65, 110
5, 81835, Note_off_c, 4, 65, 127
5, 81840, Note_on_c, 4, 69, 110
5, 82075, Note_off_c, 4, 69, 127
5, 82079, Note_on_c, 4, 72, 110
5, 82314, Note_off_c, 4, 72, 127
5, 82319, Note_on_c, 4, 77, 110
5, 82554, Note_off_c, 4, 77, 127
5, 82559, Note_on_c, 4, 67, 110
5, 82794, Note_off_c, 4, 67, 127
5, 82799, Note_on_c, 4, 71, 110
5, 83034, Note_off_c, 4, 71, 127
5, 83039, Note_on_c, 4, 74, 110
5, 83274, Note_off_c, 4, 74, 127
5, 83279, Note_on_c, 4, 79, 110
5, 83514, Note_off_c, 4, 79, 127
5, 83519, Note_on_c, 4, 67, 110
5, 83754, Note_off_c, 4, 67, 127
5, 83760, Note_on_c, 4, 71, 110
5, 83995, Note_off_c, 4, 71, 127
5, 84000, Note_on_c, 4, 74, 110
5, 84235, Note_off_c, 4, 74, 127
5, 84240, Note_on_c, 4, 79, 110
5, 84475, Note_off_c, 4, 79, 127
5, 84480, Note_on_c, 4, 69, 110
5, 84715, Note_off_c, 4, 69, 127
5, 84720, Note_on_c, 4, 72, 110
5, 84955, Note_off_c, 4, 72, 127
5, 84959, Note_on_c, 4, 76, 110
5, 85194, Note_off_c, 4, 76, 127
5, 85199, Note_on_c, 4, 81, 110
5, 85434, Note_off_c, 4, 81, 127
5, 85439, Note_on_c, 4, 67, 110
5, 85674, Note_off_c, 4, 67, 127
5, 85679, Note_on_c, 4, 71, 110
5, 85914, Note_off_c, 4, 71, 127
5, 85919, Note_on_c, 4, 74, 110
5, 86154, Note_off_c, 4, 74, 127
5, 86159, Note_on_c, 4, 79, 110
5, 86394, Note_off_c, 4, 79, 127
5, 86399, Note_on_c, 4, 64, 110
5, 86634, Note_off_c, 4, 64, 127
5, 86640, Note_on_c, 4, 67, 110
5, 86875, Note_off_c, 4, 67, 127
5, 86880, Note_on_c, 4, 72, 110
5, 87115, Note_off_c, 4, 72, 127
5, 87120, Note_on_c, 4, 76, 110
5, 87355, Note_off_c, 4, 76, 127
5, 87360, Note_on_c, 4, 67, 110
5, 87595, Note_off_c, 4, 67, 127
5, 87600, Note_on_c, 4, 71, 110
5, 87835, Note_off_c, 4, 71, 127
5, 87839, Note_on_c, 4, 74, 110
5, 88074, Note_off_c, 4, 74, 127
5, 88079, Note_on_c, 4, 79, 110
5, 88314, Note_off_c, 4, 79, 127
5, 88319, Note_on_c, 4, 65, 110
5, 88554, Note_off_c, 4, 65, 127
5, 88559, Note_on_c, 4, 69, 110
5, 88794, Note_off_c, 4, 69, 127
5, 88799, Note_on_c, 4, 72, 110
5, 89034, Note_off_c, 4, 72, 127
5, 89039, Note_on_c, 4, 77, 110
5, 89274, Note_off_c, 4, 77, 127
5, 89279, Note_on_c, 4, 65, 110
5, 89514, Note_off_c, 4, 65, 127
5, 89520, Note_on_c, 4, 69, 110
5, 89755, Note_off_c, 4, 69, 127
5, 89760, Note_on_c, 4, 72, 110
5, 89995, Note_off_c, 4, 72, 127
5, 90000, Note_on_c, 4, 77, 110
5, 90235, Note_off_c, 4, 77, 127
5, 90240, Note_on_c, 4, 67, 110
5, 90475, Note_off_c, 4, 67, 127
5, 90480, Note_on_c, 4, 71, 110
5, 90715, Note_off_c, 4, 71, 127
5, 90719, Note_on_c, 4, 74, 110
5, 90954, Note_off_c, 4, 74, 127
5, 90959, Note_on_c, 4, 79, 110
5, 91194, Note_off_c, 4, 79, 127
5, 91199, Note_on_c, 4, 67, 110
5, 91434, Note_off_c, 4, 67, 127
5, 91439, Note_on_c, 4, 71, 110
5, 91674, Note_off_c, 4, 71, 127
5, 91679, Note_on_c, 4, 74, 110
5, 91914, Note_off_c, 4, 74, 127
5, 91919, Note_on_c, 4, 79, 110
5, 92154, Note_off_c, 4, 79, 127
5, 92159, Note_on_c, 4, 64, 110
5, 92394, Note_off_c, 4, 64, 127
5, 92400, Note_on_c, 4, 67, 110
5, 92635, Note_off_c, 4, 67, 127
5, 92640, Note_on_c, 4, 72, 110
5, 92875, Note_off_c, 4, 72, 127
5, 92880, Note_on_c, 4, 76, 110
5, 93115, Note_off_c, 4, 76, 127
5, 93120, Note_on_c, 4, 64, 110
5, 93355, Note_off_c, 4, 64, 127
5, 93360, Note_on_c, 4, 67, 110
5, 93595, Note_off_c, 4, 67, 127
5, 93600, Note_on_c, 4, 72, 110
5, 93834, Note_off_c, 4, 72, 127
5, 93839, Note_on_c, 4, 76, 110
5, 94074, Note_off_c, 4, 76, 127
5, 94079, Note_on_c, 4, 64, 110
5, 94314, Note_off_c, 4, 64, 127
5, 94319, Note_on_c, 4, 67, 110
5, 94554, Note_off_c, 4, 67, 127
5, 94559, Note_on_c, 4, 72, 110
5, 94794, Note_off_c, 4, 72, 127
5, 94799, Note_on_c, 4, 76, 110
5, 95034, Note_off_c, 4, 76, 127
5, 95039, Note_on_c, 4, 64, 110
5, 95274, Note_off_c, 4, 64, 127
5, 95279, Note_on_c, 4, 67, 110
5, 95515, Note_off_c, 4, 67, 127
5, 95520, Note_on_c, 4, 72, 110
5, 95755, Note_off_c, 4, 72, 127
5, 95760, Note_on_c, 4, 76, 110
5, 95995, Note_off_c, 4, 76, 127
5, 96000, Note_on_c, 4, 72, 110
5, 96235, Note_off_c, 4, 72, 127
5, 96240, Note_on_c, 4, 72, 110
5, 96475, Note_off_c, 4, 72, 127
5, 96480, Note_on_c, 4, 72, 110
5, 96715, Note_off_c, 4, 72, 127
5, 96719, Note_on_c, 4, 74, 110
5, 97194, Note_off_c, 4, 74, 127
5, 97199, Note_on_c, 4, 71, 110
5, 97674, Note_off_c, 4, 71, 127
5, 97679, Note_on_c, 4, 71, 110
5, 98154, Note_off_c, 4, 71, 127
5, 98159, Note_on_c, 4, 72, 110
5, 98395, Note_off_c, 4, 72, 127
5, 98400, Note_on_c, 4, 72, 110
5, 99720, Note_off_c, 4, 72, 127
5, 99839, Note_on_c, 4, 72, 110
5, 100074, Note_off_c, 4, 72, 127
5, 100079, Note_on_c, 4, 72, 110
5, 100314, Note_off_c, 4, 72, 127
5, 100319, Note_on_c, 4, 72, 110
5, 100554, Note_off_c, 4, 72, 127
5, 100559, Note_on_c, 4, 74, 110
5, 101034, Note_off_c, 4, 74, 127
5, 101039, Note_on_c, 4, 71, 110
5, 101515, Note_off_c, 4, 71, 127
5, 101520, Note_on_c, 4, 71, 110
5, 101995, Note_off_c, 4, 71, 127
5, 102000, Note_on_c, 4, 72, 110
5, 102235, Note_off_c, 4, 72, 127
5, 102240, Note_on_c, 4, 72, 110
5, 103560, Note_off_c, 4, 72, 127
5, 103679, Note_on_c, 4, 72, 110
5, 103914, Note_off_c, 4, 72, 127
5, 103919, Note_on_c, 4, 72, 110
5, 104154, Note_off_c, 4, 72, 127
5, 104160, Note_on_c, 4, 72, 110
5, 104395, Note_off_c, 4, 72, 127
5, 104400, Note_on_c, 4, 74, 110
5, 104875, Note_off_c, 4, 74, 127
5, 104880, Note_on_c, 4, 71, 110
5, 105355, Note_off_c, 4, 71, 127
5, 105359, Note_on_c, 4, 71, 110
5, 105834, Note_off_c, 4, 71, 127
5, 105839, Note_on_c, 4, 72, 110
5, 106074, Note_off_c, 4, 72, 127
5, 106079, Note_on_c, 4, 72, 110
5, 107399, Note_off_c, 4, 72, 127
5, 107520, Note_on_c, 4, 72, 110
5, 107755, Note_off_c, 4, 72, 127
5, 107760, Note_on_c, 4, 72, 110
5, 107995, Note_off_c, 4, 72, 127
5, 108000, Note_on_c, 4, 72, 110
5, 108235, Note_off_c, 4, 72, 127
5, 108240, Note_on_c, 4, 72, 110
5, 108474, Note_off_c, 4, 72, 127
5, 108479, Note_on_c, 4, 72, 110
5, 108714, Note_off_c, 4, 72, 127
5, 108719, Note_on_c, 4, 72, 110
5, 108954, Note_off_c, 4, 72, 127
5, 108959, Note_on_c, 4, 72, 110
5, 109194, Note_off_c, 4, 72, 127
5, 109199, Note_on_c, 4, 72, 110
5, 109434, Note_off_c, 4, 72, 127
5, 109439, Note_on_c, 4, 71, 110
5, 109674, Note_off_c, 4, 71, 127
5, 109679, Note_on_c, 4, 71, 110
5, 109914, Note_off_c, 4, 71, 127
5, 109920, Note_on_c, 4, 71, 110
5, 110155, Note_off_c, 4, 71, 127
5, 110160, Note_on_c, 4, 71, 110
5, 110395, Note_off_c, 4, 71, 127
5, 110400, Note_on_c, 4, 71, 110
5, 110635, Note_off_c, 4, 71, 127
5, 110640, Note_on_c, 4, 71, 110
5, 110875, Note_off_c, 4, 71, 127
5, 110880, Note_on_c, 4, 71, 110
5, 111115, Note_off_c, 4, 71, 127
5, 111120, Note_on_c, 4, 71, 110
5, 111354, Note_off_c, 4, 71, 127
5, 111359, Note_on_c, 4, 72, 110
5, 111594, Note_off_c, 4, 72, 127
5, 111599, Note_on_c, 4, 72, 110
5, 111834, Note_off_c, 4, 72, 127
5, 111839, Note_on_c, 4, 72, 110
5, 112074, Note_off_c, 4, 72, 127
5, 112079, Note_on_c, 4, 74, 110
5, 112554, Note_off_c, 4, 74, 127
5, 112559, Note_on_c, 4, 71, 110
5, 113035, Note_off_c, 4, 71, 127
5, 113040, Note_on_c, 4, 71, 110
5, 113515, Note_off_c, 4, 71, 127
5, 113520, Note_on_c, 4, 72, 110
5, 113755, Note_off_c, 4, 72, 127
5, 113760, Note_on_c, 4, 72, 110
5, 115080, Note_off_c, 4, 72, 127
5, 115199, Note_on_c, 4, 72, 110
5, 115434, Note_off_c, 4, 72, 127
5, 115439, Note_on_c, 4, 72, 110
5, 115674, Note_off_c, 4, 72, 127
5, 115679, Note_on_c, 4, 72, 110
5, 115914, Note_off_c, 4, 72, 127
5, 115920, Note_on_c, 4, 74, 110
5, 116395, Note_off_c, 4, 74, 127
5, 116400, Note_on_c, 4, 71, 110
5, 116875, Note_off_c, 4, 71, 127
5, 116880, Note_on_c, 4, 71, 110
5, 117354, Note_off_c, 4, 71, 127
5, 117359, Note_on_c, 4, 72, 110
5, 117594, Note_off_c, 4, 72, 127
5, 117599, Note_on_c, 4, 72, 110
5, 118919, Note_off_c, 4, 72, 127
5, 119040, Note_on_c, 4, 72, 110
5, 119275, Note_off_c, 4, 72, 127
5, 119280, Note_on_c, 4, 72, 110
5, 119515, Note_off_c, 4, 72, 127
5, 119520, Note_on_c, 4, 72, 110
5, 119755, Note_off_c, 4, 72, 127
5, 119760, Note_on_c, 4, 74, 110
5, 120234, Note_off_c, 4, 74, 127
5, 120239, Note_on_c, 4, 71, 110
5, 120714, Note_off_c, 4, 71, 127
5, 120719, Note_on_c, 4, 71, 110
5, 121194, Note_off_c, 4, 71, 127
5, 121199, Note_on_c, 4, 72, 110
5, 121434, Note_off_c, 4, 72, 127
5, 121439, Note_on_c, 4, 72, 110
5, 122759, Note_off_c, 4, 72, 127
5, 122879, Note_on_c, 4, 76, 110
5, 123114, Note_off_c, 4, 76, 127
5, 123119, Note_on_c, 4, 72, 110
5, 123354, Note_off_c, 4, 72, 127
5, 123359, Note_on_c, 4, 69, 110
5, 123594, Note_off_c, 4, 69, 127
5, 123599, Note_on_c, 4, 64, 110
5, 123834, Note_off_c, 4, 64, 127
5, 123839, Note_on_c, 4, 76, 110
5, 124074, Note_off_c, 4, 76, 127
5, 124079, Note_on_c, 4, 72, 110
5, 124314, Note_off_c, 4, 72, 127
5, 124319, Note_on_c, 4, 69, 110
5, 124554, Note_off_c, 4, 69, 127
5, 124560, Note_on_c, 4, 64, 110
5, 124795, Note_off_c, 4, 64, 127
5, 124800, Note_on_c, 4, 71, 110
5, 126600, Note_off_c, 4, 71, 127
5, 126719, Note_on_c, 4, 69, 110
5, 126954, Note_off_c, 4, 69, 127
5, 126959, Note_on_c, 4, 69, 110
5, 127194, Note_off_c, 4, 69, 127
5, 127199, Note_on_c, 4, 69, 110
5, 127434, Note_off_c, 4, 69, 127
5, 127439, Note_on_c, 4, 69, 110
5, 127675, Note_off_c, 4, 69, 127
5, 127680, Note_on_c, 4, 69, 110
5, 127915, Note_off_c, 4, 69, 127
5, 127920, Note_on_c, 4, 69, 110
5, 128155, Note_off_c, 4, 69, 127
5, 128160, Note_on_c, 4, 69, 110
5, 128395, Note_off_c, 4, 69, 127
5, 128400, Note_on_c, 4, 69, 110
5, 128635, Note_off_c, 4, 69, 127
5, 128640, Note_on_c, 4, 69, 110
5, 128875, Note_off_c, 4, 69, 127
5, 128879, Note_on_c, 4, 69, 110
5, 129114, Note_off_c, 4, 69, 127
5, 129119, Note_on_c, 4, 69, 110
5, 129354, Note_off_c, 4, 69, 127
5, 129359, Note_on_c, 4, 69, 110
5, 129594, Note_off_c, 4, 69, 127
5, 129599, Note_on_c, 4, 69, 110
5, 129834, Note_off_c, 4, 69, 127
5, 129839, Note_on_c, 4, 69, 110
5, 130074, Note_off_c, 4, 69, 127
5, 130079, Note_on_c, 4, 69, 110
5, 130314, Note_off_c, 4, 69, 127
5, 130319, Note_on_c, 4, 69, 110
5, 130554, Note_off_c, 4, 69, 127
5, 130560, Note_on_c, 4, 67, 110
5, 130795, Note_off_c, 4, 67, 127
5, 130800, Note_on_c, 4, 67, 110
5, 131035, Note_off_c, 4, 67, 127
5, 131040, Note_on_c, 4, 67, 110
5, 131275, Note_off_c, 4, 67, 127
5, 131280, Note_on_c, 4, 67, 110
5, 131515, Note_off_c, 4, 67, 127
5, 131520, Note_on_c, 4, 67, 110
5, 131755, Note_off_c, 4, 67, 127
5, 131759, Note_on_c, 4, 67, 110
5, 131994, Note_off_c, 4, 67, 127
5, 131999, Note_on_c, 4, 67, 110
5, 132234, Note_off_c, 4, 67, 127
5, 132239, Note_on_c, 4, 67, 110
5, 132474, Note_off_c, 4, 67, 127
5, 132479, Note_on_c, 4, 67, 110
5, 132714, Note_off_c, 4, 67, 127
5, 132719, Note_on_c, 4, 67, 110
5, 132954, Note_off_c, 4, 67, 127
5, 132959, Note_on_c, 4, 67, 110
5, 133194, Note_off_c, 4, 67, 127
5, 133199, Note_on_c, 4, 67, 110
5, 133434, Note_off_c, 4, 67, 127
5, 133440, Note_on_c, 4, 67, 110
5, 133675, Note_off_c, 4, 67, 127
5, 133680, Note_on_c, 4, 67, 110
5, 133915, Note_off_c, 4, 67, 127
5, 133920, Note_on_c, 4, 67, 110
5, 134155, Note_off_c, 4, 67, 127
5, 134160, Note_on_c, 4, 67, 110
5, 134395, Note_off_c, 4, 67, 127
5, 134400, Note_on_c, 4, 67, 110
5, 134635, Note_off_c, 4, 67, 127
5, 134639, Note_on_c, 4, 67, 110
5, 134874, Note_off_c, 4, 67, 127
5, 134879, Note_on_c, 4, 67, 110
5, 135114, Note_off_c, 4, 67, 127
5, 135119, Note_on_c, 4, 67, 110
5, 135354, Note_off_c, 4, 67, 127
5, 135359, Note_on_c, 4, 67, 110
5, 135594, Note_off_c, 4, 67, 127
5, 135599, Note_on_c, 4, 67, 110
5, 135834, Note_off_c, 4, 67, 127
5, 135839, Note_on_c, 4, 67, 110
5, 136074, Note_off_c, 4, 67, 127
5, 136079, Note_on_c, 4, 67, 110
5, 136314, Note_off_c, 4, 67, 127
5, 136320, Note_on_c, 4, 67, 110
5, 136555, Note_off_c, 4, 67, 127
5, 136560, Note_on_c, 4, 67, 110
5, 136795, Note_off_c, 4, 67, 127
5, 136800, Note_on_c, 4, 67, 110
5, 137035, Note_off_c, 4, 67, 127
5, 137040, Note_on_c, 4, 67, 110
5, 137275, Note_off_c, 4, 67, 127
5, 137280, Note_on_c, 4, 67, 110
5, 137515, Note_off_c, 4, 67, 127
5, 137519, Note_on_c, 4, 67, 110
5, 137754, Note_off_c, 4, 67, 127
5, 137759, Note_on_c, 4, 67, 110
5, 137994, Note_off_c, 4, 67, 127
5, 137999, Note_on_c, 4, 67, 110
5, 138234, Note_off_c, 4, 67, 127
5, 138239, Note_on_c, 4, 69, 110
5, 138474, Note_off_c, 4, 69, 127
5, 138479, Note_on_c, 4, 69, 110
5, 138714, Note_off_c, 4, 69, 127
5, 138719, Note_on_c, 4, 69, 110
5, 138954, Note_off_c, 4, 69, 127
5, 138959, Note_on_c, 4, 69, 110
5, 139194, Note_off_c, 4, 69, 127
5, 139200, Note_on_c, 4, 69, 110
5, 139435, Note_off_c, 4, 69, 127
5, 139440, Note_on_c, 4, 69, 110
5, 139675, Note_off_c, 4, 69, 127
5, 139680, Note_on_c, 4, 69, 110
5, 139915, Note_off_c, 4, 69, 127
5, 139920, Note_on_c, 4, 69, 110
5, 140155, Note_off_c, 4, 69, 127
5, 140160, Note_on_c, 4, 69, 110
5, 140395, Note_off_c, 4, 69, 127
5, 140400, Note_on_c, 4, 69, 110
5, 140634, Note_off_c, 4, 69, 127
5, 140639, Note_on_c, 4, 69, 110
5, 140874, Note_off_c, 4, 69, 127
5, 140879, Note_on_c, 4, 69, 110
5, 141114, Note_off_c, 4, 69, 127
5, 141119, Note_on_c, 4, 69, 110
5, 141354, Note_off_c, 4, 69, 127
5, 141359, Note_on_c, 4, 69, 110
5, 141594, Note_off_c, 4, 69, 127
5, 141599, Note_on_c, 4, 69, 110
5, 141834, Note_off_c, 4, 69, 127
5, 141839, Note_on_c, 4, 69, 110
5, 142074, Note_off_c, 4, 69, 127
5, 142079, Note_on_c, 4, 69, 110
5, 142315, Note_off_c, 4, 69, 127
5, 142320, Note_on_c, 4, 72, 110
5, 142555, Note_off_c, 4, 72, 127
5, 142560, Note_on_c, 4, 76, 110
5, 142795, Note_off_c, 4, 76, 127
5, 142800, Note_on_c, 4, 81, 110
5, 143035, Note_off_c, 4, 81, 127
5, 143040, Note_on_c, 4, 69, 110
5, 143275, Note_off_c, 4, 69, 127
5, 143280, Note_on_c, 4, 72, 110
5, 143515, Note_off_c, 4, 72, 127
5, 143519, Note_on_c, 4, 76, 110
5, 143754, Note_off_c, 4, 76, 127
5, 143759, Note_on_c, 4, 81, 110
5, 143994, Note_off_c, 4, 81, 127
5, 143999, Note_on_c, 4, 69, 110
5, 144234, Note_off_c, 4, 69, 127
5, 144239, Note_on_c, 4, 72, 110
5, 144474, Note_off_c, 4, 72, 127
5, 144479, Note_on_c, 4, 76, 110
5, 144714, Note_off_c, 4, 76, 127
5, 144719, Note_on_c, 4, 81, 110
5, 144954, Note_off_c, 4, 81, 127
5, 144959, Note_on_c, 4, 69, 110
5, 145194, Note_off_c, 4, 69, 127
5, 145200, Note_on_c, 4, 72, 110
5, 145435, Note_off_c, 4, 72, 127
5, 145440, Note_on_c, 4, 76, 110
5, 145675, Note_off_c, 4, 76, 127
5, 145680, Note_on_c, 4, 81, 110
5, 145915, Note_off_c, 4, 81, 127
5, 145920, Note_on_c, 4, 67, 110
5, 146155, Note_off_c, 4, 67, 127
5, 146160, Note_on_c, 4, 71, 110
5, 146395, Note_off_c, 4, 71, 127
5, 146399, Note_on_c, 4, 74, 110
5, 146634, Note_off_c, 4, 74, 127
5, 146639, Note_on_c, 4, 79, 110
5, 146874, Note_off_c, 4, 79, 127
5, 146879, Note_on_c, 4, 67, 110
5, 147114, Note_off_c, 4, 67, 127
5, 147119, Note_on_c, 4, 71, 110
5, 147354, Note_off_c, 4, 71, 127
5, 147359, Note_on_c, 4, 74, 110
5, 147594, Note_off_c, 4, 74, 127
5, 147599, Note_on_c, 4, 79, 110
5, 147834, Note_off_c, 4, 79, 127
5, 147839, Note_on_c, 4, 67, 110
5, 148074, Note_off_c, 4, 67, 127
5, 148080, Note_on_c, 4, 71, 110
5, 148315, Note_off_c, 4, 71, 127
5, 148320, Note_on_c, 4, 74, 110
5, 148555, Note_off_c, 4, 74, 127
5, 148560, Note_on_c, 4, 79, 110
5, 148795, Note_off_c, 4, 79, 127
5, 148800, Note_on_c, 4, 67, 110
5, 149035, Note_off_c, 4, 67, 127
5, 149040, Note_on_c, 4, 71, 110
5, 149275, Note_off_c, 4, 71, 127
5, 149279, Note_on_c, 4, 74, 110
5, 149514, Note_off_c, 4, 74, 127
5, 149519, Note_on_c, 4, 79, 110
5, 149754, Note_off_c, 4, 79, 127
5, 149759, Note_on_c, 4, 64, 110
5, 149994, Note_off_c, 4, 64, 127
5, 149999, Note_on_c, 4, 67, 110
5, 150234, Note_off_c, 4, 67, 127
5, 150239, Note_on_c, 4, 72, 110
5, 150474, Note_off_c, 4, 72, 127
5, 150479, Note_on_c, 4, 76, 110
5, 150714, Note_off_c, 4, 76, 127
5, 150719, Note_on_c, 4, 64, 110
5, 150954, Note_off_c, 4, 64, 127
5, 150960, Note_on_c, 4, 67, 110
5, 151195, Note_off_c, 4, 67, 127
5, 151200, Note_on_c, 4, 72, 110
5, 151435, Note_off_c, 4, 72, 127
5, 151440, Note_on_c, 4, 76, 110
5, 151675, Note_off_c, 4, 76, 127
5, 151680, Note_on_c, 4, 67, 110
5, 151915, Note_off_c, 4, 67, 127
5, 151920, Note_on_c, 4, 71, 110
5, 152155, Note_off_c, 4, 71, 127
5, 152159, Note_on_c, 4, 74, 110
5, 152394, Note_off_c, 4, 74, 127
5, 152399, Note_on_c, 4, 79, 110
5, 152634, Note_off_c, 4, 79, 127
5, 152639, Note_on_c, 4, 67, 110
5, 152874, Note_off_c, 4, 67, 127
5, 152879, Note_on_c, 4, 71, 110
5, 153114, Note_off_c, 4, 71, 127
5, 153119, Note_on_c, 4, 74, 110
5, 153354, Note_off_c, 4, 74, 127
5, 153359, Note_on_c, 4, 79, 110
5, 153594, Note_off_c, 4, 79, 127
5, 153599, Note_on_c, 4, 69, 110
5, 153834, Note_off_c, 4, 69, 127
5, 153840, Note_on_c, 4, 72, 110
5, 154075, Note_off_c, 4, 72, 127
5, 154080, Note_on_c, 4, 76, 110
5, 154315, Note_off_c, 4, 76, 127
5, 154320, Note_on_c, 4, 81, 110
5, 154555, Note_off_c, 4, 81, 127
5, 154560, Note_on_c, 4, 69, 110
5, 154795, Note_off_c, 4, 69, 127
5, 154800, Note_on_c, 4, 72, 110
5, 155035, Note_off_c, 4, 72, 127
5, 155040, Note_on_c, 4, 76, 110
5, 155274, Note_off_c, 4, 76, 127
5, 155279, Note_on_c, 4, 81, 110
5, 155514, Note_off_c, 4, 81, 127
5, 155519, Note_on_c, 4, 69, 110
5, 155754, Note_off_c, 4, 69, 127
5, 155759, Note_on_c, 4, 72, 110
5, 155994, Note_off_c, 4, 72, 127
5, 155999, Note_on_c, 4, 76, 110
5, 156234, Note_off_c, 4, 76, 127
5, 156239, Note_on_c, 4, 81, 110
5, 156474, Note_off_c, 4, 81, 127
5, 156479, Note_on_c, 4, 67, 110
5, 156714, Note_off_c, 4, 67, 127
5, 156720, Note_on_c, 4, 71, 110
5, 156955, Note_off_c, 4, 71, 127
5, 156960, Note_on_c, 4, 74, 110
5, 157195, Note_off_c, 4, 74, 127
5, 157200, Note_on_c, 4, 79, 110
5, 157435, Note_off_c, 4, 79, 127
5, 157440, Note_on_c, 4, 65, 110
5, 157675, Note_off_c, 4, 65, 127
5, 157680, Note_on_c, 4, 69, 110
5, 157915, Note_off_c, 4, 69, 127
5, 157920, Note_on_c, 4, 72, 110
5, 158155, Note_off_c, 4, 72, 127
5, 158159, Note_on_c, 4, 77, 110
5, 158394, Note_off_c, 4, 77, 127
5, 158399, Note_on_c, 4, 65, 110
5, 158634, Note_off_c, 4, 65, 127
5, 158639, Note_on_c, 4, 69, 110
5, 158874, Note_off_c, 4, 69, 127
5, 158879, Note_on_c, 4, 72, 110
5, 159114, Note_off_c, 4, 72, 127
5, 159119, Note_on_c, 4, 77, 110
5, 159354, Note_off_c, 4, 77, 127
5, 159359, Note_on_c, 4, 67, 110
5, 159594, Note_off_c, 4, 67, 127
5, 159599, Note_on_c, 4, 71, 110
5, 159835, Note_off_c, 4, 71, 127
5, 159840, Note_on_c, 4, 74, 110
5, 160075, Note_off_c, 4, 74, 127
5, 160080, Note_on_c, 4, 79, 110
5, 160315, Note_off_c, 4, 79, 127
5, 160320, Note_on_c, 4, 67, 110
5, 160555, Note_off_c, 4, 67, 127
5, 160560, Note_on_c, 4, 71, 110
5, 160795, Note_off_c, 4, 71, 127
5, 160800, Note_on_c, 4, 74, 110
5, 161035, Note_off_c, 4, 74, 127
5, 161039, Note_on_c, 4, 79, 110
5, 161274, Note_off_c, 4, 79, 127
5, 161279, Note_on_c, 4, 69, 110
5, 161514, Note_off_c, 4, 69, 127
5, 161519, Note_on_c, 4, 72, 110
5, 161754, Note_off_c, 4, 72, 127
5, 161759, Note_on_c, 4, 76, 110
5, 161994, Note_off_c, 4, 76, 127
5, 161999, Note_on_c, 4, 81, 110
5, 162234, Note_off_c, 4, 81, 127
5, 162239, Note_on_c, 4, 67, 110
5, 162474, Note_off_c, 4, 67, 127
5, 162479, Note_on_c, 4, 71, 110
5, 162714, Note_off_c, 4, 71, 127
5, 162720, Note_on_c, 4, 74, 110
5, 162955, Note_off_c, 4, 74, 127
5, 162960, Note_on_c, 4, 79, 110
5, 163195, Note_off_c, 4, 79, 127
5, 163200, Note_on_c, 4, 64, 110
5, 163435, Note_off_c, 4, 64, 127
5, 163440, Note_on_c, 4, 67, 110
5, 163675, Note_off_c, 4, 67, 127
5, 163680, Note_on_c, 4, 72, 110
5, 163915, Note_off_c, 4, 72, 127
5, 163919, Note_on_c, 4, 76, 110
5, 164154, Note_off_c, 4, 76, 127
5, 164159, Note_on_c, 4, 67, 110
5, 164394, Note_off_c, 4, 67, 127
5, 164399, Note_on_c, 4, 71, 110
5, 164634, Note_off_c, 4, 71, 127
5, 164639, Note_on_c, 4, 74, 110
5, 164874, Note_off_c, 4, 74, 127
5, 164879, Note_on_c, 4, 79, 110
5, 165114, Note_off_c, 4, 79, 127
5, 165119, Note_on_c, 4, 65, 110
5, 165354, Note_off_c, 4, 65, 127
5, 165359, Note_on_c, 4, 69, 110
5, 165594, Note_off_c, 4, 69, 127
5, 165600, Note_on_c, 4, 72, 110
5, 165835, Note_off_c, 4, 72, 127
5, 165840, Note_on_c, 4, 77, 110
5, 166075, Note_off_c, 4, 77, 127
5, 166080, Note_on_c, 4, 65, 110
5, 166315, Note_off_c, 4, 65, 127
5, 166320, Note_on_c, 4, 69, 110
5, 166555, Note_off_c, 4, 69, 127
5, 166560, Note_on_c, 4, 72, 110
5, 166795, Note_off_c, 4, 72, 127
5, 166799, Note_on_c, 4, 77, 110
5, 167034, Note_off_c, 4, 77, 127
5, 167039, Note_on_c, 4, 67, 110
5, 167274, Note_off_c, 4, 67, 127
5, 167279, Note_on_c, 4, 71, 110
5, 167514, Note_off_c, 4, 71, 127
5, 167519, Note_on_c, 4, 74, 110
5, 167754, Note_off_c, 4, 74, 127
5, 167759, Note_on_c, 4, 79, 110
5, 167994, Note_off_c, 4, 79, 127
5, 167999, Note_on_c, 4, 67, 110
5, 168234, Note_off_c, 4, 67, 127
5, 168239, Note_on_c, 4, 71, 110
5, 168474, Note_off_c, 4, 71, 127
5, 168480, Note_on_c, 4, 74, 110
5, 168715, Note_off_c, 4, 74, 127
5, 168720, Note_on_c, 4, 79, 110
5, 168955, Note_off_c, 4, 79, 127
5, 168960, Note_on_c, 4, 69, 110
5, 169195, Note_off_c, 4, 69, 127
5, 169200, Note_on_c, 4, 72, 110
5, 169435, Note_off_c, 4, 72, 127
5, 169440, Note_on_c, 4, 76, 110
5, 169675, Note_off_c, 4, 76, 127
5, 169680, Note_on_c, 4, 81, 110
5, 169914, Note_off_c, 4, 81, 127
5, 169919, Note_on_c, 4, 69, 110
5, 170154, Note_off_c, 4, 69, 127
5, 170159, Note_on_c, 4, 72, 110
5, 170394, Note_off_c, 4, 72, 127
5, 170399, Note_on_c, 4, 76, 110
5, 170634, Note_off_c, 4, 76, 127
5, 170639, Note_on_c, 4, 81, 110
5, 170874, Note_off_c, 4, 81, 127
5, 170879, Note_on_c, 4, 69, 110
5, 171114, Note_off_c, 4, 69, 127
5, 171119, Note_on_c, 4, 72, 110
5, 171354, Note_off_c, 4, 72, 127
5, 171360, Note_on_c, 4, 76, 110
5, 171595, Note_off_c, 4, 76, 127
5, 171600, Note_on_c, 4, 81, 110
5, 171835, Note_off_c, 4, 81, 127
5, 171840, Note_on_c, 4, 69, 110
5, 172075, Note_off_c, 4, 69, 127
5, 172080, Note_on_c, 4, 72, 110
5, 172315, Note_off_c, 4, 72, 127
5, 172320, Note_on_c, 4, 76, 110
5, 172555, Note_off_c, 4, 76, 127
5, 172560, Note_on_c, 4, 81, 110
5, 172794, Note_off_c, 4, 81, 127
5, 172799, Note_on_c, 4, 65, 110
5, 173034, Note_off_c, 4, 65, 127
5, 173039, Note_on_c, 4, 69, 110
5, 173274, Note_off_c, 4, 69, 127
5, 173279, Note_on_c, 4, 72, 110
5, 173514, Note_off_c, 4, 72, 127
5, 173519, Note_on_c, 4, 77, 110
5, 173754, Note_off_c, 4, 77, 127
5, 173759, Note_on_c, 4, 65, 110
5, 173994, Note_off_c, 4, 65, 127
5, 173999, Note_on_c, 4, 69, 110
5, 174234, Note_off_c, 4, 69, 127
5, 174239, Note_on_c, 4, 72, 110
5, 174475, Note_off_c, 4, 72, 127
5, 174480, Note_on_c, 4, 77, 110
5, 174715, Note_off_c, 4, 77, 127
5, 174720, Note_on_c, 4, 67, 110
5, 174955, Note_off_c, 4, 67, 127
5, 174960, Note_on_c, 4, 71, 110
5, 175195, Note_off_c, 4, 71, 127
5, 175200, Note_on_c, 4, 74, 110
5, 175435, Note_off_c, 4, 74, 127
5, 175440, Note_on_c, 4, 79, 110
5, 175675, Note_off_c, 4, 79, 127
5, 175679, Note_on_c, 4, 67, 110
5, 175914, Note_off_c, 4, 67, 127
5, 175919, Note_on_c, 4, 71, 110
5, 176154, Note_off_c, 4, 71, 127
5, 176159, Note_on_c, 4, 74, 110
5, 176394, Note_off_c, 4, 74, 127
5, 176399, Note_on_c, 4, 79, 110
5, 176634, Note_off_c, 4, 79, 127
5, 176639, Note_on_c, 4, 69, 110
5, 176874, Note_off_c, 4, 69, 127
5, 176879, Note_on_c, 4, 72, 110
5, 177114, Note_off_c, 4, 72, 127
5, 177119, Note_on_c, 4, 76, 110
5, 177354, Note_off_c, 4, 76, 127
5, 177360, Note_on_c, 4, 81, 110
5, 177595, Note_off_c, 4, 81, 127
5, 177600, Note_on_c, 4, 67, 110
5, 177835, Note_off_c, 4, 67, 127
5, 177840, Note_on_c, 4, 71, 110
5, 178075, Note_off_c, 4, 71, 127
5, 178080, Note_on_c, 4, 74, 110
5, 178315, Note_off_c, 4, 74, 127
5, 178320, Note_on_c, 4, 79, 110
5, 178555, Note_off_c, 4, 79, 127
5, 178559, Note_on_c, 4, 64, 110
5, 178794, Note_off_c, 4, 64, 127
5, 178799, Note_on_c, 4, 67, 110
5, 179034, Note_off_c, 4, 67, 127
5, 179039, Note_on_c, 4, 72, 110
5, 179274, Note_off_c, 4, 72, 127
5, 179279, Note_on_c, 4, 76, 110
5, 179514, Note_off_c, 4, 76, 127
5, 179519, Note_on_c, 4, 67, 110
5, 179754, Note_off_c, 4, 67, 127
5, 179759, Note_on_c, 4, 71, 110
5, 179994, Note_off_c, 4, 71, 127
5, 179999, Note_on_c, 4, 74, 110
5, 180234, Note_off_c, 4, 74, 127
5, 180240, Note_on_c, 4, 79, 110
5, 180475, Note_off_c, 4, 79, 127
5, 180480, Note_on_c, 4, 65, 110
5, 180715, Note_off_c, 4, 65, 127
5, 180720, Note_on_c, 4, 69, 110
5, 180955, Note_off_c, 4, 69, 127
5, 180960, Note_on_c, 4, 72, 110
5, 181195, Note_off_c, 4, 72, 127
5, 181200, Note_on_c, 4, 77, 110
5, 181435, Note_off_c, 4, 77, 127
5, 181439, Note_on_c, 4, 65, 110
5, 181674, Note_off_c, 4, 65, 127
5, 181679, Note_on_c, 4, 69, 110
5, 181914, Note_off_c, 4, 69, 127
5, 181919, Note_on_c, 4, 72, 110
5, 182154, Note_off_c, 4, 72, 127
5, 182159, Note_on_c, 4, 77, 110
5, 182394, Note_off_c, 4, 77, 127
5, 182399, Note_on_c, 4, 67, 110
5, 182634, Note_off_c, 4, 67, 127
5, 182639, Note_on_c, 4, 71, 110
5, 182874, Note_off_c, 4, 71, 127
5, 182879, Note_on_c, 4, 74, 110
5, 183114, Note_off_c, 4, 74, 127
5, 183120, Note_on_c, 4, 79, 110
5, 183355, Note_off_c, 4, 79, 127
5, 183360, Note_on_c, 4, 67, 110
5, 183595, Note_off_c, 4, 67, 127
5, 183600, Note_on_c, 4, 71, 110
5, 183835, Note_off_c, 4, 71, 127
5, 183840, Note_on_c, 4, 74, 110
5, 184075, Note_off_c, 4, 74, 127
5, 184080, Note_on_c, 4, 79, 110
5, 184315, Note_off_c, 4, 79, 127
5, 184319, Note_on_c, 4, 64, 110
5, 184554, Note_off_c, 4, 64, 127
5, 184559, Note_on_c, 4, 67, 110
5, 184794, Note_off_c, 4, 67, 127
5, 184799, Note_on_c, 4, 72, 110
5, 185034, Note_off_c, 4, 72, 127
5, 185039, Note_on_c, 4, 76, 110
5, 185274, Note_off_c, 4, 76, 127
5, 185279, Note_on_c, 4, 64, 110
5, 185514, Note_off_c, 4, 64, 127
5, 185519, Note_on_c, 4, 67, 110
5, 185754, Note_off_c, 4, 67, 127
5, 185759, Note_on_c, 4, 72, 110
5, 185994, Note_off_c, 4, 72, 127
5, 186000, Note_on_c, 4, 76, 110
5, 186235, Note_off_c, 4, 76, 127
5, 186240, Note_on_c, 4, 64, 110
5, 186475, Note_off_c, 4, 64, 127
5, 186480, Note_on_c, 4, 67, 110
5, 186715, Note_off_c, 4, 67, 127
5, 186720, Note_on_c, 4, 72, 110
5, 186955, Note_off_c, 4, 72, 127
5, 186960, Note_on_c, 4, 76, 110
5, 187195, Note_off_c, 4, 76, 127
5, 187200, Note_on_c, 4, 64, 110
5, 187434, Note_off_c, 4, 64, 127
5, 187439, Note_on_c, 4, 67, 110
5, 187674, Note_off_c, 4, 67, 127
5, 187679, Note_on_c, 4, 72, 110
5, 187914, Note_off_c, 4, 72, 127
5, 187919, Note_on_c, 4, 76, 110
5, 188154, Note_off_c, 4, 76, 127
5, 188159, Note_on_c, 4, 72, 110
5, 188394, Note_off_c, 4, 72, 127
5, 188399, Note_on_c, 4, 72, 110
5, 188634, Note_off_c, 4, 72, 127
5, 188639, Note_on_c, 4, 72, 110
5, 188874, Note_off_c, 4, 72, 127
5, 188879, Note_on_c, 4, 74, 110
5, 189355, Note_off_c, 4, 74, 127
5, 189360, Note_on_c, 4, 71, 110
5, 189835, Note_off_c, 4, 71, 127
5, 189840, Note_on_c, 4, 71, 110
5, 190315, Note_off_c, 4, 71, 127
5, 190319, Note_on_c, 4, 72, 110
5, 190554, Note_off_c, 4, 72, 127
5, 190559, Note_on_c, 4, 72, 110
5, 191879, Note_off_c, 4, 72, 127
5, 192000, Note_on_c, 4, 72, 110
5, 192235, Note_off_c, 4, 72, 127
5, 192240, Note_on_c, 4, 72, 110
5, 192475, Note_off_c, 4, 72, 127
5, 192480, Note_on_c, 4, 72, 110
5, 192715, Note_off_c, 4, 72, 127
5, 192720, Note_on_c, 4, 74, 110
5, 193195, Note_off_c, 4, 74, 127
5, 193199, Note_on_c, 4, 71, 110
5, 193674, Note_off_c, 4, 71, 127
5, 193679, Note_on_c, 4, 71, 110
5, 194154, Note_off_c, 4, 71, 127
5, 194159, Note_on_c, 4, 72, 110
5, 194394, Note_off_c, 4, 72, 127
5, 194399, Note_on_c, 4, 72, 110
5, 195719, Note_off_c, 4, 72, 127
5, 195840, Note_on_c, 4, 72, 110
5, 196075, Note_off_c, 4, 72, 127
5, 196079, Note_on_c, 4, 72, 110
5, 196314, Note_off_c, 4, 72, 127
5, 196319, Note_on_c, 4, 72, 110
5, 196554, Note_off_c, 4, 72, 127
5, 196559, Note_on_c, 4, 74, 110
5, 197034, Note_off_c, 4, 74, 127
5, 197039, Note_on_c, 4, 71, 110
5, 197514, Note_off_c, 4, 71, 127
5, 197519, Note_on_c, 4, 71, 110
5, 197995, Note_off_c, 4, 71, 127
5, 198000, Note_on_c, 4, 72, 110
5, 198235, Note_off_c, 4, 72, 127
5, 198240, Note_on_c, 4, 72, 110
5, 199560, Note_off_c, 4, 72, 127
5, 199679, Note_on_c, 4, 72, 110
5, 199914, Note_off_c, 4, 72, 127
5, 199919, Note_on_c, 4, 72, 110
5, 200154, Note_off_c, 4, 72, 127
5, 200159, Note_on_c, 4, 72, 110
5, 200394, Note_off_c, 4, 72, 127
5, 200399, Note_on_c, 4, 72, 110
5, 200634, Note_off_c, 4, 72, 127
5, 200640, Note_on_c, 4, 72, 110
5, 200875, Note_off_c, 4, 72, 127
5, 200880, Note_on_c, 4, 72, 110
5, 201115, Note_off_c, 4, 72, 127
5, 201120, Note_on_c, 4, 72, 110
5, 201355, Note_off_c, 4, 72, 127
5, 201360, Note_on_c, 4, 72, 110
5, 201595, Note_off_c, 4, 72, 127
5, 201600, Note_on_c, 4, 71, 110
5, 201835, Note_off_c, 4, 71, 127
5, 201840, Note_on_c, 4, 71, 110
5, 202074, Note_off_c, 4, 71, 127
5, 202079, Note_on_c, 4, 71, 110
5, 202314, Note_off_c, 4, 71, 127
5, 202319, Note_on_c, 4, 71, 110
5, 202554, Note_off_c, 4, 71, 127
5, 202559, Note_on_c, 4, 71, 110
5, 202794, Note_off_c, 4, 71, 127
5, 202799, Note_on_c, 4, 71, 110
5, 203034, Note_off_c, 4, 71, 127
5, 203039, Note_on_c, 4, 71, 110
5, 203274, Note_off_c, 4, 71, 127
5, 203279, Note_on_c, 4, 71, 110
5, 203514, Note_off_c, 4, 71, 127
5, 203519, Note_on_c, 4, 72, 110
5, 203755, Note_off_c, 4, 72, 127
5, 203760, Note_on_c, 4, 72, 110
5, 203995, Note_off_c, 4, 72, 127
5, 204000, Note_on_c, 4, 72, 110
5, 204235, Note_off_c, 4, 72, 127
5, 204240, Note_on_c, 4, 74, 110
5, 204715, Note_off_c, 4, 74, 127
5, 204720, Note_on_c, 4, 71, 110
5, 205194, Note_off_c, 4, 71, 127
5, 205199, Note_on_c, 4, 71, 110
5, 205674, Note_off_c, 4, 71, 127
5, 205679, Note_on_c, 4, 72, 110
5, 205914, Note_off_c, 4, 72, 127
5, 205919, Note_on_c, 4, 72, 110
5, 207239, Note_off_c, 4, 72, 127
5, 207360, Note_on_c, 4, 72, 110
5, 207595, Note_off_c, 4, 72, 127
5, 207600, Note_on_c, 4, 72, 110
5, 207835, Note_off_c, 4, 72, 127
5, 207839, Note_on_c, 4, 72, 110
5, 208074, Note_off_c, 4, 72, 127
5, 208079, Note_on_c, 4, 74, 110
5, 208554, Note_off_c, 4, 74, 127
5, 208559, Note_on_c, 4, 71, 110
5, 209034, Note_off_c, 4, 71, 127
5, 209039, Note_on_c, 4, 71, 110
5, 209514, Note_off_c, 4, 71, 127
5, 209520, Note_on_c, 4, 72, 110
5, 209755, Note_off_c, 4, 72, 127
5, 209760, Note_on_c, 4, 72, 110
5, 211080, Note_off_c, 4, 72, 127
5, 211199, Note_on_c, 4, 72, 110
5, 211434, Note_off_c, 4, 72, 127
5, 211439, Note_on_c, 4, 72, 110
5, 211674, Note_off_c, 4, 72, 127
5, 211679, Note_on_c, 4, 72, 110
5, 211914, Note_off_c, 4, 72, 127
5, 211919, Note_on_c, 4, 74, 110
5, 212394, Note_off_c, 4, 74, 127
5, 212400, Note_on_c, 4, 71, 110
5, 212875, Note_off_c, 4, 71, 127
5, 212880, Note_on_c, 4, 71, 110
5, 213355, Note_off_c, 4, 71, 127
5, 213360, Note_on_c, 4, 72, 110
5, 213595, Note_off_c, 4, 72, 127
5, 213599, Note_on_c, 4, 72, 110
5, 214920, Note_off_c, 4, 72, 127
5, 215039, Note_on_c, 4, 72, 110
5, 215274, Note_off_c, 4, 72, 127
5, 215280, Note_on_c, 4, 72, 110
5, 215515, Note_off_c, 4, 72, 127
5, 215520, Note_on_c, 4, 72, 110
5, 215755, Note_off_c, 4, 72, 127
5, 215760, Note_on_c, 4, 72, 110
5, 215995, Note_off_c, 4, 72, 127
5, 216000, Note_on_c, 4, 72, 110
5, 216235, Note_off_c, 4, 72, 127
5, 216240, Note_on_c, 4, 72, 110
5, 216475, Note_off_c, 4, 72, 127
5, 216480, Note_on_c, 4, 72, 110
5, 216714, Note_off_c, 4, 72, 127
5, 216719, Note_on_c, 4, 72, 110
5, 216954, Note_off_c, 4, 72, 127
5, 216959, Note_on_c, 4, 74, 110
5, 217194, Note_off_c, 4, 74, 127
5, 217199, Note_on_c, 4, 74, 110
5, 217434, Note_off_c, 4, 74, 127
5, 217439, Note_on_c, 4, 74, 110
5, 217674, Note_off_c, 4, 74, 127
5, 217679, Note_on_c, 4, 74, 110
5, 217914, Note_off_c, 4, 74, 127
5, 217919, Note_on_c, 4, 74, 110
5, 218154, Note_off_c, 4, 74, 127
5, 218160, Note_on_c, 4, 74, 110
5, 218395, Note_off_c, 4, 74, 127
5, 218400, Note_on_c, 4, 74, 110
5, 218635, Note_off_c, 4, 74, 127
5, 218640, Note_on_c, 4, 74, 110
5, 218875, Note_off_c, 4, 74, 127
5, 218880, Note_on_c, 4, 76, 110
5, 219115, Note_off_c, 4, 76, 127
5, 219120, Note_on_c, 4, 76, 110
5, 219355, Note_off_c, 4, 76, 127
5, 219839, Note_on_c, 4, 76, 110
5, 220074, Note_off_c, 4, 76, 127
5, 220079, Note_on_c, 4, 76, 110
5, 220314, Note_off_c, 4, 76, 127
5, 220319, Note_on_c, 4, 74, 110
5, 220554, Note_off_c, 4, 74, 127
5, 220559, Note_on_c, 4, 76, 110
5, 221639, Note_off_c, 4, 76, 127
5, 221760, Note_on_c, 4, 69, 110
5, 223560, Note_off_c, 4, 69, 127
5, 224640, End_track
6, 0, Start_track
6, 0, Title_t, "Track6"
6, 65279, Note_on_c, 5, 65, 110
6, 65279, Control_c, 5, 91, 0
6, 65279, Control_c, 5, 7, 127
6, 65279, Control_c, 5, 93, 0
6, 65279, Control_c, 5, 10, 64
6, 65279, Control_c, 5, 121, 0
6, 65279, Program_c, 5, 82
6, 65279, Control_c, 5, 32, 0
6, 65279, Control_c, 5, 0, 0
6, 65919, Note_off_c, 5, 65, 127
6, 65999, Note_on_c, 5, 69, 110
6, 66640, Note_off_c, 5, 69, 127
6, 66720, Note_on_c, 5, 72, 110
6, 67120, Note_off_c, 5, 72, 127
6, 67200, Note_on_c, 5, 71, 110
6, 67839, Note_off_c, 5, 71, 127
6, 67919, Note_on_c, 5, 72, 110
6, 68035, Note_off_c, 5, 72, 127
6, 68040, Note_on_c, 5, 71, 110
6, 68154, Note_off_c, 5, 71, 127
6, 68159, Note_on_c, 5, 69, 110
6, 68559, Note_off_c, 5, 69, 127
6, 68639, Note_on_c, 5, 71, 110
6, 69040, Note_off_c, 5, 71, 127
6, 69120, Note_on_c, 5, 72, 110
6, 69959, Note_off_c, 5, 72, 127
6, 70080, Note_on_c, 5, 71, 110
6, 70315, Note_off_c, 5, 71, 127
6, 70319, Note_on_c, 5, 72, 110
6, 70554, Note_off_c, 5, 72, 127
6, 70559, Note_on_c, 5, 74, 110
6, 70959, Note_off_c, 5, 74, 127
6, 71039, Note_on_c, 5, 76, 110
6, 71879, Note_off_c, 5, 76, 127
6, 72000, Note_on_c, 5, 74, 110
6, 72839, Note_off_c, 5, 74, 127
6, 72960, Note_on_c, 5, 65, 110
6, 73599, Note_off_c, 5, 65, 127
6, 73679, Note_on_c, 5, 69, 110
6, 74319, Note_off_c, 5, 69, 127
6, 74399, Note_on_c, 5, 72, 110
6, 74799, Note_off_c, 5, 72, 127
6, 74880, Note_on_c, 5, 71, 110
6, 75520, Note_off_c, 5, 71, 127
6, 75600, Note_on_c, 5, 72, 110
6, 75714, Note_off_c, 5, 72, 127
6, 75719, Note_on_c, 5, 71, 110
6, 75835, Note_off_c, 5, 71, 127
6, 75840, Note_on_c, 5, 69, 110
6, 76239, Note_off_c, 5, 69, 127
6, 76319, Note_on_c, 5, 71, 110
6, 76719, Note_off_c, 5, 71, 127
6, 76799, Note_on_c, 5, 72, 110
6, 77639, Note_off_c, 5, 72, 127
6, 77760, Note_on_c, 5, 71, 110
6, 78599, Note_off_c, 5, 71, 127
6, 78720, Note_on_c, 5, 69, 110
6, 80519, Note_off_c, 5, 69, 127
6, 80639, Note_on_c, 5, 65, 110
6, 81280, Note_off_c, 5, 65, 127
6, 81360, Note_on_c, 5, 69, 110
6, 81999, Note_off_c, 5, 69, 127
6, 82079, Note_on_c, 5, 72, 110
6, 82479, Note_off_c, 5, 72, 127
6, 82559, Note_on_c, 5, 71, 110
6, 83199, Note_off_c, 5, 71, 127
6, 83279, Note_on_c, 5, 72, 110
6, 83395, Note_off_c, 5, 72, 127
6, 83399, Note_on_c, 5, 71, 110
6, 83514, Note_off_c, 5, 71, 127
6, 83519, Note_on_c, 5, 69, 110
6, 83920, Note_off_c, 5, 69, 127
6, 84000, Note_on_c, 5, 71, 110
6, 84400, Note_off_c, 5, 71, 127
6, 84480, Note_on_c, 5, 72, 110
6, 85320, Note_off_c, 5, 72, 127
6, 85439, Note_on_c, 5, 71, 110
6, 85674, Note_off_c, 5, 71, 127
6, 85679, Note_on_c, 5, 72, 110
6, 85914, Note_off_c, 5, 72, 127
6, 85919, Note_on_c, 5, 74, 110
6, 86319, Note_off_c, 5, 74, 127
6, 86399, Note_on_c, 5, 76, 110
6, 87239, Note_off_c, 5, 76, 127
6, 87360, Note_on_c, 5, 74, 110
6, 88200, Note_off_c, 5, 74, 127
6, 88319, Note_on_c, 5, 65, 110
6, 88959, Note_off_c, 5, 65, 127
6, 89039, Note_on_c, 5, 69, 110
6, 89680, Note_off_c, 5, 69, 127
6, 89760, Note_on_c, 5, 72, 110
6, 90160, Note_off_c, 5, 72, 127
6, 90240, Note_on_c, 5, 71, 110
6, 90879, Note_off_c, 5, 71, 127
6, 90959, Note_on_c, 5, 72, 110
6, 91074, Note_off_c, 5, 72, 127
6, 91080, Note_on_c, 5, 71, 110
6, 91194, Note_off_c, 5, 71, 127
6, 91199, Note_on_c, 5, 69, 110
6, 91599, Note_off_c, 5, 69, 127
6, 91679, Note_on_c, 5, 71, 110
6, 92079, Note_off_c, 5, 71, 127
6, 92159, Note_on_c, 5, 72, 110
6, 93960, Note_off_c, 5, 72, 127
6, 157440, Note_on_c, 5, 65, 110
6, 158079, Note_off_c, 5, 65, 127
6, 158159, Note_on_c, 5, 69, 110
6, 158799, Note_off_c, 5, 69, 127
6, 158879, Note_on_c, 5, 72, 110
6, 159279, Note_off_c, 5, 72, 127
6, 159359, Note_on_c, 5, 71, 110
6, 160000, Note_off_c, 5, 71, 127
6, 160080, Note_on_c, 5, 72, 110
6, 160194, Note_off_c, 5, 72, 127
6, 160199, Note_on_c, 5, 71, 110
6, 160315, Note_off_c, 5, 71, 127
6, 160320, Note_on_c, 5, 69, 110
6, 160720, Note_off_c, 5, 69, 127
6, 160800, Note_on_c, 5, 71, 110
6, 161199, Note_off_c, 5, 71, 127
6, 161279, Note_on_c, 5, 72, 110
6, 162120, Note_off_c, 5, 72, 127
6, 162239, Note_on_c, 5, 71, 110
6, 162474, Note_off_c, 5, 71, 127
6, 162479, Note_on_c, 5, 72, 110
6, 162714, Note_off_c, 5, 72, 127
6, 162720, Note_on_c, 5, 74, 110
6, 163120, Note_off_c, 5, 74, 127
6, 163200, Note_on_c, 5, 76, 110
6, 164040, Note_off_c, 5, 76, 127
6, 164159, Note_on_c, 5, 74, 110
6, 165000, Note_off_c, 5, 74, 127
6, 165119, Note_on_c, 5, 65, 110
6, 165760, Note_off_c, 5, 65, 127
6, 165840, Note_on_c, 5, 69, 110
6, 166480, Note_off_c, 5, 69, 127
6, 166560, Note_on_c, 5, 72, 110
6, 166959, Note_off_c, 5, 72, 127
6, 167039, Note_on_c, 5, 71, 110
6, 167679, Note_off_c, 5, 71, 127
6, 167759, Note_on_c, 5, 72, 110
6, 167875, Note_off_c, 5, 72, 127
6, 167880, Note_on_c, 5, 71, 110
6, 167994, Note_off_c, 5, 71, 127
6, 167999, Note_on_c, 5, 69, 110
6, 168399, Note_off_c, 5, 69, 127
6, 168480, Note_on_c, 5, 71, 110
6, 168880, Note_off_c, 5, 71, 127
6, 168960, Note_on_c, 5, 72, 110
6, 169799, Note_off_c, 5, 72, 127
6, 169919, Note_on_c, 5, 71, 110
6, 170760, Note_off_c, 5, 71, 127
6, 170879, Note_on_c, 5, 69, 110
6, 172679, Note_off_c, 5, 69, 127
6, 172799, Note_on_c, 5, 65, 110
6, 173439, Note_off_c, 5, 65, 127
6, 173519, Note_on_c, 5, 69, 110
6, 174159, Note_off_c, 5, 69, 127
6, 174239, Note_on_c, 5, 72, 110
6, 174640, Note_off_c, 5, 72, 127
6, 174720, Note_on_c, 5, 71, 110
6, 175360, Note_off_c, 5, 71, 127
6, 175440, Note_on_c, 5, 72, 110
6, 175554, Note_off_c, 5, 72, 127
6, 175559, Note_on_c, 5, 71, 110
6, 175675, Note_off_c, 5, 71, 127
6, 175679, Note_on_c, 5, 69, 110
6, 176079, Note_off_c, 5, 69, 127
6, 176159, Note_on_c, 5, 71, 110
6, 176559, Note_off_c, 5, 71, 127
6, 176639, Note_on_c, 5, 72, 110
6, 177479, Note_off_c, 5, 72, 127
6, 177600, Note_on_c, 5, 71, 110
6, 177835, Note_off_c, 5, 71, 127
6, 177840, Note_on_c, 5, 72, 110
6, 178075, Note_off_c, 5, 72, 127
6, 178080, Note_on_c, 5, 74, 110
6, 178479, Note_off_c, 5, 74, 127
6, 178559, Note_on_c, 5, 76, 110
6, 179400, Note_off_c, 5, 76, 127
6, 179519, Note_on_c, 5, 74, 110
6, 180359, Note_off_c, 5, 74, 127
6, 180480, Note_on_c, 5, 65, 110
6, 181120, Note_off_c, 5, 65, 127
6, 181200, Note_on_c, 5, 69, 110
6, 181839, Note_off_c, 5, 69, 127
6, 181919, Note_on_c, 5, 72, 110
6, 182319, Note_off_c, 5, 72, 127
6, 182399, Note_on_c, 5, 71, 110
6, 183039, Note_off_c, 5, 71, 127
6, 183120, Note_on_c, 5, 72, 110
6, 183234, Note_off_c, 5, 72, 127
6, 183239, Note_on_c, 5, 71, 110
6, 183355, Note_off_c, 5, 71, 127
6, 183360, Note_on_c, 5, 69, 110
6, 183760, Note_off_c, 5, 69, 127
6, 183840, Note_on_c, 5, 71, 110
6, 184240, Note_off_c, 5, 71, 127
6, 184319, Note_on_c, 5, 72, 110
6, 186119, Note_off_c, 5, 72, 127
6, 224640, End_track
7, 0, Start_track
7, 0, Title_t, "Tempo Track"
7, 0, Control_c, 0, 0, 0
7, 0, Control_c, 0, 10, 64
7, 0, Control_c, 0, 121, 0
7, 0, Control_c, 0, 10, 64
7, 0, Program_c, 0, 0
7, 0, Control_c, 0, 7, 127
7, 0, Control_c, 0, 91, 0
7, 0, Control_c, 0, 32, 0
7, 0, Control_c, 0, 7, 100
7, 0, Control_c, 0, 93, 0
7, 224640, End_track
0, 0, End_of_file
