0, 0, Header, 1, 8, 480
1, 0, Start_track
1, 0, Copyright_t, "Copyright (c) xxxx Copyright Holder"
1, 0, Cue_point_t, "Created by Rosegarden"
1, 0, Cue_point_t, "http://www.rosegardenmusic.com/"
1, 0, Tempo, 397350
1, 0, Time_signature, 4, 2, 24, 8
1, 295679, End_track
2, 0, Start_track
2, 0, Title_t, "Track2"
2, 1919, Program_c, 1, 8
2, 1919, Control_c, 1, 32, 0
2, 1919, Control_c, 1, 0, 0
2, 1919, Note_on_c, 1, 94, 110
2, 1919, Control_c, 1, 91, 0
2, 1919, Control_c, 1, 7, 127
2, 1919, Control_c, 1, 93, 0
2, 1919, Control_c, 1, 10, 64
2, 1919, Control_c, 1, 121, 0
2, 2155, Note_off_c, 1, 94, 127
2, 2159, Note_on_c, 1, 101, 110
2, 2394, Note_off_c, 1, 101, 127
2, 2399, Note_on_c, 1, 106, 110
2, 2634, Note_off_c, 1, 106, 127
2, 2639, Note_on_c, 1, 94, 110
2, 2874, Note_off_c, 1, 94, 127
2, 2879, Note_on_c, 1, 101, 110
2, 3114, Note_off_c, 1, 101, 127
2, 3120, Note_on_c, 1, 104, 110
2, 3354, Note_off_c, 1, 104, 127
2, 3360, Note_on_c, 1, 94, 110
2, 3595, Note_off_c, 1, 94, 127
2, 3600, Note_on_c, 1, 101, 110
2, 3835, Note_off_c, 1, 101, 127
2, 3839, Note_on_c, 1, 94, 110
2, 4075, Note_off_c, 1, 94, 127
2, 4079, Note_on_c, 1, 101, 110
2, 4314, Note_off_c, 1, 101, 127
2, 4319, Note_on_c, 1, 106, 110
2, 4554, Note_off_c, 1, 106, 127
2, 4559, Note_on_c, 1, 94, 110
2, 4794, Note_off_c, 1, 94, 127
2, 4800, Note_on_c, 1, 101, 110
2, 5034, Note_off_c, 1, 101, 127
2, 5040, Note_on_c, 1, 104, 110
2, 5274, Note_off_c, 1, 104, 127
2, 5280, Note_on_c, 1, 94, 110
2, 5515, Note_off_c, 1, 94, 127
2, 5519, Note_on_c, 1, 101, 110
2, 5755, Note_off_c, 1, 101, 127
2, 5759, Note_on_c, 1, 94, 110
2, 5995, Note_off_c, 1, 94, 127
2, 5999, Note_on_c, 1, 101, 110
2, 6234, Note_off_c, 1, 101, 127
2, 6239, Note_on_c, 1, 106, 110
2, 6474, Note_off_c, 1, 106, 127
2, 6479, Note_on_c, 1, 94, 110
2, 6714, Note_off_c, 1, 94, 127
2, 6720, Note_on_c, 1, 101, 110
2, 6954, Note_off_c, 1, 101, 127
2, 6960, Note_on_c, 1, 104, 110
2, 7195, Note_off_c, 1, 104, 127
2, 7200, Note_on_c, 1, 94, 110
2, 7435, Note_off_c, 1, 94, 127
2, 7439, Note_on_c, 1, 101, 110
2, 7675, Note_off_c, 1, 101, 127
2, 7679, Note_on_c, 1, 94, 110
2, 7914, Note_off_c, 1, 94, 127
2, 7919, Note_on_c, 1, 101, 110
2, 8154, Note_off_c, 1, 101, 127
2, 8159, Note_on_c, 1, 106, 110
2, 8394, Note_off_c, 1, 106, 127
2, 8399, Note_on_c, 1, 94, 110
2, 8634, Note_off_c, 1, 94, 127
2, 8640, Note_on_c, 1, 101, 110
2, 8874, Note_off_c, 1, 101, 127
2, 8880, Note_on_c, 1, 104, 110
2, 9115, Note_off_c, 1, 104, 127
2, 9120, Note_on_c, 1, 94, 110
2, 9355, Note_off_c, 1, 94, 127
2, 9359, Note_on_c, 1, 101, 110
2, 9595, Note_off_c, 1, 101, 127
2, 9599, Note_on_c, 1, 94, 110
2, 9834, Note_off_c, 1, 94, 127
2, 9839, Note_on_c, 1, 101, 110
2, 10074, Note_off_c, 1, 101, 127
2, 10079, Note_on_c, 1, 106, 110
2, 10314, Note_off_c, 1, 106, 127
2, 10320, Note_on_c, 1, 94, 110
2, 10554, Note_off_c, 1, 94, 127
2, 10560, Note_on_c, 1, 101, 110
2, 10795, Note_off_c, 1, 101, 127
2, 10800, Note_on_c, 1, 104, 110
2, 11035, Note_off_c, 1, 104, 127
2, 11039, Note_on_c, 1, 94, 110
2, 11275, Note_off_c, 1, 94, 127
2, 11279, Note_on_c, 1, 101, 110
2, 11515, Note_off_c, 1, 101, 127
2, 11519, Note_on_c, 1, 94, 110
2, 11754, Note_off_c, 1, 94, 127
2, 11759, Note_on_c, 1, 101, 110
2, 11994, Note_off_c, 1, 101, 127
2, 11999, Note_on_c, 1, 106, 110
2, 12234, Note_off_c, 1, 106, 127
2, 12240, Note_on_c, 1, 94, 110
2, 12474, Note_off_c, 1, 94, 127
2, 12480, Note_on_c, 1, 101, 110
2, 12715, Note_off_c, 1, 101, 127
2, 12720, Note_on_c, 1, 104, 110
2, 12955, Note_off_c, 1, 104, 127
2, 12959, Note_on_c, 1, 94, 110
2, 13195, Note_off_c, 1, 94, 127
2, 13199, Note_on_c, 1, 101, 110
2, 13434, Note_off_c, 1, 101, 127
2, 13439, Note_on_c, 1, 94, 110
2, 13674, Note_off_c, 1, 94, 127
2, 13679, Note_on_c, 1, 101, 110
2, 13914, Note_off_c, 1, 101, 127
2, 13920, Note_on_c, 1, 106, 110
2, 14154, Note_off_c, 1, 106, 127
2, 14160, Note_on_c, 1, 94, 110
2, 14394, Note_off_c, 1, 94, 127
2, 14400, Note_on_c, 1, 101, 110
2, 14635, Note_off_c, 1, 101, 127
2, 14640, Note_on_c, 1, 104, 110
2, 14875, Note_off_c, 1, 104, 127
2, 14879, Note_on_c, 1, 94, 110
2, 15115, Note_off_c, 1, 94, 127
2, 15119, Note_on_c, 1, 101, 110
2, 15354, Note_off_c, 1, 101, 127
2, 15359, Note_on_c, 1, 94, 110
2, 15594, Note_off_c, 1, 94, 127
2, 15599, Note_on_c, 1, 101, 110
2, 15834, Note_off_c, 1, 101, 127
2, 15840, Note_on_c, 1, 106, 110
2, 16074, Note_off_c, 1, 106, 127
2, 16080, Note_on_c, 1, 94, 110
2, 16315, Note_off_c, 1, 94, 127
2, 16320, Note_on_c, 1, 101, 110
2, 16555, Note_off_c, 1, 101, 127
2, 16559, Note_on_c, 1, 104, 110
2, 16795, Note_off_c, 1, 104, 127
2, 16799, Note_on_c, 1, 94, 110
2, 17035, Note_off_c, 1, 94, 127
2, 17039, Note_on_c, 1, 101, 110
2, 17274, Note_off_c, 1, 101, 127
2, 17279, Note_on_c, 1, 94, 110
2, 17514, Note_off_c, 1, 94, 127
2, 17519, Note_on_c, 1, 101, 110
2, 17754, Note_off_c, 1, 101, 127
2, 17760, Note_on_c, 1, 106, 110
2, 17994, Note_off_c, 1, 106, 127
2, 18000, Note_on_c, 1, 94, 110
2, 18235, Note_off_c, 1, 94, 127
2, 18240, Note_on_c, 1, 101, 110
2, 18475, Note_off_c, 1, 101, 127
2, 18479, Note_on_c, 1, 104, 110
2, 18715, Note_off_c, 1, 104, 127
2, 18719, Note_on_c, 1, 94, 110
2, 18954, Note_off_c, 1, 94, 127
2, 18959, Note_on_c, 1, 101, 110
2, 19194, Note_off_c, 1, 101, 127
2, 19199, Note_on_c, 1, 94, 110
2, 19434, Note_off_c, 1, 94, 127
2, 19440, Note_on_c, 1, 101, 110
2, 19674, Note_off_c, 1, 101, 127
2, 19680, Note_on_c, 1, 106, 110
2, 19914, Note_off_c, 1, 106, 127
2, 19920, Note_on_c, 1, 94, 110
2, 20155, Note_off_c, 1, 94, 127
2, 20160, Note_on_c, 1, 101, 110
2, 20395, Note_off_c, 1, 101, 127
2, 20399, Note_on_c, 1, 104, 110
2, 20635, Note_off_c, 1, 104, 127
2, 20639, Note_on_c, 1, 94, 110
2, 20874, Note_off_c, 1, 94, 127
2, 20879, Note_on_c, 1, 101, 110
2, 21114, Note_off_c, 1, 101, 127
2, 21119, Note_on_c, 1, 94, 110
2, 21354, Note_off_c, 1, 94, 127
2, 21360, Note_on_c, 1, 101, 110
2, 21594, Note_off_c, 1, 101, 127
2, 21600, Note_on_c, 1, 106, 110
2, 21835, Note_off_c, 1, 106, 127
2, 21840, Note_on_c, 1, 94, 110
2, 22075, Note_off_c, 1, 94, 127
2, 22079, Note_on_c, 1, 101, 110
2, 22315, Note_off_c, 1, 101, 127
2, 22319, Note_on_c, 1, 104, 110
2, 22554, Note_off_c, 1, 104, 127
2, 22559, Note_on_c, 1, 94, 110
2, 22794, Note_off_c, 1, 94, 127
2, 22799, Note_on_c, 1, 101, 110
2, 23034, Note_off_c, 1, 101, 127
2, 23039, Note_on_c, 1, 94, 110
2, 23274, Note_off_c, 1, 94, 127
2, 23280, Note_on_c, 1, 101, 110
2, 23514, Note_off_c, 1, 101, 127
2, 23520, Note_on_c, 1, 106, 110
2, 23755, Note_off_c, 1, 106, 127
2, 23760, Note_on_c, 1, 94, 110
2, 23995, Note_off_c, 1, 94, 127
2, 23999, Note_on_c, 1, 101, 110
2, 24235, Note_off_c, 1, 101, 127
2, 24239, Note_on_c, 1, 104, 110
2, 24474, Note_off_c, 1, 104, 127
2, 24479, Note_on_c, 1, 94, 110
2, 24714, Note_off_c, 1, 94, 127
2, 24719, Note_on_c, 1, 101, 110
2, 24954, Note_off_c, 1, 101, 127
2, 24960, Note_on_c, 1, 94, 110
2, 25194, Note_off_c, 1, 94, 127
2, 25200, Note_on_c, 1, 101, 110
2, 25434, Note_off_c, 1, 101, 127
2, 25440, Note_on_c, 1, 106, 110
2, 25675, Note_off_c, 1, 106, 127
2, 25680, Note_on_c, 1, 94, 110
2, 25915, Note_off_c, 1, 94, 127
2, 25919, Note_on_c, 1, 101, 110
2, 26155, Note_off_c, 1, 101, 127
2, 26159, Note_on_c, 1, 104, 110
2, 26394, Note_off_c, 1, 104, 127
2, 26399, Note_on_c, 1, 94, 110
2, 26634, Note_off_c, 1, 94, 127
2, 26639, Note_on_c, 1, 101, 110
2, 26874, Note_off_c, 1, 101, 127
2, 26880, Note_on_c, 1, 94, 110
2, 27114, Note_off_c, 1, 94, 127
2, 27120, Note_on_c, 1, 101, 110
2, 27355, Note_off_c, 1, 101, 127
2, 27360, Note_on_c, 1, 106, 110
2, 27595, Note_off_c, 1, 106, 127
2, 27599, Note_on_c, 1, 94, 110
2, 27835, Note_off_c, 1, 94, 127
2, 27839, Note_on_c, 1, 101, 110
2, 28074, Note_off_c, 1, 101, 127
2, 28079, Note_on_c, 1, 104, 110
2, 28314, Note_off_c, 1, 104, 127
2, 28319, Note_on_c, 1, 94, 110
2, 28554, Note_off_c, 1, 94, 127
2, 28559, Note_on_c, 1, 101, 110
2, 28794, Note_off_c, 1, 101, 127
2, 28800, Note_on_c, 1, 94, 110
2, 29034, Note_off_c, 1, 94, 127
2, 29040, Note_on_c, 1, 101, 110
2, 29275, Note_off_c, 1, 101, 127
2, 29280, Note_on_c, 1, 106, 110
2, 29515, Note_off_c, 1, 106, 127
2, 29519, Note_on_c, 1, 94, 110
2, 29755, Note_off_c, 1, 94, 127
2, 29759, Note_on_c, 1, 101, 110
2, 29994, Note_off_c, 1, 101, 127
2, 29999, Note_on_c, 1, 104, 110
2, 30234, Note_off_c, 1, 104, 127
2, 30239, Note_on_c, 1, 94, 110
2, 30474, Note_off_c, 1, 94, 127
2, 30480, Note_on_c, 1, 101, 110
2, 30714, Note_off_c, 1, 101, 127
2, 30720, Note_on_c, 1, 94, 110
2, 30954, Note_off_c, 1, 94, 127
2, 30960, Note_on_c, 1, 101, 110
2, 31195, Note_off_c, 1, 101, 127
2, 31199, Note_on_c, 1, 106, 110
2, 31435, Note_off_c, 1, 106, 127
2, 31439, Note_on_c, 1, 94, 110
2, 31675, Note_off_c, 1, 94, 127
2, 31679, Note_on_c, 1, 101, 110
2, 31914, Note_off_c, 1, 101, 127
2, 31919, Note_on_c, 1, 104, 110
2, 32154, Note_off_c, 1, 104, 127
2, 32159, Note_on_c, 1, 94, 110
2, 32394, Note_off_c, 1, 94, 127
2, 32400, Note_on_c, 1, 101, 110
2, 32634, Note_off_c, 1, 101, 127
2, 32640, Note_on_c, 1, 94, 110
2, 32875, Note_off_c, 1, 94, 127
2, 32880, Note_on_c, 1, 101, 110
2, 33115, Note_off_c, 1, 101, 127
2, 33119, Note_on_c, 1, 106, 110
2, 33355, Note_off_c, 1, 106, 127
2, 33359, Note_on_c, 1, 94, 110
2, 33594, Note_off_c, 1, 94, 127
2, 33599, Note_on_c, 1, 101, 110
2, 33834, Note_off_c, 1, 101, 127
2, 33839, Note_on_c, 1, 104, 110
2, 34074, Note_off_c, 1, 104, 127
2, 34079, Note_on_c, 1, 94, 110
2, 34314, Note_off_c, 1, 94, 127
2, 34320, Note_on_c, 1, 101, 110
2, 34554, Note_off_c, 1, 101, 127
2, 34560, Note_on_c, 1, 94, 110
2, 34795, Note_off_c, 1, 94, 127
2, 34800, Note_on_c, 1, 101, 110
2, 35035, Note_off_c, 1, 101, 127
2, 35039, Note_on_c, 1, 106, 110
2, 35275, Note_off_c, 1, 106, 127
2, 35279, Note_on_c, 1, 94, 110
2, 35514, Note_off_c, 1, 94, 127
2, 35519, Note_on_c, 1, 101, 110
2, 35754, Note_off_c, 1, 101, 127
2, 35759, Note_on_c, 1, 104, 110
2, 35994, Note_off_c, 1, 104, 127
2, 36000, Note_on_c, 1, 94, 110
2, 36234, Note_off_c, 1, 94, 127
2, 36240, Note_on_c, 1, 101, 110
2, 36475, Note_off_c, 1, 101, 127
2, 36480, Note_on_c, 1, 94, 110
2, 36715, Note_off_c, 1, 94, 127
2, 36719, Note_on_c, 1, 101, 110
2, 36955, Note_off_c, 1, 101, 127
2, 36959, Note_on_c, 1, 106, 110
2, 37195, Note_off_c, 1, 106, 127
2, 37199, Note_on_c, 1, 94, 110
2, 37434, Note_off_c, 1, 94, 127
2, 37439, Note_on_c, 1, 101, 110
2, 37674, Note_off_c, 1, 101, 127
2, 37679, Note_on_c, 1, 104, 110
2, 37914, Note_off_c, 1, 104, 127
2, 37920, Note_on_c, 1, 94, 110
2, 38154, Note_off_c, 1, 94, 127
2, 38160, Note_on_c, 1, 101, 110
2, 38395, Note_off_c, 1, 101, 127
2, 38400, Note_on_c, 1, 94, 110
2, 38635, Note_off_c, 1, 94, 127
2, 38639, Note_on_c, 1, 101, 110
2, 38875, Note_off_c, 1, 101, 127
2, 38879, Note_on_c, 1, 106, 110
2, 39114, Note_off_c, 1, 106, 127
2, 39119, Note_on_c, 1, 94, 110
2, 39354, Note_off_c, 1, 94, 127
2, 39359, Note_on_c, 1, 101, 110
2, 39594, Note_off_c, 1, 101, 127
2, 39599, Note_on_c, 1, 104, 110
2, 39834, Note_off_c, 1, 104, 127
2, 39840, Note_on_c, 1, 94, 110
2, 40074, Note_off_c, 1, 94, 127
2, 40080, Note_on_c, 1, 101, 110
2, 40315, Note_off_c, 1, 101, 127
2, 40320, Note_on_c, 1, 94, 110
2, 40555, Note_off_c, 1, 94, 127
2, 40559, Note_on_c, 1, 101, 110
2, 40795, Note_off_c, 1, 101, 127
2, 40799, Note_on_c, 1, 106, 110
2, 41034, Note_off_c, 1, 106, 127
2, 41039, Note_on_c, 1, 94, 110
2, 41274, Note_off_c, 1, 94, 127
2, 41279, Note_on_c, 1, 101, 110
2, 41514, Note_off_c, 1, 101, 127
2, 41520, Note_on_c, 1, 104, 110
2, 41754, Note_off_c, 1, 104, 127
2, 41760, Note_on_c, 1, 94, 110
2, 41995, Note_off_c, 1, 94, 127
2, 42000, Note_on_c, 1, 101, 110
2, 42235, Note_off_c, 1, 101, 127
2, 42239, Note_on_c, 1, 94, 110
2, 42475, Note_off_c, 1, 94, 127
2, 42479, Note_on_c, 1, 101, 110
2, 42715, Note_off_c, 1, 101, 127
2, 42719, Note_on_c, 1, 106, 110
2, 42954, Note_off_c, 1, 106, 127
2, 42959, Note_on_c, 1, 94, 110
2, 43194, Note_off_c, 1, 94, 127
2, 43199, Note_on_c, 1, 101, 110
2, 43434, Note_off_c, 1, 101, 127
2, 43440, Note_on_c, 1, 104, 110
2, 43674, Note_off_c, 1, 104, 127
2, 43680, Note_on_c, 1, 94, 110
2, 43915, Note_off_c, 1, 94, 127
2, 43920, Note_on_c, 1, 101, 110
2, 44155, Note_off_c, 1, 101, 127
2, 44159, Note_on_c, 1, 94, 110
2, 44395, Note_off_c, 1, 94, 127
2, 44399, Note_on_c, 1, 101, 110
2, 44634, Note_off_c, 1, 101, 127
2, 44639, Note_on_c, 1, 106, 110
2, 44874, Note_off_c, 1, 106, 127
2, 44879, Note_on_c, 1, 94, 110
2, 45114, Note_off_c, 1, 94, 127
2, 45120, Note_on_c, 1, 101, 110
2, 45354, Note_off_c, 1, 101, 127
2, 45360, Note_on_c, 1, 104, 110
2, 45594, Note_off_c, 1, 104, 127
2, 45600, Note_on_c, 1, 94, 110
2, 45835, Note_off_c, 1, 94, 127
2, 45840, Note_on_c, 1, 101, 110
2, 46075, Note_off_c, 1, 101, 127
2, 46079, Note_on_c, 1, 94, 110
2, 46315, Note_off_c, 1, 94, 127
2, 46319, Note_on_c, 1, 101, 110
2, 46554, Note_off_c, 1, 101, 127
2, 46559, Note_on_c, 1, 106, 110
2, 46794, Note_off_c, 1, 106, 127
2, 46799, Note_on_c, 1, 94, 110
2, 47034, Note_off_c, 1, 94, 127
2, 47040, Note_on_c, 1, 101, 110
2, 47274, Note_off_c, 1, 101, 127
2, 47280, Note_on_c, 1, 104, 110
2, 47515, Note_off_c, 1, 104, 127
2, 47520, Note_on_c, 1, 94, 110
2, 47755, Note_off_c, 1, 94, 127
2, 47759, Note_on_c, 1, 101, 110
2, 47995, Note_off_c, 1, 101, 127
2, 47999, Note_on_c, 1, 89, 110
2, 48234, Note_off_c, 1, 89, 127
2, 48239, Note_on_c, 1, 96, 110
2, 48474, Note_off_c, 1, 96, 127
2, 48479, Note_on_c, 1, 101, 110
2, 48714, Note_off_c, 1, 101, 127
2, 48719, Note_on_c, 1, 89, 110
2, 48954, Note_off_c, 1, 89, 127
2, 48960, Note_on_c, 1, 96, 110
2, 49194, Note_off_c, 1, 96, 127
2, 49200, Note_on_c, 1, 99, 110
2, 49435, Note_off_c, 1, 99, 127
2, 49440, Note_on_c, 1, 89, 110
2, 49675, Note_off_c, 1, 89, 127
2, 49679, Note_on_c, 1, 96, 110
2, 49915, Note_off_c, 1, 96, 127
2, 49919, Note_on_c, 1, 89, 110
2, 50154, Note_off_c, 1, 89, 127
2, 50159, Note_on_c, 1, 96, 110
2, 50394, Note_off_c, 1, 96, 127
2, 50399, Note_on_c, 1, 101, 110
2, 50634, Note_off_c, 1, 101, 127
2, 50640, Note_on_c, 1, 89, 110
2, 50874, Note_off_c, 1, 89, 127
2, 50880, Note_on_c, 1, 96, 110
2, 51114, Note_off_c, 1, 96, 127
2, 51120, Note_on_c, 1, 99, 110
2, 51355, Note_off_c, 1, 99, 127
2, 51360, Note_on_c, 1, 89, 110
2, 51595, Note_off_c, 1, 89, 127
2, 51599, Note_on_c, 1, 96, 110
2, 51835, Note_off_c, 1, 96, 127
2, 51839, Note_on_c, 1, 89, 110
2, 52074, Note_off_c, 1, 89, 127
2, 52079, Note_on_c, 1, 96, 110
2, 52314, Note_off_c, 1, 96, 127
2, 52319, Note_on_c, 1, 101, 110
2, 52554, Note_off_c, 1, 101, 127
2, 52560, Note_on_c, 1, 89, 110
2, 52794, Note_off_c, 1, 89, 127
2, 52800, Note_on_c, 1, 96, 110
2, 53035, Note_off_c, 1, 96, 127
2, 53040, Note_on_c, 1, 99, 110
2, 53275, Note_off_c, 1, 99, 127
2, 53279, Note_on_c, 1, 89, 110
2, 53515, Note_off_c, 1, 89, 127
2, 53519, Note_on_c, 1, 96, 110
2, 53754, Note_off_c, 1, 96, 127
2, 53759, Note_on_c, 1, 89, 110
2, 53994, Note_off_c, 1, 89, 127
2, 53999, Note_on_c, 1, 96, 110
2, 54234, Note_off_c, 1, 96, 127
2, 54239, Note_on_c, 1, 101, 110
2, 54474, Note_off_c, 1, 101, 127
2, 54480, Note_on_c, 1, 89, 110
2, 54714, Note_off_c, 1, 89, 127
2, 54720, Note_on_c, 1, 96, 110
2, 54955, Note_off_c, 1, 96, 127
2, 54960, Note_on_c, 1, 99, 110
2, 55195, Note_off_c, 1, 99, 127
2, 55199, Note_on_c, 1, 89, 110
2, 55435, Note_off_c, 1, 89, 127
2, 55439, Note_on_c, 1, 96, 110
2, 55674, Note_off_c, 1, 96, 127
2, 55679, Note_on_c, 1, 89, 110
2, 55914, Note_off_c, 1, 89, 127
2, 55919, Note_on_c, 1, 96, 110
2, 56154, Note_off_c, 1, 96, 127
2, 56160, Note_on_c, 1, 101, 110
2, 56394, Note_off_c, 1, 101, 127
2, 56400, Note_on_c, 1, 89, 110
2, 56634, Note_off_c, 1, 89, 127
2, 56640, Note_on_c, 1, 96, 110
2, 56875, Note_off_c, 1, 96, 127
2, 56879, Note_on_c, 1, 99, 110
2, 57115, Note_off_c, 1, 99, 127
2, 57119, Note_on_c, 1, 89, 110
2, 57355, Note_off_c, 1, 89, 127
2, 57359, Note_on_c, 1, 96, 110
2, 57594, Note_off_c, 1, 96, 127
2, 57599, Note_on_c, 1, 89, 110
2, 57834, Note_off_c, 1, 89, 127
2, 57839, Note_on_c, 1, 96, 110
2, 58074, Note_off_c, 1, 96, 127
2, 58080, Note_on_c, 1, 101, 110
2, 58314, Note_off_c, 1, 101, 127
2, 58320, Note_on_c, 1, 89, 110
2, 58555, Note_off_c, 1, 89, 127
2, 58560, Note_on_c, 1, 96, 110
2, 58795, Note_off_c, 1, 96, 127
2, 58799, Note_on_c, 1, 99, 110
2, 59035, Note_off_c, 1, 99, 127
2, 59039, Note_on_c, 1, 89, 110
2, 59274, Note_off_c, 1, 89, 127
2, 59279, Note_on_c, 1, 96, 110
2, 59514, Note_off_c, 1, 96, 127
2, 59519, Note_on_c, 1, 89, 110
2, 59754, Note_off_c, 1, 89, 127
2, 59759, Note_on_c, 1, 96, 110
2, 59994, Note_off_c, 1, 96, 127
2, 60000, Note_on_c, 1, 101, 110
2, 60234, Note_off_c, 1, 101, 127
2, 60240, Note_on_c, 1, 89, 110
2, 60475, Note_off_c, 1, 89, 127
2, 60480, Note_on_c, 1, 96, 110
2, 60715, Note_off_c, 1, 96, 127
2, 60719, Note_on_c, 1, 99, 110
2, 60955, Note_off_c, 1, 99, 127
2, 60959, Note_on_c, 1, 89, 110
2, 61194, Note_off_c, 1, 89, 127
2, 61199, Note_on_c, 1, 96, 110
2, 61434, Note_off_c, 1, 96, 127
2, 61439, Note_on_c, 1, 89, 110
2, 61674, Note_off_c, 1, 89, 127
2, 61680, Note_on_c, 1, 96, 110
2, 61914, Note_off_c, 1, 96, 127
2, 61920, Note_on_c, 1, 101, 110
2, 62155, Note_off_c, 1, 101, 127
2, 62160, Note_on_c, 1, 89, 110
2, 62395, Note_off_c, 1, 89, 127
2, 62399, Note_on_c, 1, 96, 110
2, 62635, Note_off_c, 1, 96, 127
2, 62639, Note_on_c, 1, 99, 110
2, 62875, Note_off_c, 1, 99, 127
2, 62879, Note_on_c, 1, 89, 110
2, 63114, Note_off_c, 1, 89, 127
2, 63119, Note_on_c, 1, 96, 110
2, 63354, Note_off_c, 1, 96, 127
2, 63359, Note_on_c, 1, 85, 110
2, 63594, Note_off_c, 1, 85, 127
2, 63600, Note_on_c, 1, 92, 110
2, 63834, Note_off_c, 1, 92, 127
2, 63840, Note_on_c, 1, 97, 110
2, 64075, Note_off_c, 1, 97, 127
2, 64080, Note_on_c, 1, 85, 110
2, 64315, Note_off_c, 1, 85, 127
2, 64319, Note_on_c, 1, 92, 110
2, 64555, Note_off_c, 1, 92, 127
2, 64559, Note_on_c, 1, 95, 110
2, 64794, Note_off_c, 1, 95, 127
2, 64799, Note_on_c, 1, 85, 110
2, 65034, Note_off_c, 1, 85, 127
2, 65039, Note_on_c, 1, 92, 110
2, 65274, Note_off_c, 1, 92, 127
2, 65279, Note_on_c, 1, 85, 110
2, 65514, Note_off_c, 1, 85, 127
2, 65520, Note_on_c, 1, 92, 110
2, 65754, Note_off_c, 1, 92, 127
2, 65760, Note_on_c, 1, 97, 110
2, 65995, Note_off_c, 1, 97, 127
2, 66000, Note_on_c, 1, 85, 110
2, 66235, Note_off_c, 1, 85, 127
2, 66239, Note_on_c, 1, 92, 110
2, 66475, Note_off_c, 1, 92, 127
2, 66479, Note_on_c, 1, 95, 110
2, 66714, Note_off_c, 1, 95, 127
2, 66719, Note_on_c, 1, 85, 110
2, 66954, Note_off_c, 1, 85, 127
2, 66959, Note_on_c, 1, 92, 110
2, 67194, Note_off_c, 1, 92, 127
2, 67200, Note_on_c, 1, 88, 110
2, 67434, Note_off_c, 1, 88, 127
2, 67440, Note_on_c, 1, 95, 110
2, 67675, Note_off_c, 1, 95, 127
2, 67680, Note_on_c, 1, 100, 110
2, 67915, Note_off_c, 1, 100, 127
2, 67919, Note_on_c, 1, 88, 110
2, 68155, Note_off_c, 1, 88, 127
2, 68159, Note_on_c, 1, 95, 110
2, 68395, Note_off_c, 1, 95, 127
2, 68399, Note_on_c, 1, 98, 110
2, 68634, Note_off_c, 1, 98, 127
2, 68639, Note_on_c, 1, 88, 110
2, 68874, Note_off_c, 1, 88, 127
2, 68879, Note_on_c, 1, 95, 110
2, 69114, Note_off_c, 1, 95, 127
2, 69120, Note_on_c, 1, 88, 110
2, 69354, Note_off_c, 1, 88, 127
2, 69360, Note_on_c, 1, 95, 110
2, 69595, Note_off_c, 1, 95, 127
2, 69600, Note_on_c, 1, 100, 110
2, 69835, Note_off_c, 1, 100, 127
2, 69839, Note_on_c, 1, 88, 110
2, 70075, Note_off_c, 1, 88, 127
2, 70079, Note_on_c, 1, 95, 110
2, 70314, Note_off_c, 1, 95, 127
2, 70319, Note_on_c, 1, 98, 110
2, 70554, Note_off_c, 1, 98, 127
2, 70559, Note_on_c, 1, 88, 110
2, 70794, Note_off_c, 1, 88, 127
2, 70800, Note_on_c, 1, 95, 110
2, 71034, Note_off_c, 1, 95, 127
2, 71040, Note_on_c, 1, 90, 110
2, 71274, Note_off_c, 1, 90, 127
2, 71280, Note_on_c, 1, 97, 110
2, 71515, Note_off_c, 1, 97, 127
2, 71520, Note_on_c, 1, 102, 110
2, 71755, Note_off_c, 1, 102, 127
2, 71759, Note_on_c, 1, 90, 110
2, 71995, Note_off_c, 1, 90, 127
2, 71999, Note_on_c, 1, 97, 110
2, 72234, Note_off_c, 1, 97, 127
2, 72239, Note_on_c, 1, 100, 110
2, 72474, Note_off_c, 1, 100, 127
2, 72479, Note_on_c, 1, 90, 110
2, 72714, Note_off_c, 1, 90, 127
2, 72720, Note_on_c, 1, 97, 110
2, 72954, Note_off_c, 1, 97, 127
2, 72960, Note_on_c, 1, 90, 110
2, 73195, Note_off_c, 1, 90, 127
2, 73200, Note_on_c, 1, 97, 110
2, 73435, Note_off_c, 1, 97, 127
2, 73439, Note_on_c, 1, 102, 110
2, 73675, Note_off_c, 1, 102, 127
2, 73679, Note_on_c, 1, 90, 110
2, 73915, Note_off_c, 1, 90, 127
2, 73919, Note_on_c, 1, 97, 110
2, 74154, Note_off_c, 1, 97, 127
2, 74159, Note_on_c, 1, 100, 110
2, 74394, Note_off_c, 1, 100, 127
2, 74399, Note_on_c, 1, 90, 110
2, 74634, Note_off_c, 1, 90, 127
2, 74640, Note_on_c, 1, 97, 110
2, 74874, Note_off_c, 1, 97, 127
2, 74880, Note_on_c, 1, 85, 110
2, 75115, Note_off_c, 1, 85, 127
2, 75120, Note_on_c, 1, 92, 110
2, 75355, Note_off_c, 1, 92, 127
2, 75359, Note_on_c, 1, 97, 110
2, 75595, Note_off_c, 1, 97, 127
2, 75599, Note_on_c, 1, 85, 110
2, 75834, Note_off_c, 1, 85, 127
2, 75839, Note_on_c, 1, 92, 110
2, 76074, Note_off_c, 1, 92, 127
2, 76079, Note_on_c, 1, 95, 110
2, 76314, Note_off_c, 1, 95, 127
2, 76320, Note_on_c, 1, 85, 110
2, 76554, Note_off_c, 1, 85, 127
2, 76560, Note_on_c, 1, 92, 110
2, 76794, Note_off_c, 1, 92, 127
2, 76800, Note_on_c, 1, 85, 110
2, 77035, Note_off_c, 1, 85, 127
2, 77040, Note_on_c, 1, 92, 110
2, 77275, Note_off_c, 1, 92, 127
2, 77279, Note_on_c, 1, 97, 110
2, 77515, Note_off_c, 1, 97, 127
2, 77519, Note_on_c, 1, 85, 110
2, 77754, Note_off_c, 1, 85, 127
2, 77759, Note_on_c, 1, 92, 110
2, 77994, Note_off_c, 1, 92, 127
2, 77999, Note_on_c, 1, 95, 110
2, 78234, Note_off_c, 1, 95, 127
2, 78240, Note_on_c, 1, 85, 110
2, 78474, Note_off_c, 1, 85, 127
2, 78480, Note_on_c, 1, 92, 110
2, 78715, Note_off_c, 1, 92, 127
2, 78720, Note_on_c, 1, 85, 110
2, 78955, Note_off_c, 1, 85, 127
2, 78959, Note_on_c, 1, 92, 110
2, 79195, Note_off_c, 1, 92, 127
2, 79199, Note_on_c, 1, 97, 110
2, 79434, Note_off_c, 1, 97, 127
2, 79439, Note_on_c, 1, 85, 110
2, 79674, Note_off_c, 1, 85, 127
2, 79679, Note_on_c, 1, 92, 110
2, 79914, Note_off_c, 1, 92, 127
2, 79919, Note_on_c, 1, 95, 110
2, 80154, Note_off_c, 1, 95, 127
2, 80160, Note_on_c, 1, 85, 110
2, 80394, Note_off_c, 1, 85, 127
2, 80400, Note_on_c, 1, 92, 110
2, 80635, Note_off_c, 1, 92, 127
2, 80640, Note_on_c, 1, 85, 110
2, 80875, Note_off_c, 1, 85, 127
2, 80879, Note_on_c, 1, 92, 110
2, 81115, Note_off_c, 1, 92, 127
2, 81119, Note_on_c, 1, 97, 110
2, 81354, Note_off_c, 1, 97, 127
2, 81359, Note_on_c, 1, 85, 110
2, 81594, Note_off_c, 1, 85, 127
2, 81599, Note_on_c, 1, 92, 110
2, 81834, Note_off_c, 1, 92, 127
2, 81840, Note_on_c, 1, 95, 110
2, 82074, Note_off_c, 1, 95, 127
2, 82080, Note_on_c, 1, 85, 110
2, 82314, Note_off_c, 1, 85, 127
2, 82320, Note_on_c, 1, 92, 110
2, 82555, Note_off_c, 1, 92, 127
2, 82559, Note_on_c, 1, 88, 110
2, 82795, Note_off_c, 1, 88, 127
2, 82799, Note_on_c, 1, 95, 110
2, 83035, Note_off_c, 1, 95, 127
2, 83039, Note_on_c, 1, 100, 110
2, 83274, Note_off_c, 1, 100, 127
2, 83279, Note_on_c, 1, 88, 110
2, 83514, Note_off_c, 1, 88, 127
2, 83519, Note_on_c, 1, 95, 110
2, 83754, Note_off_c, 1, 95, 127
2, 83760, Note_on_c, 1, 98, 110
2, 83994, Note_off_c, 1, 98, 127
2, 84000, Note_on_c, 1, 88, 110
2, 84235, Note_off_c, 1, 88, 127
2, 84240, Note_on_c, 1, 95, 110
2, 84475, Note_off_c, 1, 95, 127
2, 84479, Note_on_c, 1, 88, 110
2, 84715, Note_off_c, 1, 88, 127
2, 84719, Note_on_c, 1, 95, 110
2, 84954, Note_off_c, 1, 95, 127
2, 84959, Note_on_c, 1, 100, 110
2, 85194, Note_off_c, 1, 100, 127
2, 85199, Note_on_c, 1, 88, 110
2, 85434, Note_off_c, 1, 88, 127
2, 85439, Note_on_c, 1, 95, 110
2, 85674, Note_off_c, 1, 95, 127
2, 85680, Note_on_c, 1, 98, 110
2, 85914, Note_off_c, 1, 98, 127
2, 85920, Note_on_c, 1, 88, 110
2, 86155, Note_off_c, 1, 88, 127
2, 86160, Note_on_c, 1, 95, 110
2, 86395, Note_off_c, 1, 95, 127
2, 86399, Note_on_c, 1, 90, 110
2, 86635, Note_off_c, 1, 90, 127
2, 86639, Note_on_c, 1, 97, 110
2, 86874, Note_off_c, 1, 97, 127
2, 86879, Note_on_c, 1, 102, 110
2, 87114, Note_off_c, 1, 102, 127
2, 87119, Note_on_c, 1, 90, 110
2, 87354, Note_off_c, 1, 90, 127
2, 87360, Note_on_c, 1, 97, 110
2, 87594, Note_off_c, 1, 97, 127
2, 87600, Note_on_c, 1, 100, 110
2, 87834, Note_off_c, 1, 100, 127
2, 87840, Note_on_c, 1, 90, 110
2, 88075, Note_off_c, 1, 90, 127
2, 88079, Note_on_c, 1, 97, 110
2, 88315, Note_off_c, 1, 97, 127
2, 88319, Note_on_c, 1, 90, 110
2, 88555, Note_off_c, 1, 90, 127
2, 88559, Note_on_c, 1, 97, 110
2, 88794, Note_off_c, 1, 97, 127
2, 88799, Note_on_c, 1, 102, 110
2, 89034, Note_off_c, 1, 102, 127
2, 89039, Note_on_c, 1, 90, 110
2, 89274, Note_off_c, 1, 90, 127
2, 89280, Note_on_c, 1, 97, 110
2, 89514, Note_off_c, 1, 97, 127
2, 89520, Note_on_c, 1, 100, 110
2, 89755, Note_off_c, 1, 100, 127
2, 89760, Note_on_c, 1, 90, 110
2, 89995, Note_off_c, 1, 90, 127
2, 89999, Note_on_c, 1, 97, 110
2, 90235, Note_off_c, 1, 97, 127
2, 90239, Note_on_c, 1, 85, 110
2, 90474, Note_off_c, 1, 85, 127
2, 90479, Note_on_c, 1, 92, 110
2, 90714, Note_off_c, 1, 92, 127
2, 90719, Note_on_c, 1, 97, 110
2, 90954, Note_off_c, 1, 97, 127
2, 90959, Note_on_c, 1, 85, 110
2, 91194, Note_off_c, 1, 85, 127
2, 91200, Note_on_c, 1, 92, 110
2, 91434, Note_off_c, 1, 92, 127
2, 91440, Note_on_c, 1, 95, 110
2, 91675, Note_off_c, 1, 95, 127
2, 91680, Note_on_c, 1, 85, 110
2, 91915, Note_off_c, 1, 85, 127
2, 91919, Note_on_c, 1, 92, 110
2, 92155, Note_off_c, 1, 92, 127
2, 92159, Note_on_c, 1, 85, 110
2, 92394, Note_off_c, 1, 85, 127
2, 92399, Note_on_c, 1, 92, 110
2, 92634, Note_off_c, 1, 92, 127
2, 92639, Note_on_c, 1, 97, 110
2, 92874, Note_off_c, 1, 97, 127
2, 92880, Note_on_c, 1, 85, 110
2, 93114, Note_off_c, 1, 85, 127
2, 93120, Note_on_c, 1, 92, 110
2, 93355, Note_off_c, 1, 92, 127
2, 93360, Note_on_c, 1, 95, 110
2, 93595, Note_off_c, 1, 95, 127
2, 93599, Note_on_c, 1, 85, 110
2, 93835, Note_off_c, 1, 85, 127
2, 93839, Note_on_c, 1, 92, 110
2, 94075, Note_off_c, 1, 92, 127
2, 94079, Note_on_c, 1, 85, 110
2, 94314, Note_off_c, 1, 85, 127
2, 94319, Note_on_c, 1, 92, 110
2, 94554, Note_off_c, 1, 92, 127
2, 94559, Note_on_c, 1, 97, 110
2, 94794, Note_off_c, 1, 97, 127
2, 94800, Note_on_c, 1, 85, 110
2, 95034, Note_off_c, 1, 85, 127
2, 95040, Note_on_c, 1, 92, 110
2, 95275, Note_off_c, 1, 92, 127
2, 95280, Note_on_c, 1, 95, 110
2, 95515, Note_off_c, 1, 95, 127
2, 95519, Note_on_c, 1, 85, 110
2, 95755, Note_off_c, 1, 85, 127
2, 95759, Note_on_c, 1, 92, 110
2, 95994, Note_off_c, 1, 92, 127
2, 95999, Note_on_c, 1, 85, 110
2, 96234, Note_off_c, 1, 85, 127
2, 96239, Note_on_c, 1, 92, 110
2, 96474, Note_off_c, 1, 92, 127
2, 96480, Note_on_c, 1, 97, 110
2, 96714, Note_off_c, 1, 97, 127
2, 96720, Note_on_c, 1, 85, 110
2, 96954, Note_off_c, 1, 85, 127
2, 96960, Note_on_c, 1, 92, 110
2, 97195, Note_off_c, 1, 92, 127
2, 97200, Note_on_c, 1, 95, 110
2, 97435, Note_off_c, 1, 95, 127
2, 97439, Note_on_c, 1, 85, 110
2, 97675, Note_off_c, 1, 85, 127
2, 97679, Note_on_c, 1, 92, 110
2, 97914, Note_off_c, 1, 92, 127
2, 97919, Note_on_c, 1, 88, 110
2, 98154, Note_off_c, 1, 88, 127
2, 98159, Note_on_c, 1, 95, 110
2, 98394, Note_off_c, 1, 95, 127
2, 98400, Note_on_c, 1, 100, 110
2, 98634, Note_off_c, 1, 100, 127
2, 98640, Note_on_c, 1, 88, 110
2, 98875, Note_off_c, 1, 88, 127
2, 98880, Note_on_c, 1, 95, 110
2, 99115, Note_off_c, 1, 95, 127
2, 99119, Note_on_c, 1, 98, 110
2, 99355, Note_off_c, 1, 98, 127
2, 99359, Note_on_c, 1, 88, 110
2, 99595, Note_off_c, 1, 88, 127
2, 99599, Note_on_c, 1, 95, 110
2, 99834, Note_off_c, 1, 95, 127
2, 99839, Note_on_c, 1, 88, 110
2, 100074, Note_off_c, 1, 88, 127
2, 100079, Note_on_c, 1, 95, 110
2, 100314, Note_off_c, 1, 95, 127
2, 100320, Note_on_c, 1, 100, 110
2, 100554, Note_off_c, 1, 100, 127
2, 100560, Note_on_c, 1, 88, 110
2, 100795, Note_off_c, 1, 88, 127
2, 100800, Note_on_c, 1, 95, 110
2, 101035, Note_off_c, 1, 95, 127
2, 101039, Note_on_c, 1, 98, 110
2, 101275, Note_off_c, 1, 98, 127
2, 101279, Note_on_c, 1, 88, 110
2, 101514, Note_off_c, 1, 88, 127
2, 101519, Note_on_c, 1, 95, 110
2, 101754, Note_off_c, 1, 95, 127
2, 101759, Note_on_c, 1, 90, 110
2, 101994, Note_off_c, 1, 90, 127
2, 102000, Note_on_c, 1, 97, 110
2, 102234, Note_off_c, 1, 97, 127
2, 102240, Note_on_c, 1, 102, 110
2, 102474, Note_off_c, 1, 102, 127
2, 102480, Note_on_c, 1, 90, 110
2, 102715, Note_off_c, 1, 90, 127
2, 102720, Note_on_c, 1, 97, 110
2, 102955, Note_off_c, 1, 97, 127
2, 102959, Note_on_c, 1, 100, 110
2, 103195, Note_off_c, 1, 100, 127
2, 103199, Note_on_c, 1, 90, 110
2, 103434, Note_off_c, 1, 90, 127
2, 103439, Note_on_c, 1, 97, 110
2, 103674, Note_off_c, 1, 97, 127
2, 103679, Note_on_c, 1, 90, 110
2, 103914, Note_off_c, 1, 90, 127
2, 103920, Note_on_c, 1, 97, 110
2, 104154, Note_off_c, 1, 97, 127
2, 104160, Note_on_c, 1, 102, 110
2, 104395, Note_off_c, 1, 102, 127
2, 104400, Note_on_c, 1, 90, 110
2, 104635, Note_off_c, 1, 90, 127
2, 104639, Note_on_c, 1, 97, 110
2, 104875, Note_off_c, 1, 97, 127
2, 104879, Note_on_c, 1, 100, 110
2, 105114, Note_off_c, 1, 100, 127
2, 105119, Note_on_c, 1, 90, 110
2, 105354, Note_off_c, 1, 90, 127
2, 105359, Note_on_c, 1, 97, 110
2, 105594, Note_off_c, 1, 97, 127
2, 105599, Note_on_c, 1, 85, 110
2, 105834, Note_off_c, 1, 85, 127
2, 105840, Note_on_c, 1, 92, 110
2, 106074, Note_off_c, 1, 92, 127
2, 106080, Note_on_c, 1, 97, 110
2, 106315, Note_off_c, 1, 97, 127
2, 106320, Note_on_c, 1, 85, 110
2, 106555, Note_off_c, 1, 85, 127
2, 106559, Note_on_c, 1, 92, 110
2, 106795, Note_off_c, 1, 92, 127
2, 106799, Note_on_c, 1, 95, 110
2, 107034, Note_off_c, 1, 95, 127
2, 107039, Note_on_c, 1, 85, 110
2, 107274, Note_off_c, 1, 85, 127
2, 107279, Note_on_c, 1, 92, 110
2, 107514, Note_off_c, 1, 92, 127
2, 107520, Note_on_c, 1, 85, 110
2, 107754, Note_off_c, 1, 85, 127
2, 107760, Note_on_c, 1, 92, 110
2, 107994, Note_off_c, 1, 92, 127
2, 108000, Note_on_c, 1, 97, 110
2, 108235, Note_off_c, 1, 97, 127
2, 108240, Note_on_c, 1, 85, 110
2, 108475, Note_off_c, 1, 85, 127
2, 108479, Note_on_c, 1, 92, 110
2, 108715, Note_off_c, 1, 92, 127
2, 108719, Note_on_c, 1, 95, 110
2, 108954, Note_off_c, 1, 95, 127
2, 108959, Note_on_c, 1, 85, 110
2, 109194, Note_off_c, 1, 85, 127
2, 109199, Note_on_c, 1, 92, 110
2, 109434, Note_off_c, 1, 92, 127
2, 140159, Note_on_c, 1, 85, 110
2, 140394, Note_off_c, 1, 85, 127
2, 140399, Note_on_c, 1, 92, 110
2, 140634, Note_off_c, 1, 92, 127
2, 140640, Note_on_c, 1, 97, 110
2, 140874, Note_off_c, 1, 97, 127
2, 140880, Note_on_c, 1, 85, 110
2, 141115, Note_off_c, 1, 85, 127
2, 141120, Note_on_c, 1, 92, 110
2, 141355, Note_off_c, 1, 92, 127
2, 141359, Note_on_c, 1, 95, 110
2, 141595, Note_off_c, 1, 95, 127
2, 141599, Note_on_c, 1, 85, 110
2, 141834, Note_off_c, 1, 85, 127
2, 141839, Note_on_c, 1, 92, 110
2, 142074, Note_off_c, 1, 92, 127
2, 142079, Note_on_c, 1, 85, 110
2, 142314, Note_off_c, 1, 85, 127
2, 142319, Note_on_c, 1, 92, 110
2, 142554, Note_off_c, 1, 92, 127
2, 142560, Note_on_c, 1, 97, 110
2, 142794, Note_off_c, 1, 97, 127
2, 142800, Note_on_c, 1, 85, 110
2, 143035, Note_off_c, 1, 85, 127
2, 143040, Note_on_c, 1, 92, 110
2, 143275, Note_off_c, 1, 92, 127
2, 143279, Note_on_c, 1, 95, 110
2, 143515, Note_off_c, 1, 95, 127
2, 143519, Note_on_c, 1, 85, 110
2, 143754, Note_off_c, 1, 85, 127
2, 143759, Note_on_c, 1, 92, 110
2, 143994, Note_off_c, 1, 92, 127
2, 143999, Note_on_c, 1, 88, 110
2, 144234, Note_off_c, 1, 88, 127
2, 144240, Note_on_c, 1, 95, 110
2, 144474, Note_off_c, 1, 95, 127
2, 144480, Note_on_c, 1, 100, 110
2, 144715, Note_off_c, 1, 100, 127
2, 144720, Note_on_c, 1, 88, 110
2, 144955, Note_off_c, 1, 88, 127
2, 144959, Note_on_c, 1, 95, 110
2, 145195, Note_off_c, 1, 95, 127
2, 145199, Note_on_c, 1, 98, 110
2, 145435, Note_off_c, 1, 98, 127
2, 145439, Note_on_c, 1, 88, 110
2, 145674, Note_off_c, 1, 88, 127
2, 145679, Note_on_c, 1, 95, 110
2, 145914, Note_off_c, 1, 95, 127
2, 145919, Note_on_c, 1, 88, 110
2, 146154, Note_off_c, 1, 88, 127
2, 146160, Note_on_c, 1, 95, 110
2, 146394, Note_off_c, 1, 95, 127
2, 146400, Note_on_c, 1, 100, 110
2, 146635, Note_off_c, 1, 100, 127
2, 146640, Note_on_c, 1, 88, 110
2, 146875, Note_off_c, 1, 88, 127
2, 146879, Note_on_c, 1, 95, 110
2, 147115, Note_off_c, 1, 95, 127
2, 147119, Note_on_c, 1, 98, 110
2, 147354, Note_off_c, 1, 98, 127
2, 147359, Note_on_c, 1, 88, 110
2, 147594, Note_off_c, 1, 88, 127
2, 147599, Note_on_c, 1, 95, 110
2, 147834, Note_off_c, 1, 95, 127
2, 147839, Note_on_c, 1, 90, 110
2, 148074, Note_off_c, 1, 90, 127
2, 148080, Note_on_c, 1, 97, 110
2, 148314, Note_off_c, 1, 97, 127
2, 148320, Note_on_c, 1, 102, 110
2, 148555, Note_off_c, 1, 102, 127
2, 148560, Note_on_c, 1, 90, 110
2, 148795, Note_off_c, 1, 90, 127
2, 148799, Note_on_c, 1, 97, 110
2, 149035, Note_off_c, 1, 97, 127
2, 149039, Note_on_c, 1, 100, 110
2, 149274, Note_off_c, 1, 100, 127
2, 149279, Note_on_c, 1, 90, 110
2, 149514, Note_off_c, 1, 90, 127
2, 149519, Note_on_c, 1, 97, 110
2, 149754, Note_off_c, 1, 97, 127
2, 149760, Note_on_c, 1, 90, 110
2, 149994, Note_off_c, 1, 90, 127
2, 150000, Note_on_c, 1, 97, 110
2, 150235, Note_off_c, 1, 97, 127
2, 150240, Note_on_c, 1, 102, 110
2, 150475, Note_off_c, 1, 102, 127
2, 150479, Note_on_c, 1, 90, 110
2, 150715, Note_off_c, 1, 90, 127
2, 150719, Note_on_c, 1, 97, 110
2, 150955, Note_off_c, 1, 97, 127
2, 150959, Note_on_c, 1, 100, 110
2, 151194, Note_off_c, 1, 100, 127
2, 151199, Note_on_c, 1, 90, 110
2, 151434, Note_off_c, 1, 90, 127
2, 151439, Note_on_c, 1, 97, 110
2, 151674, Note_off_c, 1, 97, 127
2, 151680, Note_on_c, 1, 85, 110
2, 151914, Note_off_c, 1, 85, 127
2, 151920, Note_on_c, 1, 92, 110
2, 152155, Note_off_c, 1, 92, 127
2, 152160, Note_on_c, 1, 97, 110
2, 152395, Note_off_c, 1, 97, 127
2, 152399, Note_on_c, 1, 85, 110
2, 152635, Note_off_c, 1, 85, 127
2, 152639, Note_on_c, 1, 92, 110
2, 152874, Note_off_c, 1, 92, 127
2, 152879, Note_on_c, 1, 95, 110
2, 153114, Note_off_c, 1, 95, 127
2, 153119, Note_on_c, 1, 85, 110
2, 153354, Note_off_c, 1, 85, 127
2, 153360, Note_on_c, 1, 92, 110
2, 153594, Note_off_c, 1, 92, 127
2, 153600, Note_on_c, 1, 85, 110
2, 153834, Note_off_c, 1, 85, 127
2, 153840, Note_on_c, 1, 92, 110
2, 154075, Note_off_c, 1, 92, 127
2, 154080, Note_on_c, 1, 97, 110
2, 154315, Note_off_c, 1, 97, 127
2, 154319, Note_on_c, 1, 85, 110
2, 154555, Note_off_c, 1, 85, 127
2, 154559, Note_on_c, 1, 92, 110
2, 154794, Note_off_c, 1, 92, 127
2, 154799, Note_on_c, 1, 95, 110
2, 155034, Note_off_c, 1, 95, 127
2, 155039, Note_on_c, 1, 85, 110
2, 155274, Note_off_c, 1, 85, 127
2, 155280, Note_on_c, 1, 92, 110
2, 155514, Note_off_c, 1, 92, 127
2, 163200, Note_on_c, 1, 94, 110
2, 163435, Note_off_c, 1, 94, 127
2, 163439, Note_on_c, 1, 101, 110
2, 163675, Note_off_c, 1, 101, 127
2, 163679, Note_on_c, 1, 106, 110
2, 163914, Note_off_c, 1, 106, 127
2, 163919, Note_on_c, 1, 94, 110
2, 164154, Note_off_c, 1, 94, 127
2, 164159, Note_on_c, 1, 101, 110
2, 164394, Note_off_c, 1, 101, 127
2, 164400, Note_on_c, 1, 104, 110
2, 164634, Note_off_c, 1, 104, 127
2, 164640, Note_on_c, 1, 94, 110
2, 164874, Note_off_c, 1, 94, 127
2, 164880, Note_on_c, 1, 101, 110
2, 165115, Note_off_c, 1, 101, 127
2, 165119, Note_on_c, 1, 94, 110
2, 165355, Note_off_c, 1, 94, 127
2, 165359, Note_on_c, 1, 101, 110
2, 165595, Note_off_c, 1, 101, 127
2, 165599, Note_on_c, 1, 106, 110
2, 165834, Note_off_c, 1, 106, 127
2, 165839, Note_on_c, 1, 94, 110
2, 166074, Note_off_c, 1, 94, 127
2, 166079, Note_on_c, 1, 101, 110
2, 166314, Note_off_c, 1, 101, 127
2, 166320, Note_on_c, 1, 104, 110
2, 166554, Note_off_c, 1, 104, 127
2, 166560, Note_on_c, 1, 94, 110
2, 166795, Note_off_c, 1, 94, 127
2, 166800, Note_on_c, 1, 101, 110
2, 167035, Note_off_c, 1, 101, 127
2, 167039, Note_on_c, 1, 94, 110
2, 167275, Note_off_c, 1, 94, 127
2, 167279, Note_on_c, 1, 101, 110
2, 167514, Note_off_c, 1, 101, 127
2, 167519, Note_on_c, 1, 106, 110
2, 167754, Note_off_c, 1, 106, 127
2, 167759, Note_on_c, 1, 94, 110
2, 167994, Note_off_c, 1, 94, 127
2, 167999, Note_on_c, 1, 101, 110
2, 168234, Note_off_c, 1, 101, 127
2, 168240, Note_on_c, 1, 104, 110
2, 168474, Note_off_c, 1, 104, 127
2, 168480, Note_on_c, 1, 94, 110
2, 168715, Note_off_c, 1, 94, 127
2, 168720, Note_on_c, 1, 101, 110
2, 168955, Note_off_c, 1, 101, 127
2, 168959, Note_on_c, 1, 94, 110
2, 169195, Note_off_c, 1, 94, 127
2, 169199, Note_on_c, 1, 101, 110
2, 169434, Note_off_c, 1, 101, 127
2, 169439, Note_on_c, 1, 106, 110
2, 169674, Note_off_c, 1, 106, 127
2, 169679, Note_on_c, 1, 94, 110
2, 169914, Note_off_c, 1, 94, 127
2, 169920, Note_on_c, 1, 101, 110
2, 170154, Note_off_c, 1, 101, 127
2, 170160, Note_on_c, 1, 104, 110
2, 170395, Note_off_c, 1, 104, 127
2, 170400, Note_on_c, 1, 94, 110
2, 170635, Note_off_c, 1, 94, 127
2, 170639, Note_on_c, 1, 101, 110
2, 170875, Note_off_c, 1, 101, 127
2, 170879, Note_on_c, 1, 94, 110
2, 171115, Note_off_c, 1, 94, 127
2, 171119, Note_on_c, 1, 101, 110
2, 171354, Note_off_c, 1, 101, 127
2, 171359, Note_on_c, 1, 106, 110
2, 171594, Note_off_c, 1, 106, 127
2, 171599, Note_on_c, 1, 94, 110
2, 171834, Note_off_c, 1, 94, 127
2, 171840, Note_on_c, 1, 101, 110
2, 172074, Note_off_c, 1, 101, 127
2, 172080, Note_on_c, 1, 104, 110
2, 172315, Note_off_c, 1, 104, 127
2, 172320, Note_on_c, 1, 94, 110
2, 172555, Note_off_c, 1, 94, 127
2, 172559, Note_on_c, 1, 101, 110
2, 172795, Note_off_c, 1, 101, 127
2, 172799, Note_on_c, 1, 94, 110
2, 173034, Note_off_c, 1, 94, 127
2, 173039, Note_on_c, 1, 101, 110
2, 173274, Note_off_c, 1, 101, 127
2, 173279, Note_on_c, 1, 106, 110
2, 173514, Note_off_c, 1, 106, 127
2, 173519, Note_on_c, 1, 94, 110
2, 173754, Note_off_c, 1, 94, 127
2, 173760, Note_on_c, 1, 101, 110
2, 173994, Note_off_c, 1, 101, 127
2, 174000, Note_on_c, 1, 104, 110
2, 174235, Note_off_c, 1, 104, 127
2, 174240, Note_on_c, 1, 94, 110
2, 174475, Note_off_c, 1, 94, 127
2, 174479, Note_on_c, 1, 101, 110
2, 174715, Note_off_c, 1, 101, 127
2, 174719, Note_on_c, 1, 94, 110
2, 174954, Note_off_c, 1, 94, 127
2, 174959, Note_on_c, 1, 101, 110
2, 175194, Note_off_c, 1, 101, 127
2, 175199, Note_on_c, 1, 106, 110
2, 175434, Note_off_c, 1, 106, 127
2, 175440, Note_on_c, 1, 94, 110
2, 175674, Note_off_c, 1, 94, 127
2, 175680, Note_on_c, 1, 101, 110
2, 175915, Note_off_c, 1, 101, 127
2, 175920, Note_on_c, 1, 104, 110
2, 176155, Note_off_c, 1, 104, 127
2, 176159, Note_on_c, 1, 94, 110
2, 176395, Note_off_c, 1, 94, 127
2, 176399, Note_on_c, 1, 101, 110
2, 176635, Note_off_c, 1, 101, 127
2, 176639, Note_on_c, 1, 94, 110
2, 176874, Note_off_c, 1, 94, 127
2, 176879, Note_on_c, 1, 101, 110
2, 177114, Note_off_c, 1, 101, 127
2, 177119, Note_on_c, 1, 106, 110
2, 177354, Note_off_c, 1, 106, 127
2, 177360, Note_on_c, 1, 94, 110
2, 177594, Note_off_c, 1, 94, 127
2, 177600, Note_on_c, 1, 101, 110
2, 177835, Note_off_c, 1, 101, 127
2, 177840, Note_on_c, 1, 104, 110
2, 178075, Note_off_c, 1, 104, 127
2, 178079, Note_on_c, 1, 94, 110
2, 178315, Note_off_c, 1, 94, 127
2, 178319, Note_on_c, 1, 101, 110
2, 178554, Note_off_c, 1, 101, 127
2, 178559, Note_on_c, 1, 94, 110
2, 178794, Note_off_c, 1, 94, 127
2, 178799, Note_on_c, 1, 101, 110
2, 179034, Note_off_c, 1, 101, 127
2, 179040, Note_on_c, 1, 106, 110
2, 179274, Note_off_c, 1, 106, 127
2, 179280, Note_on_c, 1, 94, 110
2, 179514, Note_off_c, 1, 94, 127
2, 179520, Note_on_c, 1, 101, 110
2, 179755, Note_off_c, 1, 101, 127
2, 179760, Note_on_c, 1, 104, 110
2, 179995, Note_off_c, 1, 104, 127
2, 179999, Note_on_c, 1, 94, 110
2, 180235, Note_off_c, 1, 94, 127
2, 180239, Note_on_c, 1, 101, 110
2, 180474, Note_off_c, 1, 101, 127
2, 180479, Note_on_c, 1, 94, 110
2, 180714, Note_off_c, 1, 94, 127
2, 180719, Note_on_c, 1, 101, 110
2, 180954, Note_off_c, 1, 101, 127
2, 180960, Note_on_c, 1, 106, 110
2, 181194, Note_off_c, 1, 106, 127
2, 181200, Note_on_c, 1, 94, 110
2, 181435, Note_off_c, 1, 94, 127
2, 181440, Note_on_c, 1, 101, 110
2, 181675, Note_off_c, 1, 101, 127
2, 181679, Note_on_c, 1, 104, 110
2, 181915, Note_off_c, 1, 104, 127
2, 181919, Note_on_c, 1, 94, 110
2, 182155, Note_off_c, 1, 94, 127
2, 182159, Note_on_c, 1, 101, 110
2, 182394, Note_off_c, 1, 101, 127
2, 182399, Note_on_c, 1, 94, 110
2, 182634, Note_off_c, 1, 94, 127
2, 182639, Note_on_c, 1, 101, 110
2, 182874, Note_off_c, 1, 101, 127
2, 182880, Note_on_c, 1, 106, 110
2, 183114, Note_off_c, 1, 106, 127
2, 183120, Note_on_c, 1, 94, 110
2, 183355, Note_off_c, 1, 94, 127
2, 183360, Note_on_c, 1, 101, 110
2, 183595, Note_off_c, 1, 101, 127
2, 183599, Note_on_c, 1, 104, 110
2, 183835, Note_off_c, 1, 104, 127
2, 183839, Note_on_c, 1, 94, 110
2, 184074, Note_off_c, 1, 94, 127
2, 184079, Note_on_c, 1, 101, 110
2, 184314, Note_off_c, 1, 101, 127
2, 184319, Note_on_c, 1, 94, 110
2, 184554, Note_off_c, 1, 94, 127
2, 184560, Note_on_c, 1, 101, 110
2, 184794, Note_off_c, 1, 101, 127
2, 184800, Note_on_c, 1, 106, 110
2, 185034, Note_off_c, 1, 106, 127
2, 185040, Note_on_c, 1, 94, 110
2, 185275, Note_off_c, 1, 94, 127
2, 185280, Note_on_c, 1, 101, 110
2, 185515, Note_off_c, 1, 101, 127
2, 185519, Note_on_c, 1, 104, 110
2, 185755, Note_off_c, 1, 104, 127
2, 185759, Note_on_c, 1, 94, 110
2, 185994, Note_off_c, 1, 94, 127
2, 185999, Note_on_c, 1, 101, 110
2, 186234, Note_off_c, 1, 101, 127
2, 186239, Note_on_c, 1, 89, 110
2, 186474, Note_off_c, 1, 89, 127
2, 186480, Note_on_c, 1, 96, 110
2, 186714, Note_off_c, 1, 96, 127
2, 186720, Note_on_c, 1, 101, 110
2, 186955, Note_off_c, 1, 101, 127
2, 186960, Note_on_c, 1, 89, 110
2, 187195, Note_off_c, 1, 89, 127
2, 187199, Note_on_c, 1, 96, 110
2, 187435, Note_off_c, 1, 96, 127
2, 187439, Note_on_c, 1, 99, 110
2, 187674, Note_off_c, 1, 99, 127
2, 187679, Note_on_c, 1, 89, 110
2, 187914, Note_off_c, 1, 89, 127
2, 187919, Note_on_c, 1, 96, 110
2, 188154, Note_off_c, 1, 96, 127
2, 188159, Note_on_c, 1, 89, 110
2, 188394, Note_off_c, 1, 89, 127
2, 188400, Note_on_c, 1, 96, 110
2, 188634, Note_off_c, 1, 96, 127
2, 188640, Note_on_c, 1, 101, 110
2, 188875, Note_off_c, 1, 101, 127
2, 188880, Note_on_c, 1, 89, 110
2, 189115, Note_off_c, 1, 89, 127
2, 189119, Note_on_c, 1, 96, 110
2, 189355, Note_off_c, 1, 96, 127
2, 189359, Note_on_c, 1, 99, 110
2, 189594, Note_off_c, 1, 99, 127
2, 189599, Note_on_c, 1, 89, 110
2, 189834, Note_off_c, 1, 89, 127
2, 189839, Note_on_c, 1, 96, 110
2, 190074, Note_off_c, 1, 96, 127
2, 190080, Note_on_c, 1, 89, 110
2, 190314, Note_off_c, 1, 89, 127
2, 190320, Note_on_c, 1, 96, 110
2, 190554, Note_off_c, 1, 96, 127
2, 190560, Note_on_c, 1, 101, 110
2, 190795, Note_off_c, 1, 101, 127
2, 190799, Note_on_c, 1, 89, 110
2, 191035, Note_off_c, 1, 89, 127
2, 191039, Note_on_c, 1, 96, 110
2, 191275, Note_off_c, 1, 96, 127
2, 191279, Note_on_c, 1, 99, 110
2, 191514, Note_off_c, 1, 99, 127
2, 191519, Note_on_c, 1, 89, 110
2, 191754, Note_off_c, 1, 89, 127
2, 191759, Note_on_c, 1, 96, 110
2, 191994, Note_off_c, 1, 96, 127
2, 192000, Note_on_c, 1, 89, 110
2, 192234, Note_off_c, 1, 89, 127
2, 192240, Note_on_c, 1, 96, 110
2, 192475, Note_off_c, 1, 96, 127
2, 192480, Note_on_c, 1, 101, 110
2, 192715, Note_off_c, 1, 101, 127
2, 192719, Note_on_c, 1, 89, 110
2, 192955, Note_off_c, 1, 89, 127
2, 192959, Note_on_c, 1, 96, 110
2, 193194, Note_off_c, 1, 96, 127
2, 193199, Note_on_c, 1, 99, 110
2, 193434, Note_off_c, 1, 99, 127
2, 193439, Note_on_c, 1, 89, 110
2, 193674, Note_off_c, 1, 89, 127
2, 193679, Note_on_c, 1, 96, 110
2, 193914, Note_off_c, 1, 96, 127
2, 193920, Note_on_c, 1, 89, 110
2, 194154, Note_off_c, 1, 89, 127
2, 194160, Note_on_c, 1, 96, 110
2, 194395, Note_off_c, 1, 96, 127
2, 194400, Note_on_c, 1, 101, 110
2, 194635, Note_off_c, 1, 101, 127
2, 194639, Note_on_c, 1, 89, 110
2, 194875, Note_off_c, 1, 89, 127
2, 194879, Note_on_c, 1, 96, 110
2, 195114, Note_off_c, 1, 96, 127
2, 195119, Note_on_c, 1, 99, 110
2, 195354, Note_off_c, 1, 99, 127
2, 195359, Note_on_c, 1, 89, 110
2, 195594, Note_off_c, 1, 89, 127
2, 195600, Note_on_c, 1, 96, 110
2, 195834, Note_off_c, 1, 96, 127
2, 195840, Note_on_c, 1, 89, 110
2, 196074, Note_off_c, 1, 89, 127
2, 196080, Note_on_c, 1, 96, 110
2, 196315, Note_off_c, 1, 96, 127
2, 196319, Note_on_c, 1, 101, 110
2, 196555, Note_off_c, 1, 101, 127
2, 196559, Note_on_c, 1, 89, 110
2, 196795, Note_off_c, 1, 89, 127
2, 196799, Note_on_c, 1, 96, 110
2, 197034, Note_off_c, 1, 96, 127
2, 197039, Note_on_c, 1, 99, 110
2, 197274, Note_off_c, 1, 99, 127
2, 197279, Note_on_c, 1, 89, 110
2, 197514, Note_off_c, 1, 89, 127
2, 197520, Note_on_c, 1, 96, 110
2, 197754, Note_off_c, 1, 96, 127
2, 197760, Note_on_c, 1, 89, 110
2, 197995, Note_off_c, 1, 89, 127
2, 198000, Note_on_c, 1, 96, 110
2, 198235, Note_off_c, 1, 96, 127
2, 198239, Note_on_c, 1, 101, 110
2, 198475, Note_off_c, 1, 101, 127
2, 198479, Note_on_c, 1, 89, 110
2, 198714, Note_off_c, 1, 89, 127
2, 198719, Note_on_c, 1, 96, 110
2, 198954, Note_off_c, 1, 96, 127
2, 198959, Note_on_c, 1, 99, 110
2, 199194, Note_off_c, 1, 99, 127
2, 199199, Note_on_c, 1, 89, 110
2, 199434, Note_off_c, 1, 89, 127
2, 199440, Note_on_c, 1, 96, 110
2, 199674, Note_off_c, 1, 96, 127
2, 199680, Note_on_c, 1, 89, 110
2, 199915, Note_off_c, 1, 89, 127
2, 199920, Note_on_c, 1, 96, 110
2, 200155, Note_off_c, 1, 96, 127
2, 200159, Note_on_c, 1, 101, 110
2, 200395, Note_off_c, 1, 101, 127
2, 200399, Note_on_c, 1, 89, 110
2, 200634, Note_off_c, 1, 89, 127
2, 200639, Note_on_c, 1, 96, 110
2, 200874, Note_off_c, 1, 96, 127
2, 200879, Note_on_c, 1, 99, 110
2, 201114, Note_off_c, 1, 99, 127
2, 201120, Note_on_c, 1, 89, 110
2, 201354, Note_off_c, 1, 89, 127
2, 201360, Note_on_c, 1, 96, 110
2, 201595, Note_off_c, 1, 96, 127
2, 201600, Note_on_c, 1, 85, 110
2, 201835, Note_off_c, 1, 85, 127
2, 201839, Note_on_c, 1, 92, 110
2, 202075, Note_off_c, 1, 92, 127
2, 202079, Note_on_c, 1, 97, 110
2, 202315, Note_off_c, 1, 97, 127
2, 202319, Note_on_c, 1, 85, 110
2, 202554, Note_off_c, 1, 85, 127
2, 202559, Note_on_c, 1, 92, 110
2, 202794, Note_off_c, 1, 92, 127
2, 202799, Note_on_c, 1, 95, 110
2, 203034, Note_off_c, 1, 95, 127
2, 203040, Note_on_c, 1, 85, 110
2, 203274, Note_off_c, 1, 85, 127
2, 203280, Note_on_c, 1, 92, 110
2, 203515, Note_off_c, 1, 92, 127
2, 203520, Note_on_c, 1, 85, 110
2, 203755, Note_off_c, 1, 85, 127
2, 203759, Note_on_c, 1, 92, 110
2, 203995, Note_off_c, 1, 92, 127
2, 203999, Note_on_c, 1, 97, 110
2, 204234, Note_off_c, 1, 97, 127
2, 204239, Note_on_c, 1, 85, 110
2, 204474, Note_off_c, 1, 85, 127
2, 204479, Note_on_c, 1, 92, 110
2, 204714, Note_off_c, 1, 92, 127
2, 204720, Note_on_c, 1, 95, 110
2, 204954, Note_off_c, 1, 95, 127
2, 204960, Note_on_c, 1, 85, 110
2, 205194, Note_off_c, 1, 85, 127
2, 205200, Note_on_c, 1, 92, 110
2, 205435, Note_off_c, 1, 92, 127
2, 205440, Note_on_c, 1, 88, 110
2, 205675, Note_off_c, 1, 88, 127
2, 205679, Note_on_c, 1, 95, 110
2, 205915, Note_off_c, 1, 95, 127
2, 205919, Note_on_c, 1, 100, 110
2, 206154, Note_off_c, 1, 100, 127
2, 206159, Note_on_c, 1, 88, 110
2, 206394, Note_off_c, 1, 88, 127
2, 206399, Note_on_c, 1, 95, 110
2, 206634, Note_off_c, 1, 95, 127
2, 206640, Note_on_c, 1, 98, 110
2, 206874, Note_off_c, 1, 98, 127
2, 206880, Note_on_c, 1, 88, 110
2, 207115, Note_off_c, 1, 88, 127
2, 207120, Note_on_c, 1, 95, 110
2, 207355, Note_off_c, 1, 95, 127
2, 207359, Note_on_c, 1, 88, 110
2, 207595, Note_off_c, 1, 88, 127
2, 207599, Note_on_c, 1, 95, 110
2, 207835, Note_off_c, 1, 95, 127
2, 207839, Note_on_c, 1, 100, 110
2, 208074, Note_off_c, 1, 100, 127
2, 208079, Note_on_c, 1, 88, 110
2, 208314, Note_off_c, 1, 88, 127
2, 208319, Note_on_c, 1, 95, 110
2, 208554, Note_off_c, 1, 95, 127
2, 208560, Note_on_c, 1, 98, 110
2, 208794, Note_off_c, 1, 98, 127
2, 208800, Note_on_c, 1, 88, 110
2, 209035, Note_off_c, 1, 88, 127
2, 209040, Note_on_c, 1, 95, 110
2, 209275, Note_off_c, 1, 95, 127
2, 209279, Note_on_c, 1, 90, 110
2, 209515, Note_off_c, 1, 90, 127
2, 209519, Note_on_c, 1, 97, 110
2, 209754, Note_off_c, 1, 97, 127
2, 209759, Note_on_c, 1, 102, 110
2, 209994, Note_off_c, 1, 102, 127
2, 209999, Note_on_c, 1, 90, 110
2, 210234, Note_off_c, 1, 90, 127
2, 210240, Note_on_c, 1, 97, 110
2, 210474, Note_off_c, 1, 97, 127
2, 210480, Note_on_c, 1, 100, 110
2, 210714, Note_off_c, 1, 100, 127
2, 210720, Note_on_c, 1, 90, 110
2, 210955, Note_off_c, 1, 90, 127
2, 210960, Note_on_c, 1, 97, 110
2, 211195, Note_off_c, 1, 97, 127
2, 211199, Note_on_c, 1, 90, 110
2, 211435, Note_off_c, 1, 90, 127
2, 211439, Note_on_c, 1, 97, 110
2, 211674, Note_off_c, 1, 97, 127
2, 211679, Note_on_c, 1, 102, 110
2, 211914, Note_off_c, 1, 102, 127
2, 211919, Note_on_c, 1, 90, 110
2, 212154, Note_off_c, 1, 90, 127
2, 212160, Note_on_c, 1, 97, 110
2, 212394, Note_off_c, 1, 97, 127
2, 212400, Note_on_c, 1, 100, 110
2, 212635, Note_off_c, 1, 100, 127
2, 212640, Note_on_c, 1, 90, 110
2, 212875, Note_off_c, 1, 90, 127
2, 212879, Note_on_c, 1, 97, 110
2, 213115, Note_off_c, 1, 97, 127
2, 213119, Note_on_c, 1, 85, 110
2, 213354, Note_off_c, 1, 85, 127
2, 213359, Note_on_c, 1, 92, 110
2, 213594, Note_off_c, 1, 92, 127
2, 213599, Note_on_c, 1, 97, 110
2, 213834, Note_off_c, 1, 97, 127
2, 213839, Note_on_c, 1, 85, 110
2, 214074, Note_off_c, 1, 85, 127
2, 214080, Note_on_c, 1, 92, 110
2, 214314, Note_off_c, 1, 92, 127
2, 214320, Note_on_c, 1, 95, 110
2, 214555, Note_off_c, 1, 95, 127
2, 214560, Note_on_c, 1, 85, 110
2, 214795, Note_off_c, 1, 85, 127
2, 214799, Note_on_c, 1, 92, 110
2, 215035, Note_off_c, 1, 92, 127
2, 215039, Note_on_c, 1, 85, 110
2, 215274, Note_off_c, 1, 85, 127
2, 215279, Note_on_c, 1, 92, 110
2, 215514, Note_off_c, 1, 92, 127
2, 215519, Note_on_c, 1, 97, 110
2, 215754, Note_off_c, 1, 97, 127
2, 215760, Note_on_c, 1, 85, 110
2, 215994, Note_off_c, 1, 85, 127
2, 216000, Note_on_c, 1, 92, 110
2, 216234, Note_off_c, 1, 92, 127
2, 216240, Note_on_c, 1, 95, 110
2, 216475, Note_off_c, 1, 95, 127
2, 216480, Note_on_c, 1, 85, 110
2, 216715, Note_off_c, 1, 85, 127
2, 216719, Note_on_c, 1, 92, 110
2, 216955, Note_off_c, 1, 92, 127
2, 216959, Note_on_c, 1, 85, 110
2, 217194, Note_off_c, 1, 85, 127
2, 217199, Note_on_c, 1, 92, 110
2, 217434, Note_off_c, 1, 92, 127
2, 217439, Note_on_c, 1, 97, 110
2, 217674, Note_off_c, 1, 97, 127
2, 217680, Note_on_c, 1, 85, 110
2, 217914, Note_off_c, 1, 85, 127
2, 217920, Note_on_c, 1, 92, 110
2, 218155, Note_off_c, 1, 92, 127
2, 218160, Note_on_c, 1, 95, 110
2, 218395, Note_off_c, 1, 95, 127
2, 218399, Note_on_c, 1, 85, 110
2, 218635, Note_off_c, 1, 85, 127
2, 218639, Note_on_c, 1, 92, 110
2, 218874, Note_off_c, 1, 92, 127
2, 218879, Note_on_c, 1, 85, 110
2, 219114, Note_off_c, 1, 85, 127
2, 219119, Note_on_c, 1, 92, 110
2, 219354, Note_off_c, 1, 92, 127
2, 219359, Note_on_c, 1, 97, 110
2, 219594, Note_off_c, 1, 97, 127
2, 219600, Note_on_c, 1, 85, 110
2, 219834, Note_off_c, 1, 85, 127
2, 219840, Note_on_c, 1, 92, 110
2, 220075, Note_off_c, 1, 92, 127
2, 220080, Note_on_c, 1, 95, 110
2, 220315, Note_off_c, 1, 95, 127
2, 220319, Note_on_c, 1, 85, 110
2, 220555, Note_off_c, 1, 85, 127
2, 220559, Note_on_c, 1, 92, 110
2, 220794, Note_off_c, 1, 92, 127
2, 220799, Note_on_c, 1, 88, 110
2, 221034, Note_off_c, 1, 88, 127
2, 221039, Note_on_c, 1, 95, 110
2, 221274, Note_off_c, 1, 95, 127
2, 221280, Note_on_c, 1, 100, 110
2, 221514, Note_off_c, 1, 100, 127
2, 221520, Note_on_c, 1, 88, 110
2, 221754, Note_off_c, 1, 88, 127
2, 221760, Note_on_c, 1, 95, 110
2, 221995, Note_off_c, 1, 95, 127
2, 221999, Note_on_c, 1, 98, 110
2, 222235, Note_off_c, 1, 98, 127
2, 222239, Note_on_c, 1, 88, 110
2, 222475, Note_off_c, 1, 88, 127
2, 222479, Note_on_c, 1, 95, 110
2, 222714, Note_off_c, 1, 95, 127
2, 222719, Note_on_c, 1, 88, 110
2, 222954, Note_off_c, 1, 88, 127
2, 222959, Note_on_c, 1, 95, 110
2, 223194, Note_off_c, 1, 95, 127
2, 223200, Note_on_c, 1, 100, 110
2, 223434, Note_off_c, 1, 100, 127
2, 223440, Note_on_c, 1, 88, 110
2, 223675, Note_off_c, 1, 88, 127
2, 223680, Note_on_c, 1, 95, 110
2, 223915, Note_off_c, 1, 95, 127
2, 223919, Note_on_c, 1, 98, 110
2, 224155, Note_off_c, 1, 98, 127
2, 224159, Note_on_c, 1, 88, 110
2, 224394, Note_off_c, 1, 88, 127
2, 224399, Note_on_c, 1, 95, 110
2, 224634, Note_off_c, 1, 95, 127
2, 224639, Note_on_c, 1, 90, 110
2, 224874, Note_off_c, 1, 90, 127
2, 224879, Note_on_c, 1, 97, 110
2, 225114, Note_off_c, 1, 97, 127
2, 225120, Note_on_c, 1, 102, 110
2, 225354, Note_off_c, 1, 102, 127
2, 225360, Note_on_c, 1, 90, 110
2, 225595, Note_off_c, 1, 90, 127
2, 225600, Note_on_c, 1, 97, 110
2, 225835, Note_off_c, 1, 97, 127
2, 225839, Note_on_c, 1, 100, 110
2, 226075, Note_off_c, 1, 100, 127
2, 226079, Note_on_c, 1, 90, 110
2, 226314, Note_off_c, 1, 90, 127
2, 226319, Note_on_c, 1, 97, 110
2, 226554, Note_off_c, 1, 97, 127
2, 226559, Note_on_c, 1, 90, 110
2, 226794, Note_off_c, 1, 90, 127
2, 226800, Note_on_c, 1, 97, 110
2, 227034, Note_off_c, 1, 97, 127
2, 227040, Note_on_c, 1, 102, 110
2, 227275, Note_off_c, 1, 102, 127
2, 227280, Note_on_c, 1, 90, 110
2, 227515, Note_off_c, 1, 90, 127
2, 227519, Note_on_c, 1, 97, 110
2, 227755, Note_off_c, 1, 97, 127
2, 227759, Note_on_c, 1, 100, 110
2, 227995, Note_off_c, 1, 100, 127
2, 227999, Note_on_c, 1, 90, 110
2, 228234, Note_off_c, 1, 90, 127
2, 228239, Note_on_c, 1, 97, 110
2, 228474, Note_off_c, 1, 97, 127
2, 228479, Note_on_c, 1, 85, 110
2, 228714, Note_off_c, 1, 85, 127
2, 228720, Note_on_c, 1, 92, 110
2, 228954, Note_off_c, 1, 92, 127
2, 228960, Note_on_c, 1, 97, 110
2, 229195, Note_off_c, 1, 97, 127
2, 229200, Note_on_c, 1, 85, 110
2, 229435, Note_off_c, 1, 85, 127
2, 229439, Note_on_c, 1, 92, 110
2, 229675, Note_off_c, 1, 92, 127
2, 229679, Note_on_c, 1, 95, 110
2, 229914, Note_off_c, 1, 95, 127
2, 229919, Note_on_c, 1, 85, 110
2, 230154, Note_off_c, 1, 85, 127
2, 230159, Note_on_c, 1, 92, 110
2, 230394, Note_off_c, 1, 92, 127
2, 230400, Note_on_c, 1, 85, 110
2, 230634, Note_off_c, 1, 85, 127
2, 230640, Note_on_c, 1, 92, 110
2, 230874, Note_off_c, 1, 92, 127
2, 230880, Note_on_c, 1, 97, 110
2, 231115, Note_off_c, 1, 97, 127
2, 231120, Note_on_c, 1, 85, 110
2, 231355, Note_off_c, 1, 85, 127
2, 231359, Note_on_c, 1, 92, 110
2, 231595, Note_off_c, 1, 92, 127
2, 231599, Note_on_c, 1, 95, 110
2, 231834, Note_off_c, 1, 95, 127
2, 231839, Note_on_c, 1, 85, 110
2, 232074, Note_off_c, 1, 85, 127
2, 232079, Note_on_c, 1, 92, 110
2, 232314, Note_off_c, 1, 92, 127
2, 232320, Note_on_c, 1, 85, 110
2, 232554, Note_off_c, 1, 85, 127
2, 232560, Note_on_c, 1, 92, 110
2, 232795, Note_off_c, 1, 92, 127
2, 232800, Note_on_c, 1, 97, 110
2, 233035, Note_off_c, 1, 97, 127
2, 233039, Note_on_c, 1, 85, 110
2, 233275, Note_off_c, 1, 85, 127
2, 233279, Note_on_c, 1, 92, 110
2, 233515, Note_off_c, 1, 92, 127
2, 233519, Note_on_c, 1, 95, 110
2, 233754, Note_off_c, 1, 95, 127
2, 233759, Note_on_c, 1, 85, 110
2, 233994, Note_off_c, 1, 85, 127
2, 233999, Note_on_c, 1, 92, 110
2, 234234, Note_off_c, 1, 92, 127
2, 234240, Note_on_c, 1, 85, 110
2, 234474, Note_off_c, 1, 85, 127
2, 234480, Note_on_c, 1, 92, 110
2, 234715, Note_off_c, 1, 92, 127
2, 234720, Note_on_c, 1, 97, 110
2, 234955, Note_off_c, 1, 97, 127
2, 234959, Note_on_c, 1, 85, 110
2, 235195, Note_off_c, 1, 85, 127
2, 235199, Note_on_c, 1, 92, 110
2, 235434, Note_off_c, 1, 92, 127
2, 235439, Note_on_c, 1, 95, 110
2, 235674, Note_off_c, 1, 95, 127
2, 235679, Note_on_c, 1, 85, 110
2, 235914, Note_off_c, 1, 85, 127
2, 235920, Note_on_c, 1, 92, 110
2, 236154, Note_off_c, 1, 92, 127
2, 236160, Note_on_c, 1, 88, 110
2, 236394, Note_off_c, 1, 88, 127
2, 236400, Note_on_c, 1, 95, 110
2, 236635, Note_off_c, 1, 95, 127
2, 236640, Note_on_c, 1, 100, 110
2, 236875, Note_off_c, 1, 100, 127
2, 236879, Note_on_c, 1, 88, 110
2, 237115, Note_off_c, 1, 88, 127
2, 237119, Note_on_c, 1, 95, 110
2, 237354, Note_off_c, 1, 95, 127
2, 237359, Note_on_c, 1, 98, 110
2, 237594, Note_off_c, 1, 98, 127
2, 237599, Note_on_c, 1, 88, 110
2, 237834, Note_off_c, 1, 88, 127
2, 237840, Note_on_c, 1, 95, 110
2, 238074, Note_off_c, 1, 95, 127
2, 238080, Note_on_c, 1, 88, 110
2, 238315, Note_off_c, 1, 88, 127
2, 238320, Note_on_c, 1, 95, 110
2, 238555, Note_off_c, 1, 95, 127
2, 238559, Note_on_c, 1, 100, 110
2, 238795, Note_off_c, 1, 100, 127
2, 238799, Note_on_c, 1, 88, 110
2, 239034, Note_off_c, 1, 88, 127
2, 239039, Note_on_c, 1, 95, 110
2, 239274, Note_off_c, 1, 95, 127
2, 239279, Note_on_c, 1, 98, 110
2, 239514, Note_off_c, 1, 98, 127
2, 239519, Note_on_c, 1, 88, 110
2, 239754, Note_off_c, 1, 88, 127
2, 239760, Note_on_c, 1, 95, 110
2, 239994, Note_off_c, 1, 95, 127
2, 240000, Note_on_c, 1, 90, 110
2, 240235, Note_off_c, 1, 90, 127
2, 240240, Note_on_c, 1, 97, 110
2, 240475, Note_off_c, 1, 97, 127
2, 240479, Note_on_c, 1, 102, 110
2, 240715, Note_off_c, 1, 102, 127
2, 240719, Note_on_c, 1, 90, 110
2, 240954, Note_off_c, 1, 90, 127
2, 240959, Note_on_c, 1, 97, 110
2, 241194, Note_off_c, 1, 97, 127
2, 241199, Note_on_c, 1, 100, 110
2, 241434, Note_off_c, 1, 100, 127
2, 241440, Note_on_c, 1, 90, 110
2, 241674, Note_off_c, 1, 90, 127
2, 241680, Note_on_c, 1, 97, 110
2, 241914, Note_off_c, 1, 97, 127
2, 241920, Note_on_c, 1, 90, 110
2, 242155, Note_off_c, 1, 90, 127
2, 242160, Note_on_c, 1, 97, 110
2, 242395, Note_off_c, 1, 97, 127
2, 242399, Note_on_c, 1, 102, 110
2, 242635, Note_off_c, 1, 102, 127
2, 242639, Note_on_c, 1, 90, 110
2, 242874, Note_off_c, 1, 90, 127
2, 242879, Note_on_c, 1, 97, 110
2, 243114, Note_off_c, 1, 97, 127
2, 243119, Note_on_c, 1, 100, 110
2, 243354, Note_off_c, 1, 100, 127
2, 243360, Note_on_c, 1, 90, 110
2, 243594, Note_off_c, 1, 90, 127
2, 243600, Note_on_c, 1, 97, 110
2, 243835, Note_off_c, 1, 97, 127
2, 243840, Note_on_c, 1, 85, 110
2, 244075, Note_off_c, 1, 85, 127
2, 244079, Note_on_c, 1, 92, 110
2, 244315, Note_off_c, 1, 92, 127
2, 244319, Note_on_c, 1, 97, 110
2, 244554, Note_off_c, 1, 97, 127
2, 244559, Note_on_c, 1, 85, 110
2, 244794, Note_off_c, 1, 85, 127
2, 244799, Note_on_c, 1, 92, 110
2, 245034, Note_off_c, 1, 92, 127
2, 245039, Note_on_c, 1, 95, 110
2, 245274, Note_off_c, 1, 95, 127
2, 245280, Note_on_c, 1, 85, 110
2, 245514, Note_off_c, 1, 85, 127
2, 245520, Note_on_c, 1, 92, 110
2, 245755, Note_off_c, 1, 92, 127
2, 245760, Note_on_c, 1, 85, 110
2, 245995, Note_off_c, 1, 85, 127
2, 245999, Note_on_c, 1, 92, 110
2, 246235, Note_off_c, 1, 92, 127
2, 246239, Note_on_c, 1, 97, 110
2, 246474, Note_off_c, 1, 97, 127
2, 246479, Note_on_c, 1, 85, 110
2, 246714, Note_off_c, 1, 85, 127
2, 246719, Note_on_c, 1, 92, 110
2, 246954, Note_off_c, 1, 92, 127
2, 246960, Note_on_c, 1, 95, 110
2, 247194, Note_off_c, 1, 95, 127
2, 247200, Note_on_c, 1, 85, 110
2, 247434, Note_off_c, 1, 85, 127
2, 247440, Note_on_c, 1, 92, 110
2, 247675, Note_off_c, 1, 92, 127
2, 278400, Note_on_c, 1, 85, 110
2, 278635, Note_off_c, 1, 85, 127
2, 278640, Note_on_c, 1, 92, 110
2, 278875, Note_off_c, 1, 92, 127
2, 278879, Note_on_c, 1, 97, 110
2, 279115, Note_off_c, 1, 97, 127
2, 279119, Note_on_c, 1, 85, 110
2, 279355, Note_off_c, 1, 85, 127
2, 279359, Note_on_c, 1, 92, 110
2, 279594, Note_off_c, 1, 92, 127
2, 279599, Note_on_c, 1, 95, 110
2, 279834, Note_off_c, 1, 95, 127
2, 279839, Note_on_c, 1, 85, 110
2, 280074, Note_off_c, 1, 85, 127
2, 280080, Note_on_c, 1, 92, 110
2, 280314, Note_off_c, 1, 92, 127
2, 280320, Note_on_c, 1, 85, 110
2, 280555, Note_off_c, 1, 85, 127
2, 280560, Note_on_c, 1, 92, 110
2, 280795, Note_off_c, 1, 92, 127
2, 280799, Note_on_c, 1, 97, 110
2, 281035, Note_off_c, 1, 97, 127
2, 281039, Note_on_c, 1, 85, 110
2, 281274, Note_off_c, 1, 85, 127
2, 281279, Note_on_c, 1, 92, 110
2, 281514, Note_off_c, 1, 92, 127
2, 281519, Note_on_c, 1, 95, 110
2, 281754, Note_off_c, 1, 95, 127
2, 281759, Note_on_c, 1, 85, 110
2, 281994, Note_off_c, 1, 85, 127
2, 282000, Note_on_c, 1, 92, 110
2, 282234, Note_off_c, 1, 92, 127
2, 282240, Note_on_c, 1, 88, 110
2, 282475, Note_off_c, 1, 88, 127
2, 282480, Note_on_c, 1, 95, 110
2, 282715, Note_off_c, 1, 95, 127
2, 282719, Note_on_c, 1, 100, 110
2, 282955, Note_off_c, 1, 100, 127
2, 282959, Note_on_c, 1, 88, 110
2, 283194, Note_off_c, 1, 88, 127
2, 283199, Note_on_c, 1, 95, 110
2, 283434, Note_off_c, 1, 95, 127
2, 283439, Note_on_c, 1, 98, 110
2, 283674, Note_off_c, 1, 98, 127
2, 283680, Note_on_c, 1, 88, 110
2, 283914, Note_off_c, 1, 88, 127
2, 283920, Note_on_c, 1, 95, 110
2, 284155, Note_off_c, 1, 95, 127
2, 284160, Note_on_c, 1, 88, 110
2, 284395, Note_off_c, 1, 88, 127
2, 284399, Note_on_c, 1, 95, 110
2, 284635, Note_off_c, 1, 95, 127
2, 284639, Note_on_c, 1, 100, 110
2, 284875, Note_off_c, 1, 100, 127
2, 284879, Note_on_c, 1, 88, 110
2, 285114, Note_off_c, 1, 88, 127
2, 285119, Note_on_c, 1, 95, 110
2, 285354, Note_off_c, 1, 95, 127
2, 285359, Note_on_c, 1, 98, 110
2, 285594, Note_off_c, 1, 98, 127
2, 285600, Note_on_c, 1, 88, 110
2, 285834, Note_off_c, 1, 88, 127
2, 285840, Note_on_c, 1, 95, 110
2, 286075, Note_off_c, 1, 95, 127
2, 286080, Note_on_c, 1, 90, 110
2, 286315, Note_off_c, 1, 90, 127
2, 286319, Note_on_c, 1, 97, 110
2, 286555, Note_off_c, 1, 97, 127
2, 286559, Note_on_c, 1, 102, 110
2, 286794, Note_off_c, 1, 102, 127
2, 286799, Note_on_c, 1, 90, 110
2, 287034, Note_off_c, 1, 90, 127
2, 287039, Note_on_c, 1, 97, 110
2, 287274, Note_off_c, 1, 97, 127
2, 287280, Note_on_c, 1, 100, 110
2, 287514, Note_off_c, 1, 100, 127
2, 287520, Note_on_c, 1, 90, 110
2, 287754, Note_off_c, 1, 90, 127
2, 287760, Note_on_c, 1, 97, 110
2, 287995, Note_off_c, 1, 97, 127
2, 288000, Note_on_c, 1, 90, 110
2, 288235, Note_off_c, 1, 90, 127
2, 288239, Note_on_c, 1, 97, 110
2, 288475, Note_off_c, 1, 97, 127
2, 288479, Note_on_c, 1, 102, 110
2, 288714, Note_off_c, 1, 102, 127
2, 288719, Note_on_c, 1, 90, 110
2, 288954, Note_off_c, 1, 90, 127
2, 288959, Note_on_c, 1, 97, 110
2, 289194, Note_off_c, 1, 97, 127
2, 289200, Note_on_c, 1, 100, 110
2, 289434, Note_off_c, 1, 100, 127
2, 289440, Note_on_c, 1, 90, 110
2, 289675, Note_off_c, 1, 90, 127
2, 289680, Note_on_c, 1, 97, 110
2, 289915, Note_off_c, 1, 97, 127
2, 289919, Note_on_c, 1, 85, 110
2, 290155, Note_off_c, 1, 85, 127
2, 290159, Note_on_c, 1, 92, 110
2, 290395, Note_off_c, 1, 92, 127
2, 290399, Note_on_c, 1, 97, 110
2, 290634, Note_off_c, 1, 97, 127
2, 290639, Note_on_c, 1, 85, 110
2, 290874, Note_off_c, 1, 85, 127
2, 290879, Note_on_c, 1, 92, 110
2, 291114, Note_off_c, 1, 92, 127
2, 291120, Note_on_c, 1, 95, 110
2, 291354, Note_off_c, 1, 95, 127
2, 291360, Note_on_c, 1, 85, 110
2, 291595, Note_off_c, 1, 85, 127
2, 291600, Note_on_c, 1, 92, 110
2, 291835, Note_off_c, 1, 92, 127
2, 291839, Note_on_c, 1, 85, 110
2, 292075, Note_off_c, 1, 85, 127
2, 292079, Note_on_c, 1, 92, 110
2, 292314, Note_off_c, 1, 92, 127
2, 292319, Note_on_c, 1, 97, 110
2, 292554, Note_off_c, 1, 97, 127
2, 292559, Note_on_c, 1, 85, 110
2, 292794, Note_off_c, 1, 85, 127
2, 292800, Note_on_c, 1, 92, 110
2, 293034, Note_off_c, 1, 92, 127
2, 293040, Note_on_c, 1, 95, 110
2, 293274, Note_off_c, 1, 95, 127
2, 293280, Note_on_c, 1, 85, 110
2, 293515, Note_off_c, 1, 85, 127
2, 293520, Note_on_c, 1, 92, 110
2, 293755, Note_off_c, 1, 92, 127
2, 295679, End_track
3, 0, Start_track
3, 0, Title_t, "Track4"
3, 17279, Note_on_c, 2, 77, 110
3, 17279, Note_on_c, 2, 70, 110
3, 17279, Control_c, 2, 91, 0
3, 17279, Control_c, 2, 7, 127
3, 17279, Control_c, 2, 93, 0
3, 17279, Control_c, 2, 10, 64
3, 17279, Control_c, 2, 121, 0
3, 17279, Program_c, 2, 50
3, 17279, Control_c, 2, 32, 0
3, 17279, Control_c, 2, 0, 0
3, 19079, Note_off_c, 2, 70, 127
3, 19079, Note_off_c, 2, 77, 127
3, 19199, Note_on_c, 2, 82, 110
3, 19199, Note_on_c, 2, 77, 110
3, 20999, Note_off_c, 2, 82, 127
3, 20999, Note_off_c, 2, 77, 127
3, 21119, Note_on_c, 2, 82, 110
3, 21119, Note_on_c, 2, 76, 110
3, 22919, Note_off_c, 2, 82, 127
3, 22919, Note_off_c, 2, 76, 127
3, 23039, Note_on_c, 2, 82, 110
3, 23039, Note_on_c, 2, 75, 110
3, 24839, Note_off_c, 2, 82, 127
3, 24839, Note_off_c, 2, 75, 127
3, 24960, Note_on_c, 2, 82, 110
3, 24960, Note_on_c, 2, 77, 110
3, 26760, Note_off_c, 2, 82, 127
3, 26760, Note_off_c, 2, 77, 127
3, 27839, Note_on_c, 2, 80, 110
3, 27839, Note_on_c, 2, 75, 110
3, 28680, Note_off_c, 2, 80, 127
3, 28680, Note_off_c, 2, 75, 127
3, 28800, Note_on_c, 2, 82, 110
3, 28800, Note_on_c, 2, 77, 110
3, 30600, Note_off_c, 2, 82, 127
3, 30600, Note_off_c, 2, 77, 127
3, 32640, Note_on_c, 2, 65, 110
3, 32640, Note_on_c, 2, 58, 110
3, 34440, Note_off_c, 2, 65, 127
3, 34440, Note_off_c, 2, 58, 127
3, 34560, Note_on_c, 2, 70, 110
3, 34560, Note_on_c, 2, 65, 110
3, 36360, Note_off_c, 2, 70, 127
3, 36360, Note_off_c, 2, 65, 127
3, 36480, Note_on_c, 2, 70, 110
3, 36480, Note_on_c, 2, 64, 110
3, 38280, Note_off_c, 2, 70, 127
3, 38280, Note_off_c, 2, 64, 127
3, 38400, Note_on_c, 2, 70, 110
3, 38400, Note_on_c, 2, 63, 110
3, 40200, Note_off_c, 2, 70, 127
3, 40200, Note_off_c, 2, 63, 127
3, 40320, Note_on_c, 2, 68, 110
3, 40320, Note_on_c, 2, 61, 110
3, 42120, Note_off_c, 2, 68, 127
3, 42120, Note_off_c, 2, 61, 127
3, 42239, Note_on_c, 2, 75, 110
3, 42239, Note_on_c, 2, 68, 110
3, 44039, Note_off_c, 2, 75, 127
3, 44039, Note_off_c, 2, 68, 127
3, 44159, Note_on_c, 2, 74, 110
3, 44159, Note_on_c, 2, 67, 110
3, 45959, Note_off_c, 2, 74, 127
3, 45959, Note_off_c, 2, 67, 127
3, 46079, Note_on_c, 2, 73, 110
3, 46079, Note_on_c, 2, 66, 110
3, 47879, Note_off_c, 2, 73, 127
3, 47879, Note_off_c, 2, 66, 127
3, 47999, Note_on_c, 2, 72, 110
3, 47999, Note_on_c, 2, 65, 110
3, 49799, Note_off_c, 2, 72, 127
3, 49799, Note_off_c, 2, 65, 127
3, 49919, Note_on_c, 2, 77, 110
3, 49919, Note_on_c, 2, 72, 110
3, 51719, Note_off_c, 2, 77, 127
3, 51719, Note_off_c, 2, 72, 127
3, 51839, Note_on_c, 2, 77, 110
3, 51839, Note_on_c, 2, 71, 110
3, 53639, Note_off_c, 2, 77, 127
3, 53639, Note_off_c, 2, 71, 127
3, 53759, Note_on_c, 2, 77, 110
3, 53759, Note_on_c, 2, 70, 110
3, 55559, Note_off_c, 2, 77, 127
3, 55559, Note_off_c, 2, 70, 127
3, 55679, Note_on_c, 2, 75, 110
3, 55679, Note_on_c, 2, 68, 110
3, 57479, Note_off_c, 2, 75, 127
3, 57479, Note_off_c, 2, 68, 127
3, 57599, Note_on_c, 2, 82, 110
3, 57599, Note_on_c, 2, 75, 110
3, 59399, Note_off_c, 2, 82, 127
3, 59399, Note_off_c, 2, 75, 127
3, 59519, Note_on_c, 2, 81, 110
3, 59519, Note_on_c, 2, 74, 110
3, 61319, Note_off_c, 2, 81, 127
3, 61319, Note_off_c, 2, 74, 127
3, 61439, Note_on_c, 2, 80, 110
3, 61439, Note_on_c, 2, 73, 110
3, 63239, Note_off_c, 2, 80, 127
3, 63239, Note_off_c, 2, 73, 127
3, 63359, Note_on_c, 2, 80, 110
3, 63359, Note_on_c, 2, 73, 110
3, 67079, Note_off_c, 2, 80, 127
3, 67079, Note_off_c, 2, 73, 127
3, 67200, Note_on_c, 2, 83, 110
3, 67200, Note_on_c, 2, 76, 110
3, 70920, Note_off_c, 2, 83, 127
3, 70920, Note_off_c, 2, 76, 127
3, 71040, Note_on_c, 2, 85, 110
3, 71040, Note_on_c, 2, 78, 110
3, 74760, Note_off_c, 2, 85, 127
3, 74760, Note_off_c, 2, 78, 127
3, 74880, Note_on_c, 2, 80, 110
3, 74880, Note_on_c, 2, 73, 110
3, 78600, Note_off_c, 2, 80, 127
3, 78600, Note_off_c, 2, 73, 127
3, 78720, Note_on_c, 2, 80, 110
3, 78720, Note_on_c, 2, 73, 110
3, 79360, Note_off_c, 2, 80, 127
3, 79360, Note_off_c, 2, 73, 127
3, 79439, Note_on_c, 2, 73, 110
3, 79439, Note_on_c, 2, 68, 110
3, 80520, Note_off_c, 2, 73, 127
3, 80520, Note_off_c, 2, 68, 127
3, 80640, Note_on_c, 2, 80, 110
3, 80640, Note_on_c, 2, 73, 110
3, 81280, Note_off_c, 2, 80, 127
3, 81280, Note_off_c, 2, 73, 127
3, 81359, Note_on_c, 2, 82, 110
3, 81359, Note_on_c, 2, 75, 110
3, 82440, Note_off_c, 2, 82, 127
3, 82440, Note_off_c, 2, 75, 127
3, 82559, Note_on_c, 2, 83, 110
3, 82559, Note_on_c, 2, 76, 110
3, 83200, Note_off_c, 2, 83, 127
3, 83200, Note_off_c, 2, 76, 127
3, 83279, Note_on_c, 2, 87, 110
3, 83279, Note_on_c, 2, 80, 110
3, 84360, Note_off_c, 2, 87, 127
3, 84360, Note_off_c, 2, 80, 127
3, 84479, Note_on_c, 2, 85, 110
3, 84479, Note_on_c, 2, 78, 110
3, 85120, Note_off_c, 2, 85, 127
3, 85120, Note_off_c, 2, 78, 127
3, 85199, Note_on_c, 2, 82, 110
3, 85199, Note_on_c, 2, 75, 110
3, 86279, Note_off_c, 2, 82, 127
3, 86279, Note_off_c, 2, 75, 127
3, 86399, Note_on_c, 2, 83, 110
3, 86399, Note_on_c, 2, 76, 110
3, 87040, Note_off_c, 2, 83, 127
3, 87040, Note_off_c, 2, 76, 127
3, 87119, Note_on_c, 2, 80, 110
3, 87119, Note_on_c, 2, 73, 110
3, 88199, Note_off_c, 2, 80, 127
3, 88199, Note_off_c, 2, 73, 127
3, 88319, Note_on_c, 2, 82, 110
3, 88319, Note_on_c, 2, 75, 110
3, 88960, Note_off_c, 2, 82, 127
3, 88960, Note_off_c, 2, 75, 127
3, 89039, Note_on_c, 2, 78, 110
3, 89039, Note_on_c, 2, 71, 110
3, 90119, Note_off_c, 2, 78, 127
3, 90119, Note_off_c, 2, 71, 127
3, 90239, Note_on_c, 2, 80, 110
3, 90239, Note_on_c, 2, 73, 110
3, 93959, Note_off_c, 2, 80, 127
3, 93959, Note_off_c, 2, 73, 127
3, 94079, Note_on_c, 2, 80, 110
3, 94079, Note_on_c, 2, 73, 110
3, 94720, Note_off_c, 2, 80, 127
3, 94720, Note_off_c, 2, 73, 127
3, 94800, Note_on_c, 2, 73, 110
3, 94800, Note_on_c, 2, 68, 110
3, 95879, Note_off_c, 2, 73, 127
3, 95879, Note_off_c, 2, 68, 127
3, 95999, Note_on_c, 2, 80, 110
3, 95999, Note_on_c, 2, 73, 110
3, 96639, Note_off_c, 2, 80, 127
3, 96639, Note_off_c, 2, 73, 127
3, 96720, Note_on_c, 2, 82, 110
3, 96720, Note_on_c, 2, 75, 110
3, 97799, Note_off_c, 2, 82, 127
3, 97799, Note_off_c, 2, 75, 127
3, 97919, Note_on_c, 2, 83, 110
3, 97919, Note_on_c, 2, 76, 110
3, 98559, Note_off_c, 2, 83, 127
3, 98559, Note_off_c, 2, 76, 127
3, 98640, Note_on_c, 2, 87, 110
3, 98640, Note_on_c, 2, 80, 110
3, 99719, Note_off_c, 2, 87, 127
3, 99719, Note_off_c, 2, 80, 127
3, 99839, Note_on_c, 2, 85, 110
3, 99839, Note_on_c, 2, 78, 110
3, 100479, Note_off_c, 2, 85, 127
3, 100479, Note_off_c, 2, 78, 127
3, 100560, Note_on_c, 2, 82, 110
3, 100560, Note_on_c, 2, 75, 110
3, 101639, Note_off_c, 2, 82, 127
3, 101639, Note_off_c, 2, 75, 127
3, 101759, Note_on_c, 2, 83, 110
3, 101759, Note_on_c, 2, 76, 110
3, 102399, Note_off_c, 2, 83, 127
3, 102399, Note_off_c, 2, 76, 127
3, 102480, Note_on_c, 2, 80, 110
3, 102480, Note_on_c, 2, 73, 110
3, 103559, Note_off_c, 2, 80, 127
3, 103559, Note_off_c, 2, 73, 127
3, 103679, Note_on_c, 2, 82, 110
3, 103679, Note_on_c, 2, 75, 110
3, 104319, Note_off_c, 2, 82, 127
3, 104319, Note_off_c, 2, 75, 127
3, 104400, Note_on_c, 2, 78, 110
3, 104400, Note_on_c, 2, 71, 110
3, 105479, Note_off_c, 2, 78, 127
3, 105479, Note_off_c, 2, 71, 127
3, 105599, Note_on_c, 2, 80, 110
3, 105599, Note_on_c, 2, 73, 110
3, 109320, Note_off_c, 2, 80, 127
3, 109320, Note_off_c, 2, 73, 127
3, 140159, Note_on_c, 2, 80, 110
3, 140159, Note_on_c, 2, 73, 110
3, 143879, Note_off_c, 2, 80, 127
3, 143879, Note_off_c, 2, 73, 127
3, 143999, Note_on_c, 2, 83, 110
3, 143999, Note_on_c, 2, 76, 110
3, 147719, Note_off_c, 2, 83, 127
3, 147719, Note_off_c, 2, 76, 127
3, 147839, Note_on_c, 2, 85, 110
3, 147839, Note_on_c, 2, 78, 110
3, 151560, Note_off_c, 2, 85, 127
3, 151560, Note_off_c, 2, 78, 127
3, 151680, Note_on_c, 2, 80, 110
3, 151680, Note_on_c, 2, 73, 110
3, 155400, Note_off_c, 2, 80, 127
3, 155400, Note_off_c, 2, 73, 127
3, 295679, End_track
4, 0, Start_track
4, 0, Title_t, "Track5"
4, 17279, Note_on_c, 3, 82, 110
4, 17279, Control_c, 3, 91, 0
4, 17279, Control_c, 3, 7, 127
4, 17279, Control_c, 3, 93, 0
4, 17279, Control_c, 3, 10, 64
4, 17279, Control_c, 3, 121, 0
4, 17279, Program_c, 3, 53
4, 17279, Control_c, 3, 32, 0
4, 17279, Control_c, 3, 0, 0
4, 19079, Note_off_c, 3, 82, 127
4, 19199, Note_on_c, 3, 89, 110
4, 20999, Note_off_c, 3, 89, 127
4, 21119, Note_on_c, 3, 88, 110
4, 22919, Note_off_c, 3, 88, 127
4, 23039, Note_on_c, 3, 87, 110
4, 24839, Note_off_c, 3, 87, 127
4, 24960, Note_on_c, 3, 82, 110
4, 25194, Note_off_c, 3, 82, 127
4, 25200, Note_on_c, 3, 89, 110
4, 25434, Note_off_c, 3, 89, 127
4, 25440, Note_on_c, 3, 87, 110
4, 25675, Note_off_c, 3, 87, 127
4, 25680, Note_on_c, 3, 82, 110
4, 25915, Note_off_c, 3, 82, 127
4, 25919, Note_on_c, 3, 89, 110
4, 26155, Note_off_c, 3, 89, 127
4, 26159, Note_on_c, 3, 87, 110
4, 26394, Note_off_c, 3, 87, 127
4, 26399, Note_on_c, 3, 82, 110
4, 26634, Note_off_c, 3, 82, 127
4, 26639, Note_on_c, 3, 89, 110
4, 26874, Note_off_c, 3, 89, 127
4, 26880, Note_on_c, 3, 87, 110
4, 27114, Note_off_c, 3, 87, 127
4, 27120, Note_on_c, 3, 82, 110
4, 27355, Note_off_c, 3, 82, 127
4, 27360, Note_on_c, 3, 89, 110
4, 27595, Note_off_c, 3, 89, 127
4, 27599, Note_on_c, 3, 87, 110
4, 27835, Note_off_c, 3, 87, 127
4, 27839, Note_on_c, 3, 90, 110
4, 28074, Note_off_c, 3, 90, 127
4, 28079, Note_on_c, 3, 91, 110
4, 28314, Note_off_c, 3, 91, 127
4, 28319, Note_on_c, 3, 92, 110
4, 28554, Note_off_c, 3, 92, 127
4, 28559, Note_on_c, 3, 93, 110
4, 28794, Note_off_c, 3, 93, 127
4, 28800, Note_on_c, 3, 94, 110
4, 29199, Note_off_c, 3, 94, 127
4, 32640, Note_on_c, 3, 70, 110
4, 34440, Note_off_c, 3, 70, 127
4, 34560, Note_on_c, 3, 77, 110
4, 36360, Note_off_c, 3, 77, 127
4, 36480, Note_on_c, 3, 76, 110
4, 38280, Note_off_c, 3, 76, 127
4, 38400, Note_on_c, 3, 75, 110
4, 40200, Note_off_c, 3, 75, 127
4, 40320, Note_on_c, 3, 73, 110
4, 42120, Note_off_c, 3, 73, 127
4, 42239, Note_on_c, 3, 80, 110
4, 44039, Note_off_c, 3, 80, 127
4, 44159, Note_on_c, 3, 79, 110
4, 45959, Note_off_c, 3, 79, 127
4, 46079, Note_on_c, 3, 78, 110
4, 47879, Note_off_c, 3, 78, 127
4, 47999, Note_on_c, 3, 77, 110
4, 49799, Note_off_c, 3, 77, 127
4, 49919, Note_on_c, 3, 84, 110
4, 51719, Note_off_c, 3, 84, 127
4, 51839, Note_on_c, 3, 83, 110
4, 53639, Note_off_c, 3, 83, 127
4, 53759, Note_on_c, 3, 82, 110
4, 55559, Note_off_c, 3, 82, 127
4, 55679, Note_on_c, 3, 80, 110
4, 57479, Note_off_c, 3, 80, 127
4, 57599, Note_on_c, 3, 87, 110
4, 59399, Note_off_c, 3, 87, 127
4, 59519, Note_on_c, 3, 86, 110
4, 61319, Note_off_c, 3, 86, 127
4, 61439, Note_on_c, 3, 85, 110
4, 63239, Note_off_c, 3, 85, 127
4, 63359, Note_on_c, 3, 61, 110
4, 63594, Note_off_c, 3, 61, 127
4, 63600, Note_on_c, 3, 68, 110
4, 63834, Note_off_c, 3, 68, 127
4, 63840, Note_on_c, 3, 73, 110
4, 64075, Note_off_c, 3, 73, 127
4, 64080, Note_on_c, 3, 61, 110
4, 64315, Note_off_c, 3, 61, 127
4, 64319, Note_on_c, 3, 68, 110
4, 64555, Note_off_c, 3, 68, 127
4, 64559, Note_on_c, 3, 71, 110
4, 64794, Note_off_c, 3, 71, 127
4, 64799, Note_on_c, 3, 61, 110
4, 65034, Note_off_c, 3, 61, 127
4, 65039, Note_on_c, 3, 66, 110
4, 65274, Note_off_c, 3, 66, 127
4, 65279, Note_on_c, 3, 68, 110
4, 65514, Note_off_c, 3, 68, 127
4, 65520, Note_on_c, 3, 61, 110
4, 65754, Note_off_c, 3, 61, 127
4, 65760, Note_on_c, 3, 64, 110
4, 65995, Note_off_c, 3, 64, 127
4, 66000, Note_on_c, 3, 66, 110
4, 66235, Note_off_c, 3, 66, 127
4, 66239, Note_on_c, 3, 61, 110
4, 66475, Note_off_c, 3, 61, 127
4, 66479, Note_on_c, 3, 63, 110
4, 66714, Note_off_c, 3, 63, 127
4, 66719, Note_on_c, 3, 64, 110
4, 66954, Note_off_c, 3, 64, 127
4, 66959, Note_on_c, 3, 66, 110
4, 67194, Note_off_c, 3, 66, 127
4, 67200, Note_on_c, 3, 64, 110
4, 67434, Note_off_c, 3, 64, 127
4, 67440, Note_on_c, 3, 71, 110
4, 67675, Note_off_c, 3, 71, 127
4, 67680, Note_on_c, 3, 76, 110
4, 67915, Note_off_c, 3, 76, 127
4, 67919, Note_on_c, 3, 64, 110
4, 68155, Note_off_c, 3, 64, 127
4, 68159, Note_on_c, 3, 71, 110
4, 68395, Note_off_c, 3, 71, 127
4, 68399, Note_on_c, 3, 74, 110
4, 68634, Note_off_c, 3, 74, 127
4, 68639, Note_on_c, 3, 64, 110
4, 68874, Note_off_c, 3, 64, 127
4, 68879, Note_on_c, 3, 69, 110
4, 69114, Note_off_c, 3, 69, 127
4, 69120, Note_on_c, 3, 71, 110
4, 69354, Note_off_c, 3, 71, 127
4, 69360, Note_on_c, 3, 64, 110
4, 69595, Note_off_c, 3, 64, 127
4, 69600, Note_on_c, 3, 67, 110
4, 69835, Note_off_c, 3, 67, 127
4, 69839, Note_on_c, 3, 69, 110
4, 70075, Note_off_c, 3, 69, 127
4, 70079, Note_on_c, 3, 64, 110
4, 70314, Note_off_c, 3, 64, 127
4, 70319, Note_on_c, 3, 66, 110
4, 70554, Note_off_c, 3, 66, 127
4, 70559, Note_on_c, 3, 67, 110
4, 70794, Note_off_c, 3, 67, 127
4, 70800, Note_on_c, 3, 69, 110
4, 71034, Note_off_c, 3, 69, 127
4, 71040, Note_on_c, 3, 66, 110
4, 71274, Note_off_c, 3, 66, 127
4, 71280, Note_on_c, 3, 73, 110
4, 71515, Note_off_c, 3, 73, 127
4, 71520, Note_on_c, 3, 78, 110
4, 71755, Note_off_c, 3, 78, 127
4, 71759, Note_on_c, 3, 66, 110
4, 71995, Note_off_c, 3, 66, 127
4, 71999, Note_on_c, 3, 73, 110
4, 72234, Note_off_c, 3, 73, 127
4, 72239, Note_on_c, 3, 76, 110
4, 72474, Note_off_c, 3, 76, 127
4, 72479, Note_on_c, 3, 66, 110
4, 72714, Note_off_c, 3, 66, 127
4, 72720, Note_on_c, 3, 71, 110
4, 72954, Note_off_c, 3, 71, 127
4, 72960, Note_on_c, 3, 73, 110
4, 73195, Note_off_c, 3, 73, 127
4, 73200, Note_on_c, 3, 66, 110
4, 73435, Note_off_c, 3, 66, 127
4, 73439, Note_on_c, 3, 69, 110
4, 73675, Note_off_c, 3, 69, 127
4, 73679, Note_on_c, 3, 71, 110
4, 73915, Note_off_c, 3, 71, 127
4, 73919, Note_on_c, 3, 66, 110
4, 74154, Note_off_c, 3, 66, 127
4, 74159, Note_on_c, 3, 68, 110
4, 74394, Note_off_c, 3, 68, 127
4, 74399, Note_on_c, 3, 69, 110
4, 74634, Note_off_c, 3, 69, 127
4, 74640, Note_on_c, 3, 71, 110
4, 74874, Note_off_c, 3, 71, 127
4, 74880, Note_on_c, 3, 61, 110
4, 75115, Note_off_c, 3, 61, 127
4, 75120, Note_on_c, 3, 68, 110
4, 75355, Note_off_c, 3, 68, 127
4, 75359, Note_on_c, 3, 73, 110
4, 75595, Note_off_c, 3, 73, 127
4, 75599, Note_on_c, 3, 61, 110
4, 75834, Note_off_c, 3, 61, 127
4, 75839, Note_on_c, 3, 68, 110
4, 76074, Note_off_c, 3, 68, 127
4, 76079, Note_on_c, 3, 71, 110
4, 76314, Note_off_c, 3, 71, 127
4, 76320, Note_on_c, 3, 61, 110
4, 76554, Note_off_c, 3, 61, 127
4, 76560, Note_on_c, 3, 66, 110
4, 76794, Note_off_c, 3, 66, 127
4, 76800, Note_on_c, 3, 68, 110
4, 77035, Note_off_c, 3, 68, 127
4, 77040, Note_on_c, 3, 61, 110
4, 77275, Note_off_c, 3, 61, 127
4, 77279, Note_on_c, 3, 64, 110
4, 77515, Note_off_c, 3, 64, 127
4, 77519, Note_on_c, 3, 66, 110
4, 77754, Note_off_c, 3, 66, 127
4, 77759, Note_on_c, 3, 61, 110
4, 77994, Note_off_c, 3, 61, 127
4, 77999, Note_on_c, 3, 63, 110
4, 78234, Note_off_c, 3, 63, 127
4, 78240, Note_on_c, 3, 64, 110
4, 78474, Note_off_c, 3, 64, 127
4, 78480, Note_on_c, 3, 66, 110
4, 78715, Note_off_c, 3, 66, 127
4, 78720, Note_on_c, 3, 61, 110
4, 78955, Note_off_c, 3, 61, 127
4, 78959, Note_on_c, 3, 68, 110
4, 79195, Note_off_c, 3, 68, 127
4, 79199, Note_on_c, 3, 73, 110
4, 79434, Note_off_c, 3, 73, 127
4, 79439, Note_on_c, 3, 61, 110
4, 79674, Note_off_c, 3, 61, 127
4, 79679, Note_on_c, 3, 68, 110
4, 79914, Note_off_c, 3, 68, 127
4, 79919, Note_on_c, 3, 71, 110
4, 80154, Note_off_c, 3, 71, 127
4, 80160, Note_on_c, 3, 61, 110
4, 80394, Note_off_c, 3, 61, 127
4, 80400, Note_on_c, 3, 66, 110
4, 80635, Note_off_c, 3, 66, 127
4, 80640, Note_on_c, 3, 68, 110
4, 80875, Note_off_c, 3, 68, 127
4, 80879, Note_on_c, 3, 61, 110
4, 81115, Note_off_c, 3, 61, 127
4, 81119, Note_on_c, 3, 64, 110
4, 81354, Note_off_c, 3, 64, 127
4, 81359, Note_on_c, 3, 66, 110
4, 81594, Note_off_c, 3, 66, 127
4, 81599, Note_on_c, 3, 61, 110
4, 81834, Note_off_c, 3, 61, 127
4, 81840, Note_on_c, 3, 63, 110
4, 82074, Note_off_c, 3, 63, 127
4, 82080, Note_on_c, 3, 64, 110
4, 82314, Note_off_c, 3, 64, 127
4, 82320, Note_on_c, 3, 66, 110
4, 82555, Note_off_c, 3, 66, 127
4, 82559, Note_on_c, 3, 64, 110
4, 82795, Note_off_c, 3, 64, 127
4, 82799, Note_on_c, 3, 71, 110
4, 83035, Note_off_c, 3, 71, 127
4, 83039, Note_on_c, 3, 76, 110
4, 83274, Note_off_c, 3, 76, 127
4, 83279, Note_on_c, 3, 64, 110
4, 83514, Note_off_c, 3, 64, 127
4, 83519, Note_on_c, 3, 71, 110
4, 83754, Note_off_c, 3, 71, 127
4, 83760, Note_on_c, 3, 74, 110
4, 83994, Note_off_c, 3, 74, 127
4, 84000, Note_on_c, 3, 64, 110
4, 84235, Note_off_c, 3, 64, 127
4, 84240, Note_on_c, 3, 69, 110
4, 84475, Note_off_c, 3, 69, 127
4, 84479, Note_on_c, 3, 71, 110
4, 84715, Note_off_c, 3, 71, 127
4, 84719, Note_on_c, 3, 64, 110
4, 84954, Note_off_c, 3, 64, 127
4, 84959, Note_on_c, 3, 67, 110
4, 85194, Note_off_c, 3, 67, 127
4, 85199, Note_on_c, 3, 69, 110
4, 85434, Note_off_c, 3, 69, 127
4, 85439, Note_on_c, 3, 64, 110
4, 85674, Note_off_c, 3, 64, 127
4, 85680, Note_on_c, 3, 66, 110
4, 85914, Note_off_c, 3, 66, 127
4, 85920, Note_on_c, 3, 67, 110
4, 86155, Note_off_c, 3, 67, 127
4, 86160, Note_on_c, 3, 69, 110
4, 86395, Note_off_c, 3, 69, 127
4, 86399, Note_on_c, 3, 66, 110
4, 86635, Note_off_c, 3, 66, 127
4, 86639, Note_on_c, 3, 73, 110
4, 86874, Note_off_c, 3, 73, 127
4, 86879, Note_on_c, 3, 78, 110
4, 87114, Note_off_c, 3, 78, 127
4, 87119, Note_on_c, 3, 66, 110
4, 87354, Note_off_c, 3, 66, 127
4, 87360, Note_on_c, 3, 73, 110
4, 87594, Note_off_c, 3, 73, 127
4, 87600, Note_on_c, 3, 76, 110
4, 87834, Note_off_c, 3, 76, 127
4, 87840, Note_on_c, 3, 66, 110
4, 88075, Note_off_c, 3, 66, 127
4, 88079, Note_on_c, 3, 71, 110
4, 88315, Note_off_c, 3, 71, 127
4, 88319, Note_on_c, 3, 73, 110
4, 88555, Note_off_c, 3, 73, 127
4, 88559, Note_on_c, 3, 66, 110
4, 88794, Note_off_c, 3, 66, 127
4, 88799, Note_on_c, 3, 69, 110
4, 89034, Note_off_c, 3, 69, 127
4, 89039, Note_on_c, 3, 71, 110
4, 89274, Note_off_c, 3, 71, 127
4, 89280, Note_on_c, 3, 66, 110
4, 89514, Note_off_c, 3, 66, 127
4, 89520, Note_on_c, 3, 68, 110
4, 89755, Note_off_c, 3, 68, 127
4, 89760, Note_on_c, 3, 69, 110
4, 89995, Note_off_c, 3, 69, 127
4, 89999, Note_on_c, 3, 71, 110
4, 90235, Note_off_c, 3, 71, 127
4, 90239, Note_on_c, 3, 61, 110
4, 90474, Note_off_c, 3, 61, 127
4, 90479, Note_on_c, 3, 68, 110
4, 90714, Note_off_c, 3, 68, 127
4, 90719, Note_on_c, 3, 73, 110
4, 90954, Note_off_c, 3, 73, 127
4, 90959, Note_on_c, 3, 61, 110
4, 91194, Note_off_c, 3, 61, 127
4, 91200, Note_on_c, 3, 68, 110
4, 91434, Note_off_c, 3, 68, 127
4, 91440, Note_on_c, 3, 71, 110
4, 91675, Note_off_c, 3, 71, 127
4, 91680, Note_on_c, 3, 61, 110
4, 91915, Note_off_c, 3, 61, 127
4, 91919, Note_on_c, 3, 66, 110
4, 92155, Note_off_c, 3, 66, 127
4, 92159, Note_on_c, 3, 68, 110
4, 92394, Note_off_c, 3, 68, 127
4, 92399, Note_on_c, 3, 61, 110
4, 92634, Note_off_c, 3, 61, 127
4, 92639, Note_on_c, 3, 64, 110
4, 92874, Note_off_c, 3, 64, 127
4, 92880, Note_on_c, 3, 66, 110
4, 93114, Note_off_c, 3, 66, 127
4, 93120, Note_on_c, 3, 61, 110
4, 93355, Note_off_c, 3, 61, 127
4, 93360, Note_on_c, 3, 63, 110
4, 93595, Note_off_c, 3, 63, 127
4, 93599, Note_on_c, 3, 64, 110
4, 93835, Note_off_c, 3, 64, 127
4, 93839, Note_on_c, 3, 66, 110
4, 94075, Note_off_c, 3, 66, 127
4, 94079, Note_on_c, 3, 61, 110
4, 94314, Note_off_c, 3, 61, 127
4, 94319, Note_on_c, 3, 68, 110
4, 94554, Note_off_c, 3, 68, 127
4, 94559, Note_on_c, 3, 73, 110
4, 94794, Note_off_c, 3, 73, 127
4, 94800, Note_on_c, 3, 61, 110
4, 95034, Note_off_c, 3, 61, 127
4, 95040, Note_on_c, 3, 68, 110
4, 95275, Note_off_c, 3, 68, 127
4, 95280, Note_on_c, 3, 71, 110
4, 95515, Note_off_c, 3, 71, 127
4, 95519, Note_on_c, 3, 61, 110
4, 95755, Note_off_c, 3, 61, 127
4, 95759, Note_on_c, 3, 66, 110
4, 95994, Note_off_c, 3, 66, 127
4, 95999, Note_on_c, 3, 68, 110
4, 96234, Note_off_c, 3, 68, 127
4, 96239, Note_on_c, 3, 61, 110
4, 96474, Note_off_c, 3, 61, 127
4, 96480, Note_on_c, 3, 64, 110
4, 96714, Note_off_c, 3, 64, 127
4, 96720, Note_on_c, 3, 66, 110
4, 96954, Note_off_c, 3, 66, 127
4, 96960, Note_on_c, 3, 61, 110
4, 97195, Note_off_c, 3, 61, 127
4, 97200, Note_on_c, 3, 63, 110
4, 97435, Note_off_c, 3, 63, 127
4, 97439, Note_on_c, 3, 64, 110
4, 97675, Note_off_c, 3, 64, 127
4, 97679, Note_on_c, 3, 66, 110
4, 97914, Note_off_c, 3, 66, 127
4, 97919, Note_on_c, 3, 64, 110
4, 98154, Note_off_c, 3, 64, 127
4, 98159, Note_on_c, 3, 71, 110
4, 98394, Note_off_c, 3, 71, 127
4, 98400, Note_on_c, 3, 76, 110
4, 98634, Note_off_c, 3, 76, 127
4, 98640, Note_on_c, 3, 64, 110
4, 98875, Note_off_c, 3, 64, 127
4, 98880, Note_on_c, 3, 71, 110
4, 99115, Note_off_c, 3, 71, 127
4, 99119, Note_on_c, 3, 74, 110
4, 99355, Note_off_c, 3, 74, 127
4, 99359, Note_on_c, 3, 64, 110
4, 99595, Note_off_c, 3, 64, 127
4, 99599, Note_on_c, 3, 69, 110
4, 99834, Note_off_c, 3, 69, 127
4, 99839, Note_on_c, 3, 71, 110
4, 100074, Note_off_c, 3, 71, 127
4, 100079, Note_on_c, 3, 64, 110
4, 100314, Note_off_c, 3, 64, 127
4, 100320, Note_on_c, 3, 67, 110
4, 100554, Note_off_c, 3, 67, 127
4, 100560, Note_on_c, 3, 69, 110
4, 100795, Note_off_c, 3, 69, 127
4, 100800, Note_on_c, 3, 64, 110
4, 101035, Note_off_c, 3, 64, 127
4, 101039, Note_on_c, 3, 66, 110
4, 101275, Note_off_c, 3, 66, 127
4, 101279, Note_on_c, 3, 67, 110
4, 101514, Note_off_c, 3, 67, 127
4, 101519, Note_on_c, 3, 69, 110
4, 101754, Note_off_c, 3, 69, 127
4, 101759, Note_on_c, 3, 66, 110
4, 101994, Note_off_c, 3, 66, 127
4, 102000, Note_on_c, 3, 73, 110
4, 102234, Note_off_c, 3, 73, 127
4, 102240, Note_on_c, 3, 78, 110
4, 102474, Note_off_c, 3, 78, 127
4, 102480, Note_on_c, 3, 66, 110
4, 102715, Note_off_c, 3, 66, 127
4, 102720, Note_on_c, 3, 73, 110
4, 102955, Note_off_c, 3, 73, 127
4, 102959, Note_on_c, 3, 76, 110
4, 103195, Note_off_c, 3, 76, 127
4, 103199, Note_on_c, 3, 66, 110
4, 103434, Note_off_c, 3, 66, 127
4, 103439, Note_on_c, 3, 71, 110
4, 103674, Note_off_c, 3, 71, 127
4, 103679, Note_on_c, 3, 73, 110
4, 103914, Note_off_c, 3, 73, 127
4, 103920, Note_on_c, 3, 66, 110
4, 104154, Note_off_c, 3, 66, 127
4, 104160, Note_on_c, 3, 69, 110
4, 104395, Note_off_c, 3, 69, 127
4, 104400, Note_on_c, 3, 71, 110
4, 104635, Note_off_c, 3, 71, 127
4, 104639, Note_on_c, 3, 66, 110
4, 104875, Note_off_c, 3, 66, 127
4, 104879, Note_on_c, 3, 68, 110
4, 105114, Note_off_c, 3, 68, 127
4, 105119, Note_on_c, 3, 69, 110
4, 105354, Note_off_c, 3, 69, 127
4, 105359, Note_on_c, 3, 71, 110
4, 105594, Note_off_c, 3, 71, 127
4, 105599, Note_on_c, 3, 61, 110
4, 105834, Note_off_c, 3, 61, 127
4, 105840, Note_on_c, 3, 68, 110
4, 106074, Note_off_c, 3, 68, 127
4, 106080, Note_on_c, 3, 73, 110
4, 106315, Note_off_c, 3, 73, 127
4, 106320, Note_on_c, 3, 61, 110
4, 106555, Note_off_c, 3, 61, 127
4, 106559, Note_on_c, 3, 68, 110
4, 106795, Note_off_c, 3, 68, 127
4, 106799, Note_on_c, 3, 71, 110
4, 107034, Note_off_c, 3, 71, 127
4, 107039, Note_on_c, 3, 61, 110
4, 107274, Note_off_c, 3, 61, 127
4, 107279, Note_on_c, 3, 66, 110
4, 107514, Note_off_c, 3, 66, 127
4, 107520, Note_on_c, 3, 68, 110
4, 107754, Note_off_c, 3, 68, 127
4, 107760, Note_on_c, 3, 61, 110
4, 107994, Note_off_c, 3, 61, 127
4, 108000, Note_on_c, 3, 64, 110
4, 108235, Note_off_c, 3, 64, 127
4, 108240, Note_on_c, 3, 66, 110
4, 108475, Note_off_c, 3, 66, 127
4, 108479, Note_on_c, 3, 61, 110
4, 108715, Note_off_c, 3, 61, 127
4, 108719, Note_on_c, 3, 63, 110
4, 108954, Note_off_c, 3, 63, 127
4, 108959, Note_on_c, 3, 64, 110
4, 109194, Note_off_c, 3, 64, 127
4, 109199, Note_on_c, 3, 66, 110
4, 109434, Note_off_c, 3, 66, 127
4, 109440, Note_on_c, 3, 56, 110
4, 110279, Note_off_c, 3, 56, 127
4, 110399, Note_on_c, 3, 55, 110
4, 111240, Note_off_c, 3, 55, 127
4, 111360, Note_on_c, 3, 58, 110
4, 112199, Note_off_c, 3, 58, 127
4, 112319, Note_on_c, 3, 56, 110
4, 113160, Note_off_c, 3, 56, 127
4, 113280, Note_on_c, 3, 61, 110
4, 114119, Note_off_c, 3, 61, 127
4, 114239, Note_on_c, 3, 60, 110
4, 115080, Note_off_c, 3, 60, 127
4, 115200, Note_on_c, 3, 64, 110
4, 116039, Note_off_c, 3, 64, 127
4, 116159, Note_on_c, 3, 63, 110
4, 117000, Note_off_c, 3, 63, 127
4, 117120, Note_on_c, 3, 68, 110
4, 117959, Note_off_c, 3, 68, 127
4, 118079, Note_on_c, 3, 67, 110
4, 118920, Note_off_c, 3, 67, 127
4, 119040, Note_on_c, 3, 70, 110
4, 119879, Note_off_c, 3, 70, 127
4, 119999, Note_on_c, 3, 68, 110
4, 120840, Note_off_c, 3, 68, 127
4, 120960, Note_on_c, 3, 73, 110
4, 121799, Note_off_c, 3, 73, 127
4, 121919, Note_on_c, 3, 72, 110
4, 122760, Note_off_c, 3, 72, 127
4, 122880, Note_on_c, 3, 76, 110
4, 123719, Note_off_c, 3, 76, 127
4, 123839, Note_on_c, 3, 75, 110
4, 124680, Note_off_c, 3, 75, 127
4, 124799, Note_on_c, 3, 80, 110
4, 125639, Note_off_c, 3, 80, 127
4, 125759, Note_on_c, 3, 79, 110
4, 126599, Note_off_c, 3, 79, 127
4, 126719, Note_on_c, 3, 82, 110
4, 127559, Note_off_c, 3, 82, 127
4, 127680, Note_on_c, 3, 80, 110
4, 128519, Note_off_c, 3, 80, 127
4, 128639, Note_on_c, 3, 85, 110
4, 129479, Note_off_c, 3, 85, 127
4, 129600, Note_on_c, 3, 84, 110
4, 130439, Note_off_c, 3, 84, 127
4, 130559, Note_on_c, 3, 88, 110
4, 131400, Note_off_c, 3, 88, 127
4, 131520, Note_on_c, 3, 87, 110
4, 132359, Note_off_c, 3, 87, 127
4, 132479, Note_on_c, 3, 92, 110
4, 133320, Note_off_c, 3, 92, 127
4, 133440, Note_on_c, 3, 91, 110
4, 134279, Note_off_c, 3, 91, 127
4, 134399, Note_on_c, 3, 94, 110
4, 135240, Note_off_c, 3, 94, 127
4, 135360, Note_on_c, 3, 92, 110
4, 136199, Note_off_c, 3, 92, 127
4, 136319, Note_on_c, 3, 97, 110
4, 137160, Note_off_c, 3, 97, 127
4, 137280, Note_on_c, 3, 96, 110
4, 138119, Note_off_c, 3, 96, 127
4, 138239, Note_on_c, 3, 100, 110
4, 139080, Note_off_c, 3, 100, 127
4, 139200, Note_on_c, 3, 99, 110
4, 140039, Note_off_c, 3, 99, 127
4, 140159, Note_on_c, 3, 61, 110
4, 140394, Note_off_c, 3, 61, 127
4, 140399, Note_on_c, 3, 68, 110
4, 140634, Note_off_c, 3, 68, 127
4, 140640, Note_on_c, 3, 73, 110
4, 140874, Note_off_c, 3, 73, 127
4, 140880, Note_on_c, 3, 61, 110
4, 141115, Note_off_c, 3, 61, 127
4, 141120, Note_on_c, 3, 68, 110
4, 141355, Note_off_c, 3, 68, 127
4, 141359, Note_on_c, 3, 71, 110
4, 141595, Note_off_c, 3, 71, 127
4, 141599, Note_on_c, 3, 61, 110
4, 141834, Note_off_c, 3, 61, 127
4, 141839, Note_on_c, 3, 66, 110
4, 142074, Note_off_c, 3, 66, 127
4, 142079, Note_on_c, 3, 68, 110
4, 142314, Note_off_c, 3, 68, 127
4, 142319, Note_on_c, 3, 61, 110
4, 142554, Note_off_c, 3, 61, 127
4, 142560, Note_on_c, 3, 64, 110
4, 142794, Note_off_c, 3, 64, 127
4, 142800, Note_on_c, 3, 66, 110
4, 143035, Note_off_c, 3, 66, 127
4, 143040, Note_on_c, 3, 61, 110
4, 143275, Note_off_c, 3, 61, 127
4, 143279, Note_on_c, 3, 63, 110
4, 143515, Note_off_c, 3, 63, 127
4, 143519, Note_on_c, 3, 64, 110
4, 143754, Note_off_c, 3, 64, 127
4, 143759, Note_on_c, 3, 66, 110
4, 143994, Note_off_c, 3, 66, 127
4, 143999, Note_on_c, 3, 64, 110
4, 144234, Note_off_c, 3, 64, 127
4, 144240, Note_on_c, 3, 71, 110
4, 144474, Note_off_c, 3, 71, 127
4, 144480, Note_on_c, 3, 76, 110
4, 144715, Note_off_c, 3, 76, 127
4, 144720, Note_on_c, 3, 64, 110
4, 144955, Note_off_c, 3, 64, 127
4, 144959, Note_on_c, 3, 71, 110
4, 145195, Note_off_c, 3, 71, 127
4, 145199, Note_on_c, 3, 74, 110
4, 145435, Note_off_c, 3, 74, 127
4, 145439, Note_on_c, 3, 64, 110
4, 145674, Note_off_c, 3, 64, 127
4, 145679, Note_on_c, 3, 69, 110
4, 145914, Note_off_c, 3, 69, 127
4, 145919, Note_on_c, 3, 71, 110
4, 146154, Note_off_c, 3, 71, 127
4, 146160, Note_on_c, 3, 64, 110
4, 146394, Note_off_c, 3, 64, 127
4, 146400, Note_on_c, 3, 67, 110
4, 146635, Note_off_c, 3, 67, 127
4, 146640, Note_on_c, 3, 69, 110
4, 146875, Note_off_c, 3, 69, 127
4, 146879, Note_on_c, 3, 64, 110
4, 147115, Note_off_c, 3, 64, 127
4, 147119, Note_on_c, 3, 66, 110
4, 147354, Note_off_c, 3, 66, 127
4, 147359, Note_on_c, 3, 67, 110
4, 147594, Note_off_c, 3, 67, 127
4, 147599, Note_on_c, 3, 69, 110
4, 147834, Note_off_c, 3, 69, 127
4, 147839, Note_on_c, 3, 66, 110
4, 148074, Note_off_c, 3, 66, 127
4, 148080, Note_on_c, 3, 73, 110
4, 148314, Note_off_c, 3, 73, 127
4, 148320, Note_on_c, 3, 78, 110
4, 148555, Note_off_c, 3, 78, 127
4, 148560, Note_on_c, 3, 66, 110
4, 148795, Note_off_c, 3, 66, 127
4, 148799, Note_on_c, 3, 73, 110
4, 149035, Note_off_c, 3, 73, 127
4, 149039, Note_on_c, 3, 76, 110
4, 149274, Note_off_c, 3, 76, 127
4, 149279, Note_on_c, 3, 66, 110
4, 149514, Note_off_c, 3, 66, 127
4, 149519, Note_on_c, 3, 71, 110
4, 149754, Note_off_c, 3, 71, 127
4, 149760, Note_on_c, 3, 73, 110
4, 149994, Note_off_c, 3, 73, 127
4, 150000, Note_on_c, 3, 66, 110
4, 150235, Note_off_c, 3, 66, 127
4, 150240, Note_on_c, 3, 69, 110
4, 150475, Note_off_c, 3, 69, 127
4, 150479, Note_on_c, 3, 71, 110
4, 150715, Note_off_c, 3, 71, 127
4, 150719, Note_on_c, 3, 66, 110
4, 150955, Note_off_c, 3, 66, 127
4, 150959, Note_on_c, 3, 68, 110
4, 151194, Note_off_c, 3, 68, 127
4, 151199, Note_on_c, 3, 69, 110
4, 151434, Note_off_c, 3, 69, 127
4, 151439, Note_on_c, 3, 71, 110
4, 151674, Note_off_c, 3, 71, 127
4, 151680, Note_on_c, 3, 61, 110
4, 151914, Note_off_c, 3, 61, 127
4, 151920, Note_on_c, 3, 68, 110
4, 152155, Note_off_c, 3, 68, 127
4, 152160, Note_on_c, 3, 73, 110
4, 152395, Note_off_c, 3, 73, 127
4, 152399, Note_on_c, 3, 61, 110
4, 152635, Note_off_c, 3, 61, 127
4, 152639, Note_on_c, 3, 68, 110
4, 152874, Note_off_c, 3, 68, 127
4, 152879, Note_on_c, 3, 71, 110
4, 153114, Note_off_c, 3, 71, 127
4, 153119, Note_on_c, 3, 61, 110
4, 153354, Note_off_c, 3, 61, 127
4, 153360, Note_on_c, 3, 66, 110
4, 153594, Note_off_c, 3, 66, 127
4, 153600, Note_on_c, 3, 68, 110
4, 153834, Note_off_c, 3, 68, 127
4, 153840, Note_on_c, 3, 61, 110
4, 154075, Note_off_c, 3, 61, 127
4, 154080, Note_on_c, 3, 64, 110
4, 154315, Note_off_c, 3, 64, 127
4, 154319, Note_on_c, 3, 66, 110
4, 154555, Note_off_c, 3, 66, 127
4, 154559, Note_on_c, 3, 61, 110
4, 154794, Note_off_c, 3, 61, 127
4, 154799, Note_on_c, 3, 63, 110
4, 155034, Note_off_c, 3, 63, 127
4, 155039, Note_on_c, 3, 64, 110
4, 155274, Note_off_c, 3, 64, 127
4, 155280, Note_on_c, 3, 66, 110
4, 155514, Note_off_c, 3, 66, 127
4, 155520, Note_on_c, 3, 82, 110
4, 157320, Note_off_c, 3, 82, 127
4, 157440, Note_on_c, 3, 89, 110
4, 159240, Note_off_c, 3, 89, 127
4, 159360, Note_on_c, 3, 88, 110
4, 161160, Note_off_c, 3, 88, 127
4, 161280, Note_on_c, 3, 87, 110
4, 163080, Note_off_c, 3, 87, 127
4, 163200, Note_on_c, 3, 82, 110
4, 163435, Note_off_c, 3, 82, 127
4, 163439, Note_on_c, 3, 89, 110
4, 163675, Note_off_c, 3, 89, 127
4, 163679, Note_on_c, 3, 87, 110
4, 163914, Note_off_c, 3, 87, 127
4, 163919, Note_on_c, 3, 82, 110
4, 164154, Note_off_c, 3, 82, 127
4, 164159, Note_on_c, 3, 89, 110
4, 164394, Note_off_c, 3, 89, 127
4, 164400, Note_on_c, 3, 87, 110
4, 164634, Note_off_c, 3, 87, 127
4, 164640, Note_on_c, 3, 82, 110
4, 164874, Note_off_c, 3, 82, 127
4, 164880, Note_on_c, 3, 89, 110
4, 165115, Note_off_c, 3, 89, 127
4, 165119, Note_on_c, 3, 87, 110
4, 165355, Note_off_c, 3, 87, 127
4, 165359, Note_on_c, 3, 82, 110
4, 165595, Note_off_c, 3, 82, 127
4, 165599, Note_on_c, 3, 89, 110
4, 165834, Note_off_c, 3, 89, 127
4, 165839, Note_on_c, 3, 87, 110
4, 166074, Note_off_c, 3, 87, 127
4, 166079, Note_on_c, 3, 90, 110
4, 166314, Note_off_c, 3, 90, 127
4, 166320, Note_on_c, 3, 91, 110
4, 166554, Note_off_c, 3, 91, 127
4, 166560, Note_on_c, 3, 92, 110
4, 166795, Note_off_c, 3, 92, 127
4, 166800, Note_on_c, 3, 93, 110
4, 167035, Note_off_c, 3, 93, 127
4, 167039, Note_on_c, 3, 94, 110
4, 167440, Note_off_c, 3, 94, 127
4, 170879, Note_on_c, 3, 70, 110
4, 172679, Note_off_c, 3, 70, 127
4, 172799, Note_on_c, 3, 77, 110
4, 174599, Note_off_c, 3, 77, 127
4, 174719, Note_on_c, 3, 76, 110
4, 176519, Note_off_c, 3, 76, 127
4, 176639, Note_on_c, 3, 75, 110
4, 178439, Note_off_c, 3, 75, 127
4, 178559, Note_on_c, 3, 73, 110
4, 180359, Note_off_c, 3, 73, 127
4, 180479, Note_on_c, 3, 80, 110
4, 182279, Note_off_c, 3, 80, 127
4, 182399, Note_on_c, 3, 79, 110
4, 184199, Note_off_c, 3, 79, 127
4, 184319, Note_on_c, 3, 78, 110
4, 186119, Note_off_c, 3, 78, 127
4, 186239, Note_on_c, 3, 77, 110
4, 188039, Note_off_c, 3, 77, 127
4, 188159, Note_on_c, 3, 84, 110
4, 189959, Note_off_c, 3, 84, 127
4, 190080, Note_on_c, 3, 83, 110
4, 191880, Note_off_c, 3, 83, 127
4, 192000, Note_on_c, 3, 82, 110
4, 193800, Note_off_c, 3, 82, 127
4, 193920, Note_on_c, 3, 80, 110
4, 195720, Note_off_c, 3, 80, 127
4, 195840, Note_on_c, 3, 87, 110
4, 197640, Note_off_c, 3, 87, 127
4, 197760, Note_on_c, 3, 86, 110
4, 199560, Note_off_c, 3, 86, 127
4, 199680, Note_on_c, 3, 85, 110
4, 201480, Note_off_c, 3, 85, 127
4, 201600, Note_on_c, 3, 61, 110
4, 201835, Note_off_c, 3, 61, 127
4, 201839, Note_on_c, 3, 68, 110
4, 202075, Note_off_c, 3, 68, 127
4, 202079, Note_on_c, 3, 73, 110
4, 202315, Note_off_c, 3, 73, 127
4, 202319, Note_on_c, 3, 61, 110
4, 202554, Note_off_c, 3, 61, 127
4, 202559, Note_on_c, 3, 68, 110
4, 202794, Note_off_c, 3, 68, 127
4, 202799, Note_on_c, 3, 71, 110
4, 203034, Note_off_c, 3, 71, 127
4, 203040, Note_on_c, 3, 61, 110
4, 203274, Note_off_c, 3, 61, 127
4, 203280, Note_on_c, 3, 66, 110
4, 203515, Note_off_c, 3, 66, 127
4, 203520, Note_on_c, 3, 68, 110
4, 203755, Note_off_c, 3, 68, 127
4, 203759, Note_on_c, 3, 61, 110
4, 203995, Note_off_c, 3, 61, 127
4, 203999, Note_on_c, 3, 64, 110
4, 204234, Note_off_c, 3, 64, 127
4, 204239, Note_on_c, 3, 66, 110
4, 204474, Note_off_c, 3, 66, 127
4, 204479, Note_on_c, 3, 61, 110
4, 204714, Note_off_c, 3, 61, 127
4, 204720, Note_on_c, 3, 63, 110
4, 204954, Note_off_c, 3, 63, 127
4, 204960, Note_on_c, 3, 64, 110
4, 205194, Note_off_c, 3, 64, 127
4, 205200, Note_on_c, 3, 66, 110
4, 205435, Note_off_c, 3, 66, 127
4, 205440, Note_on_c, 3, 64, 110
4, 205675, Note_off_c, 3, 64, 127
4, 205679, Note_on_c, 3, 71, 110
4, 205915, Note_off_c, 3, 71, 127
4, 205919, Note_on_c, 3, 76, 110
4, 206154, Note_off_c, 3, 76, 127
4, 206159, Note_on_c, 3, 64, 110
4, 206394, Note_off_c, 3, 64, 127
4, 206399, Note_on_c, 3, 71, 110
4, 206634, Note_off_c, 3, 71, 127
4, 206640, Note_on_c, 3, 74, 110
4, 206874, Note_off_c, 3, 74, 127
4, 206880, Note_on_c, 3, 64, 110
4, 207115, Note_off_c, 3, 64, 127
4, 207120, Note_on_c, 3, 69, 110
4, 207355, Note_off_c, 3, 69, 127
4, 207359, Note_on_c, 3, 71, 110
4, 207595, Note_off_c, 3, 71, 127
4, 207599, Note_on_c, 3, 64, 110
4, 207835, Note_off_c, 3, 64, 127
4, 207839, Note_on_c, 3, 67, 110
4, 208074, Note_off_c, 3, 67, 127
4, 208079, Note_on_c, 3, 69, 110
4, 208314, Note_off_c, 3, 69, 127
4, 208319, Note_on_c, 3, 64, 110
4, 208554, Note_off_c, 3, 64, 127
4, 208560, Note_on_c, 3, 66, 110
4, 208794, Note_off_c, 3, 66, 127
4, 208800, Note_on_c, 3, 67, 110
4, 209035, Note_off_c, 3, 67, 127
4, 209040, Note_on_c, 3, 69, 110
4, 209275, Note_off_c, 3, 69, 127
4, 209279, Note_on_c, 3, 66, 110
4, 209515, Note_off_c, 3, 66, 127
4, 209519, Note_on_c, 3, 73, 110
4, 209754, Note_off_c, 3, 73, 127
4, 209759, Note_on_c, 3, 78, 110
4, 209994, Note_off_c, 3, 78, 127
4, 209999, Note_on_c, 3, 66, 110
4, 210234, Note_off_c, 3, 66, 127
4, 210240, Note_on_c, 3, 73, 110
4, 210474, Note_off_c, 3, 73, 127
4, 210480, Note_on_c, 3, 76, 110
4, 210714, Note_off_c, 3, 76, 127
4, 210720, Note_on_c, 3, 66, 110
4, 210955, Note_off_c, 3, 66, 127
4, 210960, Note_on_c, 3, 71, 110
4, 211195, Note_off_c, 3, 71, 127
4, 211199, Note_on_c, 3, 73, 110
4, 211435, Note_off_c, 3, 73, 127
4, 211439, Note_on_c, 3, 66, 110
4, 211674, Note_off_c, 3, 66, 127
4, 211679, Note_on_c, 3, 69, 110
4, 211914, Note_off_c, 3, 69, 127
4, 211919, Note_on_c, 3, 71, 110
4, 212154, Note_off_c, 3, 71, 127
4, 212160, Note_on_c, 3, 66, 110
4, 212394, Note_off_c, 3, 66, 127
4, 212400, Note_on_c, 3, 68, 110
4, 212635, Note_off_c, 3, 68, 127
4, 212640, Note_on_c, 3, 69, 110
4, 212875, Note_off_c, 3, 69, 127
4, 212879, Note_on_c, 3, 71, 110
4, 213115, Note_off_c, 3, 71, 127
4, 213119, Note_on_c, 3, 61, 110
4, 213354, Note_off_c, 3, 61, 127
4, 213359, Note_on_c, 3, 68, 110
4, 213594, Note_off_c, 3, 68, 127
4, 213599, Note_on_c, 3, 73, 110
4, 213834, Note_off_c, 3, 73, 127
4, 213839, Note_on_c, 3, 61, 110
4, 214074, Note_off_c, 3, 61, 127
4, 214080, Note_on_c, 3, 68, 110
4, 214314, Note_off_c, 3, 68, 127
4, 214320, Note_on_c, 3, 71, 110
4, 214555, Note_off_c, 3, 71, 127
4, 214560, Note_on_c, 3, 61, 110
4, 214795, Note_off_c, 3, 61, 127
4, 214799, Note_on_c, 3, 66, 110
4, 215035, Note_off_c, 3, 66, 127
4, 215039, Note_on_c, 3, 68, 110
4, 215274, Note_off_c, 3, 68, 127
4, 215279, Note_on_c, 3, 61, 110
4, 215514, Note_off_c, 3, 61, 127
4, 215519, Note_on_c, 3, 64, 110
4, 215754, Note_off_c, 3, 64, 127
4, 215760, Note_on_c, 3, 66, 110
4, 215994, Note_off_c, 3, 66, 127
4, 216000, Note_on_c, 3, 61, 110
4, 216234, Note_off_c, 3, 61, 127
4, 216240, Note_on_c, 3, 63, 110
4, 216475, Note_off_c, 3, 63, 127
4, 216480, Note_on_c, 3, 64, 110
4, 216715, Note_off_c, 3, 64, 127
4, 216719, Note_on_c, 3, 66, 110
4, 216955, Note_off_c, 3, 66, 127
4, 216959, Note_on_c, 3, 61, 110
4, 217194, Note_off_c, 3, 61, 127
4, 217199, Note_on_c, 3, 68, 110
4, 217434, Note_off_c, 3, 68, 127
4, 217439, Note_on_c, 3, 73, 110
4, 217674, Note_off_c, 3, 73, 127
4, 217680, Note_on_c, 3, 61, 110
4, 217914, Note_off_c, 3, 61, 127
4, 217920, Note_on_c, 3, 68, 110
4, 218155, Note_off_c, 3, 68, 127
4, 218160, Note_on_c, 3, 71, 110
4, 218395, Note_off_c, 3, 71, 127
4, 218399, Note_on_c, 3, 61, 110
4, 218635, Note_off_c, 3, 61, 127
4, 218639, Note_on_c, 3, 66, 110
4, 218874, Note_off_c, 3, 66, 127
4, 218879, Note_on_c, 3, 68, 110
4, 219114, Note_off_c, 3, 68, 127
4, 219119, Note_on_c, 3, 61, 110
4, 219354, Note_off_c, 3, 61, 127
4, 219359, Note_on_c, 3, 64, 110
4, 219594, Note_off_c, 3, 64, 127
4, 219600, Note_on_c, 3, 66, 110
4, 219834, Note_off_c, 3, 66, 127
4, 219840, Note_on_c, 3, 61, 110
4, 220075, Note_off_c, 3, 61, 127
4, 220080, Note_on_c, 3, 63, 110
4, 220315, Note_off_c, 3, 63, 127
4, 220319, Note_on_c, 3, 64, 110
4, 220555, Note_off_c, 3, 64, 127
4, 220559, Note_on_c, 3, 66, 110
4, 220794, Note_off_c, 3, 66, 127
4, 220799, Note_on_c, 3, 64, 110
4, 221034, Note_off_c, 3, 64, 127
4, 221039, Note_on_c, 3, 71, 110
4, 221274, Note_off_c, 3, 71, 127
4, 221280, Note_on_c, 3, 76, 110
4, 221514, Note_off_c, 3, 76, 127
4, 221520, Note_on_c, 3, 64, 110
4, 221754, Note_off_c, 3, 64, 127
4, 221760, Note_on_c, 3, 71, 110
4, 221995, Note_off_c, 3, 71, 127
4, 221999, Note_on_c, 3, 74, 110
4, 222235, Note_off_c, 3, 74, 127
4, 222239, Note_on_c, 3, 64, 110
4, 222475, Note_off_c, 3, 64, 127
4, 222479, Note_on_c, 3, 69, 110
4, 222714, Note_off_c, 3, 69, 127
4, 222719, Note_on_c, 3, 71, 110
4, 222954, Note_off_c, 3, 71, 127
4, 222959, Note_on_c, 3, 64, 110
4, 223194, Note_off_c, 3, 64, 127
4, 223200, Note_on_c, 3, 67, 110
4, 223434, Note_off_c, 3, 67, 127
4, 223440, Note_on_c, 3, 69, 110
4, 223675, Note_off_c, 3, 69, 127
4, 223680, Note_on_c, 3, 64, 110
4, 223915, Note_off_c, 3, 64, 127
4, 223919, Note_on_c, 3, 66, 110
4, 224155, Note_off_c, 3, 66, 127
4, 224159, Note_on_c, 3, 67, 110
4, 224394, Note_off_c, 3, 67, 127
4, 224399, Note_on_c, 3, 69, 110
4, 224634, Note_off_c, 3, 69, 127
4, 224639, Note_on_c, 3, 66, 110
4, 224874, Note_off_c, 3, 66, 127
4, 224879, Note_on_c, 3, 73, 110
4, 225114, Note_off_c, 3, 73, 127
4, 225120, Note_on_c, 3, 78, 110
4, 225354, Note_off_c, 3, 78, 127
4, 225360, Note_on_c, 3, 66, 110
4, 225595, Note_off_c, 3, 66, 127
4, 225600, Note_on_c, 3, 73, 110
4, 225835, Note_off_c, 3, 73, 127
4, 225839, Note_on_c, 3, 76, 110
4, 226075, Note_off_c, 3, 76, 127
4, 226079, Note_on_c, 3, 66, 110
4, 226314, Note_off_c, 3, 66, 127
4, 226319, Note_on_c, 3, 71, 110
4, 226554, Note_off_c, 3, 71, 127
4, 226559, Note_on_c, 3, 73, 110
4, 226794, Note_off_c, 3, 73, 127
4, 226800, Note_on_c, 3, 66, 110
4, 227034, Note_off_c, 3, 66, 127
4, 227040, Note_on_c, 3, 69, 110
4, 227275, Note_off_c, 3, 69, 127
4, 227280, Note_on_c, 3, 71, 110
4, 227515, Note_off_c, 3, 71, 127
4, 227519, Note_on_c, 3, 66, 110
4, 227755, Note_off_c, 3, 66, 127
4, 227759, Note_on_c, 3, 68, 110
4, 227995, Note_off_c, 3, 68, 127
4, 227999, Note_on_c, 3, 69, 110
4, 228234, Note_off_c, 3, 69, 127
4, 228239, Note_on_c, 3, 71, 110
4, 228474, Note_off_c, 3, 71, 127
4, 228479, Note_on_c, 3, 61, 110
4, 228714, Note_off_c, 3, 61, 127
4, 228720, Note_on_c, 3, 68, 110
4, 228954, Note_off_c, 3, 68, 127
4, 228960, Note_on_c, 3, 73, 110
4, 229195, Note_off_c, 3, 73, 127
4, 229200, Note_on_c, 3, 61, 110
4, 229435, Note_off_c, 3, 61, 127
4, 229439, Note_on_c, 3, 68, 110
4, 229675, Note_off_c, 3, 68, 127
4, 229679, Note_on_c, 3, 71, 110
4, 229914, Note_off_c, 3, 71, 127
4, 229919, Note_on_c, 3, 61, 110
4, 230154, Note_off_c, 3, 61, 127
4, 230159, Note_on_c, 3, 66, 110
4, 230394, Note_off_c, 3, 66, 127
4, 230400, Note_on_c, 3, 68, 110
4, 230634, Note_off_c, 3, 68, 127
4, 230640, Note_on_c, 3, 61, 110
4, 230874, Note_off_c, 3, 61, 127
4, 230880, Note_on_c, 3, 64, 110
4, 231115, Note_off_c, 3, 64, 127
4, 231120, Note_on_c, 3, 66, 110
4, 231355, Note_off_c, 3, 66, 127
4, 231359, Note_on_c, 3, 61, 110
4, 231595, Note_off_c, 3, 61, 127
4, 231599, Note_on_c, 3, 63, 110
4, 231834, Note_off_c, 3, 63, 127
4, 231839, Note_on_c, 3, 64, 110
4, 232074, Note_off_c, 3, 64, 127
4, 232079, Note_on_c, 3, 66, 110
4, 232314, Note_off_c, 3, 66, 127
4, 232320, Note_on_c, 3, 61, 110
4, 232554, Note_off_c, 3, 61, 127
4, 232560, Note_on_c, 3, 68, 110
4, 232795, Note_off_c, 3, 68, 127
4, 232800, Note_on_c, 3, 73, 110
4, 233035, Note_off_c, 3, 73, 127
4, 233039, Note_on_c, 3, 61, 110
4, 233275, Note_off_c, 3, 61, 127
4, 233279, Note_on_c, 3, 68, 110
4, 233515, Note_off_c, 3, 68, 127
4, 233519, Note_on_c, 3, 71, 110
4, 233754, Note_off_c, 3, 71, 127
4, 233759, Note_on_c, 3, 61, 110
4, 233994, Note_off_c, 3, 61, 127
4, 233999, Note_on_c, 3, 66, 110
4, 234234, Note_off_c, 3, 66, 127
4, 234240, Note_on_c, 3, 68, 110
4, 234474, Note_off_c, 3, 68, 127
4, 234480, Note_on_c, 3, 61, 110
4, 234715, Note_off_c, 3, 61, 127
4, 234720, Note_on_c, 3, 64, 110
4, 234955, Note_off_c, 3, 64, 127
4, 234959, Note_on_c, 3, 66, 110
4, 235195, Note_off_c, 3, 66, 127
4, 235199, Note_on_c, 3, 61, 110
4, 235434, Note_off_c, 3, 61, 127
4, 235439, Note_on_c, 3, 63, 110
4, 235674, Note_off_c, 3, 63, 127
4, 235679, Note_on_c, 3, 64, 110
4, 235914, Note_off_c, 3, 64, 127
4, 235920, Note_on_c, 3, 66, 110
4, 236154, Note_off_c, 3, 66, 127
4, 236160, Note_on_c, 3, 64, 110
4, 236394, Note_off_c, 3, 64, 127
4, 236400, Note_on_c, 3, 71, 110
4, 236635, Note_off_c, 3, 71, 127
4, 236640, Note_on_c, 3, 76, 110
4, 236875, Note_off_c, 3, 76, 127
4, 236879, Note_on_c, 3, 64, 110
4, 237115, Note_off_c, 3, 64, 127
4, 237119, Note_on_c, 3, 71, 110
4, 237354, Note_off_c, 3, 71, 127
4, 237359, Note_on_c, 3, 74, 110
4, 237594, Note_off_c, 3, 74, 127
4, 237599, Note_on_c, 3, 64, 110
4, 237834, Note_off_c, 3, 64, 127
4, 237840, Note_on_c, 3, 69, 110
4, 238074, Note_off_c, 3, 69, 127
4, 238080, Note_on_c, 3, 71, 110
4, 238315, Note_off_c, 3, 71, 127
4, 238320, Note_on_c, 3, 64, 110
4, 238555, Note_off_c, 3, 64, 127
4, 238559, Note_on_c, 3, 67, 110
4, 238795, Note_off_c, 3, 67, 127
4, 238799, Note_on_c, 3, 69, 110
4, 239034, Note_off_c, 3, 69, 127
4, 239039, Note_on_c, 3, 64, 110
4, 239274, Note_off_c, 3, 64, 127
4, 239279, Note_on_c, 3, 66, 110
4, 239514, Note_off_c, 3, 66, 127
4, 239519, Note_on_c, 3, 67, 110
4, 239754, Note_off_c, 3, 67, 127
4, 239760, Note_on_c, 3, 69, 110
4, 239994, Note_off_c, 3, 69, 127
4, 240000, Note_on_c, 3, 66, 110
4, 240235, Note_off_c, 3, 66, 127
4, 240240, Note_on_c, 3, 73, 110
4, 240475, Note_off_c, 3, 73, 127
4, 240479, Note_on_c, 3, 78, 110
4, 240715, Note_off_c, 3, 78, 127
4, 240719, Note_on_c, 3, 66, 110
4, 240954, Note_off_c, 3, 66, 127
4, 240959, Note_on_c, 3, 73, 110
4, 241194, Note_off_c, 3, 73, 127
4, 241199, Note_on_c, 3, 76, 110
4, 241434, Note_off_c, 3, 76, 127
4, 241440, Note_on_c, 3, 66, 110
4, 241674, Note_off_c, 3, 66, 127
4, 241680, Note_on_c, 3, 71, 110
4, 241914, Note_off_c, 3, 71, 127
4, 241920, Note_on_c, 3, 73, 110
4, 242155, Note_off_c, 3, 73, 127
4, 242160, Note_on_c, 3, 66, 110
4, 242395, Note_off_c, 3, 66, 127
4, 242399, Note_on_c, 3, 69, 110
4, 242635, Note_off_c, 3, 69, 127
4, 242639, Note_on_c, 3, 71, 110
4, 242874, Note_off_c, 3, 71, 127
4, 242879, Note_on_c, 3, 66, 110
4, 243114, Note_off_c, 3, 66, 127
4, 243119, Note_on_c, 3, 68, 110
4, 243354, Note_off_c, 3, 68, 127
4, 243360, Note_on_c, 3, 69, 110
4, 243594, Note_off_c, 3, 69, 127
4, 243600, Note_on_c, 3, 71, 110
4, 243835, Note_off_c, 3, 71, 127
4, 243840, Note_on_c, 3, 61, 110
4, 244075, Note_off_c, 3, 61, 127
4, 244079, Note_on_c, 3, 68, 110
4, 244315, Note_off_c, 3, 68, 127
4, 244319, Note_on_c, 3, 73, 110
4, 244554, Note_off_c, 3, 73, 127
4, 244559, Note_on_c, 3, 61, 110
4, 244794, Note_off_c, 3, 61, 127
4, 244799, Note_on_c, 3, 68, 110
4, 245034, Note_off_c, 3, 68, 127
4, 245039, Note_on_c, 3, 71, 110
4, 245274, Note_off_c, 3, 71, 127
4, 245280, Note_on_c, 3, 61, 110
4, 245514, Note_off_c, 3, 61, 127
4, 245520, Note_on_c, 3, 66, 110
4, 245755, Note_off_c, 3, 66, 127
4, 245760, Note_on_c, 3, 68, 110
4, 245995, Note_off_c, 3, 68, 127
4, 245999, Note_on_c, 3, 61, 110
4, 246235, Note_off_c, 3, 61, 127
4, 246239, Note_on_c, 3, 64, 110
4, 246474, Note_off_c, 3, 64, 127
4, 246479, Note_on_c, 3, 66, 110
4, 246714, Note_off_c, 3, 66, 127
4, 246719, Note_on_c, 3, 61, 110
4, 246954, Note_off_c, 3, 61, 127
4, 246960, Note_on_c, 3, 63, 110
4, 247194, Note_off_c, 3, 63, 127
4, 247200, Note_on_c, 3, 64, 110
4, 247434, Note_off_c, 3, 64, 127
4, 247440, Note_on_c, 3, 66, 110
4, 247675, Note_off_c, 3, 66, 127
4, 247679, Note_on_c, 3, 56, 110
4, 248519, Note_off_c, 3, 56, 127
4, 248639, Note_on_c, 3, 55, 110
4, 249480, Note_off_c, 3, 55, 127
4, 249599, Note_on_c, 3, 58, 110
4, 250439, Note_off_c, 3, 58, 127
4, 250559, Note_on_c, 3, 56, 110
4, 251399, Note_off_c, 3, 56, 127
4, 251519, Note_on_c, 3, 61, 110
4, 252359, Note_off_c, 3, 61, 127
4, 252480, Note_on_c, 3, 60, 110
4, 253319, Note_off_c, 3, 60, 127
4, 253439, Note_on_c, 3, 64, 110
4, 254280, Note_off_c, 3, 64, 127
4, 254400, Note_on_c, 3, 63, 110
4, 255239, Note_off_c, 3, 63, 127
4, 255359, Note_on_c, 3, 68, 110
4, 256200, Note_off_c, 3, 68, 127
4, 256320, Note_on_c, 3, 67, 110
4, 257159, Note_off_c, 3, 67, 127
4, 257279, Note_on_c, 3, 70, 110
4, 258120, Note_off_c, 3, 70, 127
4, 258240, Note_on_c, 3, 68, 110
4, 259079, Note_off_c, 3, 68, 127
4, 259199, Note_on_c, 3, 73, 110
4, 260040, Note_off_c, 3, 73, 127
4, 260160, Note_on_c, 3, 72, 110
4, 260999, Note_off_c, 3, 72, 127
4, 261119, Note_on_c, 3, 76, 110
4, 261960, Note_off_c, 3, 76, 127
4, 262080, Note_on_c, 3, 75, 110
4, 262919, Note_off_c, 3, 75, 127
4, 263039, Note_on_c, 3, 80, 110
4, 263880, Note_off_c, 3, 80, 127
4, 264000, Note_on_c, 3, 79, 110
4, 264839, Note_off_c, 3, 79, 127
4, 264959, Note_on_c, 3, 82, 110
4, 265800, Note_off_c, 3, 82, 127
4, 265920, Note_on_c, 3, 80, 110
4, 266759, Note_off_c, 3, 80, 127
4, 266879, Note_on_c, 3, 85, 110
4, 267720, Note_off_c, 3, 85, 127
4, 267840, Note_on_c, 3, 84, 110
4, 268679, Note_off_c, 3, 84, 127
4, 268799, Note_on_c, 3, 88, 110
4, 269640, Note_off_c, 3, 88, 127
4, 269759, Note_on_c, 3, 87, 110
4, 270599, Note_off_c, 3, 87, 127
4, 270719, Note_on_c, 3, 92, 110
4, 271559, Note_off_c, 3, 92, 127
4, 271679, Note_on_c, 3, 91, 110
4, 272519, Note_off_c, 3, 91, 127
4, 272640, Note_on_c, 3, 94, 110
4, 273479, Note_off_c, 3, 94, 127
4, 273599, Note_on_c, 3, 92, 110
4, 274440, Note_off_c, 3, 92, 127
4, 274560, Note_on_c, 3, 97, 110
4, 275399, Note_off_c, 3, 97, 127
4, 275519, Note_on_c, 3, 96, 110
4, 276360, Note_off_c, 3, 96, 127
4, 276480, Note_on_c, 3, 100, 110
4, 277319, Note_off_c, 3, 100, 127
4, 277439, Note_on_c, 3, 99, 110
4, 278280, Note_off_c, 3, 99, 127
4, 278400, Note_on_c, 3, 61, 110
4, 278635, Note_off_c, 3, 61, 127
4, 278640, Note_on_c, 3, 68, 110
4, 278875, Note_off_c, 3, 68, 127
4, 278879, Note_on_c, 3, 73, 110
4, 279115, Note_off_c, 3, 73, 127
4, 279119, Note_on_c, 3, 61, 110
4, 279355, Note_off_c, 3, 61, 127
4, 279359, Note_on_c, 3, 68, 110
4, 279594, Note_off_c, 3, 68, 127
4, 279599, Note_on_c, 3, 71, 110
4, 279834, Note_off_c, 3, 71, 127
4, 279839, Note_on_c, 3, 61, 110
4, 280074, Note_off_c, 3, 61, 127
4, 280080, Note_on_c, 3, 66, 110
4, 280314, Note_off_c, 3, 66, 127
4, 280320, Note_on_c, 3, 68, 110
4, 280555, Note_off_c, 3, 68, 127
4, 280560, Note_on_c, 3, 61, 110
4, 280795, Note_off_c, 3, 61, 127
4, 280799, Note_on_c, 3, 64, 110
4, 281035, Note_off_c, 3, 64, 127
4, 281039, Note_on_c, 3, 66, 110
4, 281274, Note_off_c, 3, 66, 127
4, 281279, Note_on_c, 3, 61, 110
4, 281514, Note_off_c, 3, 61, 127
4, 281519, Note_on_c, 3, 63, 110
4, 281754, Note_off_c, 3, 63, 127
4, 281759, Note_on_c, 3, 64, 110
4, 281994, Note_off_c, 3, 64, 127
4, 282000, Note_on_c, 3, 66, 110
4, 282234, Note_off_c, 3, 66, 127
4, 282240, Note_on_c, 3, 64, 110
4, 282475, Note_off_c, 3, 64, 127
4, 282480, Note_on_c, 3, 71, 110
4, 282715, Note_off_c, 3, 71, 127
4, 282719, Note_on_c, 3, 76, 110
4, 282955, Note_off_c, 3, 76, 127
4, 282959, Note_on_c, 3, 64, 110
4, 283194, Note_off_c, 3, 64, 127
4, 283199, Note_on_c, 3, 71, 110
4, 283434, Note_off_c, 3, 71, 127
4, 283439, Note_on_c, 3, 74, 110
4, 283674, Note_off_c, 3, 74, 127
4, 283680, Note_on_c, 3, 64, 110
4, 283914, Note_off_c, 3, 64, 127
4, 283920, Note_on_c, 3, 69, 110
4, 284155, Note_off_c, 3, 69, 127
4, 284160, Note_on_c, 3, 71, 110
4, 284395, Note_off_c, 3, 71, 127
4, 284399, Note_on_c, 3, 64, 110
4, 284635, Note_off_c, 3, 64, 127
4, 284639, Note_on_c, 3, 67, 110
4, 284875, Note_off_c, 3, 67, 127
4, 284879, Note_on_c, 3, 69, 110
4, 285114, Note_off_c, 3, 69, 127
4, 285119, Note_on_c, 3, 64, 110
4, 285354, Note_off_c, 3, 64, 127
4, 285359, Note_on_c, 3, 66, 110
4, 285594, Note_off_c, 3, 66, 127
4, 285600, Note_on_c, 3, 67, 110
4, 285834, Note_off_c, 3, 67, 127
4, 285840, Note_on_c, 3, 69, 110
4, 286075, Note_off_c, 3, 69, 127
4, 286080, Note_on_c, 3, 66, 110
4, 286315, Note_off_c, 3, 66, 127
4, 286319, Note_on_c, 3, 73, 110
4, 286555, Note_off_c, 3, 73, 127
4, 286559, Note_on_c, 3, 78, 110
4, 286794, Note_off_c, 3, 78, 127
4, 286799, Note_on_c, 3, 66, 110
4, 287034, Note_off_c, 3, 66, 127
4, 287039, Note_on_c, 3, 73, 110
4, 287274, Note_off_c, 3, 73, 127
4, 287280, Note_on_c, 3, 76, 110
4, 287514, Note_off_c, 3, 76, 127
4, 287520, Note_on_c, 3, 66, 110
4, 287754, Note_off_c, 3, 66, 127
4, 287760, Note_on_c, 3, 71, 110
4, 287995, Note_off_c, 3, 71, 127
4, 288000, Note_on_c, 3, 73, 110
4, 288235, Note_off_c, 3, 73, 127
4, 288239, Note_on_c, 3, 66, 110
4, 288475, Note_off_c, 3, 66, 127
4, 288479, Note_on_c, 3, 69, 110
4, 288714, Note_off_c, 3, 69, 127
4, 288719, Note_on_c, 3, 71, 110
4, 288954, Note_off_c, 3, 71, 127
4, 288959, Note_on_c, 3, 66, 110
4, 289194, Note_off_c, 3, 66, 127
4, 289200, Note_on_c, 3, 68, 110
4, 289434, Note_off_c, 3, 68, 127
4, 289440, Note_on_c, 3, 69, 110
4, 289675, Note_off_c, 3, 69, 127
4, 289680, Note_on_c, 3, 71, 110
4, 289915, Note_off_c, 3, 71, 127
4, 289919, Note_on_c, 3, 61, 110
4, 290155, Note_off_c, 3, 61, 127
4, 290159, Note_on_c, 3, 68, 110
4, 290395, Note_off_c, 3, 68, 127
4, 290399, Note_on_c, 3, 73, 110
4, 290634, Note_off_c, 3, 73, 127
4, 290639, Note_on_c, 3, 61, 110
4, 290874, Note_off_c, 3, 61, 127
4, 290879, Note_on_c, 3, 68, 110
4, 291114, Note_off_c, 3, 68, 127
4, 291120, Note_on_c, 3, 71, 110
4, 291354, Note_off_c, 3, 71, 127
4, 291360, Note_on_c, 3, 61, 110
4, 291595, Note_off_c, 3, 61, 127
4, 291600, Note_on_c, 3, 66, 110
4, 291835, Note_off_c, 3, 66, 127
4, 291839, Note_on_c, 3, 68, 110
4, 292075, Note_off_c, 3, 68, 127
4, 292079, Note_on_c, 3, 61, 110
4, 292314, Note_off_c, 3, 61, 127
4, 292319, Note_on_c, 3, 64, 110
4, 292554, Note_off_c, 3, 64, 127
4, 292559, Note_on_c, 3, 66, 110
4, 292794, Note_off_c, 3, 66, 127
4, 292800, Note_on_c, 3, 61, 110
4, 293034, Note_off_c, 3, 61, 127
4, 293040, Note_on_c, 3, 63, 110
4, 293274, Note_off_c, 3, 63, 127
4, 293280, Note_on_c, 3, 64, 110
4, 293515, Note_off_c, 3, 64, 127
4, 293520, Note_on_c, 3, 66, 110
4, 293755, Note_off_c, 3, 66, 127
4, 295679, End_track
5, 0, Start_track
5, 0, Title_t, "Track3"
5, 9599, Note_on_c, 4, 46, 110
5, 9599, Control_c, 4, 91, 0
5, 9599, Control_c, 4, 7, 127
5, 9599, Control_c, 4, 93, 0
5, 9599, Control_c, 4, 10, 64
5, 9599, Control_c, 4, 121, 0
5, 9599, Program_c, 4, 63
5, 9599, Control_c, 4, 32, 0
5, 9599, Control_c, 4, 0, 0
5, 9834, Note_off_c, 4, 46, 127
5, 9839, Note_on_c, 4, 53, 110
5, 10074, Note_off_c, 4, 53, 127
5, 10079, Note_on_c, 4, 58, 110
5, 10314, Note_off_c, 4, 58, 127
5, 10320, Note_on_c, 4, 46, 110
5, 10554, Note_off_c, 4, 46, 127
5, 10560, Note_on_c, 4, 53, 110
5, 10795, Note_off_c, 4, 53, 127
5, 10800, Note_on_c, 4, 56, 110
5, 11035, Note_off_c, 4, 56, 127
5, 11039, Note_on_c, 4, 46, 110
5, 11275, Note_off_c, 4, 46, 127
5, 11279, Note_on_c, 4, 53, 110
5, 11515, Note_off_c, 4, 53, 127
5, 11519, Note_on_c, 4, 46, 110
5, 11754, Note_off_c, 4, 46, 127
5, 11759, Note_on_c, 4, 53, 110
5, 11994, Note_off_c, 4, 53, 127
5, 11999, Note_on_c, 4, 58, 110
5, 12234, Note_off_c, 4, 58, 127
5, 12240, Note_on_c, 4, 46, 110
5, 12474, Note_off_c, 4, 46, 127
5, 12480, Note_on_c, 4, 53, 110
5, 12715, Note_off_c, 4, 53, 127
5, 12720, Note_on_c, 4, 56, 110
5, 12955, Note_off_c, 4, 56, 127
5, 12959, Note_on_c, 4, 46, 110
5, 13195, Note_off_c, 4, 46, 127
5, 13199, Note_on_c, 4, 53, 110
5, 13434, Note_off_c, 4, 53, 127
5, 13439, Note_on_c, 4, 46, 110
5, 13674, Note_off_c, 4, 46, 127
5, 13679, Note_on_c, 4, 53, 110
5, 13914, Note_off_c, 4, 53, 127
5, 13920, Note_on_c, 4, 58, 110
5, 14154, Note_off_c, 4, 58, 127
5, 14160, Note_on_c, 4, 46, 110
5, 14394, Note_off_c, 4, 46, 127
5, 14400, Note_on_c, 4, 53, 110
5, 14635, Note_off_c, 4, 53, 127
5, 14640, Note_on_c, 4, 56, 110
5, 14875, Note_off_c, 4, 56, 127
5, 14879, Note_on_c, 4, 46, 110
5, 15115, Note_off_c, 4, 46, 127
5, 15119, Note_on_c, 4, 53, 110
5, 15354, Note_off_c, 4, 53, 127
5, 15359, Note_on_c, 4, 46, 110
5, 15594, Note_off_c, 4, 46, 127
5, 15599, Note_on_c, 4, 53, 110
5, 15834, Note_off_c, 4, 53, 127
5, 15840, Note_on_c, 4, 58, 110
5, 16074, Note_off_c, 4, 58, 127
5, 16080, Note_on_c, 4, 46, 110
5, 16315, Note_off_c, 4, 46, 127
5, 16320, Note_on_c, 4, 53, 110
5, 16555, Note_off_c, 4, 53, 127
5, 16559, Note_on_c, 4, 56, 110
5, 16795, Note_off_c, 4, 56, 127
5, 16799, Note_on_c, 4, 46, 110
5, 17035, Note_off_c, 4, 46, 127
5, 17039, Note_on_c, 4, 53, 110
5, 17274, Note_off_c, 4, 53, 127
5, 17279, Note_on_c, 4, 46, 110
5, 17514, Note_off_c, 4, 46, 127
5, 17519, Note_on_c, 4, 53, 110
5, 17754, Note_off_c, 4, 53, 127
5, 17760, Note_on_c, 4, 58, 110
5, 17994, Note_off_c, 4, 58, 127
5, 18000, Note_on_c, 4, 46, 110
5, 18235, Note_off_c, 4, 46, 127
5, 18240, Note_on_c, 4, 53, 110
5, 18475, Note_off_c, 4, 53, 127
5, 18479, Note_on_c, 4, 56, 110
5, 18715, Note_off_c, 4, 56, 127
5, 18719, Note_on_c, 4, 46, 110
5, 18954, Note_off_c, 4, 46, 127
5, 18959, Note_on_c, 4, 53, 110
5, 19194, Note_off_c, 4, 53, 127
5, 19199, Note_on_c, 4, 46, 110
5, 19434, Note_off_c, 4, 46, 127
5, 19440, Note_on_c, 4, 53, 110
5, 19674, Note_off_c, 4, 53, 127
5, 19680, Note_on_c, 4, 58, 110
5, 19914, Note_off_c, 4, 58, 127
5, 19920, Note_on_c, 4, 46, 110
5, 20155, Note_off_c, 4, 46, 127
5, 20160, Note_on_c, 4, 53, 110
5, 20395, Note_off_c, 4, 53, 127
5, 20399, Note_on_c, 4, 56, 110
5, 20635, Note_off_c, 4, 56, 127
5, 20639, Note_on_c, 4, 46, 110
5, 20874, Note_off_c, 4, 46, 127
5, 20879, Note_on_c, 4, 53, 110
5, 21114, Note_off_c, 4, 53, 127
5, 21119, Note_on_c, 4, 46, 110
5, 21354, Note_off_c, 4, 46, 127
5, 21360, Note_on_c, 4, 53, 110
5, 21594, Note_off_c, 4, 53, 127
5, 21600, Note_on_c, 4, 58, 110
5, 21835, Note_off_c, 4, 58, 127
5, 21840, Note_on_c, 4, 46, 110
5, 22075, Note_off_c, 4, 46, 127
5, 22079, Note_on_c, 4, 53, 110
5, 22315, Note_off_c, 4, 53, 127
5, 22319, Note_on_c, 4, 56, 110
5, 22554, Note_off_c, 4, 56, 127
5, 22559, Note_on_c, 4, 46, 110
5, 22794, Note_off_c, 4, 46, 127
5, 22799, Note_on_c, 4, 53, 110
5, 23034, Note_off_c, 4, 53, 127
5, 23039, Note_on_c, 4, 46, 110
5, 23274, Note_off_c, 4, 46, 127
5, 23280, Note_on_c, 4, 53, 110
5, 23514, Note_off_c, 4, 53, 127
5, 23520, Note_on_c, 4, 58, 110
5, 23755, Note_off_c, 4, 58, 127
5, 23760, Note_on_c, 4, 46, 110
5, 23995, Note_off_c, 4, 46, 127
5, 23999, Note_on_c, 4, 53, 110
5, 24235, Note_off_c, 4, 53, 127
5, 24239, Note_on_c, 4, 56, 110
5, 24474, Note_off_c, 4, 56, 127
5, 24479, Note_on_c, 4, 46, 110
5, 24714, Note_off_c, 4, 46, 127
5, 24719, Note_on_c, 4, 53, 110
5, 24954, Note_off_c, 4, 53, 127
5, 24960, Note_on_c, 4, 46, 110
5, 24960, Note_on_c, 4, 34, 110
5, 25194, Note_off_c, 4, 46, 127
5, 25194, Note_off_c, 4, 34, 127
5, 25200, Note_on_c, 4, 53, 110
5, 25200, Note_on_c, 4, 41, 110
5, 25434, Note_off_c, 4, 53, 127
5, 25434, Note_off_c, 4, 41, 127
5, 25440, Note_on_c, 4, 58, 110
5, 25440, Note_on_c, 4, 46, 110
5, 25675, Note_off_c, 4, 58, 127
5, 25675, Note_off_c, 4, 46, 127
5, 25680, Note_on_c, 4, 46, 110
5, 25680, Note_on_c, 4, 34, 110
5, 25915, Note_off_c, 4, 46, 127
5, 25915, Note_off_c, 4, 34, 127
5, 25919, Note_on_c, 4, 53, 110
5, 25919, Note_on_c, 4, 41, 110
5, 26155, Note_off_c, 4, 53, 127
5, 26155, Note_off_c, 4, 41, 127
5, 26159, Note_on_c, 4, 56, 110
5, 26159, Note_on_c, 4, 44, 110
5, 26394, Note_off_c, 4, 56, 127
5, 26394, Note_off_c, 4, 44, 127
5, 26399, Note_on_c, 4, 46, 110
5, 26399, Note_on_c, 4, 34, 110
5, 26634, Note_off_c, 4, 46, 127
5, 26634, Note_off_c, 4, 34, 127
5, 26639, Note_on_c, 4, 53, 110
5, 26639, Note_on_c, 4, 41, 110
5, 26874, Note_off_c, 4, 53, 127
5, 26874, Note_off_c, 4, 41, 127
5, 26880, Note_on_c, 4, 51, 110
5, 26880, Note_on_c, 4, 39, 110
5, 27114, Note_off_c, 4, 51, 127
5, 27114, Note_off_c, 4, 39, 127
5, 27120, Note_on_c, 4, 46, 110
5, 27120, Note_on_c, 4, 34, 110
5, 27355, Note_off_c, 4, 46, 127
5, 27355, Note_off_c, 4, 34, 127
5, 27360, Note_on_c, 4, 53, 110
5, 27360, Note_on_c, 4, 41, 110
5, 27595, Note_off_c, 4, 53, 127
5, 27595, Note_off_c, 4, 41, 127
5, 27599, Note_on_c, 4, 51, 110
5, 27599, Note_on_c, 4, 39, 110
5, 27835, Note_off_c, 4, 51, 127
5, 27835, Note_off_c, 4, 39, 127
5, 27839, Note_on_c, 4, 42, 110
5, 27839, Note_on_c, 4, 30, 110
5, 28074, Note_off_c, 4, 42, 127
5, 28074, Note_off_c, 4, 30, 127
5, 28079, Note_on_c, 4, 43, 110
5, 28079, Note_on_c, 4, 31, 110
5, 28314, Note_off_c, 4, 43, 127
5, 28314, Note_off_c, 4, 31, 127
5, 28319, Note_on_c, 4, 44, 110
5, 28319, Note_on_c, 4, 32, 110
5, 28554, Note_off_c, 4, 44, 127
5, 28554, Note_off_c, 4, 32, 127
5, 28559, Note_on_c, 4, 45, 110
5, 28559, Note_on_c, 4, 33, 110
5, 28794, Note_off_c, 4, 45, 127
5, 28794, Note_off_c, 4, 33, 127
5, 28800, Note_on_c, 4, 46, 110
5, 28800, Note_on_c, 4, 34, 110
5, 29034, Note_off_c, 4, 46, 127
5, 29034, Note_off_c, 4, 34, 127
5, 29040, Note_on_c, 4, 53, 110
5, 29040, Note_on_c, 4, 41, 110
5, 29275, Note_off_c, 4, 53, 127
5, 29275, Note_off_c, 4, 41, 127
5, 29280, Note_on_c, 4, 58, 110
5, 29280, Note_on_c, 4, 46, 110
5, 29515, Note_off_c, 4, 58, 127
5, 29515, Note_off_c, 4, 46, 127
5, 29519, Note_on_c, 4, 46, 110
5, 29519, Note_on_c, 4, 34, 110
5, 29755, Note_off_c, 4, 46, 127
5, 29755, Note_off_c, 4, 34, 127
5, 29759, Note_on_c, 4, 53, 110
5, 29759, Note_on_c, 4, 41, 110
5, 29994, Note_off_c, 4, 53, 127
5, 29994, Note_off_c, 4, 41, 127
5, 29999, Note_on_c, 4, 56, 110
5, 29999, Note_on_c, 4, 44, 110
5, 30234, Note_off_c, 4, 56, 127
5, 30234, Note_off_c, 4, 44, 127
5, 30239, Note_on_c, 4, 46, 110
5, 30239, Note_on_c, 4, 34, 110
5, 30474, Note_off_c, 4, 46, 127
5, 30474, Note_off_c, 4, 34, 127
5, 30480, Note_on_c, 4, 53, 110
5, 30480, Note_on_c, 4, 41, 110
5, 30714, Note_off_c, 4, 53, 127
5, 30714, Note_off_c, 4, 41, 127
5, 30720, Note_on_c, 4, 46, 110
5, 30720, Note_on_c, 4, 34, 110
5, 30954, Note_off_c, 4, 46, 127
5, 30954, Note_off_c, 4, 34, 127
5, 30960, Note_on_c, 4, 53, 110
5, 30960, Note_on_c, 4, 41, 110
5, 31195, Note_off_c, 4, 53, 127
5, 31195, Note_off_c, 4, 41, 127
5, 31199, Note_on_c, 4, 58, 110
5, 31199, Note_on_c, 4, 46, 110
5, 31435, Note_off_c, 4, 58, 127
5, 31435, Note_off_c, 4, 46, 127
5, 31439, Note_on_c, 4, 46, 110
5, 31439, Note_on_c, 4, 34, 110
5, 31675, Note_off_c, 4, 46, 127
5, 31675, Note_off_c, 4, 34, 127
5, 31679, Note_on_c, 4, 53, 110
5, 31679, Note_on_c, 4, 41, 110
5, 31914, Note_off_c, 4, 53, 127
5, 31914, Note_off_c, 4, 41, 127
5, 31919, Note_on_c, 4, 56, 110
5, 31919, Note_on_c, 4, 44, 110
5, 32154, Note_off_c, 4, 56, 127
5, 32154, Note_off_c, 4, 44, 127
5, 32159, Note_on_c, 4, 46, 110
5, 32159, Note_on_c, 4, 34, 110
5, 32394, Note_off_c, 4, 46, 127
5, 32394, Note_off_c, 4, 34, 127
5, 32400, Note_on_c, 4, 53, 110
5, 32400, Note_on_c, 4, 41, 110
5, 32634, Note_off_c, 4, 53, 127
5, 32634, Note_off_c, 4, 41, 127
5, 32640, Note_on_c, 4, 46, 110
5, 32640, Note_on_c, 4, 34, 110
5, 32875, Note_off_c, 4, 46, 127
5, 32875, Note_off_c, 4, 34, 127
5, 32880, Note_on_c, 4, 53, 110
5, 32880, Note_on_c, 4, 41, 110
5, 33115, Note_off_c, 4, 53, 127
5, 33115, Note_off_c, 4, 41, 127
5, 33119, Note_on_c, 4, 58, 110
5, 33119, Note_on_c, 4, 46, 110
5, 33355, Note_off_c, 4, 58, 127
5, 33355, Note_off_c, 4, 46, 127
5, 33359, Note_on_c, 4, 46, 110
5, 33359, Note_on_c, 4, 34, 110
5, 33594, Note_off_c, 4, 46, 127
5, 33594, Note_off_c, 4, 34, 127
5, 33599, Note_on_c, 4, 53, 110
5, 33599, Note_on_c, 4, 41, 110
5, 33834, Note_off_c, 4, 53, 127
5, 33834, Note_off_c, 4, 41, 127
5, 33839, Note_on_c, 4, 56, 110
5, 33839, Note_on_c, 4, 44, 110
5, 34074, Note_off_c, 4, 56, 127
5, 34074, Note_off_c, 4, 44, 127
5, 34079, Note_on_c, 4, 46, 110
5, 34079, Note_on_c, 4, 34, 110
5, 34314, Note_off_c, 4, 46, 127
5, 34314, Note_off_c, 4, 34, 127
5, 34320, Note_on_c, 4, 53, 110
5, 34320, Note_on_c, 4, 41, 110
5, 34554, Note_off_c, 4, 53, 127
5, 34554, Note_off_c, 4, 41, 127
5, 34560, Note_on_c, 4, 46, 110
5, 34560, Note_on_c, 4, 34, 110
5, 34795, Note_off_c, 4, 46, 127
5, 34795, Note_off_c, 4, 34, 127
5, 34800, Note_on_c, 4, 53, 110
5, 34800, Note_on_c, 4, 41, 110
5, 35035, Note_off_c, 4, 53, 127
5, 35035, Note_off_c, 4, 41, 127
5, 35039, Note_on_c, 4, 58, 110
5, 35039, Note_on_c, 4, 46, 110
5, 35275, Note_off_c, 4, 58, 127
5, 35275, Note_off_c, 4, 46, 127
5, 35279, Note_on_c, 4, 46, 110
5, 35279, Note_on_c, 4, 34, 110
5, 35514, Note_off_c, 4, 46, 127
5, 35514, Note_off_c, 4, 34, 127
5, 35519, Note_on_c, 4, 53, 110
5, 35519, Note_on_c, 4, 41, 110
5, 35754, Note_off_c, 4, 53, 127
5, 35754, Note_off_c, 4, 41, 127
5, 35759, Note_on_c, 4, 56, 110
5, 35759, Note_on_c, 4, 44, 110
5, 35994, Note_off_c, 4, 56, 127
5, 35994, Note_off_c, 4, 44, 127
5, 36000, Note_on_c, 4, 46, 110
5, 36000, Note_on_c, 4, 34, 110
5, 36234, Note_off_c, 4, 46, 127
5, 36234, Note_off_c, 4, 34, 127
5, 36240, Note_on_c, 4, 53, 110
5, 36240, Note_on_c, 4, 41, 110
5, 36475, Note_off_c, 4, 53, 127
5, 36475, Note_off_c, 4, 41, 127
5, 36480, Note_on_c, 4, 46, 110
5, 36480, Note_on_c, 4, 34, 110
5, 36715, Note_off_c, 4, 46, 127
5, 36715, Note_off_c, 4, 34, 127
5, 36719, Note_on_c, 4, 53, 110
5, 36719, Note_on_c, 4, 41, 110
5, 36955, Note_off_c, 4, 53, 127
5, 36955, Note_off_c, 4, 41, 127
5, 36959, Note_on_c, 4, 58, 110
5, 36959, Note_on_c, 4, 46, 110
5, 37195, Note_off_c, 4, 58, 127
5, 37195, Note_off_c, 4, 46, 127
5, 37199, Note_on_c, 4, 46, 110
5, 37199, Note_on_c, 4, 34, 110
5, 37434, Note_off_c, 4, 46, 127
5, 37434, Note_off_c, 4, 34, 127
5, 37439, Note_on_c, 4, 53, 110
5, 37439, Note_on_c, 4, 41, 110
5, 37674, Note_off_c, 4, 53, 127
5, 37674, Note_off_c, 4, 41, 127
5, 37679, Note_on_c, 4, 56, 110
5, 37679, Note_on_c, 4, 44, 110
5, 37914, Note_off_c, 4, 56, 127
5, 37914, Note_off_c, 4, 44, 127
5, 37920, Note_on_c, 4, 46, 110
5, 37920, Note_on_c, 4, 34, 110
5, 38154, Note_off_c, 4, 46, 127
5, 38154, Note_off_c, 4, 34, 127
5, 38160, Note_on_c, 4, 53, 110
5, 38160, Note_on_c, 4, 41, 110
5, 38395, Note_off_c, 4, 53, 127
5, 38395, Note_off_c, 4, 41, 127
5, 38400, Note_on_c, 4, 46, 110
5, 38400, Note_on_c, 4, 34, 110
5, 38635, Note_off_c, 4, 46, 127
5, 38635, Note_off_c, 4, 34, 127
5, 38639, Note_on_c, 4, 53, 110
5, 38639, Note_on_c, 4, 41, 110
5, 38875, Note_off_c, 4, 53, 127
5, 38875, Note_off_c, 4, 41, 127
5, 38879, Note_on_c, 4, 58, 110
5, 38879, Note_on_c, 4, 46, 110
5, 39114, Note_off_c, 4, 58, 127
5, 39114, Note_off_c, 4, 46, 127
5, 39119, Note_on_c, 4, 46, 110
5, 39119, Note_on_c, 4, 34, 110
5, 39354, Note_off_c, 4, 46, 127
5, 39354, Note_off_c, 4, 34, 127
5, 39359, Note_on_c, 4, 53, 110
5, 39359, Note_on_c, 4, 41, 110
5, 39594, Note_off_c, 4, 53, 127
5, 39594, Note_off_c, 4, 41, 127
5, 39599, Note_on_c, 4, 56, 110
5, 39599, Note_on_c, 4, 44, 110
5, 39834, Note_off_c, 4, 56, 127
5, 39834, Note_off_c, 4, 44, 127
5, 39840, Note_on_c, 4, 46, 110
5, 39840, Note_on_c, 4, 34, 110
5, 40074, Note_off_c, 4, 46, 127
5, 40074, Note_off_c, 4, 34, 127
5, 40080, Note_on_c, 4, 53, 110
5, 40080, Note_on_c, 4, 41, 110
5, 40315, Note_off_c, 4, 53, 127
5, 40315, Note_off_c, 4, 41, 127
5, 40320, Note_on_c, 4, 46, 110
5, 40320, Note_on_c, 4, 34, 110
5, 40555, Note_off_c, 4, 46, 127
5, 40555, Note_off_c, 4, 34, 127
5, 40559, Note_on_c, 4, 53, 110
5, 40559, Note_on_c, 4, 41, 110
5, 40795, Note_off_c, 4, 53, 127
5, 40795, Note_off_c, 4, 41, 127
5, 40799, Note_on_c, 4, 58, 110
5, 40799, Note_on_c, 4, 46, 110
5, 41034, Note_off_c, 4, 58, 127
5, 41034, Note_off_c, 4, 46, 127
5, 41039, Note_on_c, 4, 46, 110
5, 41039, Note_on_c, 4, 34, 110
5, 41274, Note_off_c, 4, 46, 127
5, 41274, Note_off_c, 4, 34, 127
5, 41279, Note_on_c, 4, 53, 110
5, 41279, Note_on_c, 4, 41, 110
5, 41514, Note_off_c, 4, 53, 127
5, 41514, Note_off_c, 4, 41, 127
5, 41520, Note_on_c, 4, 56, 110
5, 41520, Note_on_c, 4, 44, 110
5, 41754, Note_off_c, 4, 56, 127
5, 41754, Note_off_c, 4, 44, 127
5, 41760, Note_on_c, 4, 46, 110
5, 41760, Note_on_c, 4, 34, 110
5, 41995, Note_off_c, 4, 46, 127
5, 41995, Note_off_c, 4, 34, 127
5, 42000, Note_on_c, 4, 53, 110
5, 42000, Note_on_c, 4, 41, 110
5, 42235, Note_off_c, 4, 53, 127
5, 42235, Note_off_c, 4, 41, 127
5, 42239, Note_on_c, 4, 46, 110
5, 42239, Note_on_c, 4, 34, 110
5, 42475, Note_off_c, 4, 46, 127
5, 42475, Note_off_c, 4, 34, 127
5, 42479, Note_on_c, 4, 53, 110
5, 42479, Note_on_c, 4, 41, 110
5, 42715, Note_off_c, 4, 53, 127
5, 42715, Note_off_c, 4, 41, 127
5, 42719, Note_on_c, 4, 58, 110
5, 42719, Note_on_c, 4, 46, 110
5, 42954, Note_off_c, 4, 58, 127
5, 42954, Note_off_c, 4, 46, 127
5, 42959, Note_on_c, 4, 46, 110
5, 42959, Note_on_c, 4, 34, 110
5, 43194, Note_off_c, 4, 46, 127
5, 43194, Note_off_c, 4, 34, 127
5, 43199, Note_on_c, 4, 53, 110
5, 43199, Note_on_c, 4, 41, 110
5, 43434, Note_off_c, 4, 53, 127
5, 43434, Note_off_c, 4, 41, 127
5, 43440, Note_on_c, 4, 56, 110
5, 43440, Note_on_c, 4, 44, 110
5, 43674, Note_off_c, 4, 56, 127
5, 43674, Note_off_c, 4, 44, 127
5, 43680, Note_on_c, 4, 46, 110
5, 43680, Note_on_c, 4, 34, 110
5, 43915, Note_off_c, 4, 46, 127
5, 43915, Note_off_c, 4, 34, 127
5, 43920, Note_on_c, 4, 53, 110
5, 43920, Note_on_c, 4, 41, 110
5, 44155, Note_off_c, 4, 53, 127
5, 44155, Note_off_c, 4, 41, 127
5, 44159, Note_on_c, 4, 46, 110
5, 44159, Note_on_c, 4, 34, 110
5, 44395, Note_off_c, 4, 46, 127
5, 44395, Note_off_c, 4, 34, 127
5, 44399, Note_on_c, 4, 53, 110
5, 44399, Note_on_c, 4, 41, 110
5, 44634, Note_off_c, 4, 53, 127
5, 44634, Note_off_c, 4, 41, 127
5, 44639, Note_on_c, 4, 58, 110
5, 44639, Note_on_c, 4, 46, 110
5, 44874, Note_off_c, 4, 58, 127
5, 44874, Note_off_c, 4, 46, 127
5, 44879, Note_on_c, 4, 46, 110
5, 44879, Note_on_c, 4, 34, 110
5, 45114, Note_off_c, 4, 46, 127
5, 45114, Note_off_c, 4, 34, 127
5, 45120, Note_on_c, 4, 53, 110
5, 45120, Note_on_c, 4, 41, 110
5, 45354, Note_off_c, 4, 53, 127
5, 45354, Note_off_c, 4, 41, 127
5, 45360, Note_on_c, 4, 56, 110
5, 45360, Note_on_c, 4, 44, 110
5, 45594, Note_off_c, 4, 56, 127
5, 45594, Note_off_c, 4, 44, 127
5, 45600, Note_on_c, 4, 46, 110
5, 45600, Note_on_c, 4, 34, 110
5, 45835, Note_off_c, 4, 46, 127
5, 45835, Note_off_c, 4, 34, 127
5, 45840, Note_on_c, 4, 53, 110
5, 45840, Note_on_c, 4, 41, 110
5, 46075, Note_off_c, 4, 53, 127
5, 46075, Note_off_c, 4, 41, 127
5, 46079, Note_on_c, 4, 46, 110
5, 46079, Note_on_c, 4, 34, 110
5, 46315, Note_off_c, 4, 46, 127
5, 46315, Note_off_c, 4, 34, 127
5, 46319, Note_on_c, 4, 53, 110
5, 46319, Note_on_c, 4, 41, 110
5, 46554, Note_off_c, 4, 53, 127
5, 46554, Note_off_c, 4, 41, 127
5, 46559, Note_on_c, 4, 58, 110
5, 46559, Note_on_c, 4, 46, 110
5, 46794, Note_off_c, 4, 58, 127
5, 46794, Note_off_c, 4, 46, 127
5, 46799, Note_on_c, 4, 46, 110
5, 46799, Note_on_c, 4, 34, 110
5, 47034, Note_off_c, 4, 46, 127
5, 47034, Note_off_c, 4, 34, 127
5, 47040, Note_on_c, 4, 53, 110
5, 47040, Note_on_c, 4, 41, 110
5, 47274, Note_off_c, 4, 53, 127
5, 47274, Note_off_c, 4, 41, 127
5, 47280, Note_on_c, 4, 56, 110
5, 47280, Note_on_c, 4, 44, 110
5, 47515, Note_off_c, 4, 56, 127
5, 47515, Note_off_c, 4, 44, 127
5, 47520, Note_on_c, 4, 46, 110
5, 47520, Note_on_c, 4, 34, 110
5, 47755, Note_off_c, 4, 46, 127
5, 47755, Note_off_c, 4, 34, 127
5, 47759, Note_on_c, 4, 53, 110
5, 47759, Note_on_c, 4, 41, 110
5, 47995, Note_off_c, 4, 53, 127
5, 47995, Note_off_c, 4, 41, 127
5, 47999, Note_on_c, 4, 41, 110
5, 47999, Note_on_c, 4, 29, 110
5, 48234, Note_off_c, 4, 41, 127
5, 48234, Note_off_c, 4, 29, 127
5, 48239, Note_on_c, 4, 48, 110
5, 48239, Note_on_c, 4, 36, 110
5, 48474, Note_off_c, 4, 48, 127
5, 48474, Note_off_c, 4, 36, 127
5, 48479, Note_on_c, 4, 53, 110
5, 48479, Note_on_c, 4, 41, 110
5, 48714, Note_off_c, 4, 53, 127
5, 48714, Note_off_c, 4, 41, 127
5, 48719, Note_on_c, 4, 41, 110
5, 48719, Note_on_c, 4, 29, 110
5, 48954, Note_off_c, 4, 41, 127
5, 48954, Note_off_c, 4, 29, 127
5, 48960, Note_on_c, 4, 48, 110
5, 48960, Note_on_c, 4, 36, 110
5, 49194, Note_off_c, 4, 48, 127
5, 49194, Note_off_c, 4, 36, 127
5, 49200, Note_on_c, 4, 51, 110
5, 49200, Note_on_c, 4, 39, 110
5, 49435, Note_off_c, 4, 51, 127
5, 49435, Note_off_c, 4, 39, 127
5, 49440, Note_on_c, 4, 41, 110
5, 49440, Note_on_c, 4, 29, 110
5, 49675, Note_off_c, 4, 41, 127
5, 49675, Note_off_c, 4, 29, 127
5, 49679, Note_on_c, 4, 48, 110
5, 49679, Note_on_c, 4, 36, 110
5, 49915, Note_off_c, 4, 48, 127
5, 49915, Note_off_c, 4, 36, 127
5, 49919, Note_on_c, 4, 41, 110
5, 49919, Note_on_c, 4, 29, 110
5, 50154, Note_off_c, 4, 41, 127
5, 50154, Note_off_c, 4, 29, 127
5, 50159, Note_on_c, 4, 48, 110
5, 50159, Note_on_c, 4, 36, 110
5, 50394, Note_off_c, 4, 48, 127
5, 50394, Note_off_c, 4, 36, 127
5, 50399, Note_on_c, 4, 53, 110
5, 50399, Note_on_c, 4, 41, 110
5, 50634, Note_off_c, 4, 53, 127
5, 50634, Note_off_c, 4, 41, 127
5, 50640, Note_on_c, 4, 41, 110
5, 50640, Note_on_c, 4, 29, 110
5, 50874, Note_off_c, 4, 41, 127
5, 50874, Note_off_c, 4, 29, 127
5, 50880, Note_on_c, 4, 48, 110
5, 50880, Note_on_c, 4, 36, 110
5, 51114, Note_off_c, 4, 48, 127
5, 51114, Note_off_c, 4, 36, 127
5, 51120, Note_on_c, 4, 51, 110
5, 51120, Note_on_c, 4, 39, 110
5, 51355, Note_off_c, 4, 51, 127
5, 51355, Note_off_c, 4, 39, 127
5, 51360, Note_on_c, 4, 41, 110
5, 51360, Note_on_c, 4, 29, 110
5, 51595, Note_off_c, 4, 41, 127
5, 51595, Note_off_c, 4, 29, 127
5, 51599, Note_on_c, 4, 48, 110
5, 51599, Note_on_c, 4, 36, 110
5, 51835, Note_off_c, 4, 48, 127
5, 51835, Note_off_c, 4, 36, 127
5, 51839, Note_on_c, 4, 41, 110
5, 51839, Note_on_c, 4, 29, 110
5, 52074, Note_off_c, 4, 41, 127
5, 52074, Note_off_c, 4, 29, 127
5, 52079, Note_on_c, 4, 48, 110
5, 52079, Note_on_c, 4, 36, 110
5, 52314, Note_off_c, 4, 48, 127
5, 52314, Note_off_c, 4, 36, 127
5, 52319, Note_on_c, 4, 53, 110
5, 52319, Note_on_c, 4, 41, 110
5, 52554, Note_off_c, 4, 53, 127
5, 52554, Note_off_c, 4, 41, 127
5, 52560, Note_on_c, 4, 41, 110
5, 52560, Note_on_c, 4, 29, 110
5, 52794, Note_off_c, 4, 41, 127
5, 52794, Note_off_c, 4, 29, 127
5, 52800, Note_on_c, 4, 48, 110
5, 52800, Note_on_c, 4, 36, 110
5, 53035, Note_off_c, 4, 48, 127
5, 53035, Note_off_c, 4, 36, 127
5, 53040, Note_on_c, 4, 51, 110
5, 53040, Note_on_c, 4, 39, 110
5, 53275, Note_off_c, 4, 51, 127
5, 53275, Note_off_c, 4, 39, 127
5, 53279, Note_on_c, 4, 41, 110
5, 53279, Note_on_c, 4, 29, 110
5, 53515, Note_off_c, 4, 41, 127
5, 53515, Note_off_c, 4, 29, 127
5, 53519, Note_on_c, 4, 48, 110
5, 53519, Note_on_c, 4, 36, 110
5, 53754, Note_off_c, 4, 48, 127
5, 53754, Note_off_c, 4, 36, 127
5, 53759, Note_on_c, 4, 41, 110
5, 53759, Note_on_c, 4, 29, 110
5, 53994, Note_off_c, 4, 41, 127
5, 53994, Note_off_c, 4, 29, 127
5, 53999, Note_on_c, 4, 48, 110
5, 53999, Note_on_c, 4, 36, 110
5, 54234, Note_off_c, 4, 48, 127
5, 54234, Note_off_c, 4, 36, 127
5, 54239, Note_on_c, 4, 53, 110
5, 54239, Note_on_c, 4, 41, 110
5, 54474, Note_off_c, 4, 53, 127
5, 54474, Note_off_c, 4, 41, 127
5, 54480, Note_on_c, 4, 41, 110
5, 54480, Note_on_c, 4, 29, 110
5, 54714, Note_off_c, 4, 41, 127
5, 54714, Note_off_c, 4, 29, 127
5, 54720, Note_on_c, 4, 48, 110
5, 54720, Note_on_c, 4, 36, 110
5, 54955, Note_off_c, 4, 48, 127
5, 54955, Note_off_c, 4, 36, 127
5, 54960, Note_on_c, 4, 51, 110
5, 54960, Note_on_c, 4, 39, 110
5, 55195, Note_off_c, 4, 51, 127
5, 55195, Note_off_c, 4, 39, 127
5, 55199, Note_on_c, 4, 41, 110
5, 55199, Note_on_c, 4, 29, 110
5, 55435, Note_off_c, 4, 41, 127
5, 55435, Note_off_c, 4, 29, 127
5, 55439, Note_on_c, 4, 48, 110
5, 55439, Note_on_c, 4, 36, 110
5, 55674, Note_off_c, 4, 48, 127
5, 55674, Note_off_c, 4, 36, 127
5, 55679, Note_on_c, 4, 41, 110
5, 55679, Note_on_c, 4, 29, 110
5, 55914, Note_off_c, 4, 41, 127
5, 55914, Note_off_c, 4, 29, 127
5, 55919, Note_on_c, 4, 48, 110
5, 55919, Note_on_c, 4, 36, 110
5, 56154, Note_off_c, 4, 48, 127
5, 56154, Note_off_c, 4, 36, 127
5, 56160, Note_on_c, 4, 53, 110
5, 56160, Note_on_c, 4, 41, 110
5, 56394, Note_off_c, 4, 53, 127
5, 56394, Note_off_c, 4, 41, 127
5, 56400, Note_on_c, 4, 41, 110
5, 56400, Note_on_c, 4, 29, 110
5, 56634, Note_off_c, 4, 41, 127
5, 56634, Note_off_c, 4, 29, 127
5, 56640, Note_on_c, 4, 48, 110
5, 56640, Note_on_c, 4, 36, 110
5, 56875, Note_off_c, 4, 48, 127
5, 56875, Note_off_c, 4, 36, 127
5, 56879, Note_on_c, 4, 51, 110
5, 56879, Note_on_c, 4, 39, 110
5, 57115, Note_off_c, 4, 51, 127
5, 57115, Note_off_c, 4, 39, 127
5, 57119, Note_on_c, 4, 41, 110
5, 57119, Note_on_c, 4, 29, 110
5, 57355, Note_off_c, 4, 41, 127
5, 57355, Note_off_c, 4, 29, 127
5, 57359, Note_on_c, 4, 48, 110
5, 57359, Note_on_c, 4, 36, 110
5, 57594, Note_off_c, 4, 48, 127
5, 57594, Note_off_c, 4, 36, 127
5, 57599, Note_on_c, 4, 41, 110
5, 57599, Note_on_c, 4, 29, 110
5, 57834, Note_off_c, 4, 41, 127
5, 57834, Note_off_c, 4, 29, 127
5, 57839, Note_on_c, 4, 48, 110
5, 57839, Note_on_c, 4, 36, 110
5, 58074, Note_off_c, 4, 48, 127
5, 58074, Note_off_c, 4, 36, 127
5, 58080, Note_on_c, 4, 53, 110
5, 58080, Note_on_c, 4, 41, 110
5, 58314, Note_off_c, 4, 53, 127
5, 58314, Note_off_c, 4, 41, 127
5, 58320, Note_on_c, 4, 41, 110
5, 58320, Note_on_c, 4, 29, 110
5, 58555, Note_off_c, 4, 41, 127
5, 58555, Note_off_c, 4, 29, 127
5, 58560, Note_on_c, 4, 48, 110
5, 58560, Note_on_c, 4, 36, 110
5, 58795, Note_off_c, 4, 48, 127
5, 58795, Note_off_c, 4, 36, 127
5, 58799, Note_on_c, 4, 51, 110
5, 58799, Note_on_c, 4, 39, 110
5, 59035, Note_off_c, 4, 51, 127
5, 59035, Note_off_c, 4, 39, 127
5, 59039, Note_on_c, 4, 41, 110
5, 59039, Note_on_c, 4, 29, 110
5, 59274, Note_off_c, 4, 41, 127
5, 59274, Note_off_c, 4, 29, 127
5, 59279, Note_on_c, 4, 48, 110
5, 59279, Note_on_c, 4, 36, 110
5, 59514, Note_off_c, 4, 48, 127
5, 59514, Note_off_c, 4, 36, 127
5, 59519, Note_on_c, 4, 41, 110
5, 59519, Note_on_c, 4, 29, 110
5, 59754, Note_off_c, 4, 41, 127
5, 59754, Note_off_c, 4, 29, 127
5, 59759, Note_on_c, 4, 48, 110
5, 59759, Note_on_c, 4, 36, 110
5, 59994, Note_off_c, 4, 48, 127
5, 59994, Note_off_c, 4, 36, 127
5, 60000, Note_on_c, 4, 53, 110
5, 60000, Note_on_c, 4, 41, 110
5, 60234, Note_off_c, 4, 53, 127
5, 60234, Note_off_c, 4, 41, 127
5, 60240, Note_on_c, 4, 41, 110
5, 60240, Note_on_c, 4, 29, 110
5, 60475, Note_off_c, 4, 41, 127
5, 60475, Note_off_c, 4, 29, 127
5, 60480, Note_on_c, 4, 48, 110
5, 60480, Note_on_c, 4, 36, 110
5, 60715, Note_off_c, 4, 48, 127
5, 60715, Note_off_c, 4, 36, 127
5, 60719, Note_on_c, 4, 51, 110
5, 60719, Note_on_c, 4, 39, 110
5, 60955, Note_off_c, 4, 51, 127
5, 60955, Note_off_c, 4, 39, 127
5, 60959, Note_on_c, 4, 41, 110
5, 60959, Note_on_c, 4, 29, 110
5, 61194, Note_off_c, 4, 41, 127
5, 61194, Note_off_c, 4, 29, 127
5, 61199, Note_on_c, 4, 48, 110
5, 61199, Note_on_c, 4, 36, 110
5, 61434, Note_off_c, 4, 48, 127
5, 61434, Note_off_c, 4, 36, 127
5, 61439, Note_on_c, 4, 41, 110
5, 61439, Note_on_c, 4, 29, 110
5, 61674, Note_off_c, 4, 41, 127
5, 61674, Note_off_c, 4, 29, 127
5, 61680, Note_on_c, 4, 48, 110
5, 61680, Note_on_c, 4, 36, 110
5, 61914, Note_off_c, 4, 48, 127
5, 61914, Note_off_c, 4, 36, 127
5, 61920, Note_on_c, 4, 53, 110
5, 61920, Note_on_c, 4, 41, 110
5, 62155, Note_off_c, 4, 53, 127
5, 62155, Note_off_c, 4, 41, 127
5, 62160, Note_on_c, 4, 41, 110
5, 62160, Note_on_c, 4, 29, 110
5, 62395, Note_off_c, 4, 41, 127
5, 62395, Note_off_c, 4, 29, 127
5, 62399, Note_on_c, 4, 48, 110
5, 62399, Note_on_c, 4, 36, 110
5, 62635, Note_off_c, 4, 48, 127
5, 62635, Note_off_c, 4, 36, 127
5, 62639, Note_on_c, 4, 51, 110
5, 62639, Note_on_c, 4, 39, 110
5, 62875, Note_off_c, 4, 51, 127
5, 62875, Note_off_c, 4, 39, 127
5, 62879, Note_on_c, 4, 41, 110
5, 62879, Note_on_c, 4, 29, 110
5, 63114, Note_off_c, 4, 41, 127
5, 63114, Note_off_c, 4, 29, 127
5, 63119, Note_on_c, 4, 48, 110
5, 63119, Note_on_c, 4, 36, 110
5, 63354, Note_off_c, 4, 48, 127
5, 63354, Note_off_c, 4, 36, 127
5, 63359, Note_on_c, 4, 37, 110
5, 63359, Note_on_c, 4, 25, 110
5, 63594, Note_off_c, 4, 37, 127
5, 63594, Note_off_c, 4, 25, 127
5, 63600, Note_on_c, 4, 44, 110
5, 63600, Note_on_c, 4, 32, 110
5, 63834, Note_off_c, 4, 44, 127
5, 63834, Note_off_c, 4, 32, 127
5, 63840, Note_on_c, 4, 49, 110
5, 63840, Note_on_c, 4, 37, 110
5, 64075, Note_off_c, 4, 49, 127
5, 64075, Note_off_c, 4, 37, 127
5, 64080, Note_on_c, 4, 37, 110
5, 64080, Note_on_c, 4, 25, 110
5, 64315, Note_off_c, 4, 37, 127
5, 64315, Note_off_c, 4, 25, 127
5, 64319, Note_on_c, 4, 44, 110
5, 64319, Note_on_c, 4, 32, 110
5, 64555, Note_off_c, 4, 44, 127
5, 64555, Note_off_c, 4, 32, 127
5, 64559, Note_on_c, 4, 47, 110
5, 64559, Note_on_c, 4, 35, 110
5, 64794, Note_off_c, 4, 47, 127
5, 64794, Note_off_c, 4, 35, 127
5, 64799, Note_on_c, 4, 37, 110
5, 64799, Note_on_c, 4, 25, 110
5, 65034, Note_off_c, 4, 37, 127
5, 65034, Note_off_c, 4, 25, 127
5, 65039, Note_on_c, 4, 44, 110
5, 65039, Note_on_c, 4, 32, 110
5, 65274, Note_off_c, 4, 44, 127
5, 65274, Note_off_c, 4, 32, 127
5, 65279, Note_on_c, 4, 37, 110
5, 65279, Note_on_c, 4, 25, 110
5, 65514, Note_off_c, 4, 37, 127
5, 65514, Note_off_c, 4, 25, 127
5, 65520, Note_on_c, 4, 44, 110
5, 65520, Note_on_c, 4, 32, 110
5, 65754, Note_off_c, 4, 44, 127
5, 65754, Note_off_c, 4, 32, 127
5, 65760, Note_on_c, 4, 49, 110
5, 65760, Note_on_c, 4, 37, 110
5, 65995, Note_off_c, 4, 49, 127
5, 65995, Note_off_c, 4, 37, 127
5, 66000, Note_on_c, 4, 37, 110
5, 66000, Note_on_c, 4, 25, 110
5, 66235, Note_off_c, 4, 37, 127
5, 66235, Note_off_c, 4, 25, 127
5, 66239, Note_on_c, 4, 44, 110
5, 66239, Note_on_c, 4, 32, 110
5, 66475, Note_off_c, 4, 44, 127
5, 66475, Note_off_c, 4, 32, 127
5, 66479, Note_on_c, 4, 47, 110
5, 66479, Note_on_c, 4, 35, 110
5, 66714, Note_off_c, 4, 47, 127
5, 66714, Note_off_c, 4, 35, 127
5, 66719, Note_on_c, 4, 37, 110
5, 66719, Note_on_c, 4, 25, 110
5, 66954, Note_off_c, 4, 37, 127
5, 66954, Note_off_c, 4, 25, 127
5, 66959, Note_on_c, 4, 44, 110
5, 66959, Note_on_c, 4, 32, 110
5, 67194, Note_off_c, 4, 44, 127
5, 67194, Note_off_c, 4, 32, 127
5, 67200, Note_on_c, 4, 40, 110
5, 67200, Note_on_c, 4, 28, 110
5, 67434, Note_off_c, 4, 40, 127
5, 67434, Note_off_c, 4, 28, 127
5, 67440, Note_on_c, 4, 47, 110
5, 67440, Note_on_c, 4, 35, 110
5, 67675, Note_off_c, 4, 47, 127
5, 67675, Note_off_c, 4, 35, 127
5, 67680, Note_on_c, 4, 52, 110
5, 67680, Note_on_c, 4, 40, 110
5, 67915, Note_off_c, 4, 52, 127
5, 67915, Note_off_c, 4, 40, 127
5, 67919, Note_on_c, 4, 40, 110
5, 67919, Note_on_c, 4, 28, 110
5, 68155, Note_off_c, 4, 40, 127
5, 68155, Note_off_c, 4, 28, 127
5, 68159, Note_on_c, 4, 47, 110
5, 68159, Note_on_c, 4, 35, 110
5, 68395, Note_off_c, 4, 47, 127
5, 68395, Note_off_c, 4, 35, 127
5, 68399, Note_on_c, 4, 50, 110
5, 68399, Note_on_c, 4, 38, 110
5, 68634, Note_off_c, 4, 50, 127
5, 68634, Note_off_c, 4, 38, 127
5, 68639, Note_on_c, 4, 40, 110
5, 68639, Note_on_c, 4, 28, 110
5, 68874, Note_off_c, 4, 40, 127
5, 68874, Note_off_c, 4, 28, 127
5, 68879, Note_on_c, 4, 47, 110
5, 68879, Note_on_c, 4, 35, 110
5, 69114, Note_off_c, 4, 47, 127
5, 69114, Note_off_c, 4, 35, 127
5, 69120, Note_on_c, 4, 40, 110
5, 69120, Note_on_c, 4, 28, 110
5, 69354, Note_off_c, 4, 40, 127
5, 69354, Note_off_c, 4, 28, 127
5, 69360, Note_on_c, 4, 47, 110
5, 69360, Note_on_c, 4, 35, 110
5, 69595, Note_off_c, 4, 47, 127
5, 69595, Note_off_c, 4, 35, 127
5, 69600, Note_on_c, 4, 52, 110
5, 69600, Note_on_c, 4, 40, 110
5, 69835, Note_off_c, 4, 40, 127
5, 69835, Note_off_c, 4, 52, 127
5, 69839, Note_on_c, 4, 40, 110
5, 69839, Note_on_c, 4, 28, 110
5, 70075, Note_off_c, 4, 40, 127
5, 70075, Note_off_c, 4, 28, 127
5, 70079, Note_on_c, 4, 47, 110
5, 70079, Note_on_c, 4, 35, 110
5, 70314, Note_off_c, 4, 47, 127
5, 70314, Note_off_c, 4, 35, 127
5, 70319, Note_on_c, 4, 50, 110
5, 70319, Note_on_c, 4, 38, 110
5, 70554, Note_off_c, 4, 50, 127
5, 70554, Note_off_c, 4, 38, 127
5, 70559, Note_on_c, 4, 40, 110
5, 70559, Note_on_c, 4, 28, 110
5, 70794, Note_off_c, 4, 40, 127
5, 70794, Note_off_c, 4, 28, 127
5, 70800, Note_on_c, 4, 47, 110
5, 70800, Note_on_c, 4, 35, 110
5, 71034, Note_off_c, 4, 47, 127
5, 71034, Note_off_c, 4, 35, 127
5, 71040, Note_on_c, 4, 42, 110
5, 71040, Note_on_c, 4, 30, 110
5, 71274, Note_off_c, 4, 42, 127
5, 71274, Note_off_c, 4, 30, 127
5, 71280, Note_on_c, 4, 49, 110
5, 71280, Note_on_c, 4, 37, 110
5, 71515, Note_off_c, 4, 49, 127
5, 71515, Note_off_c, 4, 37, 127
5, 71520, Note_on_c, 4, 54, 110
5, 71520, Note_on_c, 4, 42, 110
5, 71755, Note_off_c, 4, 54, 127
5, 71755, Note_off_c, 4, 42, 127
5, 71759, Note_on_c, 4, 42, 110
5, 71759, Note_on_c, 4, 30, 110
5, 71995, Note_off_c, 4, 42, 127
5, 71995, Note_off_c, 4, 30, 127
5, 71999, Note_on_c, 4, 49, 110
5, 71999, Note_on_c, 4, 37, 110
5, 72234, Note_off_c, 4, 49, 127
5, 72234, Note_off_c, 4, 37, 127
5, 72239, Note_on_c, 4, 52, 110
5, 72239, Note_on_c, 4, 40, 110
5, 72474, Note_off_c, 4, 52, 127
5, 72474, Note_off_c, 4, 40, 127
5, 72479, Note_on_c, 4, 42, 110
5, 72479, Note_on_c, 4, 30, 110
5, 72714, Note_off_c, 4, 42, 127
5, 72714, Note_off_c, 4, 30, 127
5, 72720, Note_on_c, 4, 49, 110
5, 72720, Note_on_c, 4, 37, 110
5, 72954, Note_off_c, 4, 49, 127
5, 72954, Note_off_c, 4, 37, 127
5, 72960, Note_on_c, 4, 42, 110
5, 72960, Note_on_c, 4, 30, 110
5, 73195, Note_off_c, 4, 42, 127
5, 73195, Note_off_c, 4, 30, 127
5, 73200, Note_on_c, 4, 49, 110
5, 73200, Note_on_c, 4, 37, 110
5, 73435, Note_off_c, 4, 49, 127
5, 73435, Note_off_c, 4, 37, 127
5, 73439, Note_on_c, 4, 54, 110
5, 73439, Note_on_c, 4, 42, 110
5, 73675, Note_off_c, 4, 54, 127
5, 73675, Note_off_c, 4, 42, 127
5, 73679, Note_on_c, 4, 42, 110
5, 73679, Note_on_c, 4, 30, 110
5, 73915, Note_off_c, 4, 42, 127
5, 73915, Note_off_c, 4, 30, 127
5, 73919, Note_on_c, 4, 49, 110
5, 73919, Note_on_c, 4, 37, 110
5, 74154, Note_off_c, 4, 49, 127
5, 74154, Note_off_c, 4, 37, 127
5, 74159, Note_on_c, 4, 52, 110
5, 74159, Note_on_c, 4, 40, 110
5, 74394, Note_off_c, 4, 52, 127
5, 74394, Note_off_c, 4, 40, 127
5, 74399, Note_on_c, 4, 42, 110
5, 74399, Note_on_c, 4, 30, 110
5, 74634, Note_off_c, 4, 42, 127
5, 74634, Note_off_c, 4, 30, 127
5, 74640, Note_on_c, 4, 49, 110
5, 74640, Note_on_c, 4, 37, 110
5, 74874, Note_off_c, 4, 49, 127
5, 74874, Note_off_c, 4, 37, 127
5, 74880, Note_on_c, 4, 37, 110
5, 74880, Note_on_c, 4, 25, 110
5, 75115, Note_off_c, 4, 37, 127
5, 75115, Note_off_c, 4, 25, 127
5, 75120, Note_on_c, 4, 44, 110
5, 75120, Note_on_c, 4, 32, 110
5, 75355, Note_off_c, 4, 44, 127
5, 75355, Note_off_c, 4, 32, 127
5, 75359, Note_on_c, 4, 49, 110
5, 75359, Note_on_c, 4, 37, 110
5, 75595, Note_off_c, 4, 49, 127
5, 75595, Note_off_c, 4, 37, 127
5, 75599, Note_on_c, 4, 37, 110
5, 75599, Note_on_c, 4, 25, 110
5, 75834, Note_off_c, 4, 37, 127
5, 75834, Note_off_c, 4, 25, 127
5, 75839, Note_on_c, 4, 44, 110
5, 75839, Note_on_c, 4, 32, 110
5, 76074, Note_off_c, 4, 44, 127
5, 76074, Note_off_c, 4, 32, 127
5, 76079, Note_on_c, 4, 47, 110
5, 76079, Note_on_c, 4, 35, 110
5, 76314, Note_off_c, 4, 47, 127
5, 76314, Note_off_c, 4, 35, 127
5, 76320, Note_on_c, 4, 37, 110
5, 76320, Note_on_c, 4, 25, 110
5, 76554, Note_off_c, 4, 37, 127
5, 76554, Note_off_c, 4, 25, 127
5, 76560, Note_on_c, 4, 44, 110
5, 76560, Note_on_c, 4, 32, 110
5, 76794, Note_off_c, 4, 44, 127
5, 76794, Note_off_c, 4, 32, 127
5, 76800, Note_on_c, 4, 37, 110
5, 76800, Note_on_c, 4, 25, 110
5, 77035, Note_off_c, 4, 37, 127
5, 77035, Note_off_c, 4, 25, 127
5, 77040, Note_on_c, 4, 44, 110
5, 77040, Note_on_c, 4, 32, 110
5, 77275, Note_off_c, 4, 44, 127
5, 77275, Note_off_c, 4, 32, 127
5, 77279, Note_on_c, 4, 49, 110
5, 77279, Note_on_c, 4, 37, 110
5, 77515, Note_off_c, 4, 49, 127
5, 77515, Note_off_c, 4, 37, 127
5, 77519, Note_on_c, 4, 37, 110
5, 77519, Note_on_c, 4, 25, 110
5, 77754, Note_off_c, 4, 37, 127
5, 77754, Note_off_c, 4, 25, 127
5, 77759, Note_on_c, 4, 44, 110
5, 77759, Note_on_c, 4, 32, 110
5, 77994, Note_off_c, 4, 44, 127
5, 77994, Note_off_c, 4, 32, 127
5, 77999, Note_on_c, 4, 47, 110
5, 77999, Note_on_c, 4, 35, 110
5, 78234, Note_off_c, 4, 47, 127
5, 78234, Note_off_c, 4, 35, 127
5, 78240, Note_on_c, 4, 37, 110
5, 78240, Note_on_c, 4, 25, 110
5, 78474, Note_off_c, 4, 37, 127
5, 78474, Note_off_c, 4, 25, 127
5, 78480, Note_on_c, 4, 44, 110
5, 78480, Note_on_c, 4, 32, 110
5, 78715, Note_off_c, 4, 44, 127
5, 78715, Note_off_c, 4, 32, 127
5, 78720, Note_on_c, 4, 37, 110
5, 78720, Note_on_c, 4, 25, 110
5, 78955, Note_off_c, 4, 37, 127
5, 78955, Note_off_c, 4, 25, 127
5, 78959, Note_on_c, 4, 44, 110
5, 78959, Note_on_c, 4, 32, 110
5, 79195, Note_off_c, 4, 44, 127
5, 79195, Note_off_c, 4, 32, 127
5, 79199, Note_on_c, 4, 49, 110
5, 79199, Note_on_c, 4, 37, 110
5, 79434, Note_off_c, 4, 49, 127
5, 79434, Note_off_c, 4, 37, 127
5, 79439, Note_on_c, 4, 37, 110
5, 79439, Note_on_c, 4, 25, 110
5, 79674, Note_off_c, 4, 37, 127
5, 79674, Note_off_c, 4, 25, 127
5, 79679, Note_on_c, 4, 44, 110
5, 79679, Note_on_c, 4, 32, 110
5, 79914, Note_off_c, 4, 44, 127
5, 79914, Note_off_c, 4, 32, 127
5, 79919, Note_on_c, 4, 47, 110
5, 79919, Note_on_c, 4, 35, 110
5, 80154, Note_off_c, 4, 47, 127
5, 80154, Note_off_c, 4, 35, 127
5, 80160, Note_on_c, 4, 37, 110
5, 80160, Note_on_c, 4, 25, 110
5, 80394, Note_off_c, 4, 37, 127
5, 80394, Note_off_c, 4, 25, 127
5, 80400, Note_on_c, 4, 44, 110
5, 80400, Note_on_c, 4, 32, 110
5, 80635, Note_off_c, 4, 44, 127
5, 80635, Note_off_c, 4, 32, 127
5, 80640, Note_on_c, 4, 37, 110
5, 80640, Note_on_c, 4, 25, 110
5, 80875, Note_off_c, 4, 37, 127
5, 80875, Note_off_c, 4, 25, 127
5, 80879, Note_on_c, 4, 44, 110
5, 80879, Note_on_c, 4, 32, 110
5, 81115, Note_off_c, 4, 44, 127
5, 81115, Note_off_c, 4, 32, 127
5, 81119, Note_on_c, 4, 49, 110
5, 81119, Note_on_c, 4, 37, 110
5, 81354, Note_off_c, 4, 49, 127
5, 81354, Note_off_c, 4, 37, 127
5, 81359, Note_on_c, 4, 37, 110
5, 81359, Note_on_c, 4, 25, 110
5, 81594, Note_off_c, 4, 37, 127
5, 81594, Note_off_c, 4, 25, 127
5, 81599, Note_on_c, 4, 44, 110
5, 81599, Note_on_c, 4, 32, 110
5, 81834, Note_off_c, 4, 44, 127
5, 81834, Note_off_c, 4, 32, 127
5, 81840, Note_on_c, 4, 47, 110
5, 81840, Note_on_c, 4, 35, 110
5, 82074, Note_off_c, 4, 47, 127
5, 82074, Note_off_c, 4, 35, 127
5, 82080, Note_on_c, 4, 37, 110
5, 82080, Note_on_c, 4, 25, 110
5, 82314, Note_off_c, 4, 37, 127
5, 82314, Note_off_c, 4, 25, 127
5, 82320, Note_on_c, 4, 44, 110
5, 82320, Note_on_c, 4, 32, 110
5, 82555, Note_off_c, 4, 44, 127
5, 82555, Note_off_c, 4, 32, 127
5, 82559, Note_on_c, 4, 40, 110
5, 82559, Note_on_c, 4, 28, 110
5, 82795, Note_off_c, 4, 40, 127
5, 82795, Note_off_c, 4, 28, 127
5, 82799, Note_on_c, 4, 47, 110
5, 82799, Note_on_c, 4, 35, 110
5, 83035, Note_off_c, 4, 47, 127
5, 83035, Note_off_c, 4, 35, 127
5, 83039, Note_on_c, 4, 52, 110
5, 83039, Note_on_c, 4, 40, 110
5, 83274, Note_off_c, 4, 52, 127
5, 83274, Note_off_c, 4, 40, 127
5, 83279, Note_on_c, 4, 40, 110
5, 83279, Note_on_c, 4, 28, 110
5, 83514, Note_off_c, 4, 40, 127
5, 83514, Note_off_c, 4, 28, 127
5, 83519, Note_on_c, 4, 47, 110
5, 83519, Note_on_c, 4, 35, 110
5, 83754, Note_off_c, 4, 47, 127
5, 83754, Note_off_c, 4, 35, 127
5, 83760, Note_on_c, 4, 50, 110
5, 83760, Note_on_c, 4, 38, 110
5, 83994, Note_off_c, 4, 50, 127
5, 83994, Note_off_c, 4, 38, 127
5, 84000, Note_on_c, 4, 40, 110
5, 84000, Note_on_c, 4, 28, 110
5, 84235, Note_off_c, 4, 40, 127
5, 84235, Note_off_c, 4, 28, 127
5, 84240, Note_on_c, 4, 47, 110
5, 84240, Note_on_c, 4, 35, 110
5, 84475, Note_off_c, 4, 47, 127
5, 84475, Note_off_c, 4, 35, 127
5, 84479, Note_on_c, 4, 40, 110
5, 84479, Note_on_c, 4, 28, 110
5, 84715, Note_off_c, 4, 40, 127
5, 84715, Note_off_c, 4, 28, 127
5, 84719, Note_on_c, 4, 47, 110
5, 84719, Note_on_c, 4, 35, 110
5, 84954, Note_off_c, 4, 47, 127
5, 84954, Note_off_c, 4, 35, 127
5, 84959, Note_on_c, 4, 52, 110
5, 84959, Note_on_c, 4, 40, 110
5, 85194, Note_off_c, 4, 52, 127
5, 85194, Note_off_c, 4, 40, 127
5, 85199, Note_on_c, 4, 40, 110
5, 85199, Note_on_c, 4, 28, 110
5, 85434, Note_off_c, 4, 40, 127
5, 85434, Note_off_c, 4, 28, 127
5, 85439, Note_on_c, 4, 47, 110
5, 85439, Note_on_c, 4, 35, 110
5, 85674, Note_off_c, 4, 47, 127
5, 85674, Note_off_c, 4, 35, 127
5, 85680, Note_on_c, 4, 50, 110
5, 85680, Note_on_c, 4, 38, 110
5, 85914, Note_off_c, 4, 50, 127
5, 85914, Note_off_c, 4, 38, 127
5, 85920, Note_on_c, 4, 40, 110
5, 85920, Note_on_c, 4, 28, 110
5, 86155, Note_off_c, 4, 40, 127
5, 86155, Note_off_c, 4, 28, 127
5, 86160, Note_on_c, 4, 47, 110
5, 86160, Note_on_c, 4, 35, 110
5, 86395, Note_off_c, 4, 47, 127
5, 86395, Note_off_c, 4, 35, 127
5, 86399, Note_on_c, 4, 42, 110
5, 86399, Note_on_c, 4, 30, 110
5, 86635, Note_off_c, 4, 42, 127
5, 86635, Note_off_c, 4, 30, 127
5, 86639, Note_on_c, 4, 49, 110
5, 86639, Note_on_c, 4, 37, 110
5, 86874, Note_off_c, 4, 49, 127
5, 86874, Note_off_c, 4, 37, 127
5, 86879, Note_on_c, 4, 54, 110
5, 86879, Note_on_c, 4, 42, 110
5, 87114, Note_off_c, 4, 54, 127
5, 87114, Note_off_c, 4, 42, 127
5, 87119, Note_on_c, 4, 42, 110
5, 87119, Note_on_c, 4, 30, 110
5, 87354, Note_off_c, 4, 42, 127
5, 87354, Note_off_c, 4, 30, 127
5, 87360, Note_on_c, 4, 49, 110
5, 87360, Note_on_c, 4, 37, 110
5, 87594, Note_off_c, 4, 49, 127
5, 87594, Note_off_c, 4, 37, 127
5, 87600, Note_on_c, 4, 52, 110
5, 87600, Note_on_c, 4, 40, 110
5, 87834, Note_off_c, 4, 52, 127
5, 87834, Note_off_c, 4, 40, 127
5, 87840, Note_on_c, 4, 42, 110
5, 87840, Note_on_c, 4, 30, 110
5, 88075, Note_off_c, 4, 42, 127
5, 88075, Note_off_c, 4, 30, 127
5, 88079, Note_on_c, 4, 49, 110
5, 88079, Note_on_c, 4, 37, 110
5, 88315, Note_off_c, 4, 49, 127
5, 88315, Note_off_c, 4, 37, 127
5, 88319, Note_on_c, 4, 42, 110
5, 88319, Note_on_c, 4, 30, 110
5, 88555, Note_off_c, 4, 42, 127
5, 88555, Note_off_c, 4, 30, 127
5, 88559, Note_on_c, 4, 49, 110
5, 88559, Note_on_c, 4, 37, 110
5, 88794, Note_off_c, 4, 49, 127
5, 88794, Note_off_c, 4, 37, 127
5, 88799, Note_on_c, 4, 54, 110
5, 88799, Note_on_c, 4, 42, 110
5, 89034, Note_off_c, 4, 54, 127
5, 89034, Note_off_c, 4, 42, 127
5, 89039, Note_on_c, 4, 42, 110
5, 89039, Note_on_c, 4, 30, 110
5, 89274, Note_off_c, 4, 42, 127
5, 89274, Note_off_c, 4, 30, 127
5, 89280, Note_on_c, 4, 49, 110
5, 89280, Note_on_c, 4, 37, 110
5, 89514, Note_off_c, 4, 49, 127
5, 89514, Note_off_c, 4, 37, 127
5, 89520, Note_on_c, 4, 52, 110
5, 89520, Note_on_c, 4, 40, 110
5, 89755, Note_off_c, 4, 52, 127
5, 89755, Note_off_c, 4, 40, 127
5, 89760, Note_on_c, 4, 42, 110
5, 89760, Note_on_c, 4, 30, 110
5, 89995, Note_off_c, 4, 42, 127
5, 89995, Note_off_c, 4, 30, 127
5, 89999, Note_on_c, 4, 49, 110
5, 89999, Note_on_c, 4, 37, 110
5, 90235, Note_off_c, 4, 49, 127
5, 90235, Note_off_c, 4, 37, 127
5, 90239, Note_on_c, 4, 37, 110
5, 90239, Note_on_c, 4, 25, 110
5, 90474, Note_off_c, 4, 37, 127
5, 90474, Note_off_c, 4, 25, 127
5, 90479, Note_on_c, 4, 44, 110
5, 90479, Note_on_c, 4, 32, 110
5, 90714, Note_off_c, 4, 44, 127
5, 90714, Note_off_c, 4, 32, 127
5, 90719, Note_on_c, 4, 49, 110
5, 90719, Note_on_c, 4, 37, 110
5, 90954, Note_off_c, 4, 49, 127
5, 90954, Note_off_c, 4, 37, 127
5, 90959, Note_on_c, 4, 37, 110
5, 90959, Note_on_c, 4, 25, 110
5, 91194, Note_off_c, 4, 37, 127
5, 91194, Note_off_c, 4, 25, 127
5, 91200, Note_on_c, 4, 44, 110
5, 91200, Note_on_c, 4, 32, 110
5, 91434, Note_off_c, 4, 44, 127
5, 91434, Note_off_c, 4, 32, 127
5, 91440, Note_on_c, 4, 47, 110
5, 91440, Note_on_c, 4, 35, 110
5, 91675, Note_off_c, 4, 47, 127
5, 91675, Note_off_c, 4, 35, 127
5, 91680, Note_on_c, 4, 37, 110
5, 91680, Note_on_c, 4, 25, 110
5, 91915, Note_off_c, 4, 37, 127
5, 91915, Note_off_c, 4, 25, 127
5, 91919, Note_on_c, 4, 44, 110
5, 91919, Note_on_c, 4, 32, 110
5, 92155, Note_off_c, 4, 44, 127
5, 92155, Note_off_c, 4, 32, 127
5, 92159, Note_on_c, 4, 37, 110
5, 92159, Note_on_c, 4, 25, 110
5, 92394, Note_off_c, 4, 37, 127
5, 92394, Note_off_c, 4, 25, 127
5, 92399, Note_on_c, 4, 44, 110
5, 92399, Note_on_c, 4, 32, 110
5, 92634, Note_off_c, 4, 44, 127
5, 92634, Note_off_c, 4, 32, 127
5, 92639, Note_on_c, 4, 49, 110
5, 92639, Note_on_c, 4, 37, 110
5, 92874, Note_off_c, 4, 49, 127
5, 92874, Note_off_c, 4, 37, 127
5, 92880, Note_on_c, 4, 37, 110
5, 92880, Note_on_c, 4, 25, 110
5, 93114, Note_off_c, 4, 37, 127
5, 93114, Note_off_c, 4, 25, 127
5, 93120, Note_on_c, 4, 44, 110
5, 93120, Note_on_c, 4, 32, 110
5, 93355, Note_off_c, 4, 44, 127
5, 93355, Note_off_c, 4, 32, 127
5, 93360, Note_on_c, 4, 47, 110
5, 93360, Note_on_c, 4, 35, 110
5, 93595, Note_off_c, 4, 47, 127
5, 93595, Note_off_c, 4, 35, 127
5, 93599, Note_on_c, 4, 37, 110
5, 93599, Note_on_c, 4, 25, 110
5, 93835, Note_off_c, 4, 37, 127
5, 93835, Note_off_c, 4, 25, 127
5, 93839, Note_on_c, 4, 44, 110
5, 93839, Note_on_c, 4, 32, 110
5, 94075, Note_off_c, 4, 44, 127
5, 94075, Note_off_c, 4, 32, 127
5, 94079, Note_on_c, 4, 37, 110
5, 94079, Note_on_c, 4, 25, 110
5, 94314, Note_off_c, 4, 37, 127
5, 94314, Note_off_c, 4, 25, 127
5, 94319, Note_on_c, 4, 44, 110
5, 94319, Note_on_c, 4, 32, 110
5, 94554, Note_off_c, 4, 44, 127
5, 94554, Note_off_c, 4, 32, 127
5, 94559, Note_on_c, 4, 49, 110
5, 94559, Note_on_c, 4, 37, 110
5, 94794, Note_off_c, 4, 49, 127
5, 94794, Note_off_c, 4, 37, 127
5, 94800, Note_on_c, 4, 37, 110
5, 94800, Note_on_c, 4, 25, 110
5, 95034, Note_off_c, 4, 37, 127
5, 95034, Note_off_c, 4, 25, 127
5, 95040, Note_on_c, 4, 44, 110
5, 95040, Note_on_c, 4, 32, 110
5, 95275, Note_off_c, 4, 44, 127
5, 95275, Note_off_c, 4, 32, 127
5, 95280, Note_on_c, 4, 47, 110
5, 95280, Note_on_c, 4, 35, 110
5, 95515, Note_off_c, 4, 47, 127
5, 95515, Note_off_c, 4, 35, 127
5, 95519, Note_on_c, 4, 37, 110
5, 95519, Note_on_c, 4, 25, 110
5, 95755, Note_off_c, 4, 37, 127
5, 95755, Note_off_c, 4, 25, 127
5, 95759, Note_on_c, 4, 44, 110
5, 95759, Note_on_c, 4, 32, 110
5, 95994, Note_off_c, 4, 44, 127
5, 95994, Note_off_c, 4, 32, 127
5, 95999, Note_on_c, 4, 37, 110
5, 95999, Note_on_c, 4, 25, 110
5, 96234, Note_off_c, 4, 37, 127
5, 96234, Note_off_c, 4, 25, 127
5, 96239, Note_on_c, 4, 44, 110
5, 96239, Note_on_c, 4, 32, 110
5, 96474, Note_off_c, 4, 44, 127
5, 96474, Note_off_c, 4, 32, 127
5, 96480, Note_on_c, 4, 49, 110
5, 96480, Note_on_c, 4, 37, 110
5, 96714, Note_off_c, 4, 49, 127
5, 96714, Note_off_c, 4, 37, 127
5, 96720, Note_on_c, 4, 37, 110
5, 96720, Note_on_c, 4, 25, 110
5, 96954, Note_off_c, 4, 37, 127
5, 96954, Note_off_c, 4, 25, 127
5, 96960, Note_on_c, 4, 44, 110
5, 96960, Note_on_c, 4, 32, 110
5, 97195, Note_off_c, 4, 44, 127
5, 97195, Note_off_c, 4, 32, 127
5, 97200, Note_on_c, 4, 47, 110
5, 97200, Note_on_c, 4, 35, 110
5, 97435, Note_off_c, 4, 47, 127
5, 97435, Note_off_c, 4, 35, 127
5, 97439, Note_on_c, 4, 37, 110
5, 97439, Note_on_c, 4, 25, 110
5, 97675, Note_off_c, 4, 37, 127
5, 97675, Note_off_c, 4, 25, 127
5, 97679, Note_on_c, 4, 44, 110
5, 97679, Note_on_c, 4, 32, 110
5, 97914, Note_off_c, 4, 44, 127
5, 97914, Note_off_c, 4, 32, 127
5, 97919, Note_on_c, 4, 40, 110
5, 97919, Note_on_c, 4, 28, 110
5, 98154, Note_off_c, 4, 40, 127
5, 98154, Note_off_c, 4, 28, 127
5, 98159, Note_on_c, 4, 47, 110
5, 98159, Note_on_c, 4, 35, 110
5, 98394, Note_off_c, 4, 47, 127
5, 98394, Note_off_c, 4, 35, 127
5, 98400, Note_on_c, 4, 52, 110
5, 98400, Note_on_c, 4, 40, 110
5, 98634, Note_off_c, 4, 52, 127
5, 98634, Note_off_c, 4, 40, 127
5, 98640, Note_on_c, 4, 40, 110
5, 98640, Note_on_c, 4, 28, 110
5, 98875, Note_off_c, 4, 40, 127
5, 98875, Note_off_c, 4, 28, 127
5, 98880, Note_on_c, 4, 47, 110
5, 98880, Note_on_c, 4, 35, 110
5, 99115, Note_off_c, 4, 47, 127
5, 99115, Note_off_c, 4, 35, 127
5, 99119, Note_on_c, 4, 50, 110
5, 99119, Note_on_c, 4, 38, 110
5, 99355, Note_off_c, 4, 50, 127
5, 99355, Note_off_c, 4, 38, 127
5, 99359, Note_on_c, 4, 40, 110
5, 99359, Note_on_c, 4, 28, 110
5, 99595, Note_off_c, 4, 40, 127
5, 99595, Note_off_c, 4, 28, 127
5, 99599, Note_on_c, 4, 47, 110
5, 99599, Note_on_c, 4, 35, 110
5, 99834, Note_off_c, 4, 47, 127
5, 99834, Note_off_c, 4, 35, 127
5, 99839, Note_on_c, 4, 40, 110
5, 99839, Note_on_c, 4, 28, 110
5, 100074, Note_off_c, 4, 40, 127
5, 100074, Note_off_c, 4, 28, 127
5, 100079, Note_on_c, 4, 47, 110
5, 100079, Note_on_c, 4, 35, 110
5, 100314, Note_off_c, 4, 47, 127
5, 100314, Note_off_c, 4, 35, 127
5, 100320, Note_on_c, 4, 52, 110
5, 100320, Note_on_c, 4, 40, 110
5, 100554, Note_off_c, 4, 52, 127
5, 100554, Note_off_c, 4, 40, 127
5, 100560, Note_on_c, 4, 40, 110
5, 100560, Note_on_c, 4, 28, 110
5, 100795, Note_off_c, 4, 40, 127
5, 100795, Note_off_c, 4, 28, 127
5, 100800, Note_on_c, 4, 47, 110
5, 100800, Note_on_c, 4, 35, 110
5, 101035, Note_off_c, 4, 47, 127
5, 101035, Note_off_c, 4, 35, 127
5, 101039, Note_on_c, 4, 50, 110
5, 101039, Note_on_c, 4, 38, 110
5, 101275, Note_off_c, 4, 50, 127
5, 101275, Note_off_c, 4, 38, 127
5, 101279, Note_on_c, 4, 40, 110
5, 101279, Note_on_c, 4, 28, 110
5, 101514, Note_off_c, 4, 40, 127
5, 101514, Note_off_c, 4, 28, 127
5, 101519, Note_on_c, 4, 47, 110
5, 101519, Note_on_c, 4, 35, 110
5, 101754, Note_off_c, 4, 47, 127
5, 101754, Note_off_c, 4, 35, 127
5, 101759, Note_on_c, 4, 42, 110
5, 101759, Note_on_c, 4, 30, 110
5, 101994, Note_off_c, 4, 42, 127
5, 101994, Note_off_c, 4, 30, 127
5, 102000, Note_on_c, 4, 49, 110
5, 102000, Note_on_c, 4, 37, 110
5, 102234, Note_off_c, 4, 49, 127
5, 102234, Note_off_c, 4, 37, 127
5, 102240, Note_on_c, 4, 54, 110
5, 102240, Note_on_c, 4, 42, 110
5, 102474, Note_off_c, 4, 54, 127
5, 102474, Note_off_c, 4, 42, 127
5, 102480, Note_on_c, 4, 42, 110
5, 102480, Note_on_c, 4, 30, 110
5, 102715, Note_off_c, 4, 42, 127
5, 102715, Note_off_c, 4, 30, 127
5, 102720, Note_on_c, 4, 49, 110
5, 102720, Note_on_c, 4, 37, 110
5, 102955, Note_off_c, 4, 49, 127
5, 102955, Note_off_c, 4, 37, 127
5, 102959, Note_on_c, 4, 52, 110
5, 102959, Note_on_c, 4, 40, 110
5, 103195, Note_off_c, 4, 52, 127
5, 103195, Note_off_c, 4, 40, 127
5, 103199, Note_on_c, 4, 42, 110
5, 103199, Note_on_c, 4, 30, 110
5, 103434, Note_off_c, 4, 42, 127
5, 103434, Note_off_c, 4, 30, 127
5, 103439, Note_on_c, 4, 49, 110
5, 103439, Note_on_c, 4, 37, 110
5, 103674, Note_off_c, 4, 49, 127
5, 103674, Note_off_c, 4, 37, 127
5, 103679, Note_on_c, 4, 42, 110
5, 103679, Note_on_c, 4, 30, 110
5, 103914, Note_off_c, 4, 42, 127
5, 103914, Note_off_c, 4, 30, 127
5, 103920, Note_on_c, 4, 49, 110
5, 103920, Note_on_c, 4, 37, 110
5, 104154, Note_off_c, 4, 49, 127
5, 104154, Note_off_c, 4, 37, 127
5, 104160, Note_on_c, 4, 54, 110
5, 104160, Note_on_c, 4, 42, 110
5, 104395, Note_off_c, 4, 54, 127
5, 104395, Note_off_c, 4, 42, 127
5, 104400, Note_on_c, 4, 42, 110
5, 104400, Note_on_c, 4, 30, 110
5, 104635, Note_off_c, 4, 42, 127
5, 104635, Note_off_c, 4, 30, 127
5, 104639, Note_on_c, 4, 49, 110
5, 104639, Note_on_c, 4, 37, 110
5, 104875, Note_off_c, 4, 49, 127
5, 104875, Note_off_c, 4, 37, 127
5, 104879, Note_on_c, 4, 52, 110
5, 104879, Note_on_c, 4, 40, 110
5, 105114, Note_off_c, 4, 52, 127
5, 105114, Note_off_c, 4, 40, 127
5, 105119, Note_on_c, 4, 42, 110
5, 105119, Note_on_c, 4, 30, 110
5, 105354, Note_off_c, 4, 42, 127
5, 105354, Note_off_c, 4, 30, 127
5, 105359, Note_on_c, 4, 49, 110
5, 105359, Note_on_c, 4, 37, 110
5, 105594, Note_off_c, 4, 49, 127
5, 105594, Note_off_c, 4, 37, 127
5, 105599, Note_on_c, 4, 37, 110
5, 105599, Note_on_c, 4, 25, 110
5, 105834, Note_off_c, 4, 37, 127
5, 105834, Note_off_c, 4, 25, 127
5, 105840, Note_on_c, 4, 44, 110
5, 105840, Note_on_c, 4, 32, 110
5, 106074, Note_off_c, 4, 44, 127
5, 106074, Note_off_c, 4, 32, 127
5, 106080, Note_on_c, 4, 49, 110
5, 106080, Note_on_c, 4, 37, 110
5, 106315, Note_off_c, 4, 49, 127
5, 106315, Note_off_c, 4, 37, 127
5, 106320, Note_on_c, 4, 37, 110
5, 106320, Note_on_c, 4, 25, 110
5, 106555, Note_off_c, 4, 37, 127
5, 106555, Note_off_c, 4, 25, 127
5, 106559, Note_on_c, 4, 44, 110
5, 106559, Note_on_c, 4, 32, 110
5, 106795, Note_off_c, 4, 44, 127
5, 106795, Note_off_c, 4, 32, 127
5, 106799, Note_on_c, 4, 47, 110
5, 106799, Note_on_c, 4, 35, 110
5, 107034, Note_off_c, 4, 47, 127
5, 107034, Note_off_c, 4, 35, 127
5, 107039, Note_on_c, 4, 37, 110
5, 107039, Note_on_c, 4, 25, 110
5, 107274, Note_off_c, 4, 37, 127
5, 107274, Note_off_c, 4, 25, 127
5, 107279, Note_on_c, 4, 44, 110
5, 107279, Note_on_c, 4, 32, 110
5, 107514, Note_off_c, 4, 44, 127
5, 107514, Note_off_c, 4, 32, 127
5, 107520, Note_on_c, 4, 37, 110
5, 107520, Note_on_c, 4, 25, 110
5, 107754, Note_off_c, 4, 37, 127
5, 107754, Note_off_c, 4, 25, 127
5, 107760, Note_on_c, 4, 44, 110
5, 107760, Note_on_c, 4, 32, 110
5, 107994, Note_off_c, 4, 44, 127
5, 107994, Note_off_c, 4, 32, 127
5, 108000, Note_on_c, 4, 49, 110
5, 108000, Note_on_c, 4, 37, 110
5, 108235, Note_off_c, 4, 49, 127
5, 108235, Note_off_c, 4, 37, 127
5, 108240, Note_on_c, 4, 37, 110
5, 108240, Note_on_c, 4, 25, 110
5, 108475, Note_off_c, 4, 37, 127
5, 108475, Note_off_c, 4, 25, 127
5, 108479, Note_on_c, 4, 44, 110
5, 108479, Note_on_c, 4, 32, 110
5, 108715, Note_off_c, 4, 44, 127
5, 108715, Note_off_c, 4, 32, 127
5, 108719, Note_on_c, 4, 47, 110
5, 108719, Note_on_c, 4, 35, 110
5, 108954, Note_off_c, 4, 47, 127
5, 108954, Note_off_c, 4, 35, 127
5, 108959, Note_on_c, 4, 37, 110
5, 108959, Note_on_c, 4, 25, 110
5, 109194, Note_off_c, 4, 37, 127
5, 109194, Note_off_c, 4, 25, 127
5, 109199, Note_on_c, 4, 44, 110
5, 109199, Note_on_c, 4, 32, 110
5, 109434, Note_off_c, 4, 44, 127
5, 109434, Note_off_c, 4, 32, 127
5, 140159, Note_on_c, 4, 37, 110
5, 140159, Note_on_c, 4, 25, 110
5, 140394, Note_off_c, 4, 37, 127
5, 140394, Note_off_c, 4, 25, 127
5, 140399, Note_on_c, 4, 44, 110
5, 140399, Note_on_c, 4, 32, 110
5, 140634, Note_off_c, 4, 44, 127
5, 140634, Note_off_c, 4, 32, 127
5, 140640, Note_on_c, 4, 49, 110
5, 140640, Note_on_c, 4, 37, 110
5, 140874, Note_off_c, 4, 49, 127
5, 140874, Note_off_c, 4, 37, 127
5, 140880, Note_on_c, 4, 37, 110
5, 140880, Note_on_c, 4, 25, 110
5, 141115, Note_off_c, 4, 37, 127
5, 141115, Note_off_c, 4, 25, 127
5, 141120, Note_on_c, 4, 44, 110
5, 141120, Note_on_c, 4, 32, 110
5, 141355, Note_off_c, 4, 44, 127
5, 141355, Note_off_c, 4, 32, 127
5, 141359, Note_on_c, 4, 47, 110
5, 141359, Note_on_c, 4, 35, 110
5, 141595, Note_off_c, 4, 47, 127
5, 141595, Note_off_c, 4, 35, 127
5, 141599, Note_on_c, 4, 37, 110
5, 141599, Note_on_c, 4, 25, 110
5, 141834, Note_off_c, 4, 37, 127
5, 141834, Note_off_c, 4, 25, 127
5, 141839, Note_on_c, 4, 44, 110
5, 141839, Note_on_c, 4, 32, 110
5, 142074, Note_off_c, 4, 44, 127
5, 142074, Note_off_c, 4, 32, 127
5, 142079, Note_on_c, 4, 37, 110
5, 142079, Note_on_c, 4, 25, 110
5, 142314, Note_off_c, 4, 37, 127
5, 142314, Note_off_c, 4, 25, 127
5, 142319, Note_on_c, 4, 44, 110
5, 142319, Note_on_c, 4, 32, 110
5, 142554, Note_off_c, 4, 44, 127
5, 142554, Note_off_c, 4, 32, 127
5, 142560, Note_on_c, 4, 49, 110
5, 142560, Note_on_c, 4, 37, 110
5, 142794, Note_off_c, 4, 49, 127
5, 142794, Note_off_c, 4, 37, 127
5, 142800, Note_on_c, 4, 37, 110
5, 142800, Note_on_c, 4, 25, 110
5, 143035, Note_off_c, 4, 37, 127
5, 143035, Note_off_c, 4, 25, 127
5, 143040, Note_on_c, 4, 44, 110
5, 143040, Note_on_c, 4, 32, 110
5, 143275, Note_off_c, 4, 44, 127
5, 143275, Note_off_c, 4, 32, 127
5, 143279, Note_on_c, 4, 47, 110
5, 143279, Note_on_c, 4, 35, 110
5, 143515, Note_off_c, 4, 47, 127
5, 143515, Note_off_c, 4, 35, 127
5, 143519, Note_on_c, 4, 37, 110
5, 143519, Note_on_c, 4, 25, 110
5, 143754, Note_off_c, 4, 37, 127
5, 143754, Note_off_c, 4, 25, 127
5, 143759, Note_on_c, 4, 44, 110
5, 143759, Note_on_c, 4, 32, 110
5, 143994, Note_off_c, 4, 44, 127
5, 143994, Note_off_c, 4, 32, 127
5, 143999, Note_on_c, 4, 40, 110
5, 143999, Note_on_c, 4, 28, 110
5, 144234, Note_off_c, 4, 40, 127
5, 144234, Note_off_c, 4, 28, 127
5, 144240, Note_on_c, 4, 47, 110
5, 144240, Note_on_c, 4, 35, 110
5, 144474, Note_off_c, 4, 47, 127
5, 144474, Note_off_c, 4, 35, 127
5, 144480, Note_on_c, 4, 52, 110
5, 144480, Note_on_c, 4, 40, 110
5, 144715, Note_off_c, 4, 52, 127
5, 144715, Note_off_c, 4, 40, 127
5, 144720, Note_on_c, 4, 40, 110
5, 144720, Note_on_c, 4, 28, 110
5, 144955, Note_off_c, 4, 40, 127
5, 144955, Note_off_c, 4, 28, 127
5, 144959, Note_on_c, 4, 47, 110
5, 144959, Note_on_c, 4, 35, 110
5, 145195, Note_off_c, 4, 47, 127
5, 145195, Note_off_c, 4, 35, 127
5, 145199, Note_on_c, 4, 50, 110
5, 145199, Note_on_c, 4, 38, 110
5, 145435, Note_off_c, 4, 50, 127
5, 145435, Note_off_c, 4, 38, 127
5, 145439, Note_on_c, 4, 40, 110
5, 145439, Note_on_c, 4, 28, 110
5, 145674, Note_off_c, 4, 40, 127
5, 145674, Note_off_c, 4, 28, 127
5, 145679, Note_on_c, 4, 47, 110
5, 145679, Note_on_c, 4, 35, 110
5, 145914, Note_off_c, 4, 47, 127
5, 145914, Note_off_c, 4, 35, 127
5, 145919, Note_on_c, 4, 40, 110
5, 145919, Note_on_c, 4, 28, 110
5, 146154, Note_off_c, 4, 40, 127
5, 146154, Note_off_c, 4, 28, 127
5, 146160, Note_on_c, 4, 47, 110
5, 146160, Note_on_c, 4, 35, 110
5, 146394, Note_off_c, 4, 47, 127
5, 146394, Note_off_c, 4, 35, 127
5, 146400, Note_on_c, 4, 52, 110
5, 146400, Note_on_c, 4, 40, 110
5, 146635, Note_off_c, 4, 52, 127
5, 146635, Note_off_c, 4, 40, 127
5, 146640, Note_on_c, 4, 40, 110
5, 146640, Note_on_c, 4, 28, 110
5, 146875, Note_off_c, 4, 40, 127
5, 146875, Note_off_c, 4, 28, 127
5, 146879, Note_on_c, 4, 47, 110
5, 146879, Note_on_c, 4, 35, 110
5, 147115, Note_off_c, 4, 47, 127
5, 147115, Note_off_c, 4, 35, 127
5, 147119, Note_on_c, 4, 50, 110
5, 147119, Note_on_c, 4, 38, 110
5, 147354, Note_off_c, 4, 50, 127
5, 147354, Note_off_c, 4, 38, 127
5, 147359, Note_on_c, 4, 40, 110
5, 147359, Note_on_c, 4, 28, 110
5, 147594, Note_off_c, 4, 40, 127
5, 147594, Note_off_c, 4, 28, 127
5, 147599, Note_on_c, 4, 47, 110
5, 147599, Note_on_c, 4, 35, 110
5, 147834, Note_off_c, 4, 47, 127
5, 147834, Note_off_c, 4, 35, 127
5, 147839, Note_on_c, 4, 42, 110
5, 147839, Note_on_c, 4, 30, 110
5, 148074, Note_off_c, 4, 42, 127
5, 148074, Note_off_c, 4, 30, 127
5, 148080, Note_on_c, 4, 49, 110
5, 148080, Note_on_c, 4, 37, 110
5, 148314, Note_off_c, 4, 49, 127
5, 148314, Note_off_c, 4, 37, 127
5, 148320, Note_on_c, 4, 54, 110
5, 148320, Note_on_c, 4, 42, 110
5, 148555, Note_off_c, 4, 54, 127
5, 148555, Note_off_c, 4, 42, 127
5, 148560, Note_on_c, 4, 42, 110
5, 148560, Note_on_c, 4, 30, 110
5, 148795, Note_off_c, 4, 42, 127
5, 148795, Note_off_c, 4, 30, 127
5, 148799, Note_on_c, 4, 49, 110
5, 148799, Note_on_c, 4, 37, 110
5, 149035, Note_off_c, 4, 49, 127
5, 149035, Note_off_c, 4, 37, 127
5, 149039, Note_on_c, 4, 52, 110
5, 149039, Note_on_c, 4, 40, 110
5, 149274, Note_off_c, 4, 52, 127
5, 149274, Note_off_c, 4, 40, 127
5, 149279, Note_on_c, 4, 42, 110
5, 149279, Note_on_c, 4, 30, 110
5, 149514, Note_off_c, 4, 42, 127
5, 149514, Note_off_c, 4, 30, 127
5, 149519, Note_on_c, 4, 49, 110
5, 149519, Note_on_c, 4, 37, 110
5, 149754, Note_off_c, 4, 49, 127
5, 149754, Note_off_c, 4, 37, 127
5, 149760, Note_on_c, 4, 42, 110
5, 149760, Note_on_c, 4, 30, 110
5, 149994, Note_off_c, 4, 42, 127
5, 149994, Note_off_c, 4, 30, 127
5, 150000, Note_on_c, 4, 49, 110
5, 150000, Note_on_c, 4, 37, 110
5, 150235, Note_off_c, 4, 49, 127
5, 150235, Note_off_c, 4, 37, 127
5, 150240, Note_on_c, 4, 54, 110
5, 150240, Note_on_c, 4, 42, 110
5, 150475, Note_off_c, 4, 54, 127
5, 150475, Note_off_c, 4, 42, 127
5, 150479, Note_on_c, 4, 42, 110
5, 150479, Note_on_c, 4, 30, 110
5, 150715, Note_off_c, 4, 42, 127
5, 150715, Note_off_c, 4, 30, 127
5, 150719, Note_on_c, 4, 49, 110
5, 150719, Note_on_c, 4, 37, 110
5, 150955, Note_off_c, 4, 49, 127
5, 150955, Note_off_c, 4, 37, 127
5, 150959, Note_on_c, 4, 52, 110
5, 150959, Note_on_c, 4, 40, 110
5, 151194, Note_off_c, 4, 52, 127
5, 151194, Note_off_c, 4, 40, 127
5, 151199, Note_on_c, 4, 42, 110
5, 151199, Note_on_c, 4, 30, 110
5, 151434, Note_off_c, 4, 42, 127
5, 151434, Note_off_c, 4, 30, 127
5, 151439, Note_on_c, 4, 49, 110
5, 151439, Note_on_c, 4, 37, 110
5, 151674, Note_off_c, 4, 49, 127
5, 151674, Note_off_c, 4, 37, 127
5, 151680, Note_on_c, 4, 37, 110
5, 151680, Note_on_c, 4, 25, 110
5, 151914, Note_off_c, 4, 37, 127
5, 151914, Note_off_c, 4, 25, 127
5, 151920, Note_on_c, 4, 44, 110
5, 151920, Note_on_c, 4, 32, 110
5, 152155, Note_off_c, 4, 44, 127
5, 152155, Note_off_c, 4, 32, 127
5, 152160, Note_on_c, 4, 49, 110
5, 152160, Note_on_c, 4, 37, 110
5, 152395, Note_off_c, 4, 49, 127
5, 152395, Note_off_c, 4, 37, 127
5, 152399, Note_on_c, 4, 37, 110
5, 152399, Note_on_c, 4, 25, 110
5, 152635, Note_off_c, 4, 37, 127
5, 152635, Note_off_c, 4, 25, 127
5, 152639, Note_on_c, 4, 44, 110
5, 152639, Note_on_c, 4, 32, 110
5, 152874, Note_off_c, 4, 44, 127
5, 152874, Note_off_c, 4, 32, 127
5, 152879, Note_on_c, 4, 47, 110
5, 152879, Note_on_c, 4, 35, 110
5, 153114, Note_off_c, 4, 47, 127
5, 153114, Note_off_c, 4, 35, 127
5, 153119, Note_on_c, 4, 37, 110
5, 153119, Note_on_c, 4, 25, 110
5, 153354, Note_off_c, 4, 37, 127
5, 153354, Note_off_c, 4, 25, 127
5, 153360, Note_on_c, 4, 44, 110
5, 153360, Note_on_c, 4, 32, 110
5, 153594, Note_off_c, 4, 44, 127
5, 153594, Note_off_c, 4, 32, 127
5, 153600, Note_on_c, 4, 37, 110
5, 153600, Note_on_c, 4, 25, 110
5, 153834, Note_off_c, 4, 37, 127
5, 153834, Note_off_c, 4, 25, 127
5, 153840, Note_on_c, 4, 44, 110
5, 153840, Note_on_c, 4, 32, 110
5, 154075, Note_off_c, 4, 44, 127
5, 154075, Note_off_c, 4, 32, 127
5, 154080, Note_on_c, 4, 49, 110
5, 154080, Note_on_c, 4, 37, 110
5, 154315, Note_off_c, 4, 49, 127
5, 154315, Note_off_c, 4, 37, 127
5, 154319, Note_on_c, 4, 37, 110
5, 154319, Note_on_c, 4, 25, 110
5, 154555, Note_off_c, 4, 37, 127
5, 154555, Note_off_c, 4, 25, 127
5, 154559, Note_on_c, 4, 44, 110
5, 154559, Note_on_c, 4, 32, 110
5, 154794, Note_off_c, 4, 44, 127
5, 154794, Note_off_c, 4, 32, 127
5, 154799, Note_on_c, 4, 47, 110
5, 154799, Note_on_c, 4, 35, 110
5, 155034, Note_off_c, 4, 47, 127
5, 155034, Note_off_c, 4, 35, 127
5, 155039, Note_on_c, 4, 37, 110
5, 155039, Note_on_c, 4, 25, 110
5, 155274, Note_off_c, 4, 37, 127
5, 155274, Note_off_c, 4, 25, 127
5, 155280, Note_on_c, 4, 44, 110
5, 155280, Note_on_c, 4, 32, 110
5, 155514, Note_off_c, 4, 44, 127
5, 155514, Note_off_c, 4, 32, 127
5, 163200, Note_on_c, 4, 46, 110
5, 163200, Note_on_c, 4, 34, 110
5, 163435, Note_off_c, 4, 46, 127
5, 163435, Note_off_c, 4, 34, 127
5, 163439, Note_on_c, 4, 53, 110
5, 163439, Note_on_c, 4, 41, 110
5, 163675, Note_off_c, 4, 53, 127
5, 163675, Note_off_c, 4, 41, 127
5, 163679, Note_on_c, 4, 58, 110
5, 163679, Note_on_c, 4, 46, 110
5, 163914, Note_off_c, 4, 58, 127
5, 163914, Note_off_c, 4, 46, 127
5, 163919, Note_on_c, 4, 46, 110
5, 163919, Note_on_c, 4, 34, 110
5, 164154, Note_off_c, 4, 46, 127
5, 164154, Note_off_c, 4, 34, 127
5, 164159, Note_on_c, 4, 53, 110
5, 164159, Note_on_c, 4, 41, 110
5, 164394, Note_off_c, 4, 53, 127
5, 164394, Note_off_c, 4, 41, 127
5, 164400, Note_on_c, 4, 56, 110
5, 164400, Note_on_c, 4, 44, 110
5, 164634, Note_off_c, 4, 56, 127
5, 164634, Note_off_c, 4, 44, 127
5, 164640, Note_on_c, 4, 46, 110
5, 164640, Note_on_c, 4, 34, 110
5, 164874, Note_off_c, 4, 46, 127
5, 164874, Note_off_c, 4, 34, 127
5, 164880, Note_on_c, 4, 53, 110
5, 164880, Note_on_c, 4, 41, 110
5, 165115, Note_off_c, 4, 53, 127
5, 165115, Note_off_c, 4, 41, 127
5, 165119, Note_on_c, 4, 51, 110
5, 165119, Note_on_c, 4, 39, 110
5, 165355, Note_off_c, 4, 51, 127
5, 165355, Note_off_c, 4, 39, 127
5, 165359, Note_on_c, 4, 46, 110
5, 165359, Note_on_c, 4, 34, 110
5, 165595, Note_off_c, 4, 46, 127
5, 165595, Note_off_c, 4, 34, 127
5, 165599, Note_on_c, 4, 53, 110
5, 165599, Note_on_c, 4, 41, 110
5, 165834, Note_off_c, 4, 53, 127
5, 165834, Note_off_c, 4, 41, 127
5, 165839, Note_on_c, 4, 51, 110
5, 165839, Note_on_c, 4, 39, 110
5, 166074, Note_off_c, 4, 51, 127
5, 166074, Note_off_c, 4, 39, 127
5, 166079, Note_on_c, 4, 42, 110
5, 166079, Note_on_c, 4, 30, 110
5, 166314, Note_off_c, 4, 42, 127
5, 166314, Note_off_c, 4, 30, 127
5, 166320, Note_on_c, 4, 43, 110
5, 166320, Note_on_c, 4, 31, 110
5, 166554, Note_off_c, 4, 43, 127
5, 166554, Note_off_c, 4, 31, 127
5, 166560, Note_on_c, 4, 44, 110
5, 166560, Note_on_c, 4, 32, 110
5, 166795, Note_off_c, 4, 44, 127
5, 166795, Note_off_c, 4, 32, 127
5, 166800, Note_on_c, 4, 45, 110
5, 166800, Note_on_c, 4, 33, 110
5, 167035, Note_off_c, 4, 45, 127
5, 167035, Note_off_c, 4, 33, 127
5, 167039, Note_on_c, 4, 46, 110
5, 167039, Note_on_c, 4, 34, 110
5, 167275, Note_off_c, 4, 46, 127
5, 167275, Note_off_c, 4, 34, 127
5, 167279, Note_on_c, 4, 53, 110
5, 167279, Note_on_c, 4, 41, 110
5, 167514, Note_off_c, 4, 53, 127
5, 167514, Note_off_c, 4, 41, 127
5, 167519, Note_on_c, 4, 58, 110
5, 167519, Note_on_c, 4, 46, 110
5, 167754, Note_off_c, 4, 58, 127
5, 167754, Note_off_c, 4, 46, 127
5, 167759, Note_on_c, 4, 46, 110
5, 167759, Note_on_c, 4, 34, 110
5, 167994, Note_off_c, 4, 46, 127
5, 167994, Note_off_c, 4, 34, 127
5, 167999, Note_on_c, 4, 53, 110
5, 167999, Note_on_c, 4, 41, 110
5, 168234, Note_off_c, 4, 53, 127
5, 168234, Note_off_c, 4, 41, 127
5, 168240, Note_on_c, 4, 56, 110
5, 168240, Note_on_c, 4, 44, 110
5, 168474, Note_off_c, 4, 56, 127
5, 168474, Note_off_c, 4, 44, 127
5, 168480, Note_on_c, 4, 46, 110
5, 168480, Note_on_c, 4, 34, 110
5, 168715, Note_off_c, 4, 46, 127
5, 168715, Note_off_c, 4, 34, 127
5, 168720, Note_on_c, 4, 53, 110
5, 168720, Note_on_c, 4, 41, 110
5, 168955, Note_off_c, 4, 53, 127
5, 168955, Note_off_c, 4, 41, 127
5, 168959, Note_on_c, 4, 46, 110
5, 168959, Note_on_c, 4, 34, 110
5, 169195, Note_off_c, 4, 46, 127
5, 169195, Note_off_c, 4, 34, 127
5, 169199, Note_on_c, 4, 53, 110
5, 169199, Note_on_c, 4, 41, 110
5, 169434, Note_off_c, 4, 53, 127
5, 169434, Note_off_c, 4, 41, 127
5, 169439, Note_on_c, 4, 58, 110
5, 169439, Note_on_c, 4, 46, 110
5, 169674, Note_off_c, 4, 58, 127
5, 169674, Note_off_c, 4, 46, 127
5, 169679, Note_on_c, 4, 46, 110
5, 169679, Note_on_c, 4, 34, 110
5, 169914, Note_off_c, 4, 46, 127
5, 169914, Note_off_c, 4, 34, 127
5, 169920, Note_on_c, 4, 53, 110
5, 169920, Note_on_c, 4, 41, 110
5, 170154, Note_off_c, 4, 53, 127
5, 170154, Note_off_c, 4, 41, 127
5, 170160, Note_on_c, 4, 56, 110
5, 170160, Note_on_c, 4, 44, 110
5, 170395, Note_off_c, 4, 56, 127
5, 170395, Note_off_c, 4, 44, 127
5, 170400, Note_on_c, 4, 46, 110
5, 170400, Note_on_c, 4, 34, 110
5, 170635, Note_off_c, 4, 46, 127
5, 170635, Note_off_c, 4, 34, 127
5, 170639, Note_on_c, 4, 53, 110
5, 170639, Note_on_c, 4, 41, 110
5, 170875, Note_off_c, 4, 53, 127
5, 170875, Note_off_c, 4, 41, 127
5, 170879, Note_on_c, 4, 46, 110
5, 170879, Note_on_c, 4, 34, 110
5, 171115, Note_off_c, 4, 46, 127
5, 171115, Note_off_c, 4, 34, 127
5, 171119, Note_on_c, 4, 53, 110
5, 171119, Note_on_c, 4, 41, 110
5, 171354, Note_off_c, 4, 53, 127
5, 171354, Note_off_c, 4, 41, 127
5, 171359, Note_on_c, 4, 58, 110
5, 171359, Note_on_c, 4, 46, 110
5, 171594, Note_off_c, 4, 58, 127
5, 171594, Note_off_c, 4, 46, 127
5, 171599, Note_on_c, 4, 46, 110
5, 171599, Note_on_c, 4, 34, 110
5, 171834, Note_off_c, 4, 46, 127
5, 171834, Note_off_c, 4, 34, 127
5, 171840, Note_on_c, 4, 53, 110
5, 171840, Note_on_c, 4, 41, 110
5, 172074, Note_off_c, 4, 53, 127
5, 172074, Note_off_c, 4, 41, 127
5, 172080, Note_on_c, 4, 56, 110
5, 172080, Note_on_c, 4, 44, 110
5, 172315, Note_off_c, 4, 56, 127
5, 172315, Note_off_c, 4, 44, 127
5, 172320, Note_on_c, 4, 46, 110
5, 172320, Note_on_c, 4, 34, 110
5, 172555, Note_off_c, 4, 46, 127
5, 172555, Note_off_c, 4, 34, 127
5, 172559, Note_on_c, 4, 53, 110
5, 172559, Note_on_c, 4, 41, 110
5, 172795, Note_off_c, 4, 53, 127
5, 172795, Note_off_c, 4, 41, 127
5, 172799, Note_on_c, 4, 46, 110
5, 172799, Note_on_c, 4, 34, 110
5, 173034, Note_off_c, 4, 46, 127
5, 173034, Note_off_c, 4, 34, 127
5, 173039, Note_on_c, 4, 53, 110
5, 173039, Note_on_c, 4, 41, 110
5, 173274, Note_off_c, 4, 53, 127
5, 173274, Note_off_c, 4, 41, 127
5, 173279, Note_on_c, 4, 58, 110
5, 173279, Note_on_c, 4, 46, 110
5, 173514, Note_off_c, 4, 58, 127
5, 173514, Note_off_c, 4, 46, 127
5, 173519, Note_on_c, 4, 46, 110
5, 173519, Note_on_c, 4, 34, 110
5, 173754, Note_off_c, 4, 46, 127
5, 173754, Note_off_c, 4, 34, 127
5, 173760, Note_on_c, 4, 53, 110
5, 173760, Note_on_c, 4, 41, 110
5, 173994, Note_off_c, 4, 53, 127
5, 173994, Note_off_c, 4, 41, 127
5, 174000, Note_on_c, 4, 56, 110
5, 174000, Note_on_c, 4, 44, 110
5, 174235, Note_off_c, 4, 56, 127
5, 174235, Note_off_c, 4, 44, 127
5, 174240, Note_on_c, 4, 46, 110
5, 174240, Note_on_c, 4, 34, 110
5, 174475, Note_off_c, 4, 46, 127
5, 174475, Note_off_c, 4, 34, 127
5, 174479, Note_on_c, 4, 53, 110
5, 174479, Note_on_c, 4, 41, 110
5, 174715, Note_off_c, 4, 53, 127
5, 174715, Note_off_c, 4, 41, 127
5, 174719, Note_on_c, 4, 46, 110
5, 174719, Note_on_c, 4, 34, 110
5, 174954, Note_off_c, 4, 46, 127
5, 174954, Note_off_c, 4, 34, 127
5, 174959, Note_on_c, 4, 53, 110
5, 174959, Note_on_c, 4, 41, 110
5, 175194, Note_off_c, 4, 53, 127
5, 175194, Note_off_c, 4, 41, 127
5, 175199, Note_on_c, 4, 58, 110
5, 175199, Note_on_c, 4, 46, 110
5, 175434, Note_off_c, 4, 58, 127
5, 175434, Note_off_c, 4, 46, 127
5, 175440, Note_on_c, 4, 46, 110
5, 175440, Note_on_c, 4, 34, 110
5, 175674, Note_off_c, 4, 46, 127
5, 175674, Note_off_c, 4, 34, 127
5, 175680, Note_on_c, 4, 53, 110
5, 175680, Note_on_c, 4, 41, 110
5, 175915, Note_off_c, 4, 53, 127
5, 175915, Note_off_c, 4, 41, 127
5, 175920, Note_on_c, 4, 56, 110
5, 175920, Note_on_c, 4, 44, 110
5, 176155, Note_off_c, 4, 56, 127
5, 176155, Note_off_c, 4, 44, 127
5, 176159, Note_on_c, 4, 46, 110
5, 176159, Note_on_c, 4, 34, 110
5, 176395, Note_off_c, 4, 46, 127
5, 176395, Note_off_c, 4, 34, 127
5, 176399, Note_on_c, 4, 53, 110
5, 176399, Note_on_c, 4, 41, 110
5, 176635, Note_off_c, 4, 41, 127
5, 176635, Note_off_c, 4, 53, 127
5, 176639, Note_on_c, 4, 34, 110
5, 176639, Note_on_c, 4, 46, 110
5, 176874, Note_off_c, 4, 46, 127
5, 176874, Note_off_c, 4, 34, 127
5, 176879, Note_on_c, 4, 53, 110
5, 176879, Note_on_c, 4, 41, 110
5, 177114, Note_off_c, 4, 53, 127
5, 177114, Note_off_c, 4, 41, 127
5, 177119, Note_on_c, 4, 58, 110
5, 177119, Note_on_c, 4, 46, 110
5, 177354, Note_off_c, 4, 58, 127
5, 177354, Note_off_c, 4, 46, 127
5, 177360, Note_on_c, 4, 46, 110
5, 177360, Note_on_c, 4, 34, 110
5, 177594, Note_off_c, 4, 46, 127
5, 177594, Note_off_c, 4, 34, 127
5, 177600, Note_on_c, 4, 41, 110
5, 177600, Note_on_c, 4, 53, 110
5, 177835, Note_off_c, 4, 53, 127
5, 177835, Note_off_c, 4, 41, 127
5, 177840, Note_on_c, 4, 56, 110
5, 177840, Note_on_c, 4, 44, 110
5, 178075, Note_off_c, 4, 56, 127
5, 178075, Note_off_c, 4, 44, 127
5, 178079, Note_on_c, 4, 46, 110
5, 178079, Note_on_c, 4, 34, 110
5, 178315, Note_off_c, 4, 46, 127
5, 178315, Note_off_c, 4, 34, 127
5, 178319, Note_on_c, 4, 53, 110
5, 178319, Note_on_c, 4, 41, 110
5, 178554, Note_off_c, 4, 53, 127
5, 178554, Note_off_c, 4, 41, 127
5, 178559, Note_on_c, 4, 46, 110
5, 178559, Note_on_c, 4, 34, 110
5, 178794, Note_off_c, 4, 46, 127
5, 178794, Note_off_c, 4, 34, 127
5, 178799, Note_on_c, 4, 53, 110
5, 178799, Note_on_c, 4, 41, 110
5, 179034, Note_off_c, 4, 53, 127
5, 179034, Note_off_c, 4, 41, 127
5, 179040, Note_on_c, 4, 58, 110
5, 179040, Note_on_c, 4, 46, 110
5, 179274, Note_off_c, 4, 58, 127
5, 179274, Note_off_c, 4, 46, 127
5, 179280, Note_on_c, 4, 46, 110
5, 179280, Note_on_c, 4, 34, 110
5, 179514, Note_off_c, 4, 46, 127
5, 179514, Note_off_c, 4, 34, 127
5, 179520, Note_on_c, 4, 53, 110
5, 179520, Note_on_c, 4, 41, 110
5, 179755, Note_off_c, 4, 53, 127
5, 179755, Note_off_c, 4, 41, 127
5, 179760, Note_on_c, 4, 56, 110
5, 179760, Note_on_c, 4, 44, 110
5, 179995, Note_off_c, 4, 56, 127
5, 179995, Note_off_c, 4, 44, 127
5, 179999, Note_on_c, 4, 46, 110
5, 179999, Note_on_c, 4, 34, 110
5, 180235, Note_off_c, 4, 46, 127
5, 180235, Note_off_c, 4, 34, 127
5, 180239, Note_on_c, 4, 53, 110
5, 180239, Note_on_c, 4, 41, 110
5, 180474, Note_off_c, 4, 53, 127
5, 180474, Note_off_c, 4, 41, 127
5, 180479, Note_on_c, 4, 46, 110
5, 180479, Note_on_c, 4, 34, 110
5, 180714, Note_off_c, 4, 46, 127
5, 180714, Note_off_c, 4, 34, 127
5, 180719, Note_on_c, 4, 53, 110
5, 180719, Note_on_c, 4, 41, 110
5, 180954, Note_off_c, 4, 53, 127
5, 180954, Note_off_c, 4, 41, 127
5, 180960, Note_on_c, 4, 58, 110
5, 180960, Note_on_c, 4, 46, 110
5, 181194, Note_off_c, 4, 58, 127
5, 181194, Note_off_c, 4, 46, 127
5, 181200, Note_on_c, 4, 46, 110
5, 181200, Note_on_c, 4, 34, 110
5, 181435, Note_off_c, 4, 46, 127
5, 181435, Note_off_c, 4, 34, 127
5, 181440, Note_on_c, 4, 53, 110
5, 181440, Note_on_c, 4, 41, 110
5, 181675, Note_off_c, 4, 53, 127
5, 181675, Note_off_c, 4, 41, 127
5, 181679, Note_on_c, 4, 56, 110
5, 181679, Note_on_c, 4, 44, 110
5, 181915, Note_off_c, 4, 56, 127
5, 181915, Note_off_c, 4, 44, 127
5, 181919, Note_on_c, 4, 46, 110
5, 181919, Note_on_c, 4, 34, 110
5, 182155, Note_off_c, 4, 46, 127
5, 182155, Note_off_c, 4, 34, 127
5, 182159, Note_on_c, 4, 53, 110
5, 182159, Note_on_c, 4, 41, 110
5, 182394, Note_off_c, 4, 53, 127
5, 182394, Note_off_c, 4, 41, 127
5, 182399, Note_on_c, 4, 46, 110
5, 182399, Note_on_c, 4, 34, 110
5, 182634, Note_off_c, 4, 46, 127
5, 182634, Note_off_c, 4, 34, 127
5, 182639, Note_on_c, 4, 41, 110
5, 182639, Note_on_c, 4, 53, 110
5, 182874, Note_off_c, 4, 53, 127
5, 182874, Note_off_c, 4, 41, 127
5, 182880, Note_on_c, 4, 58, 110
5, 182880, Note_on_c, 4, 46, 110
5, 183114, Note_off_c, 4, 58, 127
5, 183114, Note_off_c, 4, 46, 127
5, 183120, Note_on_c, 4, 46, 110
5, 183120, Note_on_c, 4, 34, 110
5, 183355, Note_off_c, 4, 46, 127
5, 183355, Note_off_c, 4, 34, 127
5, 183360, Note_on_c, 4, 53, 110
5, 183360, Note_on_c, 4, 41, 110
5, 183595, Note_off_c, 4, 53, 127
5, 183595, Note_off_c, 4, 41, 127
5, 183599, Note_on_c, 4, 56, 110
5, 183599, Note_on_c, 4, 44, 110
5, 183835, Note_off_c, 4, 56, 127
5, 183835, Note_off_c, 4, 44, 127
5, 183839, Note_on_c, 4, 46, 110
5, 183839, Note_on_c, 4, 34, 110
5, 184074, Note_off_c, 4, 46, 127
5, 184074, Note_off_c, 4, 34, 127
5, 184079, Note_on_c, 4, 53, 110
5, 184079, Note_on_c, 4, 41, 110
5, 184314, Note_off_c, 4, 53, 127
5, 184314, Note_off_c, 4, 41, 127
5, 184319, Note_on_c, 4, 46, 110
5, 184319, Note_on_c, 4, 34, 110
5, 184554, Note_off_c, 4, 34, 127
5, 184554, Note_off_c, 4, 46, 127
5, 184560, Note_on_c, 4, 53, 110
5, 184560, Note_on_c, 4, 41, 110
5, 184794, Note_off_c, 4, 53, 127
5, 184794, Note_off_c, 4, 41, 127
5, 184800, Note_on_c, 4, 58, 110
5, 184800, Note_on_c, 4, 46, 110
5, 185034, Note_off_c, 4, 58, 127
5, 185034, Note_off_c, 4, 46, 127
5, 185040, Note_on_c, 4, 46, 110
5, 185040, Note_on_c, 4, 34, 110
5, 185275, Note_off_c, 4, 34, 127
5, 185275, Note_off_c, 4, 46, 127
5, 185280, Note_on_c, 4, 53, 110
5, 185280, Note_on_c, 4, 41, 110
5, 185515, Note_off_c, 4, 41, 127
5, 185515, Note_off_c, 4, 53, 127
5, 185519, Note_on_c, 4, 56, 110
5, 185519, Note_on_c, 4, 44, 110
5, 185755, Note_off_c, 4, 56, 127
5, 185755, Note_off_c, 4, 44, 127
5, 185759, Note_on_c, 4, 46, 110
5, 185759, Note_on_c, 4, 34, 110
5, 185994, Note_off_c, 4, 46, 127
5, 185994, Note_off_c, 4, 34, 127
5, 185999, Note_on_c, 4, 53, 110
5, 185999, Note_on_c, 4, 41, 110
5, 186234, Note_off_c, 4, 53, 127
5, 186234, Note_off_c, 4, 41, 127
5, 186239, Note_on_c, 4, 41, 110
5, 186239, Note_on_c, 4, 29, 110
5, 186474, Note_off_c, 4, 41, 127
5, 186474, Note_off_c, 4, 29, 127
5, 186480, Note_on_c, 4, 48, 110
5, 186480, Note_on_c, 4, 36, 110
5, 186714, Note_off_c, 4, 48, 127
5, 186714, Note_off_c, 4, 36, 127
5, 186720, Note_on_c, 4, 53, 110
5, 186720, Note_on_c, 4, 41, 110
5, 186955, Note_off_c, 4, 53, 127
5, 186955, Note_off_c, 4, 41, 127
5, 186960, Note_on_c, 4, 29, 110
5, 186960, Note_on_c, 4, 41, 110
5, 187195, Note_off_c, 4, 41, 127
5, 187195, Note_off_c, 4, 29, 127
5, 187199, Note_on_c, 4, 48, 110
5, 187199, Note_on_c, 4, 36, 110
5, 187435, Note_off_c, 4, 48, 127
5, 187435, Note_off_c, 4, 36, 127
5, 187439, Note_on_c, 4, 51, 110
5, 187439, Note_on_c, 4, 39, 110
5, 187674, Note_off_c, 4, 39, 127
5, 187674, Note_off_c, 4, 51, 127
5, 187679, Note_on_c, 4, 41, 110
5, 187679, Note_on_c, 4, 29, 110
5, 187914, Note_off_c, 4, 41, 127
5, 187914, Note_off_c, 4, 29, 127
5, 187919, Note_on_c, 4, 48, 110
5, 187919, Note_on_c, 4, 36, 110
5, 188154, Note_off_c, 4, 48, 127
5, 188154, Note_off_c, 4, 36, 127
5, 188159, Note_on_c, 4, 41, 110
5, 188159, Note_on_c, 4, 29, 110
5, 188394, Note_off_c, 4, 41, 127
5, 188394, Note_off_c, 4, 29, 127
5, 188400, Note_on_c, 4, 36, 110
5, 188400, Note_on_c, 4, 48, 110
5, 188634, Note_off_c, 4, 48, 127
5, 188634, Note_off_c, 4, 36, 127
5, 188640, Note_on_c, 4, 53, 110
5, 188640, Note_on_c, 4, 41, 110
5, 188875, Note_off_c, 4, 53, 127
5, 188875, Note_off_c, 4, 41, 127
5, 188880, Note_on_c, 4, 41, 110
5, 188880, Note_on_c, 4, 29, 110
5, 189115, Note_off_c, 4, 41, 127
5, 189115, Note_off_c, 4, 29, 127
5, 189119, Note_on_c, 4, 48, 110
5, 189119, Note_on_c, 4, 36, 110
5, 189355, Note_off_c, 4, 48, 127
5, 189355, Note_off_c, 4, 36, 127
5, 189359, Note_on_c, 4, 51, 110
5, 189359, Note_on_c, 4, 39, 110
5, 189594, Note_off_c, 4, 51, 127
5, 189594, Note_off_c, 4, 39, 127
5, 189599, Note_on_c, 4, 41, 110
5, 189599, Note_on_c, 4, 29, 110
5, 189834, Note_off_c, 4, 41, 127
5, 189834, Note_off_c, 4, 29, 127
5, 189839, Note_on_c, 4, 48, 110
5, 189839, Note_on_c, 4, 36, 110
5, 190074, Note_off_c, 4, 48, 127
5, 190074, Note_off_c, 4, 36, 127
5, 190080, Note_on_c, 4, 29, 110
5, 190080, Note_on_c, 4, 41, 110
5, 190314, Note_off_c, 4, 41, 127
5, 190314, Note_off_c, 4, 29, 127
5, 190320, Note_on_c, 4, 48, 110
5, 190320, Note_on_c, 4, 36, 110
5, 190554, Note_off_c, 4, 48, 127
5, 190554, Note_off_c, 4, 36, 127
5, 190560, Note_on_c, 4, 53, 110
5, 190560, Note_on_c, 4, 41, 110
5, 190795, Note_off_c, 4, 53, 127
5, 190795, Note_off_c, 4, 41, 127
5, 190799, Note_on_c, 4, 41, 110
5, 190799, Note_on_c, 4, 29, 110
5, 191035, Note_off_c, 4, 41, 127
5, 191035, Note_off_c, 4, 29, 127
5, 191039, Note_on_c, 4, 48, 110
5, 191039, Note_on_c, 4, 36, 110
5, 191275, Note_off_c, 4, 36, 127
5, 191275, Note_off_c, 4, 48, 127
5, 191279, Note_on_c, 4, 51, 110
5, 191279, Note_on_c, 4, 39, 110
5, 191514, Note_off_c, 4, 51, 127
5, 191514, Note_off_c, 4, 39, 127
5, 191519, Note_on_c, 4, 41, 110
5, 191519, Note_on_c, 4, 29, 110
5, 191754, Note_off_c, 4, 41, 127
5, 191754, Note_off_c, 4, 29, 127
5, 191759, Note_on_c, 4, 48, 110
5, 191759, Note_on_c, 4, 36, 110
5, 191994, Note_off_c, 4, 48, 127
5, 191994, Note_off_c, 4, 36, 127
5, 192000, Note_on_c, 4, 41, 110
5, 192000, Note_on_c, 4, 29, 110
5, 192234, Note_off_c, 4, 29, 127
5, 192234, Note_off_c, 4, 41, 127
5, 192240, Note_on_c, 4, 48, 110
5, 192240, Note_on_c, 4, 36, 110
5, 192475, Note_off_c, 4, 48, 127
5, 192475, Note_off_c, 4, 36, 127
5, 192480, Note_on_c, 4, 53, 110
5, 192480, Note_on_c, 4, 41, 110
5, 192715, Note_off_c, 4, 53, 127
5, 192715, Note_off_c, 4, 41, 127
5, 192719, Note_on_c, 4, 29, 110
5, 192719, Note_on_c, 4, 41, 110
5, 192955, Note_off_c, 4, 29, 127
5, 192955, Note_off_c, 4, 41, 127
5, 192959, Note_on_c, 4, 48, 110
5, 192959, Note_on_c, 4, 36, 110
5, 193194, Note_off_c, 4, 48, 127
5, 193194, Note_off_c, 4, 36, 127
5, 193199, Note_on_c, 4, 51, 110
5, 193199, Note_on_c, 4, 39, 110
5, 193434, Note_off_c, 4, 51, 127
5, 193434, Note_off_c, 4, 39, 127
5, 193439, Note_on_c, 4, 29, 110
5, 193439, Note_on_c, 4, 41, 110
5, 193674, Note_off_c, 4, 29, 127
5, 193674, Note_off_c, 4, 41, 127
5, 193679, Note_on_c, 4, 48, 110
5, 193679, Note_on_c, 4, 36, 110
5, 193914, Note_off_c, 4, 48, 127
5, 193914, Note_off_c, 4, 36, 127
5, 193920, Note_on_c, 4, 41, 110
5, 193920, Note_on_c, 4, 29, 110
5, 194154, Note_off_c, 4, 41, 127
5, 194154, Note_off_c, 4, 29, 127
5, 194160, Note_on_c, 4, 48, 110
5, 194160, Note_on_c, 4, 36, 110
5, 194395, Note_off_c, 4, 48, 127
5, 194395, Note_off_c, 4, 36, 127
5, 194400, Note_on_c, 4, 53, 110
5, 194400, Note_on_c, 4, 41, 110
5, 194635, Note_off_c, 4, 53, 127
5, 194635, Note_off_c, 4, 41, 127
5, 194639, Note_on_c, 4, 29, 110
5, 194639, Note_on_c, 4, 41, 110
5, 194875, Note_off_c, 4, 41, 127
5, 194875, Note_off_c, 4, 29, 127
5, 194879, Note_on_c, 4, 48, 110
5, 194879, Note_on_c, 4, 36, 110
5, 195114, Note_off_c, 4, 48, 127
5, 195114, Note_off_c, 4, 36, 127
5, 195119, Note_on_c, 4, 51, 110
5, 195119, Note_on_c, 4, 39, 110
5, 195354, Note_off_c, 4, 39, 127
5, 195354, Note_off_c, 4, 51, 127
5, 195359, Note_on_c, 4, 41, 110
5, 195359, Note_on_c, 4, 29, 110
5, 195594, Note_off_c, 4, 41, 127
5, 195594, Note_off_c, 4, 29, 127
5, 195600, Note_on_c, 4, 48, 110
5, 195600, Note_on_c, 4, 36, 110
5, 195834, Note_off_c, 4, 48, 127
5, 195834, Note_off_c, 4, 36, 127
5, 195840, Note_on_c, 4, 29, 110
5, 195840, Note_on_c, 4, 41, 110
5, 196074, Note_off_c, 4, 29, 127
5, 196074, Note_off_c, 4, 41, 127
5, 196080, Note_on_c, 4, 48, 110
5, 196080, Note_on_c, 4, 36, 110
5, 196315, Note_off_c, 4, 48, 127
5, 196315, Note_off_c, 4, 36, 127
5, 196319, Note_on_c, 4, 53, 110
5, 196319, Note_on_c, 4, 41, 110
5, 196555, Note_off_c, 4, 53, 127
5, 196555, Note_off_c, 4, 41, 127
5, 196559, Note_on_c, 4, 29, 110
5, 196559, Note_on_c, 4, 41, 110
5, 196795, Note_off_c, 4, 41, 127
5, 196795, Note_off_c, 4, 29, 127
5, 196799, Note_on_c, 4, 48, 110
5, 196799, Note_on_c, 4, 36, 110
5, 197034, Note_off_c, 4, 48, 127
5, 197034, Note_off_c, 4, 36, 127
5, 197039, Note_on_c, 4, 51, 110
5, 197039, Note_on_c, 4, 39, 110
5, 197274, Note_off_c, 4, 39, 127
5, 197274, Note_off_c, 4, 51, 127
5, 197279, Note_on_c, 4, 41, 110
5, 197279, Note_on_c, 4, 29, 110
5, 197514, Note_off_c, 4, 41, 127
5, 197514, Note_off_c, 4, 29, 127
5, 197520, Note_on_c, 4, 48, 110
5, 197520, Note_on_c, 4, 36, 110
5, 197754, Note_off_c, 4, 36, 127
5, 197754, Note_off_c, 4, 48, 127
5, 197760, Note_on_c, 4, 41, 110
5, 197760, Note_on_c, 4, 29, 110
5, 197995, Note_off_c, 4, 41, 127
5, 197995, Note_off_c, 4, 29, 127
5, 198000, Note_on_c, 4, 48, 110
5, 198000, Note_on_c, 4, 36, 110
5, 198235, Note_off_c, 4, 48, 127
5, 198235, Note_off_c, 4, 36, 127
5, 198239, Note_on_c, 4, 53, 110
5, 198239, Note_on_c, 4, 41, 110
5, 198475, Note_off_c, 4, 41, 127
5, 198475, Note_off_c, 4, 53, 127
5, 198479, Note_on_c, 4, 41, 110
5, 198479, Note_on_c, 4, 29, 110
5, 198714, Note_off_c, 4, 41, 127
5, 198714, Note_off_c, 4, 29, 127
5, 198719, Note_on_c, 4, 48, 110
5, 198719, Note_on_c, 4, 36, 110
5, 198954, Note_off_c, 4, 48, 127
5, 198954, Note_off_c, 4, 36, 127
5, 198959, Note_on_c, 4, 39, 110
5, 198959, Note_on_c, 4, 51, 110
5, 199194, Note_off_c, 4, 51, 127
5, 199194, Note_off_c, 4, 39, 127
5, 199199, Note_on_c, 4, 41, 110
5, 199199, Note_on_c, 4, 29, 110
5, 199434, Note_off_c, 4, 41, 127
5, 199434, Note_off_c, 4, 29, 127
5, 199440, Note_on_c, 4, 48, 110
5, 199440, Note_on_c, 4, 36, 110
5, 199674, Note_off_c, 4, 36, 127
5, 199674, Note_off_c, 4, 48, 127
5, 199680, Note_on_c, 4, 41, 110
5, 199680, Note_on_c, 4, 29, 110
5, 199915, Note_off_c, 4, 41, 127
5, 199915, Note_off_c, 4, 29, 127
5, 199920, Note_on_c, 4, 36, 110
5, 199920, Note_on_c, 4, 48, 110
5, 200155, Note_off_c, 4, 48, 127
5, 200155, Note_off_c, 4, 36, 127
5, 200159, Note_on_c, 4, 53, 110
5, 200159, Note_on_c, 4, 41, 110
5, 200395, Note_off_c, 4, 41, 127
5, 200395, Note_off_c, 4, 53, 127
5, 200399, Note_on_c, 4, 41, 110
5, 200399, Note_on_c, 4, 29, 110
5, 200634, Note_off_c, 4, 29, 127
5, 200634, Note_off_c, 4, 41, 127
5, 200639, Note_on_c, 4, 36, 110
5, 200639, Note_on_c, 4, 48, 110
5, 200874, Note_off_c, 4, 48, 127
5, 200874, Note_off_c, 4, 36, 127
5, 200879, Note_on_c, 4, 51, 110
5, 200879, Note_on_c, 4, 39, 110
5, 201114, Note_off_c, 4, 39, 127
5, 201114, Note_off_c, 4, 51, 127
5, 201120, Note_on_c, 4, 41, 110
5, 201120, Note_on_c, 4, 29, 110
5, 201354, Note_off_c, 4, 41, 127
5, 201354, Note_off_c, 4, 29, 127
5, 201360, Note_on_c, 4, 36, 110
5, 201360, Note_on_c, 4, 48, 110
5, 201595, Note_off_c, 4, 48, 127
5, 201595, Note_off_c, 4, 36, 127
5, 201600, Note_on_c, 4, 25, 110
5, 201600, Note_on_c, 4, 37, 110
5, 201835, Note_off_c, 4, 25, 127
5, 201835, Note_off_c, 4, 37, 127
5, 201839, Note_on_c, 4, 44, 110
5, 201839, Note_on_c, 4, 32, 110
5, 202075, Note_off_c, 4, 32, 127
5, 202075, Note_off_c, 4, 44, 127
5, 202079, Note_on_c, 4, 49, 110
5, 202079, Note_on_c, 4, 37, 110
5, 202315, Note_off_c, 4, 37, 127
5, 202315, Note_off_c, 4, 49, 127
5, 202319, Note_on_c, 4, 25, 110
5, 202319, Note_on_c, 4, 37, 110
5, 202554, Note_off_c, 4, 37, 127
5, 202554, Note_off_c, 4, 25, 127
5, 202559, Note_on_c, 4, 44, 110
5, 202559, Note_on_c, 4, 32, 110
5, 202794, Note_off_c, 4, 32, 127
5, 202794, Note_off_c, 4, 44, 127
5, 202799, Note_on_c, 4, 47, 110
5, 202799, Note_on_c, 4, 35, 110
5, 203034, Note_off_c, 4, 35, 127
5, 203034, Note_off_c, 4, 47, 127
5, 203040, Note_on_c, 4, 37, 110
5, 203040, Note_on_c, 4, 25, 110
5, 203274, Note_off_c, 4, 37, 127
5, 203274, Note_off_c, 4, 25, 127
5, 203280, Note_on_c, 4, 32, 110
5, 203280, Note_on_c, 4, 44, 110
5, 203515, Note_off_c, 4, 44, 127
5, 203515, Note_off_c, 4, 32, 127
5, 203520, Note_on_c, 4, 37, 110
5, 203520, Note_on_c, 4, 25, 110
5, 203755, Note_off_c, 4, 25, 127
5, 203755, Note_off_c, 4, 37, 127
5, 203759, Note_on_c, 4, 44, 110
5, 203759, Note_on_c, 4, 32, 110
5, 203995, Note_off_c, 4, 32, 127
5, 203995, Note_off_c, 4, 44, 127
5, 203999, Note_on_c, 4, 37, 110
5, 203999, Note_on_c, 4, 49, 110
5, 204234, Note_off_c, 4, 49, 127
5, 204234, Note_off_c, 4, 37, 127
5, 204239, Note_on_c, 4, 37, 110
5, 204239, Note_on_c, 4, 25, 110
5, 204474, Note_off_c, 4, 25, 127
5, 204474, Note_off_c, 4, 37, 127
5, 204479, Note_on_c, 4, 44, 110
5, 204479, Note_on_c, 4, 32, 110
5, 204714, Note_off_c, 4, 44, 127
5, 204714, Note_off_c, 4, 32, 127
5, 204720, Note_on_c, 4, 35, 110
5, 204720, Note_on_c, 4, 47, 110
5, 204954, Note_off_c, 4, 47, 127
5, 204954, Note_off_c, 4, 35, 127
5, 204960, Note_on_c, 4, 37, 110
5, 204960, Note_on_c, 4, 25, 110
5, 205194, Note_off_c, 4, 25, 127
5, 205194, Note_off_c, 4, 37, 127
5, 205200, Note_on_c, 4, 44, 110
5, 205200, Note_on_c, 4, 32, 110
5, 205435, Note_off_c, 4, 32, 127
5, 205435, Note_off_c, 4, 44, 127
5, 205440, Note_on_c, 4, 40, 110
5, 205440, Note_on_c, 4, 28, 110
5, 205675, Note_off_c, 4, 28, 127
5, 205675, Note_off_c, 4, 40, 127
5, 205679, Note_on_c, 4, 35, 110
5, 205679, Note_on_c, 4, 47, 110
5, 205915, Note_off_c, 4, 47, 127
5, 205915, Note_off_c, 4, 35, 127
5, 205919, Note_on_c, 4, 40, 110
5, 205919, Note_on_c, 4, 52, 110
5, 206154, Note_off_c, 4, 40, 127
5, 206154, Note_off_c, 4, 52, 127
5, 206159, Note_on_c, 4, 40, 110
5, 206159, Note_on_c, 4, 28, 110
5, 206394, Note_off_c, 4, 28, 127
5, 206394, Note_off_c, 4, 40, 127
5, 206399, Note_on_c, 4, 47, 110
5, 206399, Note_on_c, 4, 35, 110
5, 206634, Note_off_c, 4, 47, 127
5, 206634, Note_off_c, 4, 35, 127
5, 206640, Note_on_c, 4, 38, 110
5, 206640, Note_on_c, 4, 50, 110
5, 206874, Note_off_c, 4, 50, 127
5, 206874, Note_off_c, 4, 38, 127
5, 206880, Note_on_c, 4, 40, 110
5, 206880, Note_on_c, 4, 28, 110
5, 207115, Note_off_c, 4, 40, 127
5, 207115, Note_off_c, 4, 28, 127
5, 207120, Note_on_c, 4, 47, 110
5, 207120, Note_on_c, 4, 35, 110
5, 207355, Note_off_c, 4, 35, 127
5, 207355, Note_off_c, 4, 47, 127
5, 207359, Note_on_c, 4, 40, 110
5, 207359, Note_on_c, 4, 28, 110
5, 207595, Note_off_c, 4, 40, 127
5, 207595, Note_off_c, 4, 28, 127
5, 207599, Note_on_c, 4, 35, 110
5, 207599, Note_on_c, 4, 47, 110
5, 207835, Note_off_c, 4, 47, 127
5, 207835, Note_off_c, 4, 35, 127
5, 207839, Note_on_c, 4, 52, 110
5, 207839, Note_on_c, 4, 40, 110
5, 208074, Note_off_c, 4, 52, 127
5, 208074, Note_off_c, 4, 40, 127
5, 208079, Note_on_c, 4, 28, 110
5, 208079, Note_on_c, 4, 40, 110
5, 208314, Note_off_c, 4, 40, 127
5, 208314, Note_off_c, 4, 28, 127
5, 208319, Note_on_c, 4, 47, 110
5, 208319, Note_on_c, 4, 35, 110
5, 208554, Note_off_c, 4, 47, 127
5, 208554, Note_off_c, 4, 35, 127
5, 208560, Note_on_c, 4, 50, 110
5, 208560, Note_on_c, 4, 38, 110
5, 208794, Note_off_c, 4, 38, 127
5, 208794, Note_off_c, 4, 50, 127
5, 208800, Note_on_c, 4, 40, 110
5, 208800, Note_on_c, 4, 28, 110
5, 209035, Note_off_c, 4, 28, 127
5, 209035, Note_off_c, 4, 40, 127
5, 209040, Note_on_c, 4, 35, 110
5, 209040, Note_on_c, 4, 47, 110
5, 209275, Note_off_c, 4, 47, 127
5, 209275, Note_off_c, 4, 35, 127
5, 209279, Note_on_c, 4, 30, 110
5, 209279, Note_on_c, 4, 42, 110
5, 209515, Note_off_c, 4, 42, 127
5, 209515, Note_off_c, 4, 30, 127
5, 209519, Note_on_c, 4, 49, 110
5, 209519, Note_on_c, 4, 37, 110
5, 209754, Note_off_c, 4, 37, 127
5, 209754, Note_off_c, 4, 49, 127
5, 209759, Note_on_c, 4, 54, 110
5, 209759, Note_on_c, 4, 42, 110
5, 209994, Note_off_c, 4, 42, 127
5, 209994, Note_off_c, 4, 54, 127
5, 209999, Note_on_c, 4, 30, 110
5, 209999, Note_on_c, 4, 42, 110
5, 210234, Note_off_c, 4, 30, 127
5, 210234, Note_off_c, 4, 42, 127
5, 210240, Note_on_c, 4, 37, 110
5, 210240, Note_on_c, 4, 49, 110
5, 210474, Note_off_c, 4, 49, 127
5, 210474, Note_off_c, 4, 37, 127
5, 210480, Note_on_c, 4, 52, 110
5, 210480, Note_on_c, 4, 40, 110
5, 210714, Note_off_c, 4, 40, 127
5, 210714, Note_off_c, 4, 52, 127
5, 210720, Note_on_c, 4, 42, 110
5, 210720, Note_on_c, 4, 30, 110
5, 210955, Note_off_c, 4, 42, 127
5, 210955, Note_off_c, 4, 30, 127
5, 210960, Note_on_c, 4, 37, 110
5, 210960, Note_on_c, 4, 49, 110
5, 211195, Note_off_c, 4, 49, 127
5, 211195, Note_off_c, 4, 37, 127
5, 211199, Note_on_c, 4, 42, 110
5, 211199, Note_on_c, 4, 30, 110
5, 211435, Note_off_c, 4, 42, 127
5, 211435, Note_off_c, 4, 30, 127
5, 211439, Note_on_c, 4, 37, 110
5, 211439, Note_on_c, 4, 49, 110
5, 211674, Note_off_c, 4, 37, 127
5, 211674, Note_off_c, 4, 49, 127
5, 211679, Note_on_c, 4, 54, 110
5, 211679, Note_on_c, 4, 42, 110
5, 211914, Note_off_c, 4, 54, 127
5, 211914, Note_off_c, 4, 42, 127
5, 211919, Note_on_c, 4, 30, 110
5, 211919, Note_on_c, 4, 42, 110
5, 212154, Note_off_c, 4, 30, 127
5, 212154, Note_off_c, 4, 42, 127
5, 212160, Note_on_c, 4, 49, 110
5, 212160, Note_on_c, 4, 37, 110
5, 212394, Note_off_c, 4, 49, 127
5, 212394, Note_off_c, 4, 37, 127
5, 212400, Note_on_c, 4, 40, 110
5, 212400, Note_on_c, 4, 52, 110
5, 212635, Note_off_c, 4, 40, 127
5, 212635, Note_off_c, 4, 52, 127
5, 212640, Note_on_c, 4, 42, 110
5, 212640, Note_on_c, 4, 30, 110
5, 212875, Note_off_c, 4, 42, 127
5, 212875, Note_off_c, 4, 30, 127
5, 212879, Note_on_c, 4, 49, 110
5, 212879, Note_on_c, 4, 37, 110
5, 213115, Note_off_c, 4, 49, 127
5, 213115, Note_off_c, 4, 37, 127
5, 213119, Note_on_c, 4, 37, 110
5, 213119, Note_on_c, 4, 25, 110
5, 213354, Note_off_c, 4, 37, 127
5, 213354, Note_off_c, 4, 25, 127
5, 213359, Note_on_c, 4, 32, 110
5, 213359, Note_on_c, 4, 44, 110
5, 213594, Note_off_c, 4, 44, 127
5, 213594, Note_off_c, 4, 32, 127
5, 213599, Note_on_c, 4, 49, 110
5, 213599, Note_on_c, 4, 37, 110
5, 213834, Note_off_c, 4, 49, 127
5, 213834, Note_off_c, 4, 37, 127
5, 213839, Note_on_c, 4, 37, 110
5, 213839, Note_on_c, 4, 25, 110
5, 214074, Note_off_c, 4, 25, 127
5, 214074, Note_off_c, 4, 37, 127
5, 214080, Note_on_c, 4, 32, 110
5, 214080, Note_on_c, 4, 44, 110
5, 214314, Note_off_c, 4, 44, 127
5, 214314, Note_off_c, 4, 32, 127
5, 214320, Note_on_c, 4, 47, 110
5, 214320, Note_on_c, 4, 35, 110
5, 214555, Note_off_c, 4, 47, 127
5, 214555, Note_off_c, 4, 35, 127
5, 214560, Note_on_c, 4, 25, 110
5, 214560, Note_on_c, 4, 37, 110
5, 214795, Note_off_c, 4, 37, 127
5, 214795, Note_off_c, 4, 25, 127
5, 214799, Note_on_c, 4, 32, 110
5, 214799, Note_on_c, 4, 44, 110
5, 215035, Note_off_c, 4, 44, 127
5, 215035, Note_off_c, 4, 32, 127
5, 215039, Note_on_c, 4, 25, 110
5, 215039, Note_on_c, 4, 37, 110
5, 215274, Note_off_c, 4, 37, 127
5, 215274, Note_off_c, 4, 25, 127
5, 215279, Note_on_c, 4, 32, 110
5, 215279, Note_on_c, 4, 44, 110
5, 215514, Note_off_c, 4, 44, 127
5, 215514, Note_off_c, 4, 32, 127
5, 215519, Note_on_c, 4, 49, 110
5, 215519, Note_on_c, 4, 37, 110
5, 215754, Note_off_c, 4, 49, 127
5, 215754, Note_off_c, 4, 37, 127
5, 215760, Note_on_c, 4, 25, 110
5, 215760, Note_on_c, 4, 37, 110
5, 215994, Note_off_c, 4, 37, 127
5, 215994, Note_off_c, 4, 25, 127
5, 216000, Note_on_c, 4, 44, 110
5, 216000, Note_on_c, 4, 32, 110
5, 216234, Note_off_c, 4, 44, 127
5, 216234, Note_off_c, 4, 32, 127
5, 216240, Note_on_c, 4, 47, 110
5, 216240, Note_on_c, 4, 35, 110
5, 216475, Note_off_c, 4, 35, 127
5, 216475, Note_off_c, 4, 47, 127
5, 216480, Note_on_c, 4, 37, 110
5, 216480, Note_on_c, 4, 25, 110
5, 216715, Note_off_c, 4, 37, 127
5, 216715, Note_off_c, 4, 25, 127
5, 216719, Note_on_c, 4, 32, 110
5, 216719, Note_on_c, 4, 44, 110
5, 216955, Note_off_c, 4, 44, 127
5, 216955, Note_off_c, 4, 32, 127
5, 216959, Note_on_c, 4, 37, 110
5, 216959, Note_on_c, 4, 25, 110
5, 217194, Note_off_c, 4, 37, 127
5, 217194, Note_off_c, 4, 25, 127
5, 217199, Note_on_c, 4, 44, 110
5, 217199, Note_on_c, 4, 32, 110
5, 217434, Note_off_c, 4, 32, 127
5, 217434, Note_off_c, 4, 44, 127
5, 217439, Note_on_c, 4, 37, 110
5, 217439, Note_on_c, 4, 49, 110
5, 217674, Note_off_c, 4, 49, 127
5, 217674, Note_off_c, 4, 37, 127
5, 217680, Note_on_c, 4, 25, 110
5, 217680, Note_on_c, 4, 37, 110
5, 217914, Note_off_c, 4, 37, 127
5, 217914, Note_off_c, 4, 25, 127
5, 217920, Note_on_c, 4, 44, 110
5, 217920, Note_on_c, 4, 32, 110
5, 218155, Note_off_c, 4, 32, 127
5, 218155, Note_off_c, 4, 44, 127
5, 218160, Note_on_c, 4, 47, 110
5, 218160, Note_on_c, 4, 35, 110
5, 218395, Note_off_c, 4, 47, 127
5, 218395, Note_off_c, 4, 35, 127
5, 218399, Note_on_c, 4, 25, 110
5, 218399, Note_on_c, 4, 37, 110
5, 218635, Note_off_c, 4, 37, 127
5, 218635, Note_off_c, 4, 25, 127
5, 218639, Note_on_c, 4, 44, 110
5, 218639, Note_on_c, 4, 32, 110
5, 218874, Note_off_c, 4, 32, 127
5, 218874, Note_off_c, 4, 44, 127
5, 218879, Note_on_c, 4, 37, 110
5, 218879, Note_on_c, 4, 25, 110
5, 219114, Note_off_c, 4, 25, 127
5, 219114, Note_off_c, 4, 37, 127
5, 219119, Note_on_c, 4, 44, 110
5, 219119, Note_on_c, 4, 32, 110
5, 219354, Note_off_c, 4, 32, 127
5, 219354, Note_off_c, 4, 44, 127
5, 219359, Note_on_c, 4, 37, 110
5, 219359, Note_on_c, 4, 49, 110
5, 219594, Note_off_c, 4, 49, 127
5, 219594, Note_off_c, 4, 37, 127
5, 219600, Note_on_c, 4, 37, 110
5, 219600, Note_on_c, 4, 25, 110
5, 219834, Note_off_c, 4, 37, 127
5, 219834, Note_off_c, 4, 25, 127
5, 219840, Note_on_c, 4, 44, 110
5, 219840, Note_on_c, 4, 32, 110
5, 220075, Note_off_c, 4, 32, 127
5, 220075, Note_off_c, 4, 44, 127
5, 220080, Note_on_c, 4, 47, 110
5, 220080, Note_on_c, 4, 35, 110
5, 220315, Note_off_c, 4, 47, 127
5, 220315, Note_off_c, 4, 35, 127
5, 220319, Note_on_c, 4, 37, 110
5, 220319, Note_on_c, 4, 25, 110
5, 220555, Note_off_c, 4, 37, 127
5, 220555, Note_off_c, 4, 25, 127
5, 220559, Note_on_c, 4, 32, 110
5, 220559, Note_on_c, 4, 44, 110
5, 220794, Note_off_c, 4, 44, 127
5, 220794, Note_off_c, 4, 32, 127
5, 220799, Note_on_c, 4, 40, 110
5, 220799, Note_on_c, 4, 28, 110
5, 221034, Note_off_c, 4, 40, 127
5, 221034, Note_off_c, 4, 28, 127
5, 221039, Note_on_c, 4, 35, 110
5, 221039, Note_on_c, 4, 47, 110
5, 221274, Note_off_c, 4, 35, 127
5, 221274, Note_off_c, 4, 47, 127
5, 221280, Note_on_c, 4, 52, 110
5, 221280, Note_on_c, 4, 40, 110
5, 221514, Note_off_c, 4, 40, 127
5, 221514, Note_off_c, 4, 52, 127
5, 221520, Note_on_c, 4, 40, 110
5, 221520, Note_on_c, 4, 28, 110
5, 221754, Note_off_c, 4, 40, 127
5, 221754, Note_off_c, 4, 28, 127
5, 221760, Note_on_c, 4, 47, 110
5, 221760, Note_on_c, 4, 35, 110
5, 221995, Note_off_c, 4, 47, 127
5, 221995, Note_off_c, 4, 35, 127
5, 221999, Note_on_c, 4, 50, 110
5, 221999, Note_on_c, 4, 38, 110
5, 222235, Note_off_c, 4, 50, 127
5, 222235, Note_off_c, 4, 38, 127
5, 222239, Note_on_c, 4, 40, 110
5, 222239, Note_on_c, 4, 28, 110
5, 222475, Note_off_c, 4, 28, 127
5, 222475, Note_off_c, 4, 40, 127
5, 222479, Note_on_c, 4, 35, 110
5, 222479, Note_on_c, 4, 47, 110
5, 222714, Note_off_c, 4, 47, 127
5, 222714, Note_off_c, 4, 35, 127
5, 222719, Note_on_c, 4, 40, 110
5, 222719, Note_on_c, 4, 28, 110
5, 222954, Note_off_c, 4, 40, 127
5, 222954, Note_off_c, 4, 28, 127
5, 222959, Note_on_c, 4, 35, 110
5, 222959, Note_on_c, 4, 47, 110
5, 223194, Note_off_c, 4, 35, 127
5, 223194, Note_off_c, 4, 47, 127
5, 223200, Note_on_c, 4, 40, 110
5, 223200, Note_on_c, 4, 52, 110
5, 223434, Note_off_c, 4, 52, 127
5, 223434, Note_off_c, 4, 40, 127
5, 223440, Note_on_c, 4, 28, 110
5, 223440, Note_on_c, 4, 40, 110
5, 223675, Note_off_c, 4, 40, 127
5, 223675, Note_off_c, 4, 28, 127
5, 223680, Note_on_c, 4, 47, 110
5, 223680, Note_on_c, 4, 35, 110
5, 223915, Note_off_c, 4, 47, 127
5, 223915, Note_off_c, 4, 35, 127
5, 223919, Note_on_c, 4, 50, 110
5, 223919, Note_on_c, 4, 38, 110
5, 224155, Note_off_c, 4, 38, 127
5, 224155, Note_off_c, 4, 50, 127
5, 224159, Note_on_c, 4, 40, 110
5, 224159, Note_on_c, 4, 28, 110
5, 224394, Note_off_c, 4, 28, 127
5, 224394, Note_off_c, 4, 40, 127
5, 224399, Note_on_c, 4, 35, 110
5, 224399, Note_on_c, 4, 47, 110
5, 224634, Note_off_c, 4, 35, 127
5, 224634, Note_off_c, 4, 47, 127
5, 224639, Note_on_c, 4, 30, 110
5, 224639, Note_on_c, 4, 42, 110
5, 224874, Note_off_c, 4, 42, 127
5, 224874, Note_off_c, 4, 30, 127
5, 224879, Note_on_c, 4, 49, 110
5, 224879, Note_on_c, 4, 37, 110
5, 225114, Note_off_c, 4, 49, 127
5, 225114, Note_off_c, 4, 37, 127
5, 225120, Note_on_c, 4, 42, 110
5, 225120, Note_on_c, 4, 54, 110
5, 225354, Note_off_c, 4, 54, 127
5, 225354, Note_off_c, 4, 42, 127
5, 225360, Note_on_c, 4, 30, 110
5, 225360, Note_on_c, 4, 42, 110
5, 225595, Note_off_c, 4, 42, 127
5, 225595, Note_off_c, 4, 30, 127
5, 225600, Note_on_c, 4, 37, 110
5, 225600, Note_on_c, 4, 49, 110
5, 225835, Note_off_c, 4, 37, 127
5, 225835, Note_off_c, 4, 49, 127
5, 225839, Note_on_c, 4, 52, 110
5, 225839, Note_on_c, 4, 40, 110
5, 226075, Note_off_c, 4, 40, 127
5, 226075, Note_off_c, 4, 52, 127
5, 226079, Note_on_c, 4, 42, 110
5, 226079, Note_on_c, 4, 30, 110
5, 226314, Note_off_c, 4, 42, 127
5, 226314, Note_off_c, 4, 30, 127
5, 226319, Note_on_c, 4, 49, 110
5, 226319, Note_on_c, 4, 37, 110
5, 226554, Note_off_c, 4, 37, 127
5, 226554, Note_off_c, 4, 49, 127
5, 226559, Note_on_c, 4, 30, 110
5, 226559, Note_on_c, 4, 42, 110
5, 226794, Note_off_c, 4, 42, 127
5, 226794, Note_off_c, 4, 30, 127
5, 226800, Note_on_c, 4, 49, 110
5, 226800, Note_on_c, 4, 37, 110
5, 227034, Note_off_c, 4, 37, 127
5, 227034, Note_off_c, 4, 49, 127
5, 227040, Note_on_c, 4, 54, 110
5, 227040, Note_on_c, 4, 42, 110
5, 227275, Note_off_c, 4, 54, 127
5, 227275, Note_off_c, 4, 42, 127
5, 227280, Note_on_c, 4, 42, 110
5, 227280, Note_on_c, 4, 30, 110
5, 227515, Note_off_c, 4, 42, 127
5, 227515, Note_off_c, 4, 30, 127
5, 227519, Note_on_c, 4, 49, 110
5, 227519, Note_on_c, 4, 37, 110
5, 227755, Note_off_c, 4, 49, 127
5, 227755, Note_off_c, 4, 37, 127
5, 227759, Note_on_c, 4, 52, 110
5, 227759, Note_on_c, 4, 40, 110
5, 227995, Note_off_c, 4, 40, 127
5, 227995, Note_off_c, 4, 52, 127
5, 227999, Note_on_c, 4, 42, 110
5, 227999, Note_on_c, 4, 30, 110
5, 228234, Note_off_c, 4, 42, 127
5, 228234, Note_off_c, 4, 30, 127
5, 228239, Note_on_c, 4, 49, 110
5, 228239, Note_on_c, 4, 37, 110
5, 228474, Note_off_c, 4, 37, 127
5, 228474, Note_off_c, 4, 49, 127
5, 228479, Note_on_c, 4, 25, 110
5, 228479, Note_on_c, 4, 37, 110
5, 228714, Note_off_c, 4, 37, 127
5, 228714, Note_off_c, 4, 25, 127
5, 228720, Note_on_c, 4, 32, 110
5, 228720, Note_on_c, 4, 44, 110
5, 228954, Note_off_c, 4, 32, 127
5, 228954, Note_off_c, 4, 44, 127
5, 228960, Note_on_c, 4, 37, 110
5, 228960, Note_on_c, 4, 49, 110
5, 229195, Note_off_c, 4, 37, 127
5, 229195, Note_off_c, 4, 49, 127
5, 229200, Note_on_c, 4, 37, 110
5, 229200, Note_on_c, 4, 25, 110
5, 229435, Note_off_c, 4, 25, 127
5, 229435, Note_off_c, 4, 37, 127
5, 229439, Note_on_c, 4, 32, 110
5, 229439, Note_on_c, 4, 44, 110
5, 229675, Note_off_c, 4, 44, 127
5, 229675, Note_off_c, 4, 32, 127
5, 229679, Note_on_c, 4, 35, 110
5, 229679, Note_on_c, 4, 47, 110
5, 229914, Note_off_c, 4, 47, 127
5, 229914, Note_off_c, 4, 35, 127
5, 229919, Note_on_c, 4, 37, 110
5, 229919, Note_on_c, 4, 25, 110
5, 230154, Note_off_c, 4, 37, 127
5, 230154, Note_off_c, 4, 25, 127
5, 230159, Note_on_c, 4, 32, 110
5, 230159, Note_on_c, 4, 44, 110
5, 230394, Note_off_c, 4, 44, 127
5, 230394, Note_off_c, 4, 32, 127
5, 230400, Note_on_c, 4, 25, 110
5, 230400, Note_on_c, 4, 37, 110
5, 230634, Note_off_c, 4, 37, 127
5, 230634, Note_off_c, 4, 25, 127
5, 230640, Note_on_c, 4, 32, 110
5, 230640, Note_on_c, 4, 44, 110
5, 230874, Note_off_c, 4, 44, 127
5, 230874, Note_off_c, 4, 32, 127
5, 230880, Note_on_c, 4, 37, 110
5, 230880, Note_on_c, 4, 49, 110
5, 231115, Note_off_c, 4, 37, 127
5, 231115, Note_off_c, 4, 49, 127
5, 231120, Note_on_c, 4, 37, 110
5, 231120, Note_on_c, 4, 25, 110
5, 231355, Note_off_c, 4, 37, 127
5, 231355, Note_off_c, 4, 25, 127
5, 231359, Note_on_c, 4, 44, 110
5, 231359, Note_on_c, 4, 32, 110
5, 231595, Note_off_c, 4, 32, 127
5, 231595, Note_off_c, 4, 44, 127
5, 231599, Note_on_c, 4, 35, 110
5, 231599, Note_on_c, 4, 47, 110
5, 231834, Note_off_c, 4, 47, 127
5, 231834, Note_off_c, 4, 35, 127
5, 231839, Note_on_c, 4, 37, 110
5, 231839, Note_on_c, 4, 25, 110
5, 232074, Note_off_c, 4, 25, 127
5, 232074, Note_off_c, 4, 37, 127
5, 232079, Note_on_c, 4, 32, 110
5, 232079, Note_on_c, 4, 44, 110
5, 232314, Note_off_c, 4, 32, 127
5, 232314, Note_off_c, 4, 44, 127
5, 232320, Note_on_c, 4, 37, 110
5, 232320, Note_on_c, 4, 25, 110
5, 232554, Note_off_c, 4, 37, 127
5, 232554, Note_off_c, 4, 25, 127
5, 232560, Note_on_c, 4, 32, 110
5, 232560, Note_on_c, 4, 44, 110
5, 232795, Note_off_c, 4, 44, 127
5, 232795, Note_off_c, 4, 32, 127
5, 232800, Note_on_c, 4, 37, 110
5, 232800, Note_on_c, 4, 49, 110
5, 233035, Note_off_c, 4, 37, 127
5, 233035, Note_off_c, 4, 49, 127
5, 233039, Note_on_c, 4, 37, 110
5, 233039, Note_on_c, 4, 25, 110
5, 233275, Note_off_c, 4, 25, 127
5, 233275, Note_off_c, 4, 37, 127
5, 233279, Note_on_c, 4, 32, 110
5, 233279, Note_on_c, 4, 44, 110
5, 233515, Note_off_c, 4, 32, 127
5, 233515, Note_off_c, 4, 44, 127
5, 233519, Note_on_c, 4, 35, 110
5, 233519, Note_on_c, 4, 47, 110
5, 233754, Note_off_c, 4, 47, 127
5, 233754, Note_off_c, 4, 35, 127
5, 233759, Note_on_c, 4, 37, 110
5, 233759, Note_on_c, 4, 25, 110
5, 233994, Note_off_c, 4, 25, 127
5, 233994, Note_off_c, 4, 37, 127
5, 233999, Note_on_c, 4, 44, 110
5, 233999, Note_on_c, 4, 32, 110
5, 234234, Note_off_c, 4, 32, 127
5, 234234, Note_off_c, 4, 44, 127
5, 234240, Note_on_c, 4, 25, 110
5, 234240, Note_on_c, 4, 37, 110
5, 234474, Note_off_c, 4, 37, 127
5, 234474, Note_off_c, 4, 25, 127
5, 234480, Note_on_c, 4, 44, 110
5, 234480, Note_on_c, 4, 32, 110
5, 234715, Note_off_c, 4, 44, 127
5, 234715, Note_off_c, 4, 32, 127
5, 234720, Note_on_c, 4, 37, 110
5, 234720, Note_on_c, 4, 49, 110
5, 234955, Note_off_c, 4, 49, 127
5, 234955, Note_off_c, 4, 37, 127
5, 234959, Note_on_c, 4, 37, 110
5, 234959, Note_on_c, 4, 25, 110
5, 235195, Note_off_c, 4, 25, 127
5, 235195, Note_off_c, 4, 37, 127
5, 235199, Note_on_c, 4, 32, 110
5, 235199, Note_on_c, 4, 44, 110
5, 235434, Note_off_c, 4, 44, 127
5, 235434, Note_off_c, 4, 32, 127
5, 235439, Note_on_c, 4, 47, 110
5, 235439, Note_on_c, 4, 35, 110
5, 235674, Note_off_c, 4, 35, 127
5, 235674, Note_off_c, 4, 47, 127
5, 235679, Note_on_c, 4, 37, 110
5, 235679, Note_on_c, 4, 25, 110
5, 235914, Note_off_c, 4, 37, 127
5, 235914, Note_off_c, 4, 25, 127
5, 235920, Note_on_c, 4, 44, 110
5, 235920, Note_on_c, 4, 32, 110
5, 236154, Note_off_c, 4, 32, 127
5, 236154, Note_off_c, 4, 44, 127
5, 236160, Note_on_c, 4, 40, 110
5, 236160, Note_on_c, 4, 28, 110
5, 236394, Note_off_c, 4, 28, 127
5, 236394, Note_off_c, 4, 40, 127
5, 236400, Note_on_c, 4, 47, 110
5, 236400, Note_on_c, 4, 35, 110
5, 236635, Note_off_c, 4, 47, 127
5, 236635, Note_off_c, 4, 35, 127
5, 236640, Note_on_c, 4, 52, 110
5, 236640, Note_on_c, 4, 40, 110
5, 236875, Note_off_c, 4, 40, 127
5, 236875, Note_off_c, 4, 52, 127
5, 236879, Note_on_c, 4, 40, 110
5, 236879, Note_on_c, 4, 28, 110
5, 237115, Note_off_c, 4, 28, 127
5, 237115, Note_off_c, 4, 40, 127
5, 237119, Note_on_c, 4, 35, 110
5, 237119, Note_on_c, 4, 47, 110
5, 237354, Note_off_c, 4, 35, 127
5, 237354, Note_off_c, 4, 47, 127
5, 237359, Note_on_c, 4, 38, 110
5, 237359, Note_on_c, 4, 50, 110
5, 237594, Note_off_c, 4, 38, 127
5, 237594, Note_off_c, 4, 50, 127
5, 237599, Note_on_c, 4, 40, 110
5, 237599, Note_on_c, 4, 28, 110
5, 237834, Note_off_c, 4, 28, 127
5, 237834, Note_off_c, 4, 40, 127
5, 237840, Note_on_c, 4, 35, 110
5, 237840, Note_on_c, 4, 47, 110
5, 238074, Note_off_c, 4, 47, 127
5, 238074, Note_off_c, 4, 35, 127
5, 238080, Note_on_c, 4, 40, 110
5, 238080, Note_on_c, 4, 28, 110
5, 238315, Note_off_c, 4, 28, 127
5, 238315, Note_off_c, 4, 40, 127
5, 238320, Note_on_c, 4, 47, 110
5, 238320, Note_on_c, 4, 35, 110
5, 238555, Note_off_c, 4, 35, 127
5, 238555, Note_off_c, 4, 47, 127
5, 238559, Note_on_c, 4, 40, 110
5, 238559, Note_on_c, 4, 52, 110
5, 238795, Note_off_c, 4, 40, 127
5, 238795, Note_off_c, 4, 52, 127
5, 238799, Note_on_c, 4, 28, 110
5, 238799, Note_on_c, 4, 40, 110
5, 239034, Note_off_c, 4, 40, 127
5, 239034, Note_off_c, 4, 28, 127
5, 239039, Note_on_c, 4, 47, 110
5, 239039, Note_on_c, 4, 35, 110
5, 239274, Note_off_c, 4, 47, 127
5, 239274, Note_off_c, 4, 35, 127
5, 239279, Note_on_c, 4, 38, 110
5, 239279, Note_on_c, 4, 50, 110
5, 239514, Note_off_c, 4, 38, 127
5, 239514, Note_off_c, 4, 50, 127
5, 239519, Note_on_c, 4, 40, 110
5, 239519, Note_on_c, 4, 28, 110
5, 239754, Note_off_c, 4, 28, 127
5, 239754, Note_off_c, 4, 40, 127
5, 239760, Note_on_c, 4, 47, 110
5, 239760, Note_on_c, 4, 35, 110
5, 239994, Note_off_c, 4, 35, 127
5, 239994, Note_off_c, 4, 47, 127
5, 240000, Note_on_c, 4, 30, 110
5, 240000, Note_on_c, 4, 42, 110
5, 240235, Note_off_c, 4, 30, 127
5, 240235, Note_off_c, 4, 42, 127
5, 240240, Note_on_c, 4, 37, 110
5, 240240, Note_on_c, 4, 49, 110
5, 240475, Note_off_c, 4, 49, 127
5, 240475, Note_off_c, 4, 37, 127
5, 240479, Note_on_c, 4, 42, 110
5, 240479, Note_on_c, 4, 54, 110
5, 240715, Note_off_c, 4, 42, 127
5, 240715, Note_off_c, 4, 54, 127
5, 240719, Note_on_c, 4, 30, 110
5, 240719, Note_on_c, 4, 42, 110
5, 240954, Note_off_c, 4, 42, 127
5, 240954, Note_off_c, 4, 30, 127
5, 240959, Note_on_c, 4, 49, 110
5, 240959, Note_on_c, 4, 37, 110
5, 241194, Note_off_c, 4, 49, 127
5, 241194, Note_off_c, 4, 37, 127
5, 241199, Note_on_c, 4, 52, 110
5, 241199, Note_on_c, 4, 40, 110
5, 241434, Note_off_c, 4, 40, 127
5, 241434, Note_off_c, 4, 52, 127
5, 241440, Note_on_c, 4, 30, 110
5, 241440, Note_on_c, 4, 42, 110
5, 241674, Note_off_c, 4, 42, 127
5, 241674, Note_off_c, 4, 30, 127
5, 241680, Note_on_c, 4, 49, 110
5, 241680, Note_on_c, 4, 37, 110
5, 241914, Note_off_c, 4, 37, 127
5, 241914, Note_off_c, 4, 49, 127
5, 241920, Note_on_c, 4, 30, 110
5, 241920, Note_on_c, 4, 42, 110
5, 242155, Note_off_c, 4, 42, 127
5, 242155, Note_off_c, 4, 30, 127
5, 242160, Note_on_c, 4, 37, 110
5, 242160, Note_on_c, 4, 49, 110
5, 242395, Note_off_c, 4, 37, 127
5, 242395, Note_off_c, 4, 49, 127
5, 242399, Note_on_c, 4, 54, 110
5, 242399, Note_on_c, 4, 42, 110
5, 242635, Note_off_c, 4, 54, 127
5, 242635, Note_off_c, 4, 42, 127
5, 242639, Note_on_c, 4, 42, 110
5, 242639, Note_on_c, 4, 30, 110
5, 242874, Note_off_c, 4, 42, 127
5, 242874, Note_off_c, 4, 30, 127
5, 242879, Note_on_c, 4, 37, 110
5, 242879, Note_on_c, 4, 49, 110
5, 243114, Note_off_c, 4, 37, 127
5, 243114, Note_off_c, 4, 49, 127
5, 243119, Note_on_c, 4, 40, 110
5, 243119, Note_on_c, 4, 52, 110
5, 243354, Note_off_c, 4, 52, 127
5, 243354, Note_off_c, 4, 40, 127
5, 243360, Note_on_c, 4, 30, 110
5, 243360, Note_on_c, 4, 42, 110
5, 243594, Note_off_c, 4, 30, 127
5, 243594, Note_off_c, 4, 42, 127
5, 243600, Note_on_c, 4, 37, 110
5, 243600, Note_on_c, 4, 49, 110
5, 243835, Note_off_c, 4, 37, 127
5, 243835, Note_off_c, 4, 49, 127
5, 243840, Note_on_c, 4, 25, 110
5, 243840, Note_on_c, 4, 37, 110
5, 244075, Note_off_c, 4, 25, 127
5, 244075, Note_off_c, 4, 37, 127
5, 244079, Note_on_c, 4, 32, 110
5, 244079, Note_on_c, 4, 44, 110
5, 244315, Note_off_c, 4, 44, 127
5, 244315, Note_off_c, 4, 32, 127
5, 244319, Note_on_c, 4, 49, 110
5, 244319, Note_on_c, 4, 37, 110
5, 244554, Note_off_c, 4, 49, 127
5, 244554, Note_off_c, 4, 37, 127
5, 244559, Note_on_c, 4, 25, 110
5, 244559, Note_on_c, 4, 37, 110
5, 244794, Note_off_c, 4, 37, 127
5, 244794, Note_off_c, 4, 25, 127
5, 244799, Note_on_c, 4, 44, 110
5, 244799, Note_on_c, 4, 32, 110
5, 245034, Note_off_c, 4, 32, 127
5, 245034, Note_off_c, 4, 44, 127
5, 245039, Note_on_c, 4, 35, 110
5, 245039, Note_on_c, 4, 47, 110
5, 245274, Note_off_c, 4, 35, 127
5, 245274, Note_off_c, 4, 47, 127
5, 245280, Note_on_c, 4, 25, 110
5, 245280, Note_on_c, 4, 37, 110
5, 245514, Note_off_c, 4, 37, 127
5, 245514, Note_off_c, 4, 25, 127
5, 245520, Note_on_c, 4, 44, 110
5, 245520, Note_on_c, 4, 32, 110
5, 245755, Note_off_c, 4, 32, 127
5, 245755, Note_off_c, 4, 44, 127
5, 245760, Note_on_c, 4, 37, 110
5, 245760, Note_on_c, 4, 25, 110
5, 245995, Note_off_c, 4, 37, 127
5, 245995, Note_off_c, 4, 25, 127
5, 245999, Note_on_c, 4, 44, 110
5, 245999, Note_on_c, 4, 32, 110
5, 246235, Note_off_c, 4, 32, 127
5, 246235, Note_off_c, 4, 44, 127
5, 246239, Note_on_c, 4, 37, 110
5, 246239, Note_on_c, 4, 49, 110
5, 246474, Note_off_c, 4, 49, 127
5, 246474, Note_off_c, 4, 37, 127
5, 246479, Note_on_c, 4, 37, 110
5, 246479, Note_on_c, 4, 25, 110
5, 246714, Note_off_c, 4, 25, 127
5, 246714, Note_off_c, 4, 37, 127
5, 246719, Note_on_c, 4, 44, 110
5, 246719, Note_on_c, 4, 32, 110
5, 246954, Note_off_c, 4, 44, 127
5, 246954, Note_off_c, 4, 32, 127
5, 246960, Note_on_c, 4, 47, 110
5, 246960, Note_on_c, 4, 35, 110
5, 247194, Note_off_c, 4, 47, 127
5, 247194, Note_off_c, 4, 35, 127
5, 247200, Note_on_c, 4, 25, 110
5, 247200, Note_on_c, 4, 37, 110
5, 247434, Note_off_c, 4, 37, 127
5, 247434, Note_off_c, 4, 25, 127
5, 247440, Note_on_c, 4, 32, 110
5, 247440, Note_on_c, 4, 44, 110
5, 247675, Note_off_c, 4, 44, 127
5, 247675, Note_off_c, 4, 32, 127
5, 278400, Note_on_c, 4, 37, 110
5, 278400, Note_on_c, 4, 25, 110
5, 278635, Note_off_c, 4, 25, 127
5, 278635, Note_off_c, 4, 37, 127
5, 278640, Note_on_c, 4, 32, 110
5, 278640, Note_on_c, 4, 44, 110
5, 278875, Note_off_c, 4, 44, 127
5, 278875, Note_off_c, 4, 32, 127
5, 278879, Note_on_c, 4, 49, 110
5, 278879, Note_on_c, 4, 37, 110
5, 279115, Note_off_c, 4, 37, 127
5, 279115, Note_off_c, 4, 49, 127
5, 279119, Note_on_c, 4, 25, 110
5, 279119, Note_on_c, 4, 37, 110
5, 279355, Note_off_c, 4, 37, 127
5, 279355, Note_off_c, 4, 25, 127
5, 279359, Note_on_c, 4, 32, 110
5, 279359, Note_on_c, 4, 44, 110
5, 279594, Note_off_c, 4, 44, 127
5, 279594, Note_off_c, 4, 32, 127
5, 279599, Note_on_c, 4, 47, 110
5, 279599, Note_on_c, 4, 35, 110
5, 279834, Note_off_c, 4, 35, 127
5, 279834, Note_off_c, 4, 47, 127
5, 279839, Note_on_c, 4, 37, 110
5, 279839, Note_on_c, 4, 25, 110
5, 280074, Note_off_c, 4, 37, 127
5, 280074, Note_off_c, 4, 25, 127
5, 280080, Note_on_c, 4, 44, 110
5, 280080, Note_on_c, 4, 32, 110
5, 280314, Note_off_c, 4, 44, 127
5, 280314, Note_off_c, 4, 32, 127
5, 280320, Note_on_c, 4, 25, 110
5, 280320, Note_on_c, 4, 37, 110
5, 280555, Note_off_c, 4, 37, 127
5, 280555, Note_off_c, 4, 25, 127
5, 280560, Note_on_c, 4, 44, 110
5, 280560, Note_on_c, 4, 32, 110
5, 280795, Note_off_c, 4, 32, 127
5, 280795, Note_off_c, 4, 44, 127
5, 280799, Note_on_c, 4, 49, 110
5, 280799, Note_on_c, 4, 37, 110
5, 281035, Note_off_c, 4, 37, 127
5, 281035, Note_off_c, 4, 49, 127
5, 281039, Note_on_c, 4, 25, 110
5, 281039, Note_on_c, 4, 37, 110
5, 281274, Note_off_c, 4, 37, 127
5, 281274, Note_off_c, 4, 25, 127
5, 281279, Note_on_c, 4, 44, 110
5, 281279, Note_on_c, 4, 32, 110
5, 281514, Note_off_c, 4, 44, 127
5, 281514, Note_off_c, 4, 32, 127
5, 281519, Note_on_c, 4, 35, 110
5, 281519, Note_on_c, 4, 47, 110
5, 281754, Note_off_c, 4, 35, 127
5, 281754, Note_off_c, 4, 47, 127
5, 281759, Note_on_c, 4, 37, 110
5, 281759, Note_on_c, 4, 25, 110
5, 281994, Note_off_c, 4, 25, 127
5, 281994, Note_off_c, 4, 37, 127
5, 282000, Note_on_c, 4, 44, 110
5, 282000, Note_on_c, 4, 32, 110
5, 282234, Note_off_c, 4, 32, 127
5, 282234, Note_off_c, 4, 44, 127
5, 282240, Note_on_c, 4, 28, 110
5, 282240, Note_on_c, 4, 40, 110
5, 282475, Note_off_c, 4, 40, 127
5, 282475, Note_off_c, 4, 28, 127
5, 282480, Note_on_c, 4, 47, 110
5, 282480, Note_on_c, 4, 35, 110
5, 282715, Note_off_c, 4, 35, 127
5, 282715, Note_off_c, 4, 47, 127
5, 282719, Note_on_c, 4, 40, 110
5, 282719, Note_on_c, 4, 52, 110
5, 282955, Note_off_c, 4, 40, 127
5, 282955, Note_off_c, 4, 52, 127
5, 282959, Note_on_c, 4, 40, 110
5, 282959, Note_on_c, 4, 28, 110
5, 283194, Note_off_c, 4, 40, 127
5, 283194, Note_off_c, 4, 28, 127
5, 283199, Note_on_c, 4, 47, 110
5, 283199, Note_on_c, 4, 35, 110
5, 283434, Note_off_c, 4, 47, 127
5, 283434, Note_off_c, 4, 35, 127
5, 283439, Note_on_c, 4, 50, 110
5, 283439, Note_on_c, 4, 38, 110
5, 283674, Note_off_c, 4, 50, 127
5, 283674, Note_off_c, 4, 38, 127
5, 283680, Note_on_c, 4, 40, 110
5, 283680, Note_on_c, 4, 28, 110
5, 283914, Note_off_c, 4, 28, 127
5, 283914, Note_off_c, 4, 40, 127
5, 283920, Note_on_c, 4, 47, 110
5, 283920, Note_on_c, 4, 35, 110
5, 284155, Note_off_c, 4, 35, 127
5, 284155, Note_off_c, 4, 47, 127
5, 284160, Note_on_c, 4, 28, 110
5, 284160, Note_on_c, 4, 40, 110
5, 284395, Note_off_c, 4, 28, 127
5, 284395, Note_off_c, 4, 40, 127
5, 284399, Note_on_c, 4, 47, 110
5, 284399, Note_on_c, 4, 35, 110
5, 284635, Note_off_c, 4, 35, 127
5, 284635, Note_off_c, 4, 47, 127
5, 284639, Note_on_c, 4, 52, 110
5, 284639, Note_on_c, 4, 40, 110
5, 284875, Note_off_c, 4, 52, 127
5, 284875, Note_off_c, 4, 40, 127
5, 284879, Note_on_c, 4, 40, 110
5, 284879, Note_on_c, 4, 28, 110
5, 285114, Note_off_c, 4, 40, 127
5, 285114, Note_off_c, 4, 28, 127
5, 285119, Note_on_c, 4, 47, 110
5, 285119, Note_on_c, 4, 35, 110
5, 285354, Note_off_c, 4, 35, 127
5, 285354, Note_off_c, 4, 47, 127
5, 285359, Note_on_c, 4, 38, 110
5, 285359, Note_on_c, 4, 50, 110
5, 285594, Note_off_c, 4, 38, 127
5, 285594, Note_off_c, 4, 50, 127
5, 285600, Note_on_c, 4, 28, 110
5, 285600, Note_on_c, 4, 40, 110
5, 285834, Note_off_c, 4, 28, 127
5, 285834, Note_off_c, 4, 40, 127
5, 285840, Note_on_c, 4, 47, 110
5, 285840, Note_on_c, 4, 35, 110
5, 286075, Note_off_c, 4, 47, 127
5, 286075, Note_off_c, 4, 35, 127
5, 286080, Note_on_c, 4, 30, 110
5, 286080, Note_on_c, 4, 42, 110
5, 286315, Note_off_c, 4, 30, 127
5, 286315, Note_off_c, 4, 42, 127
5, 286319, Note_on_c, 4, 49, 110
5, 286319, Note_on_c, 4, 37, 110
5, 286555, Note_off_c, 4, 37, 127
5, 286555, Note_off_c, 4, 49, 127
5, 286559, Note_on_c, 4, 54, 110
5, 286559, Note_on_c, 4, 42, 110
5, 286794, Note_off_c, 4, 54, 127
5, 286794, Note_off_c, 4, 42, 127
5, 286799, Note_on_c, 4, 42, 110
5, 286799, Note_on_c, 4, 30, 110
5, 287034, Note_off_c, 4, 30, 127
5, 287034, Note_off_c, 4, 42, 127
5, 287039, Note_on_c, 4, 49, 110
5, 287039, Note_on_c, 4, 37, 110
5, 287274, Note_off_c, 4, 37, 127
5, 287274, Note_off_c, 4, 49, 127
5, 287280, Note_on_c, 4, 40, 110
5, 287280, Note_on_c, 4, 52, 110
5, 287514, Note_off_c, 4, 52, 127
5, 287514, Note_off_c, 4, 40, 127
5, 287520, Note_on_c, 4, 42, 110
5, 287520, Note_on_c, 4, 30, 110
5, 287754, Note_off_c, 4, 30, 127
5, 287754, Note_off_c, 4, 42, 127
5, 287760, Note_on_c, 4, 37, 110
5, 287760, Note_on_c, 4, 49, 110
5, 287995, Note_off_c, 4, 37, 127
5, 287995, Note_off_c, 4, 49, 127
5, 288000, Note_on_c, 4, 30, 110
5, 288000, Note_on_c, 4, 42, 110
5, 288235, Note_off_c, 4, 30, 127
5, 288235, Note_off_c, 4, 42, 127
5, 288239, Note_on_c, 4, 49, 110
5, 288239, Note_on_c, 4, 37, 110
5, 288475, Note_off_c, 4, 37, 127
5, 288475, Note_off_c, 4, 49, 127
5, 288479, Note_on_c, 4, 42, 110
5, 288479, Note_on_c, 4, 54, 110
5, 288714, Note_off_c, 4, 54, 127
5, 288714, Note_off_c, 4, 42, 127
5, 288719, Note_on_c, 4, 30, 110
5, 288719, Note_on_c, 4, 42, 110
5, 288954, Note_off_c, 4, 42, 127
5, 288954, Note_off_c, 4, 30, 127
5, 288959, Note_on_c, 4, 37, 110
5, 288959, Note_on_c, 4, 49, 110
5, 289194, Note_off_c, 4, 49, 127
5, 289194, Note_off_c, 4, 37, 127
5, 289200, Note_on_c, 4, 52, 110
5, 289200, Note_on_c, 4, 40, 110
5, 289434, Note_off_c, 4, 52, 127
5, 289434, Note_off_c, 4, 40, 127
5, 289440, Note_on_c, 4, 30, 110
5, 289440, Note_on_c, 4, 42, 110
5, 289675, Note_off_c, 4, 30, 127
5, 289675, Note_off_c, 4, 42, 127
5, 289680, Note_on_c, 4, 49, 110
5, 289680, Note_on_c, 4, 37, 110
5, 289915, Note_off_c, 4, 37, 127
5, 289915, Note_off_c, 4, 49, 127
5, 289919, Note_on_c, 4, 25, 110
5, 289919, Note_on_c, 4, 37, 110
5, 290155, Note_off_c, 4, 37, 127
5, 290155, Note_off_c, 4, 25, 127
5, 290159, Note_on_c, 4, 44, 110
5, 290159, Note_on_c, 4, 32, 110
5, 290395, Note_off_c, 4, 32, 127
5, 290395, Note_off_c, 4, 44, 127
5, 290399, Note_on_c, 4, 49, 110
5, 290399, Note_on_c, 4, 37, 110
5, 290634, Note_off_c, 4, 37, 127
5, 290634, Note_off_c, 4, 49, 127
5, 290639, Note_on_c, 4, 25, 110
5, 290639, Note_on_c, 4, 37, 110
5, 290874, Note_off_c, 4, 25, 127
5, 290874, Note_off_c, 4, 37, 127
5, 290879, Note_on_c, 4, 44, 110
5, 290879, Note_on_c, 4, 32, 110
5, 291114, Note_off_c, 4, 32, 127
5, 291114, Note_off_c, 4, 44, 127
5, 291120, Note_on_c, 4, 47, 110
5, 291120, Note_on_c, 4, 35, 110
5, 291354, Note_off_c, 4, 35, 127
5, 291354, Note_off_c, 4, 47, 127
5, 291360, Note_on_c, 4, 25, 110
5, 291360, Note_on_c, 4, 37, 110
5, 291595, Note_off_c, 4, 25, 127
5, 291595, Note_off_c, 4, 37, 127
5, 291600, Note_on_c, 4, 32, 110
5, 291600, Note_on_c, 4, 44, 110
5, 291835, Note_off_c, 4, 44, 127
5, 291835, Note_off_c, 4, 32, 127
5, 291839, Note_on_c, 4, 37, 110
5, 291839, Note_on_c, 4, 25, 110
5, 292075, Note_off_c, 4, 25, 127
5, 292075, Note_off_c, 4, 37, 127
5, 292079, Note_on_c, 4, 32, 110
5, 292079, Note_on_c, 4, 44, 110
5, 292314, Note_off_c, 4, 44, 127
5, 292314, Note_off_c, 4, 32, 127
5, 292319, Note_on_c, 4, 49, 110
5, 292319, Note_on_c, 4, 37, 110
5, 292554, Note_off_c, 4, 49, 127
5, 292554, Note_off_c, 4, 37, 127
5, 292559, Note_on_c, 4, 37, 110
5, 292559, Note_on_c, 4, 25, 110
5, 292794, Note_off_c, 4, 25, 127
5, 292794, Note_off_c, 4, 37, 127
5, 292800, Note_on_c, 4, 32, 110
5, 292800, Note_on_c, 4, 44, 110
5, 293034, Note_off_c, 4, 32, 127
5, 293034, Note_off_c, 4, 44, 127
5, 293040, Note_on_c, 4, 47, 110
5, 293040, Note_on_c, 4, 35, 110
5, 293274, Note_off_c, 4, 47, 127
5, 293274, Note_off_c, 4, 35, 127
5, 293280, Note_on_c, 4, 25, 110
5, 293280, Note_on_c, 4, 37, 110
5, 293515, Note_off_c, 4, 37, 127
5, 293515, Note_off_c, 4, 25, 127
5, 293520, Note_on_c, 4, 44, 110
5, 293520, Note_on_c, 4, 32, 110
5, 293755, Note_off_c, 4, 32, 127
5, 293755, Note_off_c, 4, 44, 127
5, 295679, End_track
6, 0, Start_track
6, 0, Title_t, "Track6"
6, 17279, Note_on_c, 5, 82, 110
6, 17279, Control_c, 5, 91, 0
6, 17279, Control_c, 5, 7, 127
6, 17279, Control_c, 5, 93, 0
6, 17279, Control_c, 5, 10, 64
6, 17279, Control_c, 5, 121, 0
6, 17279, Program_c, 5, 70
6, 17279, Control_c, 5, 32, 0
6, 17279, Control_c, 5, 0, 0
6, 19079, Note_off_c, 5, 82, 127
6, 19199, Note_on_c, 5, 89, 110
6, 20999, Note_off_c, 5, 89, 127
6, 21119, Note_on_c, 5, 88, 110
6, 22919, Note_off_c, 5, 88, 127
6, 23039, Note_on_c, 5, 87, 110
6, 24839, Note_off_c, 5, 87, 127
6, 24960, Note_on_c, 5, 82, 110
6, 25194, Note_off_c, 5, 82, 127
6, 25200, Note_on_c, 5, 89, 110
6, 25434, Note_off_c, 5, 89, 127
6, 25440, Note_on_c, 5, 87, 110
6, 25675, Note_off_c, 5, 87, 127
6, 25680, Note_on_c, 5, 82, 110
6, 25915, Note_off_c, 5, 82, 127
6, 25919, Note_on_c, 5, 89, 110
6, 26155, Note_off_c, 5, 89, 127
6, 26159, Note_on_c, 5, 87, 110
6, 26394, Note_off_c, 5, 87, 127
6, 26399, Note_on_c, 5, 82, 110
6, 26634, Note_off_c, 5, 82, 127
6, 26639, Note_on_c, 5, 89, 110
6, 26874, Note_off_c, 5, 89, 127
6, 26880, Note_on_c, 5, 87, 110
6, 27114, Note_off_c, 5, 87, 127
6, 27120, Note_on_c, 5, 82, 110
6, 27355, Note_off_c, 5, 82, 127
6, 27360, Note_on_c, 5, 89, 110
6, 27595, Note_off_c, 5, 89, 127
6, 27599, Note_on_c, 5, 87, 110
6, 27835, Note_off_c, 5, 87, 127
6, 27839, Note_on_c, 5, 90, 110
6, 28074, Note_off_c, 5, 90, 127
6, 28079, Note_on_c, 5, 91, 110
6, 28314, Note_off_c, 5, 91, 127
6, 28319, Note_on_c, 5, 92, 110
6, 28554, Note_off_c, 5, 92, 127
6, 28559, Note_on_c, 5, 93, 110
6, 28794, Note_off_c, 5, 93, 127
6, 28800, Note_on_c, 5, 94, 110
6, 29199, Note_off_c, 5, 94, 127
6, 32640, Note_on_c, 5, 70, 110
6, 34440, Note_off_c, 5, 70, 127
6, 34560, Note_on_c, 5, 77, 110
6, 36360, Note_off_c, 5, 77, 127
6, 36480, Note_on_c, 5, 76, 110
6, 38280, Note_off_c, 5, 76, 127
6, 38400, Note_on_c, 5, 75, 110
6, 40200, Note_off_c, 5, 75, 127
6, 40320, Note_on_c, 5, 73, 110
6, 42120, Note_off_c, 5, 73, 127
6, 42239, Note_on_c, 5, 80, 110
6, 44039, Note_off_c, 5, 80, 127
6, 44159, Note_on_c, 5, 79, 110
6, 45959, Note_off_c, 5, 79, 127
6, 46079, Note_on_c, 5, 78, 110
6, 47879, Note_off_c, 5, 78, 127
6, 47999, Note_on_c, 5, 77, 110
6, 49799, Note_off_c, 5, 77, 127
6, 49919, Note_on_c, 5, 84, 110
6, 51719, Note_off_c, 5, 84, 127
6, 51839, Note_on_c, 5, 83, 110
6, 53639, Note_off_c, 5, 83, 127
6, 53759, Note_on_c, 5, 82, 110
6, 55559, Note_off_c, 5, 82, 127
6, 55679, Note_on_c, 5, 80, 110
6, 57479, Note_off_c, 5, 80, 127
6, 57599, Note_on_c, 5, 87, 110
6, 59399, Note_off_c, 5, 87, 127
6, 59519, Note_on_c, 5, 86, 110
6, 61319, Note_off_c, 5, 86, 127
6, 61439, Note_on_c, 5, 85, 110
6, 63239, Note_off_c, 5, 85, 127
6, 63359, Note_on_c, 5, 61, 110
6, 63594, Note_off_c, 5, 61, 127
6, 63600, Note_on_c, 5, 68, 110
6, 63834, Note_off_c, 5, 68, 127
6, 63840, Note_on_c, 5, 73, 110
6, 64075, Note_off_c, 5, 73, 127
6, 64080, Note_on_c, 5, 61, 110
6, 64315, Note_off_c, 5, 61, 127
6, 64319, Note_on_c, 5, 68, 110
6, 64555, Note_off_c, 5, 68, 127
6, 64559, Note_on_c, 5, 71, 110
6, 64794, Note_off_c, 5, 71, 127
6, 64799, Note_on_c, 5, 61, 110
6, 65034, Note_off_c, 5, 61, 127
6, 65039, Note_on_c, 5, 66, 110
6, 65274, Note_off_c, 5, 66, 127
6, 65279, Note_on_c, 5, 68, 110
6, 65514, Note_off_c, 5, 68, 127
6, 65520, Note_on_c, 5, 61, 110
6, 65754, Note_off_c, 5, 61, 127
6, 65760, Note_on_c, 5, 64, 110
6, 65995, Note_off_c, 5, 64, 127
6, 66000, Note_on_c, 5, 66, 110
6, 66235, Note_off_c, 5, 66, 127
6, 66239, Note_on_c, 5, 61, 110
6, 66475, Note_off_c, 5, 61, 127
6, 66479, Note_on_c, 5, 63, 110
6, 66714, Note_off_c, 5, 63, 127
6, 66719, Note_on_c, 5, 64, 110
6, 66954, Note_off_c, 5, 64, 127
6, 66959, Note_on_c, 5, 66, 110
6, 67194, Note_off_c, 5, 66, 127
6, 67200, Note_on_c, 5, 64, 110
6, 67434, Note_off_c, 5, 64, 127
6, 67440, Note_on_c, 5, 71, 110
6, 67675, Note_off_c, 5, 71, 127
6, 67680, Note_on_c, 5, 76, 110
6, 67915, Note_off_c, 5, 76, 127
6, 67919, Note_on_c, 5, 64, 110
6, 68155, Note_off_c, 5, 64, 127
6, 68159, Note_on_c, 5, 71, 110
6, 68395, Note_off_c, 5, 71, 127
6, 68399, Note_on_c, 5, 74, 110
6, 68634, Note_off_c, 5, 74, 127
6, 68639, Note_on_c, 5, 64, 110
6, 68874, Note_off_c, 5, 64, 127
6, 68879, Note_on_c, 5, 69, 110
6, 69114, Note_off_c, 5, 69, 127
6, 69120, Note_on_c, 5, 71, 110
6, 69354, Note_off_c, 5, 71, 127
6, 69360, Note_on_c, 5, 64, 110
6, 69595, Note_off_c, 5, 64, 127
6, 69600, Note_on_c, 5, 67, 110
6, 69835, Note_off_c, 5, 67, 127
6, 69839, Note_on_c, 5, 69, 110
6, 70075, Note_off_c, 5, 69, 127
6, 70079, Note_on_c, 5, 64, 110
6, 70314, Note_off_c, 5, 64, 127
6, 70319, Note_on_c, 5, 66, 110
6, 70554, Note_off_c, 5, 66, 127
6, 70559, Note_on_c, 5, 67, 110
6, 70794, Note_off_c, 5, 67, 127
6, 70800, Note_on_c, 5, 69, 110
6, 71034, Note_off_c, 5, 69, 127
6, 71040, Note_on_c, 5, 66, 110
6, 71274, Note_off_c, 5, 66, 127
6, 71280, Note_on_c, 5, 73, 110
6, 71515, Note_off_c, 5, 73, 127
6, 71520, Note_on_c, 5, 78, 110
6, 71755, Note_off_c, 5, 78, 127
6, 71759, Note_on_c, 5, 66, 110
6, 71995, Note_off_c, 5, 66, 127
6, 71999, Note_on_c, 5, 73, 110
6, 72234, Note_off_c, 5, 73, 127
6, 72239, Note_on_c, 5, 76, 110
6, 72474, Note_off_c, 5, 76, 127
6, 72479, Note_on_c, 5, 66, 110
6, 72714, Note_off_c, 5, 66, 127
6, 72720, Note_on_c, 5, 71, 110
6, 72954, Note_off_c, 5, 71, 127
6, 72960, Note_on_c, 5, 73, 110
6, 73195, Note_off_c, 5, 73, 127
6, 73200, Note_on_c, 5, 66, 110
6, 73435, Note_off_c, 5, 66, 127
6, 73439, Note_on_c, 5, 69, 110
6, 73675, Note_off_c, 5, 69, 127
6, 73679, Note_on_c, 5, 71, 110
6, 73915, Note_off_c, 5, 71, 127
6, 73919, Note_on_c, 5, 66, 110
6, 74154, Note_off_c, 5, 66, 127
6, 74159, Note_on_c, 5, 68, 110
6, 74394, Note_off_c, 5, 68, 127
6, 74399, Note_on_c, 5, 69, 110
6, 74634, Note_off_c, 5, 69, 127
6, 74640, Note_on_c, 5, 71, 110
6, 74874, Note_off_c, 5, 71, 127
6, 74880, Note_on_c, 5, 61, 110
6, 75115, Note_off_c, 5, 61, 127
6, 75120, Note_on_c, 5, 68, 110
6, 75355, Note_off_c, 5, 68, 127
6, 75359, Note_on_c, 5, 73, 110
6, 75595, Note_off_c, 5, 73, 127
6, 75599, Note_on_c, 5, 61, 110
6, 75834, Note_off_c, 5, 61, 127
6, 75839, Note_on_c, 5, 68, 110
6, 76074, Note_off_c, 5, 68, 127
6, 76079, Note_on_c, 5, 71, 110
6, 76314, Note_off_c, 5, 71, 127
6, 76320, Note_on_c, 5, 61, 110
6, 76554, Note_off_c, 5, 61, 127
6, 76560, Note_on_c, 5, 66, 110
6, 76794, Note_off_c, 5, 66, 127
6, 76800, Note_on_c, 5, 68, 110
6, 77035, Note_off_c, 5, 68, 127
6, 77040, Note_on_c, 5, 61, 110
6, 77275, Note_off_c, 5, 61, 127
6, 77279, Note_on_c, 5, 64, 110
6, 77515, Note_off_c, 5, 64, 127
6, 77519, Note_on_c, 5, 66, 110
6, 77754, Note_off_c, 5, 66, 127
6, 77759, Note_on_c, 5, 61, 110
6, 77994, Note_off_c, 5, 61, 127
6, 77999, Note_on_c, 5, 63, 110
6, 78234, Note_off_c, 5, 63, 127
6, 78240, Note_on_c, 5, 64, 110
6, 78474, Note_off_c, 5, 64, 127
6, 78480, Note_on_c, 5, 66, 110
6, 78715, Note_off_c, 5, 66, 127
6, 78720, Note_on_c, 5, 61, 110
6, 78955, Note_off_c, 5, 61, 127
6, 78959, Note_on_c, 5, 68, 110
6, 79195, Note_off_c, 5, 68, 127
6, 79199, Note_on_c, 5, 73, 110
6, 79434, Note_off_c, 5, 73, 127
6, 79439, Note_on_c, 5, 61, 110
6, 79674, Note_off_c, 5, 61, 127
6, 79679, Note_on_c, 5, 68, 110
6, 79914, Note_off_c, 5, 68, 127
6, 79919, Note_on_c, 5, 71, 110
6, 80154, Note_off_c, 5, 71, 127
6, 80160, Note_on_c, 5, 61, 110
6, 80394, Note_off_c, 5, 61, 127
6, 80400, Note_on_c, 5, 66, 110
6, 80635, Note_off_c, 5, 66, 127
6, 80640, Note_on_c, 5, 68, 110
6, 80875, Note_off_c, 5, 68, 127
6, 80879, Note_on_c, 5, 61, 110
6, 81115, Note_off_c, 5, 61, 127
6, 81119, Note_on_c, 5, 64, 110
6, 81354, Note_off_c, 5, 64, 127
6, 81359, Note_on_c, 5, 66, 110
6, 81594, Note_off_c, 5, 66, 127
6, 81599, Note_on_c, 5, 61, 110
6, 81834, Note_off_c, 5, 61, 127
6, 81840, Note_on_c, 5, 63, 110
6, 82074, Note_off_c, 5, 63, 127
6, 82080, Note_on_c, 5, 64, 110
6, 82314, Note_off_c, 5, 64, 127
6, 82320, Note_on_c, 5, 66, 110
6, 82555, Note_off_c, 5, 66, 127
6, 82559, Note_on_c, 5, 64, 110
6, 82795, Note_off_c, 5, 64, 127
6, 82799, Note_on_c, 5, 71, 110
6, 83035, Note_off_c, 5, 71, 127
6, 83039, Note_on_c, 5, 76, 110
6, 83274, Note_off_c, 5, 76, 127
6, 83279, Note_on_c, 5, 64, 110
6, 83514, Note_off_c, 5, 64, 127
6, 83519, Note_on_c, 5, 71, 110
6, 83754, Note_off_c, 5, 71, 127
6, 83760, Note_on_c, 5, 74, 110
6, 83994, Note_off_c, 5, 74, 127
6, 84000, Note_on_c, 5, 64, 110
6, 84235, Note_off_c, 5, 64, 127
6, 84240, Note_on_c, 5, 69, 110
6, 84475, Note_off_c, 5, 69, 127
6, 84479, Note_on_c, 5, 71, 110
6, 84715, Note_off_c, 5, 71, 127
6, 84719, Note_on_c, 5, 64, 110
6, 84954, Note_off_c, 5, 64, 127
6, 84959, Note_on_c, 5, 67, 110
6, 85194, Note_off_c, 5, 67, 127
6, 85199, Note_on_c, 5, 69, 110
6, 85434, Note_off_c, 5, 69, 127
6, 85439, Note_on_c, 5, 64, 110
6, 85674, Note_off_c, 5, 64, 127
6, 85680, Note_on_c, 5, 66, 110
6, 85914, Note_off_c, 5, 66, 127
6, 85920, Note_on_c, 5, 67, 110
6, 86155, Note_off_c, 5, 67, 127
6, 86160, Note_on_c, 5, 69, 110
6, 86395, Note_off_c, 5, 69, 127
6, 86399, Note_on_c, 5, 66, 110
6, 86635, Note_off_c, 5, 66, 127
6, 86639, Note_on_c, 5, 73, 110
6, 86874, Note_off_c, 5, 73, 127
6, 86879, Note_on_c, 5, 78, 110
6, 87114, Note_off_c, 5, 78, 127
6, 87119, Note_on_c, 5, 66, 110
6, 87354, Note_off_c, 5, 66, 127
6, 87360, Note_on_c, 5, 73, 110
6, 87594, Note_off_c, 5, 73, 127
6, 87600, Note_on_c, 5, 76, 110
6, 87834, Note_off_c, 5, 76, 127
6, 87840, Note_on_c, 5, 66, 110
6, 88075, Note_off_c, 5, 66, 127
6, 88079, Note_on_c, 5, 71, 110
6, 88315, Note_off_c, 5, 71, 127
6, 88319, Note_on_c, 5, 73, 110
6, 88555, Note_off_c, 5, 73, 127
6, 88559, Note_on_c, 5, 66, 110
6, 88794, Note_off_c, 5, 66, 127
6, 88799, Note_on_c, 5, 69, 110
6, 89034, Note_off_c, 5, 69, 127
6, 89039, Note_on_c, 5, 71, 110
6, 89274, Note_off_c, 5, 71, 127
6, 89280, Note_on_c, 5, 66, 110
6, 89514, Note_off_c, 5, 66, 127
6, 89520, Note_on_c, 5, 68, 110
6, 89755, Note_off_c, 5, 68, 127
6, 89760, Note_on_c, 5, 69, 110
6, 89995, Note_off_c, 5, 69, 127
6, 89999, Note_on_c, 5, 71, 110
6, 90235, Note_off_c, 5, 71, 127
6, 90239, Note_on_c, 5, 61, 110
6, 90474, Note_off_c, 5, 61, 127
6, 90479, Note_on_c, 5, 68, 110
6, 90714, Note_off_c, 5, 68, 127
6, 90719, Note_on_c, 5, 73, 110
6, 90954, Note_off_c, 5, 73, 127
6, 90959, Note_on_c, 5, 61, 110
6, 91194, Note_off_c, 5, 61, 127
6, 91200, Note_on_c, 5, 68, 110
6, 91434, Note_off_c, 5, 68, 127
6, 91440, Note_on_c, 5, 71, 110
6, 91675, Note_off_c, 5, 71, 127
6, 91680, Note_on_c, 5, 61, 110
6, 91915, Note_off_c, 5, 61, 127
6, 91919, Note_on_c, 5, 66, 110
6, 92155, Note_off_c, 5, 66, 127
6, 92159, Note_on_c, 5, 68, 110
6, 92394, Note_off_c, 5, 68, 127
6, 92399, Note_on_c, 5, 61, 110
6, 92634, Note_off_c, 5, 61, 127
6, 92639, Note_on_c, 5, 64, 110
6, 92874, Note_off_c, 5, 64, 127
6, 92880, Note_on_c, 5, 66, 110
6, 93114, Note_off_c, 5, 66, 127
6, 93120, Note_on_c, 5, 61, 110
6, 93355, Note_off_c, 5, 61, 127
6, 93360, Note_on_c, 5, 63, 110
6, 93595, Note_off_c, 5, 63, 127
6, 93599, Note_on_c, 5, 64, 110
6, 93835, Note_off_c, 5, 64, 127
6, 93839, Note_on_c, 5, 66, 110
6, 94075, Note_off_c, 5, 66, 127
6, 94079, Note_on_c, 5, 61, 110
6, 94314, Note_off_c, 5, 61, 127
6, 94319, Note_on_c, 5, 68, 110
6, 94554, Note_off_c, 5, 68, 127
6, 94559, Note_on_c, 5, 73, 110
6, 94794, Note_off_c, 5, 73, 127
6, 94800, Note_on_c, 5, 61, 110
6, 95034, Note_off_c, 5, 61, 127
6, 95040, Note_on_c, 5, 68, 110
6, 95275, Note_off_c, 5, 68, 127
6, 95280, Note_on_c, 5, 71, 110
6, 95515, Note_off_c, 5, 71, 127
6, 95519, Note_on_c, 5, 61, 110
6, 95755, Note_off_c, 5, 61, 127
6, 95759, Note_on_c, 5, 66, 110
6, 95994, Note_off_c, 5, 66, 127
6, 95999, Note_on_c, 5, 68, 110
6, 96234, Note_off_c, 5, 68, 127
6, 96239, Note_on_c, 5, 61, 110
6, 96474, Note_off_c, 5, 61, 127
6, 96480, Note_on_c, 5, 64, 110
6, 96714, Note_off_c, 5, 64, 127
6, 96720, Note_on_c, 5, 66, 110
6, 96954, Note_off_c, 5, 66, 127
6, 96960, Note_on_c, 5, 61, 110
6, 97195, Note_off_c, 5, 61, 127
6, 97200, Note_on_c, 5, 63, 110
6, 97435, Note_off_c, 5, 63, 127
6, 97439, Note_on_c, 5, 64, 110
6, 97675, Note_off_c, 5, 64, 127
6, 97679, Note_on_c, 5, 66, 110
6, 97914, Note_off_c, 5, 66, 127
6, 97919, Note_on_c, 5, 64, 110
6, 98154, Note_off_c, 5, 64, 127
6, 98159, Note_on_c, 5, 71, 110
6, 98394, Note_off_c, 5, 71, 127
6, 98400, Note_on_c, 5, 76, 110
6, 98634, Note_off_c, 5, 76, 127
6, 98640, Note_on_c, 5, 64, 110
6, 98875, Note_off_c, 5, 64, 127
6, 98880, Note_on_c, 5, 71, 110
6, 99115, Note_off_c, 5, 71, 127
6, 99119, Note_on_c, 5, 74, 110
6, 99355, Note_off_c, 5, 74, 127
6, 99359, Note_on_c, 5, 64, 110
6, 99595, Note_off_c, 5, 64, 127
6, 99599, Note_on_c, 5, 69, 110
6, 99834, Note_off_c, 5, 69, 127
6, 99839, Note_on_c, 5, 71, 110
6, 100074, Note_off_c, 5, 71, 127
6, 100079, Note_on_c, 5, 64, 110
6, 100314, Note_off_c, 5, 64, 127
6, 100320, Note_on_c, 5, 67, 110
6, 100554, Note_off_c, 5, 67, 127
6, 100560, Note_on_c, 5, 69, 110
6, 100795, Note_off_c, 5, 69, 127
6, 100800, Note_on_c, 5, 64, 110
6, 101035, Note_off_c, 5, 64, 127
6, 101039, Note_on_c, 5, 66, 110
6, 101275, Note_off_c, 5, 66, 127
6, 101279, Note_on_c, 5, 67, 110
6, 101514, Note_off_c, 5, 67, 127
6, 101519, Note_on_c, 5, 69, 110
6, 101754, Note_off_c, 5, 69, 127
6, 101759, Note_on_c, 5, 66, 110
6, 101994, Note_off_c, 5, 66, 127
6, 102000, Note_on_c, 5, 73, 110
6, 102234, Note_off_c, 5, 73, 127
6, 102240, Note_on_c, 5, 78, 110
6, 102474, Note_off_c, 5, 78, 127
6, 102480, Note_on_c, 5, 66, 110
6, 102715, Note_off_c, 5, 66, 127
6, 102720, Note_on_c, 5, 73, 110
6, 102955, Note_off_c, 5, 73, 127
6, 102959, Note_on_c, 5, 76, 110
6, 103195, Note_off_c, 5, 76, 127
6, 103199, Note_on_c, 5, 66, 110
6, 103434, Note_off_c, 5, 66, 127
6, 103439, Note_on_c, 5, 71, 110
6, 103674, Note_off_c, 5, 71, 127
6, 103679, Note_on_c, 5, 73, 110
6, 103914, Note_off_c, 5, 73, 127
6, 103920, Note_on_c, 5, 66, 110
6, 104154, Note_off_c, 5, 66, 127
6, 104160, Note_on_c, 5, 69, 110
6, 104395, Note_off_c, 5, 69, 127
6, 104400, Note_on_c, 5, 71, 110
6, 104635, Note_off_c, 5, 71, 127
6, 104639, Note_on_c, 5, 66, 110
6, 104875, Note_off_c, 5, 66, 127
6, 104879, Note_on_c, 5, 68, 110
6, 105114, Note_off_c, 5, 68, 127
6, 105119, Note_on_c, 5, 69, 110
6, 105354, Note_off_c, 5, 69, 127
6, 105359, Note_on_c, 5, 71, 110
6, 105594, Note_off_c, 5, 71, 127
6, 105599, Note_on_c, 5, 61, 110
6, 105834, Note_off_c, 5, 61, 127
6, 105840, Note_on_c, 5, 68, 110
6, 106074, Note_off_c, 5, 68, 127
6, 106080, Note_on_c, 5, 73, 110
6, 106315, Note_off_c, 5, 73, 127
6, 106320, Note_on_c, 5, 61, 110
6, 106555, Note_off_c, 5, 61, 127
6, 106559, Note_on_c, 5, 68, 110
6, 106795, Note_off_c, 5, 68, 127
6, 106799, Note_on_c, 5, 71, 110
6, 107034, Note_off_c, 5, 71, 127
6, 107039, Note_on_c, 5, 61, 110
6, 107274, Note_off_c, 5, 61, 127
6, 107279, Note_on_c, 5, 66, 110
6, 107514, Note_off_c, 5, 66, 127
6, 107520, Note_on_c, 5, 68, 110
6, 107754, Note_off_c, 5, 68, 127
6, 107760, Note_on_c, 5, 61, 110
6, 107994, Note_off_c, 5, 61, 127
6, 108000, Note_on_c, 5, 64, 110
6, 108235, Note_off_c, 5, 64, 127
6, 108240, Note_on_c, 5, 66, 110
6, 108475, Note_off_c, 5, 66, 127
6, 108479, Note_on_c, 5, 61, 110
6, 108715, Note_off_c, 5, 61, 127
6, 108719, Note_on_c, 5, 63, 110
6, 108954, Note_off_c, 5, 63, 127
6, 108959, Note_on_c, 5, 64, 110
6, 109194, Note_off_c, 5, 64, 127
6, 109199, Note_on_c, 5, 66, 110
6, 109434, Note_off_c, 5, 66, 127
6, 109440, Note_on_c, 5, 56, 110
6, 110279, Note_off_c, 5, 56, 127
6, 110399, Note_on_c, 5, 55, 110
6, 111240, Note_off_c, 5, 55, 127
6, 111360, Note_on_c, 5, 58, 110
6, 112199, Note_off_c, 5, 58, 127
6, 112319, Note_on_c, 5, 56, 110
6, 113160, Note_off_c, 5, 56, 127
6, 113280, Note_on_c, 5, 61, 110
6, 114119, Note_off_c, 5, 61, 127
6, 114239, Note_on_c, 5, 60, 110
6, 115080, Note_off_c, 5, 60, 127
6, 115200, Note_on_c, 5, 64, 110
6, 116039, Note_off_c, 5, 64, 127
6, 116159, Note_on_c, 5, 63, 110
6, 117000, Note_off_c, 5, 63, 127
6, 117120, Note_on_c, 5, 68, 110
6, 117959, Note_off_c, 5, 68, 127
6, 118079, Note_on_c, 5, 67, 110
6, 118920, Note_off_c, 5, 67, 127
6, 119040, Note_on_c, 5, 70, 110
6, 119879, Note_off_c, 5, 70, 127
6, 119999, Note_on_c, 5, 68, 110
6, 120840, Note_off_c, 5, 68, 127
6, 120960, Note_on_c, 5, 73, 110
6, 121799, Note_off_c, 5, 73, 127
6, 121919, Note_on_c, 5, 72, 110
6, 122760, Note_off_c, 5, 72, 127
6, 122880, Note_on_c, 5, 76, 110
6, 123719, Note_off_c, 5, 76, 127
6, 123839, Note_on_c, 5, 75, 110
6, 124680, Note_off_c, 5, 75, 127
6, 124799, Note_on_c, 5, 80, 110
6, 125639, Note_off_c, 5, 80, 127
6, 125759, Note_on_c, 5, 79, 110
6, 126599, Note_off_c, 5, 79, 127
6, 126719, Note_on_c, 5, 82, 110
6, 127559, Note_off_c, 5, 82, 127
6, 127680, Note_on_c, 5, 80, 110
6, 128519, Note_off_c, 5, 80, 127
6, 128639, Note_on_c, 5, 85, 110
6, 129479, Note_off_c, 5, 85, 127
6, 129600, Note_on_c, 5, 84, 110
6, 130439, Note_off_c, 5, 84, 127
6, 130559, Note_on_c, 5, 88, 110
6, 131400, Note_off_c, 5, 88, 127
6, 131520, Note_on_c, 5, 87, 110
6, 132359, Note_off_c, 5, 87, 127
6, 132479, Note_on_c, 5, 92, 110
6, 133320, Note_off_c, 5, 92, 127
6, 133440, Note_on_c, 5, 91, 110
6, 134279, Note_off_c, 5, 91, 127
6, 134399, Note_on_c, 5, 94, 110
6, 135240, Note_off_c, 5, 94, 127
6, 135360, Note_on_c, 5, 92, 110
6, 136199, Note_off_c, 5, 92, 127
6, 136319, Note_on_c, 5, 97, 110
6, 137160, Note_off_c, 5, 97, 127
6, 137280, Note_on_c, 5, 96, 110
6, 138119, Note_off_c, 5, 96, 127
6, 138239, Note_on_c, 5, 100, 110
6, 139080, Note_off_c, 5, 100, 127
6, 139200, Note_on_c, 5, 99, 110
6, 140039, Note_off_c, 5, 99, 127
6, 140159, Note_on_c, 5, 61, 110
6, 140394, Note_off_c, 5, 61, 127
6, 140399, Note_on_c, 5, 68, 110
6, 140634, Note_off_c, 5, 68, 127
6, 140640, Note_on_c, 5, 73, 110
6, 140874, Note_off_c, 5, 73, 127
6, 140880, Note_on_c, 5, 61, 110
6, 141115, Note_off_c, 5, 61, 127
6, 141120, Note_on_c, 5, 68, 110
6, 141355, Note_off_c, 5, 68, 127
6, 141359, Note_on_c, 5, 71, 110
6, 141595, Note_off_c, 5, 71, 127
6, 141599, Note_on_c, 5, 61, 110
6, 141834, Note_off_c, 5, 61, 127
6, 141839, Note_on_c, 5, 66, 110
6, 142074, Note_off_c, 5, 66, 127
6, 142079, Note_on_c, 5, 68, 110
6, 142314, Note_off_c, 5, 68, 127
6, 142319, Note_on_c, 5, 61, 110
6, 142554, Note_off_c, 5, 61, 127
6, 142560, Note_on_c, 5, 64, 110
6, 142794, Note_off_c, 5, 64, 127
6, 142800, Note_on_c, 5, 66, 110
6, 143035, Note_off_c, 5, 66, 127
6, 143040, Note_on_c, 5, 61, 110
6, 143275, Note_off_c, 5, 61, 127
6, 143279, Note_on_c, 5, 63, 110
6, 143515, Note_off_c, 5, 63, 127
6, 143519, Note_on_c, 5, 64, 110
6, 143754, Note_off_c, 5, 64, 127
6, 143759, Note_on_c, 5, 66, 110
6, 143994, Note_off_c, 5, 66, 127
6, 143999, Note_on_c, 5, 64, 110
6, 144234, Note_off_c, 5, 64, 127
6, 144240, Note_on_c, 5, 71, 110
6, 144474, Note_off_c, 5, 71, 127
6, 144480, Note_on_c, 5, 76, 110
6, 144715, Note_off_c, 5, 76, 127
6, 144720, Note_on_c, 5, 64, 110
6, 144955, Note_off_c, 5, 64, 127
6, 144959, Note_on_c, 5, 71, 110
6, 145195, Note_off_c, 5, 71, 127
6, 145199, Note_on_c, 5, 74, 110
6, 145435, Note_off_c, 5, 74, 127
6, 145439, Note_on_c, 5, 64, 110
6, 145674, Note_off_c, 5, 64, 127
6, 145679, Note_on_c, 5, 69, 110
6, 145914, Note_off_c, 5, 69, 127
6, 145919, Note_on_c, 5, 71, 110
6, 146154, Note_off_c, 5, 71, 127
6, 146160, Note_on_c, 5, 64, 110
6, 146394, Note_off_c, 5, 64, 127
6, 146400, Note_on_c, 5, 67, 110
6, 146635, Note_off_c, 5, 67, 127
6, 146640, Note_on_c, 5, 69, 110
6, 146875, Note_off_c, 5, 69, 127
6, 146879, Note_on_c, 5, 64, 110
6, 147115, Note_off_c, 5, 64, 127
6, 147119, Note_on_c, 5, 66, 110
6, 147354, Note_off_c, 5, 66, 127
6, 147359, Note_on_c, 5, 67, 110
6, 147594, Note_off_c, 5, 67, 127
6, 147599, Note_on_c, 5, 69, 110
6, 147834, Note_off_c, 5, 69, 127
6, 147839, Note_on_c, 5, 66, 110
6, 148074, Note_off_c, 5, 66, 127
6, 148080, Note_on_c, 5, 73, 110
6, 148314, Note_off_c, 5, 73, 127
6, 148320, Note_on_c, 5, 78, 110
6, 148555, Note_off_c, 5, 78, 127
6, 148560, Note_on_c, 5, 66, 110
6, 148795, Note_off_c, 5, 66, 127
6, 148799, Note_on_c, 5, 73, 110
6, 149035, Note_off_c, 5, 73, 127
6, 149039, Note_on_c, 5, 76, 110
6, 149274, Note_off_c, 5, 76, 127
6, 149279, Note_on_c, 5, 66, 110
6, 149514, Note_off_c, 5, 66, 127
6, 149519, Note_on_c, 5, 71, 110
6, 149754, Note_off_c, 5, 71, 127
6, 149760, Note_on_c, 5, 73, 110
6, 149994, Note_off_c, 5, 73, 127
6, 150000, Note_on_c, 5, 66, 110
6, 150235, Note_off_c, 5, 66, 127
6, 150240, Note_on_c, 5, 69, 110
6, 150475, Note_off_c, 5, 69, 127
6, 150479, Note_on_c, 5, 71, 110
6, 150715, Note_off_c, 5, 71, 127
6, 150719, Note_on_c, 5, 66, 110
6, 150955, Note_off_c, 5, 66, 127
6, 150959, Note_on_c, 5, 68, 110
6, 151194, Note_off_c, 5, 68, 127
6, 151199, Note_on_c, 5, 69, 110
6, 151434, Note_off_c, 5, 69, 127
6, 151439, Note_on_c, 5, 71, 110
6, 151674, Note_off_c, 5, 71, 127
6, 151680, Note_on_c, 5, 61, 110
6, 151914, Note_off_c, 5, 61, 127
6, 151920, Note_on_c, 5, 68, 110
6, 152155, Note_off_c, 5, 68, 127
6, 152160, Note_on_c, 5, 73, 110
6, 152395, Note_off_c, 5, 73, 127
6, 152399, Note_on_c, 5, 61, 110
6, 152635, Note_off_c, 5, 61, 127
6, 152639, Note_on_c, 5, 68, 110
6, 152874, Note_off_c, 5, 68, 127
6, 152879, Note_on_c, 5, 71, 110
6, 153114, Note_off_c, 5, 71, 127
6, 153119, Note_on_c, 5, 61, 110
6, 153354, Note_off_c, 5, 61, 127
6, 153360, Note_on_c, 5, 66, 110
6, 153594, Note_off_c, 5, 66, 127
6, 153600, Note_on_c, 5, 68, 110
6, 153834, Note_off_c, 5, 68, 127
6, 153840, Note_on_c, 5, 61, 110
6, 154075, Note_off_c, 5, 61, 127
6, 154080, Note_on_c, 5, 64, 110
6, 154315, Note_off_c, 5, 64, 127
6, 154319, Note_on_c, 5, 66, 110
6, 154555, Note_off_c, 5, 66, 127
6, 154559, Note_on_c, 5, 61, 110
6, 154794, Note_off_c, 5, 61, 127
6, 154799, Note_on_c, 5, 63, 110
6, 155034, Note_off_c, 5, 63, 127
6, 155039, Note_on_c, 5, 64, 110
6, 155274, Note_off_c, 5, 64, 127
6, 155280, Note_on_c, 5, 66, 110
6, 155514, Note_off_c, 5, 66, 127
6, 163200, Note_on_c, 5, 82, 110
6, 163435, Note_off_c, 5, 82, 127
6, 163439, Note_on_c, 5, 89, 110
6, 163675, Note_off_c, 5, 89, 127
6, 163679, Note_on_c, 5, 87, 110
6, 163914, Note_off_c, 5, 87, 127
6, 163919, Note_on_c, 5, 82, 110
6, 164154, Note_off_c, 5, 82, 127
6, 164159, Note_on_c, 5, 89, 110
6, 164394, Note_off_c, 5, 89, 127
6, 164400, Note_on_c, 5, 87, 110
6, 164634, Note_off_c, 5, 87, 127
6, 164640, Note_on_c, 5, 82, 110
6, 164874, Note_off_c, 5, 82, 127
6, 164880, Note_on_c, 5, 89, 110
6, 165115, Note_off_c, 5, 89, 127
6, 165119, Note_on_c, 5, 87, 110
6, 165355, Note_off_c, 5, 87, 127
6, 165359, Note_on_c, 5, 82, 110
6, 165595, Note_off_c, 5, 82, 127
6, 165599, Note_on_c, 5, 89, 110
6, 165834, Note_off_c, 5, 89, 127
6, 165839, Note_on_c, 5, 87, 110
6, 166074, Note_off_c, 5, 87, 127
6, 166079, Note_on_c, 5, 90, 110
6, 166314, Note_off_c, 5, 90, 127
6, 166320, Note_on_c, 5, 91, 110
6, 166554, Note_off_c, 5, 91, 127
6, 166560, Note_on_c, 5, 92, 110
6, 166795, Note_off_c, 5, 92, 127
6, 166800, Note_on_c, 5, 93, 110
6, 167035, Note_off_c, 5, 93, 127
6, 167039, Note_on_c, 5, 94, 110
6, 167440, Note_off_c, 5, 94, 127
6, 170879, Note_on_c, 5, 70, 110
6, 172679, Note_off_c, 5, 70, 127
6, 172799, Note_on_c, 5, 77, 110
6, 174599, Note_off_c, 5, 77, 127
6, 174719, Note_on_c, 5, 76, 110
6, 176519, Note_off_c, 5, 76, 127
6, 176639, Note_on_c, 5, 75, 110
6, 178439, Note_off_c, 5, 75, 127
6, 178559, Note_on_c, 5, 73, 110
6, 180359, Note_off_c, 5, 73, 127
6, 180479, Note_on_c, 5, 80, 110
6, 182279, Note_off_c, 5, 80, 127
6, 182399, Note_on_c, 5, 79, 110
6, 184199, Note_off_c, 5, 79, 127
6, 184319, Note_on_c, 5, 78, 110
6, 186119, Note_off_c, 5, 78, 127
6, 186239, Note_on_c, 5, 77, 110
6, 188039, Note_off_c, 5, 77, 127
6, 188159, Note_on_c, 5, 84, 110
6, 189959, Note_off_c, 5, 84, 127
6, 190080, Note_on_c, 5, 83, 110
6, 191880, Note_off_c, 5, 83, 127
6, 192000, Note_on_c, 5, 82, 110
6, 193800, Note_off_c, 5, 82, 127
6, 193920, Note_on_c, 5, 80, 110
6, 195720, Note_off_c, 5, 80, 127
6, 195840, Note_on_c, 5, 87, 110
6, 197640, Note_off_c, 5, 87, 127
6, 197760, Note_on_c, 5, 86, 110
6, 199560, Note_off_c, 5, 86, 127
6, 199680, Note_on_c, 5, 85, 110
6, 201480, Note_off_c, 5, 85, 127
6, 201600, Note_on_c, 5, 61, 110
6, 201835, Note_off_c, 5, 61, 127
6, 201839, Note_on_c, 5, 68, 110
6, 202075, Note_off_c, 5, 68, 127
6, 202079, Note_on_c, 5, 73, 110
6, 202315, Note_off_c, 5, 73, 127
6, 202319, Note_on_c, 5, 61, 110
6, 202554, Note_off_c, 5, 61, 127
6, 202559, Note_on_c, 5, 68, 110
6, 202794, Note_off_c, 5, 68, 127
6, 202799, Note_on_c, 5, 71, 110
6, 203034, Note_off_c, 5, 71, 127
6, 203040, Note_on_c, 5, 61, 110
6, 203274, Note_off_c, 5, 61, 127
6, 203280, Note_on_c, 5, 66, 110
6, 203515, Note_off_c, 5, 66, 127
6, 203520, Note_on_c, 5, 68, 110
6, 203755, Note_off_c, 5, 68, 127
6, 203759, Note_on_c, 5, 61, 110
6, 203995, Note_off_c, 5, 61, 127
6, 203999, Note_on_c, 5, 64, 110
6, 204234, Note_off_c, 5, 64, 127
6, 204239, Note_on_c, 5, 66, 110
6, 204474, Note_off_c, 5, 66, 127
6, 204479, Note_on_c, 5, 61, 110
6, 204714, Note_off_c, 5, 61, 127
6, 204720, Note_on_c, 5, 63, 110
6, 204954, Note_off_c, 5, 63, 127
6, 204960, Note_on_c, 5, 64, 110
6, 205194, Note_off_c, 5, 64, 127
6, 205200, Note_on_c, 5, 66, 110
6, 205435, Note_off_c, 5, 66, 127
6, 205440, Note_on_c, 5, 64, 110
6, 205675, Note_off_c, 5, 64, 127
6, 205679, Note_on_c, 5, 71, 110
6, 205915, Note_off_c, 5, 71, 127
6, 205919, Note_on_c, 5, 76, 110
6, 206154, Note_off_c, 5, 76, 127
6, 206159, Note_on_c, 5, 64, 110
6, 206394, Note_off_c, 5, 64, 127
6, 206399, Note_on_c, 5, 71, 110
6, 206634, Note_off_c, 5, 71, 127
6, 206640, Note_on_c, 5, 74, 110
6, 206874, Note_off_c, 5, 74, 127
6, 206880, Note_on_c, 5, 64, 110
6, 207115, Note_off_c, 5, 64, 127
6, 207120, Note_on_c, 5, 69, 110
6, 207355, Note_off_c, 5, 69, 127
6, 207359, Note_on_c, 5, 71, 110
6, 207595, Note_off_c, 5, 71, 127
6, 207599, Note_on_c, 5, 64, 110
6, 207835, Note_off_c, 5, 64, 127
6, 207839, Note_on_c, 5, 67, 110
6, 208074, Note_off_c, 5, 67, 127
6, 208079, Note_on_c, 5, 69, 110
6, 208314, Note_off_c, 5, 69, 127
6, 208319, Note_on_c, 5, 64, 110
6, 208554, Note_off_c, 5, 64, 127
6, 208560, Note_on_c, 5, 66, 110
6, 208794, Note_off_c, 5, 66, 127
6, 208800, Note_on_c, 5, 67, 110
6, 209035, Note_off_c, 5, 67, 127
6, 209040, Note_on_c, 5, 69, 110
6, 209275, Note_off_c, 5, 69, 127
6, 209279, Note_on_c, 5, 66, 110
6, 209515, Note_off_c, 5, 66, 127
6, 209519, Note_on_c, 5, 73, 110
6, 209754, Note_off_c, 5, 73, 127
6, 209759, Note_on_c, 5, 78, 110
6, 209994, Note_off_c, 5, 78, 127
6, 209999, Note_on_c, 5, 66, 110
6, 210234, Note_off_c, 5, 66, 127
6, 210240, Note_on_c, 5, 73, 110
6, 210474, Note_off_c, 5, 73, 127
6, 210480, Note_on_c, 5, 76, 110
6, 210714, Note_off_c, 5, 76, 127
6, 210720, Note_on_c, 5, 66, 110
6, 210955, Note_off_c, 5, 66, 127
6, 210960, Note_on_c, 5, 71, 110
6, 211195, Note_off_c, 5, 71, 127
6, 211199, Note_on_c, 5, 73, 110
6, 211435, Note_off_c, 5, 73, 127
6, 211439, Note_on_c, 5, 66, 110
6, 211674, Note_off_c, 5, 66, 127
6, 211679, Note_on_c, 5, 69, 110
6, 211914, Note_off_c, 5, 69, 127
6, 211919, Note_on_c, 5, 71, 110
6, 212154, Note_off_c, 5, 71, 127
6, 212160, Note_on_c, 5, 66, 110
6, 212394, Note_off_c, 5, 66, 127
6, 212400, Note_on_c, 5, 68, 110
6, 212635, Note_off_c, 5, 68, 127
6, 212640, Note_on_c, 5, 69, 110
6, 212875, Note_off_c, 5, 69, 127
6, 212879, Note_on_c, 5, 71, 110
6, 213115, Note_off_c, 5, 71, 127
6, 213119, Note_on_c, 5, 61, 110
6, 213354, Note_off_c, 5, 61, 127
6, 213359, Note_on_c, 5, 68, 110
6, 213594, Note_off_c, 5, 68, 127
6, 213599, Note_on_c, 5, 73, 110
6, 213834, Note_off_c, 5, 73, 127
6, 213839, Note_on_c, 5, 61, 110
6, 214074, Note_off_c, 5, 61, 127
6, 214080, Note_on_c, 5, 68, 110
6, 214314, Note_off_c, 5, 68, 127
6, 214320, Note_on_c, 5, 71, 110
6, 214555, Note_off_c, 5, 71, 127
6, 214560, Note_on_c, 5, 61, 110
6, 214795, Note_off_c, 5, 61, 127
6, 214799, Note_on_c, 5, 66, 110
6, 215035, Note_off_c, 5, 66, 127
6, 215039, Note_on_c, 5, 68, 110
6, 215274, Note_off_c, 5, 68, 127
6, 215279, Note_on_c, 5, 61, 110
6, 215514, Note_off_c, 5, 61, 127
6, 215519, Note_on_c, 5, 64, 110
6, 215754, Note_off_c, 5, 64, 127
6, 215760, Note_on_c, 5, 66, 110
6, 215994, Note_off_c, 5, 66, 127
6, 216000, Note_on_c, 5, 61, 110
6, 216234, Note_off_c, 5, 61, 127
6, 216240, Note_on_c, 5, 63, 110
6, 216475, Note_off_c, 5, 63, 127
6, 216480, Note_on_c, 5, 64, 110
6, 216715, Note_off_c, 5, 64, 127
6, 216719, Note_on_c, 5, 66, 110
6, 216955, Note_off_c, 5, 66, 127
6, 216959, Note_on_c, 5, 61, 110
6, 217194, Note_off_c, 5, 61, 127
6, 217199, Note_on_c, 5, 68, 110
6, 217434, Note_off_c, 5, 68, 127
6, 217439, Note_on_c, 5, 73, 110
6, 217674, Note_off_c, 5, 73, 127
6, 217680, Note_on_c, 5, 61, 110
6, 217914, Note_off_c, 5, 61, 127
6, 217920, Note_on_c, 5, 68, 110
6, 218155, Note_off_c, 5, 68, 127
6, 218160, Note_on_c, 5, 71, 110
6, 218395, Note_off_c, 5, 71, 127
6, 218399, Note_on_c, 5, 61, 110
6, 218635, Note_off_c, 5, 61, 127
6, 218639, Note_on_c, 5, 66, 110
6, 218874, Note_off_c, 5, 66, 127
6, 218879, Note_on_c, 5, 68, 110
6, 219114, Note_off_c, 5, 68, 127
6, 219119, Note_on_c, 5, 61, 110
6, 219354, Note_off_c, 5, 61, 127
6, 219359, Note_on_c, 5, 64, 110
6, 219594, Note_off_c, 5, 64, 127
6, 219600, Note_on_c, 5, 66, 110
6, 219834, Note_off_c, 5, 66, 127
6, 219840, Note_on_c, 5, 61, 110
6, 220075, Note_off_c, 5, 61, 127
6, 220080, Note_on_c, 5, 63, 110
6, 220315, Note_off_c, 5, 63, 127
6, 220319, Note_on_c, 5, 64, 110
6, 220555, Note_off_c, 5, 64, 127
6, 220559, Note_on_c, 5, 66, 110
6, 220794, Note_off_c, 5, 66, 127
6, 220799, Note_on_c, 5, 64, 110
6, 221034, Note_off_c, 5, 64, 127
6, 221039, Note_on_c, 5, 71, 110
6, 221274, Note_off_c, 5, 71, 127
6, 221280, Note_on_c, 5, 76, 110
6, 221514, Note_off_c, 5, 76, 127
6, 221520, Note_on_c, 5, 64, 110
6, 221754, Note_off_c, 5, 64, 127
6, 221760, Note_on_c, 5, 71, 110
6, 221995, Note_off_c, 5, 71, 127
6, 221999, Note_on_c, 5, 74, 110
6, 222235, Note_off_c, 5, 74, 127
6, 222239, Note_on_c, 5, 64, 110
6, 222475, Note_off_c, 5, 64, 127
6, 222479, Note_on_c, 5, 69, 110
6, 222714, Note_off_c, 5, 69, 127
6, 222719, Note_on_c, 5, 71, 110
6, 222954, Note_off_c, 5, 71, 127
6, 222959, Note_on_c, 5, 64, 110
6, 223194, Note_off_c, 5, 64, 127
6, 223200, Note_on_c, 5, 67, 110
6, 223434, Note_off_c, 5, 67, 127
6, 223440, Note_on_c, 5, 69, 110
6, 223675, Note_off_c, 5, 69, 127
6, 223680, Note_on_c, 5, 64, 110
6, 223915, Note_off_c, 5, 64, 127
6, 223919, Note_on_c, 5, 66, 110
6, 224155, Note_off_c, 5, 66, 127
6, 224159, Note_on_c, 5, 67, 110
6, 224394, Note_off_c, 5, 67, 127
6, 224399, Note_on_c, 5, 69, 110
6, 224634, Note_off_c, 5, 69, 127
6, 224639, Note_on_c, 5, 66, 110
6, 224874, Note_off_c, 5, 66, 127
6, 224879, Note_on_c, 5, 73, 110
6, 225114, Note_off_c, 5, 73, 127
6, 225120, Note_on_c, 5, 78, 110
6, 225354, Note_off_c, 5, 78, 127
6, 225360, Note_on_c, 5, 66, 110
6, 225595, Note_off_c, 5, 66, 127
6, 225600, Note_on_c, 5, 73, 110
6, 225835, Note_off_c, 5, 73, 127
6, 225839, Note_on_c, 5, 76, 110
6, 226075, Note_off_c, 5, 76, 127
6, 226079, Note_on_c, 5, 66, 110
6, 226314, Note_off_c, 5, 66, 127
6, 226319, Note_on_c, 5, 71, 110
6, 226554, Note_off_c, 5, 71, 127
6, 226559, Note_on_c, 5, 73, 110
6, 226794, Note_off_c, 5, 73, 127
6, 226800, Note_on_c, 5, 66, 110
6, 227034, Note_off_c, 5, 66, 127
6, 227040, Note_on_c, 5, 69, 110
6, 227275, Note_off_c, 5, 69, 127
6, 227280, Note_on_c, 5, 71, 110
6, 227515, Note_off_c, 5, 71, 127
6, 227519, Note_on_c, 5, 66, 110
6, 227755, Note_off_c, 5, 66, 127
6, 227759, Note_on_c, 5, 68, 110
6, 227995, Note_off_c, 5, 68, 127
6, 227999, Note_on_c, 5, 69, 110
6, 228234, Note_off_c, 5, 69, 127
6, 228239, Note_on_c, 5, 71, 110
6, 228474, Note_off_c, 5, 71, 127
6, 228479, Note_on_c, 5, 61, 110
6, 228714, Note_off_c, 5, 61, 127
6, 228720, Note_on_c, 5, 68, 110
6, 228954, Note_off_c, 5, 68, 127
6, 228960, Note_on_c, 5, 73, 110
6, 229195, Note_off_c, 5, 73, 127
6, 229200, Note_on_c, 5, 61, 110
6, 229435, Note_off_c, 5, 61, 127
6, 229439, Note_on_c, 5, 68, 110
6, 229675, Note_off_c, 5, 68, 127
6, 229679, Note_on_c, 5, 71, 110
6, 229914, Note_off_c, 5, 71, 127
6, 229919, Note_on_c, 5, 61, 110
6, 230154, Note_off_c, 5, 61, 127
6, 230159, Note_on_c, 5, 66, 110
6, 230394, Note_off_c, 5, 66, 127
6, 230400, Note_on_c, 5, 68, 110
6, 230634, Note_off_c, 5, 68, 127
6, 230640, Note_on_c, 5, 61, 110
6, 230874, Note_off_c, 5, 61, 127
6, 230880, Note_on_c, 5, 64, 110
6, 231115, Note_off_c, 5, 64, 127
6, 231120, Note_on_c, 5, 66, 110
6, 231355, Note_off_c, 5, 66, 127
6, 231359, Note_on_c, 5, 61, 110
6, 231595, Note_off_c, 5, 61, 127
6, 231599, Note_on_c, 5, 63, 110
6, 231834, Note_off_c, 5, 63, 127
6, 231839, Note_on_c, 5, 64, 110
6, 232074, Note_off_c, 5, 64, 127
6, 232079, Note_on_c, 5, 66, 110
6, 232314, Note_off_c, 5, 66, 127
6, 232320, Note_on_c, 5, 61, 110
6, 232554, Note_off_c, 5, 61, 127
6, 232560, Note_on_c, 5, 68, 110
6, 232795, Note_off_c, 5, 68, 127
6, 232800, Note_on_c, 5, 73, 110
6, 233035, Note_off_c, 5, 73, 127
6, 233039, Note_on_c, 5, 61, 110
6, 233275, Note_off_c, 5, 61, 127
6, 233279, Note_on_c, 5, 68, 110
6, 233515, Note_off_c, 5, 68, 127
6, 233519, Note_on_c, 5, 71, 110
6, 233754, Note_off_c, 5, 71, 127
6, 233759, Note_on_c, 5, 61, 110
6, 233994, Note_off_c, 5, 61, 127
6, 233999, Note_on_c, 5, 66, 110
6, 234234, Note_off_c, 5, 66, 127
6, 234240, Note_on_c, 5, 68, 110
6, 234474, Note_off_c, 5, 68, 127
6, 234480, Note_on_c, 5, 61, 110
6, 234715, Note_off_c, 5, 61, 127
6, 234720, Note_on_c, 5, 64, 110
6, 234955, Note_off_c, 5, 64, 127
6, 234959, Note_on_c, 5, 66, 110
6, 235195, Note_off_c, 5, 66, 127
6, 235199, Note_on_c, 5, 61, 110
6, 235434, Note_off_c, 5, 61, 127
6, 235439, Note_on_c, 5, 63, 110
6, 235674, Note_off_c, 5, 63, 127
6, 235679, Note_on_c, 5, 64, 110
6, 235914, Note_off_c, 5, 64, 127
6, 235920, Note_on_c, 5, 66, 110
6, 236154, Note_off_c, 5, 66, 127
6, 236160, Note_on_c, 5, 64, 110
6, 236394, Note_off_c, 5, 64, 127
6, 236400, Note_on_c, 5, 71, 110
6, 236635, Note_off_c, 5, 71, 127
6, 236640, Note_on_c, 5, 76, 110
6, 236875, Note_off_c, 5, 76, 127
6, 236879, Note_on_c, 5, 64, 110
6, 237115, Note_off_c, 5, 64, 127
6, 237119, Note_on_c, 5, 71, 110
6, 237354, Note_off_c, 5, 71, 127
6, 237359, Note_on_c, 5, 74, 110
6, 237594, Note_off_c, 5, 74, 127
6, 237599, Note_on_c, 5, 64, 110
6, 237834, Note_off_c, 5, 64, 127
6, 237840, Note_on_c, 5, 69, 110
6, 238074, Note_off_c, 5, 69, 127
6, 238080, Note_on_c, 5, 71, 110
6, 238315, Note_off_c, 5, 71, 127
6, 238320, Note_on_c, 5, 64, 110
6, 238555, Note_off_c, 5, 64, 127
6, 238559, Note_on_c, 5, 67, 110
6, 238795, Note_off_c, 5, 67, 127
6, 238799, Note_on_c, 5, 69, 110
6, 239034, Note_off_c, 5, 69, 127
6, 239039, Note_on_c, 5, 64, 110
6, 239274, Note_off_c, 5, 64, 127
6, 239279, Note_on_c, 5, 66, 110
6, 239514, Note_off_c, 5, 66, 127
6, 239519, Note_on_c, 5, 67, 110
6, 239754, Note_off_c, 5, 67, 127
6, 239760, Note_on_c, 5, 69, 110
6, 239994, Note_off_c, 5, 69, 127
6, 240000, Note_on_c, 5, 66, 110
6, 240235, Note_off_c, 5, 66, 127
6, 240240, Note_on_c, 5, 73, 110
6, 240475, Note_off_c, 5, 73, 127
6, 240479, Note_on_c, 5, 78, 110
6, 240715, Note_off_c, 5, 78, 127
6, 240719, Note_on_c, 5, 66, 110
6, 240954, Note_off_c, 5, 66, 127
6, 240959, Note_on_c, 5, 73, 110
6, 241194, Note_off_c, 5, 73, 127
6, 241199, Note_on_c, 5, 76, 110
6, 241434, Note_off_c, 5, 76, 127
6, 241440, Note_on_c, 5, 66, 110
6, 241674, Note_off_c, 5, 66, 127
6, 241680, Note_on_c, 5, 71, 110
6, 241914, Note_off_c, 5, 71, 127
6, 241920, Note_on_c, 5, 73, 110
6, 242155, Note_off_c, 5, 73, 127
6, 242160, Note_on_c, 5, 66, 110
6, 242395, Note_off_c, 5, 66, 127
6, 242399, Note_on_c, 5, 69, 110
6, 242635, Note_off_c, 5, 69, 127
6, 242639, Note_on_c, 5, 71, 110
6, 242874, Note_off_c, 5, 71, 127
6, 242879, Note_on_c, 5, 66, 110
6, 243114, Note_off_c, 5, 66, 127
6, 243119, Note_on_c, 5, 68, 110
6, 243354, Note_off_c, 5, 68, 127
6, 243360, Note_on_c, 5, 69, 110
6, 243594, Note_off_c, 5, 69, 127
6, 243600, Note_on_c, 5, 71, 110
6, 243835, Note_off_c, 5, 71, 127
6, 243840, Note_on_c, 5, 61, 110
6, 244075, Note_off_c, 5, 61, 127
6, 244079, Note_on_c, 5, 68, 110
6, 244315, Note_off_c, 5, 68, 127
6, 244319, Note_on_c, 5, 73, 110
6, 244554, Note_off_c, 5, 73, 127
6, 244559, Note_on_c, 5, 61, 110
6, 244794, Note_off_c, 5, 61, 127
6, 244799, Note_on_c, 5, 68, 110
6, 245034, Note_off_c, 5, 68, 127
6, 245039, Note_on_c, 5, 71, 110
6, 245274, Note_off_c, 5, 71, 127
6, 245280, Note_on_c, 5, 61, 110
6, 245514, Note_off_c, 5, 61, 127
6, 245520, Note_on_c, 5, 66, 110
6, 245755, Note_off_c, 5, 66, 127
6, 245760, Note_on_c, 5, 68, 110
6, 245995, Note_off_c, 5, 68, 127
6, 245999, Note_on_c, 5, 61, 110
6, 246235, Note_off_c, 5, 61, 127
6, 246239, Note_on_c, 5, 64, 110
6, 246474, Note_off_c, 5, 64, 127
6, 246479, Note_on_c, 5, 66, 110
6, 246714, Note_off_c, 5, 66, 127
6, 246719, Note_on_c, 5, 61, 110
6, 246954, Note_off_c, 5, 61, 127
6, 246960, Note_on_c, 5, 63, 110
6, 247194, Note_off_c, 5, 63, 127
6, 247200, Note_on_c, 5, 64, 110
6, 247434, Note_off_c, 5, 64, 127
6, 247440, Note_on_c, 5, 66, 110
6, 247675, Note_off_c, 5, 66, 127
6, 247679, Note_on_c, 5, 56, 110
6, 248519, Note_off_c, 5, 56, 127
6, 248639, Note_on_c, 5, 55, 110
6, 249480, Note_off_c, 5, 55, 127
6, 249599, Note_on_c, 5, 58, 110
6, 250439, Note_off_c, 5, 58, 127
6, 250559, Note_on_c, 5, 56, 110
6, 251399, Note_off_c, 5, 56, 127
6, 251519, Note_on_c, 5, 61, 110
6, 252359, Note_off_c, 5, 61, 127
6, 252480, Note_on_c, 5, 60, 110
6, 253319, Note_off_c, 5, 60, 127
6, 253439, Note_on_c, 5, 64, 110
6, 254280, Note_off_c, 5, 64, 127
6, 254400, Note_on_c, 5, 63, 110
6, 255239, Note_off_c, 5, 63, 127
6, 255359, Note_on_c, 5, 68, 110
6, 256200, Note_off_c, 5, 68, 127
6, 256320, Note_on_c, 5, 67, 110
6, 257159, Note_off_c, 5, 67, 127
6, 257279, Note_on_c, 5, 70, 110
6, 258120, Note_off_c, 5, 70, 127
6, 258240, Note_on_c, 5, 68, 110
6, 259079, Note_off_c, 5, 68, 127
6, 259199, Note_on_c, 5, 73, 110
6, 260040, Note_off_c, 5, 73, 127
6, 260160, Note_on_c, 5, 72, 110
6, 260999, Note_off_c, 5, 72, 127
6, 261119, Note_on_c, 5, 76, 110
6, 261960, Note_off_c, 5, 76, 127
6, 262080, Note_on_c, 5, 75, 110
6, 262919, Note_off_c, 5, 75, 127
6, 263039, Note_on_c, 5, 80, 110
6, 263880, Note_off_c, 5, 80, 127
6, 264000, Note_on_c, 5, 79, 110
6, 264839, Note_off_c, 5, 79, 127
6, 264959, Note_on_c, 5, 82, 110
6, 265800, Note_off_c, 5, 82, 127
6, 265920, Note_on_c, 5, 80, 110
6, 266759, Note_off_c, 5, 80, 127
6, 266879, Note_on_c, 5, 85, 110
6, 267720, Note_off_c, 5, 85, 127
6, 267840, Note_on_c, 5, 84, 110
6, 268679, Note_off_c, 5, 84, 127
6, 268799, Note_on_c, 5, 88, 110
6, 269640, Note_off_c, 5, 88, 127
6, 269759, Note_on_c, 5, 87, 110
6, 270599, Note_off_c, 5, 87, 127
6, 270719, Note_on_c, 5, 92, 110
6, 271559, Note_off_c, 5, 92, 127
6, 271679, Note_on_c, 5, 91, 110
6, 272519, Note_off_c, 5, 91, 127
6, 272640, Note_on_c, 5, 94, 110
6, 273479, Note_off_c, 5, 94, 127
6, 273599, Note_on_c, 5, 92, 110
6, 274440, Note_off_c, 5, 92, 127
6, 274560, Note_on_c, 5, 97, 110
6, 275399, Note_off_c, 5, 97, 127
6, 275519, Note_on_c, 5, 96, 110
6, 276360, Note_off_c, 5, 96, 127
6, 276480, Note_on_c, 5, 100, 110
6, 277319, Note_off_c, 5, 100, 127
6, 277439, Note_on_c, 5, 99, 110
6, 278280, Note_off_c, 5, 99, 127
6, 278400, Note_on_c, 5, 61, 110
6, 278635, Note_off_c, 5, 61, 127
6, 278640, Note_on_c, 5, 68, 110
6, 278875, Note_off_c, 5, 68, 127
6, 278879, Note_on_c, 5, 73, 110
6, 279115, Note_off_c, 5, 73, 127
6, 279119, Note_on_c, 5, 61, 110
6, 279355, Note_off_c, 5, 61, 127
6, 279359, Note_on_c, 5, 68, 110
6, 279594, Note_off_c, 5, 68, 127
6, 279599, Note_on_c, 5, 71, 110
6, 279834, Note_off_c, 5, 71, 127
6, 279839, Note_on_c, 5, 61, 110
6, 280074, Note_off_c, 5, 61, 127
6, 280080, Note_on_c, 5, 66, 110
6, 280314, Note_off_c, 5, 66, 127
6, 280320, Note_on_c, 5, 68, 110
6, 280555, Note_off_c, 5, 68, 127
6, 280560, Note_on_c, 5, 61, 110
6, 280795, Note_off_c, 5, 61, 127
6, 280799, Note_on_c, 5, 64, 110
6, 281035, Note_off_c, 5, 64, 127
6, 281039, Note_on_c, 5, 66, 110
6, 281274, Note_off_c, 5, 66, 127
6, 281279, Note_on_c, 5, 61, 110
6, 281514, Note_off_c, 5, 61, 127
6, 281519, Note_on_c, 5, 63, 110
6, 281754, Note_off_c, 5, 63, 127
6, 281759, Note_on_c, 5, 64, 110
6, 281994, Note_off_c, 5, 64, 127
6, 282000, Note_on_c, 5, 66, 110
6, 282234, Note_off_c, 5, 66, 127
6, 282240, Note_on_c, 5, 64, 110
6, 282475, Note_off_c, 5, 64, 127
6, 282480, Note_on_c, 5, 71, 110
6, 282715, Note_off_c, 5, 71, 127
6, 282719, Note_on_c, 5, 76, 110
6, 282955, Note_off_c, 5, 76, 127
6, 282959, Note_on_c, 5, 64, 110
6, 283194, Note_off_c, 5, 64, 127
6, 283199, Note_on_c, 5, 71, 110
6, 283434, Note_off_c, 5, 71, 127
6, 283439, Note_on_c, 5, 74, 110
6, 283674, Note_off_c, 5, 74, 127
6, 283680, Note_on_c, 5, 64, 110
6, 283914, Note_off_c, 5, 64, 127
6, 283920, Note_on_c, 5, 69, 110
6, 284155, Note_off_c, 5, 69, 127
6, 284160, Note_on_c, 5, 71, 110
6, 284395, Note_off_c, 5, 71, 127
6, 284399, Note_on_c, 5, 64, 110
6, 284635, Note_off_c, 5, 64, 127
6, 284639, Note_on_c, 5, 67, 110
6, 284875, Note_off_c, 5, 67, 127
6, 284879, Note_on_c, 5, 69, 110
6, 285114, Note_off_c, 5, 69, 127
6, 285119, Note_on_c, 5, 64, 110
6, 285354, Note_off_c, 5, 64, 127
6, 285359, Note_on_c, 5, 66, 110
6, 285594, Note_off_c, 5, 66, 127
6, 285600, Note_on_c, 5, 67, 110
6, 285834, Note_off_c, 5, 67, 127
6, 285840, Note_on_c, 5, 69, 110
6, 286075, Note_off_c, 5, 69, 127
6, 286080, Note_on_c, 5, 66, 110
6, 286315, Note_off_c, 5, 66, 127
6, 286319, Note_on_c, 5, 73, 110
6, 286555, Note_off_c, 5, 73, 127
6, 286559, Note_on_c, 5, 78, 110
6, 286794, Note_off_c, 5, 78, 127
6, 286799, Note_on_c, 5, 66, 110
6, 287034, Note_off_c, 5, 66, 127
6, 287039, Note_on_c, 5, 73, 110
6, 287274, Note_off_c, 5, 73, 127
6, 287280, Note_on_c, 5, 76, 110
6, 287514, Note_off_c, 5, 76, 127
6, 287520, Note_on_c, 5, 66, 110
6, 287754, Note_off_c, 5, 66, 127
6, 287760, Note_on_c, 5, 71, 110
6, 287995, Note_off_c, 5, 71, 127
6, 288000, Note_on_c, 5, 73, 110
6, 288235, Note_off_c, 5, 73, 127
6, 288239, Note_on_c, 5, 66, 110
6, 288475, Note_off_c, 5, 66, 127
6, 288479, Note_on_c, 5, 69, 110
6, 288714, Note_off_c, 5, 69, 127
6, 288719, Note_on_c, 5, 71, 110
6, 288954, Note_off_c, 5, 71, 127
6, 288959, Note_on_c, 5, 66, 110
6, 289194, Note_off_c, 5, 66, 127
6, 289200, Note_on_c, 5, 68, 110
6, 289434, Note_off_c, 5, 68, 127
6, 289440, Note_on_c, 5, 69, 110
6, 289675, Note_off_c, 5, 69, 127
6, 289680, Note_on_c, 5, 71, 110
6, 289915, Note_off_c, 5, 71, 127
6, 289919, Note_on_c, 5, 61, 110
6, 290155, Note_off_c, 5, 61, 127
6, 290159, Note_on_c, 5, 68, 110
6, 290395, Note_off_c, 5, 68, 127
6, 290399, Note_on_c, 5, 73, 110
6, 290634, Note_off_c, 5, 73, 127
6, 290639, Note_on_c, 5, 61, 110
6, 290874, Note_off_c, 5, 61, 127
6, 290879, Note_on_c, 5, 68, 110
6, 291114, Note_off_c, 5, 68, 127
6, 291120, Note_on_c, 5, 71, 110
6, 291354, Note_off_c, 5, 71, 127
6, 291360, Note_on_c, 5, 61, 110
6, 291595, Note_off_c, 5, 61, 127
6, 291600, Note_on_c, 5, 66, 110
6, 291835, Note_off_c, 5, 66, 127
6, 291839, Note_on_c, 5, 68, 110
6, 292075, Note_off_c, 5, 68, 127
6, 292079, Note_on_c, 5, 61, 110
6, 292314, Note_off_c, 5, 61, 127
6, 292319, Note_on_c, 5, 64, 110
6, 292554, Note_off_c, 5, 64, 127
6, 292559, Note_on_c, 5, 66, 110
6, 292794, Note_off_c, 5, 66, 127
6, 292800, Note_on_c, 5, 61, 110
6, 293034, Note_off_c, 5, 61, 127
6, 293040, Note_on_c, 5, 63, 110
6, 293274, Note_off_c, 5, 63, 127
6, 293280, Note_on_c, 5, 64, 110
6, 293515, Note_off_c, 5, 64, 127
6, 293520, Note_on_c, 5, 66, 110
6, 293755, Note_off_c, 5, 66, 127
6, 295679, End_track
7, 0, Start_track
7, 0, Title_t, "Track7"
7, 66479, Note_on_c, 6, 73, 110
7, 66479, Control_c, 6, 91, 0
7, 66479, Control_c, 6, 7, 127
7, 66479, Control_c, 6, 93, 0
7, 66479, Control_c, 6, 10, 64
7, 66479, Control_c, 6, 121, 0
7, 66479, Program_c, 6, 4
7, 66479, Control_c, 6, 32, 0
7, 66479, Control_c, 6, 0, 0
7, 66594, Note_off_c, 6, 73, 127
7, 66599, Note_on_c, 6, 80, 110
7, 66714, Note_off_c, 6, 80, 127
7, 66719, Note_on_c, 6, 85, 110
7, 66834, Note_off_c, 6, 85, 127
7, 66839, Note_on_c, 6, 73, 110
7, 66954, Note_off_c, 6, 73, 127
7, 66959, Note_on_c, 6, 80, 110
7, 67074, Note_off_c, 6, 80, 127
7, 67079, Note_on_c, 6, 85, 110
7, 67599, Note_off_c, 6, 85, 127
7, 70319, Note_on_c, 6, 76, 110
7, 70434, Note_off_c, 6, 76, 127
7, 70439, Note_on_c, 6, 83, 110
7, 70554, Note_off_c, 6, 83, 127
7, 70559, Note_on_c, 6, 88, 110
7, 70674, Note_off_c, 6, 88, 127
7, 70679, Note_on_c, 6, 76, 110
7, 70794, Note_off_c, 6, 76, 127
7, 70800, Note_on_c, 6, 83, 110
7, 70914, Note_off_c, 6, 83, 127
7, 70920, Note_on_c, 6, 88, 110
7, 71439, Note_off_c, 6, 88, 127
7, 74159, Note_on_c, 6, 78, 110
7, 74274, Note_off_c, 6, 78, 127
7, 74279, Note_on_c, 6, 85, 110
7, 74394, Note_off_c, 6, 85, 127
7, 74399, Note_on_c, 6, 90, 110
7, 74514, Note_off_c, 6, 90, 127
7, 74520, Note_on_c, 6, 78, 110
7, 74634, Note_off_c, 6, 78, 127
7, 74640, Note_on_c, 6, 85, 110
7, 74754, Note_off_c, 6, 85, 127
7, 74760, Note_on_c, 6, 90, 110
7, 75279, Note_off_c, 6, 90, 127
7, 77999, Note_on_c, 6, 73, 110
7, 78114, Note_off_c, 6, 73, 127
7, 78119, Note_on_c, 6, 80, 110
7, 78234, Note_off_c, 6, 80, 127
7, 78240, Note_on_c, 6, 85, 110
7, 78354, Note_off_c, 6, 85, 127
7, 78360, Note_on_c, 6, 73, 110
7, 78474, Note_off_c, 6, 73, 127
7, 78480, Note_on_c, 6, 80, 110
7, 78594, Note_off_c, 6, 80, 127
7, 78600, Note_on_c, 6, 85, 110
7, 79119, Note_off_c, 6, 85, 127
7, 81840, Note_on_c, 6, 73, 110
7, 81954, Note_off_c, 6, 73, 127
7, 81960, Note_on_c, 6, 80, 110
7, 82074, Note_off_c, 6, 80, 127
7, 82080, Note_on_c, 6, 85, 110
7, 82194, Note_off_c, 6, 85, 127
7, 82200, Note_on_c, 6, 73, 110
7, 82314, Note_off_c, 6, 73, 127
7, 82320, Note_on_c, 6, 80, 110
7, 82435, Note_off_c, 6, 80, 127
7, 82440, Note_on_c, 6, 85, 110
7, 82959, Note_off_c, 6, 85, 127
7, 85680, Note_on_c, 6, 76, 110
7, 85794, Note_off_c, 6, 76, 127
7, 85800, Note_on_c, 6, 83, 110
7, 85914, Note_off_c, 6, 83, 127
7, 85920, Note_on_c, 6, 88, 110
7, 86035, Note_off_c, 6, 88, 127
7, 86040, Note_on_c, 6, 76, 110
7, 86155, Note_off_c, 6, 76, 127
7, 86160, Note_on_c, 6, 83, 110
7, 86275, Note_off_c, 6, 83, 127
7, 86279, Note_on_c, 6, 88, 110
7, 86800, Note_off_c, 6, 88, 127
7, 89520, Note_on_c, 6, 78, 110
7, 89634, Note_off_c, 6, 78, 127
7, 89640, Note_on_c, 6, 85, 110
7, 89755, Note_off_c, 6, 85, 127
7, 89760, Note_on_c, 6, 90, 110
7, 89875, Note_off_c, 6, 90, 127
7, 89880, Note_on_c, 6, 78, 110
7, 89995, Note_off_c, 6, 78, 127
7, 89999, Note_on_c, 6, 85, 110
7, 90115, Note_off_c, 6, 85, 127
7, 90119, Note_on_c, 6, 90, 110
7, 90640, Note_off_c, 6, 90, 127
7, 93360, Note_on_c, 6, 73, 110
7, 93475, Note_off_c, 6, 73, 127
7, 93480, Note_on_c, 6, 80, 110
7, 93595, Note_off_c, 6, 80, 127
7, 93599, Note_on_c, 6, 85, 110
7, 93715, Note_off_c, 6, 85, 127
7, 93719, Note_on_c, 6, 73, 110
7, 93835, Note_off_c, 6, 73, 127
7, 93839, Note_on_c, 6, 80, 110
7, 93955, Note_off_c, 6, 80, 127
7, 93959, Note_on_c, 6, 85, 110
7, 94480, Note_off_c, 6, 85, 127
7, 97200, Note_on_c, 6, 73, 110
7, 97315, Note_off_c, 6, 73, 127
7, 97319, Note_on_c, 6, 80, 110
7, 97435, Note_off_c, 6, 80, 127
7, 97439, Note_on_c, 6, 85, 110
7, 97555, Note_off_c, 6, 85, 127
7, 97559, Note_on_c, 6, 73, 110
7, 97675, Note_off_c, 6, 73, 127
7, 97679, Note_on_c, 6, 80, 110
7, 97794, Note_off_c, 6, 80, 127
7, 97799, Note_on_c, 6, 85, 110
7, 98320, Note_off_c, 6, 85, 127
7, 101039, Note_on_c, 6, 76, 110
7, 101155, Note_off_c, 6, 76, 127
7, 101159, Note_on_c, 6, 83, 110
7, 101275, Note_off_c, 6, 83, 127
7, 101279, Note_on_c, 6, 88, 110
7, 101395, Note_off_c, 6, 88, 127
7, 101399, Note_on_c, 6, 76, 110
7, 101514, Note_off_c, 6, 76, 127
7, 101519, Note_on_c, 6, 83, 110
7, 101634, Note_off_c, 6, 83, 127
7, 101639, Note_on_c, 6, 88, 110
7, 102159, Note_off_c, 6, 88, 127
7, 104879, Note_on_c, 6, 78, 110
7, 104995, Note_off_c, 6, 78, 127
7, 104999, Note_on_c, 6, 85, 110
7, 105114, Note_off_c, 6, 85, 127
7, 105119, Note_on_c, 6, 90, 110
7, 105234, Note_off_c, 6, 90, 127
7, 105239, Note_on_c, 6, 78, 110
7, 105354, Note_off_c, 6, 78, 127
7, 105359, Note_on_c, 6, 85, 110
7, 105474, Note_off_c, 6, 85, 127
7, 105479, Note_on_c, 6, 90, 110
7, 105999, Note_off_c, 6, 90, 127
7, 108719, Note_on_c, 6, 73, 110
7, 108834, Note_off_c, 6, 73, 127
7, 108839, Note_on_c, 6, 80, 110
7, 108954, Note_off_c, 6, 80, 127
7, 108959, Note_on_c, 6, 85, 110
7, 109074, Note_off_c, 6, 85, 127
7, 109079, Note_on_c, 6, 73, 110
7, 109194, Note_off_c, 6, 73, 127
7, 109199, Note_on_c, 6, 80, 110
7, 109314, Note_off_c, 6, 80, 127
7, 109320, Note_on_c, 6, 85, 110
7, 109839, Note_off_c, 6, 85, 127
7, 143279, Note_on_c, 6, 73, 110
7, 143395, Note_off_c, 6, 73, 127
7, 143399, Note_on_c, 6, 80, 110
7, 143515, Note_off_c, 6, 80, 127
7, 143519, Note_on_c, 6, 85, 110
7, 143634, Note_off_c, 6, 85, 127
7, 143639, Note_on_c, 6, 73, 110
7, 143754, Note_off_c, 6, 73, 127
7, 143759, Note_on_c, 6, 80, 110
7, 143874, Note_off_c, 6, 80, 127
7, 143879, Note_on_c, 6, 85, 110
7, 144399, Note_off_c, 6, 85, 127
7, 147119, Note_on_c, 6, 76, 110
7, 147235, Note_off_c, 6, 76, 127
7, 147239, Note_on_c, 6, 83, 110
7, 147354, Note_off_c, 6, 83, 127
7, 147359, Note_on_c, 6, 88, 110
7, 147474, Note_off_c, 6, 88, 127
7, 147479, Note_on_c, 6, 76, 110
7, 147594, Note_off_c, 6, 76, 127
7, 147599, Note_on_c, 6, 83, 110
7, 147714, Note_off_c, 6, 83, 127
7, 147719, Note_on_c, 6, 88, 110
7, 148239, Note_off_c, 6, 88, 127
7, 150959, Note_on_c, 6, 78, 110
7, 151074, Note_off_c, 6, 78, 127
7, 151079, Note_on_c, 6, 85, 110
7, 151194, Note_off_c, 6, 85, 127
7, 151199, Note_on_c, 6, 90, 110
7, 151314, Note_off_c, 6, 90, 127
7, 151319, Note_on_c, 6, 78, 110
7, 151434, Note_off_c, 6, 78, 127
7, 151439, Note_on_c, 6, 85, 110
7, 151554, Note_off_c, 6, 85, 127
7, 151560, Note_on_c, 6, 90, 110
7, 152079, Note_off_c, 6, 90, 127
7, 154799, Note_on_c, 6, 73, 110
7, 154914, Note_off_c, 6, 73, 127
7, 154919, Note_on_c, 6, 80, 110
7, 155034, Note_off_c, 6, 80, 127
7, 155039, Note_on_c, 6, 85, 110
7, 155154, Note_off_c, 6, 85, 127
7, 155159, Note_on_c, 6, 73, 110
7, 155274, Note_off_c, 6, 73, 127
7, 155280, Note_on_c, 6, 80, 110
7, 155394, Note_off_c, 6, 80, 127
7, 155400, Note_on_c, 6, 85, 110
7, 155919, Note_off_c, 6, 85, 127
7, 204720, Note_on_c, 6, 73, 110
7, 204834, Note_off_c, 6, 73, 127
7, 204840, Note_on_c, 6, 80, 110
7, 204954, Note_off_c, 6, 80, 127
7, 204960, Note_on_c, 6, 85, 110
7, 205074, Note_off_c, 6, 85, 127
7, 205080, Note_on_c, 6, 73, 110
7, 205194, Note_off_c, 6, 73, 127
7, 205200, Note_on_c, 6, 80, 110
7, 205315, Note_off_c, 6, 80, 127
7, 205320, Note_on_c, 6, 85, 110
7, 205839, Note_off_c, 6, 85, 127
7, 208560, Note_on_c, 6, 76, 110
7, 208674, Note_off_c, 6, 76, 127
7, 208680, Note_on_c, 6, 83, 110
7, 208794, Note_off_c, 6, 83, 127
7, 208800, Note_on_c, 6, 88, 110
7, 208914, Note_off_c, 6, 88, 127
7, 208920, Note_on_c, 6, 76, 110
7, 209035, Note_off_c, 6, 76, 127
7, 209040, Note_on_c, 6, 83, 110
7, 209155, Note_off_c, 6, 83, 127
7, 209159, Note_on_c, 6, 88, 110
7, 209680, Note_off_c, 6, 88, 127
7, 212400, Note_on_c, 6, 78, 110
7, 212514, Note_off_c, 6, 78, 127
7, 212520, Note_on_c, 6, 85, 110
7, 212635, Note_off_c, 6, 85, 127
7, 212640, Note_on_c, 6, 90, 110
7, 212755, Note_off_c, 6, 90, 127
7, 212760, Note_on_c, 6, 78, 110
7, 212875, Note_off_c, 6, 78, 127
7, 212879, Note_on_c, 6, 85, 110
7, 212995, Note_off_c, 6, 85, 127
7, 212999, Note_on_c, 6, 90, 110
7, 213520, Note_off_c, 6, 90, 127
7, 216240, Note_on_c, 6, 73, 110
7, 216355, Note_off_c, 6, 73, 127
7, 216360, Note_on_c, 6, 80, 110
7, 216475, Note_off_c, 6, 80, 127
7, 216480, Note_on_c, 6, 85, 110
7, 216595, Note_off_c, 6, 85, 127
7, 216599, Note_on_c, 6, 73, 110
7, 216715, Note_off_c, 6, 73, 127
7, 216719, Note_on_c, 6, 80, 110
7, 216835, Note_off_c, 6, 80, 127
7, 216839, Note_on_c, 6, 85, 110
7, 217360, Note_off_c, 6, 85, 127
7, 220080, Note_on_c, 6, 73, 110
7, 220195, Note_off_c, 6, 73, 127
7, 220199, Note_on_c, 6, 80, 110
7, 220315, Note_off_c, 6, 80, 127
7, 220319, Note_on_c, 6, 85, 110
7, 220435, Note_off_c, 6, 85, 127
7, 220439, Note_on_c, 6, 73, 110
7, 220555, Note_off_c, 6, 73, 127
7, 220559, Note_on_c, 6, 80, 110
7, 220675, Note_off_c, 6, 80, 127
7, 220679, Note_on_c, 6, 85, 110
7, 221200, Note_off_c, 6, 85, 127
7, 223919, Note_on_c, 6, 76, 110
7, 224035, Note_off_c, 6, 76, 127
7, 224039, Note_on_c, 6, 83, 110
7, 224155, Note_off_c, 6, 83, 127
7, 224159, Note_on_c, 6, 88, 110
7, 224275, Note_off_c, 6, 88, 127
7, 224279, Note_on_c, 6, 76, 110
7, 224394, Note_off_c, 6, 76, 127
7, 224399, Note_on_c, 6, 83, 110
7, 224514, Note_off_c, 6, 83, 127
7, 224519, Note_on_c, 6, 88, 110
7, 225040, Note_off_c, 6, 88, 127
7, 227759, Note_on_c, 6, 78, 110
7, 227875, Note_off_c, 6, 78, 127
7, 227879, Note_on_c, 6, 85, 110
7, 227995, Note_off_c, 6, 85, 127
7, 227999, Note_on_c, 6, 90, 110
7, 228114, Note_off_c, 6, 90, 127
7, 228119, Note_on_c, 6, 78, 110
7, 228234, Note_off_c, 6, 78, 127
7, 228239, Note_on_c, 6, 85, 110
7, 228354, Note_off_c, 6, 85, 127
7, 228359, Note_on_c, 6, 90, 110
7, 228879, Note_off_c, 6, 90, 127
7, 231599, Note_on_c, 6, 73, 110
7, 231714, Note_off_c, 6, 73, 127
7, 231719, Note_on_c, 6, 80, 110
7, 231834, Note_off_c, 6, 80, 127
7, 231839, Note_on_c, 6, 85, 110
7, 231954, Note_off_c, 6, 85, 127
7, 231959, Note_on_c, 6, 73, 110
7, 232074, Note_off_c, 6, 73, 127
7, 232079, Note_on_c, 6, 80, 110
7, 232194, Note_off_c, 6, 80, 127
7, 232199, Note_on_c, 6, 85, 110
7, 232719, Note_off_c, 6, 85, 127
7, 235439, Note_on_c, 6, 73, 110
7, 235554, Note_off_c, 6, 73, 127
7, 235559, Note_on_c, 6, 80, 110
7, 235674, Note_off_c, 6, 80, 127
7, 235679, Note_on_c, 6, 85, 110
7, 235794, Note_off_c, 6, 85, 127
7, 235799, Note_on_c, 6, 73, 110
7, 235914, Note_off_c, 6, 73, 127
7, 235920, Note_on_c, 6, 80, 110
7, 236034, Note_off_c, 6, 80, 127
7, 236040, Note_on_c, 6, 85, 110
7, 236559, Note_off_c, 6, 85, 127
7, 239279, Note_on_c, 6, 76, 110
7, 239394, Note_off_c, 6, 76, 127
7, 239399, Note_on_c, 6, 83, 110
7, 239514, Note_off_c, 6, 83, 127
7, 239519, Note_on_c, 6, 88, 110
7, 239634, Note_off_c, 6, 88, 127
7, 239640, Note_on_c, 6, 76, 110
7, 239754, Note_off_c, 6, 76, 127
7, 239760, Note_on_c, 6, 83, 110
7, 239874, Note_off_c, 6, 83, 127
7, 239880, Note_on_c, 6, 88, 110
7, 240399, Note_off_c, 6, 88, 127
7, 243119, Note_on_c, 6, 78, 110
7, 243234, Note_off_c, 6, 78, 127
7, 243239, Note_on_c, 6, 85, 110
7, 243354, Note_off_c, 6, 85, 127
7, 243360, Note_on_c, 6, 90, 110
7, 243474, Note_off_c, 6, 90, 127
7, 243480, Note_on_c, 6, 78, 110
7, 243594, Note_off_c, 6, 78, 127
7, 243600, Note_on_c, 6, 85, 110
7, 243714, Note_off_c, 6, 85, 127
7, 243720, Note_on_c, 6, 90, 110
7, 244239, Note_off_c, 6, 90, 127
7, 246960, Note_on_c, 6, 73, 110
7, 247074, Note_off_c, 6, 73, 127
7, 247080, Note_on_c, 6, 80, 110
7, 247194, Note_off_c, 6, 80, 127
7, 247200, Note_on_c, 6, 85, 110
7, 247314, Note_off_c, 6, 85, 127
7, 247320, Note_on_c, 6, 73, 110
7, 247434, Note_off_c, 6, 73, 127
7, 247440, Note_on_c, 6, 80, 110
7, 247555, Note_off_c, 6, 80, 127
7, 247560, Note_on_c, 6, 85, 110
7, 248079, Note_off_c, 6, 85, 127
7, 281519, Note_on_c, 6, 73, 110
7, 281634, Note_off_c, 6, 73, 127
7, 281639, Note_on_c, 6, 80, 110
7, 281754, Note_off_c, 6, 80, 127
7, 281759, Note_on_c, 6, 85, 110
7, 281874, Note_off_c, 6, 85, 127
7, 281880, Note_on_c, 6, 73, 110
7, 281994, Note_off_c, 6, 73, 127
7, 282000, Note_on_c, 6, 80, 110
7, 282114, Note_off_c, 6, 80, 127
7, 282120, Note_on_c, 6, 85, 110
7, 282639, Note_off_c, 6, 85, 127
7, 285359, Note_on_c, 6, 76, 110
7, 285474, Note_off_c, 6, 76, 127
7, 285480, Note_on_c, 6, 83, 110
7, 285594, Note_off_c, 6, 83, 127
7, 285600, Note_on_c, 6, 88, 110
7, 285714, Note_off_c, 6, 88, 127
7, 285720, Note_on_c, 6, 76, 110
7, 285834, Note_off_c, 6, 76, 127
7, 285840, Note_on_c, 6, 83, 110
7, 285954, Note_off_c, 6, 83, 127
7, 285960, Note_on_c, 6, 88, 110
7, 286479, Note_off_c, 6, 88, 127
7, 289200, Note_on_c, 6, 78, 110
7, 289314, Note_off_c, 6, 78, 127
7, 289320, Note_on_c, 6, 85, 110
7, 289434, Note_off_c, 6, 85, 127
7, 289440, Note_on_c, 6, 90, 110
7, 289554, Note_off_c, 6, 90, 127
7, 289560, Note_on_c, 6, 78, 110
7, 289675, Note_off_c, 6, 78, 127
7, 289680, Note_on_c, 6, 85, 110
7, 289795, Note_off_c, 6, 85, 127
7, 289800, Note_on_c, 6, 90, 110
7, 290319, Note_off_c, 6, 90, 127
7, 293040, Note_on_c, 6, 73, 110
7, 293154, Note_off_c, 6, 73, 127
7, 293160, Note_on_c, 6, 80, 110
7, 293274, Note_off_c, 6, 80, 127
7, 293280, Note_on_c, 6, 85, 110
7, 293395, Note_off_c, 6, 85, 127
7, 293400, Note_on_c, 6, 73, 110
7, 293515, Note_off_c, 6, 73, 127
7, 293520, Note_on_c, 6, 80, 110
7, 293635, Note_off_c, 6, 80, 127
7, 293639, Note_on_c, 6, 85, 110
7, 294160, Note_off_c, 6, 85, 127
7, 295679, End_track
8, 0, Start_track
8, 0, Title_t, "Tempo Track"
8, 0, Control_c, 0, 0, 0
8, 0, Control_c, 0, 10, 64
8, 0, Control_c, 0, 121, 0
8, 0, Control_c, 0, 10, 64
8, 0, Program_c, 0, 0
8, 0, Control_c, 0, 7, 127
8, 0, Control_c, 0, 91, 0
8, 0, Control_c, 0, 32, 0
8, 0, Control_c, 0, 7, 100
8, 0, Control_c, 0, 93, 0
8, 295679, End_track
0, 0, End_of_file
