0, 0, Header, 1, 8, 480
1, 0, Start_track
1, 0, Copyright_t, "Copyright (c) xxxx Copyright Holder"
1, 0, Cue_point_t, "Created by Rosegarden"
1, 0, Cue_point_t, "http://www.rosegardenmusic.com/"
1, 0, Tempo, 535714
1, 0, Time_signature, 4, 2, 24, 8
1, 42239, End_track
2, 0, Start_track
2, 0, Title_t, "Track2"
2, 11520, Note_on_c, 1, 72, 110
2, 11520, Control_c, 1, 91, 0
2, 11520, Control_c, 1, 7, 127
2, 11520, Control_c, 1, 93, 0
2, 11520, Control_c, 1, 10, 64
2, 11520, Control_c, 1, 121, 0
2, 11520, Program_c, 1, 80
2, 11520, Control_c, 1, 32, 0
2, 11520, Control_c, 1, 0, 0
2, 11920, Note_off_c, 1, 72, 127
2, 12719, Note_on_c, 1, 72, 110
2, 12955, Note_off_c, 1, 72, 127
2, 12960, Note_on_c, 1, 75, 110
2, 13194, Note_off_c, 1, 75, 127
2, 13200, Note_on_c, 1, 74, 110
2, 13434, Note_off_c, 1, 74, 127
2, 13439, Note_on_c, 1, 72, 110
2, 13839, Note_off_c, 1, 72, 127
2, 14639, Note_on_c, 1, 72, 110
2, 14874, Note_off_c, 1, 72, 127
2, 14880, Note_on_c, 1, 79, 110
2, 15114, Note_off_c, 1, 79, 127
2, 15120, Note_on_c, 1, 75, 110
2, 15355, Note_off_c, 1, 75, 127
2, 15359, Note_on_c, 1, 72, 110
2, 15759, Note_off_c, 1, 72, 127
2, 16560, Note_on_c, 1, 72, 110
2, 16794, Note_off_c, 1, 72, 127
2, 16800, Note_on_c, 1, 77, 110
2, 17035, Note_off_c, 1, 77, 127
2, 17039, Note_on_c, 1, 75, 110
2, 17275, Note_off_c, 1, 75, 127
2, 17280, Note_on_c, 1, 74, 110
2, 17680, Note_off_c, 1, 74, 127
2, 18480, Note_on_c, 1, 74, 110
2, 18715, Note_off_c, 1, 74, 127
2, 18719, Note_on_c, 1, 75, 110
2, 18955, Note_off_c, 1, 75, 127
2, 18959, Note_on_c, 1, 77, 110
2, 19194, Note_off_c, 1, 77, 127
2, 19200, Note_on_c, 1, 79, 110
2, 19600, Note_off_c, 1, 79, 127
2, 20399, Note_on_c, 1, 79, 110
2, 20635, Note_off_c, 1, 79, 127
2, 20639, Note_on_c, 1, 84, 110
2, 20875, Note_off_c, 1, 84, 127
2, 20880, Note_on_c, 1, 82, 110
2, 21114, Note_off_c, 1, 82, 127
2, 21120, Note_on_c, 1, 80, 110
2, 21519, Note_off_c, 1, 80, 127
2, 22319, Note_on_c, 1, 80, 110
2, 22555, Note_off_c, 1, 80, 127
2, 22560, Note_on_c, 1, 77, 110
2, 22794, Note_off_c, 1, 77, 127
2, 22800, Note_on_c, 1, 74, 110
2, 23035, Note_off_c, 1, 74, 127
2, 23039, Note_on_c, 1, 71, 110
2, 23439, Note_off_c, 1, 71, 127
2, 23999, Note_on_c, 1, 74, 110
2, 24399, Note_off_c, 1, 74, 127
2, 24959, Note_on_c, 1, 79, 110
2, 25360, Note_off_c, 1, 79, 127
2, 26880, Note_on_c, 1, 72, 110
2, 27280, Note_off_c, 1, 72, 127
2, 28080, Note_on_c, 1, 72, 110
2, 28315, Note_off_c, 1, 72, 127
2, 28319, Note_on_c, 1, 75, 110
2, 28555, Note_off_c, 1, 75, 127
2, 28560, Note_on_c, 1, 74, 110
2, 28794, Note_off_c, 1, 74, 127
2, 28800, Note_on_c, 1, 72, 110
2, 29200, Note_off_c, 1, 72, 127
2, 29999, Note_on_c, 1, 72, 110
2, 30235, Note_off_c, 1, 72, 127
2, 30240, Note_on_c, 1, 79, 110
2, 30474, Note_off_c, 1, 79, 127
2, 30480, Note_on_c, 1, 75, 110
2, 30714, Note_off_c, 1, 75, 127
2, 30719, Note_on_c, 1, 72, 110
2, 31119, Note_off_c, 1, 72, 127
2, 31919, Note_on_c, 1, 72, 110
2, 32154, Note_off_c, 1, 72, 127
2, 32160, Note_on_c, 1, 77, 110
2, 32394, Note_off_c, 1, 77, 127
2, 32400, Note_on_c, 1, 75, 110
2, 32635, Note_off_c, 1, 75, 127
2, 32639, Note_on_c, 1, 74, 110
2, 33039, Note_off_c, 1, 74, 127
2, 33840, Note_on_c, 1, 74, 110
2, 34074, Note_off_c, 1, 74, 127
2, 34080, Note_on_c, 1, 75, 110
2, 34315, Note_off_c, 1, 75, 127
2, 34319, Note_on_c, 1, 77, 110
2, 34555, Note_off_c, 1, 77, 127
2, 34560, Note_on_c, 1, 79, 110
2, 34960, Note_off_c, 1, 79, 127
2, 35760, Note_on_c, 1, 79, 110
2, 35995, Note_off_c, 1, 79, 127
2, 35999, Note_on_c, 1, 84, 110
2, 36235, Note_off_c, 1, 84, 127
2, 36239, Note_on_c, 1, 82, 110
2, 36474, Note_off_c, 1, 82, 127
2, 36480, Note_on_c, 1, 80, 110
2, 36880, Note_off_c, 1, 80, 127
2, 37679, Note_on_c, 1, 80, 110
2, 37915, Note_off_c, 1, 80, 127
2, 37919, Note_on_c, 1, 77, 110
2, 38154, Note_off_c, 1, 77, 127
2, 38160, Note_on_c, 1, 74, 110
2, 38394, Note_off_c, 1, 74, 127
2, 38400, Note_on_c, 1, 71, 110
2, 38799, Note_off_c, 1, 71, 127
2, 39359, Note_on_c, 1, 74, 110
2, 39759, Note_off_c, 1, 74, 127
2, 40319, Note_on_c, 1, 79, 110
2, 40719, Note_off_c, 1, 79, 127
2, 42239, End_track
3, 0, Start_track
3, 0, Title_t, "Track3"
3, 11520, Note_on_c, 2, 60, 110
3, 11520, Control_c, 2, 91, 0
3, 11520, Control_c, 2, 7, 127
3, 11520, Control_c, 2, 93, 0
3, 11520, Control_c, 2, 10, 64
3, 11520, Control_c, 2, 121, 0
3, 11520, Program_c, 2, 75
3, 11520, Control_c, 2, 32, 0
3, 11520, Control_c, 2, 0, 0
3, 11754, Note_off_c, 2, 60, 127
3, 11759, Note_on_c, 2, 63, 110
3, 11995, Note_off_c, 2, 63, 127
3, 11999, Note_on_c, 2, 67, 110
3, 12235, Note_off_c, 2, 67, 127
3, 12240, Note_on_c, 2, 72, 110
3, 12474, Note_off_c, 2, 72, 127
3, 12480, Note_on_c, 2, 60, 110
3, 12715, Note_off_c, 2, 60, 127
3, 12719, Note_on_c, 2, 63, 110
3, 12955, Note_off_c, 2, 63, 127
3, 12960, Note_on_c, 2, 67, 110
3, 13194, Note_off_c, 2, 67, 127
3, 13200, Note_on_c, 2, 72, 110
3, 13434, Note_off_c, 2, 72, 127
3, 13439, Note_on_c, 2, 58, 110
3, 13675, Note_off_c, 2, 58, 127
3, 13679, Note_on_c, 2, 60, 110
3, 13915, Note_off_c, 2, 60, 127
3, 13920, Note_on_c, 2, 63, 110
3, 14154, Note_off_c, 2, 63, 127
3, 14160, Note_on_c, 2, 67, 110
3, 14395, Note_off_c, 2, 67, 127
3, 14399, Note_on_c, 2, 58, 110
3, 14635, Note_off_c, 2, 58, 127
3, 14639, Note_on_c, 2, 60, 110
3, 14874, Note_off_c, 2, 60, 127
3, 14880, Note_on_c, 2, 63, 110
3, 15114, Note_off_c, 2, 63, 127
3, 15120, Note_on_c, 2, 67, 110
3, 15355, Note_off_c, 2, 67, 127
3, 15359, Note_on_c, 2, 56, 110
3, 15595, Note_off_c, 2, 56, 127
3, 15600, Note_on_c, 2, 60, 110
3, 15834, Note_off_c, 2, 60, 127
3, 15840, Note_on_c, 2, 63, 110
3, 16074, Note_off_c, 2, 63, 127
3, 16079, Note_on_c, 2, 67, 110
3, 16315, Note_off_c, 2, 67, 127
3, 16319, Note_on_c, 2, 56, 110
3, 16555, Note_off_c, 2, 56, 127
3, 16560, Note_on_c, 2, 60, 110
3, 16794, Note_off_c, 2, 60, 127
3, 16800, Note_on_c, 2, 63, 110
3, 17035, Note_off_c, 2, 63, 127
3, 17039, Note_on_c, 2, 67, 110
3, 17275, Note_off_c, 2, 67, 127
3, 17280, Note_on_c, 2, 58, 110
3, 17514, Note_off_c, 2, 58, 127
3, 17520, Note_on_c, 2, 62, 110
3, 17754, Note_off_c, 2, 62, 127
3, 17759, Note_on_c, 2, 65, 110
3, 17995, Note_off_c, 2, 65, 127
3, 17999, Note_on_c, 2, 70, 110
3, 18235, Note_off_c, 2, 70, 127
3, 18240, Note_on_c, 2, 58, 110
3, 18474, Note_off_c, 2, 58, 127
3, 18480, Note_on_c, 2, 62, 110
3, 18715, Note_off_c, 2, 62, 127
3, 18719, Note_on_c, 2, 65, 110
3, 18955, Note_off_c, 2, 65, 127
3, 18959, Note_on_c, 2, 70, 110
3, 19194, Note_off_c, 2, 70, 127
3, 19200, Note_on_c, 2, 63, 110
3, 19434, Note_off_c, 2, 63, 127
3, 19440, Note_on_c, 2, 67, 110
3, 19675, Note_off_c, 2, 67, 127
3, 19679, Note_on_c, 2, 70, 110
3, 19915, Note_off_c, 2, 70, 127
3, 19920, Note_on_c, 2, 75, 110
3, 20154, Note_off_c, 2, 75, 127
3, 20160, Note_on_c, 2, 63, 110
3, 20394, Note_off_c, 2, 63, 127
3, 20399, Note_on_c, 2, 67, 110
3, 20635, Note_off_c, 2, 67, 127
3, 20639, Note_on_c, 2, 70, 110
3, 20875, Note_off_c, 2, 70, 127
3, 20880, Note_on_c, 2, 75, 110
3, 21114, Note_off_c, 2, 75, 127
3, 21120, Note_on_c, 2, 65, 110
3, 21355, Note_off_c, 2, 65, 127
3, 21359, Note_on_c, 2, 70, 110
3, 21595, Note_off_c, 2, 70, 127
3, 21600, Note_on_c, 2, 72, 110
3, 21834, Note_off_c, 2, 72, 127
3, 21840, Note_on_c, 2, 77, 110
3, 22074, Note_off_c, 2, 77, 127
3, 22079, Note_on_c, 2, 65, 110
3, 22315, Note_off_c, 2, 65, 127
3, 22319, Note_on_c, 2, 70, 110
3, 22555, Note_off_c, 2, 70, 127
3, 22560, Note_on_c, 2, 72, 110
3, 22794, Note_off_c, 2, 72, 127
3, 22800, Note_on_c, 2, 77, 110
3, 23035, Note_off_c, 2, 77, 127
3, 23039, Note_on_c, 2, 67, 110
3, 23275, Note_off_c, 2, 67, 127
3, 23279, Note_on_c, 2, 71, 110
3, 23514, Note_off_c, 2, 71, 127
3, 23520, Note_on_c, 2, 74, 110
3, 23754, Note_off_c, 2, 74, 127
3, 23760, Note_on_c, 2, 77, 110
3, 23995, Note_off_c, 2, 77, 127
3, 23999, Note_on_c, 2, 67, 110
3, 24235, Note_off_c, 2, 67, 127
3, 24240, Note_on_c, 2, 71, 110
3, 24474, Note_off_c, 2, 71, 127
3, 24480, Note_on_c, 2, 74, 110
3, 24714, Note_off_c, 2, 74, 127
3, 24719, Note_on_c, 2, 77, 110
3, 24955, Note_off_c, 2, 77, 127
3, 24959, Note_on_c, 2, 67, 110
3, 25195, Note_off_c, 2, 67, 127
3, 25200, Note_on_c, 2, 71, 110
3, 25434, Note_off_c, 2, 71, 127
3, 25440, Note_on_c, 2, 74, 110
3, 25675, Note_off_c, 2, 74, 127
3, 25679, Note_on_c, 2, 77, 110
3, 25915, Note_off_c, 2, 77, 127
3, 25920, Note_on_c, 2, 74, 110
3, 26154, Note_off_c, 2, 74, 127
3, 26160, Note_on_c, 2, 71, 110
3, 26394, Note_off_c, 2, 71, 127
3, 26399, Note_on_c, 2, 67, 110
3, 26635, Note_off_c, 2, 67, 127
3, 26639, Note_on_c, 2, 65, 110
3, 26875, Note_off_c, 2, 65, 127
3, 26880, Note_on_c, 2, 60, 110
3, 27114, Note_off_c, 2, 60, 127
3, 27120, Note_on_c, 2, 63, 110
3, 27355, Note_off_c, 2, 63, 127
3, 27359, Note_on_c, 2, 67, 110
3, 27595, Note_off_c, 2, 67, 127
3, 27599, Note_on_c, 2, 72, 110
3, 27834, Note_off_c, 2, 72, 127
3, 27840, Note_on_c, 2, 60, 110
3, 28074, Note_off_c, 2, 60, 127
3, 28080, Note_on_c, 2, 63, 110
3, 28315, Note_off_c, 2, 63, 127
3, 28319, Note_on_c, 2, 67, 110
3, 28555, Note_off_c, 2, 67, 127
3, 28560, Note_on_c, 2, 72, 110
3, 28794, Note_off_c, 2, 72, 127
3, 28800, Note_on_c, 2, 58, 110
3, 29035, Note_off_c, 2, 58, 127
3, 29039, Note_on_c, 2, 60, 110
3, 29275, Note_off_c, 2, 60, 127
3, 29279, Note_on_c, 2, 63, 110
3, 29515, Note_off_c, 2, 63, 127
3, 29520, Note_on_c, 2, 67, 110
3, 29754, Note_off_c, 2, 67, 127
3, 29760, Note_on_c, 2, 58, 110
3, 29995, Note_off_c, 2, 58, 127
3, 29999, Note_on_c, 2, 60, 110
3, 30235, Note_off_c, 2, 60, 127
3, 30240, Note_on_c, 2, 63, 110
3, 30474, Note_off_c, 2, 63, 127
3, 30480, Note_on_c, 2, 67, 110
3, 30714, Note_off_c, 2, 67, 127
3, 30719, Note_on_c, 2, 56, 110
3, 30955, Note_off_c, 2, 56, 127
3, 30959, Note_on_c, 2, 60, 110
3, 31195, Note_off_c, 2, 60, 127
3, 31200, Note_on_c, 2, 63, 110
3, 31434, Note_off_c, 2, 63, 127
3, 31440, Note_on_c, 2, 67, 110
3, 31675, Note_off_c, 2, 67, 127
3, 31679, Note_on_c, 2, 56, 110
3, 31915, Note_off_c, 2, 56, 127
3, 31919, Note_on_c, 2, 60, 110
3, 32154, Note_off_c, 2, 60, 127
3, 32160, Note_on_c, 2, 63, 110
3, 32394, Note_off_c, 2, 63, 127
3, 32400, Note_on_c, 2, 67, 110
3, 32635, Note_off_c, 2, 67, 127
3, 32639, Note_on_c, 2, 58, 110
3, 32875, Note_off_c, 2, 58, 127
3, 32880, Note_on_c, 2, 62, 110
3, 33114, Note_off_c, 2, 62, 127
3, 33120, Note_on_c, 2, 65, 110
3, 33355, Note_off_c, 2, 65, 127
3, 33359, Note_on_c, 2, 70, 110
3, 33595, Note_off_c, 2, 70, 127
3, 33599, Note_on_c, 2, 58, 110
3, 33834, Note_off_c, 2, 58, 127
3, 33840, Note_on_c, 2, 62, 110
3, 34074, Note_off_c, 2, 62, 127
3, 34080, Note_on_c, 2, 65, 110
3, 34315, Note_off_c, 2, 65, 127
3, 34319, Note_on_c, 2, 70, 110
3, 34555, Note_off_c, 2, 70, 127
3, 34560, Note_on_c, 2, 63, 110
3, 34794, Note_off_c, 2, 63, 127
3, 34800, Note_on_c, 2, 67, 110
3, 35034, Note_off_c, 2, 67, 127
3, 35039, Note_on_c, 2, 70, 110
3, 35275, Note_off_c, 2, 70, 127
3, 35279, Note_on_c, 2, 75, 110
3, 35515, Note_off_c, 2, 75, 127
3, 35520, Note_on_c, 2, 63, 110
3, 35754, Note_off_c, 2, 63, 127
3, 35760, Note_on_c, 2, 67, 110
3, 35995, Note_off_c, 2, 67, 127
3, 35999, Note_on_c, 2, 70, 110
3, 36235, Note_off_c, 2, 70, 127
3, 36239, Note_on_c, 2, 75, 110
3, 36474, Note_off_c, 2, 75, 127
3, 36480, Note_on_c, 2, 65, 110
3, 36714, Note_off_c, 2, 65, 127
3, 36720, Note_on_c, 2, 70, 110
3, 36955, Note_off_c, 2, 70, 127
3, 36959, Note_on_c, 2, 72, 110
3, 37195, Note_off_c, 2, 72, 127
3, 37200, Note_on_c, 2, 77, 110
3, 37434, Note_off_c, 2, 77, 127
3, 37440, Note_on_c, 2, 65, 110
3, 37675, Note_off_c, 2, 65, 127
3, 37679, Note_on_c, 2, 70, 110
3, 37915, Note_off_c, 2, 70, 127
3, 37919, Note_on_c, 2, 72, 110
3, 38154, Note_off_c, 2, 72, 127
3, 38160, Note_on_c, 2, 77, 110
3, 38394, Note_off_c, 2, 77, 127
3, 38400, Note_on_c, 2, 67, 110
3, 38635, Note_off_c, 2, 67, 127
3, 38639, Note_on_c, 2, 71, 110
3, 38875, Note_off_c, 2, 71, 127
3, 38880, Note_on_c, 2, 74, 110
3, 39114, Note_off_c, 2, 74, 127
3, 39120, Note_on_c, 2, 77, 110
3, 39354, Note_off_c, 2, 77, 127
3, 39359, Note_on_c, 2, 67, 110
3, 39595, Note_off_c, 2, 67, 127
3, 39599, Note_on_c, 2, 71, 110
3, 39835, Note_off_c, 2, 71, 127
3, 39840, Note_on_c, 2, 74, 110
3, 40074, Note_off_c, 2, 74, 127
3, 40080, Note_on_c, 2, 77, 110
3, 40315, Note_off_c, 2, 77, 127
3, 40319, Note_on_c, 2, 67, 110
3, 40555, Note_off_c, 2, 67, 127
3, 40560, Note_on_c, 2, 71, 110
3, 40794, Note_off_c, 2, 71, 127
3, 40800, Note_on_c, 2, 74, 110
3, 41034, Note_off_c, 2, 74, 127
3, 41040, Note_on_c, 2, 77, 110
3, 41275, Note_off_c, 2, 77, 127
3, 41279, Note_on_c, 2, 74, 110
3, 41515, Note_off_c, 2, 74, 127
3, 41520, Note_on_c, 2, 71, 110
3, 41754, Note_off_c, 2, 71, 127
3, 41760, Note_on_c, 2, 67, 110
3, 41995, Note_off_c, 2, 67, 127
3, 41999, Note_on_c, 2, 65, 110
3, 42235, Note_off_c, 2, 65, 127
3, 42239, End_track
4, 0, Start_track
4, 0, Title_t, "Track4"
4, 3840, Program_c, 3, 33
4, 3840, Control_c, 3, 32, 0
4, 3840, Control_c, 3, 0, 0
4, 3840, Note_on_c, 3, 48, 110
4, 3840, Control_c, 3, 91, 0
4, 3840, Control_c, 3, 7, 127
4, 3840, Control_c, 3, 93, 0
4, 3840, Control_c, 3, 10, 64
4, 3840, Control_c, 3, 121, 0
4, 4075, Note_off_c, 3, 48, 127
4, 4079, Note_on_c, 3, 48, 110
4, 4315, Note_off_c, 3, 48, 127
4, 4439, Note_on_c, 3, 48, 110
4, 4794, Note_off_c, 3, 48, 127
4, 4799, Note_on_c, 3, 48, 110
4, 5199, Note_off_c, 3, 48, 127
4, 5759, Note_on_c, 3, 44, 110
4, 5995, Note_off_c, 3, 44, 127
4, 5999, Note_on_c, 3, 44, 110
4, 6234, Note_off_c, 3, 44, 127
4, 6359, Note_on_c, 3, 44, 110
4, 6715, Note_off_c, 3, 44, 127
4, 6719, Note_on_c, 3, 44, 110
4, 7119, Note_off_c, 3, 44, 127
4, 7679, Note_on_c, 3, 46, 110
4, 7915, Note_off_c, 3, 46, 127
4, 7920, Note_on_c, 3, 46, 110
4, 8154, Note_off_c, 3, 46, 127
4, 8280, Note_on_c, 3, 46, 110
4, 8635, Note_off_c, 3, 46, 127
4, 8640, Note_on_c, 3, 46, 110
4, 9040, Note_off_c, 3, 46, 127
4, 9600, Note_on_c, 3, 43, 110
4, 9834, Note_off_c, 3, 43, 127
4, 9840, Note_on_c, 3, 43, 110
4, 10075, Note_off_c, 3, 43, 127
4, 10200, Note_on_c, 3, 43, 110
4, 10554, Note_off_c, 3, 43, 127
4, 10560, Note_on_c, 3, 43, 110
4, 10960, Note_off_c, 3, 43, 127
4, 11520, Note_on_c, 3, 48, 110
4, 11754, Note_off_c, 3, 48, 127
4, 11759, Note_on_c, 3, 48, 110
4, 11995, Note_off_c, 3, 48, 127
4, 12120, Note_on_c, 3, 48, 110
4, 12474, Note_off_c, 3, 48, 127
4, 12480, Note_on_c, 3, 48, 110
4, 12879, Note_off_c, 3, 48, 127
4, 13439, Note_on_c, 3, 46, 110
4, 13675, Note_off_c, 3, 46, 127
4, 13679, Note_on_c, 3, 55, 110
4, 13915, Note_off_c, 3, 55, 127
4, 13920, Note_on_c, 3, 46, 110
4, 14035, Note_off_c, 3, 46, 127
4, 14039, Note_on_c, 3, 51, 110
4, 14395, Note_off_c, 3, 51, 127
4, 14399, Note_on_c, 3, 46, 110
4, 14799, Note_off_c, 3, 46, 127
4, 15359, Note_on_c, 3, 44, 110
4, 15595, Note_off_c, 3, 44, 127
4, 15600, Note_on_c, 3, 44, 110
4, 15834, Note_off_c, 3, 44, 127
4, 15959, Note_on_c, 3, 44, 110
4, 16315, Note_off_c, 3, 44, 127
4, 16319, Note_on_c, 3, 44, 110
4, 16720, Note_off_c, 3, 44, 127
4, 17280, Note_on_c, 3, 46, 110
4, 17514, Note_off_c, 3, 46, 127
4, 17520, Note_on_c, 3, 53, 110
4, 17754, Note_off_c, 3, 53, 127
4, 17759, Note_on_c, 3, 46, 110
4, 17874, Note_off_c, 3, 46, 127
4, 17880, Note_on_c, 3, 50, 110
4, 18235, Note_off_c, 3, 50, 127
4, 18240, Note_on_c, 3, 46, 110
4, 18640, Note_off_c, 3, 46, 127
4, 19200, Note_on_c, 3, 51, 110
4, 19434, Note_off_c, 3, 51, 127
4, 19440, Note_on_c, 3, 51, 110
4, 19675, Note_off_c, 3, 51, 127
4, 19800, Note_on_c, 3, 51, 110
4, 20154, Note_off_c, 3, 51, 127
4, 20160, Note_on_c, 3, 51, 110
4, 20560, Note_off_c, 3, 51, 127
4, 21120, Note_on_c, 3, 53, 110
4, 21355, Note_off_c, 3, 53, 127
4, 21359, Note_on_c, 3, 60, 110
4, 21595, Note_off_c, 3, 60, 127
4, 21600, Note_on_c, 3, 53, 110
4, 21715, Note_off_c, 3, 53, 127
4, 21719, Note_on_c, 3, 56, 110
4, 22074, Note_off_c, 3, 56, 127
4, 22079, Note_on_c, 3, 53, 110
4, 22479, Note_off_c, 3, 53, 127
4, 23039, Note_on_c, 3, 55, 110
4, 23275, Note_off_c, 3, 55, 127
4, 23279, Note_on_c, 3, 55, 110
4, 23514, Note_off_c, 3, 55, 127
4, 23639, Note_on_c, 3, 55, 110
4, 23995, Note_off_c, 3, 55, 127
4, 23999, Note_on_c, 3, 55, 110
4, 24399, Note_off_c, 3, 55, 127
4, 24959, Note_on_c, 3, 55, 110
4, 25195, Note_off_c, 3, 55, 127
4, 25200, Note_on_c, 3, 62, 110
4, 25434, Note_off_c, 3, 62, 127
4, 25440, Note_on_c, 3, 55, 110
4, 25555, Note_off_c, 3, 55, 127
4, 25560, Note_on_c, 3, 59, 110
4, 25915, Note_off_c, 3, 59, 127
4, 25920, Note_on_c, 3, 55, 110
4, 26320, Note_off_c, 3, 55, 127
4, 26880, Note_on_c, 3, 48, 110
4, 27114, Note_off_c, 3, 48, 127
4, 27120, Note_on_c, 3, 48, 110
4, 27355, Note_off_c, 3, 48, 127
4, 27480, Note_on_c, 3, 48, 110
4, 27834, Note_off_c, 3, 48, 127
4, 27840, Note_on_c, 3, 48, 110
4, 28240, Note_off_c, 3, 48, 127
4, 28800, Note_on_c, 3, 46, 110
4, 29035, Note_off_c, 3, 46, 127
4, 29039, Note_on_c, 3, 55, 110
4, 29275, Note_off_c, 3, 55, 127
4, 29279, Note_on_c, 3, 46, 110
4, 29394, Note_off_c, 3, 46, 127
4, 29399, Note_on_c, 3, 51, 110
4, 29754, Note_off_c, 3, 51, 127
4, 29760, Note_on_c, 3, 46, 110
4, 30159, Note_off_c, 3, 46, 127
4, 30719, Note_on_c, 3, 44, 110
4, 30955, Note_off_c, 3, 44, 127
4, 30959, Note_on_c, 3, 44, 110
4, 31195, Note_off_c, 3, 44, 127
4, 31319, Note_on_c, 3, 44, 110
4, 31675, Note_off_c, 3, 44, 127
4, 31679, Note_on_c, 3, 44, 110
4, 32079, Note_off_c, 3, 44, 127
4, 32639, Note_on_c, 3, 46, 110
4, 32875, Note_off_c, 3, 46, 127
4, 32880, Note_on_c, 3, 53, 110
4, 33114, Note_off_c, 3, 53, 127
4, 33120, Note_on_c, 3, 46, 110
4, 33235, Note_off_c, 3, 46, 127
4, 33240, Note_on_c, 3, 50, 110
4, 33595, Note_off_c, 3, 50, 127
4, 33599, Note_on_c, 3, 46, 110
4, 34000, Note_off_c, 3, 46, 127
4, 34560, Note_on_c, 3, 51, 110
4, 34794, Note_off_c, 3, 51, 127
4, 34800, Note_on_c, 3, 51, 110
4, 35034, Note_off_c, 3, 51, 127
4, 35160, Note_on_c, 3, 51, 110
4, 35515, Note_off_c, 3, 51, 127
4, 35520, Note_on_c, 3, 51, 110
4, 35920, Note_off_c, 3, 51, 127
4, 36480, Note_on_c, 3, 53, 110
4, 36714, Note_off_c, 3, 53, 127
4, 36720, Note_on_c, 3, 60, 110
4, 36955, Note_off_c, 3, 60, 127
4, 36959, Note_on_c, 3, 53, 110
4, 37074, Note_off_c, 3, 53, 127
4, 37080, Note_on_c, 3, 56, 110
4, 37434, Note_off_c, 3, 56, 127
4, 37440, Note_on_c, 3, 53, 110
4, 37840, Note_off_c, 3, 53, 127
4, 38400, Note_on_c, 3, 55, 110
4, 38635, Note_off_c, 3, 55, 127
4, 38639, Note_on_c, 3, 55, 110
4, 38875, Note_off_c, 3, 55, 127
4, 38999, Note_on_c, 3, 55, 110
4, 39354, Note_off_c, 3, 55, 127
4, 39359, Note_on_c, 3, 55, 110
4, 39759, Note_off_c, 3, 55, 127
4, 40319, Note_on_c, 3, 55, 110
4, 40555, Note_off_c, 3, 55, 127
4, 40560, Note_on_c, 3, 62, 110
4, 40794, Note_off_c, 3, 62, 127
4, 40800, Note_on_c, 3, 55, 110
4, 40915, Note_off_c, 3, 55, 127
4, 40919, Note_on_c, 3, 59, 110
4, 41275, Note_off_c, 3, 59, 127
4, 41279, Note_on_c, 3, 55, 110
4, 41679, Note_off_c, 3, 55, 127
4, 42239, End_track
5, 0, Start_track
5, 0, Title_t, "Track6"
5, 11520, Control_c, 4, 0, 0
5, 11520, Note_on_c, 4, 72, 110
5, 11520, Control_c, 4, 91, 0
5, 11520, Control_c, 4, 7, 127
5, 11520, Control_c, 4, 93, 0
5, 11520, Control_c, 4, 10, 64
5, 11520, Control_c, 4, 121, 0
5, 11520, Program_c, 4, 98
5, 11520, Control_c, 4, 32, 0
5, 11920, Note_off_c, 4, 72, 127
5, 12719, Note_on_c, 4, 72, 110
5, 12955, Note_off_c, 4, 72, 127
5, 12960, Note_on_c, 4, 75, 110
5, 13194, Note_off_c, 4, 75, 127
5, 13200, Note_on_c, 4, 74, 110
5, 13434, Note_off_c, 4, 74, 127
5, 13439, Note_on_c, 4, 72, 110
5, 13839, Note_off_c, 4, 72, 127
5, 14639, Note_on_c, 4, 72, 110
5, 14874, Note_off_c, 4, 72, 127
5, 14880, Note_on_c, 4, 79, 110
5, 15114, Note_off_c, 4, 79, 127
5, 15120, Note_on_c, 4, 75, 110
5, 15355, Note_off_c, 4, 75, 127
5, 15359, Note_on_c, 4, 72, 110
5, 15759, Note_off_c, 4, 72, 127
5, 16560, Note_on_c, 4, 72, 110
5, 16794, Note_off_c, 4, 72, 127
5, 16800, Note_on_c, 4, 77, 110
5, 17035, Note_off_c, 4, 77, 127
5, 17039, Note_on_c, 4, 75, 110
5, 17275, Note_off_c, 4, 75, 127
5, 17280, Note_on_c, 4, 74, 110
5, 17680, Note_off_c, 4, 74, 127
5, 18480, Note_on_c, 4, 74, 110
5, 18715, Note_off_c, 4, 74, 127
5, 18719, Note_on_c, 4, 75, 110
5, 18955, Note_off_c, 4, 75, 127
5, 18959, Note_on_c, 4, 77, 110
5, 19194, Note_off_c, 4, 77, 127
5, 19200, Note_on_c, 4, 79, 110
5, 19600, Note_off_c, 4, 79, 127
5, 20399, Note_on_c, 4, 79, 110
5, 20635, Note_off_c, 4, 79, 127
5, 20639, Note_on_c, 4, 84, 110
5, 20875, Note_off_c, 4, 84, 127
5, 20880, Note_on_c, 4, 82, 110
5, 21114, Note_off_c, 4, 82, 127
5, 21120, Note_on_c, 4, 80, 110
5, 21519, Note_off_c, 4, 80, 127
5, 22319, Note_on_c, 4, 80, 110
5, 22555, Note_off_c, 4, 80, 127
5, 22560, Note_on_c, 4, 77, 110
5, 22794, Note_off_c, 4, 77, 127
5, 22800, Note_on_c, 4, 74, 110
5, 23035, Note_off_c, 4, 74, 127
5, 23039, Note_on_c, 4, 71, 110
5, 23439, Note_off_c, 4, 71, 127
5, 23999, Note_on_c, 4, 74, 110
5, 24399, Note_off_c, 4, 74, 127
5, 24959, Note_on_c, 4, 79, 110
5, 25360, Note_off_c, 4, 79, 127
5, 26880, Note_on_c, 4, 72, 110
5, 27280, Note_off_c, 4, 72, 127
5, 28080, Note_on_c, 4, 72, 110
5, 28315, Note_off_c, 4, 72, 127
5, 28319, Note_on_c, 4, 75, 110
5, 28555, Note_off_c, 4, 75, 127
5, 28560, Note_on_c, 4, 74, 110
5, 28794, Note_off_c, 4, 74, 127
5, 28800, Note_on_c, 4, 72, 110
5, 29200, Note_off_c, 4, 72, 127
5, 29999, Note_on_c, 4, 72, 110
5, 30235, Note_off_c, 4, 72, 127
5, 30240, Note_on_c, 4, 79, 110
5, 30474, Note_off_c, 4, 79, 127
5, 30480, Note_on_c, 4, 75, 110
5, 30714, Note_off_c, 4, 75, 127
5, 30719, Note_on_c, 4, 72, 110
5, 31119, Note_off_c, 4, 72, 127
5, 31919, Note_on_c, 4, 72, 110
5, 32154, Note_off_c, 4, 72, 127
5, 32160, Note_on_c, 4, 77, 110
5, 32394, Note_off_c, 4, 77, 127
5, 32400, Note_on_c, 4, 75, 110
5, 32635, Note_off_c, 4, 75, 127
5, 32639, Note_on_c, 4, 74, 110
5, 33039, Note_off_c, 4, 74, 127
5, 33840, Note_on_c, 4, 74, 110
5, 34074, Note_off_c, 4, 74, 127
5, 34080, Note_on_c, 4, 75, 110
5, 34315, Note_off_c, 4, 75, 127
5, 34319, Note_on_c, 4, 77, 110
5, 34555, Note_off_c, 4, 77, 127
5, 34560, Note_on_c, 4, 79, 110
5, 34960, Note_off_c, 4, 79, 127
5, 35760, Note_on_c, 4, 79, 110
5, 35995, Note_off_c, 4, 79, 127
5, 35999, Note_on_c, 4, 84, 110
5, 36235, Note_off_c, 4, 84, 127
5, 36239, Note_on_c, 4, 82, 110
5, 36474, Note_off_c, 4, 82, 127
5, 36480, Note_on_c, 4, 80, 110
5, 36880, Note_off_c, 4, 80, 127
5, 37679, Note_on_c, 4, 80, 110
5, 37915, Note_off_c, 4, 80, 127
5, 37919, Note_on_c, 4, 77, 110
5, 38154, Note_off_c, 4, 77, 127
5, 38160, Note_on_c, 4, 74, 110
5, 38394, Note_off_c, 4, 74, 127
5, 38400, Note_on_c, 4, 71, 110
5, 38799, Note_off_c, 4, 71, 127
5, 39359, Note_on_c, 4, 74, 110
5, 39759, Note_off_c, 4, 74, 127
5, 40319, Note_on_c, 4, 79, 110
5, 40719, Note_off_c, 4, 79, 127
5, 42239, End_track
6, 0, Start_track
6, 0, Title_t, "Track7"
6, 3840, Note_on_c, 5, 75, 110
6, 3840, Control_c, 5, 91, 0
6, 3840, Control_c, 5, 7, 127
6, 3840, Control_c, 5, 93, 0
6, 3840, Control_c, 5, 10, 64
6, 3840, Control_c, 5, 121, 0
6, 3840, Program_c, 5, 74
6, 3840, Control_c, 5, 32, 0
6, 3840, Control_c, 5, 0, 0
6, 3840, Note_on_c, 5, 84, 110
6, 3840, Note_on_c, 5, 79, 110
6, 5640, Note_off_c, 5, 84, 127
6, 5640, Note_off_c, 5, 79, 127
6, 5640, Note_off_c, 5, 75, 127
6, 5759, Note_on_c, 5, 84, 110
6, 5759, Note_on_c, 5, 79, 110
6, 5759, Note_on_c, 5, 75, 110
6, 7560, Note_off_c, 5, 84, 127
6, 7560, Note_off_c, 5, 79, 127
6, 7560, Note_off_c, 5, 75, 127
6, 7679, Note_on_c, 5, 82, 110
6, 7679, Note_on_c, 5, 79, 110
6, 7679, Note_on_c, 5, 75, 110
6, 9480, Note_off_c, 5, 82, 127
6, 9480, Note_off_c, 5, 79, 127
6, 9480, Note_off_c, 5, 75, 127
6, 9600, Note_on_c, 5, 83, 110
6, 9600, Note_on_c, 5, 79, 110
6, 9600, Note_on_c, 5, 74, 110
6, 10439, Note_off_c, 5, 83, 127
6, 10439, Note_off_c, 5, 79, 127
6, 10439, Note_off_c, 5, 74, 127
6, 10560, Note_on_c, 5, 86, 110
6, 10675, Note_off_c, 5, 86, 127
6, 10679, Note_on_c, 5, 83, 110
6, 10794, Note_off_c, 5, 83, 127
6, 10800, Note_on_c, 5, 79, 110
6, 10915, Note_off_c, 5, 79, 127
6, 10920, Note_on_c, 5, 77, 110
6, 11035, Note_off_c, 5, 77, 127
6, 11039, Note_on_c, 5, 74, 110
6, 11154, Note_off_c, 5, 74, 127
6, 11160, Note_on_c, 5, 71, 110
6, 11275, Note_off_c, 5, 71, 127
6, 11280, Note_on_c, 5, 67, 110
6, 11395, Note_off_c, 5, 67, 127
6, 11399, Note_on_c, 5, 65, 110
6, 11514, Note_off_c, 5, 65, 127
6, 11520, Note_on_c, 5, 72, 110
6, 11920, Note_off_c, 5, 72, 127
6, 12719, Note_on_c, 5, 72, 110
6, 12955, Note_off_c, 5, 72, 127
6, 12960, Note_on_c, 5, 75, 110
6, 13194, Note_off_c, 5, 75, 127
6, 13200, Note_on_c, 5, 74, 110
6, 13434, Note_off_c, 5, 74, 127
6, 13439, Note_on_c, 5, 72, 110
6, 13839, Note_off_c, 5, 72, 127
6, 14639, Note_on_c, 5, 72, 110
6, 14874, Note_off_c, 5, 72, 127
6, 14880, Note_on_c, 5, 79, 110
6, 15114, Note_off_c, 5, 79, 127
6, 15120, Note_on_c, 5, 75, 110
6, 15355, Note_off_c, 5, 75, 127
6, 15359, Note_on_c, 5, 72, 110
6, 15759, Note_off_c, 5, 72, 127
6, 16560, Note_on_c, 5, 72, 110
6, 16794, Note_off_c, 5, 72, 127
6, 16800, Note_on_c, 5, 77, 110
6, 17035, Note_off_c, 5, 77, 127
6, 17039, Note_on_c, 5, 75, 110
6, 17275, Note_off_c, 5, 75, 127
6, 17280, Note_on_c, 5, 74, 110
6, 17680, Note_off_c, 5, 74, 127
6, 18480, Note_on_c, 5, 74, 110
6, 18715, Note_off_c, 5, 74, 127
6, 18719, Note_on_c, 5, 75, 110
6, 18955, Note_off_c, 5, 75, 127
6, 18959, Note_on_c, 5, 77, 110
6, 19194, Note_off_c, 5, 77, 127
6, 19200, Note_on_c, 5, 79, 110
6, 19600, Note_off_c, 5, 79, 127
6, 20399, Note_on_c, 5, 79, 110
6, 20635, Note_off_c, 5, 79, 127
6, 20639, Note_on_c, 5, 84, 110
6, 20875, Note_off_c, 5, 84, 127
6, 20880, Note_on_c, 5, 82, 110
6, 21114, Note_off_c, 5, 82, 127
6, 21120, Note_on_c, 5, 80, 110
6, 21519, Note_off_c, 5, 80, 127
6, 22319, Note_on_c, 5, 80, 110
6, 22555, Note_off_c, 5, 80, 127
6, 22560, Note_on_c, 5, 77, 110
6, 22794, Note_off_c, 5, 77, 127
6, 22800, Note_on_c, 5, 74, 110
6, 23035, Note_off_c, 5, 74, 127
6, 23039, Note_on_c, 5, 71, 110
6, 23439, Note_off_c, 5, 71, 127
6, 23999, Note_on_c, 5, 74, 110
6, 24399, Note_off_c, 5, 74, 127
6, 24959, Note_on_c, 5, 79, 110
6, 25360, Note_off_c, 5, 79, 127
6, 26880, Note_on_c, 5, 72, 110
6, 27280, Note_off_c, 5, 72, 127
6, 28080, Note_on_c, 5, 72, 110
6, 28315, Note_off_c, 5, 72, 127
6, 28319, Note_on_c, 5, 75, 110
6, 28555, Note_off_c, 5, 75, 127
6, 28560, Note_on_c, 5, 74, 110
6, 28794, Note_off_c, 5, 74, 127
6, 28800, Note_on_c, 5, 72, 110
6, 29200, Note_off_c, 5, 72, 127
6, 29999, Note_on_c, 5, 72, 110
6, 30235, Note_off_c, 5, 72, 127
6, 30240, Note_on_c, 5, 79, 110
6, 30474, Note_off_c, 5, 79, 127
6, 30480, Note_on_c, 5, 75, 110
6, 30714, Note_off_c, 5, 75, 127
6, 30719, Note_on_c, 5, 72, 110
6, 31119, Note_off_c, 5, 72, 127
6, 31919, Note_on_c, 5, 72, 110
6, 32154, Note_off_c, 5, 72, 127
6, 32160, Note_on_c, 5, 77, 110
6, 32394, Note_off_c, 5, 77, 127
6, 32400, Note_on_c, 5, 75, 110
6, 32635, Note_off_c, 5, 75, 127
6, 32639, Note_on_c, 5, 74, 110
6, 33039, Note_off_c, 5, 74, 127
6, 33840, Note_on_c, 5, 74, 110
6, 34074, Note_off_c, 5, 74, 127
6, 34080, Note_on_c, 5, 75, 110
6, 34315, Note_off_c, 5, 75, 127
6, 34319, Note_on_c, 5, 77, 110
6, 34555, Note_off_c, 5, 77, 127
6, 34560, Note_on_c, 5, 79, 110
6, 34960, Note_off_c, 5, 79, 127
6, 35760, Note_on_c, 5, 79, 110
6, 35995, Note_off_c, 5, 79, 127
6, 35999, Note_on_c, 5, 84, 110
6, 36235, Note_off_c, 5, 84, 127
6, 36239, Note_on_c, 5, 82, 110
6, 36474, Note_off_c, 5, 82, 127
6, 36480, Note_on_c, 5, 80, 110
6, 36880, Note_off_c, 5, 80, 127
6, 37679, Note_on_c, 5, 80, 110
6, 37915, Note_off_c, 5, 80, 127
6, 37919, Note_on_c, 5, 77, 110
6, 38154, Note_off_c, 5, 77, 127
6, 38160, Note_on_c, 5, 74, 110
6, 38394, Note_off_c, 5, 74, 127
6, 38400, Note_on_c, 5, 71, 110
6, 38799, Note_off_c, 5, 71, 127
6, 39359, Note_on_c, 5, 74, 110
6, 39759, Note_off_c, 5, 74, 127
6, 40319, Note_on_c, 5, 79, 110
6, 40719, Note_off_c, 5, 79, 127
6, 42239, End_track
7, 0, Start_track
7, 0, Title_t, "Track5"
7, 3840, Control_c, 6, 0, 0
7, 3840, Note_on_c, 6, 72, 110
7, 3840, Control_c, 6, 91, 0
7, 3840, Control_c, 6, 7, 127
7, 3840, Control_c, 6, 93, 0
7, 3840, Control_c, 6, 10, 64
7, 3840, Control_c, 6, 121, 0
7, 3840, Program_c, 6, 11
7, 3840, Control_c, 6, 32, 0
7, 5640, Note_off_c, 6, 72, 127
7, 5759, Note_on_c, 6, 72, 110
7, 7560, Note_off_c, 6, 72, 127
7, 7679, Note_on_c, 6, 70, 110
7, 9480, Note_off_c, 6, 70, 127
7, 9600, Note_on_c, 6, 71, 110
7, 11399, Note_off_c, 6, 71, 127
7, 11759, Note_on_c, 6, 75, 110
7, 11995, Note_off_c, 6, 75, 127
7, 12120, Note_on_c, 6, 75, 110
7, 12474, Note_off_c, 6, 75, 127
7, 12480, Note_on_c, 6, 75, 110
7, 12879, Note_off_c, 6, 75, 127
7, 13679, Note_on_c, 6, 75, 110
7, 13915, Note_off_c, 6, 75, 127
7, 14039, Note_on_c, 6, 75, 110
7, 14395, Note_off_c, 6, 75, 127
7, 14399, Note_on_c, 6, 75, 110
7, 14799, Note_off_c, 6, 75, 127
7, 15600, Note_on_c, 6, 75, 110
7, 15834, Note_off_c, 6, 75, 127
7, 15959, Note_on_c, 6, 75, 110
7, 16315, Note_off_c, 6, 75, 127
7, 16319, Note_on_c, 6, 75, 110
7, 16720, Note_off_c, 6, 75, 127
7, 17520, Note_on_c, 6, 74, 110
7, 17754, Note_off_c, 6, 74, 127
7, 17880, Note_on_c, 6, 74, 110
7, 18235, Note_off_c, 6, 74, 127
7, 18240, Note_on_c, 6, 74, 110
7, 18640, Note_off_c, 6, 74, 127
7, 19440, Note_on_c, 6, 79, 110
7, 19675, Note_off_c, 6, 79, 127
7, 19800, Note_on_c, 6, 79, 110
7, 20154, Note_off_c, 6, 79, 127
7, 20160, Note_on_c, 6, 79, 110
7, 20560, Note_off_c, 6, 79, 127
7, 21359, Note_on_c, 6, 80, 110
7, 21595, Note_off_c, 6, 80, 127
7, 21719, Note_on_c, 6, 80, 110
7, 22074, Note_off_c, 6, 80, 127
7, 22079, Note_on_c, 6, 80, 110
7, 22479, Note_off_c, 6, 80, 127
7, 23279, Note_on_c, 6, 77, 110
7, 23514, Note_off_c, 6, 77, 127
7, 23639, Note_on_c, 6, 77, 110
7, 23995, Note_off_c, 6, 77, 127
7, 23999, Note_on_c, 6, 77, 110
7, 24399, Note_off_c, 6, 77, 127
7, 25200, Note_on_c, 6, 83, 110
7, 25434, Note_off_c, 6, 83, 127
7, 25560, Note_on_c, 6, 83, 110
7, 25915, Note_off_c, 6, 83, 127
7, 25920, Note_on_c, 6, 83, 110
7, 26320, Note_off_c, 6, 83, 127
7, 27120, Note_on_c, 6, 75, 110
7, 27355, Note_off_c, 6, 75, 127
7, 27480, Note_on_c, 6, 75, 110
7, 27834, Note_off_c, 6, 75, 127
7, 27840, Note_on_c, 6, 75, 110
7, 28240, Note_off_c, 6, 75, 127
7, 29039, Note_on_c, 6, 75, 110
7, 29275, Note_off_c, 6, 75, 127
7, 29399, Note_on_c, 6, 75, 110
7, 29754, Note_off_c, 6, 75, 127
7, 29760, Note_on_c, 6, 75, 110
7, 30159, Note_off_c, 6, 75, 127
7, 30959, Note_on_c, 6, 75, 110
7, 31195, Note_off_c, 6, 75, 127
7, 31319, Note_on_c, 6, 75, 110
7, 31675, Note_off_c, 6, 75, 127
7, 31679, Note_on_c, 6, 75, 110
7, 32079, Note_off_c, 6, 75, 127
7, 32880, Note_on_c, 6, 74, 110
7, 33114, Note_off_c, 6, 74, 127
7, 33240, Note_on_c, 6, 74, 110
7, 33595, Note_off_c, 6, 74, 127
7, 33599, Note_on_c, 6, 74, 110
7, 34000, Note_off_c, 6, 74, 127
7, 34800, Note_on_c, 6, 79, 110
7, 35034, Note_off_c, 6, 79, 127
7, 35160, Note_on_c, 6, 79, 110
7, 35515, Note_off_c, 6, 79, 127
7, 35520, Note_on_c, 6, 79, 110
7, 35920, Note_off_c, 6, 79, 127
7, 36720, Note_on_c, 6, 80, 110
7, 36955, Note_off_c, 6, 80, 127
7, 37080, Note_on_c, 6, 80, 110
7, 37434, Note_off_c, 6, 80, 127
7, 37440, Note_on_c, 6, 80, 110
7, 37840, Note_off_c, 6, 80, 127
7, 38639, Note_on_c, 6, 77, 110
7, 38875, Note_off_c, 6, 77, 127
7, 38999, Note_on_c, 6, 77, 110
7, 39354, Note_off_c, 6, 77, 127
7, 39359, Note_on_c, 6, 77, 110
7, 39759, Note_off_c, 6, 77, 127
7, 40560, Note_on_c, 6, 83, 110
7, 40794, Note_off_c, 6, 83, 127
7, 40919, Note_on_c, 6, 83, 110
7, 41275, Note_off_c, 6, 83, 127
7, 41279, Note_on_c, 6, 83, 110
7, 41679, Note_off_c, 6, 83, 127
7, 42239, End_track
8, 0, Start_track
8, 0, Title_t, "Tempo Track"
8, 0, Control_c, 0, 0, 0
8, 0, Control_c, 0, 10, 64
8, 0, Control_c, 0, 121, 0
8, 0, Control_c, 0, 10, 64
8, 0, Program_c, 0, 0
8, 0, Control_c, 0, 7, 127
8, 0, Control_c, 0, 91, 0
8, 0, Control_c, 0, 32, 0
8, 0, Control_c, 0, 7, 100
8, 0, Control_c, 0, 93, 0
8, 42239, End_track
0, 0, End_of_file
