0, 0, Header, 1, 5, 480
1, 0, Start_track
1, 0, Copyright_t, "Â\203eÂ\203NÂ\203mÂ\203XÂ\203WÂ\203Â\203Â\203pÂ\203Â\223"
1, 0, Cue_point_t, "Created by Rosegarden"
1, 0, Cue_point_t, "http://www.rosegardenmusic.com/"
1, 0, Tempo, 428571
1, 0, Time_signature, 4, 2, 24, 8
1, 147840, End_track
2, 0, Start_track
2, 0, Title_t, "Staff"
2, 1920, Control_c, 1, 0, 0
2, 1920, Control_c, 1, 10, 64
2, 1920, Control_c, 1, 121, 0
2, 1920, Program_c, 1, 80
2, 1920, Note_on_c, 1, 79, 110
2, 1920, Control_c, 1, 91, 0
2, 1920, Control_c, 1, 32, 0
2, 1920, Control_c, 1, 7, 127
2, 1920, Control_c, 1, 93, 0
2, 2034, Note_off_c, 1, 79, 127
2, 2040, Note_on_c, 1, 79, 110
2, 2154, Note_off_c, 1, 79, 127
2, 2160, Note_on_c, 1, 79, 110
2, 2274, Note_off_c, 1, 79, 127
2, 2280, Note_on_c, 1, 79, 110
2, 2394, Note_off_c, 1, 79, 127
2, 2400, Note_on_c, 1, 75, 110
2, 2514, Note_off_c, 1, 75, 127
2, 2520, Note_on_c, 1, 72, 110
2, 2754, Note_off_c, 1, 72, 127
2, 2760, Note_on_c, 1, 79, 110
2, 2874, Note_off_c, 1, 79, 127
2, 3000, Note_on_c, 1, 79, 110
2, 3114, Note_off_c, 1, 79, 127
2, 3120, Note_on_c, 1, 75, 110
2, 3234, Note_off_c, 1, 75, 127
2, 3240, Note_on_c, 1, 79, 110
2, 3354, Note_off_c, 1, 79, 127
2, 3360, Note_on_c, 1, 75, 110
2, 3474, Note_off_c, 1, 75, 127
2, 3480, Note_on_c, 1, 72, 110
2, 3594, Note_off_c, 1, 72, 127
2, 3600, Note_on_c, 1, 75, 110
2, 3714, Note_off_c, 1, 75, 127
2, 3720, Note_on_c, 1, 79, 110
2, 3834, Note_off_c, 1, 79, 127
2, 3840, Note_on_c, 1, 77, 110
2, 3954, Note_off_c, 1, 77, 127
2, 3960, Note_on_c, 1, 77, 110
2, 4074, Note_off_c, 1, 77, 127
2, 4080, Note_on_c, 1, 77, 110
2, 4194, Note_off_c, 1, 77, 127
2, 4200, Note_on_c, 1, 77, 110
2, 4314, Note_off_c, 1, 77, 127
2, 4320, Note_on_c, 1, 73, 110
2, 4434, Note_off_c, 1, 73, 127
2, 4440, Note_on_c, 1, 70, 110
2, 4674, Note_off_c, 1, 70, 127
2, 4680, Note_on_c, 1, 77, 110
2, 4794, Note_off_c, 1, 77, 127
2, 4920, Note_on_c, 1, 77, 110
2, 5034, Note_off_c, 1, 77, 127
2, 5040, Note_on_c, 1, 73, 110
2, 5154, Note_off_c, 1, 73, 127
2, 5160, Note_on_c, 1, 77, 110
2, 5274, Note_off_c, 1, 77, 127
2, 5280, Note_on_c, 1, 73, 110
2, 5394, Note_off_c, 1, 73, 127
2, 5400, Note_on_c, 1, 70, 110
2, 5514, Note_off_c, 1, 70, 127
2, 5520, Note_on_c, 1, 73, 110
2, 5634, Note_off_c, 1, 73, 127
2, 5640, Note_on_c, 1, 77, 110
2, 5754, Note_off_c, 1, 77, 127
2, 5760, Note_on_c, 1, 79, 110
2, 5874, Note_off_c, 1, 79, 127
2, 5880, Note_on_c, 1, 79, 110
2, 5994, Note_off_c, 1, 79, 127
2, 6000, Note_on_c, 1, 79, 110
2, 6114, Note_off_c, 1, 79, 127
2, 6120, Note_on_c, 1, 79, 110
2, 6234, Note_off_c, 1, 79, 127
2, 6240, Note_on_c, 1, 75, 110
2, 6354, Note_off_c, 1, 75, 127
2, 6360, Note_on_c, 1, 72, 110
2, 6594, Note_off_c, 1, 72, 127
2, 6600, Note_on_c, 1, 79, 110
2, 6714, Note_off_c, 1, 79, 127
2, 6840, Note_on_c, 1, 79, 110
2, 6954, Note_off_c, 1, 79, 127
2, 6960, Note_on_c, 1, 75, 110
2, 7074, Note_off_c, 1, 75, 127
2, 7080, Note_on_c, 1, 79, 110
2, 7194, Note_off_c, 1, 79, 127
2, 7200, Note_on_c, 1, 75, 110
2, 7314, Note_off_c, 1, 75, 127
2, 7320, Note_on_c, 1, 72, 110
2, 7434, Note_off_c, 1, 72, 127
2, 7440, Note_on_c, 1, 75, 110
2, 7554, Note_off_c, 1, 75, 127
2, 7560, Note_on_c, 1, 79, 110
2, 7674, Note_off_c, 1, 79, 127
2, 7680, Note_on_c, 1, 73, 110
2, 7794, Note_off_c, 1, 73, 127
2, 7800, Note_on_c, 1, 72, 110
2, 7914, Note_off_c, 1, 72, 127
2, 7920, Note_on_c, 1, 73, 110
2, 8034, Note_off_c, 1, 73, 127
2, 8040, Note_on_c, 1, 77, 110
2, 8154, Note_off_c, 1, 77, 127
2, 8280, Note_on_c, 1, 80, 110
2, 8514, Note_off_c, 1, 80, 127
2, 8520, Note_on_c, 1, 77, 110
2, 8634, Note_off_c, 1, 77, 127
2, 8640, Note_on_c, 1, 79, 110
2, 8754, Note_off_c, 1, 79, 127
2, 8760, Note_on_c, 1, 75, 110
2, 8874, Note_off_c, 1, 75, 127
2, 8880, Note_on_c, 1, 77, 110
2, 8994, Note_off_c, 1, 77, 127
2, 9000, Note_on_c, 1, 73, 110
2, 9114, Note_off_c, 1, 73, 127
2, 9240, Note_on_c, 1, 75, 110
2, 9354, Note_off_c, 1, 75, 127
2, 9360, Note_on_c, 1, 70, 110
2, 9594, Note_off_c, 1, 70, 127
2, 9600, Note_on_c, 1, 72, 110
2, 9714, Note_off_c, 1, 72, 127
2, 9720, Note_on_c, 1, 71, 110
2, 9834, Note_off_c, 1, 71, 127
2, 9840, Note_on_c, 1, 72, 110
2, 9954, Note_off_c, 1, 72, 127
2, 9960, Note_on_c, 1, 75, 110
2, 10074, Note_off_c, 1, 75, 127
2, 10080, Note_on_c, 1, 72, 110
2, 10194, Note_off_c, 1, 72, 127
2, 10200, Note_on_c, 1, 71, 110
2, 10314, Note_off_c, 1, 71, 127
2, 10320, Note_on_c, 1, 72, 110
2, 10434, Note_off_c, 1, 72, 127
2, 10440, Note_on_c, 1, 77, 110
2, 10554, Note_off_c, 1, 77, 127
2, 10560, Note_on_c, 1, 72, 110
2, 10674, Note_off_c, 1, 72, 127
2, 10680, Note_on_c, 1, 71, 110
2, 10794, Note_off_c, 1, 71, 127
2, 10800, Note_on_c, 1, 72, 110
2, 10914, Note_off_c, 1, 72, 127
2, 10920, Note_on_c, 1, 79, 110
2, 11034, Note_off_c, 1, 79, 127
2, 11160, Note_on_c, 1, 79, 110
2, 11394, Note_off_c, 1, 79, 127
2, 11400, Note_on_c, 1, 75, 110
2, 11514, Note_off_c, 1, 75, 127
2, 11520, Note_on_c, 1, 77, 110
2, 11874, Note_off_c, 1, 77, 127
2, 11880, Note_on_c, 1, 73, 110
2, 12234, Note_off_c, 1, 73, 127
2, 12240, Note_on_c, 1, 70, 110
2, 12834, Note_off_c, 1, 70, 127
2, 12840, Note_on_c, 1, 82, 110
2, 12954, Note_off_c, 1, 82, 127
2, 12960, Note_on_c, 1, 81, 110
2, 13074, Note_off_c, 1, 81, 127
2, 13080, Note_on_c, 1, 82, 110
2, 13194, Note_off_c, 1, 82, 127
2, 13200, Note_on_c, 1, 81, 110
2, 13314, Note_off_c, 1, 81, 127
2, 13320, Note_on_c, 1, 82, 110
2, 13434, Note_off_c, 1, 82, 127
2, 13440, Note_on_c, 1, 70, 110
2, 13554, Note_off_c, 1, 70, 127
2, 13560, Note_on_c, 1, 69, 110
2, 13674, Note_off_c, 1, 69, 127
2, 13680, Note_on_c, 1, 70, 110
2, 13794, Note_off_c, 1, 70, 127
2, 13800, Note_on_c, 1, 73, 110
2, 13914, Note_off_c, 1, 73, 127
2, 13920, Note_on_c, 1, 70, 110
2, 14034, Note_off_c, 1, 70, 127
2, 14040, Note_on_c, 1, 69, 110
2, 14154, Note_off_c, 1, 69, 127
2, 14160, Note_on_c, 1, 70, 110
2, 14274, Note_off_c, 1, 70, 127
2, 14280, Note_on_c, 1, 75, 110
2, 14394, Note_off_c, 1, 75, 127
2, 14400, Note_on_c, 1, 70, 110
2, 14514, Note_off_c, 1, 70, 127
2, 14520, Note_on_c, 1, 69, 110
2, 14634, Note_off_c, 1, 69, 127
2, 14640, Note_on_c, 1, 70, 110
2, 14754, Note_off_c, 1, 70, 127
2, 14760, Note_on_c, 1, 77, 110
2, 14874, Note_off_c, 1, 77, 127
2, 15000, Note_on_c, 1, 77, 110
2, 15234, Note_off_c, 1, 77, 127
2, 15240, Note_on_c, 1, 76, 110
2, 15354, Note_off_c, 1, 76, 127
2, 15360, Note_on_c, 1, 75, 110
2, 15714, Note_off_c, 1, 75, 127
2, 15720, Note_on_c, 1, 72, 110
2, 16074, Note_off_c, 1, 72, 127
2, 16080, Note_on_c, 1, 75, 110
2, 16434, Note_off_c, 1, 75, 127
2, 16440, Note_on_c, 1, 80, 110
2, 16554, Note_off_c, 1, 80, 127
2, 16560, Note_on_c, 1, 82, 110
2, 16674, Note_off_c, 1, 82, 127
2, 16680, Note_on_c, 1, 80, 110
2, 16794, Note_off_c, 1, 80, 127
2, 16800, Note_on_c, 1, 83, 110
2, 16914, Note_off_c, 1, 83, 127
2, 16920, Note_on_c, 1, 80, 110
2, 17034, Note_off_c, 1, 80, 127
2, 17040, Note_on_c, 1, 84, 110
2, 17154, Note_off_c, 1, 84, 127
2, 17160, Note_on_c, 1, 80, 110
2, 17274, Note_off_c, 1, 80, 127
2, 17280, Note_on_c, 1, 72, 110
2, 17394, Note_off_c, 1, 72, 127
2, 17400, Note_on_c, 1, 71, 110
2, 17514, Note_off_c, 1, 71, 127
2, 17520, Note_on_c, 1, 72, 110
2, 17634, Note_off_c, 1, 72, 127
2, 17640, Note_on_c, 1, 75, 110
2, 17754, Note_off_c, 1, 75, 127
2, 17760, Note_on_c, 1, 72, 110
2, 17874, Note_off_c, 1, 72, 127
2, 17880, Note_on_c, 1, 71, 110
2, 17994, Note_off_c, 1, 71, 127
2, 18000, Note_on_c, 1, 72, 110
2, 18114, Note_off_c, 1, 72, 127
2, 18120, Note_on_c, 1, 77, 110
2, 18234, Note_off_c, 1, 77, 127
2, 18240, Note_on_c, 1, 72, 110
2, 18354, Note_off_c, 1, 72, 127
2, 18360, Note_on_c, 1, 71, 110
2, 18474, Note_off_c, 1, 71, 127
2, 18480, Note_on_c, 1, 72, 110
2, 18594, Note_off_c, 1, 72, 127
2, 18600, Note_on_c, 1, 79, 110
2, 18714, Note_off_c, 1, 79, 127
2, 18840, Note_on_c, 1, 79, 110
2, 19074, Note_off_c, 1, 79, 127
2, 19080, Note_on_c, 1, 75, 110
2, 19194, Note_off_c, 1, 75, 127
2, 19200, Note_on_c, 1, 77, 110
2, 19554, Note_off_c, 1, 77, 127
2, 19560, Note_on_c, 1, 73, 110
2, 19914, Note_off_c, 1, 73, 127
2, 19920, Note_on_c, 1, 70, 110
2, 20274, Note_off_c, 1, 70, 127
2, 20280, Note_on_c, 1, 82, 110
2, 20394, Note_off_c, 1, 82, 127
2, 20400, Note_on_c, 1, 81, 110
2, 20514, Note_off_c, 1, 81, 127
2, 20520, Note_on_c, 1, 80, 110
2, 20634, Note_off_c, 1, 80, 127
2, 20640, Note_on_c, 1, 79, 110
2, 20754, Note_off_c, 1, 79, 127
2, 20760, Note_on_c, 1, 78, 110
2, 20874, Note_off_c, 1, 78, 127
2, 20880, Note_on_c, 1, 77, 110
2, 20994, Note_off_c, 1, 77, 127
2, 21000, Note_on_c, 1, 76, 110
2, 21114, Note_off_c, 1, 76, 127
2, 21120, Note_on_c, 1, 70, 110
2, 21234, Note_off_c, 1, 70, 127
2, 21240, Note_on_c, 1, 69, 110
2, 21354, Note_off_c, 1, 69, 127
2, 21360, Note_on_c, 1, 70, 110
2, 21474, Note_off_c, 1, 70, 127
2, 21480, Note_on_c, 1, 73, 110
2, 21594, Note_off_c, 1, 73, 127
2, 21600, Note_on_c, 1, 70, 110
2, 21714, Note_off_c, 1, 70, 127
2, 21720, Note_on_c, 1, 69, 110
2, 21834, Note_off_c, 1, 69, 127
2, 21840, Note_on_c, 1, 70, 110
2, 21954, Note_off_c, 1, 70, 127
2, 21960, Note_on_c, 1, 75, 110
2, 22074, Note_off_c, 1, 75, 127
2, 22080, Note_on_c, 1, 70, 110
2, 22194, Note_off_c, 1, 70, 127
2, 22200, Note_on_c, 1, 69, 110
2, 22314, Note_off_c, 1, 69, 127
2, 22320, Note_on_c, 1, 70, 110
2, 22434, Note_off_c, 1, 70, 127
2, 22440, Note_on_c, 1, 77, 110
2, 22554, Note_off_c, 1, 77, 127
2, 22680, Note_on_c, 1, 77, 110
2, 22914, Note_off_c, 1, 77, 127
2, 22920, Note_on_c, 1, 76, 110
2, 23034, Note_off_c, 1, 76, 127
2, 23040, Note_on_c, 1, 75, 110
2, 23394, Note_off_c, 1, 75, 127
2, 23400, Note_on_c, 1, 67, 110
2, 23920, Note_off_c, 1, 67, 127
2, 24000, Note_on_c, 1, 72, 110
2, 24114, Note_off_c, 1, 72, 127
2, 24120, Note_on_c, 1, 68, 110
2, 24354, Note_off_c, 1, 68, 127
2, 24360, Note_on_c, 1, 68, 110
2, 24880, Note_off_c, 1, 68, 127
2, 24960, Note_on_c, 1, 73, 110
2, 25074, Note_off_c, 1, 73, 127
2, 25080, Note_on_c, 1, 72, 110
2, 25194, Note_off_c, 1, 72, 127
2, 25200, Note_on_c, 1, 73, 110
2, 25314, Note_off_c, 1, 73, 127
2, 25320, Note_on_c, 1, 75, 110
2, 25434, Note_off_c, 1, 75, 127
2, 25440, Note_on_c, 1, 77, 110
2, 25554, Note_off_c, 1, 77, 127
2, 25560, Note_on_c, 1, 80, 110
2, 25794, Note_off_c, 1, 80, 127
2, 25800, Note_on_c, 1, 79, 110
2, 25914, Note_off_c, 1, 79, 127
2, 26040, Note_on_c, 1, 82, 110
2, 26274, Note_off_c, 1, 82, 127
2, 26280, Note_on_c, 1, 80, 110
2, 26394, Note_off_c, 1, 80, 127
2, 26400, Note_on_c, 1, 79, 110
2, 26634, Note_off_c, 1, 79, 127
2, 26640, Note_on_c, 1, 77, 110
2, 26874, Note_off_c, 1, 77, 127
2, 26880, Note_on_c, 1, 79, 110
2, 27234, Note_off_c, 1, 79, 127
2, 27240, Note_on_c, 1, 75, 110
2, 27594, Note_off_c, 1, 75, 127
2, 27600, Note_on_c, 1, 72, 110
2, 28240, Note_off_c, 1, 72, 127
2, 28320, Note_on_c, 1, 72, 110
2, 28434, Note_off_c, 1, 72, 127
2, 28440, Note_on_c, 1, 73, 110
2, 28554, Note_off_c, 1, 73, 127
2, 28560, Note_on_c, 1, 75, 110
2, 28794, Note_off_c, 1, 75, 127
2, 28800, Note_on_c, 1, 77, 110
2, 29154, Note_off_c, 1, 77, 127
2, 29160, Note_on_c, 1, 73, 110
2, 29514, Note_off_c, 1, 73, 127
2, 29520, Note_on_c, 1, 70, 110
2, 30160, Note_off_c, 1, 70, 127
2, 30240, Note_on_c, 1, 70, 110
2, 30354, Note_off_c, 1, 70, 127
2, 30360, Note_on_c, 1, 72, 110
2, 30474, Note_off_c, 1, 72, 127
2, 30480, Note_on_c, 1, 73, 110
2, 30714, Note_off_c, 1, 73, 127
2, 30720, Note_on_c, 1, 75, 110
2, 31074, Note_off_c, 1, 75, 127
2, 31080, Note_on_c, 1, 72, 110
2, 31434, Note_off_c, 1, 72, 127
2, 31440, Note_on_c, 1, 68, 110
2, 31674, Note_off_c, 1, 68, 127
2, 31800, Note_on_c, 1, 60, 110
2, 31914, Note_off_c, 1, 60, 127
2, 31920, Note_on_c, 1, 61, 110
2, 32034, Note_off_c, 1, 61, 127
2, 32040, Note_on_c, 1, 63, 110
2, 32154, Note_off_c, 1, 63, 127
2, 32160, Note_on_c, 1, 65, 110
2, 32274, Note_off_c, 1, 65, 127
2, 32280, Note_on_c, 1, 67, 110
2, 32394, Note_off_c, 1, 67, 127
2, 32400, Note_on_c, 1, 68, 110
2, 32514, Note_off_c, 1, 68, 127
2, 32520, Note_on_c, 1, 70, 110
2, 32634, Note_off_c, 1, 70, 127
2, 32640, Note_on_c, 1, 73, 110
2, 32754, Note_off_c, 1, 73, 127
2, 32760, Note_on_c, 1, 72, 110
2, 32874, Note_off_c, 1, 72, 127
2, 32880, Note_on_c, 1, 73, 110
2, 32994, Note_off_c, 1, 73, 127
2, 33000, Note_on_c, 1, 75, 110
2, 33114, Note_off_c, 1, 75, 127
2, 33120, Note_on_c, 1, 77, 110
2, 33234, Note_off_c, 1, 77, 127
2, 33240, Note_on_c, 1, 80, 110
2, 33474, Note_off_c, 1, 80, 127
2, 33480, Note_on_c, 1, 79, 110
2, 33594, Note_off_c, 1, 79, 127
2, 33720, Note_on_c, 1, 82, 110
2, 33954, Note_off_c, 1, 82, 127
2, 33960, Note_on_c, 1, 80, 110
2, 34074, Note_off_c, 1, 80, 127
2, 34080, Note_on_c, 1, 79, 110
2, 34314, Note_off_c, 1, 79, 127
2, 34320, Note_on_c, 1, 77, 110
2, 34554, Note_off_c, 1, 77, 127
2, 34560, Note_on_c, 1, 79, 110
2, 34914, Note_off_c, 1, 79, 127
2, 34920, Note_on_c, 1, 75, 110
2, 35274, Note_off_c, 1, 75, 127
2, 35280, Note_on_c, 1, 72, 110
2, 35920, Note_off_c, 1, 72, 127
2, 36000, Note_on_c, 1, 72, 110
2, 36114, Note_off_c, 1, 72, 127
2, 36120, Note_on_c, 1, 73, 110
2, 36234, Note_off_c, 1, 73, 127
2, 36240, Note_on_c, 1, 75, 110
2, 36474, Note_off_c, 1, 75, 127
2, 36480, Note_on_c, 1, 77, 110
2, 36834, Note_off_c, 1, 77, 127
2, 36840, Note_on_c, 1, 73, 110
2, 37194, Note_off_c, 1, 73, 127
2, 37200, Note_on_c, 1, 70, 110
2, 37674, Note_off_c, 1, 70, 127
2, 37680, Note_on_c, 1, 67, 110
2, 38154, Note_off_c, 1, 67, 127
2, 38160, Note_on_c, 1, 70, 110
2, 38394, Note_off_c, 1, 70, 127
2, 38400, Note_on_c, 1, 70, 110
2, 38754, Note_off_c, 1, 70, 127
2, 38760, Note_on_c, 1, 68, 110
2, 39474, Note_off_c, 1, 68, 127
2, 39480, Note_on_c, 1, 63, 110
2, 39594, Note_off_c, 1, 63, 127
2, 39600, Note_on_c, 1, 65, 110
2, 39714, Note_off_c, 1, 65, 127
2, 39720, Note_on_c, 1, 67, 110
2, 39834, Note_off_c, 1, 67, 127
2, 39840, Note_on_c, 1, 68, 110
2, 39954, Note_off_c, 1, 68, 127
2, 39960, Note_on_c, 1, 70, 110
2, 40074, Note_off_c, 1, 70, 127
2, 40080, Note_on_c, 1, 72, 110
2, 40194, Note_off_c, 1, 72, 127
2, 40200, Note_on_c, 1, 73, 110
2, 40314, Note_off_c, 1, 73, 127
2, 40320, Note_on_c, 1, 72, 110
2, 40434, Note_off_c, 1, 72, 127
2, 40440, Note_on_c, 1, 71, 110
2, 40554, Note_off_c, 1, 71, 127
2, 40560, Note_on_c, 1, 72, 110
2, 40674, Note_off_c, 1, 72, 127
2, 40680, Note_on_c, 1, 75, 110
2, 40794, Note_off_c, 1, 75, 127
2, 40800, Note_on_c, 1, 72, 110
2, 40914, Note_off_c, 1, 72, 127
2, 40920, Note_on_c, 1, 71, 110
2, 41034, Note_off_c, 1, 71, 127
2, 41040, Note_on_c, 1, 72, 110
2, 41154, Note_off_c, 1, 72, 127
2, 41160, Note_on_c, 1, 77, 110
2, 41274, Note_off_c, 1, 77, 127
2, 41280, Note_on_c, 1, 72, 110
2, 41394, Note_off_c, 1, 72, 127
2, 41400, Note_on_c, 1, 71, 110
2, 41514, Note_off_c, 1, 71, 127
2, 41520, Note_on_c, 1, 72, 110
2, 41634, Note_off_c, 1, 72, 127
2, 41640, Note_on_c, 1, 79, 110
2, 41754, Note_off_c, 1, 79, 127
2, 41880, Note_on_c, 1, 79, 110
2, 42114, Note_off_c, 1, 79, 127
2, 42120, Note_on_c, 1, 75, 110
2, 42234, Note_off_c, 1, 75, 127
2, 42240, Note_on_c, 1, 77, 110
2, 42594, Note_off_c, 1, 77, 127
2, 42600, Note_on_c, 1, 73, 110
2, 42954, Note_off_c, 1, 73, 127
2, 42960, Note_on_c, 1, 70, 110
2, 43554, Note_off_c, 1, 70, 127
2, 43560, Note_on_c, 1, 82, 110
2, 43674, Note_off_c, 1, 82, 127
2, 43680, Note_on_c, 1, 81, 110
2, 43794, Note_off_c, 1, 81, 127
2, 43800, Note_on_c, 1, 82, 110
2, 43914, Note_off_c, 1, 82, 127
2, 43920, Note_on_c, 1, 81, 110
2, 44034, Note_off_c, 1, 81, 127
2, 44040, Note_on_c, 1, 82, 110
2, 44154, Note_off_c, 1, 82, 127
2, 44160, Note_on_c, 1, 70, 110
2, 44274, Note_off_c, 1, 70, 127
2, 44280, Note_on_c, 1, 69, 110
2, 44394, Note_off_c, 1, 69, 127
2, 44400, Note_on_c, 1, 70, 110
2, 44514, Note_off_c, 1, 70, 127
2, 44520, Note_on_c, 1, 73, 110
2, 44634, Note_off_c, 1, 73, 127
2, 44640, Note_on_c, 1, 70, 110
2, 44754, Note_off_c, 1, 70, 127
2, 44760, Note_on_c, 1, 69, 110
2, 44874, Note_off_c, 1, 69, 127
2, 44880, Note_on_c, 1, 70, 110
2, 44994, Note_off_c, 1, 70, 127
2, 45000, Note_on_c, 1, 75, 110
2, 45114, Note_off_c, 1, 75, 127
2, 45120, Note_on_c, 1, 70, 110
2, 45234, Note_off_c, 1, 70, 127
2, 45240, Note_on_c, 1, 69, 110
2, 45354, Note_off_c, 1, 69, 127
2, 45360, Note_on_c, 1, 70, 110
2, 45474, Note_off_c, 1, 70, 127
2, 45480, Note_on_c, 1, 77, 110
2, 45594, Note_off_c, 1, 77, 127
2, 45720, Note_on_c, 1, 77, 110
2, 45954, Note_off_c, 1, 77, 127
2, 45960, Note_on_c, 1, 76, 110
2, 46074, Note_off_c, 1, 76, 127
2, 46080, Note_on_c, 1, 75, 110
2, 46434, Note_off_c, 1, 75, 127
2, 46440, Note_on_c, 1, 72, 110
2, 46794, Note_off_c, 1, 72, 127
2, 46800, Note_on_c, 1, 75, 110
2, 47154, Note_off_c, 1, 75, 127
2, 47160, Note_on_c, 1, 80, 110
2, 47274, Note_off_c, 1, 80, 127
2, 47280, Note_on_c, 1, 82, 110
2, 47394, Note_off_c, 1, 82, 127
2, 47400, Note_on_c, 1, 80, 110
2, 47514, Note_off_c, 1, 80, 127
2, 47520, Note_on_c, 1, 83, 110
2, 47634, Note_off_c, 1, 83, 127
2, 47640, Note_on_c, 1, 80, 110
2, 47754, Note_off_c, 1, 80, 127
2, 47760, Note_on_c, 1, 84, 110
2, 47874, Note_off_c, 1, 84, 127
2, 47880, Note_on_c, 1, 80, 110
2, 47994, Note_off_c, 1, 80, 127
2, 48000, Note_on_c, 1, 72, 110
2, 48114, Note_off_c, 1, 72, 127
2, 48120, Note_on_c, 1, 71, 110
2, 48234, Note_off_c, 1, 71, 127
2, 48240, Note_on_c, 1, 72, 110
2, 48354, Note_off_c, 1, 72, 127
2, 48360, Note_on_c, 1, 75, 110
2, 48474, Note_off_c, 1, 75, 127
2, 48480, Note_on_c, 1, 72, 110
2, 48594, Note_off_c, 1, 72, 127
2, 48600, Note_on_c, 1, 71, 110
2, 48714, Note_off_c, 1, 71, 127
2, 48720, Note_on_c, 1, 72, 110
2, 48834, Note_off_c, 1, 72, 127
2, 48840, Note_on_c, 1, 77, 110
2, 48954, Note_off_c, 1, 77, 127
2, 48960, Note_on_c, 1, 72, 110
2, 49074, Note_off_c, 1, 72, 127
2, 49080, Note_on_c, 1, 71, 110
2, 49194, Note_off_c, 1, 71, 127
2, 49200, Note_on_c, 1, 72, 110
2, 49314, Note_off_c, 1, 72, 127
2, 49320, Note_on_c, 1, 79, 110
2, 49434, Note_off_c, 1, 79, 127
2, 49560, Note_on_c, 1, 79, 110
2, 49794, Note_off_c, 1, 79, 127
2, 49800, Note_on_c, 1, 75, 110
2, 49914, Note_off_c, 1, 75, 127
2, 49920, Note_on_c, 1, 77, 110
2, 50274, Note_off_c, 1, 77, 127
2, 50280, Note_on_c, 1, 73, 110
2, 50634, Note_off_c, 1, 73, 127
2, 50640, Note_on_c, 1, 70, 110
2, 50994, Note_off_c, 1, 70, 127
2, 51000, Note_on_c, 1, 82, 110
2, 51114, Note_off_c, 1, 82, 127
2, 51120, Note_on_c, 1, 81, 110
2, 51234, Note_off_c, 1, 81, 127
2, 51240, Note_on_c, 1, 80, 110
2, 51354, Note_off_c, 1, 80, 127
2, 51360, Note_on_c, 1, 79, 110
2, 51474, Note_off_c, 1, 79, 127
2, 51480, Note_on_c, 1, 78, 110
2, 51594, Note_off_c, 1, 78, 127
2, 51600, Note_on_c, 1, 77, 110
2, 51714, Note_off_c, 1, 77, 127
2, 51720, Note_on_c, 1, 76, 110
2, 51834, Note_off_c, 1, 76, 127
2, 51840, Note_on_c, 1, 70, 110
2, 51954, Note_off_c, 1, 70, 127
2, 51960, Note_on_c, 1, 69, 110
2, 52074, Note_off_c, 1, 69, 127
2, 52080, Note_on_c, 1, 70, 110
2, 52194, Note_off_c, 1, 70, 127
2, 52200, Note_on_c, 1, 73, 110
2, 52314, Note_off_c, 1, 73, 127
2, 52320, Note_on_c, 1, 70, 110
2, 52434, Note_off_c, 1, 70, 127
2, 52440, Note_on_c, 1, 69, 110
2, 52554, Note_off_c, 1, 69, 127
2, 52560, Note_on_c, 1, 70, 110
2, 52674, Note_off_c, 1, 70, 127
2, 52680, Note_on_c, 1, 75, 110
2, 52794, Note_off_c, 1, 75, 127
2, 52800, Note_on_c, 1, 70, 110
2, 52914, Note_off_c, 1, 70, 127
2, 52920, Note_on_c, 1, 69, 110
2, 53034, Note_off_c, 1, 69, 127
2, 53040, Note_on_c, 1, 70, 110
2, 53154, Note_off_c, 1, 70, 127
2, 53160, Note_on_c, 1, 77, 110
2, 53274, Note_off_c, 1, 77, 127
2, 53400, Note_on_c, 1, 77, 110
2, 53634, Note_off_c, 1, 77, 127
2, 53640, Note_on_c, 1, 76, 110
2, 53754, Note_off_c, 1, 76, 127
2, 53760, Note_on_c, 1, 75, 110
2, 54114, Note_off_c, 1, 75, 127
2, 54120, Note_on_c, 1, 67, 110
2, 54640, Note_off_c, 1, 67, 127
2, 54720, Note_on_c, 1, 72, 110
2, 54834, Note_off_c, 1, 72, 127
2, 54840, Note_on_c, 1, 68, 110
2, 55074, Note_off_c, 1, 68, 127
2, 55080, Note_on_c, 1, 68, 110
2, 55600, Note_off_c, 1, 68, 127
2, 55680, Note_on_c, 1, 73, 110
2, 55794, Note_off_c, 1, 73, 127
2, 55800, Note_on_c, 1, 72, 110
2, 55914, Note_off_c, 1, 72, 127
2, 55920, Note_on_c, 1, 73, 110
2, 56034, Note_off_c, 1, 73, 127
2, 56040, Note_on_c, 1, 75, 110
2, 56154, Note_off_c, 1, 75, 127
2, 56160, Note_on_c, 1, 77, 110
2, 56274, Note_off_c, 1, 77, 127
2, 56280, Note_on_c, 1, 80, 110
2, 56514, Note_off_c, 1, 80, 127
2, 56520, Note_on_c, 1, 79, 110
2, 56634, Note_off_c, 1, 79, 127
2, 56760, Note_on_c, 1, 82, 110
2, 56994, Note_off_c, 1, 82, 127
2, 57000, Note_on_c, 1, 80, 110
2, 57114, Note_off_c, 1, 80, 127
2, 57120, Note_on_c, 1, 79, 110
2, 57354, Note_off_c, 1, 79, 127
2, 57360, Note_on_c, 1, 77, 110
2, 57594, Note_off_c, 1, 77, 127
2, 57600, Note_on_c, 1, 79, 110
2, 57954, Note_off_c, 1, 79, 127
2, 57960, Note_on_c, 1, 75, 110
2, 58314, Note_off_c, 1, 75, 127
2, 58320, Note_on_c, 1, 72, 110
2, 58960, Note_off_c, 1, 72, 127
2, 59040, Note_on_c, 1, 72, 110
2, 59154, Note_off_c, 1, 72, 127
2, 59160, Note_on_c, 1, 73, 110
2, 59274, Note_off_c, 1, 73, 127
2, 59280, Note_on_c, 1, 75, 110
2, 59514, Note_off_c, 1, 75, 127
2, 59520, Note_on_c, 1, 77, 110
2, 59874, Note_off_c, 1, 77, 127
2, 59880, Note_on_c, 1, 73, 110
2, 60234, Note_off_c, 1, 73, 127
2, 60240, Note_on_c, 1, 70, 110
2, 60880, Note_off_c, 1, 70, 127
2, 60960, Note_on_c, 1, 70, 110
2, 61074, Note_off_c, 1, 70, 127
2, 61080, Note_on_c, 1, 72, 110
2, 61194, Note_off_c, 1, 72, 127
2, 61200, Note_on_c, 1, 73, 110
2, 61434, Note_off_c, 1, 73, 127
2, 61440, Note_on_c, 1, 75, 110
2, 61794, Note_off_c, 1, 75, 127
2, 61800, Note_on_c, 1, 72, 110
2, 62154, Note_off_c, 1, 72, 127
2, 62160, Note_on_c, 1, 68, 110
2, 62394, Note_off_c, 1, 68, 127
2, 62520, Note_on_c, 1, 60, 110
2, 62634, Note_off_c, 1, 60, 127
2, 62640, Note_on_c, 1, 61, 110
2, 62754, Note_off_c, 1, 61, 127
2, 62760, Note_on_c, 1, 63, 110
2, 62874, Note_off_c, 1, 63, 127
2, 62880, Note_on_c, 1, 65, 110
2, 62994, Note_off_c, 1, 65, 127
2, 63000, Note_on_c, 1, 67, 110
2, 63114, Note_off_c, 1, 67, 127
2, 63120, Note_on_c, 1, 68, 110
2, 63234, Note_off_c, 1, 68, 127
2, 63240, Note_on_c, 1, 70, 110
2, 63354, Note_off_c, 1, 70, 127
2, 63360, Note_on_c, 1, 73, 110
2, 63474, Note_off_c, 1, 73, 127
2, 63480, Note_on_c, 1, 72, 110
2, 63594, Note_off_c, 1, 72, 127
2, 63600, Note_on_c, 1, 73, 110
2, 63714, Note_off_c, 1, 73, 127
2, 63720, Note_on_c, 1, 75, 110
2, 63834, Note_off_c, 1, 75, 127
2, 63840, Note_on_c, 1, 77, 110
2, 63954, Note_off_c, 1, 77, 127
2, 63960, Note_on_c, 1, 80, 110
2, 64194, Note_off_c, 1, 80, 127
2, 64200, Note_on_c, 1, 79, 110
2, 64314, Note_off_c, 1, 79, 127
2, 64440, Note_on_c, 1, 82, 110
2, 64674, Note_off_c, 1, 82, 127
2, 64680, Note_on_c, 1, 80, 110
2, 64794, Note_off_c, 1, 80, 127
2, 64800, Note_on_c, 1, 79, 110
2, 65034, Note_off_c, 1, 79, 127
2, 65040, Note_on_c, 1, 77, 110
2, 65274, Note_off_c, 1, 77, 127
2, 65280, Note_on_c, 1, 79, 110
2, 65634, Note_off_c, 1, 79, 127
2, 65640, Note_on_c, 1, 75, 110
2, 65994, Note_off_c, 1, 75, 127
2, 66000, Note_on_c, 1, 72, 110
2, 66640, Note_off_c, 1, 72, 127
2, 66720, Note_on_c, 1, 72, 110
2, 66834, Note_off_c, 1, 72, 127
2, 66840, Note_on_c, 1, 73, 110
2, 66954, Note_off_c, 1, 73, 127
2, 66960, Note_on_c, 1, 75, 110
2, 67194, Note_off_c, 1, 75, 127
2, 67200, Note_on_c, 1, 77, 110
2, 67554, Note_off_c, 1, 77, 127
2, 67560, Note_on_c, 1, 73, 110
2, 67914, Note_off_c, 1, 73, 127
2, 67920, Note_on_c, 1, 70, 110
2, 68394, Note_off_c, 1, 70, 127
2, 68400, Note_on_c, 1, 67, 110
2, 68874, Note_off_c, 1, 67, 127
2, 68880, Note_on_c, 1, 70, 110
2, 69114, Note_off_c, 1, 70, 127
2, 69120, Note_on_c, 1, 70, 110
2, 69474, Note_off_c, 1, 70, 127
2, 69480, Note_on_c, 1, 68, 110
2, 70194, Note_off_c, 1, 68, 127
2, 70200, Note_on_c, 1, 63, 110
2, 70314, Note_off_c, 1, 63, 127
2, 70320, Note_on_c, 1, 65, 110
2, 70434, Note_off_c, 1, 65, 127
2, 70440, Note_on_c, 1, 67, 110
2, 70554, Note_off_c, 1, 67, 127
2, 70560, Note_on_c, 1, 68, 110
2, 70674, Note_off_c, 1, 68, 127
2, 70680, Note_on_c, 1, 70, 110
2, 70794, Note_off_c, 1, 70, 127
2, 70800, Note_on_c, 1, 72, 110
2, 70914, Note_off_c, 1, 72, 127
2, 70920, Note_on_c, 1, 73, 110
2, 71034, Note_off_c, 1, 73, 127
2, 71040, Note_on_c, 1, 79, 110
2, 71154, Note_off_c, 1, 79, 127
2, 71160, Note_on_c, 1, 79, 110
2, 71274, Note_off_c, 1, 79, 127
2, 71280, Note_on_c, 1, 79, 110
2, 71394, Note_off_c, 1, 79, 127
2, 71400, Note_on_c, 1, 79, 110
2, 71514, Note_off_c, 1, 79, 127
2, 71520, Note_on_c, 1, 75, 110
2, 71634, Note_off_c, 1, 75, 127
2, 71640, Note_on_c, 1, 72, 110
2, 71874, Note_off_c, 1, 72, 127
2, 71880, Note_on_c, 1, 79, 110
2, 71994, Note_off_c, 1, 79, 127
2, 72120, Note_on_c, 1, 79, 110
2, 72234, Note_off_c, 1, 79, 127
2, 72240, Note_on_c, 1, 75, 110
2, 72354, Note_off_c, 1, 75, 127
2, 72360, Note_on_c, 1, 79, 110
2, 72474, Note_off_c, 1, 79, 127
2, 72480, Note_on_c, 1, 75, 110
2, 72594, Note_off_c, 1, 75, 127
2, 72600, Note_on_c, 1, 72, 110
2, 72714, Note_off_c, 1, 72, 127
2, 72720, Note_on_c, 1, 75, 110
2, 72834, Note_off_c, 1, 75, 127
2, 72840, Note_on_c, 1, 79, 110
2, 72954, Note_off_c, 1, 79, 127
2, 72960, Note_on_c, 1, 77, 110
2, 73074, Note_off_c, 1, 77, 127
2, 73080, Note_on_c, 1, 77, 110
2, 73194, Note_off_c, 1, 77, 127
2, 73200, Note_on_c, 1, 77, 110
2, 73314, Note_off_c, 1, 77, 127
2, 73320, Note_on_c, 1, 77, 110
2, 73434, Note_off_c, 1, 77, 127
2, 73440, Note_on_c, 1, 73, 110
2, 73554, Note_off_c, 1, 73, 127
2, 73560, Note_on_c, 1, 70, 110
2, 73794, Note_off_c, 1, 70, 127
2, 73800, Note_on_c, 1, 77, 110
2, 73914, Note_off_c, 1, 77, 127
2, 74040, Note_on_c, 1, 77, 110
2, 74154, Note_off_c, 1, 77, 127
2, 74160, Note_on_c, 1, 73, 110
2, 74274, Note_off_c, 1, 73, 127
2, 74280, Note_on_c, 1, 77, 110
2, 74394, Note_off_c, 1, 77, 127
2, 74400, Note_on_c, 1, 73, 110
2, 74514, Note_off_c, 1, 73, 127
2, 74520, Note_on_c, 1, 70, 110
2, 74634, Note_off_c, 1, 70, 127
2, 74640, Note_on_c, 1, 73, 110
2, 74754, Note_off_c, 1, 73, 127
2, 74760, Note_on_c, 1, 77, 110
2, 74874, Note_off_c, 1, 77, 127
2, 74880, Note_on_c, 1, 79, 110
2, 74994, Note_off_c, 1, 79, 127
2, 75000, Note_on_c, 1, 79, 110
2, 75114, Note_off_c, 1, 79, 127
2, 75120, Note_on_c, 1, 79, 110
2, 75234, Note_off_c, 1, 79, 127
2, 75240, Note_on_c, 1, 79, 110
2, 75354, Note_off_c, 1, 79, 127
2, 75360, Note_on_c, 1, 75, 110
2, 75474, Note_off_c, 1, 75, 127
2, 75480, Note_on_c, 1, 72, 110
2, 75714, Note_off_c, 1, 72, 127
2, 75720, Note_on_c, 1, 79, 110
2, 75834, Note_off_c, 1, 79, 127
2, 75960, Note_on_c, 1, 79, 110
2, 76074, Note_off_c, 1, 79, 127
2, 76080, Note_on_c, 1, 75, 110
2, 76194, Note_off_c, 1, 75, 127
2, 76200, Note_on_c, 1, 79, 110
2, 76314, Note_off_c, 1, 79, 127
2, 76320, Note_on_c, 1, 75, 110
2, 76434, Note_off_c, 1, 75, 127
2, 76440, Note_on_c, 1, 72, 110
2, 76554, Note_off_c, 1, 72, 127
2, 76560, Note_on_c, 1, 75, 110
2, 76674, Note_off_c, 1, 75, 127
2, 76680, Note_on_c, 1, 79, 110
2, 76794, Note_off_c, 1, 79, 127
2, 76800, Note_on_c, 1, 73, 110
2, 76914, Note_off_c, 1, 73, 127
2, 76920, Note_on_c, 1, 72, 110
2, 77034, Note_off_c, 1, 72, 127
2, 77040, Note_on_c, 1, 73, 110
2, 77154, Note_off_c, 1, 73, 127
2, 77160, Note_on_c, 1, 77, 110
2, 77274, Note_off_c, 1, 77, 127
2, 77400, Note_on_c, 1, 80, 110
2, 77634, Note_off_c, 1, 80, 127
2, 77640, Note_on_c, 1, 77, 110
2, 77754, Note_off_c, 1, 77, 127
2, 77760, Note_on_c, 1, 79, 110
2, 77874, Note_off_c, 1, 79, 127
2, 77880, Note_on_c, 1, 75, 110
2, 77994, Note_off_c, 1, 75, 127
2, 78000, Note_on_c, 1, 77, 110
2, 78114, Note_off_c, 1, 77, 127
2, 78120, Note_on_c, 1, 73, 110
2, 78234, Note_off_c, 1, 73, 127
2, 78360, Note_on_c, 1, 75, 110
2, 78474, Note_off_c, 1, 75, 127
2, 78480, Note_on_c, 1, 70, 110
2, 78714, Note_off_c, 1, 70, 127
2, 78720, Note_on_c, 1, 72, 110
2, 78834, Note_off_c, 1, 72, 127
2, 78840, Note_on_c, 1, 71, 110
2, 78954, Note_off_c, 1, 71, 127
2, 78960, Note_on_c, 1, 72, 110
2, 79074, Note_off_c, 1, 72, 127
2, 79080, Note_on_c, 1, 75, 110
2, 79194, Note_off_c, 1, 75, 127
2, 79200, Note_on_c, 1, 72, 110
2, 79314, Note_off_c, 1, 72, 127
2, 79320, Note_on_c, 1, 71, 110
2, 79434, Note_off_c, 1, 71, 127
2, 79440, Note_on_c, 1, 72, 110
2, 79554, Note_off_c, 1, 72, 127
2, 79560, Note_on_c, 1, 77, 110
2, 79674, Note_off_c, 1, 77, 127
2, 79680, Note_on_c, 1, 72, 110
2, 79794, Note_off_c, 1, 72, 127
2, 79800, Note_on_c, 1, 71, 110
2, 79914, Note_off_c, 1, 71, 127
2, 79920, Note_on_c, 1, 72, 110
2, 80034, Note_off_c, 1, 72, 127
2, 80040, Note_on_c, 1, 79, 110
2, 80154, Note_off_c, 1, 79, 127
2, 80280, Note_on_c, 1, 79, 110
2, 80514, Note_off_c, 1, 79, 127
2, 80520, Note_on_c, 1, 75, 110
2, 80634, Note_off_c, 1, 75, 127
2, 80640, Note_on_c, 1, 77, 110
2, 80994, Note_off_c, 1, 77, 127
2, 81000, Note_on_c, 1, 73, 110
2, 81354, Note_off_c, 1, 73, 127
2, 81360, Note_on_c, 1, 70, 110
2, 81954, Note_off_c, 1, 70, 127
2, 81960, Note_on_c, 1, 82, 110
2, 82074, Note_off_c, 1, 82, 127
2, 82080, Note_on_c, 1, 81, 110
2, 82194, Note_off_c, 1, 81, 127
2, 82200, Note_on_c, 1, 82, 110
2, 82314, Note_off_c, 1, 82, 127
2, 82320, Note_on_c, 1, 81, 110
2, 82434, Note_off_c, 1, 81, 127
2, 82440, Note_on_c, 1, 82, 110
2, 82554, Note_off_c, 1, 82, 127
2, 82560, Note_on_c, 1, 70, 110
2, 82674, Note_off_c, 1, 70, 127
2, 82680, Note_on_c, 1, 69, 110
2, 82794, Note_off_c, 1, 69, 127
2, 82800, Note_on_c, 1, 70, 110
2, 82914, Note_off_c, 1, 70, 127
2, 82920, Note_on_c, 1, 73, 110
2, 83034, Note_off_c, 1, 73, 127
2, 83040, Note_on_c, 1, 70, 110
2, 83154, Note_off_c, 1, 70, 127
2, 83160, Note_on_c, 1, 69, 110
2, 83274, Note_off_c, 1, 69, 127
2, 83280, Note_on_c, 1, 70, 110
2, 83394, Note_off_c, 1, 70, 127
2, 83400, Note_on_c, 1, 75, 110
2, 83514, Note_off_c, 1, 75, 127
2, 83520, Note_on_c, 1, 70, 110
2, 83634, Note_off_c, 1, 70, 127
2, 83640, Note_on_c, 1, 69, 110
2, 83754, Note_off_c, 1, 69, 127
2, 83760, Note_on_c, 1, 70, 110
2, 83874, Note_off_c, 1, 70, 127
2, 83880, Note_on_c, 1, 77, 110
2, 83994, Note_off_c, 1, 77, 127
2, 84120, Note_on_c, 1, 77, 110
2, 84354, Note_off_c, 1, 77, 127
2, 84360, Note_on_c, 1, 76, 110
2, 84474, Note_off_c, 1, 76, 127
2, 84480, Note_on_c, 1, 75, 110
2, 84834, Note_off_c, 1, 75, 127
2, 84840, Note_on_c, 1, 72, 110
2, 85194, Note_off_c, 1, 72, 127
2, 85200, Note_on_c, 1, 75, 110
2, 85554, Note_off_c, 1, 75, 127
2, 85560, Note_on_c, 1, 80, 110
2, 85674, Note_off_c, 1, 80, 127
2, 85680, Note_on_c, 1, 82, 110
2, 85794, Note_off_c, 1, 82, 127
2, 85800, Note_on_c, 1, 80, 110
2, 85914, Note_off_c, 1, 80, 127
2, 85920, Note_on_c, 1, 83, 110
2, 86034, Note_off_c, 1, 83, 127
2, 86040, Note_on_c, 1, 80, 110
2, 86154, Note_off_c, 1, 80, 127
2, 86160, Note_on_c, 1, 84, 110
2, 86274, Note_off_c, 1, 84, 127
2, 86280, Note_on_c, 1, 80, 110
2, 86394, Note_off_c, 1, 80, 127
2, 86400, Note_on_c, 1, 72, 110
2, 86514, Note_off_c, 1, 72, 127
2, 86520, Note_on_c, 1, 71, 110
2, 86634, Note_off_c, 1, 71, 127
2, 86640, Note_on_c, 1, 72, 110
2, 86754, Note_off_c, 1, 72, 127
2, 86760, Note_on_c, 1, 75, 110
2, 86874, Note_off_c, 1, 75, 127
2, 86880, Note_on_c, 1, 72, 110
2, 86994, Note_off_c, 1, 72, 127
2, 87000, Note_on_c, 1, 71, 110
2, 87114, Note_off_c, 1, 71, 127
2, 87120, Note_on_c, 1, 72, 110
2, 87234, Note_off_c, 1, 72, 127
2, 87240, Note_on_c, 1, 77, 110
2, 87354, Note_off_c, 1, 77, 127
2, 87360, Note_on_c, 1, 72, 110
2, 87474, Note_off_c, 1, 72, 127
2, 87480, Note_on_c, 1, 71, 110
2, 87594, Note_off_c, 1, 71, 127
2, 87600, Note_on_c, 1, 72, 110
2, 87714, Note_off_c, 1, 72, 127
2, 87720, Note_on_c, 1, 79, 110
2, 87834, Note_off_c, 1, 79, 127
2, 87960, Note_on_c, 1, 79, 110
2, 88194, Note_off_c, 1, 79, 127
2, 88200, Note_on_c, 1, 75, 110
2, 88314, Note_off_c, 1, 75, 127
2, 88320, Note_on_c, 1, 77, 110
2, 88674, Note_off_c, 1, 77, 127
2, 88680, Note_on_c, 1, 73, 110
2, 89034, Note_off_c, 1, 73, 127
2, 89040, Note_on_c, 1, 70, 110
2, 89394, Note_off_c, 1, 70, 127
2, 89400, Note_on_c, 1, 82, 110
2, 89514, Note_off_c, 1, 82, 127
2, 89520, Note_on_c, 1, 81, 110
2, 89634, Note_off_c, 1, 81, 127
2, 89640, Note_on_c, 1, 80, 110
2, 89754, Note_off_c, 1, 80, 127
2, 89760, Note_on_c, 1, 79, 110
2, 89874, Note_off_c, 1, 79, 127
2, 89880, Note_on_c, 1, 78, 110
2, 89994, Note_off_c, 1, 78, 127
2, 90000, Note_on_c, 1, 77, 110
2, 90114, Note_off_c, 1, 77, 127
2, 90120, Note_on_c, 1, 76, 110
2, 90234, Note_off_c, 1, 76, 127
2, 90240, Note_on_c, 1, 70, 110
2, 90354, Note_off_c, 1, 70, 127
2, 90360, Note_on_c, 1, 69, 110
2, 90474, Note_off_c, 1, 69, 127
2, 90480, Note_on_c, 1, 70, 110
2, 90594, Note_off_c, 1, 70, 127
2, 90600, Note_on_c, 1, 73, 110
2, 90714, Note_off_c, 1, 73, 127
2, 90720, Note_on_c, 1, 70, 110
2, 90834, Note_off_c, 1, 70, 127
2, 90840, Note_on_c, 1, 69, 110
2, 90954, Note_off_c, 1, 69, 127
2, 90960, Note_on_c, 1, 70, 110
2, 91074, Note_off_c, 1, 70, 127
2, 91080, Note_on_c, 1, 75, 110
2, 91194, Note_off_c, 1, 75, 127
2, 91200, Note_on_c, 1, 70, 110
2, 91314, Note_off_c, 1, 70, 127
2, 91320, Note_on_c, 1, 69, 110
2, 91434, Note_off_c, 1, 69, 127
2, 91440, Note_on_c, 1, 70, 110
2, 91554, Note_off_c, 1, 70, 127
2, 91560, Note_on_c, 1, 77, 110
2, 91674, Note_off_c, 1, 77, 127
2, 91800, Note_on_c, 1, 77, 110
2, 92034, Note_off_c, 1, 77, 127
2, 92040, Note_on_c, 1, 76, 110
2, 92154, Note_off_c, 1, 76, 127
2, 92160, Note_on_c, 1, 75, 110
2, 92514, Note_off_c, 1, 75, 127
2, 92520, Note_on_c, 1, 67, 110
2, 93040, Note_off_c, 1, 67, 127
2, 93120, Note_on_c, 1, 72, 110
2, 93234, Note_off_c, 1, 72, 127
2, 93240, Note_on_c, 1, 68, 110
2, 93474, Note_off_c, 1, 68, 127
2, 93480, Note_on_c, 1, 68, 110
2, 94000, Note_off_c, 1, 68, 127
2, 94080, Note_on_c, 1, 73, 110
2, 94194, Note_off_c, 1, 73, 127
2, 94200, Note_on_c, 1, 72, 110
2, 94314, Note_off_c, 1, 72, 127
2, 94320, Note_on_c, 1, 73, 110
2, 94434, Note_off_c, 1, 73, 127
2, 94440, Note_on_c, 1, 75, 110
2, 94554, Note_off_c, 1, 75, 127
2, 94560, Note_on_c, 1, 77, 110
2, 94674, Note_off_c, 1, 77, 127
2, 94680, Note_on_c, 1, 80, 110
2, 94914, Note_off_c, 1, 80, 127
2, 94920, Note_on_c, 1, 79, 110
2, 95034, Note_off_c, 1, 79, 127
2, 95160, Note_on_c, 1, 82, 110
2, 95394, Note_off_c, 1, 82, 127
2, 95400, Note_on_c, 1, 80, 110
2, 95514, Note_off_c, 1, 80, 127
2, 95520, Note_on_c, 1, 79, 110
2, 95754, Note_off_c, 1, 79, 127
2, 95760, Note_on_c, 1, 77, 110
2, 95994, Note_off_c, 1, 77, 127
2, 96000, Note_on_c, 1, 79, 110
2, 96354, Note_off_c, 1, 79, 127
2, 96360, Note_on_c, 1, 75, 110
2, 96714, Note_off_c, 1, 75, 127
2, 96720, Note_on_c, 1, 72, 110
2, 97360, Note_off_c, 1, 72, 127
2, 97440, Note_on_c, 1, 72, 110
2, 97554, Note_off_c, 1, 72, 127
2, 97560, Note_on_c, 1, 73, 110
2, 97674, Note_off_c, 1, 73, 127
2, 97680, Note_on_c, 1, 75, 110
2, 97914, Note_off_c, 1, 75, 127
2, 97920, Note_on_c, 1, 77, 110
2, 98274, Note_off_c, 1, 77, 127
2, 98280, Note_on_c, 1, 73, 110
2, 98634, Note_off_c, 1, 73, 127
2, 98640, Note_on_c, 1, 70, 110
2, 99280, Note_off_c, 1, 70, 127
2, 99360, Note_on_c, 1, 70, 110
2, 99474, Note_off_c, 1, 70, 127
2, 99480, Note_on_c, 1, 72, 110
2, 99594, Note_off_c, 1, 72, 127
2, 99600, Note_on_c, 1, 73, 110
2, 99834, Note_off_c, 1, 73, 127
2, 99840, Note_on_c, 1, 75, 110
2, 100194, Note_off_c, 1, 75, 127
2, 100200, Note_on_c, 1, 72, 110
2, 100554, Note_off_c, 1, 72, 127
2, 100560, Note_on_c, 1, 68, 110
2, 100794, Note_off_c, 1, 68, 127
2, 100920, Note_on_c, 1, 60, 110
2, 101034, Note_off_c, 1, 60, 127
2, 101040, Note_on_c, 1, 61, 110
2, 101154, Note_off_c, 1, 61, 127
2, 101160, Note_on_c, 1, 63, 110
2, 101274, Note_off_c, 1, 63, 127
2, 101280, Note_on_c, 1, 65, 110
2, 101394, Note_off_c, 1, 65, 127
2, 101400, Note_on_c, 1, 67, 110
2, 101514, Note_off_c, 1, 67, 127
2, 101520, Note_on_c, 1, 68, 110
2, 101634, Note_off_c, 1, 68, 127
2, 101640, Note_on_c, 1, 70, 110
2, 101754, Note_off_c, 1, 70, 127
2, 101760, Note_on_c, 1, 73, 110
2, 101874, Note_off_c, 1, 73, 127
2, 101880, Note_on_c, 1, 72, 110
2, 101994, Note_off_c, 1, 72, 127
2, 102000, Note_on_c, 1, 73, 110
2, 102114, Note_off_c, 1, 73, 127
2, 102120, Note_on_c, 1, 75, 110
2, 102234, Note_off_c, 1, 75, 127
2, 102240, Note_on_c, 1, 77, 110
2, 102354, Note_off_c, 1, 77, 127
2, 102360, Note_on_c, 1, 80, 110
2, 102594, Note_off_c, 1, 80, 127
2, 102600, Note_on_c, 1, 79, 110
2, 102714, Note_off_c, 1, 79, 127
2, 102840, Note_on_c, 1, 82, 110
2, 103074, Note_off_c, 1, 82, 127
2, 103080, Note_on_c, 1, 80, 110
2, 103194, Note_off_c, 1, 80, 127
2, 103200, Note_on_c, 1, 79, 110
2, 103434, Note_off_c, 1, 79, 127
2, 103440, Note_on_c, 1, 77, 110
2, 103674, Note_off_c, 1, 77, 127
2, 103680, Note_on_c, 1, 79, 110
2, 104034, Note_off_c, 1, 79, 127
2, 104040, Note_on_c, 1, 75, 110
2, 104394, Note_off_c, 1, 75, 127
2, 104400, Note_on_c, 1, 72, 110
2, 105040, Note_off_c, 1, 72, 127
2, 105120, Note_on_c, 1, 72, 110
2, 105234, Note_off_c, 1, 72, 127
2, 105240, Note_on_c, 1, 73, 110
2, 105354, Note_off_c, 1, 73, 127
2, 105360, Note_on_c, 1, 75, 110
2, 105594, Note_off_c, 1, 75, 127
2, 105600, Note_on_c, 1, 77, 110
2, 105954, Note_off_c, 1, 77, 127
2, 105960, Note_on_c, 1, 73, 110
2, 106314, Note_off_c, 1, 73, 127
2, 106320, Note_on_c, 1, 70, 110
2, 106794, Note_off_c, 1, 70, 127
2, 106800, Note_on_c, 1, 67, 110
2, 107274, Note_off_c, 1, 67, 127
2, 107280, Note_on_c, 1, 70, 110
2, 107514, Note_off_c, 1, 70, 127
2, 107520, Note_on_c, 1, 70, 110
2, 107874, Note_off_c, 1, 70, 127
2, 107880, Note_on_c, 1, 68, 110
2, 108594, Note_off_c, 1, 68, 127
2, 108600, Note_on_c, 1, 63, 110
2, 108714, Note_off_c, 1, 63, 127
2, 108720, Note_on_c, 1, 65, 110
2, 108834, Note_off_c, 1, 65, 127
2, 108840, Note_on_c, 1, 67, 110
2, 108954, Note_off_c, 1, 67, 127
2, 108960, Note_on_c, 1, 68, 110
2, 109074, Note_off_c, 1, 68, 127
2, 109080, Note_on_c, 1, 70, 110
2, 109194, Note_off_c, 1, 70, 127
2, 109200, Note_on_c, 1, 72, 110
2, 109314, Note_off_c, 1, 72, 127
2, 109320, Note_on_c, 1, 73, 110
2, 109434, Note_off_c, 1, 73, 127
2, 109440, Note_on_c, 1, 72, 110
2, 109554, Note_off_c, 1, 72, 127
2, 109560, Note_on_c, 1, 71, 110
2, 109674, Note_off_c, 1, 71, 127
2, 109680, Note_on_c, 1, 72, 110
2, 109794, Note_off_c, 1, 72, 127
2, 109800, Note_on_c, 1, 75, 110
2, 109914, Note_off_c, 1, 75, 127
2, 109920, Note_on_c, 1, 72, 110
2, 110034, Note_off_c, 1, 72, 127
2, 110040, Note_on_c, 1, 71, 110
2, 110154, Note_off_c, 1, 71, 127
2, 110160, Note_on_c, 1, 72, 110
2, 110274, Note_off_c, 1, 72, 127
2, 110280, Note_on_c, 1, 77, 110
2, 110394, Note_off_c, 1, 77, 127
2, 110400, Note_on_c, 1, 72, 110
2, 110514, Note_off_c, 1, 72, 127
2, 110520, Note_on_c, 1, 71, 110
2, 110634, Note_off_c, 1, 71, 127
2, 110640, Note_on_c, 1, 72, 110
2, 110754, Note_off_c, 1, 72, 127
2, 110760, Note_on_c, 1, 79, 110
2, 110874, Note_off_c, 1, 79, 127
2, 111000, Note_on_c, 1, 79, 110
2, 111234, Note_off_c, 1, 79, 127
2, 111240, Note_on_c, 1, 75, 110
2, 111354, Note_off_c, 1, 75, 127
2, 111360, Note_on_c, 1, 77, 110
2, 111714, Note_off_c, 1, 77, 127
2, 111720, Note_on_c, 1, 73, 110
2, 112074, Note_off_c, 1, 73, 127
2, 112080, Note_on_c, 1, 70, 110
2, 112674, Note_off_c, 1, 70, 127
2, 112680, Note_on_c, 1, 82, 110
2, 112794, Note_off_c, 1, 82, 127
2, 112800, Note_on_c, 1, 81, 110
2, 112914, Note_off_c, 1, 81, 127
2, 112920, Note_on_c, 1, 82, 110
2, 113034, Note_off_c, 1, 82, 127
2, 113040, Note_on_c, 1, 81, 110
2, 113154, Note_off_c, 1, 81, 127
2, 113160, Note_on_c, 1, 82, 110
2, 113274, Note_off_c, 1, 82, 127
2, 113280, Note_on_c, 1, 70, 110
2, 113394, Note_off_c, 1, 70, 127
2, 113400, Note_on_c, 1, 69, 110
2, 113514, Note_off_c, 1, 69, 127
2, 113520, Note_on_c, 1, 70, 110
2, 113634, Note_off_c, 1, 70, 127
2, 113640, Note_on_c, 1, 73, 110
2, 113754, Note_off_c, 1, 73, 127
2, 113760, Note_on_c, 1, 70, 110
2, 113874, Note_off_c, 1, 70, 127
2, 113880, Note_on_c, 1, 69, 110
2, 113994, Note_off_c, 1, 69, 127
2, 114000, Note_on_c, 1, 70, 110
2, 114114, Note_off_c, 1, 70, 127
2, 114120, Note_on_c, 1, 75, 110
2, 114234, Note_off_c, 1, 75, 127
2, 114240, Note_on_c, 1, 70, 110
2, 114354, Note_off_c, 1, 70, 127
2, 114360, Note_on_c, 1, 69, 110
2, 114474, Note_off_c, 1, 69, 127
2, 114480, Note_on_c, 1, 70, 110
2, 114594, Note_off_c, 1, 70, 127
2, 114600, Note_on_c, 1, 77, 110
2, 114714, Note_off_c, 1, 77, 127
2, 114840, Note_on_c, 1, 77, 110
2, 115074, Note_off_c, 1, 77, 127
2, 115080, Note_on_c, 1, 76, 110
2, 115194, Note_off_c, 1, 76, 127
2, 115200, Note_on_c, 1, 75, 110
2, 115554, Note_off_c, 1, 75, 127
2, 115560, Note_on_c, 1, 72, 110
2, 115914, Note_off_c, 1, 72, 127
2, 115920, Note_on_c, 1, 75, 110
2, 116274, Note_off_c, 1, 75, 127
2, 116280, Note_on_c, 1, 80, 110
2, 116394, Note_off_c, 1, 80, 127
2, 116400, Note_on_c, 1, 82, 110
2, 116514, Note_off_c, 1, 82, 127
2, 116520, Note_on_c, 1, 80, 110
2, 116634, Note_off_c, 1, 80, 127
2, 116640, Note_on_c, 1, 83, 110
2, 116754, Note_off_c, 1, 83, 127
2, 116760, Note_on_c, 1, 80, 110
2, 116874, Note_off_c, 1, 80, 127
2, 116880, Note_on_c, 1, 84, 110
2, 116994, Note_off_c, 1, 84, 127
2, 117000, Note_on_c, 1, 80, 110
2, 117114, Note_off_c, 1, 80, 127
2, 117120, Note_on_c, 1, 72, 110
2, 117234, Note_off_c, 1, 72, 127
2, 117240, Note_on_c, 1, 71, 110
2, 117354, Note_off_c, 1, 71, 127
2, 117360, Note_on_c, 1, 72, 110
2, 117474, Note_off_c, 1, 72, 127
2, 117480, Note_on_c, 1, 75, 110
2, 117594, Note_off_c, 1, 75, 127
2, 117600, Note_on_c, 1, 72, 110
2, 117714, Note_off_c, 1, 72, 127
2, 117720, Note_on_c, 1, 71, 110
2, 117834, Note_off_c, 1, 71, 127
2, 117840, Note_on_c, 1, 72, 110
2, 117954, Note_off_c, 1, 72, 127
2, 117960, Note_on_c, 1, 77, 110
2, 118074, Note_off_c, 1, 77, 127
2, 118080, Note_on_c, 1, 72, 110
2, 118194, Note_off_c, 1, 72, 127
2, 118200, Note_on_c, 1, 71, 110
2, 118314, Note_off_c, 1, 71, 127
2, 118320, Note_on_c, 1, 72, 110
2, 118434, Note_off_c, 1, 72, 127
2, 118440, Note_on_c, 1, 79, 110
2, 118554, Note_off_c, 1, 79, 127
2, 118680, Note_on_c, 1, 79, 110
2, 118914, Note_off_c, 1, 79, 127
2, 118920, Note_on_c, 1, 75, 110
2, 119034, Note_off_c, 1, 75, 127
2, 119040, Note_on_c, 1, 77, 110
2, 119394, Note_off_c, 1, 77, 127
2, 119400, Note_on_c, 1, 73, 110
2, 119754, Note_off_c, 1, 73, 127
2, 119760, Note_on_c, 1, 70, 110
2, 120114, Note_off_c, 1, 70, 127
2, 120120, Note_on_c, 1, 82, 110
2, 120234, Note_off_c, 1, 82, 127
2, 120240, Note_on_c, 1, 81, 110
2, 120354, Note_off_c, 1, 81, 127
2, 120360, Note_on_c, 1, 80, 110
2, 120474, Note_off_c, 1, 80, 127
2, 120480, Note_on_c, 1, 79, 110
2, 120594, Note_off_c, 1, 79, 127
2, 120600, Note_on_c, 1, 78, 110
2, 120714, Note_off_c, 1, 78, 127
2, 120720, Note_on_c, 1, 77, 110
2, 120834, Note_off_c, 1, 77, 127
2, 120840, Note_on_c, 1, 76, 110
2, 120954, Note_off_c, 1, 76, 127
2, 120960, Note_on_c, 1, 70, 110
2, 121074, Note_off_c, 1, 70, 127
2, 121080, Note_on_c, 1, 69, 110
2, 121194, Note_off_c, 1, 69, 127
2, 121200, Note_on_c, 1, 70, 110
2, 121314, Note_off_c, 1, 70, 127
2, 121320, Note_on_c, 1, 73, 110
2, 121434, Note_off_c, 1, 73, 127
2, 121440, Note_on_c, 1, 70, 110
2, 121554, Note_off_c, 1, 70, 127
2, 121560, Note_on_c, 1, 69, 110
2, 121674, Note_off_c, 1, 69, 127
2, 121680, Note_on_c, 1, 70, 110
2, 121794, Note_off_c, 1, 70, 127
2, 121800, Note_on_c, 1, 75, 110
2, 121914, Note_off_c, 1, 75, 127
2, 121920, Note_on_c, 1, 70, 110
2, 122034, Note_off_c, 1, 70, 127
2, 122040, Note_on_c, 1, 69, 110
2, 122154, Note_off_c, 1, 69, 127
2, 122160, Note_on_c, 1, 70, 110
2, 122274, Note_off_c, 1, 70, 127
2, 122280, Note_on_c, 1, 77, 110
2, 122394, Note_off_c, 1, 77, 127
2, 122520, Note_on_c, 1, 77, 110
2, 122754, Note_off_c, 1, 77, 127
2, 122760, Note_on_c, 1, 76, 110
2, 122874, Note_off_c, 1, 76, 127
2, 122880, Note_on_c, 1, 75, 110
2, 123234, Note_off_c, 1, 75, 127
2, 123240, Note_on_c, 1, 67, 110
2, 123760, Note_off_c, 1, 67, 127
2, 123840, Note_on_c, 1, 72, 110
2, 123954, Note_off_c, 1, 72, 127
2, 123960, Note_on_c, 1, 68, 110
2, 124194, Note_off_c, 1, 68, 127
2, 124200, Note_on_c, 1, 68, 110
2, 124720, Note_off_c, 1, 68, 127
2, 124800, Note_on_c, 1, 73, 110
2, 124914, Note_off_c, 1, 73, 127
2, 124920, Note_on_c, 1, 72, 110
2, 125034, Note_off_c, 1, 72, 127
2, 125040, Note_on_c, 1, 73, 110
2, 125154, Note_off_c, 1, 73, 127
2, 125160, Note_on_c, 1, 75, 110
2, 125274, Note_off_c, 1, 75, 127
2, 125280, Note_on_c, 1, 77, 110
2, 125394, Note_off_c, 1, 77, 127
2, 125400, Note_on_c, 1, 80, 110
2, 125634, Note_off_c, 1, 80, 127
2, 125640, Note_on_c, 1, 79, 110
2, 125754, Note_off_c, 1, 79, 127
2, 125880, Note_on_c, 1, 82, 110
2, 126114, Note_off_c, 1, 82, 127
2, 126120, Note_on_c, 1, 80, 110
2, 126234, Note_off_c, 1, 80, 127
2, 126240, Note_on_c, 1, 79, 110
2, 126474, Note_off_c, 1, 79, 127
2, 126480, Note_on_c, 1, 77, 110
2, 126714, Note_off_c, 1, 77, 127
2, 126720, Note_on_c, 1, 79, 110
2, 127074, Note_off_c, 1, 79, 127
2, 127080, Note_on_c, 1, 75, 110
2, 127434, Note_off_c, 1, 75, 127
2, 127440, Note_on_c, 1, 72, 110
2, 128080, Note_off_c, 1, 72, 127
2, 128160, Note_on_c, 1, 72, 110
2, 128274, Note_off_c, 1, 72, 127
2, 128280, Note_on_c, 1, 73, 110
2, 128394, Note_off_c, 1, 73, 127
2, 128400, Note_on_c, 1, 75, 110
2, 128634, Note_off_c, 1, 75, 127
2, 128640, Note_on_c, 1, 77, 110
2, 128994, Note_off_c, 1, 77, 127
2, 129000, Note_on_c, 1, 73, 110
2, 129354, Note_off_c, 1, 73, 127
2, 129360, Note_on_c, 1, 70, 110
2, 130000, Note_off_c, 1, 70, 127
2, 130080, Note_on_c, 1, 70, 110
2, 130194, Note_off_c, 1, 70, 127
2, 130200, Note_on_c, 1, 72, 110
2, 130314, Note_off_c, 1, 72, 127
2, 130320, Note_on_c, 1, 73, 110
2, 130554, Note_off_c, 1, 73, 127
2, 130560, Note_on_c, 1, 75, 110
2, 130914, Note_off_c, 1, 75, 127
2, 130920, Note_on_c, 1, 72, 110
2, 131274, Note_off_c, 1, 72, 127
2, 131280, Note_on_c, 1, 68, 110
2, 131514, Note_off_c, 1, 68, 127
2, 131640, Note_on_c, 1, 60, 110
2, 131754, Note_off_c, 1, 60, 127
2, 131760, Note_on_c, 1, 61, 110
2, 131874, Note_off_c, 1, 61, 127
2, 131880, Note_on_c, 1, 63, 110
2, 131994, Note_off_c, 1, 63, 127
2, 132000, Note_on_c, 1, 65, 110
2, 132114, Note_off_c, 1, 65, 127
2, 132120, Note_on_c, 1, 67, 110
2, 132234, Note_off_c, 1, 67, 127
2, 132240, Note_on_c, 1, 68, 110
2, 132354, Note_off_c, 1, 68, 127
2, 132360, Note_on_c, 1, 70, 110
2, 132474, Note_off_c, 1, 70, 127
2, 132480, Note_on_c, 1, 73, 110
2, 132594, Note_off_c, 1, 73, 127
2, 132600, Note_on_c, 1, 72, 110
2, 132714, Note_off_c, 1, 72, 127
2, 132720, Note_on_c, 1, 73, 110
2, 132834, Note_off_c, 1, 73, 127
2, 132840, Note_on_c, 1, 75, 110
2, 132954, Note_off_c, 1, 75, 127
2, 132960, Note_on_c, 1, 77, 110
2, 133074, Note_off_c, 1, 77, 127
2, 133080, Note_on_c, 1, 80, 110
2, 133314, Note_off_c, 1, 80, 127
2, 133320, Note_on_c, 1, 79, 110
2, 133434, Note_off_c, 1, 79, 127
2, 133560, Note_on_c, 1, 82, 110
2, 133794, Note_off_c, 1, 82, 127
2, 133800, Note_on_c, 1, 80, 110
2, 133914, Note_off_c, 1, 80, 127
2, 133920, Note_on_c, 1, 79, 110
2, 134154, Note_off_c, 1, 79, 127
2, 134160, Note_on_c, 1, 77, 110
2, 134394, Note_off_c, 1, 77, 127
2, 134400, Note_on_c, 1, 79, 110
2, 134754, Note_off_c, 1, 79, 127
2, 134760, Note_on_c, 1, 75, 110
2, 135114, Note_off_c, 1, 75, 127
2, 135120, Note_on_c, 1, 72, 110
2, 135760, Note_off_c, 1, 72, 127
2, 135840, Note_on_c, 1, 72, 110
2, 135954, Note_off_c, 1, 72, 127
2, 135960, Note_on_c, 1, 73, 110
2, 136074, Note_off_c, 1, 73, 127
2, 136080, Note_on_c, 1, 75, 110
2, 136314, Note_off_c, 1, 75, 127
2, 136320, Note_on_c, 1, 77, 110
2, 136674, Note_off_c, 1, 77, 127
2, 136680, Note_on_c, 1, 73, 110
2, 137034, Note_off_c, 1, 73, 127
2, 137040, Note_on_c, 1, 70, 110
2, 137514, Note_off_c, 1, 70, 127
2, 137520, Note_on_c, 1, 67, 110
2, 137994, Note_off_c, 1, 67, 127
2, 138000, Note_on_c, 1, 70, 110
2, 138234, Note_off_c, 1, 70, 127
2, 138240, Note_on_c, 1, 70, 110
2, 138594, Note_off_c, 1, 70, 127
2, 138600, Note_on_c, 1, 68, 110
2, 139314, Note_off_c, 1, 68, 127
2, 139320, Note_on_c, 1, 63, 110
2, 139434, Note_off_c, 1, 63, 127
2, 139440, Note_on_c, 1, 65, 110
2, 139554, Note_off_c, 1, 65, 127
2, 139560, Note_on_c, 1, 67, 110
2, 139674, Note_off_c, 1, 67, 127
2, 139680, Note_on_c, 1, 68, 110
2, 139794, Note_off_c, 1, 68, 127
2, 139800, Note_on_c, 1, 70, 110
2, 139914, Note_off_c, 1, 70, 127
2, 139920, Note_on_c, 1, 72, 110
2, 140034, Note_off_c, 1, 72, 127
2, 140040, Note_on_c, 1, 73, 110
2, 140154, Note_off_c, 1, 73, 127
2, 140160, Note_on_c, 1, 79, 110
2, 140274, Note_off_c, 1, 79, 127
2, 140280, Note_on_c, 1, 79, 110
2, 140394, Note_off_c, 1, 79, 127
2, 140400, Note_on_c, 1, 79, 110
2, 140514, Note_off_c, 1, 79, 127
2, 140520, Note_on_c, 1, 79, 110
2, 140634, Note_off_c, 1, 79, 127
2, 140640, Note_on_c, 1, 75, 110
2, 140754, Note_off_c, 1, 75, 127
2, 140760, Note_on_c, 1, 72, 110
2, 140994, Note_off_c, 1, 72, 127
2, 141000, Note_on_c, 1, 79, 110
2, 141114, Note_off_c, 1, 79, 127
2, 141240, Note_on_c, 1, 79, 110
2, 141354, Note_off_c, 1, 79, 127
2, 141360, Note_on_c, 1, 75, 110
2, 141474, Note_off_c, 1, 75, 127
2, 141480, Note_on_c, 1, 79, 110
2, 141594, Note_off_c, 1, 79, 127
2, 141600, Note_on_c, 1, 75, 110
2, 141714, Note_off_c, 1, 75, 127
2, 141720, Note_on_c, 1, 72, 110
2, 141834, Note_off_c, 1, 72, 127
2, 141840, Note_on_c, 1, 75, 110
2, 141954, Note_off_c, 1, 75, 127
2, 141960, Note_on_c, 1, 79, 110
2, 142074, Note_off_c, 1, 79, 127
2, 142080, Note_on_c, 1, 77, 110
2, 142194, Note_off_c, 1, 77, 127
2, 142200, Note_on_c, 1, 77, 110
2, 142314, Note_off_c, 1, 77, 127
2, 142320, Note_on_c, 1, 77, 110
2, 142434, Note_off_c, 1, 77, 127
2, 142440, Note_on_c, 1, 77, 110
2, 142554, Note_off_c, 1, 77, 127
2, 142560, Note_on_c, 1, 73, 110
2, 142674, Note_off_c, 1, 73, 127
2, 142680, Note_on_c, 1, 70, 110
2, 142914, Note_off_c, 1, 70, 127
2, 142920, Note_on_c, 1, 77, 110
2, 143034, Note_off_c, 1, 77, 127
2, 143160, Note_on_c, 1, 77, 110
2, 143274, Note_off_c, 1, 77, 127
2, 143280, Note_on_c, 1, 73, 110
2, 143394, Note_off_c, 1, 73, 127
2, 143400, Note_on_c, 1, 77, 110
2, 143514, Note_off_c, 1, 77, 127
2, 143520, Note_on_c, 1, 73, 110
2, 143634, Note_off_c, 1, 73, 127
2, 143640, Note_on_c, 1, 70, 110
2, 143754, Note_off_c, 1, 70, 127
2, 143760, Note_on_c, 1, 73, 110
2, 143874, Note_off_c, 1, 73, 127
2, 143880, Note_on_c, 1, 77, 110
2, 143994, Note_off_c, 1, 77, 127
2, 144000, Note_on_c, 1, 79, 110
2, 144114, Note_off_c, 1, 79, 127
2, 144120, Note_on_c, 1, 79, 110
2, 144234, Note_off_c, 1, 79, 127
2, 144240, Note_on_c, 1, 79, 110
2, 144354, Note_off_c, 1, 79, 127
2, 144360, Note_on_c, 1, 79, 110
2, 144474, Note_off_c, 1, 79, 127
2, 144480, Note_on_c, 1, 75, 110
2, 144594, Note_off_c, 1, 75, 127
2, 144600, Note_on_c, 1, 72, 110
2, 144834, Note_off_c, 1, 72, 127
2, 144840, Note_on_c, 1, 79, 110
2, 144954, Note_off_c, 1, 79, 127
2, 145080, Note_on_c, 1, 79, 110
2, 145194, Note_off_c, 1, 79, 127
2, 145200, Note_on_c, 1, 75, 110
2, 145314, Note_off_c, 1, 75, 127
2, 145320, Note_on_c, 1, 79, 110
2, 145434, Note_off_c, 1, 79, 127
2, 145440, Note_on_c, 1, 75, 110
2, 145554, Note_off_c, 1, 75, 127
2, 145560, Note_on_c, 1, 72, 110
2, 145674, Note_off_c, 1, 72, 127
2, 145680, Note_on_c, 1, 75, 110
2, 145794, Note_off_c, 1, 75, 127
2, 145800, Note_on_c, 1, 79, 110
2, 145914, Note_off_c, 1, 79, 127
2, 145920, Note_on_c, 1, 73, 110
2, 146034, Note_off_c, 1, 73, 127
2, 146040, Note_on_c, 1, 72, 110
2, 146154, Note_off_c, 1, 72, 127
2, 146160, Note_on_c, 1, 73, 110
2, 146274, Note_off_c, 1, 73, 127
2, 146280, Note_on_c, 1, 77, 110
2, 146394, Note_off_c, 1, 77, 127
2, 146520, Note_on_c, 1, 80, 110
2, 146754, Note_off_c, 1, 80, 127
2, 146760, Note_on_c, 1, 77, 110
2, 146874, Note_off_c, 1, 77, 127
2, 146880, Note_on_c, 1, 79, 110
2, 146994, Note_off_c, 1, 79, 127
2, 147000, Note_on_c, 1, 75, 110
2, 147114, Note_off_c, 1, 75, 127
2, 147120, Note_on_c, 1, 77, 110
2, 147234, Note_off_c, 1, 77, 127
2, 147240, Note_on_c, 1, 73, 110
2, 147354, Note_off_c, 1, 73, 127
2, 147480, Note_on_c, 1, 75, 110
2, 147594, Note_off_c, 1, 75, 127
2, 147600, Note_on_c, 1, 70, 110
2, 147834, Note_off_c, 1, 70, 127
2, 147840, End_track
3, 0, Start_track
3, 0, Title_t, "Staff-3"
3, 1920, Control_c, 2, 121, 0
3, 1920, Program_c, 2, 81
3, 1920, Control_c, 2, 32, 0
3, 1920, Control_c, 2, 0, 0
3, 1920, Note_on_c, 2, 44, 110
3, 1920, Control_c, 2, 91, 0
3, 1920, Control_c, 2, 7, 127
3, 1920, Control_c, 2, 93, 0
3, 1920, Control_c, 2, 10, 64
3, 2274, Note_off_c, 2, 44, 127
3, 2280, Note_on_c, 2, 51, 110
3, 2634, Note_off_c, 2, 51, 127
3, 2640, Note_on_c, 2, 48, 110
3, 2874, Note_off_c, 2, 48, 127
3, 2880, Note_on_c, 2, 44, 110
3, 3234, Note_off_c, 2, 44, 127
3, 3240, Note_on_c, 2, 51, 110
3, 3594, Note_off_c, 2, 51, 127
3, 3600, Note_on_c, 2, 48, 110
3, 3834, Note_off_c, 2, 48, 127
3, 3840, Note_on_c, 2, 46, 110
3, 4194, Note_off_c, 2, 46, 127
3, 4200, Note_on_c, 2, 53, 110
3, 4554, Note_off_c, 2, 53, 127
3, 4560, Note_on_c, 2, 49, 110
3, 4794, Note_off_c, 2, 49, 127
3, 4800, Note_on_c, 2, 46, 110
3, 5154, Note_off_c, 2, 46, 127
3, 5160, Note_on_c, 2, 53, 110
3, 5514, Note_off_c, 2, 53, 127
3, 5520, Note_on_c, 2, 49, 110
3, 5754, Note_off_c, 2, 49, 127
3, 5760, Note_on_c, 2, 44, 110
3, 6114, Note_off_c, 2, 44, 127
3, 6120, Note_on_c, 2, 51, 110
3, 6474, Note_off_c, 2, 51, 127
3, 6480, Note_on_c, 2, 48, 110
3, 6714, Note_off_c, 2, 48, 127
3, 6720, Note_on_c, 2, 44, 110
3, 7074, Note_off_c, 2, 44, 127
3, 7080, Note_on_c, 2, 51, 110
3, 7434, Note_off_c, 2, 51, 127
3, 7440, Note_on_c, 2, 48, 110
3, 7674, Note_off_c, 2, 48, 127
3, 7680, Note_on_c, 2, 46, 110
3, 7794, Note_off_c, 2, 46, 127
3, 7800, Note_on_c, 2, 46, 110
3, 7914, Note_off_c, 2, 46, 127
3, 7920, Note_on_c, 2, 46, 110
3, 8034, Note_off_c, 2, 46, 127
3, 8040, Note_on_c, 2, 46, 110
3, 8154, Note_off_c, 2, 46, 127
3, 8280, Note_on_c, 2, 46, 110
3, 8514, Note_off_c, 2, 46, 127
3, 8520, Note_on_c, 2, 46, 110
3, 8634, Note_off_c, 2, 46, 127
3, 8640, Note_on_c, 2, 51, 110
3, 9040, Note_off_c, 2, 51, 127
3, 9240, Note_on_c, 2, 51, 110
3, 9354, Note_off_c, 2, 51, 127
3, 9360, Note_on_c, 2, 51, 110
3, 9594, Note_off_c, 2, 51, 127
3, 9600, Note_on_c, 2, 44, 110
3, 9954, Note_off_c, 2, 44, 127
3, 9960, Note_on_c, 2, 51, 110
3, 10314, Note_off_c, 2, 51, 127
3, 10320, Note_on_c, 2, 48, 110
3, 10554, Note_off_c, 2, 48, 127
3, 10560, Note_on_c, 2, 44, 110
3, 10914, Note_off_c, 2, 44, 127
3, 10920, Note_on_c, 2, 51, 110
3, 11274, Note_off_c, 2, 51, 127
3, 11280, Note_on_c, 2, 48, 110
3, 11514, Note_off_c, 2, 48, 127
3, 11520, Note_on_c, 2, 46, 110
3, 11874, Note_off_c, 2, 46, 127
3, 11880, Note_on_c, 2, 53, 110
3, 12234, Note_off_c, 2, 53, 127
3, 12240, Note_on_c, 2, 49, 110
3, 12474, Note_off_c, 2, 49, 127
3, 12480, Note_on_c, 2, 46, 110
3, 12834, Note_off_c, 2, 46, 127
3, 12840, Note_on_c, 2, 53, 110
3, 13194, Note_off_c, 2, 53, 127
3, 13200, Note_on_c, 2, 49, 110
3, 13434, Note_off_c, 2, 49, 127
3, 13440, Note_on_c, 2, 46, 110
3, 13794, Note_off_c, 2, 46, 127
3, 13800, Note_on_c, 2, 55, 110
3, 14154, Note_off_c, 2, 55, 127
3, 14160, Note_on_c, 2, 51, 110
3, 14394, Note_off_c, 2, 51, 127
3, 14400, Note_on_c, 2, 46, 110
3, 14754, Note_off_c, 2, 46, 127
3, 14760, Note_on_c, 2, 55, 110
3, 15114, Note_off_c, 2, 55, 127
3, 15120, Note_on_c, 2, 51, 110
3, 15354, Note_off_c, 2, 51, 127
3, 15360, Note_on_c, 2, 44, 110
3, 15714, Note_off_c, 2, 44, 127
3, 15720, Note_on_c, 2, 51, 110
3, 16074, Note_off_c, 2, 51, 127
3, 16080, Note_on_c, 2, 48, 110
3, 16314, Note_off_c, 2, 48, 127
3, 16320, Note_on_c, 2, 44, 110
3, 16674, Note_off_c, 2, 44, 127
3, 16680, Note_on_c, 2, 51, 110
3, 17034, Note_off_c, 2, 51, 127
3, 17040, Note_on_c, 2, 48, 110
3, 17274, Note_off_c, 2, 48, 127
3, 17280, Note_on_c, 2, 44, 110
3, 17634, Note_off_c, 2, 44, 127
3, 17640, Note_on_c, 2, 51, 110
3, 17994, Note_off_c, 2, 51, 127
3, 18000, Note_on_c, 2, 48, 110
3, 18234, Note_off_c, 2, 48, 127
3, 18240, Note_on_c, 2, 44, 110
3, 18594, Note_off_c, 2, 44, 127
3, 18600, Note_on_c, 2, 51, 110
3, 18954, Note_off_c, 2, 51, 127
3, 18960, Note_on_c, 2, 48, 110
3, 19194, Note_off_c, 2, 48, 127
3, 19200, Note_on_c, 2, 46, 110
3, 19554, Note_off_c, 2, 46, 127
3, 19560, Note_on_c, 2, 53, 110
3, 19914, Note_off_c, 2, 53, 127
3, 19920, Note_on_c, 2, 49, 110
3, 20154, Note_off_c, 2, 49, 127
3, 20160, Note_on_c, 2, 46, 110
3, 20514, Note_off_c, 2, 46, 127
3, 20520, Note_on_c, 2, 53, 110
3, 20874, Note_off_c, 2, 53, 127
3, 20880, Note_on_c, 2, 49, 110
3, 21114, Note_off_c, 2, 49, 127
3, 21120, Note_on_c, 2, 46, 110
3, 21474, Note_off_c, 2, 46, 127
3, 21480, Note_on_c, 2, 55, 110
3, 21834, Note_off_c, 2, 55, 127
3, 21840, Note_on_c, 2, 51, 110
3, 22074, Note_off_c, 2, 51, 127
3, 22080, Note_on_c, 2, 46, 110
3, 22434, Note_off_c, 2, 46, 127
3, 22440, Note_on_c, 2, 55, 110
3, 22794, Note_off_c, 2, 55, 127
3, 22800, Note_on_c, 2, 51, 110
3, 23034, Note_off_c, 2, 51, 127
3, 23040, Note_on_c, 2, 44, 110
3, 23394, Note_off_c, 2, 44, 127
3, 23400, Note_on_c, 2, 51, 110
3, 23754, Note_off_c, 2, 51, 127
3, 23760, Note_on_c, 2, 48, 110
3, 23994, Note_off_c, 2, 48, 127
3, 24000, Note_on_c, 2, 44, 110
3, 24354, Note_off_c, 2, 44, 127
3, 24360, Note_on_c, 2, 51, 110
3, 24714, Note_off_c, 2, 51, 127
3, 24720, Note_on_c, 2, 48, 110
3, 24954, Note_off_c, 2, 48, 127
3, 24960, Note_on_c, 2, 46, 110
3, 25314, Note_off_c, 2, 46, 127
3, 25320, Note_on_c, 2, 49, 110
3, 25674, Note_off_c, 2, 49, 127
3, 25680, Note_on_c, 2, 53, 110
3, 25914, Note_off_c, 2, 53, 127
3, 25920, Note_on_c, 2, 46, 110
3, 26274, Note_off_c, 2, 46, 127
3, 26280, Note_on_c, 2, 49, 110
3, 26634, Note_off_c, 2, 49, 127
3, 26640, Note_on_c, 2, 53, 110
3, 26874, Note_off_c, 2, 53, 127
3, 26880, Note_on_c, 2, 44, 110
3, 27234, Note_off_c, 2, 44, 127
3, 27240, Note_on_c, 2, 48, 110
3, 27594, Note_off_c, 2, 48, 127
3, 27600, Note_on_c, 2, 51, 110
3, 27834, Note_off_c, 2, 51, 127
3, 27840, Note_on_c, 2, 44, 110
3, 28194, Note_off_c, 2, 44, 127
3, 28200, Note_on_c, 2, 48, 110
3, 28554, Note_off_c, 2, 48, 127
3, 28560, Note_on_c, 2, 51, 110
3, 28794, Note_off_c, 2, 51, 127
3, 28800, Note_on_c, 2, 46, 110
3, 29154, Note_off_c, 2, 46, 127
3, 29160, Note_on_c, 2, 49, 110
3, 29514, Note_off_c, 2, 49, 127
3, 29520, Note_on_c, 2, 53, 110
3, 29754, Note_off_c, 2, 53, 127
3, 29760, Note_on_c, 2, 46, 110
3, 30114, Note_off_c, 2, 46, 127
3, 30120, Note_on_c, 2, 49, 110
3, 30474, Note_off_c, 2, 49, 127
3, 30480, Note_on_c, 2, 53, 110
3, 30714, Note_off_c, 2, 53, 127
3, 30720, Note_on_c, 2, 44, 110
3, 31074, Note_off_c, 2, 44, 127
3, 31080, Note_on_c, 2, 48, 110
3, 31434, Note_off_c, 2, 48, 127
3, 31440, Note_on_c, 2, 51, 110
3, 31674, Note_off_c, 2, 51, 127
3, 31680, Note_on_c, 2, 44, 110
3, 32034, Note_off_c, 2, 44, 127
3, 32040, Note_on_c, 2, 48, 110
3, 32394, Note_off_c, 2, 48, 127
3, 32400, Note_on_c, 2, 51, 110
3, 32634, Note_off_c, 2, 51, 127
3, 32640, Note_on_c, 2, 46, 110
3, 32994, Note_off_c, 2, 46, 127
3, 33000, Note_on_c, 2, 49, 110
3, 33354, Note_off_c, 2, 49, 127
3, 33360, Note_on_c, 2, 53, 110
3, 33594, Note_off_c, 2, 53, 127
3, 33600, Note_on_c, 2, 46, 110
3, 33954, Note_off_c, 2, 46, 127
3, 33960, Note_on_c, 2, 49, 110
3, 34314, Note_off_c, 2, 49, 127
3, 34320, Note_on_c, 2, 53, 110
3, 34554, Note_off_c, 2, 53, 127
3, 34560, Note_on_c, 2, 44, 110
3, 34914, Note_off_c, 2, 44, 127
3, 34920, Note_on_c, 2, 48, 110
3, 35274, Note_off_c, 2, 48, 127
3, 35280, Note_on_c, 2, 51, 110
3, 35514, Note_off_c, 2, 51, 127
3, 35520, Note_on_c, 2, 44, 110
3, 35874, Note_off_c, 2, 44, 127
3, 35880, Note_on_c, 2, 48, 110
3, 36234, Note_off_c, 2, 48, 127
3, 36240, Note_on_c, 2, 51, 110
3, 36474, Note_off_c, 2, 51, 127
3, 36480, Note_on_c, 2, 46, 110
3, 36834, Note_off_c, 2, 46, 127
3, 36840, Note_on_c, 2, 49, 110
3, 37194, Note_off_c, 2, 49, 127
3, 37200, Note_on_c, 2, 53, 110
3, 37434, Note_off_c, 2, 53, 127
3, 37440, Note_on_c, 2, 46, 110
3, 37794, Note_off_c, 2, 46, 127
3, 37800, Note_on_c, 2, 51, 110
3, 38154, Note_off_c, 2, 51, 127
3, 38160, Note_on_c, 2, 55, 110
3, 38394, Note_off_c, 2, 55, 127
3, 38400, Note_on_c, 2, 44, 110
3, 38754, Note_off_c, 2, 44, 127
3, 38760, Note_on_c, 2, 48, 110
3, 39114, Note_off_c, 2, 48, 127
3, 39120, Note_on_c, 2, 51, 110
3, 39354, Note_off_c, 2, 51, 127
3, 39360, Note_on_c, 2, 44, 110
3, 39760, Note_off_c, 2, 44, 127
3, 40320, Note_on_c, 2, 44, 110
3, 40674, Note_off_c, 2, 44, 127
3, 40680, Note_on_c, 2, 51, 110
3, 41034, Note_off_c, 2, 51, 127
3, 41040, Note_on_c, 2, 48, 110
3, 41274, Note_off_c, 2, 48, 127
3, 41280, Note_on_c, 2, 44, 110
3, 41634, Note_off_c, 2, 44, 127
3, 41640, Note_on_c, 2, 51, 110
3, 41994, Note_off_c, 2, 51, 127
3, 42000, Note_on_c, 2, 48, 110
3, 42234, Note_off_c, 2, 48, 127
3, 42240, Note_on_c, 2, 46, 110
3, 42594, Note_off_c, 2, 46, 127
3, 42600, Note_on_c, 2, 53, 110
3, 42954, Note_off_c, 2, 53, 127
3, 42960, Note_on_c, 2, 49, 110
3, 43194, Note_off_c, 2, 49, 127
3, 43200, Note_on_c, 2, 46, 110
3, 43554, Note_off_c, 2, 46, 127
3, 43560, Note_on_c, 2, 53, 110
3, 43914, Note_off_c, 2, 53, 127
3, 43920, Note_on_c, 2, 49, 110
3, 44154, Note_off_c, 2, 49, 127
3, 44160, Note_on_c, 2, 46, 110
3, 44514, Note_off_c, 2, 46, 127
3, 44520, Note_on_c, 2, 55, 110
3, 44874, Note_off_c, 2, 55, 127
3, 44880, Note_on_c, 2, 51, 110
3, 45114, Note_off_c, 2, 51, 127
3, 45120, Note_on_c, 2, 46, 110
3, 45474, Note_off_c, 2, 46, 127
3, 45480, Note_on_c, 2, 55, 110
3, 45834, Note_off_c, 2, 55, 127
3, 45840, Note_on_c, 2, 51, 110
3, 46074, Note_off_c, 2, 51, 127
3, 46080, Note_on_c, 2, 44, 110
3, 46434, Note_off_c, 2, 44, 127
3, 46440, Note_on_c, 2, 51, 110
3, 46794, Note_off_c, 2, 51, 127
3, 46800, Note_on_c, 2, 48, 110
3, 47034, Note_off_c, 2, 48, 127
3, 47040, Note_on_c, 2, 44, 110
3, 47394, Note_off_c, 2, 44, 127
3, 47400, Note_on_c, 2, 51, 110
3, 47754, Note_off_c, 2, 51, 127
3, 47760, Note_on_c, 2, 48, 110
3, 47994, Note_off_c, 2, 48, 127
3, 48000, Note_on_c, 2, 44, 110
3, 48354, Note_off_c, 2, 44, 127
3, 48360, Note_on_c, 2, 51, 110
3, 48714, Note_off_c, 2, 51, 127
3, 48720, Note_on_c, 2, 48, 110
3, 48954, Note_off_c, 2, 48, 127
3, 48960, Note_on_c, 2, 44, 110
3, 49314, Note_off_c, 2, 44, 127
3, 49320, Note_on_c, 2, 51, 110
3, 49674, Note_off_c, 2, 51, 127
3, 49680, Note_on_c, 2, 48, 110
3, 49914, Note_off_c, 2, 48, 127
3, 49920, Note_on_c, 2, 46, 110
3, 50274, Note_off_c, 2, 46, 127
3, 50280, Note_on_c, 2, 53, 110
3, 50634, Note_off_c, 2, 53, 127
3, 50640, Note_on_c, 2, 49, 110
3, 50874, Note_off_c, 2, 49, 127
3, 50880, Note_on_c, 2, 46, 110
3, 51234, Note_off_c, 2, 46, 127
3, 51240, Note_on_c, 2, 53, 110
3, 51594, Note_off_c, 2, 53, 127
3, 51600, Note_on_c, 2, 49, 110
3, 51834, Note_off_c, 2, 49, 127
3, 51840, Note_on_c, 2, 46, 110
3, 52194, Note_off_c, 2, 46, 127
3, 52200, Note_on_c, 2, 55, 110
3, 52554, Note_off_c, 2, 55, 127
3, 52560, Note_on_c, 2, 51, 110
3, 52794, Note_off_c, 2, 51, 127
3, 52800, Note_on_c, 2, 46, 110
3, 53154, Note_off_c, 2, 46, 127
3, 53160, Note_on_c, 2, 55, 110
3, 53514, Note_off_c, 2, 55, 127
3, 53520, Note_on_c, 2, 51, 110
3, 53754, Note_off_c, 2, 51, 127
3, 53760, Note_on_c, 2, 44, 110
3, 54114, Note_off_c, 2, 44, 127
3, 54120, Note_on_c, 2, 51, 110
3, 54474, Note_off_c, 2, 51, 127
3, 54480, Note_on_c, 2, 48, 110
3, 54714, Note_off_c, 2, 48, 127
3, 54720, Note_on_c, 2, 44, 110
3, 55074, Note_off_c, 2, 44, 127
3, 55080, Note_on_c, 2, 51, 110
3, 55434, Note_off_c, 2, 51, 127
3, 55440, Note_on_c, 2, 48, 110
3, 55674, Note_off_c, 2, 48, 127
3, 55680, Note_on_c, 2, 46, 110
3, 56034, Note_off_c, 2, 46, 127
3, 56040, Note_on_c, 2, 49, 110
3, 56394, Note_off_c, 2, 49, 127
3, 56400, Note_on_c, 2, 53, 110
3, 56634, Note_off_c, 2, 53, 127
3, 56640, Note_on_c, 2, 46, 110
3, 56994, Note_off_c, 2, 46, 127
3, 57000, Note_on_c, 2, 49, 110
3, 57354, Note_off_c, 2, 49, 127
3, 57360, Note_on_c, 2, 53, 110
3, 57594, Note_off_c, 2, 53, 127
3, 57600, Note_on_c, 2, 44, 110
3, 57954, Note_off_c, 2, 44, 127
3, 57960, Note_on_c, 2, 48, 110
3, 58314, Note_off_c, 2, 48, 127
3, 58320, Note_on_c, 2, 51, 110
3, 58554, Note_off_c, 2, 51, 127
3, 58560, Note_on_c, 2, 44, 110
3, 58914, Note_off_c, 2, 44, 127
3, 58920, Note_on_c, 2, 48, 110
3, 59274, Note_off_c, 2, 48, 127
3, 59280, Note_on_c, 2, 51, 110
3, 59514, Note_off_c, 2, 51, 127
3, 59520, Note_on_c, 2, 46, 110
3, 59874, Note_off_c, 2, 46, 127
3, 59880, Note_on_c, 2, 49, 110
3, 60234, Note_off_c, 2, 49, 127
3, 60240, Note_on_c, 2, 53, 110
3, 60474, Note_off_c, 2, 53, 127
3, 60480, Note_on_c, 2, 46, 110
3, 60834, Note_off_c, 2, 46, 127
3, 60840, Note_on_c, 2, 49, 110
3, 61194, Note_off_c, 2, 49, 127
3, 61200, Note_on_c, 2, 53, 110
3, 61434, Note_off_c, 2, 53, 127
3, 61440, Note_on_c, 2, 44, 110
3, 61794, Note_off_c, 2, 44, 127
3, 61800, Note_on_c, 2, 48, 110
3, 62154, Note_off_c, 2, 48, 127
3, 62160, Note_on_c, 2, 51, 110
3, 62394, Note_off_c, 2, 51, 127
3, 62400, Note_on_c, 2, 44, 110
3, 62754, Note_off_c, 2, 44, 127
3, 62760, Note_on_c, 2, 48, 110
3, 63114, Note_off_c, 2, 48, 127
3, 63120, Note_on_c, 2, 51, 110
3, 63354, Note_off_c, 2, 51, 127
3, 63360, Note_on_c, 2, 46, 110
3, 63714, Note_off_c, 2, 46, 127
3, 63720, Note_on_c, 2, 49, 110
3, 64074, Note_off_c, 2, 49, 127
3, 64080, Note_on_c, 2, 53, 110
3, 64314, Note_off_c, 2, 53, 127
3, 64320, Note_on_c, 2, 46, 110
3, 64674, Note_off_c, 2, 46, 127
3, 64680, Note_on_c, 2, 49, 110
3, 65034, Note_off_c, 2, 49, 127
3, 65040, Note_on_c, 2, 53, 110
3, 65274, Note_off_c, 2, 53, 127
3, 65280, Note_on_c, 2, 44, 110
3, 65634, Note_off_c, 2, 44, 127
3, 65640, Note_on_c, 2, 48, 110
3, 65994, Note_off_c, 2, 48, 127
3, 66000, Note_on_c, 2, 51, 110
3, 66234, Note_off_c, 2, 51, 127
3, 66240, Note_on_c, 2, 44, 110
3, 66594, Note_off_c, 2, 44, 127
3, 66600, Note_on_c, 2, 48, 110
3, 66954, Note_off_c, 2, 48, 127
3, 66960, Note_on_c, 2, 51, 110
3, 67194, Note_off_c, 2, 51, 127
3, 67200, Note_on_c, 2, 46, 110
3, 67554, Note_off_c, 2, 46, 127
3, 67560, Note_on_c, 2, 49, 110
3, 67914, Note_off_c, 2, 49, 127
3, 67920, Note_on_c, 2, 53, 110
3, 68154, Note_off_c, 2, 53, 127
3, 68160, Note_on_c, 2, 46, 110
3, 68514, Note_off_c, 2, 46, 127
3, 68520, Note_on_c, 2, 51, 110
3, 68874, Note_off_c, 2, 51, 127
3, 68880, Note_on_c, 2, 55, 110
3, 69114, Note_off_c, 2, 55, 127
3, 69120, Note_on_c, 2, 44, 110
3, 69474, Note_off_c, 2, 44, 127
3, 69480, Note_on_c, 2, 48, 110
3, 69834, Note_off_c, 2, 48, 127
3, 69840, Note_on_c, 2, 51, 110
3, 70074, Note_off_c, 2, 51, 127
3, 70080, Note_on_c, 2, 44, 110
3, 70480, Note_off_c, 2, 44, 127
3, 71040, Note_on_c, 2, 44, 110
3, 71394, Note_off_c, 2, 44, 127
3, 71400, Note_on_c, 2, 51, 110
3, 71754, Note_off_c, 2, 51, 127
3, 71760, Note_on_c, 2, 48, 110
3, 71994, Note_off_c, 2, 48, 127
3, 72000, Note_on_c, 2, 44, 110
3, 72354, Note_off_c, 2, 44, 127
3, 72360, Note_on_c, 2, 51, 110
3, 72714, Note_off_c, 2, 51, 127
3, 72720, Note_on_c, 2, 48, 110
3, 72954, Note_off_c, 2, 48, 127
3, 72960, Note_on_c, 2, 46, 110
3, 73314, Note_off_c, 2, 46, 127
3, 73320, Note_on_c, 2, 53, 110
3, 73674, Note_off_c, 2, 53, 127
3, 73680, Note_on_c, 2, 49, 110
3, 73914, Note_off_c, 2, 49, 127
3, 73920, Note_on_c, 2, 46, 110
3, 74274, Note_off_c, 2, 46, 127
3, 74280, Note_on_c, 2, 53, 110
3, 74634, Note_off_c, 2, 53, 127
3, 74640, Note_on_c, 2, 49, 110
3, 74874, Note_off_c, 2, 49, 127
3, 74880, Note_on_c, 2, 44, 110
3, 75234, Note_off_c, 2, 44, 127
3, 75240, Note_on_c, 2, 51, 110
3, 75594, Note_off_c, 2, 51, 127
3, 75600, Note_on_c, 2, 48, 110
3, 75834, Note_off_c, 2, 48, 127
3, 75840, Note_on_c, 2, 44, 110
3, 76194, Note_off_c, 2, 44, 127
3, 76200, Note_on_c, 2, 51, 110
3, 76554, Note_off_c, 2, 51, 127
3, 76560, Note_on_c, 2, 48, 110
3, 76794, Note_off_c, 2, 48, 127
3, 76800, Note_on_c, 2, 46, 110
3, 76914, Note_off_c, 2, 46, 127
3, 76920, Note_on_c, 2, 46, 110
3, 77034, Note_off_c, 2, 46, 127
3, 77040, Note_on_c, 2, 46, 110
3, 77154, Note_off_c, 2, 46, 127
3, 77160, Note_on_c, 2, 46, 110
3, 77274, Note_off_c, 2, 46, 127
3, 77400, Note_on_c, 2, 46, 110
3, 77634, Note_off_c, 2, 46, 127
3, 77640, Note_on_c, 2, 46, 110
3, 77754, Note_off_c, 2, 46, 127
3, 77760, Note_on_c, 2, 51, 110
3, 78160, Note_off_c, 2, 51, 127
3, 78360, Note_on_c, 2, 51, 110
3, 78474, Note_off_c, 2, 51, 127
3, 78480, Note_on_c, 2, 51, 110
3, 78714, Note_off_c, 2, 51, 127
3, 78720, Note_on_c, 2, 44, 110
3, 79074, Note_off_c, 2, 44, 127
3, 79080, Note_on_c, 2, 51, 110
3, 79434, Note_off_c, 2, 51, 127
3, 79440, Note_on_c, 2, 48, 110
3, 79674, Note_off_c, 2, 48, 127
3, 79680, Note_on_c, 2, 44, 110
3, 80034, Note_off_c, 2, 44, 127
3, 80040, Note_on_c, 2, 51, 110
3, 80394, Note_off_c, 2, 51, 127
3, 80400, Note_on_c, 2, 48, 110
3, 80634, Note_off_c, 2, 48, 127
3, 80640, Note_on_c, 2, 46, 110
3, 80994, Note_off_c, 2, 46, 127
3, 81000, Note_on_c, 2, 53, 110
3, 81354, Note_off_c, 2, 53, 127
3, 81360, Note_on_c, 2, 49, 110
3, 81594, Note_off_c, 2, 49, 127
3, 81600, Note_on_c, 2, 46, 110
3, 81954, Note_off_c, 2, 46, 127
3, 81960, Note_on_c, 2, 53, 110
3, 82314, Note_off_c, 2, 53, 127
3, 82320, Note_on_c, 2, 49, 110
3, 82554, Note_off_c, 2, 49, 127
3, 82560, Note_on_c, 2, 46, 110
3, 82914, Note_off_c, 2, 46, 127
3, 82920, Note_on_c, 2, 55, 110
3, 83274, Note_off_c, 2, 55, 127
3, 83280, Note_on_c, 2, 51, 110
3, 83514, Note_off_c, 2, 51, 127
3, 83520, Note_on_c, 2, 46, 110
3, 83874, Note_off_c, 2, 46, 127
3, 83880, Note_on_c, 2, 55, 110
3, 84234, Note_off_c, 2, 55, 127
3, 84240, Note_on_c, 2, 51, 110
3, 84474, Note_off_c, 2, 51, 127
3, 84480, Note_on_c, 2, 44, 110
3, 84834, Note_off_c, 2, 44, 127
3, 84840, Note_on_c, 2, 51, 110
3, 85194, Note_off_c, 2, 51, 127
3, 85200, Note_on_c, 2, 48, 110
3, 85434, Note_off_c, 2, 48, 127
3, 85440, Note_on_c, 2, 44, 110
3, 85794, Note_off_c, 2, 44, 127
3, 85800, Note_on_c, 2, 51, 110
3, 86154, Note_off_c, 2, 51, 127
3, 86160, Note_on_c, 2, 48, 110
3, 86394, Note_off_c, 2, 48, 127
3, 86400, Note_on_c, 2, 44, 110
3, 86754, Note_off_c, 2, 44, 127
3, 86760, Note_on_c, 2, 51, 110
3, 87114, Note_off_c, 2, 51, 127
3, 87120, Note_on_c, 2, 48, 110
3, 87354, Note_off_c, 2, 48, 127
3, 87360, Note_on_c, 2, 44, 110
3, 87714, Note_off_c, 2, 44, 127
3, 87720, Note_on_c, 2, 51, 110
3, 88074, Note_off_c, 2, 51, 127
3, 88080, Note_on_c, 2, 48, 110
3, 88314, Note_off_c, 2, 48, 127
3, 88320, Note_on_c, 2, 46, 110
3, 88674, Note_off_c, 2, 46, 127
3, 88680, Note_on_c, 2, 53, 110
3, 89034, Note_off_c, 2, 53, 127
3, 89040, Note_on_c, 2, 49, 110
3, 89274, Note_off_c, 2, 49, 127
3, 89280, Note_on_c, 2, 46, 110
3, 89634, Note_off_c, 2, 46, 127
3, 89640, Note_on_c, 2, 53, 110
3, 89994, Note_off_c, 2, 53, 127
3, 90000, Note_on_c, 2, 49, 110
3, 90234, Note_off_c, 2, 49, 127
3, 90240, Note_on_c, 2, 46, 110
3, 90594, Note_off_c, 2, 46, 127
3, 90600, Note_on_c, 2, 55, 110
3, 90954, Note_off_c, 2, 55, 127
3, 90960, Note_on_c, 2, 51, 110
3, 91194, Note_off_c, 2, 51, 127
3, 91200, Note_on_c, 2, 46, 110
3, 91554, Note_off_c, 2, 46, 127
3, 91560, Note_on_c, 2, 55, 110
3, 91914, Note_off_c, 2, 55, 127
3, 91920, Note_on_c, 2, 51, 110
3, 92154, Note_off_c, 2, 51, 127
3, 92160, Note_on_c, 2, 44, 110
3, 92514, Note_off_c, 2, 44, 127
3, 92520, Note_on_c, 2, 51, 110
3, 92874, Note_off_c, 2, 51, 127
3, 92880, Note_on_c, 2, 48, 110
3, 93114, Note_off_c, 2, 48, 127
3, 93120, Note_on_c, 2, 44, 110
3, 93474, Note_off_c, 2, 44, 127
3, 93480, Note_on_c, 2, 51, 110
3, 93834, Note_off_c, 2, 51, 127
3, 93840, Note_on_c, 2, 48, 110
3, 94074, Note_off_c, 2, 48, 127
3, 94080, Note_on_c, 2, 46, 110
3, 94434, Note_off_c, 2, 46, 127
3, 94440, Note_on_c, 2, 49, 110
3, 94794, Note_off_c, 2, 49, 127
3, 94800, Note_on_c, 2, 53, 110
3, 95034, Note_off_c, 2, 53, 127
3, 95040, Note_on_c, 2, 46, 110
3, 95394, Note_off_c, 2, 46, 127
3, 95400, Note_on_c, 2, 49, 110
3, 95754, Note_off_c, 2, 49, 127
3, 95760, Note_on_c, 2, 53, 110
3, 95994, Note_off_c, 2, 53, 127
3, 96000, Note_on_c, 2, 44, 110
3, 96354, Note_off_c, 2, 44, 127
3, 96360, Note_on_c, 2, 48, 110
3, 96714, Note_off_c, 2, 48, 127
3, 96720, Note_on_c, 2, 51, 110
3, 96954, Note_off_c, 2, 51, 127
3, 96960, Note_on_c, 2, 44, 110
3, 97314, Note_off_c, 2, 44, 127
3, 97320, Note_on_c, 2, 48, 110
3, 97674, Note_off_c, 2, 48, 127
3, 97680, Note_on_c, 2, 51, 110
3, 97914, Note_off_c, 2, 51, 127
3, 97920, Note_on_c, 2, 46, 110
3, 98274, Note_off_c, 2, 46, 127
3, 98280, Note_on_c, 2, 49, 110
3, 98634, Note_off_c, 2, 49, 127
3, 98640, Note_on_c, 2, 53, 110
3, 98874, Note_off_c, 2, 53, 127
3, 98880, Note_on_c, 2, 46, 110
3, 99234, Note_off_c, 2, 46, 127
3, 99240, Note_on_c, 2, 49, 110
3, 99594, Note_off_c, 2, 49, 127
3, 99600, Note_on_c, 2, 53, 110
3, 99834, Note_off_c, 2, 53, 127
3, 99840, Note_on_c, 2, 44, 110
3, 100194, Note_off_c, 2, 44, 127
3, 100200, Note_on_c, 2, 48, 110
3, 100554, Note_off_c, 2, 48, 127
3, 100560, Note_on_c, 2, 51, 110
3, 100794, Note_off_c, 2, 51, 127
3, 100800, Note_on_c, 2, 44, 110
3, 101154, Note_off_c, 2, 44, 127
3, 101160, Note_on_c, 2, 48, 110
3, 101514, Note_off_c, 2, 48, 127
3, 101520, Note_on_c, 2, 51, 110
3, 101754, Note_off_c, 2, 51, 127
3, 101760, Note_on_c, 2, 46, 110
3, 102114, Note_off_c, 2, 46, 127
3, 102120, Note_on_c, 2, 49, 110
3, 102474, Note_off_c, 2, 49, 127
3, 102480, Note_on_c, 2, 53, 110
3, 102714, Note_off_c, 2, 53, 127
3, 102720, Note_on_c, 2, 46, 110
3, 103074, Note_off_c, 2, 46, 127
3, 103080, Note_on_c, 2, 49, 110
3, 103434, Note_off_c, 2, 49, 127
3, 103440, Note_on_c, 2, 53, 110
3, 103674, Note_off_c, 2, 53, 127
3, 103680, Note_on_c, 2, 44, 110
3, 104034, Note_off_c, 2, 44, 127
3, 104040, Note_on_c, 2, 48, 110
3, 104394, Note_off_c, 2, 48, 127
3, 104400, Note_on_c, 2, 51, 110
3, 104634, Note_off_c, 2, 51, 127
3, 104640, Note_on_c, 2, 44, 110
3, 104994, Note_off_c, 2, 44, 127
3, 105000, Note_on_c, 2, 48, 110
3, 105354, Note_off_c, 2, 48, 127
3, 105360, Note_on_c, 2, 51, 110
3, 105594, Note_off_c, 2, 51, 127
3, 105600, Note_on_c, 2, 46, 110
3, 105954, Note_off_c, 2, 46, 127
3, 105960, Note_on_c, 2, 49, 110
3, 106314, Note_off_c, 2, 49, 127
3, 106320, Note_on_c, 2, 53, 110
3, 106554, Note_off_c, 2, 53, 127
3, 106560, Note_on_c, 2, 46, 110
3, 106914, Note_off_c, 2, 46, 127
3, 106920, Note_on_c, 2, 51, 110
3, 107274, Note_off_c, 2, 51, 127
3, 107280, Note_on_c, 2, 55, 110
3, 107514, Note_off_c, 2, 55, 127
3, 107520, Note_on_c, 2, 44, 110
3, 107874, Note_off_c, 2, 44, 127
3, 107880, Note_on_c, 2, 48, 110
3, 108234, Note_off_c, 2, 48, 127
3, 108240, Note_on_c, 2, 51, 110
3, 108474, Note_off_c, 2, 51, 127
3, 108480, Note_on_c, 2, 44, 110
3, 108880, Note_off_c, 2, 44, 127
3, 109440, Note_on_c, 2, 44, 110
3, 109794, Note_off_c, 2, 44, 127
3, 109800, Note_on_c, 2, 51, 110
3, 110154, Note_off_c, 2, 51, 127
3, 110160, Note_on_c, 2, 48, 110
3, 110394, Note_off_c, 2, 48, 127
3, 110400, Note_on_c, 2, 44, 110
3, 110754, Note_off_c, 2, 44, 127
3, 110760, Note_on_c, 2, 51, 110
3, 111114, Note_off_c, 2, 51, 127
3, 111120, Note_on_c, 2, 48, 110
3, 111354, Note_off_c, 2, 48, 127
3, 111360, Note_on_c, 2, 46, 110
3, 111714, Note_off_c, 2, 46, 127
3, 111720, Note_on_c, 2, 53, 110
3, 112074, Note_off_c, 2, 53, 127
3, 112080, Note_on_c, 2, 49, 110
3, 112314, Note_off_c, 2, 49, 127
3, 112320, Note_on_c, 2, 46, 110
3, 112674, Note_off_c, 2, 46, 127
3, 112680, Note_on_c, 2, 53, 110
3, 113034, Note_off_c, 2, 53, 127
3, 113040, Note_on_c, 2, 49, 110
3, 113274, Note_off_c, 2, 49, 127
3, 113280, Note_on_c, 2, 46, 110
3, 113634, Note_off_c, 2, 46, 127
3, 113640, Note_on_c, 2, 55, 110
3, 113994, Note_off_c, 2, 55, 127
3, 114000, Note_on_c, 2, 51, 110
3, 114234, Note_off_c, 2, 51, 127
3, 114240, Note_on_c, 2, 46, 110
3, 114594, Note_off_c, 2, 46, 127
3, 114600, Note_on_c, 2, 55, 110
3, 114954, Note_off_c, 2, 55, 127
3, 114960, Note_on_c, 2, 51, 110
3, 115194, Note_off_c, 2, 51, 127
3, 115200, Note_on_c, 2, 44, 110
3, 115554, Note_off_c, 2, 44, 127
3, 115560, Note_on_c, 2, 51, 110
3, 115914, Note_off_c, 2, 51, 127
3, 115920, Note_on_c, 2, 48, 110
3, 116154, Note_off_c, 2, 48, 127
3, 116160, Note_on_c, 2, 44, 110
3, 116514, Note_off_c, 2, 44, 127
3, 116520, Note_on_c, 2, 51, 110
3, 116874, Note_off_c, 2, 51, 127
3, 116880, Note_on_c, 2, 48, 110
3, 117114, Note_off_c, 2, 48, 127
3, 117120, Note_on_c, 2, 44, 110
3, 117474, Note_off_c, 2, 44, 127
3, 117480, Note_on_c, 2, 51, 110
3, 117834, Note_off_c, 2, 51, 127
3, 117840, Note_on_c, 2, 48, 110
3, 118074, Note_off_c, 2, 48, 127
3, 118080, Note_on_c, 2, 44, 110
3, 118434, Note_off_c, 2, 44, 127
3, 118440, Note_on_c, 2, 51, 110
3, 118794, Note_off_c, 2, 51, 127
3, 118800, Note_on_c, 2, 48, 110
3, 119034, Note_off_c, 2, 48, 127
3, 119040, Note_on_c, 2, 46, 110
3, 119394, Note_off_c, 2, 46, 127
3, 119400, Note_on_c, 2, 53, 110
3, 119754, Note_off_c, 2, 53, 127
3, 119760, Note_on_c, 2, 49, 110
3, 119994, Note_off_c, 2, 49, 127
3, 120000, Note_on_c, 2, 46, 110
3, 120354, Note_off_c, 2, 46, 127
3, 120360, Note_on_c, 2, 53, 110
3, 120714, Note_off_c, 2, 53, 127
3, 120720, Note_on_c, 2, 49, 110
3, 120954, Note_off_c, 2, 49, 127
3, 120960, Note_on_c, 2, 46, 110
3, 121314, Note_off_c, 2, 46, 127
3, 121320, Note_on_c, 2, 55, 110
3, 121674, Note_off_c, 2, 55, 127
3, 121680, Note_on_c, 2, 51, 110
3, 121914, Note_off_c, 2, 51, 127
3, 121920, Note_on_c, 2, 46, 110
3, 122274, Note_off_c, 2, 46, 127
3, 122280, Note_on_c, 2, 55, 110
3, 122634, Note_off_c, 2, 55, 127
3, 122640, Note_on_c, 2, 51, 110
3, 122874, Note_off_c, 2, 51, 127
3, 122880, Note_on_c, 2, 44, 110
3, 123234, Note_off_c, 2, 44, 127
3, 123240, Note_on_c, 2, 51, 110
3, 123594, Note_off_c, 2, 51, 127
3, 123600, Note_on_c, 2, 48, 110
3, 123834, Note_off_c, 2, 48, 127
3, 123840, Note_on_c, 2, 44, 110
3, 124194, Note_off_c, 2, 44, 127
3, 124200, Note_on_c, 2, 51, 110
3, 124554, Note_off_c, 2, 51, 127
3, 124560, Note_on_c, 2, 48, 110
3, 124794, Note_off_c, 2, 48, 127
3, 124800, Note_on_c, 2, 46, 110
3, 125154, Note_off_c, 2, 46, 127
3, 125160, Note_on_c, 2, 49, 110
3, 125514, Note_off_c, 2, 49, 127
3, 125520, Note_on_c, 2, 53, 110
3, 125754, Note_off_c, 2, 53, 127
3, 125760, Note_on_c, 2, 46, 110
3, 126114, Note_off_c, 2, 46, 127
3, 126120, Note_on_c, 2, 49, 110
3, 126474, Note_off_c, 2, 49, 127
3, 126480, Note_on_c, 2, 53, 110
3, 126714, Note_off_c, 2, 53, 127
3, 126720, Note_on_c, 2, 44, 110
3, 127074, Note_off_c, 2, 44, 127
3, 127080, Note_on_c, 2, 48, 110
3, 127434, Note_off_c, 2, 48, 127
3, 127440, Note_on_c, 2, 51, 110
3, 127674, Note_off_c, 2, 51, 127
3, 127680, Note_on_c, 2, 44, 110
3, 128034, Note_off_c, 2, 44, 127
3, 128040, Note_on_c, 2, 48, 110
3, 128394, Note_off_c, 2, 48, 127
3, 128400, Note_on_c, 2, 51, 110
3, 128634, Note_off_c, 2, 51, 127
3, 128640, Note_on_c, 2, 46, 110
3, 128994, Note_off_c, 2, 46, 127
3, 129000, Note_on_c, 2, 49, 110
3, 129354, Note_off_c, 2, 49, 127
3, 129360, Note_on_c, 2, 53, 110
3, 129594, Note_off_c, 2, 53, 127
3, 129600, Note_on_c, 2, 46, 110
3, 129954, Note_off_c, 2, 46, 127
3, 129960, Note_on_c, 2, 49, 110
3, 130314, Note_off_c, 2, 49, 127
3, 130320, Note_on_c, 2, 53, 110
3, 130554, Note_off_c, 2, 53, 127
3, 130560, Note_on_c, 2, 44, 110
3, 130914, Note_off_c, 2, 44, 127
3, 130920, Note_on_c, 2, 48, 110
3, 131274, Note_off_c, 2, 48, 127
3, 131280, Note_on_c, 2, 51, 110
3, 131514, Note_off_c, 2, 51, 127
3, 131520, Note_on_c, 2, 44, 110
3, 131874, Note_off_c, 2, 44, 127
3, 131880, Note_on_c, 2, 48, 110
3, 132234, Note_off_c, 2, 48, 127
3, 132240, Note_on_c, 2, 51, 110
3, 132474, Note_off_c, 2, 51, 127
3, 132480, Note_on_c, 2, 46, 110
3, 132834, Note_off_c, 2, 46, 127
3, 132840, Note_on_c, 2, 49, 110
3, 133194, Note_off_c, 2, 49, 127
3, 133200, Note_on_c, 2, 53, 110
3, 133434, Note_off_c, 2, 53, 127
3, 133440, Note_on_c, 2, 46, 110
3, 133794, Note_off_c, 2, 46, 127
3, 133800, Note_on_c, 2, 49, 110
3, 134154, Note_off_c, 2, 49, 127
3, 134160, Note_on_c, 2, 53, 110
3, 134394, Note_off_c, 2, 53, 127
3, 134400, Note_on_c, 2, 44, 110
3, 134754, Note_off_c, 2, 44, 127
3, 134760, Note_on_c, 2, 48, 110
3, 135114, Note_off_c, 2, 48, 127
3, 135120, Note_on_c, 2, 51, 110
3, 135354, Note_off_c, 2, 51, 127
3, 135360, Note_on_c, 2, 44, 110
3, 135714, Note_off_c, 2, 44, 127
3, 135720, Note_on_c, 2, 48, 110
3, 136074, Note_off_c, 2, 48, 127
3, 136080, Note_on_c, 2, 51, 110
3, 136314, Note_off_c, 2, 51, 127
3, 136320, Note_on_c, 2, 46, 110
3, 136674, Note_off_c, 2, 46, 127
3, 136680, Note_on_c, 2, 49, 110
3, 137034, Note_off_c, 2, 49, 127
3, 137040, Note_on_c, 2, 53, 110
3, 137274, Note_off_c, 2, 53, 127
3, 137280, Note_on_c, 2, 46, 110
3, 137634, Note_off_c, 2, 46, 127
3, 137640, Note_on_c, 2, 51, 110
3, 137994, Note_off_c, 2, 51, 127
3, 138000, Note_on_c, 2, 55, 110
3, 138234, Note_off_c, 2, 55, 127
3, 138240, Note_on_c, 2, 44, 110
3, 138594, Note_off_c, 2, 44, 127
3, 138600, Note_on_c, 2, 48, 110
3, 138954, Note_off_c, 2, 48, 127
3, 138960, Note_on_c, 2, 51, 110
3, 139194, Note_off_c, 2, 51, 127
3, 139200, Note_on_c, 2, 44, 110
3, 139600, Note_off_c, 2, 44, 127
3, 140160, Note_on_c, 2, 44, 110
3, 140514, Note_off_c, 2, 44, 127
3, 140520, Note_on_c, 2, 51, 110
3, 140874, Note_off_c, 2, 51, 127
3, 140880, Note_on_c, 2, 48, 110
3, 141114, Note_off_c, 2, 48, 127
3, 141120, Note_on_c, 2, 44, 110
3, 141474, Note_off_c, 2, 44, 127
3, 141480, Note_on_c, 2, 51, 110
3, 141834, Note_off_c, 2, 51, 127
3, 141840, Note_on_c, 2, 48, 110
3, 142074, Note_off_c, 2, 48, 127
3, 142080, Note_on_c, 2, 46, 110
3, 142434, Note_off_c, 2, 46, 127
3, 142440, Note_on_c, 2, 53, 110
3, 142794, Note_off_c, 2, 53, 127
3, 142800, Note_on_c, 2, 49, 110
3, 143034, Note_off_c, 2, 49, 127
3, 143040, Note_on_c, 2, 46, 110
3, 143394, Note_off_c, 2, 46, 127
3, 143400, Note_on_c, 2, 53, 110
3, 143754, Note_off_c, 2, 53, 127
3, 143760, Note_on_c, 2, 49, 110
3, 143994, Note_off_c, 2, 49, 127
3, 144000, Note_on_c, 2, 44, 110
3, 144354, Note_off_c, 2, 44, 127
3, 144360, Note_on_c, 2, 51, 110
3, 144714, Note_off_c, 2, 51, 127
3, 144720, Note_on_c, 2, 48, 110
3, 144954, Note_off_c, 2, 48, 127
3, 144960, Note_on_c, 2, 44, 110
3, 145314, Note_off_c, 2, 44, 127
3, 145320, Note_on_c, 2, 51, 110
3, 145674, Note_off_c, 2, 51, 127
3, 145680, Note_on_c, 2, 48, 110
3, 145914, Note_off_c, 2, 48, 127
3, 145920, Note_on_c, 2, 46, 110
3, 146034, Note_off_c, 2, 46, 127
3, 146040, Note_on_c, 2, 46, 110
3, 146154, Note_off_c, 2, 46, 127
3, 146160, Note_on_c, 2, 46, 110
3, 146274, Note_off_c, 2, 46, 127
3, 146280, Note_on_c, 2, 46, 110
3, 146394, Note_off_c, 2, 46, 127
3, 146520, Note_on_c, 2, 46, 110
3, 146754, Note_off_c, 2, 46, 127
3, 146760, Note_on_c, 2, 46, 110
3, 146874, Note_off_c, 2, 46, 127
3, 146880, Note_on_c, 2, 51, 110
3, 147280, Note_off_c, 2, 51, 127
3, 147480, Note_on_c, 2, 51, 110
3, 147594, Note_off_c, 2, 51, 127
3, 147600, Note_on_c, 2, 51, 110
3, 147834, Note_off_c, 2, 51, 127
3, 147840, End_track
4, 0, Start_track
4, 0, Title_t, "Staff-2"
4, 1920, Control_c, 3, 32, 0
4, 1920, Control_c, 3, 0, 0
4, 1920, Note_on_c, 3, 72, 110
4, 1920, Control_c, 3, 91, 0
4, 1920, Control_c, 3, 7, 127
4, 1920, Control_c, 3, 93, 0
4, 1920, Control_c, 3, 10, 64
4, 1920, Control_c, 3, 121, 0
4, 1920, Program_c, 3, 80
4, 2034, Note_off_c, 3, 72, 127
4, 2040, Note_on_c, 3, 72, 110
4, 2154, Note_off_c, 3, 72, 127
4, 2160, Note_on_c, 3, 72, 110
4, 2274, Note_off_c, 3, 72, 127
4, 2280, Note_on_c, 3, 72, 110
4, 2394, Note_off_c, 3, 72, 127
4, 2400, Note_on_c, 3, 68, 110
4, 2514, Note_off_c, 3, 68, 127
4, 2520, Note_on_c, 3, 72, 110
4, 2754, Note_off_c, 3, 72, 127
4, 2760, Note_on_c, 3, 72, 110
4, 2874, Note_off_c, 3, 72, 127
4, 3000, Note_on_c, 3, 72, 110
4, 3114, Note_off_c, 3, 72, 127
4, 3120, Note_on_c, 3, 72, 110
4, 3234, Note_off_c, 3, 72, 127
4, 3240, Note_on_c, 3, 72, 110
4, 3354, Note_off_c, 3, 72, 127
4, 3360, Note_on_c, 3, 72, 110
4, 3474, Note_off_c, 3, 72, 127
4, 3480, Note_on_c, 3, 68, 110
4, 3594, Note_off_c, 3, 68, 127
4, 3600, Note_on_c, 3, 72, 110
4, 3714, Note_off_c, 3, 72, 127
4, 3720, Note_on_c, 3, 72, 110
4, 3834, Note_off_c, 3, 72, 127
4, 3840, Note_on_c, 3, 70, 110
4, 3954, Note_off_c, 3, 70, 127
4, 3960, Note_on_c, 3, 70, 110
4, 4074, Note_off_c, 3, 70, 127
4, 4080, Note_on_c, 3, 70, 110
4, 4194, Note_off_c, 3, 70, 127
4, 4200, Note_on_c, 3, 70, 110
4, 4314, Note_off_c, 3, 70, 127
4, 4320, Note_on_c, 3, 70, 110
4, 4434, Note_off_c, 3, 70, 127
4, 4440, Note_on_c, 3, 65, 110
4, 4674, Note_off_c, 3, 65, 127
4, 4680, Note_on_c, 3, 70, 110
4, 4794, Note_off_c, 3, 70, 127
4, 4920, Note_on_c, 3, 70, 110
4, 5034, Note_off_c, 3, 70, 127
4, 5040, Note_on_c, 3, 70, 110
4, 5154, Note_off_c, 3, 70, 127
4, 5160, Note_on_c, 3, 70, 110
4, 5274, Note_off_c, 3, 70, 127
4, 5280, Note_on_c, 3, 70, 110
4, 5394, Note_off_c, 3, 70, 127
4, 5400, Note_on_c, 3, 65, 110
4, 5514, Note_off_c, 3, 65, 127
4, 5520, Note_on_c, 3, 70, 110
4, 5634, Note_off_c, 3, 70, 127
4, 5640, Note_on_c, 3, 70, 110
4, 5754, Note_off_c, 3, 70, 127
4, 5760, Note_on_c, 3, 72, 110
4, 5874, Note_off_c, 3, 72, 127
4, 5880, Note_on_c, 3, 72, 110
4, 5994, Note_off_c, 3, 72, 127
4, 6000, Note_on_c, 3, 72, 110
4, 6114, Note_off_c, 3, 72, 127
4, 6120, Note_on_c, 3, 72, 110
4, 6234, Note_off_c, 3, 72, 127
4, 6240, Note_on_c, 3, 68, 110
4, 6354, Note_off_c, 3, 68, 127
4, 6360, Note_on_c, 3, 72, 110
4, 6594, Note_off_c, 3, 72, 127
4, 6600, Note_on_c, 3, 72, 110
4, 6714, Note_off_c, 3, 72, 127
4, 6840, Note_on_c, 3, 72, 110
4, 6954, Note_off_c, 3, 72, 127
4, 6960, Note_on_c, 3, 72, 110
4, 7074, Note_off_c, 3, 72, 127
4, 7080, Note_on_c, 3, 72, 110
4, 7194, Note_off_c, 3, 72, 127
4, 7200, Note_on_c, 3, 72, 110
4, 7314, Note_off_c, 3, 72, 127
4, 7320, Note_on_c, 3, 68, 110
4, 7434, Note_off_c, 3, 68, 127
4, 7440, Note_on_c, 3, 72, 110
4, 7554, Note_off_c, 3, 72, 127
4, 7560, Note_on_c, 3, 72, 110
4, 7674, Note_off_c, 3, 72, 127
4, 7680, Note_on_c, 3, 70, 110
4, 7794, Note_off_c, 3, 70, 127
4, 7800, Note_on_c, 3, 69, 110
4, 7914, Note_off_c, 3, 69, 127
4, 7920, Note_on_c, 3, 70, 110
4, 8034, Note_off_c, 3, 70, 127
4, 8040, Note_on_c, 3, 70, 110
4, 8154, Note_off_c, 3, 70, 127
4, 8280, Note_on_c, 3, 73, 110
4, 8514, Note_off_c, 3, 73, 127
4, 8520, Note_on_c, 3, 73, 110
4, 8634, Note_off_c, 3, 73, 127
4, 8640, Note_on_c, 3, 73, 110
4, 8754, Note_off_c, 3, 73, 127
4, 8760, Note_on_c, 3, 70, 110
4, 8874, Note_off_c, 3, 70, 127
4, 8880, Note_on_c, 3, 70, 110
4, 8994, Note_off_c, 3, 70, 127
4, 9000, Note_on_c, 3, 70, 110
4, 9114, Note_off_c, 3, 70, 127
4, 9240, Note_on_c, 3, 70, 110
4, 9354, Note_off_c, 3, 70, 127
4, 9360, Note_on_c, 3, 61, 110
4, 9594, Note_off_c, 3, 61, 127
4, 9600, Note_on_c, 3, 63, 110
4, 9834, Note_off_c, 3, 63, 127
4, 9840, Note_on_c, 3, 60, 110
4, 10074, Note_off_c, 3, 60, 127
4, 10080, Note_on_c, 3, 63, 110
4, 10314, Note_off_c, 3, 63, 127
4, 10320, Note_on_c, 3, 60, 110
4, 10434, Note_off_c, 3, 60, 127
4, 10440, Note_on_c, 3, 63, 110
4, 10554, Note_off_c, 3, 63, 127
4, 10680, Note_on_c, 3, 63, 110
4, 10914, Note_off_c, 3, 63, 127
4, 10920, Note_on_c, 3, 60, 110
4, 11034, Note_off_c, 3, 60, 127
4, 11040, Note_on_c, 3, 63, 110
4, 11154, Note_off_c, 3, 63, 127
4, 11160, Note_on_c, 3, 63, 110
4, 11274, Note_off_c, 3, 63, 127
4, 11280, Note_on_c, 3, 60, 110
4, 11514, Note_off_c, 3, 60, 127
4, 11520, Note_on_c, 3, 65, 110
4, 11754, Note_off_c, 3, 65, 127
4, 11760, Note_on_c, 3, 61, 110
4, 11994, Note_off_c, 3, 61, 127
4, 12000, Note_on_c, 3, 65, 110
4, 12234, Note_off_c, 3, 65, 127
4, 12240, Note_on_c, 3, 61, 110
4, 12354, Note_off_c, 3, 61, 127
4, 12360, Note_on_c, 3, 65, 110
4, 12474, Note_off_c, 3, 65, 127
4, 12600, Note_on_c, 3, 65, 110
4, 12834, Note_off_c, 3, 65, 127
4, 12840, Note_on_c, 3, 61, 110
4, 12954, Note_off_c, 3, 61, 127
4, 12960, Note_on_c, 3, 65, 110
4, 13074, Note_off_c, 3, 65, 127
4, 13080, Note_on_c, 3, 65, 110
4, 13194, Note_off_c, 3, 65, 127
4, 13200, Note_on_c, 3, 61, 110
4, 13434, Note_off_c, 3, 61, 127
4, 13440, Note_on_c, 3, 63, 110
4, 13674, Note_off_c, 3, 63, 127
4, 13680, Note_on_c, 3, 61, 110
4, 13914, Note_off_c, 3, 61, 127
4, 13920, Note_on_c, 3, 63, 110
4, 14154, Note_off_c, 3, 63, 127
4, 14160, Note_on_c, 3, 61, 110
4, 14274, Note_off_c, 3, 61, 127
4, 14280, Note_on_c, 3, 63, 110
4, 14394, Note_off_c, 3, 63, 127
4, 14520, Note_on_c, 3, 63, 110
4, 14754, Note_off_c, 3, 63, 127
4, 14760, Note_on_c, 3, 61, 110
4, 14874, Note_off_c, 3, 61, 127
4, 14880, Note_on_c, 3, 63, 110
4, 14994, Note_off_c, 3, 63, 127
4, 15000, Note_on_c, 3, 63, 110
4, 15114, Note_off_c, 3, 63, 127
4, 15120, Note_on_c, 3, 61, 110
4, 15354, Note_off_c, 3, 61, 127
4, 15360, Note_on_c, 3, 63, 110
4, 15594, Note_off_c, 3, 63, 127
4, 15600, Note_on_c, 3, 60, 110
4, 15834, Note_off_c, 3, 60, 127
4, 15840, Note_on_c, 3, 63, 110
4, 16074, Note_off_c, 3, 63, 127
4, 16080, Note_on_c, 3, 60, 110
4, 16194, Note_off_c, 3, 60, 127
4, 16200, Note_on_c, 3, 63, 110
4, 16314, Note_off_c, 3, 63, 127
4, 16440, Note_on_c, 3, 63, 110
4, 16674, Note_off_c, 3, 63, 127
4, 16680, Note_on_c, 3, 60, 110
4, 16794, Note_off_c, 3, 60, 127
4, 16800, Note_on_c, 3, 63, 110
4, 16914, Note_off_c, 3, 63, 127
4, 16920, Note_on_c, 3, 63, 110
4, 17034, Note_off_c, 3, 63, 127
4, 17040, Note_on_c, 3, 60, 110
4, 17274, Note_off_c, 3, 60, 127
4, 17280, Note_on_c, 3, 63, 110
4, 17514, Note_off_c, 3, 63, 127
4, 17520, Note_on_c, 3, 60, 110
4, 17754, Note_off_c, 3, 60, 127
4, 17760, Note_on_c, 3, 63, 110
4, 17994, Note_off_c, 3, 63, 127
4, 18000, Note_on_c, 3, 60, 110
4, 18114, Note_off_c, 3, 60, 127
4, 18120, Note_on_c, 3, 63, 110
4, 18234, Note_off_c, 3, 63, 127
4, 18360, Note_on_c, 3, 63, 110
4, 18594, Note_off_c, 3, 63, 127
4, 18600, Note_on_c, 3, 60, 110
4, 18714, Note_off_c, 3, 60, 127
4, 18720, Note_on_c, 3, 63, 110
4, 18834, Note_off_c, 3, 63, 127
4, 18840, Note_on_c, 3, 63, 110
4, 18954, Note_off_c, 3, 63, 127
4, 18960, Note_on_c, 3, 60, 110
4, 19194, Note_off_c, 3, 60, 127
4, 19200, Note_on_c, 3, 65, 110
4, 19434, Note_off_c, 3, 65, 127
4, 19440, Note_on_c, 3, 61, 110
4, 19674, Note_off_c, 3, 61, 127
4, 19680, Note_on_c, 3, 65, 110
4, 19914, Note_off_c, 3, 65, 127
4, 19920, Note_on_c, 3, 61, 110
4, 20034, Note_off_c, 3, 61, 127
4, 20040, Note_on_c, 3, 65, 110
4, 20154, Note_off_c, 3, 65, 127
4, 20280, Note_on_c, 3, 65, 110
4, 20514, Note_off_c, 3, 65, 127
4, 20520, Note_on_c, 3, 61, 110
4, 20634, Note_off_c, 3, 61, 127
4, 20640, Note_on_c, 3, 65, 110
4, 20754, Note_off_c, 3, 65, 127
4, 20760, Note_on_c, 3, 65, 110
4, 20874, Note_off_c, 3, 65, 127
4, 20880, Note_on_c, 3, 61, 110
4, 21114, Note_off_c, 3, 61, 127
4, 21120, Note_on_c, 3, 63, 110
4, 21354, Note_off_c, 3, 63, 127
4, 21360, Note_on_c, 3, 61, 110
4, 21594, Note_off_c, 3, 61, 127
4, 21600, Note_on_c, 3, 63, 110
4, 21834, Note_off_c, 3, 63, 127
4, 21840, Note_on_c, 3, 61, 110
4, 21954, Note_off_c, 3, 61, 127
4, 21960, Note_on_c, 3, 63, 110
4, 22074, Note_off_c, 3, 63, 127
4, 22200, Note_on_c, 3, 63, 110
4, 22434, Note_off_c, 3, 63, 127
4, 22440, Note_on_c, 3, 61, 110
4, 22554, Note_off_c, 3, 61, 127
4, 22560, Note_on_c, 3, 63, 110
4, 22674, Note_off_c, 3, 63, 127
4, 22680, Note_on_c, 3, 63, 110
4, 22794, Note_off_c, 3, 63, 127
4, 22800, Note_on_c, 3, 61, 110
4, 23034, Note_off_c, 3, 61, 127
4, 23040, Note_on_c, 3, 63, 110
4, 23274, Note_off_c, 3, 63, 127
4, 23280, Note_on_c, 3, 60, 110
4, 23514, Note_off_c, 3, 60, 127
4, 23520, Note_on_c, 3, 63, 110
4, 23754, Note_off_c, 3, 63, 127
4, 23760, Note_on_c, 3, 60, 110
4, 23874, Note_off_c, 3, 60, 127
4, 23880, Note_on_c, 3, 63, 110
4, 23994, Note_off_c, 3, 63, 127
4, 24120, Note_on_c, 3, 63, 110
4, 24354, Note_off_c, 3, 63, 127
4, 24360, Note_on_c, 3, 60, 110
4, 24474, Note_off_c, 3, 60, 127
4, 24480, Note_on_c, 3, 63, 110
4, 24594, Note_off_c, 3, 63, 127
4, 24600, Note_on_c, 3, 63, 110
4, 24714, Note_off_c, 3, 63, 127
4, 24720, Note_on_c, 3, 60, 110
4, 24954, Note_off_c, 3, 60, 127
4, 24960, Note_on_c, 3, 70, 110
4, 25074, Note_off_c, 3, 70, 127
4, 25080, Note_on_c, 3, 69, 110
4, 25194, Note_off_c, 3, 69, 127
4, 25200, Note_on_c, 3, 70, 110
4, 25314, Note_off_c, 3, 70, 127
4, 25320, Note_on_c, 3, 70, 110
4, 25434, Note_off_c, 3, 70, 127
4, 25440, Note_on_c, 3, 73, 110
4, 25554, Note_off_c, 3, 73, 127
4, 25560, Note_on_c, 3, 77, 110
4, 25794, Note_off_c, 3, 77, 127
4, 25800, Note_on_c, 3, 73, 110
4, 25914, Note_off_c, 3, 73, 127
4, 26040, Note_on_c, 3, 77, 110
4, 26274, Note_off_c, 3, 77, 127
4, 26280, Note_on_c, 3, 77, 110
4, 26394, Note_off_c, 3, 77, 127
4, 26400, Note_on_c, 3, 73, 110
4, 26634, Note_off_c, 3, 73, 127
4, 26640, Note_on_c, 3, 73, 110
4, 26874, Note_off_c, 3, 73, 127
4, 26880, Note_on_c, 3, 75, 110
4, 27234, Note_off_c, 3, 75, 127
4, 27240, Note_on_c, 3, 72, 110
4, 27594, Note_off_c, 3, 72, 127
4, 27600, Note_on_c, 3, 68, 110
4, 28240, Note_off_c, 3, 68, 127
4, 28320, Note_on_c, 3, 68, 110
4, 28434, Note_off_c, 3, 68, 127
4, 28440, Note_on_c, 3, 70, 110
4, 28554, Note_off_c, 3, 70, 127
4, 28560, Note_on_c, 3, 72, 110
4, 28794, Note_off_c, 3, 72, 127
4, 28800, Note_on_c, 3, 73, 110
4, 29154, Note_off_c, 3, 73, 127
4, 29160, Note_on_c, 3, 70, 110
4, 29514, Note_off_c, 3, 70, 127
4, 29520, Note_on_c, 3, 65, 110
4, 30160, Note_off_c, 3, 65, 127
4, 30240, Note_on_c, 3, 65, 110
4, 30354, Note_off_c, 3, 65, 127
4, 30360, Note_on_c, 3, 67, 110
4, 30474, Note_off_c, 3, 67, 127
4, 30480, Note_on_c, 3, 70, 110
4, 30714, Note_off_c, 3, 70, 127
4, 30720, Note_on_c, 3, 72, 110
4, 31074, Note_off_c, 3, 72, 127
4, 31080, Note_on_c, 3, 68, 110
4, 31434, Note_off_c, 3, 68, 127
4, 31440, Note_on_c, 3, 63, 110
4, 31674, Note_off_c, 3, 63, 127
4, 31800, Note_on_c, 3, 56, 110
4, 31914, Note_off_c, 3, 56, 127
4, 31920, Note_on_c, 3, 58, 110
4, 32034, Note_off_c, 3, 58, 127
4, 32040, Note_on_c, 3, 60, 110
4, 32154, Note_off_c, 3, 60, 127
4, 32160, Note_on_c, 3, 61, 110
4, 32274, Note_off_c, 3, 61, 127
4, 32280, Note_on_c, 3, 63, 110
4, 32394, Note_off_c, 3, 63, 127
4, 32400, Note_on_c, 3, 65, 110
4, 32514, Note_off_c, 3, 65, 127
4, 32520, Note_on_c, 3, 67, 110
4, 32634, Note_off_c, 3, 67, 127
4, 32640, Note_on_c, 3, 70, 110
4, 32754, Note_off_c, 3, 70, 127
4, 32760, Note_on_c, 3, 69, 110
4, 32874, Note_off_c, 3, 69, 127
4, 32880, Note_on_c, 3, 70, 110
4, 32994, Note_off_c, 3, 70, 127
4, 33000, Note_on_c, 3, 70, 110
4, 33114, Note_off_c, 3, 70, 127
4, 33120, Note_on_c, 3, 73, 110
4, 33234, Note_off_c, 3, 73, 127
4, 33240, Note_on_c, 3, 77, 110
4, 33474, Note_off_c, 3, 77, 127
4, 33480, Note_on_c, 3, 73, 110
4, 33594, Note_off_c, 3, 73, 127
4, 33720, Note_on_c, 3, 77, 110
4, 33954, Note_off_c, 3, 77, 127
4, 33960, Note_on_c, 3, 77, 110
4, 34074, Note_off_c, 3, 77, 127
4, 34080, Note_on_c, 3, 73, 110
4, 34314, Note_off_c, 3, 73, 127
4, 34320, Note_on_c, 3, 73, 110
4, 34554, Note_off_c, 3, 73, 127
4, 34560, Note_on_c, 3, 75, 110
4, 34914, Note_off_c, 3, 75, 127
4, 34920, Note_on_c, 3, 72, 110
4, 35274, Note_off_c, 3, 72, 127
4, 35280, Note_on_c, 3, 68, 110
4, 35920, Note_off_c, 3, 68, 127
4, 36000, Note_on_c, 3, 68, 110
4, 36114, Note_off_c, 3, 68, 127
4, 36120, Note_on_c, 3, 70, 110
4, 36234, Note_off_c, 3, 70, 127
4, 36240, Note_on_c, 3, 72, 110
4, 36474, Note_off_c, 3, 72, 127
4, 36480, Note_on_c, 3, 73, 110
4, 36834, Note_off_c, 3, 73, 127
4, 36840, Note_on_c, 3, 70, 110
4, 37194, Note_off_c, 3, 70, 127
4, 37200, Note_on_c, 3, 63, 110
4, 37674, Note_off_c, 3, 63, 127
4, 37680, Note_on_c, 3, 63, 110
4, 38154, Note_off_c, 3, 63, 127
4, 38160, Note_on_c, 3, 67, 110
4, 38394, Note_off_c, 3, 67, 127
4, 38400, Note_on_c, 3, 67, 110
4, 38754, Note_off_c, 3, 67, 127
4, 38760, Note_on_c, 3, 63, 110
4, 39474, Note_off_c, 3, 63, 127
4, 39480, Note_on_c, 3, 60, 110
4, 39594, Note_off_c, 3, 60, 127
4, 39600, Note_on_c, 3, 61, 110
4, 39714, Note_off_c, 3, 61, 127
4, 39720, Note_on_c, 3, 63, 110
4, 39834, Note_off_c, 3, 63, 127
4, 39840, Note_on_c, 3, 65, 110
4, 39954, Note_off_c, 3, 65, 127
4, 39960, Note_on_c, 3, 67, 110
4, 40074, Note_off_c, 3, 67, 127
4, 40080, Note_on_c, 3, 68, 110
4, 40194, Note_off_c, 3, 68, 127
4, 40200, Note_on_c, 3, 70, 110
4, 40314, Note_off_c, 3, 70, 127
4, 40320, Note_on_c, 3, 63, 110
4, 40554, Note_off_c, 3, 63, 127
4, 40560, Note_on_c, 3, 60, 110
4, 40794, Note_off_c, 3, 60, 127
4, 40800, Note_on_c, 3, 63, 110
4, 41034, Note_off_c, 3, 63, 127
4, 41040, Note_on_c, 3, 60, 110
4, 41154, Note_off_c, 3, 60, 127
4, 41160, Note_on_c, 3, 63, 110
4, 41274, Note_off_c, 3, 63, 127
4, 41400, Note_on_c, 3, 63, 110
4, 41634, Note_off_c, 3, 63, 127
4, 41640, Note_on_c, 3, 60, 110
4, 41754, Note_off_c, 3, 60, 127
4, 41760, Note_on_c, 3, 63, 110
4, 41874, Note_off_c, 3, 63, 127
4, 41880, Note_on_c, 3, 63, 110
4, 41994, Note_off_c, 3, 63, 127
4, 42000, Note_on_c, 3, 60, 110
4, 42234, Note_off_c, 3, 60, 127
4, 42240, Note_on_c, 3, 65, 110
4, 42474, Note_off_c, 3, 65, 127
4, 42480, Note_on_c, 3, 61, 110
4, 42714, Note_off_c, 3, 61, 127
4, 42720, Note_on_c, 3, 65, 110
4, 42954, Note_off_c, 3, 65, 127
4, 42960, Note_on_c, 3, 61, 110
4, 43074, Note_off_c, 3, 61, 127
4, 43080, Note_on_c, 3, 65, 110
4, 43194, Note_off_c, 3, 65, 127
4, 43320, Note_on_c, 3, 65, 110
4, 43554, Note_off_c, 3, 65, 127
4, 43560, Note_on_c, 3, 61, 110
4, 43674, Note_off_c, 3, 61, 127
4, 43680, Note_on_c, 3, 65, 110
4, 43794, Note_off_c, 3, 65, 127
4, 43800, Note_on_c, 3, 65, 110
4, 43914, Note_off_c, 3, 65, 127
4, 43920, Note_on_c, 3, 61, 110
4, 44154, Note_off_c, 3, 61, 127
4, 44160, Note_on_c, 3, 63, 110
4, 44394, Note_off_c, 3, 63, 127
4, 44400, Note_on_c, 3, 61, 110
4, 44634, Note_off_c, 3, 61, 127
4, 44640, Note_on_c, 3, 63, 110
4, 44874, Note_off_c, 3, 63, 127
4, 44880, Note_on_c, 3, 61, 110
4, 44994, Note_off_c, 3, 61, 127
4, 45000, Note_on_c, 3, 63, 110
4, 45114, Note_off_c, 3, 63, 127
4, 45240, Note_on_c, 3, 63, 110
4, 45474, Note_off_c, 3, 63, 127
4, 45480, Note_on_c, 3, 61, 110
4, 45594, Note_off_c, 3, 61, 127
4, 45600, Note_on_c, 3, 63, 110
4, 45714, Note_off_c, 3, 63, 127
4, 45720, Note_on_c, 3, 63, 110
4, 45834, Note_off_c, 3, 63, 127
4, 45840, Note_on_c, 3, 61, 110
4, 46074, Note_off_c, 3, 61, 127
4, 46080, Note_on_c, 3, 63, 110
4, 46314, Note_off_c, 3, 63, 127
4, 46320, Note_on_c, 3, 60, 110
4, 46554, Note_off_c, 3, 60, 127
4, 46560, Note_on_c, 3, 63, 110
4, 46794, Note_off_c, 3, 63, 127
4, 46800, Note_on_c, 3, 60, 110
4, 46914, Note_off_c, 3, 60, 127
4, 46920, Note_on_c, 3, 63, 110
4, 47034, Note_off_c, 3, 63, 127
4, 47160, Note_on_c, 3, 63, 110
4, 47394, Note_off_c, 3, 63, 127
4, 47400, Note_on_c, 3, 60, 110
4, 47514, Note_off_c, 3, 60, 127
4, 47520, Note_on_c, 3, 63, 110
4, 47634, Note_off_c, 3, 63, 127
4, 47640, Note_on_c, 3, 63, 110
4, 47754, Note_off_c, 3, 63, 127
4, 47760, Note_on_c, 3, 60, 110
4, 47994, Note_off_c, 3, 60, 127
4, 48000, Note_on_c, 3, 63, 110
4, 48234, Note_off_c, 3, 63, 127
4, 48240, Note_on_c, 3, 60, 110
4, 48474, Note_off_c, 3, 60, 127
4, 48480, Note_on_c, 3, 63, 110
4, 48714, Note_off_c, 3, 63, 127
4, 48720, Note_on_c, 3, 60, 110
4, 48834, Note_off_c, 3, 60, 127
4, 48840, Note_on_c, 3, 63, 110
4, 48954, Note_off_c, 3, 63, 127
4, 49080, Note_on_c, 3, 63, 110
4, 49314, Note_off_c, 3, 63, 127
4, 49320, Note_on_c, 3, 60, 110
4, 49434, Note_off_c, 3, 60, 127
4, 49440, Note_on_c, 3, 63, 110
4, 49554, Note_off_c, 3, 63, 127
4, 49560, Note_on_c, 3, 63, 110
4, 49674, Note_off_c, 3, 63, 127
4, 49680, Note_on_c, 3, 60, 110
4, 49914, Note_off_c, 3, 60, 127
4, 49920, Note_on_c, 3, 65, 110
4, 50154, Note_off_c, 3, 65, 127
4, 50160, Note_on_c, 3, 61, 110
4, 50394, Note_off_c, 3, 61, 127
4, 50400, Note_on_c, 3, 65, 110
4, 50634, Note_off_c, 3, 65, 127
4, 50640, Note_on_c, 3, 61, 110
4, 50754, Note_off_c, 3, 61, 127
4, 50760, Note_on_c, 3, 65, 110
4, 50874, Note_off_c, 3, 65, 127
4, 51000, Note_on_c, 3, 65, 110
4, 51234, Note_off_c, 3, 65, 127
4, 51240, Note_on_c, 3, 61, 110
4, 51354, Note_off_c, 3, 61, 127
4, 51360, Note_on_c, 3, 65, 110
4, 51474, Note_off_c, 3, 65, 127
4, 51480, Note_on_c, 3, 65, 110
4, 51594, Note_off_c, 3, 65, 127
4, 51600, Note_on_c, 3, 61, 110
4, 51834, Note_off_c, 3, 61, 127
4, 51840, Note_on_c, 3, 63, 110
4, 52074, Note_off_c, 3, 63, 127
4, 52080, Note_on_c, 3, 61, 110
4, 52314, Note_off_c, 3, 61, 127
4, 52320, Note_on_c, 3, 63, 110
4, 52554, Note_off_c, 3, 63, 127
4, 52560, Note_on_c, 3, 61, 110
4, 52674, Note_off_c, 3, 61, 127
4, 52680, Note_on_c, 3, 63, 110
4, 52794, Note_off_c, 3, 63, 127
4, 52920, Note_on_c, 3, 63, 110
4, 53154, Note_off_c, 3, 63, 127
4, 53160, Note_on_c, 3, 61, 110
4, 53274, Note_off_c, 3, 61, 127
4, 53280, Note_on_c, 3, 63, 110
4, 53394, Note_off_c, 3, 63, 127
4, 53400, Note_on_c, 3, 63, 110
4, 53514, Note_off_c, 3, 63, 127
4, 53520, Note_on_c, 3, 61, 110
4, 53754, Note_off_c, 3, 61, 127
4, 53760, Note_on_c, 3, 63, 110
4, 53994, Note_off_c, 3, 63, 127
4, 54000, Note_on_c, 3, 60, 110
4, 54234, Note_off_c, 3, 60, 127
4, 54240, Note_on_c, 3, 63, 110
4, 54474, Note_off_c, 3, 63, 127
4, 54480, Note_on_c, 3, 60, 110
4, 54594, Note_off_c, 3, 60, 127
4, 54600, Note_on_c, 3, 63, 110
4, 54714, Note_off_c, 3, 63, 127
4, 54840, Note_on_c, 3, 63, 110
4, 55074, Note_off_c, 3, 63, 127
4, 55080, Note_on_c, 3, 60, 110
4, 55194, Note_off_c, 3, 60, 127
4, 55200, Note_on_c, 3, 63, 110
4, 55314, Note_off_c, 3, 63, 127
4, 55320, Note_on_c, 3, 63, 110
4, 55434, Note_off_c, 3, 63, 127
4, 55440, Note_on_c, 3, 60, 110
4, 55674, Note_off_c, 3, 60, 127
4, 55680, Note_on_c, 3, 70, 110
4, 55794, Note_off_c, 3, 70, 127
4, 55800, Note_on_c, 3, 69, 110
4, 55914, Note_off_c, 3, 69, 127
4, 55920, Note_on_c, 3, 70, 110
4, 56034, Note_off_c, 3, 70, 127
4, 56040, Note_on_c, 3, 70, 110
4, 56154, Note_off_c, 3, 70, 127
4, 56160, Note_on_c, 3, 73, 110
4, 56274, Note_off_c, 3, 73, 127
4, 56280, Note_on_c, 3, 77, 110
4, 56514, Note_off_c, 3, 77, 127
4, 56520, Note_on_c, 3, 73, 110
4, 56634, Note_off_c, 3, 73, 127
4, 56760, Note_on_c, 3, 77, 110
4, 56994, Note_off_c, 3, 77, 127
4, 57000, Note_on_c, 3, 77, 110
4, 57114, Note_off_c, 3, 77, 127
4, 57120, Note_on_c, 3, 73, 110
4, 57354, Note_off_c, 3, 73, 127
4, 57360, Note_on_c, 3, 73, 110
4, 57594, Note_off_c, 3, 73, 127
4, 57600, Note_on_c, 3, 75, 110
4, 57954, Note_off_c, 3, 75, 127
4, 57960, Note_on_c, 3, 72, 110
4, 58314, Note_off_c, 3, 72, 127
4, 58320, Note_on_c, 3, 68, 110
4, 58960, Note_off_c, 3, 68, 127
4, 59040, Note_on_c, 3, 68, 110
4, 59154, Note_off_c, 3, 68, 127
4, 59160, Note_on_c, 3, 70, 110
4, 59274, Note_off_c, 3, 70, 127
4, 59280, Note_on_c, 3, 72, 110
4, 59514, Note_off_c, 3, 72, 127
4, 59520, Note_on_c, 3, 73, 110
4, 59874, Note_off_c, 3, 73, 127
4, 59880, Note_on_c, 3, 70, 110
4, 60234, Note_off_c, 3, 70, 127
4, 60240, Note_on_c, 3, 65, 110
4, 60880, Note_off_c, 3, 65, 127
4, 60960, Note_on_c, 3, 65, 110
4, 61074, Note_off_c, 3, 65, 127
4, 61080, Note_on_c, 3, 67, 110
4, 61194, Note_off_c, 3, 67, 127
4, 61200, Note_on_c, 3, 70, 110
4, 61434, Note_off_c, 3, 70, 127
4, 61440, Note_on_c, 3, 72, 110
4, 61794, Note_off_c, 3, 72, 127
4, 61800, Note_on_c, 3, 68, 110
4, 62154, Note_off_c, 3, 68, 127
4, 62160, Note_on_c, 3, 63, 110
4, 62394, Note_off_c, 3, 63, 127
4, 62520, Note_on_c, 3, 56, 110
4, 62634, Note_off_c, 3, 56, 127
4, 62640, Note_on_c, 3, 58, 110
4, 62754, Note_off_c, 3, 58, 127
4, 62760, Note_on_c, 3, 60, 110
4, 62874, Note_off_c, 3, 60, 127
4, 62880, Note_on_c, 3, 61, 110
4, 62994, Note_off_c, 3, 61, 127
4, 63000, Note_on_c, 3, 63, 110
4, 63114, Note_off_c, 3, 63, 127
4, 63120, Note_on_c, 3, 65, 110
4, 63234, Note_off_c, 3, 65, 127
4, 63240, Note_on_c, 3, 67, 110
4, 63354, Note_off_c, 3, 67, 127
4, 63360, Note_on_c, 3, 70, 110
4, 63474, Note_off_c, 3, 70, 127
4, 63480, Note_on_c, 3, 69, 110
4, 63594, Note_off_c, 3, 69, 127
4, 63600, Note_on_c, 3, 70, 110
4, 63714, Note_off_c, 3, 70, 127
4, 63720, Note_on_c, 3, 70, 110
4, 63834, Note_off_c, 3, 70, 127
4, 63840, Note_on_c, 3, 73, 110
4, 63954, Note_off_c, 3, 73, 127
4, 63960, Note_on_c, 3, 77, 110
4, 64194, Note_off_c, 3, 77, 127
4, 64200, Note_on_c, 3, 73, 110
4, 64314, Note_off_c, 3, 73, 127
4, 64440, Note_on_c, 3, 77, 110
4, 64674, Note_off_c, 3, 77, 127
4, 64680, Note_on_c, 3, 77, 110
4, 64794, Note_off_c, 3, 77, 127
4, 64800, Note_on_c, 3, 73, 110
4, 65034, Note_off_c, 3, 73, 127
4, 65040, Note_on_c, 3, 73, 110
4, 65274, Note_off_c, 3, 73, 127
4, 65280, Note_on_c, 3, 75, 110
4, 65634, Note_off_c, 3, 75, 127
4, 65640, Note_on_c, 3, 72, 110
4, 65994, Note_off_c, 3, 72, 127
4, 66000, Note_on_c, 3, 68, 110
4, 66640, Note_off_c, 3, 68, 127
4, 66720, Note_on_c, 3, 68, 110
4, 66834, Note_off_c, 3, 68, 127
4, 66840, Note_on_c, 3, 70, 110
4, 66954, Note_off_c, 3, 70, 127
4, 66960, Note_on_c, 3, 72, 110
4, 67194, Note_off_c, 3, 72, 127
4, 67200, Note_on_c, 3, 73, 110
4, 67554, Note_off_c, 3, 73, 127
4, 67560, Note_on_c, 3, 70, 110
4, 67914, Note_off_c, 3, 70, 127
4, 67920, Note_on_c, 3, 63, 110
4, 68394, Note_off_c, 3, 63, 127
4, 68400, Note_on_c, 3, 63, 110
4, 68874, Note_off_c, 3, 63, 127
4, 68880, Note_on_c, 3, 67, 110
4, 69114, Note_off_c, 3, 67, 127
4, 69120, Note_on_c, 3, 67, 110
4, 69474, Note_off_c, 3, 67, 127
4, 69480, Note_on_c, 3, 63, 110
4, 70194, Note_off_c, 3, 63, 127
4, 70200, Note_on_c, 3, 60, 110
4, 70314, Note_off_c, 3, 60, 127
4, 70320, Note_on_c, 3, 61, 110
4, 70434, Note_off_c, 3, 61, 127
4, 70440, Note_on_c, 3, 63, 110
4, 70554, Note_off_c, 3, 63, 127
4, 70560, Note_on_c, 3, 65, 110
4, 70674, Note_off_c, 3, 65, 127
4, 70680, Note_on_c, 3, 67, 110
4, 70794, Note_off_c, 3, 67, 127
4, 70800, Note_on_c, 3, 68, 110
4, 70914, Note_off_c, 3, 68, 127
4, 70920, Note_on_c, 3, 70, 110
4, 71034, Note_off_c, 3, 70, 127
4, 71040, Note_on_c, 3, 72, 110
4, 71154, Note_off_c, 3, 72, 127
4, 71160, Note_on_c, 3, 72, 110
4, 71274, Note_off_c, 3, 72, 127
4, 71280, Note_on_c, 3, 72, 110
4, 71394, Note_off_c, 3, 72, 127
4, 71400, Note_on_c, 3, 72, 110
4, 71514, Note_off_c, 3, 72, 127
4, 71520, Note_on_c, 3, 68, 110
4, 71634, Note_off_c, 3, 68, 127
4, 71640, Note_on_c, 3, 72, 110
4, 71874, Note_off_c, 3, 72, 127
4, 71880, Note_on_c, 3, 72, 110
4, 71994, Note_off_c, 3, 72, 127
4, 72120, Note_on_c, 3, 72, 110
4, 72234, Note_off_c, 3, 72, 127
4, 72240, Note_on_c, 3, 72, 110
4, 72354, Note_off_c, 3, 72, 127
4, 72360, Note_on_c, 3, 72, 110
4, 72474, Note_off_c, 3, 72, 127
4, 72480, Note_on_c, 3, 72, 110
4, 72594, Note_off_c, 3, 72, 127
4, 72600, Note_on_c, 3, 68, 110
4, 72714, Note_off_c, 3, 68, 127
4, 72720, Note_on_c, 3, 72, 110
4, 72834, Note_off_c, 3, 72, 127
4, 72840, Note_on_c, 3, 72, 110
4, 72954, Note_off_c, 3, 72, 127
4, 72960, Note_on_c, 3, 70, 110
4, 73074, Note_off_c, 3, 70, 127
4, 73080, Note_on_c, 3, 70, 110
4, 73194, Note_off_c, 3, 70, 127
4, 73200, Note_on_c, 3, 70, 110
4, 73314, Note_off_c, 3, 70, 127
4, 73320, Note_on_c, 3, 70, 110
4, 73434, Note_off_c, 3, 70, 127
4, 73440, Note_on_c, 3, 70, 110
4, 73554, Note_off_c, 3, 70, 127
4, 73560, Note_on_c, 3, 65, 110
4, 73794, Note_off_c, 3, 65, 127
4, 73800, Note_on_c, 3, 70, 110
4, 73914, Note_off_c, 3, 70, 127
4, 74040, Note_on_c, 3, 70, 110
4, 74154, Note_off_c, 3, 70, 127
4, 74160, Note_on_c, 3, 70, 110
4, 74274, Note_off_c, 3, 70, 127
4, 74280, Note_on_c, 3, 70, 110
4, 74394, Note_off_c, 3, 70, 127
4, 74400, Note_on_c, 3, 70, 110
4, 74514, Note_off_c, 3, 70, 127
4, 74520, Note_on_c, 3, 65, 110
4, 74634, Note_off_c, 3, 65, 127
4, 74640, Note_on_c, 3, 70, 110
4, 74754, Note_off_c, 3, 70, 127
4, 74760, Note_on_c, 3, 70, 110
4, 74874, Note_off_c, 3, 70, 127
4, 74880, Note_on_c, 3, 72, 110
4, 74994, Note_off_c, 3, 72, 127
4, 75000, Note_on_c, 3, 72, 110
4, 75114, Note_off_c, 3, 72, 127
4, 75120, Note_on_c, 3, 72, 110
4, 75234, Note_off_c, 3, 72, 127
4, 75240, Note_on_c, 3, 72, 110
4, 75354, Note_off_c, 3, 72, 127
4, 75360, Note_on_c, 3, 68, 110
4, 75474, Note_off_c, 3, 68, 127
4, 75480, Note_on_c, 3, 72, 110
4, 75714, Note_off_c, 3, 72, 127
4, 75720, Note_on_c, 3, 72, 110
4, 75834, Note_off_c, 3, 72, 127
4, 75960, Note_on_c, 3, 72, 110
4, 76074, Note_off_c, 3, 72, 127
4, 76080, Note_on_c, 3, 72, 110
4, 76194, Note_off_c, 3, 72, 127
4, 76200, Note_on_c, 3, 72, 110
4, 76314, Note_off_c, 3, 72, 127
4, 76320, Note_on_c, 3, 72, 110
4, 76434, Note_off_c, 3, 72, 127
4, 76440, Note_on_c, 3, 68, 110
4, 76554, Note_off_c, 3, 68, 127
4, 76560, Note_on_c, 3, 72, 110
4, 76674, Note_off_c, 3, 72, 127
4, 76680, Note_on_c, 3, 72, 110
4, 76794, Note_off_c, 3, 72, 127
4, 76800, Note_on_c, 3, 70, 110
4, 76914, Note_off_c, 3, 70, 127
4, 76920, Note_on_c, 3, 69, 110
4, 77034, Note_off_c, 3, 69, 127
4, 77040, Note_on_c, 3, 70, 110
4, 77154, Note_off_c, 3, 70, 127
4, 77160, Note_on_c, 3, 70, 110
4, 77274, Note_off_c, 3, 70, 127
4, 77400, Note_on_c, 3, 73, 110
4, 77634, Note_off_c, 3, 73, 127
4, 77640, Note_on_c, 3, 73, 110
4, 77754, Note_off_c, 3, 73, 127
4, 77760, Note_on_c, 3, 73, 110
4, 77874, Note_off_c, 3, 73, 127
4, 77880, Note_on_c, 3, 70, 110
4, 77994, Note_off_c, 3, 70, 127
4, 78000, Note_on_c, 3, 70, 110
4, 78114, Note_off_c, 3, 70, 127
4, 78120, Note_on_c, 3, 70, 110
4, 78234, Note_off_c, 3, 70, 127
4, 78360, Note_on_c, 3, 70, 110
4, 78474, Note_off_c, 3, 70, 127
4, 78480, Note_on_c, 3, 61, 110
4, 78714, Note_off_c, 3, 61, 127
4, 78720, Note_on_c, 3, 63, 110
4, 78954, Note_off_c, 3, 63, 127
4, 78960, Note_on_c, 3, 60, 110
4, 79194, Note_off_c, 3, 60, 127
4, 79200, Note_on_c, 3, 63, 110
4, 79434, Note_off_c, 3, 63, 127
4, 79440, Note_on_c, 3, 60, 110
4, 79554, Note_off_c, 3, 60, 127
4, 79560, Note_on_c, 3, 63, 110
4, 79674, Note_off_c, 3, 63, 127
4, 79800, Note_on_c, 3, 63, 110
4, 80034, Note_off_c, 3, 63, 127
4, 80040, Note_on_c, 3, 60, 110
4, 80154, Note_off_c, 3, 60, 127
4, 80160, Note_on_c, 3, 63, 110
4, 80274, Note_off_c, 3, 63, 127
4, 80280, Note_on_c, 3, 63, 110
4, 80394, Note_off_c, 3, 63, 127
4, 80400, Note_on_c, 3, 60, 110
4, 80634, Note_off_c, 3, 60, 127
4, 80640, Note_on_c, 3, 65, 110
4, 80874, Note_off_c, 3, 65, 127
4, 80880, Note_on_c, 3, 61, 110
4, 81114, Note_off_c, 3, 61, 127
4, 81120, Note_on_c, 3, 65, 110
4, 81354, Note_off_c, 3, 65, 127
4, 81360, Note_on_c, 3, 61, 110
4, 81474, Note_off_c, 3, 61, 127
4, 81480, Note_on_c, 3, 65, 110
4, 81594, Note_off_c, 3, 65, 127
4, 81720, Note_on_c, 3, 65, 110
4, 81954, Note_off_c, 3, 65, 127
4, 81960, Note_on_c, 3, 61, 110
4, 82074, Note_off_c, 3, 61, 127
4, 82080, Note_on_c, 3, 65, 110
4, 82194, Note_off_c, 3, 65, 127
4, 82200, Note_on_c, 3, 65, 110
4, 82314, Note_off_c, 3, 65, 127
4, 82320, Note_on_c, 3, 61, 110
4, 82554, Note_off_c, 3, 61, 127
4, 82560, Note_on_c, 3, 63, 110
4, 82794, Note_off_c, 3, 63, 127
4, 82800, Note_on_c, 3, 61, 110
4, 83034, Note_off_c, 3, 61, 127
4, 83040, Note_on_c, 3, 63, 110
4, 83274, Note_off_c, 3, 63, 127
4, 83280, Note_on_c, 3, 61, 110
4, 83394, Note_off_c, 3, 61, 127
4, 83400, Note_on_c, 3, 63, 110
4, 83514, Note_off_c, 3, 63, 127
4, 83640, Note_on_c, 3, 63, 110
4, 83874, Note_off_c, 3, 63, 127
4, 83880, Note_on_c, 3, 61, 110
4, 83994, Note_off_c, 3, 61, 127
4, 84000, Note_on_c, 3, 63, 110
4, 84114, Note_off_c, 3, 63, 127
4, 84120, Note_on_c, 3, 63, 110
4, 84234, Note_off_c, 3, 63, 127
4, 84240, Note_on_c, 3, 61, 110
4, 84474, Note_off_c, 3, 61, 127
4, 84480, Note_on_c, 3, 63, 110
4, 84714, Note_off_c, 3, 63, 127
4, 84720, Note_on_c, 3, 60, 110
4, 84954, Note_off_c, 3, 60, 127
4, 84960, Note_on_c, 3, 63, 110
4, 85194, Note_off_c, 3, 63, 127
4, 85200, Note_on_c, 3, 60, 110
4, 85314, Note_off_c, 3, 60, 127
4, 85320, Note_on_c, 3, 63, 110
4, 85434, Note_off_c, 3, 63, 127
4, 85560, Note_on_c, 3, 63, 110
4, 85794, Note_off_c, 3, 63, 127
4, 85800, Note_on_c, 3, 60, 110
4, 85914, Note_off_c, 3, 60, 127
4, 85920, Note_on_c, 3, 63, 110
4, 86034, Note_off_c, 3, 63, 127
4, 86040, Note_on_c, 3, 63, 110
4, 86154, Note_off_c, 3, 63, 127
4, 86160, Note_on_c, 3, 60, 110
4, 86394, Note_off_c, 3, 60, 127
4, 86400, Note_on_c, 3, 63, 110
4, 86634, Note_off_c, 3, 63, 127
4, 86640, Note_on_c, 3, 60, 110
4, 86874, Note_off_c, 3, 60, 127
4, 86880, Note_on_c, 3, 63, 110
4, 87114, Note_off_c, 3, 63, 127
4, 87120, Note_on_c, 3, 60, 110
4, 87234, Note_off_c, 3, 60, 127
4, 87240, Note_on_c, 3, 63, 110
4, 87354, Note_off_c, 3, 63, 127
4, 87480, Note_on_c, 3, 63, 110
4, 87714, Note_off_c, 3, 63, 127
4, 87720, Note_on_c, 3, 60, 110
4, 87834, Note_off_c, 3, 60, 127
4, 87840, Note_on_c, 3, 63, 110
4, 87954, Note_off_c, 3, 63, 127
4, 87960, Note_on_c, 3, 63, 110
4, 88074, Note_off_c, 3, 63, 127
4, 88080, Note_on_c, 3, 60, 110
4, 88314, Note_off_c, 3, 60, 127
4, 88320, Note_on_c, 3, 65, 110
4, 88554, Note_off_c, 3, 65, 127
4, 88560, Note_on_c, 3, 61, 110
4, 88794, Note_off_c, 3, 61, 127
4, 88800, Note_on_c, 3, 65, 110
4, 89034, Note_off_c, 3, 65, 127
4, 89040, Note_on_c, 3, 61, 110
4, 89154, Note_off_c, 3, 61, 127
4, 89160, Note_on_c, 3, 65, 110
4, 89274, Note_off_c, 3, 65, 127
4, 89400, Note_on_c, 3, 65, 110
4, 89634, Note_off_c, 3, 65, 127
4, 89640, Note_on_c, 3, 61, 110
4, 89754, Note_off_c, 3, 61, 127
4, 89760, Note_on_c, 3, 65, 110
4, 89874, Note_off_c, 3, 65, 127
4, 89880, Note_on_c, 3, 65, 110
4, 89994, Note_off_c, 3, 65, 127
4, 90000, Note_on_c, 3, 61, 110
4, 90234, Note_off_c, 3, 61, 127
4, 90240, Note_on_c, 3, 63, 110
4, 90474, Note_off_c, 3, 63, 127
4, 90480, Note_on_c, 3, 61, 110
4, 90714, Note_off_c, 3, 61, 127
4, 90720, Note_on_c, 3, 63, 110
4, 90954, Note_off_c, 3, 63, 127
4, 90960, Note_on_c, 3, 61, 110
4, 91074, Note_off_c, 3, 61, 127
4, 91080, Note_on_c, 3, 63, 110
4, 91194, Note_off_c, 3, 63, 127
4, 91320, Note_on_c, 3, 63, 110
4, 91554, Note_off_c, 3, 63, 127
4, 91560, Note_on_c, 3, 61, 110
4, 91674, Note_off_c, 3, 61, 127
4, 91680, Note_on_c, 3, 63, 110
4, 91794, Note_off_c, 3, 63, 127
4, 91800, Note_on_c, 3, 63, 110
4, 91914, Note_off_c, 3, 63, 127
4, 91920, Note_on_c, 3, 61, 110
4, 92154, Note_off_c, 3, 61, 127
4, 92160, Note_on_c, 3, 63, 110
4, 92394, Note_off_c, 3, 63, 127
4, 92400, Note_on_c, 3, 60, 110
4, 92634, Note_off_c, 3, 60, 127
4, 92640, Note_on_c, 3, 63, 110
4, 92874, Note_off_c, 3, 63, 127
4, 92880, Note_on_c, 3, 60, 110
4, 92994, Note_off_c, 3, 60, 127
4, 93000, Note_on_c, 3, 63, 110
4, 93114, Note_off_c, 3, 63, 127
4, 93240, Note_on_c, 3, 63, 110
4, 93474, Note_off_c, 3, 63, 127
4, 93480, Note_on_c, 3, 60, 110
4, 93594, Note_off_c, 3, 60, 127
4, 93600, Note_on_c, 3, 63, 110
4, 93714, Note_off_c, 3, 63, 127
4, 93720, Note_on_c, 3, 63, 110
4, 93834, Note_off_c, 3, 63, 127
4, 93840, Note_on_c, 3, 60, 110
4, 94074, Note_off_c, 3, 60, 127
4, 94080, Note_on_c, 3, 70, 110
4, 94194, Note_off_c, 3, 70, 127
4, 94200, Note_on_c, 3, 69, 110
4, 94314, Note_off_c, 3, 69, 127
4, 94320, Note_on_c, 3, 70, 110
4, 94434, Note_off_c, 3, 70, 127
4, 94440, Note_on_c, 3, 70, 110
4, 94554, Note_off_c, 3, 70, 127
4, 94560, Note_on_c, 3, 73, 110
4, 94674, Note_off_c, 3, 73, 127
4, 94680, Note_on_c, 3, 77, 110
4, 94914, Note_off_c, 3, 77, 127
4, 94920, Note_on_c, 3, 73, 110
4, 95034, Note_off_c, 3, 73, 127
4, 95160, Note_on_c, 3, 77, 110
4, 95394, Note_off_c, 3, 77, 127
4, 95400, Note_on_c, 3, 77, 110
4, 95514, Note_off_c, 3, 77, 127
4, 95520, Note_on_c, 3, 73, 110
4, 95754, Note_off_c, 3, 73, 127
4, 95760, Note_on_c, 3, 73, 110
4, 95994, Note_off_c, 3, 73, 127
4, 96000, Note_on_c, 3, 75, 110
4, 96354, Note_off_c, 3, 75, 127
4, 96360, Note_on_c, 3, 72, 110
4, 96714, Note_off_c, 3, 72, 127
4, 96720, Note_on_c, 3, 68, 110
4, 97360, Note_off_c, 3, 68, 127
4, 97440, Note_on_c, 3, 68, 110
4, 97554, Note_off_c, 3, 68, 127
4, 97560, Note_on_c, 3, 70, 110
4, 97674, Note_off_c, 3, 70, 127
4, 97680, Note_on_c, 3, 72, 110
4, 97914, Note_off_c, 3, 72, 127
4, 97920, Note_on_c, 3, 73, 110
4, 98274, Note_off_c, 3, 73, 127
4, 98280, Note_on_c, 3, 70, 110
4, 98634, Note_off_c, 3, 70, 127
4, 98640, Note_on_c, 3, 65, 110
4, 99280, Note_off_c, 3, 65, 127
4, 99360, Note_on_c, 3, 65, 110
4, 99474, Note_off_c, 3, 65, 127
4, 99480, Note_on_c, 3, 67, 110
4, 99594, Note_off_c, 3, 67, 127
4, 99600, Note_on_c, 3, 70, 110
4, 99834, Note_off_c, 3, 70, 127
4, 99840, Note_on_c, 3, 72, 110
4, 100194, Note_off_c, 3, 72, 127
4, 100200, Note_on_c, 3, 68, 110
4, 100554, Note_off_c, 3, 68, 127
4, 100560, Note_on_c, 3, 63, 110
4, 100794, Note_off_c, 3, 63, 127
4, 100920, Note_on_c, 3, 56, 110
4, 101034, Note_off_c, 3, 56, 127
4, 101040, Note_on_c, 3, 58, 110
4, 101154, Note_off_c, 3, 58, 127
4, 101160, Note_on_c, 3, 60, 110
4, 101274, Note_off_c, 3, 60, 127
4, 101280, Note_on_c, 3, 61, 110
4, 101394, Note_off_c, 3, 61, 127
4, 101400, Note_on_c, 3, 63, 110
4, 101514, Note_off_c, 3, 63, 127
4, 101520, Note_on_c, 3, 65, 110
4, 101634, Note_off_c, 3, 65, 127
4, 101640, Note_on_c, 3, 67, 110
4, 101754, Note_off_c, 3, 67, 127
4, 101760, Note_on_c, 3, 70, 110
4, 101874, Note_off_c, 3, 70, 127
4, 101880, Note_on_c, 3, 69, 110
4, 101994, Note_off_c, 3, 69, 127
4, 102000, Note_on_c, 3, 70, 110
4, 102114, Note_off_c, 3, 70, 127
4, 102120, Note_on_c, 3, 70, 110
4, 102234, Note_off_c, 3, 70, 127
4, 102240, Note_on_c, 3, 73, 110
4, 102354, Note_off_c, 3, 73, 127
4, 102360, Note_on_c, 3, 77, 110
4, 102594, Note_off_c, 3, 77, 127
4, 102600, Note_on_c, 3, 73, 110
4, 102714, Note_off_c, 3, 73, 127
4, 102840, Note_on_c, 3, 77, 110
4, 103074, Note_off_c, 3, 77, 127
4, 103080, Note_on_c, 3, 77, 110
4, 103194, Note_off_c, 3, 77, 127
4, 103200, Note_on_c, 3, 73, 110
4, 103434, Note_off_c, 3, 73, 127
4, 103440, Note_on_c, 3, 73, 110
4, 103674, Note_off_c, 3, 73, 127
4, 103680, Note_on_c, 3, 75, 110
4, 104034, Note_off_c, 3, 75, 127
4, 104040, Note_on_c, 3, 72, 110
4, 104394, Note_off_c, 3, 72, 127
4, 104400, Note_on_c, 3, 68, 110
4, 105040, Note_off_c, 3, 68, 127
4, 105120, Note_on_c, 3, 68, 110
4, 105234, Note_off_c, 3, 68, 127
4, 105240, Note_on_c, 3, 70, 110
4, 105354, Note_off_c, 3, 70, 127
4, 105360, Note_on_c, 3, 72, 110
4, 105594, Note_off_c, 3, 72, 127
4, 105600, Note_on_c, 3, 73, 110
4, 105954, Note_off_c, 3, 73, 127
4, 105960, Note_on_c, 3, 70, 110
4, 106314, Note_off_c, 3, 70, 127
4, 106320, Note_on_c, 3, 63, 110
4, 106794, Note_off_c, 3, 63, 127
4, 106800, Note_on_c, 3, 63, 110
4, 107274, Note_off_c, 3, 63, 127
4, 107280, Note_on_c, 3, 67, 110
4, 107514, Note_off_c, 3, 67, 127
4, 107520, Note_on_c, 3, 67, 110
4, 107874, Note_off_c, 3, 67, 127
4, 107880, Note_on_c, 3, 63, 110
4, 108594, Note_off_c, 3, 63, 127
4, 108600, Note_on_c, 3, 60, 110
4, 108714, Note_off_c, 3, 60, 127
4, 108720, Note_on_c, 3, 61, 110
4, 108834, Note_off_c, 3, 61, 127
4, 108840, Note_on_c, 3, 63, 110
4, 108954, Note_off_c, 3, 63, 127
4, 108960, Note_on_c, 3, 65, 110
4, 109074, Note_off_c, 3, 65, 127
4, 109080, Note_on_c, 3, 67, 110
4, 109194, Note_off_c, 3, 67, 127
4, 109200, Note_on_c, 3, 68, 110
4, 109314, Note_off_c, 3, 68, 127
4, 109320, Note_on_c, 3, 70, 110
4, 109434, Note_off_c, 3, 70, 127
4, 109440, Note_on_c, 3, 63, 110
4, 109674, Note_off_c, 3, 63, 127
4, 109680, Note_on_c, 3, 60, 110
4, 109914, Note_off_c, 3, 60, 127
4, 109920, Note_on_c, 3, 63, 110
4, 110154, Note_off_c, 3, 63, 127
4, 110160, Note_on_c, 3, 60, 110
4, 110274, Note_off_c, 3, 60, 127
4, 110280, Note_on_c, 3, 63, 110
4, 110394, Note_off_c, 3, 63, 127
4, 110520, Note_on_c, 3, 63, 110
4, 110754, Note_off_c, 3, 63, 127
4, 110760, Note_on_c, 3, 60, 110
4, 110874, Note_off_c, 3, 60, 127
4, 110880, Note_on_c, 3, 63, 110
4, 110994, Note_off_c, 3, 63, 127
4, 111000, Note_on_c, 3, 63, 110
4, 111114, Note_off_c, 3, 63, 127
4, 111120, Note_on_c, 3, 60, 110
4, 111354, Note_off_c, 3, 60, 127
4, 111360, Note_on_c, 3, 65, 110
4, 111594, Note_off_c, 3, 65, 127
4, 111600, Note_on_c, 3, 61, 110
4, 111834, Note_off_c, 3, 61, 127
4, 111840, Note_on_c, 3, 65, 110
4, 112074, Note_off_c, 3, 65, 127
4, 112080, Note_on_c, 3, 61, 110
4, 112194, Note_off_c, 3, 61, 127
4, 112200, Note_on_c, 3, 65, 110
4, 112314, Note_off_c, 3, 65, 127
4, 112440, Note_on_c, 3, 65, 110
4, 112674, Note_off_c, 3, 65, 127
4, 112680, Note_on_c, 3, 61, 110
4, 112794, Note_off_c, 3, 61, 127
4, 112800, Note_on_c, 3, 65, 110
4, 112914, Note_off_c, 3, 65, 127
4, 112920, Note_on_c, 3, 65, 110
4, 113034, Note_off_c, 3, 65, 127
4, 113040, Note_on_c, 3, 61, 110
4, 113274, Note_off_c, 3, 61, 127
4, 113280, Note_on_c, 3, 63, 110
4, 113514, Note_off_c, 3, 63, 127
4, 113520, Note_on_c, 3, 61, 110
4, 113754, Note_off_c, 3, 61, 127
4, 113760, Note_on_c, 3, 63, 110
4, 113994, Note_off_c, 3, 63, 127
4, 114000, Note_on_c, 3, 61, 110
4, 114114, Note_off_c, 3, 61, 127
4, 114120, Note_on_c, 3, 63, 110
4, 114234, Note_off_c, 3, 63, 127
4, 114360, Note_on_c, 3, 63, 110
4, 114594, Note_off_c, 3, 63, 127
4, 114600, Note_on_c, 3, 61, 110
4, 114714, Note_off_c, 3, 61, 127
4, 114720, Note_on_c, 3, 63, 110
4, 114834, Note_off_c, 3, 63, 127
4, 114840, Note_on_c, 3, 63, 110
4, 114954, Note_off_c, 3, 63, 127
4, 114960, Note_on_c, 3, 61, 110
4, 115194, Note_off_c, 3, 61, 127
4, 115200, Note_on_c, 3, 63, 110
4, 115434, Note_off_c, 3, 63, 127
4, 115440, Note_on_c, 3, 60, 110
4, 115674, Note_off_c, 3, 60, 127
4, 115680, Note_on_c, 3, 63, 110
4, 115914, Note_off_c, 3, 63, 127
4, 115920, Note_on_c, 3, 60, 110
4, 116034, Note_off_c, 3, 60, 127
4, 116040, Note_on_c, 3, 63, 110
4, 116154, Note_off_c, 3, 63, 127
4, 116280, Note_on_c, 3, 63, 110
4, 116514, Note_off_c, 3, 63, 127
4, 116520, Note_on_c, 3, 60, 110
4, 116634, Note_off_c, 3, 60, 127
4, 116640, Note_on_c, 3, 63, 110
4, 116754, Note_off_c, 3, 63, 127
4, 116760, Note_on_c, 3, 63, 110
4, 116874, Note_off_c, 3, 63, 127
4, 116880, Note_on_c, 3, 60, 110
4, 117114, Note_off_c, 3, 60, 127
4, 117120, Note_on_c, 3, 63, 110
4, 117354, Note_off_c, 3, 63, 127
4, 117360, Note_on_c, 3, 60, 110
4, 117594, Note_off_c, 3, 60, 127
4, 117600, Note_on_c, 3, 63, 110
4, 117834, Note_off_c, 3, 63, 127
4, 117840, Note_on_c, 3, 60, 110
4, 117954, Note_off_c, 3, 60, 127
4, 117960, Note_on_c, 3, 63, 110
4, 118074, Note_off_c, 3, 63, 127
4, 118200, Note_on_c, 3, 63, 110
4, 118434, Note_off_c, 3, 63, 127
4, 118440, Note_on_c, 3, 60, 110
4, 118554, Note_off_c, 3, 60, 127
4, 118560, Note_on_c, 3, 63, 110
4, 118674, Note_off_c, 3, 63, 127
4, 118680, Note_on_c, 3, 63, 110
4, 118794, Note_off_c, 3, 63, 127
4, 118800, Note_on_c, 3, 60, 110
4, 119034, Note_off_c, 3, 60, 127
4, 119040, Note_on_c, 3, 65, 110
4, 119274, Note_off_c, 3, 65, 127
4, 119280, Note_on_c, 3, 61, 110
4, 119514, Note_off_c, 3, 61, 127
4, 119520, Note_on_c, 3, 65, 110
4, 119754, Note_off_c, 3, 65, 127
4, 119760, Note_on_c, 3, 61, 110
4, 119874, Note_off_c, 3, 61, 127
4, 119880, Note_on_c, 3, 65, 110
4, 119994, Note_off_c, 3, 65, 127
4, 120120, Note_on_c, 3, 65, 110
4, 120354, Note_off_c, 3, 65, 127
4, 120360, Note_on_c, 3, 61, 110
4, 120474, Note_off_c, 3, 61, 127
4, 120480, Note_on_c, 3, 65, 110
4, 120594, Note_off_c, 3, 65, 127
4, 120600, Note_on_c, 3, 65, 110
4, 120714, Note_off_c, 3, 65, 127
4, 120720, Note_on_c, 3, 61, 110
4, 120954, Note_off_c, 3, 61, 127
4, 120960, Note_on_c, 3, 63, 110
4, 121194, Note_off_c, 3, 63, 127
4, 121200, Note_on_c, 3, 61, 110
4, 121434, Note_off_c, 3, 61, 127
4, 121440, Note_on_c, 3, 63, 110
4, 121674, Note_off_c, 3, 63, 127
4, 121680, Note_on_c, 3, 61, 110
4, 121794, Note_off_c, 3, 61, 127
4, 121800, Note_on_c, 3, 63, 110
4, 121914, Note_off_c, 3, 63, 127
4, 122040, Note_on_c, 3, 63, 110
4, 122274, Note_off_c, 3, 63, 127
4, 122280, Note_on_c, 3, 61, 110
4, 122394, Note_off_c, 3, 61, 127
4, 122400, Note_on_c, 3, 63, 110
4, 122514, Note_off_c, 3, 63, 127
4, 122520, Note_on_c, 3, 63, 110
4, 122634, Note_off_c, 3, 63, 127
4, 122640, Note_on_c, 3, 61, 110
4, 122874, Note_off_c, 3, 61, 127
4, 122880, Note_on_c, 3, 63, 110
4, 123114, Note_off_c, 3, 63, 127
4, 123120, Note_on_c, 3, 60, 110
4, 123354, Note_off_c, 3, 60, 127
4, 123360, Note_on_c, 3, 63, 110
4, 123594, Note_off_c, 3, 63, 127
4, 123600, Note_on_c, 3, 60, 110
4, 123714, Note_off_c, 3, 60, 127
4, 123720, Note_on_c, 3, 63, 110
4, 123834, Note_off_c, 3, 63, 127
4, 123960, Note_on_c, 3, 63, 110
4, 124194, Note_off_c, 3, 63, 127
4, 124200, Note_on_c, 3, 60, 110
4, 124314, Note_off_c, 3, 60, 127
4, 124320, Note_on_c, 3, 63, 110
4, 124434, Note_off_c, 3, 63, 127
4, 124440, Note_on_c, 3, 63, 110
4, 124554, Note_off_c, 3, 63, 127
4, 124560, Note_on_c, 3, 60, 110
4, 124794, Note_off_c, 3, 60, 127
4, 124800, Note_on_c, 3, 70, 110
4, 124914, Note_off_c, 3, 70, 127
4, 124920, Note_on_c, 3, 69, 110
4, 125034, Note_off_c, 3, 69, 127
4, 125040, Note_on_c, 3, 70, 110
4, 125154, Note_off_c, 3, 70, 127
4, 125160, Note_on_c, 3, 70, 110
4, 125274, Note_off_c, 3, 70, 127
4, 125280, Note_on_c, 3, 73, 110
4, 125394, Note_off_c, 3, 73, 127
4, 125400, Note_on_c, 3, 77, 110
4, 125634, Note_off_c, 3, 77, 127
4, 125640, Note_on_c, 3, 73, 110
4, 125754, Note_off_c, 3, 73, 127
4, 125880, Note_on_c, 3, 77, 110
4, 126114, Note_off_c, 3, 77, 127
4, 126120, Note_on_c, 3, 77, 110
4, 126234, Note_off_c, 3, 77, 127
4, 126240, Note_on_c, 3, 73, 110
4, 126474, Note_off_c, 3, 73, 127
4, 126480, Note_on_c, 3, 73, 110
4, 126714, Note_off_c, 3, 73, 127
4, 126720, Note_on_c, 3, 75, 110
4, 127074, Note_off_c, 3, 75, 127
4, 127080, Note_on_c, 3, 72, 110
4, 127434, Note_off_c, 3, 72, 127
4, 127440, Note_on_c, 3, 68, 110
4, 128080, Note_off_c, 3, 68, 127
4, 128160, Note_on_c, 3, 68, 110
4, 128274, Note_off_c, 3, 68, 127
4, 128280, Note_on_c, 3, 70, 110
4, 128394, Note_off_c, 3, 70, 127
4, 128400, Note_on_c, 3, 72, 110
4, 128634, Note_off_c, 3, 72, 127
4, 128640, Note_on_c, 3, 73, 110
4, 128994, Note_off_c, 3, 73, 127
4, 129000, Note_on_c, 3, 70, 110
4, 129354, Note_off_c, 3, 70, 127
4, 129360, Note_on_c, 3, 65, 110
4, 130000, Note_off_c, 3, 65, 127
4, 130080, Note_on_c, 3, 65, 110
4, 130194, Note_off_c, 3, 65, 127
4, 130200, Note_on_c, 3, 67, 110
4, 130314, Note_off_c, 3, 67, 127
4, 130320, Note_on_c, 3, 70, 110
4, 130554, Note_off_c, 3, 70, 127
4, 130560, Note_on_c, 3, 72, 110
4, 130914, Note_off_c, 3, 72, 127
4, 130920, Note_on_c, 3, 68, 110
4, 131274, Note_off_c, 3, 68, 127
4, 131280, Note_on_c, 3, 63, 110
4, 131514, Note_off_c, 3, 63, 127
4, 131640, Note_on_c, 3, 56, 110
4, 131754, Note_off_c, 3, 56, 127
4, 131760, Note_on_c, 3, 58, 110
4, 131874, Note_off_c, 3, 58, 127
4, 131880, Note_on_c, 3, 60, 110
4, 131994, Note_off_c, 3, 60, 127
4, 132000, Note_on_c, 3, 61, 110
4, 132114, Note_off_c, 3, 61, 127
4, 132120, Note_on_c, 3, 63, 110
4, 132234, Note_off_c, 3, 63, 127
4, 132240, Note_on_c, 3, 65, 110
4, 132354, Note_off_c, 3, 65, 127
4, 132360, Note_on_c, 3, 67, 110
4, 132474, Note_off_c, 3, 67, 127
4, 132480, Note_on_c, 3, 70, 110
4, 132594, Note_off_c, 3, 70, 127
4, 132600, Note_on_c, 3, 69, 110
4, 132714, Note_off_c, 3, 69, 127
4, 132720, Note_on_c, 3, 70, 110
4, 132834, Note_off_c, 3, 70, 127
4, 132840, Note_on_c, 3, 70, 110
4, 132954, Note_off_c, 3, 70, 127
4, 132960, Note_on_c, 3, 73, 110
4, 133074, Note_off_c, 3, 73, 127
4, 133080, Note_on_c, 3, 77, 110
4, 133314, Note_off_c, 3, 77, 127
4, 133320, Note_on_c, 3, 73, 110
4, 133434, Note_off_c, 3, 73, 127
4, 133560, Note_on_c, 3, 77, 110
4, 133794, Note_off_c, 3, 77, 127
4, 133800, Note_on_c, 3, 77, 110
4, 133914, Note_off_c, 3, 77, 127
4, 133920, Note_on_c, 3, 73, 110
4, 134154, Note_off_c, 3, 73, 127
4, 134160, Note_on_c, 3, 73, 110
4, 134394, Note_off_c, 3, 73, 127
4, 134400, Note_on_c, 3, 75, 110
4, 134754, Note_off_c, 3, 75, 127
4, 134760, Note_on_c, 3, 72, 110
4, 135114, Note_off_c, 3, 72, 127
4, 135120, Note_on_c, 3, 68, 110
4, 135760, Note_off_c, 3, 68, 127
4, 135840, Note_on_c, 3, 68, 110
4, 135954, Note_off_c, 3, 68, 127
4, 135960, Note_on_c, 3, 70, 110
4, 136074, Note_off_c, 3, 70, 127
4, 136080, Note_on_c, 3, 72, 110
4, 136314, Note_off_c, 3, 72, 127
4, 136320, Note_on_c, 3, 73, 110
4, 136674, Note_off_c, 3, 73, 127
4, 136680, Note_on_c, 3, 70, 110
4, 137034, Note_off_c, 3, 70, 127
4, 137040, Note_on_c, 3, 63, 110
4, 137514, Note_off_c, 3, 63, 127
4, 137520, Note_on_c, 3, 63, 110
4, 137994, Note_off_c, 3, 63, 127
4, 138000, Note_on_c, 3, 67, 110
4, 138234, Note_off_c, 3, 67, 127
4, 138240, Note_on_c, 3, 67, 110
4, 138594, Note_off_c, 3, 67, 127
4, 138600, Note_on_c, 3, 63, 110
4, 139314, Note_off_c, 3, 63, 127
4, 139320, Note_on_c, 3, 60, 110
4, 139434, Note_off_c, 3, 60, 127
4, 139440, Note_on_c, 3, 61, 110
4, 139554, Note_off_c, 3, 61, 127
4, 139560, Note_on_c, 3, 63, 110
4, 139674, Note_off_c, 3, 63, 127
4, 139680, Note_on_c, 3, 65, 110
4, 139794, Note_off_c, 3, 65, 127
4, 139800, Note_on_c, 3, 67, 110
4, 139914, Note_off_c, 3, 67, 127
4, 139920, Note_on_c, 3, 68, 110
4, 140034, Note_off_c, 3, 68, 127
4, 140040, Note_on_c, 3, 70, 110
4, 140154, Note_off_c, 3, 70, 127
4, 140160, Note_on_c, 3, 72, 110
4, 140274, Note_off_c, 3, 72, 127
4, 140280, Note_on_c, 3, 72, 110
4, 140394, Note_off_c, 3, 72, 127
4, 140400, Note_on_c, 3, 72, 110
4, 140514, Note_off_c, 3, 72, 127
4, 140520, Note_on_c, 3, 72, 110
4, 140634, Note_off_c, 3, 72, 127
4, 140640, Note_on_c, 3, 68, 110
4, 140754, Note_off_c, 3, 68, 127
4, 140760, Note_on_c, 3, 72, 110
4, 140994, Note_off_c, 3, 72, 127
4, 141000, Note_on_c, 3, 72, 110
4, 141114, Note_off_c, 3, 72, 127
4, 141240, Note_on_c, 3, 72, 110
4, 141354, Note_off_c, 3, 72, 127
4, 141360, Note_on_c, 3, 72, 110
4, 141474, Note_off_c, 3, 72, 127
4, 141480, Note_on_c, 3, 72, 110
4, 141594, Note_off_c, 3, 72, 127
4, 141600, Note_on_c, 3, 72, 110
4, 141714, Note_off_c, 3, 72, 127
4, 141720, Note_on_c, 3, 68, 110
4, 141834, Note_off_c, 3, 68, 127
4, 141840, Note_on_c, 3, 72, 110
4, 141954, Note_off_c, 3, 72, 127
4, 141960, Note_on_c, 3, 72, 110
4, 142074, Note_off_c, 3, 72, 127
4, 142080, Note_on_c, 3, 70, 110
4, 142194, Note_off_c, 3, 70, 127
4, 142200, Note_on_c, 3, 70, 110
4, 142314, Note_off_c, 3, 70, 127
4, 142320, Note_on_c, 3, 70, 110
4, 142434, Note_off_c, 3, 70, 127
4, 142440, Note_on_c, 3, 70, 110
4, 142554, Note_off_c, 3, 70, 127
4, 142560, Note_on_c, 3, 70, 110
4, 142674, Note_off_c, 3, 70, 127
4, 142680, Note_on_c, 3, 65, 110
4, 142914, Note_off_c, 3, 65, 127
4, 142920, Note_on_c, 3, 70, 110
4, 143034, Note_off_c, 3, 70, 127
4, 143160, Note_on_c, 3, 70, 110
4, 143274, Note_off_c, 3, 70, 127
4, 143280, Note_on_c, 3, 70, 110
4, 143394, Note_off_c, 3, 70, 127
4, 143400, Note_on_c, 3, 70, 110
4, 143514, Note_off_c, 3, 70, 127
4, 143520, Note_on_c, 3, 70, 110
4, 143634, Note_off_c, 3, 70, 127
4, 143640, Note_on_c, 3, 65, 110
4, 143754, Note_off_c, 3, 65, 127
4, 143760, Note_on_c, 3, 70, 110
4, 143874, Note_off_c, 3, 70, 127
4, 143880, Note_on_c, 3, 70, 110
4, 143994, Note_off_c, 3, 70, 127
4, 144000, Note_on_c, 3, 72, 110
4, 144114, Note_off_c, 3, 72, 127
4, 144120, Note_on_c, 3, 72, 110
4, 144234, Note_off_c, 3, 72, 127
4, 144240, Note_on_c, 3, 72, 110
4, 144354, Note_off_c, 3, 72, 127
4, 144360, Note_on_c, 3, 72, 110
4, 144474, Note_off_c, 3, 72, 127
4, 144480, Note_on_c, 3, 68, 110
4, 144594, Note_off_c, 3, 68, 127
4, 144600, Note_on_c, 3, 72, 110
4, 144834, Note_off_c, 3, 72, 127
4, 144840, Note_on_c, 3, 72, 110
4, 144954, Note_off_c, 3, 72, 127
4, 145080, Note_on_c, 3, 72, 110
4, 145194, Note_off_c, 3, 72, 127
4, 145200, Note_on_c, 3, 72, 110
4, 145314, Note_off_c, 3, 72, 127
4, 145320, Note_on_c, 3, 72, 110
4, 145434, Note_off_c, 3, 72, 127
4, 145440, Note_on_c, 3, 72, 110
4, 145554, Note_off_c, 3, 72, 127
4, 145560, Note_on_c, 3, 68, 110
4, 145674, Note_off_c, 3, 68, 127
4, 145680, Note_on_c, 3, 72, 110
4, 145794, Note_off_c, 3, 72, 127
4, 145800, Note_on_c, 3, 72, 110
4, 145914, Note_off_c, 3, 72, 127
4, 145920, Note_on_c, 3, 70, 110
4, 146034, Note_off_c, 3, 70, 127
4, 146040, Note_on_c, 3, 69, 110
4, 146154, Note_off_c, 3, 69, 127
4, 146160, Note_on_c, 3, 70, 110
4, 146274, Note_off_c, 3, 70, 127
4, 146280, Note_on_c, 3, 70, 110
4, 146394, Note_off_c, 3, 70, 127
4, 146520, Note_on_c, 3, 73, 110
4, 146754, Note_off_c, 3, 73, 127
4, 146760, Note_on_c, 3, 73, 110
4, 146874, Note_off_c, 3, 73, 127
4, 146880, Note_on_c, 3, 73, 110
4, 146994, Note_off_c, 3, 73, 127
4, 147000, Note_on_c, 3, 70, 110
4, 147114, Note_off_c, 3, 70, 127
4, 147120, Note_on_c, 3, 70, 110
4, 147234, Note_off_c, 3, 70, 127
4, 147240, Note_on_c, 3, 70, 110
4, 147354, Note_off_c, 3, 70, 127
4, 147480, Note_on_c, 3, 70, 110
4, 147594, Note_off_c, 3, 70, 127
4, 147600, Note_on_c, 3, 61, 110
4, 147834, Note_off_c, 3, 61, 127
4, 147840, End_track
5, 0, Start_track
5, 0, Title_t, "Tempo Track"
5, 1920, Note_on_c, 14, 44, 110
5, 1920, Control_c, 14, 91, 0
5, 1920, Control_c, 14, 7, 127
5, 1920, Control_c, 14, 93, 0
5, 1920, Control_c, 14, 10, 64
5, 1920, Control_c, 14, 121, 0
5, 1920, Program_c, 14, 80
5, 1920, Control_c, 14, 32, 0
5, 1920, Control_c, 14, 0, 0
5, 2274, Note_off_c, 14, 44, 127
5, 2280, Note_on_c, 14, 51, 110
5, 2634, Note_off_c, 14, 51, 127
5, 2640, Note_on_c, 14, 48, 110
5, 2874, Note_off_c, 14, 48, 127
5, 2880, Note_on_c, 14, 44, 110
5, 3234, Note_off_c, 14, 44, 127
5, 3240, Note_on_c, 14, 51, 110
5, 3594, Note_off_c, 14, 51, 127
5, 3600, Note_on_c, 14, 48, 110
5, 3834, Note_off_c, 14, 48, 127
5, 3840, Note_on_c, 14, 46, 110
5, 4194, Note_off_c, 14, 46, 127
5, 4200, Note_on_c, 14, 53, 110
5, 4554, Note_off_c, 14, 53, 127
5, 4560, Note_on_c, 14, 49, 110
5, 4794, Note_off_c, 14, 49, 127
5, 4800, Note_on_c, 14, 46, 110
5, 5154, Note_off_c, 14, 46, 127
5, 5160, Note_on_c, 14, 53, 110
5, 5514, Note_off_c, 14, 53, 127
5, 5520, Note_on_c, 14, 49, 110
5, 5754, Note_off_c, 14, 49, 127
5, 5760, Note_on_c, 14, 44, 110
5, 6114, Note_off_c, 14, 44, 127
5, 6120, Note_on_c, 14, 51, 110
5, 6474, Note_off_c, 14, 51, 127
5, 6480, Note_on_c, 14, 48, 110
5, 6714, Note_off_c, 14, 48, 127
5, 6720, Note_on_c, 14, 44, 110
5, 7074, Note_off_c, 14, 44, 127
5, 7080, Note_on_c, 14, 51, 110
5, 7434, Note_off_c, 14, 51, 127
5, 7440, Note_on_c, 14, 48, 110
5, 7674, Note_off_c, 14, 48, 127
5, 7680, Note_on_c, 14, 46, 110
5, 7794, Note_off_c, 14, 46, 127
5, 7800, Note_on_c, 14, 46, 110
5, 7914, Note_off_c, 14, 46, 127
5, 7920, Note_on_c, 14, 46, 110
5, 8034, Note_off_c, 14, 46, 127
5, 8040, Note_on_c, 14, 46, 110
5, 8154, Note_off_c, 14, 46, 127
5, 8280, Note_on_c, 14, 46, 110
5, 8514, Note_off_c, 14, 46, 127
5, 8520, Note_on_c, 14, 46, 110
5, 8634, Note_off_c, 14, 46, 127
5, 8640, Note_on_c, 14, 51, 110
5, 9040, Note_off_c, 14, 51, 127
5, 9240, Note_on_c, 14, 51, 110
5, 9354, Note_off_c, 14, 51, 127
5, 9360, Note_on_c, 14, 51, 110
5, 9594, Note_off_c, 14, 51, 127
5, 9600, Note_on_c, 14, 44, 110
5, 9954, Note_off_c, 14, 44, 127
5, 9960, Note_on_c, 14, 51, 110
5, 10314, Note_off_c, 14, 51, 127
5, 10320, Note_on_c, 14, 48, 110
5, 10554, Note_off_c, 14, 48, 127
5, 10560, Note_on_c, 14, 44, 110
5, 10914, Note_off_c, 14, 44, 127
5, 10920, Note_on_c, 14, 51, 110
5, 11274, Note_off_c, 14, 51, 127
5, 11280, Note_on_c, 14, 48, 110
5, 11514, Note_off_c, 14, 48, 127
5, 11520, Note_on_c, 14, 46, 110
5, 11874, Note_off_c, 14, 46, 127
5, 11880, Note_on_c, 14, 53, 110
5, 12234, Note_off_c, 14, 53, 127
5, 12240, Note_on_c, 14, 49, 110
5, 12474, Note_off_c, 14, 49, 127
5, 12480, Note_on_c, 14, 46, 110
5, 12834, Note_off_c, 14, 46, 127
5, 12840, Note_on_c, 14, 53, 110
5, 13194, Note_off_c, 14, 53, 127
5, 13200, Note_on_c, 14, 49, 110
5, 13434, Note_off_c, 14, 49, 127
5, 13440, Note_on_c, 14, 46, 110
5, 13794, Note_off_c, 14, 46, 127
5, 13800, Note_on_c, 14, 55, 110
5, 14154, Note_off_c, 14, 55, 127
5, 14160, Note_on_c, 14, 51, 110
5, 14394, Note_off_c, 14, 51, 127
5, 14400, Note_on_c, 14, 46, 110
5, 14754, Note_off_c, 14, 46, 127
5, 14760, Note_on_c, 14, 55, 110
5, 15114, Note_off_c, 14, 55, 127
5, 15120, Note_on_c, 14, 51, 110
5, 15354, Note_off_c, 14, 51, 127
5, 15360, Note_on_c, 14, 44, 110
5, 15714, Note_off_c, 14, 44, 127
5, 15720, Note_on_c, 14, 51, 110
5, 16074, Note_off_c, 14, 51, 127
5, 16080, Note_on_c, 14, 48, 110
5, 16314, Note_off_c, 14, 48, 127
5, 16320, Note_on_c, 14, 44, 110
5, 16674, Note_off_c, 14, 44, 127
5, 16680, Note_on_c, 14, 51, 110
5, 17034, Note_off_c, 14, 51, 127
5, 17040, Note_on_c, 14, 48, 110
5, 17274, Note_off_c, 14, 48, 127
5, 17280, Note_on_c, 14, 44, 110
5, 17634, Note_off_c, 14, 44, 127
5, 17640, Note_on_c, 14, 51, 110
5, 17994, Note_off_c, 14, 51, 127
5, 18000, Note_on_c, 14, 48, 110
5, 18234, Note_off_c, 14, 48, 127
5, 18240, Note_on_c, 14, 44, 110
5, 18594, Note_off_c, 14, 44, 127
5, 18600, Note_on_c, 14, 51, 110
5, 18954, Note_off_c, 14, 51, 127
5, 18960, Note_on_c, 14, 48, 110
5, 19194, Note_off_c, 14, 48, 127
5, 19200, Note_on_c, 14, 46, 110
5, 19554, Note_off_c, 14, 46, 127
5, 19560, Note_on_c, 14, 53, 110
5, 19914, Note_off_c, 14, 53, 127
5, 19920, Note_on_c, 14, 49, 110
5, 20154, Note_off_c, 14, 49, 127
5, 20160, Note_on_c, 14, 46, 110
5, 20514, Note_off_c, 14, 46, 127
5, 20520, Note_on_c, 14, 53, 110
5, 20874, Note_off_c, 14, 53, 127
5, 20880, Note_on_c, 14, 49, 110
5, 21114, Note_off_c, 14, 49, 127
5, 21120, Note_on_c, 14, 46, 110
5, 21474, Note_off_c, 14, 46, 127
5, 21480, Note_on_c, 14, 55, 110
5, 21834, Note_off_c, 14, 55, 127
5, 21840, Note_on_c, 14, 51, 110
5, 22074, Note_off_c, 14, 51, 127
5, 22080, Note_on_c, 14, 46, 110
5, 22434, Note_off_c, 14, 46, 127
5, 22440, Note_on_c, 14, 55, 110
5, 22794, Note_off_c, 14, 55, 127
5, 22800, Note_on_c, 14, 51, 110
5, 23034, Note_off_c, 14, 51, 127
5, 23040, Note_on_c, 14, 44, 110
5, 23394, Note_off_c, 14, 44, 127
5, 23400, Note_on_c, 14, 51, 110
5, 23754, Note_off_c, 14, 51, 127
5, 23760, Note_on_c, 14, 48, 110
5, 23994, Note_off_c, 14, 48, 127
5, 24000, Note_on_c, 14, 44, 110
5, 24354, Note_off_c, 14, 44, 127
5, 24360, Note_on_c, 14, 51, 110
5, 24714, Note_off_c, 14, 51, 127
5, 24720, Note_on_c, 14, 48, 110
5, 24954, Note_off_c, 14, 48, 127
5, 24960, Note_on_c, 14, 46, 110
5, 25314, Note_off_c, 14, 46, 127
5, 25320, Note_on_c, 14, 49, 110
5, 25674, Note_off_c, 14, 49, 127
5, 25680, Note_on_c, 14, 53, 110
5, 25914, Note_off_c, 14, 53, 127
5, 25920, Note_on_c, 14, 46, 110
5, 26274, Note_off_c, 14, 46, 127
5, 26280, Note_on_c, 14, 49, 110
5, 26634, Note_off_c, 14, 49, 127
5, 26640, Note_on_c, 14, 53, 110
5, 26874, Note_off_c, 14, 53, 127
5, 26880, Note_on_c, 14, 44, 110
5, 27234, Note_off_c, 14, 44, 127
5, 27240, Note_on_c, 14, 48, 110
5, 27594, Note_off_c, 14, 48, 127
5, 27600, Note_on_c, 14, 51, 110
5, 27834, Note_off_c, 14, 51, 127
5, 27840, Note_on_c, 14, 44, 110
5, 28194, Note_off_c, 14, 44, 127
5, 28200, Note_on_c, 14, 48, 110
5, 28554, Note_off_c, 14, 48, 127
5, 28560, Note_on_c, 14, 51, 110
5, 28794, Note_off_c, 14, 51, 127
5, 28800, Note_on_c, 14, 46, 110
5, 29154, Note_off_c, 14, 46, 127
5, 29160, Note_on_c, 14, 49, 110
5, 29514, Note_off_c, 14, 49, 127
5, 29520, Note_on_c, 14, 53, 110
5, 29754, Note_off_c, 14, 53, 127
5, 29760, Note_on_c, 14, 46, 110
5, 30114, Note_off_c, 14, 46, 127
5, 30120, Note_on_c, 14, 49, 110
5, 30474, Note_off_c, 14, 49, 127
5, 30480, Note_on_c, 14, 53, 110
5, 30714, Note_off_c, 14, 53, 127
5, 30720, Note_on_c, 14, 44, 110
5, 31074, Note_off_c, 14, 44, 127
5, 31080, Note_on_c, 14, 48, 110
5, 31434, Note_off_c, 14, 48, 127
5, 31440, Note_on_c, 14, 51, 110
5, 31674, Note_off_c, 14, 51, 127
5, 31680, Note_on_c, 14, 44, 110
5, 32034, Note_off_c, 14, 44, 127
5, 32040, Note_on_c, 14, 48, 110
5, 32394, Note_off_c, 14, 48, 127
5, 32400, Note_on_c, 14, 51, 110
5, 32634, Note_off_c, 14, 51, 127
5, 32640, Note_on_c, 14, 46, 110
5, 32994, Note_off_c, 14, 46, 127
5, 33000, Note_on_c, 14, 49, 110
5, 33354, Note_off_c, 14, 49, 127
5, 33360, Note_on_c, 14, 53, 110
5, 33594, Note_off_c, 14, 53, 127
5, 33600, Note_on_c, 14, 46, 110
5, 33954, Note_off_c, 14, 46, 127
5, 33960, Note_on_c, 14, 49, 110
5, 34314, Note_off_c, 14, 49, 127
5, 34320, Note_on_c, 14, 53, 110
5, 34554, Note_off_c, 14, 53, 127
5, 34560, Note_on_c, 14, 44, 110
5, 34914, Note_off_c, 14, 44, 127
5, 34920, Note_on_c, 14, 48, 110
5, 35274, Note_off_c, 14, 48, 127
5, 35280, Note_on_c, 14, 51, 110
5, 35514, Note_off_c, 14, 51, 127
5, 35520, Note_on_c, 14, 44, 110
5, 35874, Note_off_c, 14, 44, 127
5, 35880, Note_on_c, 14, 48, 110
5, 36234, Note_off_c, 14, 48, 127
5, 36240, Note_on_c, 14, 51, 110
5, 36474, Note_off_c, 14, 51, 127
5, 36480, Note_on_c, 14, 46, 110
5, 36834, Note_off_c, 14, 46, 127
5, 36840, Note_on_c, 14, 49, 110
5, 37194, Note_off_c, 14, 49, 127
5, 37200, Note_on_c, 14, 53, 110
5, 37434, Note_off_c, 14, 53, 127
5, 37440, Note_on_c, 14, 46, 110
5, 37794, Note_off_c, 14, 46, 127
5, 37800, Note_on_c, 14, 51, 110
5, 38154, Note_off_c, 14, 51, 127
5, 38160, Note_on_c, 14, 55, 110
5, 38394, Note_off_c, 14, 55, 127
5, 38400, Note_on_c, 14, 44, 110
5, 38754, Note_off_c, 14, 44, 127
5, 38760, Note_on_c, 14, 48, 110
5, 39114, Note_off_c, 14, 48, 127
5, 39120, Note_on_c, 14, 51, 110
5, 39354, Note_off_c, 14, 51, 127
5, 39360, Note_on_c, 14, 44, 110
5, 39760, Note_off_c, 14, 44, 127
5, 40320, Note_on_c, 14, 44, 110
5, 40674, Note_off_c, 14, 44, 127
5, 40680, Note_on_c, 14, 51, 110
5, 41034, Note_off_c, 14, 51, 127
5, 41040, Note_on_c, 14, 48, 110
5, 41274, Note_off_c, 14, 48, 127
5, 41280, Note_on_c, 14, 44, 110
5, 41634, Note_off_c, 14, 44, 127
5, 41640, Note_on_c, 14, 51, 110
5, 41994, Note_off_c, 14, 51, 127
5, 42000, Note_on_c, 14, 48, 110
5, 42234, Note_off_c, 14, 48, 127
5, 42240, Note_on_c, 14, 46, 110
5, 42594, Note_off_c, 14, 46, 127
5, 42600, Note_on_c, 14, 53, 110
5, 42954, Note_off_c, 14, 53, 127
5, 42960, Note_on_c, 14, 49, 110
5, 43194, Note_off_c, 14, 49, 127
5, 43200, Note_on_c, 14, 46, 110
5, 43554, Note_off_c, 14, 46, 127
5, 43560, Note_on_c, 14, 53, 110
5, 43914, Note_off_c, 14, 53, 127
5, 43920, Note_on_c, 14, 49, 110
5, 44154, Note_off_c, 14, 49, 127
5, 44160, Note_on_c, 14, 46, 110
5, 44514, Note_off_c, 14, 46, 127
5, 44520, Note_on_c, 14, 55, 110
5, 44874, Note_off_c, 14, 55, 127
5, 44880, Note_on_c, 14, 51, 110
5, 45114, Note_off_c, 14, 51, 127
5, 45120, Note_on_c, 14, 46, 110
5, 45474, Note_off_c, 14, 46, 127
5, 45480, Note_on_c, 14, 55, 110
5, 45834, Note_off_c, 14, 55, 127
5, 45840, Note_on_c, 14, 51, 110
5, 46074, Note_off_c, 14, 51, 127
5, 46080, Note_on_c, 14, 44, 110
5, 46434, Note_off_c, 14, 44, 127
5, 46440, Note_on_c, 14, 51, 110
5, 46794, Note_off_c, 14, 51, 127
5, 46800, Note_on_c, 14, 48, 110
5, 47034, Note_off_c, 14, 48, 127
5, 47040, Note_on_c, 14, 44, 110
5, 47394, Note_off_c, 14, 44, 127
5, 47400, Note_on_c, 14, 51, 110
5, 47754, Note_off_c, 14, 51, 127
5, 47760, Note_on_c, 14, 48, 110
5, 47994, Note_off_c, 14, 48, 127
5, 48000, Note_on_c, 14, 44, 110
5, 48354, Note_off_c, 14, 44, 127
5, 48360, Note_on_c, 14, 51, 110
5, 48714, Note_off_c, 14, 51, 127
5, 48720, Note_on_c, 14, 48, 110
5, 48954, Note_off_c, 14, 48, 127
5, 48960, Note_on_c, 14, 44, 110
5, 49314, Note_off_c, 14, 44, 127
5, 49320, Note_on_c, 14, 51, 110
5, 49674, Note_off_c, 14, 51, 127
5, 49680, Note_on_c, 14, 48, 110
5, 49914, Note_off_c, 14, 48, 127
5, 49920, Note_on_c, 14, 46, 110
5, 50274, Note_off_c, 14, 46, 127
5, 50280, Note_on_c, 14, 53, 110
5, 50634, Note_off_c, 14, 53, 127
5, 50640, Note_on_c, 14, 49, 110
5, 50874, Note_off_c, 14, 49, 127
5, 50880, Note_on_c, 14, 46, 110
5, 51234, Note_off_c, 14, 46, 127
5, 51240, Note_on_c, 14, 53, 110
5, 51594, Note_off_c, 14, 53, 127
5, 51600, Note_on_c, 14, 49, 110
5, 51834, Note_off_c, 14, 49, 127
5, 51840, Note_on_c, 14, 46, 110
5, 52194, Note_off_c, 14, 46, 127
5, 52200, Note_on_c, 14, 55, 110
5, 52554, Note_off_c, 14, 55, 127
5, 52560, Note_on_c, 14, 51, 110
5, 52794, Note_off_c, 14, 51, 127
5, 52800, Note_on_c, 14, 46, 110
5, 53154, Note_off_c, 14, 46, 127
5, 53160, Note_on_c, 14, 55, 110
5, 53514, Note_off_c, 14, 55, 127
5, 53520, Note_on_c, 14, 51, 110
5, 53754, Note_off_c, 14, 51, 127
5, 53760, Note_on_c, 14, 44, 110
5, 54114, Note_off_c, 14, 44, 127
5, 54120, Note_on_c, 14, 51, 110
5, 54474, Note_off_c, 14, 51, 127
5, 54480, Note_on_c, 14, 48, 110
5, 54714, Note_off_c, 14, 48, 127
5, 54720, Note_on_c, 14, 44, 110
5, 55074, Note_off_c, 14, 44, 127
5, 55080, Note_on_c, 14, 51, 110
5, 55434, Note_off_c, 14, 51, 127
5, 55440, Note_on_c, 14, 48, 110
5, 55674, Note_off_c, 14, 48, 127
5, 55680, Note_on_c, 14, 46, 110
5, 56034, Note_off_c, 14, 46, 127
5, 56040, Note_on_c, 14, 49, 110
5, 56394, Note_off_c, 14, 49, 127
5, 56400, Note_on_c, 14, 53, 110
5, 56634, Note_off_c, 14, 53, 127
5, 56640, Note_on_c, 14, 46, 110
5, 56994, Note_off_c, 14, 46, 127
5, 57000, Note_on_c, 14, 49, 110
5, 57354, Note_off_c, 14, 49, 127
5, 57360, Note_on_c, 14, 53, 110
5, 57594, Note_off_c, 14, 53, 127
5, 57600, Note_on_c, 14, 44, 110
5, 57954, Note_off_c, 14, 44, 127
5, 57960, Note_on_c, 14, 48, 110
5, 58314, Note_off_c, 14, 48, 127
5, 58320, Note_on_c, 14, 51, 110
5, 58554, Note_off_c, 14, 51, 127
5, 58560, Note_on_c, 14, 44, 110
5, 58914, Note_off_c, 14, 44, 127
5, 58920, Note_on_c, 14, 48, 110
5, 59274, Note_off_c, 14, 48, 127
5, 59280, Note_on_c, 14, 51, 110
5, 59514, Note_off_c, 14, 51, 127
5, 59520, Note_on_c, 14, 46, 110
5, 59874, Note_off_c, 14, 46, 127
5, 59880, Note_on_c, 14, 49, 110
5, 60234, Note_off_c, 14, 49, 127
5, 60240, Note_on_c, 14, 53, 110
5, 60474, Note_off_c, 14, 53, 127
5, 60480, Note_on_c, 14, 46, 110
5, 60834, Note_off_c, 14, 46, 127
5, 60840, Note_on_c, 14, 49, 110
5, 61194, Note_off_c, 14, 49, 127
5, 61200, Note_on_c, 14, 53, 110
5, 61434, Note_off_c, 14, 53, 127
5, 61440, Note_on_c, 14, 44, 110
5, 61794, Note_off_c, 14, 44, 127
5, 61800, Note_on_c, 14, 48, 110
5, 62154, Note_off_c, 14, 48, 127
5, 62160, Note_on_c, 14, 51, 110
5, 62394, Note_off_c, 14, 51, 127
5, 62400, Note_on_c, 14, 44, 110
5, 62754, Note_off_c, 14, 44, 127
5, 62760, Note_on_c, 14, 48, 110
5, 63114, Note_off_c, 14, 48, 127
5, 63120, Note_on_c, 14, 51, 110
5, 63354, Note_off_c, 14, 51, 127
5, 63360, Note_on_c, 14, 46, 110
5, 63714, Note_off_c, 14, 46, 127
5, 63720, Note_on_c, 14, 49, 110
5, 64074, Note_off_c, 14, 49, 127
5, 64080, Note_on_c, 14, 53, 110
5, 64314, Note_off_c, 14, 53, 127
5, 64320, Note_on_c, 14, 46, 110
5, 64674, Note_off_c, 14, 46, 127
5, 64680, Note_on_c, 14, 49, 110
5, 65034, Note_off_c, 14, 49, 127
5, 65040, Note_on_c, 14, 53, 110
5, 65274, Note_off_c, 14, 53, 127
5, 65280, Note_on_c, 14, 44, 110
5, 65634, Note_off_c, 14, 44, 127
5, 65640, Note_on_c, 14, 48, 110
5, 65994, Note_off_c, 14, 48, 127
5, 66000, Note_on_c, 14, 51, 110
5, 66234, Note_off_c, 14, 51, 127
5, 66240, Note_on_c, 14, 44, 110
5, 66594, Note_off_c, 14, 44, 127
5, 66600, Note_on_c, 14, 48, 110
5, 66954, Note_off_c, 14, 48, 127
5, 66960, Note_on_c, 14, 51, 110
5, 67194, Note_off_c, 14, 51, 127
5, 67200, Note_on_c, 14, 46, 110
5, 67554, Note_off_c, 14, 46, 127
5, 67560, Note_on_c, 14, 49, 110
5, 67914, Note_off_c, 14, 49, 127
5, 67920, Note_on_c, 14, 53, 110
5, 68154, Note_off_c, 14, 53, 127
5, 68160, Note_on_c, 14, 46, 110
5, 68514, Note_off_c, 14, 46, 127
5, 68520, Note_on_c, 14, 51, 110
5, 68874, Note_off_c, 14, 51, 127
5, 68880, Note_on_c, 14, 55, 110
5, 69114, Note_off_c, 14, 55, 127
5, 69120, Note_on_c, 14, 44, 110
5, 69474, Note_off_c, 14, 44, 127
5, 69480, Note_on_c, 14, 48, 110
5, 69834, Note_off_c, 14, 48, 127
5, 69840, Note_on_c, 14, 51, 110
5, 70074, Note_off_c, 14, 51, 127
5, 70080, Note_on_c, 14, 44, 110
5, 70480, Note_off_c, 14, 44, 127
5, 71040, Note_on_c, 14, 44, 110
5, 71394, Note_off_c, 14, 44, 127
5, 71400, Note_on_c, 14, 51, 110
5, 71754, Note_off_c, 14, 51, 127
5, 71760, Note_on_c, 14, 48, 110
5, 71994, Note_off_c, 14, 48, 127
5, 72000, Note_on_c, 14, 44, 110
5, 72354, Note_off_c, 14, 44, 127
5, 72360, Note_on_c, 14, 51, 110
5, 72714, Note_off_c, 14, 51, 127
5, 72720, Note_on_c, 14, 48, 110
5, 72954, Note_off_c, 14, 48, 127
5, 72960, Note_on_c, 14, 46, 110
5, 73314, Note_off_c, 14, 46, 127
5, 73320, Note_on_c, 14, 53, 110
5, 73674, Note_off_c, 14, 53, 127
5, 73680, Note_on_c, 14, 49, 110
5, 73914, Note_off_c, 14, 49, 127
5, 73920, Note_on_c, 14, 46, 110
5, 74274, Note_off_c, 14, 46, 127
5, 74280, Note_on_c, 14, 53, 110
5, 74634, Note_off_c, 14, 53, 127
5, 74640, Note_on_c, 14, 49, 110
5, 74874, Note_off_c, 14, 49, 127
5, 74880, Note_on_c, 14, 44, 110
5, 75234, Note_off_c, 14, 44, 127
5, 75240, Note_on_c, 14, 51, 110
5, 75594, Note_off_c, 14, 51, 127
5, 75600, Note_on_c, 14, 48, 110
5, 75834, Note_off_c, 14, 48, 127
5, 75840, Note_on_c, 14, 44, 110
5, 76194, Note_off_c, 14, 44, 127
5, 76200, Note_on_c, 14, 51, 110
5, 76554, Note_off_c, 14, 51, 127
5, 76560, Note_on_c, 14, 48, 110
5, 76794, Note_off_c, 14, 48, 127
5, 76800, Note_on_c, 14, 46, 110
5, 76914, Note_off_c, 14, 46, 127
5, 76920, Note_on_c, 14, 46, 110
5, 77034, Note_off_c, 14, 46, 127
5, 77040, Note_on_c, 14, 46, 110
5, 77154, Note_off_c, 14, 46, 127
5, 77160, Note_on_c, 14, 46, 110
5, 77274, Note_off_c, 14, 46, 127
5, 77400, Note_on_c, 14, 46, 110
5, 77634, Note_off_c, 14, 46, 127
5, 77640, Note_on_c, 14, 46, 110
5, 77754, Note_off_c, 14, 46, 127
5, 77760, Note_on_c, 14, 51, 110
5, 78160, Note_off_c, 14, 51, 127
5, 78360, Note_on_c, 14, 51, 110
5, 78474, Note_off_c, 14, 51, 127
5, 78480, Note_on_c, 14, 51, 110
5, 78714, Note_off_c, 14, 51, 127
5, 78720, Note_on_c, 14, 44, 110
5, 79074, Note_off_c, 14, 44, 127
5, 79080, Note_on_c, 14, 51, 110
5, 79434, Note_off_c, 14, 51, 127
5, 79440, Note_on_c, 14, 48, 110
5, 79674, Note_off_c, 14, 48, 127
5, 79680, Note_on_c, 14, 44, 110
5, 80034, Note_off_c, 14, 44, 127
5, 80040, Note_on_c, 14, 51, 110
5, 80394, Note_off_c, 14, 51, 127
5, 80400, Note_on_c, 14, 48, 110
5, 80634, Note_off_c, 14, 48, 127
5, 80640, Note_on_c, 14, 46, 110
5, 80994, Note_off_c, 14, 46, 127
5, 81000, Note_on_c, 14, 53, 110
5, 81354, Note_off_c, 14, 53, 127
5, 81360, Note_on_c, 14, 49, 110
5, 81594, Note_off_c, 14, 49, 127
5, 81600, Note_on_c, 14, 46, 110
5, 81954, Note_off_c, 14, 46, 127
5, 81960, Note_on_c, 14, 53, 110
5, 82314, Note_off_c, 14, 53, 127
5, 82320, Note_on_c, 14, 49, 110
5, 82554, Note_off_c, 14, 49, 127
5, 82560, Note_on_c, 14, 46, 110
5, 82914, Note_off_c, 14, 46, 127
5, 82920, Note_on_c, 14, 55, 110
5, 83274, Note_off_c, 14, 55, 127
5, 83280, Note_on_c, 14, 51, 110
5, 83514, Note_off_c, 14, 51, 127
5, 83520, Note_on_c, 14, 46, 110
5, 83874, Note_off_c, 14, 46, 127
5, 83880, Note_on_c, 14, 55, 110
5, 84234, Note_off_c, 14, 55, 127
5, 84240, Note_on_c, 14, 51, 110
5, 84474, Note_off_c, 14, 51, 127
5, 84480, Note_on_c, 14, 44, 110
5, 84834, Note_off_c, 14, 44, 127
5, 84840, Note_on_c, 14, 51, 110
5, 85194, Note_off_c, 14, 51, 127
5, 85200, Note_on_c, 14, 48, 110
5, 85434, Note_off_c, 14, 48, 127
5, 85440, Note_on_c, 14, 44, 110
5, 85794, Note_off_c, 14, 44, 127
5, 85800, Note_on_c, 14, 51, 110
5, 86154, Note_off_c, 14, 51, 127
5, 86160, Note_on_c, 14, 48, 110
5, 86394, Note_off_c, 14, 48, 127
5, 86400, Note_on_c, 14, 44, 110
5, 86754, Note_off_c, 14, 44, 127
5, 86760, Note_on_c, 14, 51, 110
5, 87114, Note_off_c, 14, 51, 127
5, 87120, Note_on_c, 14, 48, 110
5, 87354, Note_off_c, 14, 48, 127
5, 87360, Note_on_c, 14, 44, 110
5, 87714, Note_off_c, 14, 44, 127
5, 87720, Note_on_c, 14, 51, 110
5, 88074, Note_off_c, 14, 51, 127
5, 88080, Note_on_c, 14, 48, 110
5, 88314, Note_off_c, 14, 48, 127
5, 88320, Note_on_c, 14, 46, 110
5, 88674, Note_off_c, 14, 46, 127
5, 88680, Note_on_c, 14, 53, 110
5, 89034, Note_off_c, 14, 53, 127
5, 89040, Note_on_c, 14, 49, 110
5, 89274, Note_off_c, 14, 49, 127
5, 89280, Note_on_c, 14, 46, 110
5, 89634, Note_off_c, 14, 46, 127
5, 89640, Note_on_c, 14, 53, 110
5, 89994, Note_off_c, 14, 53, 127
5, 90000, Note_on_c, 14, 49, 110
5, 90234, Note_off_c, 14, 49, 127
5, 90240, Note_on_c, 14, 46, 110
5, 90594, Note_off_c, 14, 46, 127
5, 90600, Note_on_c, 14, 55, 110
5, 90954, Note_off_c, 14, 55, 127
5, 90960, Note_on_c, 14, 51, 110
5, 91194, Note_off_c, 14, 51, 127
5, 91200, Note_on_c, 14, 46, 110
5, 91554, Note_off_c, 14, 46, 127
5, 91560, Note_on_c, 14, 55, 110
5, 91914, Note_off_c, 14, 55, 127
5, 91920, Note_on_c, 14, 51, 110
5, 92154, Note_off_c, 14, 51, 127
5, 92160, Note_on_c, 14, 44, 110
5, 92514, Note_off_c, 14, 44, 127
5, 92520, Note_on_c, 14, 51, 110
5, 92874, Note_off_c, 14, 51, 127
5, 92880, Note_on_c, 14, 48, 110
5, 93114, Note_off_c, 14, 48, 127
5, 93120, Note_on_c, 14, 44, 110
5, 93474, Note_off_c, 14, 44, 127
5, 93480, Note_on_c, 14, 51, 110
5, 93834, Note_off_c, 14, 51, 127
5, 93840, Note_on_c, 14, 48, 110
5, 94074, Note_off_c, 14, 48, 127
5, 94080, Note_on_c, 14, 46, 110
5, 94434, Note_off_c, 14, 46, 127
5, 94440, Note_on_c, 14, 49, 110
5, 94794, Note_off_c, 14, 49, 127
5, 94800, Note_on_c, 14, 53, 110
5, 95034, Note_off_c, 14, 53, 127
5, 95040, Note_on_c, 14, 46, 110
5, 95394, Note_off_c, 14, 46, 127
5, 95400, Note_on_c, 14, 49, 110
5, 95754, Note_off_c, 14, 49, 127
5, 95760, Note_on_c, 14, 53, 110
5, 95994, Note_off_c, 14, 53, 127
5, 96000, Note_on_c, 14, 44, 110
5, 96354, Note_off_c, 14, 44, 127
5, 96360, Note_on_c, 14, 48, 110
5, 96714, Note_off_c, 14, 48, 127
5, 96720, Note_on_c, 14, 51, 110
5, 96954, Note_off_c, 14, 51, 127
5, 96960, Note_on_c, 14, 44, 110
5, 97314, Note_off_c, 14, 44, 127
5, 97320, Note_on_c, 14, 48, 110
5, 97674, Note_off_c, 14, 48, 127
5, 97680, Note_on_c, 14, 51, 110
5, 97914, Note_off_c, 14, 51, 127
5, 97920, Note_on_c, 14, 46, 110
5, 98274, Note_off_c, 14, 46, 127
5, 98280, Note_on_c, 14, 49, 110
5, 98634, Note_off_c, 14, 49, 127
5, 98640, Note_on_c, 14, 53, 110
5, 98874, Note_off_c, 14, 53, 127
5, 98880, Note_on_c, 14, 46, 110
5, 99234, Note_off_c, 14, 46, 127
5, 99240, Note_on_c, 14, 49, 110
5, 99594, Note_off_c, 14, 49, 127
5, 99600, Note_on_c, 14, 53, 110
5, 99834, Note_off_c, 14, 53, 127
5, 99840, Note_on_c, 14, 44, 110
5, 100194, Note_off_c, 14, 44, 127
5, 100200, Note_on_c, 14, 48, 110
5, 100554, Note_off_c, 14, 48, 127
5, 100560, Note_on_c, 14, 51, 110
5, 100794, Note_off_c, 14, 51, 127
5, 100800, Note_on_c, 14, 44, 110
5, 101154, Note_off_c, 14, 44, 127
5, 101160, Note_on_c, 14, 48, 110
5, 101514, Note_off_c, 14, 48, 127
5, 101520, Note_on_c, 14, 51, 110
5, 101754, Note_off_c, 14, 51, 127
5, 101760, Note_on_c, 14, 46, 110
5, 102114, Note_off_c, 14, 46, 127
5, 102120, Note_on_c, 14, 49, 110
5, 102474, Note_off_c, 14, 49, 127
5, 102480, Note_on_c, 14, 53, 110
5, 102714, Note_off_c, 14, 53, 127
5, 102720, Note_on_c, 14, 46, 110
5, 103074, Note_off_c, 14, 46, 127
5, 103080, Note_on_c, 14, 49, 110
5, 103434, Note_off_c, 14, 49, 127
5, 103440, Note_on_c, 14, 53, 110
5, 103674, Note_off_c, 14, 53, 127
5, 103680, Note_on_c, 14, 44, 110
5, 104034, Note_off_c, 14, 44, 127
5, 104040, Note_on_c, 14, 48, 110
5, 104394, Note_off_c, 14, 48, 127
5, 104400, Note_on_c, 14, 51, 110
5, 104634, Note_off_c, 14, 51, 127
5, 104640, Note_on_c, 14, 44, 110
5, 104994, Note_off_c, 14, 44, 127
5, 105000, Note_on_c, 14, 48, 110
5, 105354, Note_off_c, 14, 48, 127
5, 105360, Note_on_c, 14, 51, 110
5, 105594, Note_off_c, 14, 51, 127
5, 105600, Note_on_c, 14, 46, 110
5, 105954, Note_off_c, 14, 46, 127
5, 105960, Note_on_c, 14, 49, 110
5, 106314, Note_off_c, 14, 49, 127
5, 106320, Note_on_c, 14, 53, 110
5, 106554, Note_off_c, 14, 53, 127
5, 106560, Note_on_c, 14, 46, 110
5, 106914, Note_off_c, 14, 46, 127
5, 106920, Note_on_c, 14, 51, 110
5, 107274, Note_off_c, 14, 51, 127
5, 107280, Note_on_c, 14, 55, 110
5, 107514, Note_off_c, 14, 55, 127
5, 107520, Note_on_c, 14, 44, 110
5, 107874, Note_off_c, 14, 44, 127
5, 107880, Note_on_c, 14, 48, 110
5, 108234, Note_off_c, 14, 48, 127
5, 108240, Note_on_c, 14, 51, 110
5, 108474, Note_off_c, 14, 51, 127
5, 108480, Note_on_c, 14, 44, 110
5, 108880, Note_off_c, 14, 44, 127
5, 109440, Note_on_c, 14, 44, 110
5, 109794, Note_off_c, 14, 44, 127
5, 109800, Note_on_c, 14, 51, 110
5, 110154, Note_off_c, 14, 51, 127
5, 110160, Note_on_c, 14, 48, 110
5, 110394, Note_off_c, 14, 48, 127
5, 110400, Note_on_c, 14, 44, 110
5, 110754, Note_off_c, 14, 44, 127
5, 110760, Note_on_c, 14, 51, 110
5, 111114, Note_off_c, 14, 51, 127
5, 111120, Note_on_c, 14, 48, 110
5, 111354, Note_off_c, 14, 48, 127
5, 111360, Note_on_c, 14, 46, 110
5, 111714, Note_off_c, 14, 46, 127
5, 111720, Note_on_c, 14, 53, 110
5, 112074, Note_off_c, 14, 53, 127
5, 112080, Note_on_c, 14, 49, 110
5, 112314, Note_off_c, 14, 49, 127
5, 112320, Note_on_c, 14, 46, 110
5, 112674, Note_off_c, 14, 46, 127
5, 112680, Note_on_c, 14, 53, 110
5, 113034, Note_off_c, 14, 53, 127
5, 113040, Note_on_c, 14, 49, 110
5, 113274, Note_off_c, 14, 49, 127
5, 113280, Note_on_c, 14, 46, 110
5, 113634, Note_off_c, 14, 46, 127
5, 113640, Note_on_c, 14, 55, 110
5, 113994, Note_off_c, 14, 55, 127
5, 114000, Note_on_c, 14, 51, 110
5, 114234, Note_off_c, 14, 51, 127
5, 114240, Note_on_c, 14, 46, 110
5, 114594, Note_off_c, 14, 46, 127
5, 114600, Note_on_c, 14, 55, 110
5, 114954, Note_off_c, 14, 55, 127
5, 114960, Note_on_c, 14, 51, 110
5, 115194, Note_off_c, 14, 51, 127
5, 115200, Note_on_c, 14, 44, 110
5, 115554, Note_off_c, 14, 44, 127
5, 115560, Note_on_c, 14, 51, 110
5, 115914, Note_off_c, 14, 51, 127
5, 115920, Note_on_c, 14, 48, 110
5, 116154, Note_off_c, 14, 48, 127
5, 116160, Note_on_c, 14, 44, 110
5, 116514, Note_off_c, 14, 44, 127
5, 116520, Note_on_c, 14, 51, 110
5, 116874, Note_off_c, 14, 51, 127
5, 116880, Note_on_c, 14, 48, 110
5, 117114, Note_off_c, 14, 48, 127
5, 117120, Note_on_c, 14, 44, 110
5, 117474, Note_off_c, 14, 44, 127
5, 117480, Note_on_c, 14, 51, 110
5, 117834, Note_off_c, 14, 51, 127
5, 117840, Note_on_c, 14, 48, 110
5, 118074, Note_off_c, 14, 48, 127
5, 118080, Note_on_c, 14, 44, 110
5, 118434, Note_off_c, 14, 44, 127
5, 118440, Note_on_c, 14, 51, 110
5, 118794, Note_off_c, 14, 51, 127
5, 118800, Note_on_c, 14, 48, 110
5, 119034, Note_off_c, 14, 48, 127
5, 119040, Note_on_c, 14, 46, 110
5, 119394, Note_off_c, 14, 46, 127
5, 119400, Note_on_c, 14, 53, 110
5, 119754, Note_off_c, 14, 53, 127
5, 119760, Note_on_c, 14, 49, 110
5, 119994, Note_off_c, 14, 49, 127
5, 120000, Note_on_c, 14, 46, 110
5, 120354, Note_off_c, 14, 46, 127
5, 120360, Note_on_c, 14, 53, 110
5, 120714, Note_off_c, 14, 53, 127
5, 120720, Note_on_c, 14, 49, 110
5, 120954, Note_off_c, 14, 49, 127
5, 120960, Note_on_c, 14, 46, 110
5, 121314, Note_off_c, 14, 46, 127
5, 121320, Note_on_c, 14, 55, 110
5, 121674, Note_off_c, 14, 55, 127
5, 121680, Note_on_c, 14, 51, 110
5, 121914, Note_off_c, 14, 51, 127
5, 121920, Note_on_c, 14, 46, 110
5, 122274, Note_off_c, 14, 46, 127
5, 122280, Note_on_c, 14, 55, 110
5, 122634, Note_off_c, 14, 55, 127
5, 122640, Note_on_c, 14, 51, 110
5, 122874, Note_off_c, 14, 51, 127
5, 122880, Note_on_c, 14, 44, 110
5, 123234, Note_off_c, 14, 44, 127
5, 123240, Note_on_c, 14, 51, 110
5, 123594, Note_off_c, 14, 51, 127
5, 123600, Note_on_c, 14, 48, 110
5, 123834, Note_off_c, 14, 48, 127
5, 123840, Note_on_c, 14, 44, 110
5, 124194, Note_off_c, 14, 44, 127
5, 124200, Note_on_c, 14, 51, 110
5, 124554, Note_off_c, 14, 51, 127
5, 124560, Note_on_c, 14, 48, 110
5, 124794, Note_off_c, 14, 48, 127
5, 124800, Note_on_c, 14, 46, 110
5, 125154, Note_off_c, 14, 46, 127
5, 125160, Note_on_c, 14, 49, 110
5, 125514, Note_off_c, 14, 49, 127
5, 125520, Note_on_c, 14, 53, 110
5, 125754, Note_off_c, 14, 53, 127
5, 125760, Note_on_c, 14, 46, 110
5, 126114, Note_off_c, 14, 46, 127
5, 126120, Note_on_c, 14, 49, 110
5, 126474, Note_off_c, 14, 49, 127
5, 126480, Note_on_c, 14, 53, 110
5, 126714, Note_off_c, 14, 53, 127
5, 126720, Note_on_c, 14, 44, 110
5, 127074, Note_off_c, 14, 44, 127
5, 127080, Note_on_c, 14, 48, 110
5, 127434, Note_off_c, 14, 48, 127
5, 127440, Note_on_c, 14, 51, 110
5, 127674, Note_off_c, 14, 51, 127
5, 127680, Note_on_c, 14, 44, 110
5, 128034, Note_off_c, 14, 44, 127
5, 128040, Note_on_c, 14, 48, 110
5, 128394, Note_off_c, 14, 48, 127
5, 128400, Note_on_c, 14, 51, 110
5, 128634, Note_off_c, 14, 51, 127
5, 128640, Note_on_c, 14, 46, 110
5, 128994, Note_off_c, 14, 46, 127
5, 129000, Note_on_c, 14, 49, 110
5, 129354, Note_off_c, 14, 49, 127
5, 129360, Note_on_c, 14, 53, 110
5, 129594, Note_off_c, 14, 53, 127
5, 129600, Note_on_c, 14, 46, 110
5, 129954, Note_off_c, 14, 46, 127
5, 129960, Note_on_c, 14, 49, 110
5, 130314, Note_off_c, 14, 49, 127
5, 130320, Note_on_c, 14, 53, 110
5, 130554, Note_off_c, 14, 53, 127
5, 130560, Note_on_c, 14, 44, 110
5, 130914, Note_off_c, 14, 44, 127
5, 130920, Note_on_c, 14, 48, 110
5, 131274, Note_off_c, 14, 48, 127
5, 131280, Note_on_c, 14, 51, 110
5, 131514, Note_off_c, 14, 51, 127
5, 131520, Note_on_c, 14, 44, 110
5, 131874, Note_off_c, 14, 44, 127
5, 131880, Note_on_c, 14, 48, 110
5, 132234, Note_off_c, 14, 48, 127
5, 132240, Note_on_c, 14, 51, 110
5, 132474, Note_off_c, 14, 51, 127
5, 132480, Note_on_c, 14, 46, 110
5, 132834, Note_off_c, 14, 46, 127
5, 132840, Note_on_c, 14, 49, 110
5, 133194, Note_off_c, 14, 49, 127
5, 133200, Note_on_c, 14, 53, 110
5, 133434, Note_off_c, 14, 53, 127
5, 133440, Note_on_c, 14, 46, 110
5, 133794, Note_off_c, 14, 46, 127
5, 133800, Note_on_c, 14, 49, 110
5, 134154, Note_off_c, 14, 49, 127
5, 134160, Note_on_c, 14, 53, 110
5, 134394, Note_off_c, 14, 53, 127
5, 134400, Note_on_c, 14, 44, 110
5, 134754, Note_off_c, 14, 44, 127
5, 134760, Note_on_c, 14, 48, 110
5, 135114, Note_off_c, 14, 48, 127
5, 135120, Note_on_c, 14, 51, 110
5, 135354, Note_off_c, 14, 51, 127
5, 135360, Note_on_c, 14, 44, 110
5, 135714, Note_off_c, 14, 44, 127
5, 135720, Note_on_c, 14, 48, 110
5, 136074, Note_off_c, 14, 48, 127
5, 136080, Note_on_c, 14, 51, 110
5, 136314, Note_off_c, 14, 51, 127
5, 136320, Note_on_c, 14, 46, 110
5, 136674, Note_off_c, 14, 46, 127
5, 136680, Note_on_c, 14, 49, 110
5, 137034, Note_off_c, 14, 49, 127
5, 137040, Note_on_c, 14, 53, 110
5, 137274, Note_off_c, 14, 53, 127
5, 137280, Note_on_c, 14, 46, 110
5, 137634, Note_off_c, 14, 46, 127
5, 137640, Note_on_c, 14, 51, 110
5, 137994, Note_off_c, 14, 51, 127
5, 138000, Note_on_c, 14, 55, 110
5, 138234, Note_off_c, 14, 55, 127
5, 138240, Note_on_c, 14, 44, 110
5, 138594, Note_off_c, 14, 44, 127
5, 138600, Note_on_c, 14, 48, 110
5, 138954, Note_off_c, 14, 48, 127
5, 138960, Note_on_c, 14, 51, 110
5, 139194, Note_off_c, 14, 51, 127
5, 139200, Note_on_c, 14, 44, 110
5, 139600, Note_off_c, 14, 44, 127
5, 140160, Note_on_c, 14, 44, 110
5, 140514, Note_off_c, 14, 44, 127
5, 140520, Note_on_c, 14, 51, 110
5, 140874, Note_off_c, 14, 51, 127
5, 140880, Note_on_c, 14, 48, 110
5, 141114, Note_off_c, 14, 48, 127
5, 141120, Note_on_c, 14, 44, 110
5, 141474, Note_off_c, 14, 44, 127
5, 141480, Note_on_c, 14, 51, 110
5, 141834, Note_off_c, 14, 51, 127
5, 141840, Note_on_c, 14, 48, 110
5, 142074, Note_off_c, 14, 48, 127
5, 142080, Note_on_c, 14, 46, 110
5, 142434, Note_off_c, 14, 46, 127
5, 142440, Note_on_c, 14, 53, 110
5, 142794, Note_off_c, 14, 53, 127
5, 142800, Note_on_c, 14, 49, 110
5, 143034, Note_off_c, 14, 49, 127
5, 143040, Note_on_c, 14, 46, 110
5, 143394, Note_off_c, 14, 46, 127
5, 143400, Note_on_c, 14, 53, 110
5, 143754, Note_off_c, 14, 53, 127
5, 143760, Note_on_c, 14, 49, 110
5, 143994, Note_off_c, 14, 49, 127
5, 144000, Note_on_c, 14, 44, 110
5, 144354, Note_off_c, 14, 44, 127
5, 144360, Note_on_c, 14, 51, 110
5, 144714, Note_off_c, 14, 51, 127
5, 144720, Note_on_c, 14, 48, 110
5, 144954, Note_off_c, 14, 48, 127
5, 144960, Note_on_c, 14, 44, 110
5, 145314, Note_off_c, 14, 44, 127
5, 145320, Note_on_c, 14, 51, 110
5, 145674, Note_off_c, 14, 51, 127
5, 145680, Note_on_c, 14, 48, 110
5, 145914, Note_off_c, 14, 48, 127
5, 145920, Note_on_c, 14, 46, 110
5, 146034, Note_off_c, 14, 46, 127
5, 146040, Note_on_c, 14, 46, 110
5, 146154, Note_off_c, 14, 46, 127
5, 146160, Note_on_c, 14, 46, 110
5, 146274, Note_off_c, 14, 46, 127
5, 146280, Note_on_c, 14, 46, 110
5, 146394, Note_off_c, 14, 46, 127
5, 146520, Note_on_c, 14, 46, 110
5, 146754, Note_off_c, 14, 46, 127
5, 146760, Note_on_c, 14, 46, 110
5, 146874, Note_off_c, 14, 46, 127
5, 146880, Note_on_c, 14, 51, 110
5, 147280, Note_off_c, 14, 51, 127
5, 147480, Note_on_c, 14, 51, 110
5, 147594, Note_off_c, 14, 51, 127
5, 147600, Note_on_c, 14, 51, 110
5, 147834, Note_off_c, 14, 51, 127
5, 147840, End_track
0, 0, End_of_file
