0, 0, Header, 1, 7, 480
1, 0, Start_track
1, 0, Copyright_t, "Copyright (c) xxxx Copyright Holder"
1, 0, Cue_point_t, "Created by Rosegarden"
1, 0, Cue_point_t, "http://www.rosegardenmusic.com/"
1, 0, Tempo, 434782
1, 0, Time_signature, 12, 3, 36, 8
1, 244799, End_track
2, 0, Start_track
2, 0, Title_t, "Track 1"
2, 2880, Note_on_c, 0, 71, 110
2, 2880, Control_c, 0, 91, 0
2, 2880, Control_c, 0, 7, 127
2, 2880, Control_c, 0, 93, 0
2, 2880, Control_c, 0, 10, 64
2, 2880, Control_c, 0, 121, 0
2, 2880, Program_c, 0, 0
2, 2880, Control_c, 0, 32, 0
2, 2880, Control_c, 0, 0, 0
2, 3115, Note_off_c, 0, 71, 127
2, 3119, Note_on_c, 0, 72, 110
2, 3355, Note_off_c, 0, 72, 127
2, 3359, Note_on_c, 0, 76, 110
2, 3594, Note_off_c, 0, 76, 127
2, 3600, Note_on_c, 0, 83, 110
2, 3835, Note_off_c, 0, 83, 127
2, 3839, Note_on_c, 0, 81, 110
2, 4075, Note_off_c, 0, 81, 127
2, 4079, Note_on_c, 0, 79, 110
2, 4314, Note_off_c, 0, 79, 127
2, 4320, Note_on_c, 0, 78, 110
2, 4555, Note_off_c, 0, 78, 127
2, 4559, Note_on_c, 0, 79, 110
2, 4675, Note_off_c, 0, 79, 127
2, 4679, Note_on_c, 0, 78, 110
2, 4795, Note_off_c, 0, 78, 127
2, 4799, Note_on_c, 0, 76, 110
2, 5034, Note_off_c, 0, 76, 127
2, 5040, Note_on_c, 0, 78, 110
2, 5275, Note_off_c, 0, 78, 127
2, 5279, Note_on_c, 0, 79, 110
2, 5514, Note_off_c, 0, 79, 127
2, 5520, Note_on_c, 0, 81, 110
2, 5754, Note_off_c, 0, 81, 127
2, 5760, Note_on_c, 0, 83, 110
2, 5995, Note_off_c, 0, 83, 127
2, 5999, Note_on_c, 0, 84, 110
2, 6234, Note_off_c, 0, 84, 127
2, 6240, Note_on_c, 0, 88, 110
2, 6474, Note_off_c, 0, 88, 127
2, 6480, Note_on_c, 0, 95, 110
2, 6715, Note_off_c, 0, 95, 127
2, 6719, Note_on_c, 0, 93, 110
2, 6954, Note_off_c, 0, 93, 127
2, 6960, Note_on_c, 0, 91, 110
2, 7194, Note_off_c, 0, 91, 127
2, 7200, Note_on_c, 0, 90, 110
2, 7435, Note_off_c, 0, 90, 127
2, 7439, Note_on_c, 0, 91, 110
2, 7555, Note_off_c, 0, 91, 127
2, 7559, Note_on_c, 0, 90, 110
2, 7674, Note_off_c, 0, 90, 127
2, 7680, Note_on_c, 0, 88, 110
2, 7914, Note_off_c, 0, 88, 127
2, 7919, Note_on_c, 0, 90, 110
2, 8155, Note_off_c, 0, 90, 127
2, 8159, Note_on_c, 0, 91, 110
2, 8394, Note_off_c, 0, 91, 127
2, 8400, Note_on_c, 0, 93, 110
2, 8635, Note_off_c, 0, 93, 127
2, 8639, Note_on_c, 0, 95, 110
2, 8639, Note_on_c, 0, 88, 110
2, 8639, Note_on_c, 0, 83, 110
2, 9040, Note_off_c, 0, 83, 127
2, 9120, Note_on_c, 0, 93, 110
2, 9355, Note_off_c, 0, 93, 127
2, 9359, Note_on_c, 0, 88, 110
2, 9595, Note_off_c, 0, 88, 127
2, 9599, Note_on_c, 0, 83, 110
2, 9834, Note_off_c, 0, 83, 127
2, 9840, Note_on_c, 0, 81, 110
2, 10075, Note_off_c, 0, 81, 127
2, 10079, Note_on_c, 0, 91, 110
2, 10079, Note_on_c, 0, 84, 110
2, 10079, Note_on_c, 0, 79, 110
2, 10480, Note_off_c, 0, 79, 127
2, 10560, Note_on_c, 0, 90, 110
2, 10795, Note_off_c, 0, 90, 127
2, 10799, Note_on_c, 0, 88, 110
2, 11034, Note_off_c, 0, 88, 127
2, 11040, Note_on_c, 0, 83, 110
2, 11274, Note_off_c, 0, 83, 127
2, 11280, Note_on_c, 0, 81, 110
2, 11515, Note_off_c, 0, 81, 127
2, 11519, Note_on_c, 0, 88, 110
2, 11754, Note_off_c, 0, 88, 127
2, 11760, Note_on_c, 0, 85, 110
2, 11874, Note_off_c, 0, 85, 127
2, 11880, Note_on_c, 0, 88, 110
2, 11994, Note_off_c, 0, 88, 127
2, 12000, Note_on_c, 0, 85, 110
2, 12235, Note_off_c, 0, 85, 127
2, 12239, Note_on_c, 0, 83, 110
2, 12239, Note_on_c, 0, 81, 110
2, 12474, Note_off_c, 0, 81, 127
2, 12480, Note_on_c, 0, 80, 110
2, 12714, Note_off_c, 0, 80, 127
2, 12720, Note_on_c, 0, 78, 110
2, 12955, Note_off_c, 0, 78, 127
2, 12959, Note_on_c, 0, 76, 110
2, 13194, Note_off_c, 0, 76, 127
2, 13200, Note_on_c, 0, 73, 110
2, 13434, Note_off_c, 0, 73, 127
2, 13439, Note_on_c, 0, 68, 110
2, 13675, Note_off_c, 0, 68, 127
2, 13679, Note_on_c, 0, 66, 110
2, 13914, Note_off_c, 0, 66, 127
2, 14399, Note_on_c, 0, 68, 110
2, 14800, Note_off_c, 0, 68, 127
2, 14879, Note_on_c, 0, 78, 110
2, 15115, Note_off_c, 0, 78, 127
2, 15119, Note_on_c, 0, 76, 110
2, 15519, Note_off_c, 0, 76, 127
2, 15599, Note_on_c, 0, 75, 110
2, 15835, Note_off_c, 0, 75, 127
2, 15839, Note_on_c, 0, 73, 110
2, 16074, Note_off_c, 0, 73, 127
2, 16080, Note_on_c, 0, 75, 110
2, 16315, Note_off_c, 0, 75, 127
2, 16319, Note_on_c, 0, 73, 110
2, 16554, Note_off_c, 0, 73, 127
2, 16560, Note_on_c, 0, 71, 110
2, 16959, Note_off_c, 0, 71, 127
2, 17039, Note_on_c, 0, 73, 110
2, 17274, Note_off_c, 0, 73, 127
2, 17280, Note_on_c, 0, 75, 110
2, 17514, Note_off_c, 0, 75, 127
2, 17520, Note_on_c, 0, 73, 110
2, 17755, Note_off_c, 0, 73, 127
2, 17759, Note_on_c, 0, 71, 110
2, 17994, Note_off_c, 0, 71, 127
2, 18000, Note_on_c, 0, 68, 110
2, 18234, Note_off_c, 0, 68, 127
2, 18240, Note_on_c, 0, 66, 110
2, 18475, Note_off_c, 0, 66, 127
2, 18479, Note_on_c, 0, 68, 110
2, 18714, Note_off_c, 0, 68, 127
2, 18720, Note_on_c, 0, 71, 110
2, 19360, Note_off_c, 0, 71, 127
2, 19440, Note_on_c, 0, 73, 110
2, 19675, Note_off_c, 0, 73, 127
2, 19679, Note_on_c, 0, 71, 110
2, 19915, Note_off_c, 0, 71, 127
2, 19919, Note_on_c, 0, 66, 110
2, 20154, Note_off_c, 0, 66, 127
2, 20160, Note_on_c, 0, 68, 110
2, 20559, Note_off_c, 0, 68, 127
2, 20639, Note_on_c, 0, 80, 110
2, 20874, Note_off_c, 0, 80, 127
2, 20880, Note_on_c, 0, 78, 110
2, 21279, Note_off_c, 0, 78, 127
2, 21359, Note_on_c, 0, 76, 110
2, 21594, Note_off_c, 0, 76, 127
2, 21600, Note_on_c, 0, 75, 110
2, 21835, Note_off_c, 0, 75, 127
2, 21839, Note_on_c, 0, 76, 110
2, 22074, Note_off_c, 0, 76, 127
2, 22080, Note_on_c, 0, 75, 110
2, 22314, Note_off_c, 0, 75, 127
2, 22320, Note_on_c, 0, 73, 110
2, 22719, Note_off_c, 0, 73, 127
2, 22800, Note_on_c, 0, 75, 110
2, 23034, Note_off_c, 0, 75, 127
2, 23040, Note_on_c, 0, 73, 110
2, 23439, Note_off_c, 0, 73, 127
2, 23520, Note_on_c, 0, 85, 110
2, 23754, Note_off_c, 0, 85, 127
2, 23760, Note_on_c, 0, 83, 110
2, 24160, Note_off_c, 0, 83, 127
2, 24240, Note_on_c, 0, 80, 110
2, 24474, Note_off_c, 0, 80, 127
2, 24479, Note_on_c, 0, 78, 110
2, 24880, Note_off_c, 0, 78, 127
2, 24960, Note_on_c, 0, 76, 110
2, 25195, Note_off_c, 0, 76, 127
2, 25199, Note_on_c, 0, 80, 110
2, 25840, Note_off_c, 0, 80, 127
2, 25919, Note_on_c, 0, 68, 110
2, 26320, Note_off_c, 0, 68, 127
2, 26400, Note_on_c, 0, 78, 110
2, 26635, Note_off_c, 0, 78, 127
2, 26639, Note_on_c, 0, 76, 110
2, 27040, Note_off_c, 0, 76, 127
2, 27120, Note_on_c, 0, 75, 110
2, 27355, Note_off_c, 0, 75, 127
2, 27359, Note_on_c, 0, 73, 110
2, 27594, Note_off_c, 0, 73, 127
2, 27600, Note_on_c, 0, 75, 110
2, 27834, Note_off_c, 0, 75, 127
2, 27840, Note_on_c, 0, 73, 110
2, 28075, Note_off_c, 0, 73, 127
2, 28079, Note_on_c, 0, 71, 110
2, 28480, Note_off_c, 0, 71, 127
2, 28560, Note_on_c, 0, 73, 110
2, 28795, Note_off_c, 0, 73, 127
2, 28799, Note_on_c, 0, 75, 110
2, 29034, Note_off_c, 0, 75, 127
2, 29040, Note_on_c, 0, 73, 110
2, 29274, Note_off_c, 0, 73, 127
2, 29280, Note_on_c, 0, 71, 110
2, 29515, Note_off_c, 0, 71, 127
2, 29519, Note_on_c, 0, 68, 110
2, 29754, Note_off_c, 0, 68, 127
2, 29760, Note_on_c, 0, 66, 110
2, 29994, Note_off_c, 0, 66, 127
2, 29999, Note_on_c, 0, 68, 110
2, 30235, Note_off_c, 0, 68, 127
2, 30239, Note_on_c, 0, 71, 110
2, 30879, Note_off_c, 0, 71, 127
2, 30959, Note_on_c, 0, 73, 110
2, 31194, Note_off_c, 0, 73, 127
2, 31200, Note_on_c, 0, 71, 110
2, 31435, Note_off_c, 0, 71, 127
2, 31439, Note_on_c, 0, 66, 110
2, 31675, Note_off_c, 0, 66, 127
2, 31679, Note_on_c, 0, 68, 110
2, 32079, Note_off_c, 0, 68, 127
2, 32159, Note_on_c, 0, 80, 110
2, 32395, Note_off_c, 0, 80, 127
2, 32399, Note_on_c, 0, 78, 110
2, 32799, Note_off_c, 0, 78, 127
2, 32879, Note_on_c, 0, 76, 110
2, 33114, Note_off_c, 0, 76, 127
2, 33120, Note_on_c, 0, 75, 110
2, 33354, Note_off_c, 0, 75, 127
2, 33360, Note_on_c, 0, 76, 110
2, 33595, Note_off_c, 0, 76, 127
2, 33599, Note_on_c, 0, 75, 110
2, 33834, Note_off_c, 0, 75, 127
2, 33840, Note_on_c, 0, 73, 110
2, 34239, Note_off_c, 0, 73, 127
2, 34319, Note_on_c, 0, 75, 110
2, 34554, Note_off_c, 0, 75, 127
2, 34560, Note_on_c, 0, 73, 110
2, 34959, Note_off_c, 0, 73, 127
2, 35039, Note_on_c, 0, 85, 110
2, 35274, Note_off_c, 0, 85, 127
2, 35280, Note_on_c, 0, 83, 110
2, 35679, Note_off_c, 0, 83, 127
2, 35759, Note_on_c, 0, 80, 110
2, 35994, Note_off_c, 0, 80, 127
2, 36000, Note_on_c, 0, 78, 110
2, 36399, Note_off_c, 0, 78, 127
2, 36479, Note_on_c, 0, 76, 110
2, 36714, Note_off_c, 0, 76, 127
2, 36720, Note_on_c, 0, 80, 110
2, 37360, Note_off_c, 0, 80, 127
2, 38160, Note_on_c, 0, 68, 110
2, 38395, Note_off_c, 0, 68, 127
2, 38399, Note_on_c, 0, 71, 110
2, 38634, Note_off_c, 0, 71, 127
2, 38640, Note_on_c, 0, 68, 110
2, 38874, Note_off_c, 0, 68, 127
2, 38880, Note_on_c, 0, 66, 110
2, 39520, Note_off_c, 0, 66, 127
2, 39600, Note_on_c, 0, 73, 110
2, 39999, Note_off_c, 0, 73, 127
2, 40080, Note_on_c, 0, 78, 110
2, 40314, Note_off_c, 0, 78, 127
2, 40320, Note_on_c, 0, 80, 110
2, 40320, Note_on_c, 0, 71, 110
2, 40960, Note_off_c, 0, 71, 127
2, 41039, Note_on_c, 0, 68, 110
2, 41275, Note_off_c, 0, 68, 127
2, 41279, Note_on_c, 0, 71, 110
2, 41514, Note_off_c, 0, 71, 127
2, 41520, Note_on_c, 0, 68, 110
2, 41755, Note_off_c, 0, 68, 127
2, 41759, Note_on_c, 0, 66, 110
2, 42400, Note_off_c, 0, 66, 127
2, 42479, Note_on_c, 0, 73, 110
2, 42880, Note_off_c, 0, 73, 127
2, 42960, Note_on_c, 0, 78, 110
2, 43195, Note_off_c, 0, 78, 127
2, 43199, Note_on_c, 0, 80, 110
2, 43839, Note_off_c, 0, 80, 127
2, 43919, Note_on_c, 0, 68, 110
2, 44154, Note_off_c, 0, 68, 127
2, 44160, Note_on_c, 0, 71, 110
2, 44394, Note_off_c, 0, 71, 127
2, 44400, Note_on_c, 0, 68, 110
2, 44635, Note_off_c, 0, 68, 127
2, 44639, Note_on_c, 0, 66, 110
2, 45279, Note_off_c, 0, 66, 127
2, 45359, Note_on_c, 0, 68, 110
2, 45594, Note_off_c, 0, 68, 127
2, 45600, Note_on_c, 0, 71, 110
2, 45834, Note_off_c, 0, 71, 127
2, 45840, Note_on_c, 0, 76, 110
2, 46075, Note_off_c, 0, 76, 127
2, 46079, Note_on_c, 0, 78, 110
2, 46480, Note_off_c, 0, 78, 127
2, 46559, Note_on_c, 0, 76, 110
2, 47200, Note_off_c, 0, 76, 127
2, 47279, Note_on_c, 0, 75, 110
2, 47515, Note_off_c, 0, 75, 127
2, 47519, Note_on_c, 0, 76, 110
2, 47754, Note_off_c, 0, 76, 127
2, 47760, Note_on_c, 0, 75, 110
2, 47995, Note_off_c, 0, 75, 127
2, 47999, Note_on_c, 0, 73, 110
2, 48235, Note_off_c, 0, 73, 127
2, 48239, Note_on_c, 0, 71, 110
2, 48639, Note_off_c, 0, 71, 127
2, 48719, Note_on_c, 0, 68, 110
2, 48955, Note_off_c, 0, 68, 127
2, 48959, Note_on_c, 0, 73, 110
2, 49599, Note_off_c, 0, 73, 127
2, 49680, Note_on_c, 0, 68, 110
2, 49914, Note_off_c, 0, 68, 127
2, 49920, Note_on_c, 0, 71, 110
2, 50155, Note_off_c, 0, 71, 127
2, 50159, Note_on_c, 0, 68, 110
2, 50394, Note_off_c, 0, 68, 127
2, 50400, Note_on_c, 0, 66, 110
2, 51039, Note_off_c, 0, 66, 127
2, 51120, Note_on_c, 0, 73, 110
2, 51519, Note_off_c, 0, 73, 127
2, 51599, Note_on_c, 0, 78, 110
2, 51834, Note_off_c, 0, 78, 127
2, 51840, Note_on_c, 0, 80, 110
2, 51840, Note_on_c, 0, 71, 110
2, 52480, Note_off_c, 0, 71, 127
2, 52560, Note_on_c, 0, 68, 110
2, 52795, Note_off_c, 0, 68, 127
2, 52799, Note_on_c, 0, 71, 110
2, 53035, Note_off_c, 0, 71, 127
2, 53039, Note_on_c, 0, 68, 110
2, 53274, Note_off_c, 0, 68, 127
2, 53280, Note_on_c, 0, 66, 110
2, 53920, Note_off_c, 0, 66, 127
2, 54000, Note_on_c, 0, 73, 110
2, 54399, Note_off_c, 0, 73, 127
2, 54479, Note_on_c, 0, 78, 110
2, 54714, Note_off_c, 0, 78, 127
2, 54720, Note_on_c, 0, 80, 110
2, 55360, Note_off_c, 0, 80, 127
2, 55440, Note_on_c, 0, 68, 110
2, 55675, Note_off_c, 0, 68, 127
2, 55679, Note_on_c, 0, 66, 110
2, 55914, Note_off_c, 0, 66, 127
2, 55920, Note_on_c, 0, 68, 110
2, 56395, Note_off_c, 0, 68, 127
2, 56399, Note_on_c, 0, 68, 110
2, 56634, Note_off_c, 0, 68, 127
2, 56640, Note_on_c, 0, 73, 110
2, 56874, Note_off_c, 0, 73, 127
2, 56880, Note_on_c, 0, 68, 110
2, 57115, Note_off_c, 0, 68, 127
2, 57119, Note_on_c, 0, 73, 110
2, 57354, Note_off_c, 0, 73, 127
2, 57360, Note_on_c, 0, 80, 110
2, 57594, Note_off_c, 0, 80, 127
2, 58319, Note_on_c, 0, 92, 110
2, 58319, Note_on_c, 0, 81, 110
2, 58555, Note_off_c, 0, 81, 127
2, 58559, Note_on_c, 0, 90, 110
2, 58794, Note_off_c, 0, 90, 127
2, 58800, Note_on_c, 0, 92, 110
2, 59035, Note_off_c, 0, 92, 127
2, 59039, Note_on_c, 0, 95, 110
2, 59275, Note_off_c, 0, 95, 127
2, 59279, Note_on_c, 0, 92, 110
2, 59514, Note_off_c, 0, 92, 127
2, 59520, Note_on_c, 0, 85, 110
2, 59755, Note_off_c, 0, 85, 127
2, 59759, Note_on_c, 0, 83, 110
2, 60399, Note_off_c, 0, 83, 127
2, 60479, Note_on_c, 0, 71, 110
2, 61674, Note_off_c, 0, 71, 127
2, 61680, Note_on_c, 0, 85, 110
2, 61680, Note_on_c, 0, 76, 110
2, 61915, Note_off_c, 0, 76, 127
2, 61919, Note_on_c, 0, 83, 110
2, 63114, Note_off_c, 0, 83, 127
2, 63119, Note_on_c, 0, 80, 110
2, 63119, Note_on_c, 0, 71, 110
2, 63355, Note_off_c, 0, 71, 127
2, 63359, Note_on_c, 0, 78, 110
2, 64555, Note_off_c, 0, 78, 127
2, 64559, Note_on_c, 0, 76, 110
2, 64559, Note_on_c, 0, 68, 110
2, 64795, Note_off_c, 0, 68, 127
2, 64799, Note_on_c, 0, 71, 110
2, 65995, Note_off_c, 0, 71, 127
2, 65999, Note_on_c, 0, 66, 110
2, 66234, Note_off_c, 0, 66, 127
2, 66240, Note_on_c, 0, 71, 110
2, 67435, Note_off_c, 0, 71, 127
2, 67439, Note_on_c, 0, 85, 110
2, 67439, Note_on_c, 0, 78, 110
2, 67674, Note_off_c, 0, 78, 127
2, 67680, Note_on_c, 0, 83, 110
2, 67680, Note_on_c, 0, 76, 110
2, 68320, Note_off_c, 0, 76, 127
2, 68400, Note_on_c, 0, 80, 110
2, 68935, Note_off_c, 0, 80, 127
2, 68939, Note_on_c, 0, 80, 110
2, 68994, Note_off_c, 0, 80, 127
2, 69000, Note_on_c, 0, 81, 110
2, 69114, Note_off_c, 0, 81, 127
2, 69120, Note_on_c, 0, 80, 110
2, 69355, Note_off_c, 0, 80, 127
2, 69359, Note_on_c, 0, 78, 110
2, 69595, Note_off_c, 0, 78, 127
2, 69599, Note_on_c, 0, 76, 110
2, 69834, Note_off_c, 0, 76, 127
2, 69840, Note_on_c, 0, 75, 110
2, 70075, Note_off_c, 0, 75, 127
2, 70079, Note_on_c, 0, 76, 110
2, 70315, Note_off_c, 0, 76, 127
2, 70319, Note_on_c, 0, 78, 110
2, 70554, Note_off_c, 0, 78, 127
2, 70560, Note_on_c, 0, 80, 110
2, 71754, Note_off_c, 0, 80, 127
2, 71760, Note_on_c, 0, 66, 110
2, 71994, Note_off_c, 0, 66, 127
2, 72000, Note_on_c, 0, 71, 110
2, 73194, Note_off_c, 0, 71, 127
2, 73200, Note_on_c, 0, 85, 110
2, 73200, Note_on_c, 0, 76, 110
2, 73434, Note_off_c, 0, 76, 127
2, 73440, Note_on_c, 0, 83, 110
2, 74634, Note_off_c, 0, 83, 127
2, 74640, Note_on_c, 0, 80, 110
2, 74640, Note_on_c, 0, 71, 110
2, 74875, Note_off_c, 0, 71, 127
2, 74879, Note_on_c, 0, 78, 110
2, 74879, Note_on_c, 0, 71, 110
2, 76074, Note_off_c, 0, 71, 127
2, 76080, Note_on_c, 0, 76, 110
2, 76315, Note_off_c, 0, 76, 127
2, 76319, Note_on_c, 0, 71, 110
2, 76319, Note_on_c, 0, 66, 110
2, 76959, Note_off_c, 0, 66, 127
2, 77520, Note_on_c, 0, 66, 110
2, 77755, Note_off_c, 0, 66, 127
2, 77759, Note_on_c, 0, 71, 110
2, 77759, Note_on_c, 0, 69, 110
2, 78954, Note_off_c, 0, 69, 127
2, 78960, Note_on_c, 0, 85, 110
2, 78960, Note_on_c, 0, 78, 110
2, 79195, Note_off_c, 0, 78, 127
2, 79199, Note_on_c, 0, 83, 110
2, 79199, Note_on_c, 0, 76, 110
2, 80395, Note_off_c, 0, 76, 127
2, 80399, Note_on_c, 0, 80, 110
2, 80635, Note_off_c, 0, 80, 127
2, 80639, Note_on_c, 0, 78, 110
2, 80639, Note_on_c, 0, 73, 110
2, 81835, Note_off_c, 0, 73, 127
2, 81839, Note_on_c, 0, 76, 110
2, 82075, Note_off_c, 0, 76, 127
2, 82079, Note_on_c, 0, 80, 110
2, 82079, Note_on_c, 0, 75, 110
2, 83399, Note_off_c, 0, 75, 127
2, 83520, Note_on_c, 0, 71, 110
2, 83754, Note_off_c, 0, 71, 127
2, 83760, Note_on_c, 0, 72, 110
2, 83995, Note_off_c, 0, 72, 127
2, 83999, Note_on_c, 0, 76, 110
2, 84234, Note_off_c, 0, 76, 127
2, 84240, Note_on_c, 0, 83, 110
2, 84474, Note_off_c, 0, 83, 127
2, 84480, Note_on_c, 0, 81, 110
2, 84715, Note_off_c, 0, 81, 127
2, 84719, Note_on_c, 0, 79, 110
2, 84954, Note_off_c, 0, 79, 127
2, 84960, Note_on_c, 0, 78, 110
2, 85194, Note_off_c, 0, 78, 127
2, 85199, Note_on_c, 0, 79, 110
2, 85315, Note_off_c, 0, 79, 127
2, 85319, Note_on_c, 0, 78, 110
2, 85435, Note_off_c, 0, 78, 127
2, 85439, Note_on_c, 0, 76, 110
2, 85674, Note_off_c, 0, 76, 127
2, 85680, Note_on_c, 0, 78, 110
2, 85915, Note_off_c, 0, 78, 127
2, 85919, Note_on_c, 0, 79, 110
2, 86155, Note_off_c, 0, 79, 127
2, 86159, Note_on_c, 0, 81, 110
2, 86394, Note_off_c, 0, 81, 127
2, 86400, Note_on_c, 0, 83, 110
2, 86635, Note_off_c, 0, 83, 127
2, 86639, Note_on_c, 0, 84, 110
2, 86875, Note_off_c, 0, 84, 127
2, 86879, Note_on_c, 0, 88, 110
2, 87114, Note_off_c, 0, 88, 127
2, 87120, Note_on_c, 0, 95, 110
2, 87355, Note_off_c, 0, 95, 127
2, 87359, Note_on_c, 0, 93, 110
2, 87595, Note_off_c, 0, 93, 127
2, 87599, Note_on_c, 0, 91, 110
2, 87834, Note_off_c, 0, 91, 127
2, 87840, Note_on_c, 0, 90, 110
2, 88075, Note_off_c, 0, 90, 127
2, 88079, Note_on_c, 0, 91, 110
2, 88195, Note_off_c, 0, 91, 127
2, 88199, Note_on_c, 0, 90, 110
2, 88314, Note_off_c, 0, 90, 127
2, 88320, Note_on_c, 0, 88, 110
2, 88554, Note_off_c, 0, 88, 127
2, 88560, Note_on_c, 0, 90, 110
2, 88795, Note_off_c, 0, 90, 127
2, 88799, Note_on_c, 0, 91, 110
2, 89034, Note_off_c, 0, 91, 127
2, 89040, Note_on_c, 0, 93, 110
2, 89274, Note_off_c, 0, 93, 127
2, 89280, Note_on_c, 0, 95, 110
2, 89280, Note_on_c, 0, 88, 110
2, 89280, Note_on_c, 0, 83, 110
2, 89679, Note_off_c, 0, 83, 127
2, 89760, Note_on_c, 0, 93, 110
2, 89994, Note_off_c, 0, 93, 127
2, 90000, Note_on_c, 0, 88, 110
2, 90235, Note_off_c, 0, 88, 127
2, 90239, Note_on_c, 0, 83, 110
2, 90474, Note_off_c, 0, 83, 127
2, 90480, Note_on_c, 0, 81, 110
2, 90714, Note_off_c, 0, 81, 127
2, 90719, Note_on_c, 0, 91, 110
2, 90719, Note_on_c, 0, 84, 110
2, 90719, Note_on_c, 0, 79, 110
2, 91120, Note_off_c, 0, 79, 127
2, 91200, Note_on_c, 0, 90, 110
2, 91435, Note_off_c, 0, 90, 127
2, 91439, Note_on_c, 0, 88, 110
2, 91675, Note_off_c, 0, 88, 127
2, 91679, Note_on_c, 0, 83, 110
2, 91914, Note_off_c, 0, 83, 127
2, 91920, Note_on_c, 0, 81, 110
2, 92155, Note_off_c, 0, 81, 127
2, 92159, Note_on_c, 0, 88, 110
2, 92395, Note_off_c, 0, 88, 127
2, 92399, Note_on_c, 0, 85, 110
2, 92514, Note_off_c, 0, 85, 127
2, 92520, Note_on_c, 0, 88, 110
2, 92634, Note_off_c, 0, 88, 127
2, 92640, Note_on_c, 0, 85, 110
2, 92875, Note_off_c, 0, 85, 127
2, 92879, Note_on_c, 0, 83, 110
2, 92879, Note_on_c, 0, 81, 110
2, 93115, Note_off_c, 0, 81, 127
2, 93119, Note_on_c, 0, 80, 110
2, 93354, Note_off_c, 0, 80, 127
2, 93360, Note_on_c, 0, 78, 110
2, 93595, Note_off_c, 0, 78, 127
2, 93599, Note_on_c, 0, 76, 110
2, 93834, Note_off_c, 0, 76, 127
2, 93840, Note_on_c, 0, 73, 110
2, 94074, Note_off_c, 0, 73, 127
2, 94080, Note_on_c, 0, 68, 110
2, 94315, Note_off_c, 0, 68, 127
2, 94319, Note_on_c, 0, 66, 110
2, 94554, Note_off_c, 0, 66, 127
2, 95039, Note_on_c, 0, 68, 110
2, 95440, Note_off_c, 0, 68, 127
2, 95520, Note_on_c, 0, 78, 110
2, 95755, Note_off_c, 0, 78, 127
2, 95759, Note_on_c, 0, 76, 110
2, 96160, Note_off_c, 0, 76, 127
2, 96239, Note_on_c, 0, 75, 110
2, 96475, Note_off_c, 0, 75, 127
2, 96479, Note_on_c, 0, 73, 110
2, 96714, Note_off_c, 0, 73, 127
2, 96720, Note_on_c, 0, 75, 110
2, 96955, Note_off_c, 0, 75, 127
2, 96959, Note_on_c, 0, 73, 110
2, 97195, Note_off_c, 0, 73, 127
2, 97199, Note_on_c, 0, 71, 110
2, 97600, Note_off_c, 0, 71, 127
2, 97679, Note_on_c, 0, 73, 110
2, 97915, Note_off_c, 0, 73, 127
2, 97919, Note_on_c, 0, 75, 110
2, 98154, Note_off_c, 0, 75, 127
2, 98160, Note_on_c, 0, 73, 110
2, 98395, Note_off_c, 0, 73, 127
2, 98399, Note_on_c, 0, 71, 110
2, 98635, Note_off_c, 0, 71, 127
2, 98639, Note_on_c, 0, 68, 110
2, 98874, Note_off_c, 0, 68, 127
2, 98880, Note_on_c, 0, 66, 110
2, 99115, Note_off_c, 0, 66, 127
2, 99119, Note_on_c, 0, 68, 110
2, 99354, Note_off_c, 0, 68, 127
2, 99360, Note_on_c, 0, 71, 110
2, 99999, Note_off_c, 0, 71, 127
2, 100080, Note_on_c, 0, 73, 110
2, 100314, Note_off_c, 0, 73, 127
2, 100320, Note_on_c, 0, 71, 110
2, 100555, Note_off_c, 0, 71, 127
2, 100559, Note_on_c, 0, 66, 110
2, 100794, Note_off_c, 0, 66, 127
2, 100800, Note_on_c, 0, 68, 110
2, 101199, Note_off_c, 0, 68, 127
2, 101279, Note_on_c, 0, 80, 110
2, 101514, Note_off_c, 0, 80, 127
2, 101520, Note_on_c, 0, 78, 110
2, 101919, Note_off_c, 0, 78, 127
2, 101999, Note_on_c, 0, 76, 110
2, 102234, Note_off_c, 0, 76, 127
2, 102240, Note_on_c, 0, 75, 110
2, 102475, Note_off_c, 0, 75, 127
2, 102479, Note_on_c, 0, 76, 110
2, 102715, Note_off_c, 0, 76, 127
2, 102719, Note_on_c, 0, 75, 110
2, 102954, Note_off_c, 0, 75, 127
2, 102960, Note_on_c, 0, 73, 110
2, 103359, Note_off_c, 0, 73, 127
2, 103439, Note_on_c, 0, 75, 110
2, 103674, Note_off_c, 0, 75, 127
2, 103680, Note_on_c, 0, 73, 110
2, 104079, Note_off_c, 0, 73, 127
2, 104159, Note_on_c, 0, 85, 110
2, 104394, Note_off_c, 0, 85, 127
2, 104400, Note_on_c, 0, 83, 110
2, 104799, Note_off_c, 0, 83, 127
2, 104880, Note_on_c, 0, 80, 110
2, 105114, Note_off_c, 0, 80, 127
2, 105120, Note_on_c, 0, 78, 110
2, 105519, Note_off_c, 0, 78, 127
2, 105600, Note_on_c, 0, 76, 110
2, 105834, Note_off_c, 0, 76, 127
2, 105840, Note_on_c, 0, 80, 110
2, 106480, Note_off_c, 0, 80, 127
2, 106560, Note_on_c, 0, 68, 110
2, 106960, Note_off_c, 0, 68, 127
2, 107040, Note_on_c, 0, 78, 110
2, 107274, Note_off_c, 0, 78, 127
2, 107279, Note_on_c, 0, 76, 110
2, 107680, Note_off_c, 0, 76, 127
2, 107760, Note_on_c, 0, 75, 110
2, 107995, Note_off_c, 0, 75, 127
2, 107999, Note_on_c, 0, 73, 110
2, 108235, Note_off_c, 0, 73, 127
2, 108239, Note_on_c, 0, 75, 110
2, 108474, Note_off_c, 0, 75, 127
2, 108480, Note_on_c, 0, 73, 110
2, 108715, Note_off_c, 0, 73, 127
2, 108719, Note_on_c, 0, 71, 110
2, 109120, Note_off_c, 0, 71, 127
2, 109200, Note_on_c, 0, 73, 110
2, 109435, Note_off_c, 0, 73, 127
2, 109439, Note_on_c, 0, 75, 110
2, 109675, Note_off_c, 0, 75, 127
2, 109679, Note_on_c, 0, 73, 110
2, 109914, Note_off_c, 0, 73, 127
2, 109920, Note_on_c, 0, 71, 110
2, 110155, Note_off_c, 0, 71, 127
2, 110159, Note_on_c, 0, 68, 110
2, 110394, Note_off_c, 0, 68, 127
2, 110400, Note_on_c, 0, 66, 110
2, 110634, Note_off_c, 0, 66, 127
2, 110640, Note_on_c, 0, 68, 110
2, 110875, Note_off_c, 0, 68, 127
2, 110879, Note_on_c, 0, 71, 110
2, 111519, Note_off_c, 0, 71, 127
2, 111599, Note_on_c, 0, 73, 110
2, 111834, Note_off_c, 0, 73, 127
2, 111840, Note_on_c, 0, 71, 110
2, 112074, Note_off_c, 0, 71, 127
2, 112080, Note_on_c, 0, 66, 110
2, 112315, Note_off_c, 0, 66, 127
2, 112319, Note_on_c, 0, 68, 110
2, 112720, Note_off_c, 0, 68, 127
2, 112799, Note_on_c, 0, 80, 110
2, 113035, Note_off_c, 0, 80, 127
2, 113039, Note_on_c, 0, 78, 110
2, 113440, Note_off_c, 0, 78, 127
2, 113519, Note_on_c, 0, 76, 110
2, 113755, Note_off_c, 0, 76, 127
2, 113759, Note_on_c, 0, 75, 110
2, 113994, Note_off_c, 0, 75, 127
2, 114000, Note_on_c, 0, 76, 110
2, 114235, Note_off_c, 0, 76, 127
2, 114239, Note_on_c, 0, 75, 110
2, 114475, Note_off_c, 0, 75, 127
2, 114479, Note_on_c, 0, 73, 110
2, 114879, Note_off_c, 0, 73, 127
2, 114959, Note_on_c, 0, 75, 110
2, 115195, Note_off_c, 0, 75, 127
2, 115199, Note_on_c, 0, 73, 110
2, 115599, Note_off_c, 0, 73, 127
2, 115679, Note_on_c, 0, 85, 110
2, 115914, Note_off_c, 0, 85, 127
2, 115920, Note_on_c, 0, 83, 110
2, 116319, Note_off_c, 0, 83, 127
2, 116399, Note_on_c, 0, 80, 110
2, 116634, Note_off_c, 0, 80, 127
2, 116640, Note_on_c, 0, 78, 110
2, 117039, Note_off_c, 0, 78, 127
2, 117119, Note_on_c, 0, 76, 110
2, 117354, Note_off_c, 0, 76, 127
2, 117360, Note_on_c, 0, 80, 110
2, 118000, Note_off_c, 0, 80, 127
2, 118800, Note_on_c, 0, 68, 110
2, 119035, Note_off_c, 0, 68, 127
2, 119039, Note_on_c, 0, 71, 110
2, 119275, Note_off_c, 0, 71, 127
2, 119279, Note_on_c, 0, 68, 110
2, 119514, Note_off_c, 0, 68, 127
2, 119520, Note_on_c, 0, 66, 110
2, 120160, Note_off_c, 0, 66, 127
2, 120240, Note_on_c, 0, 73, 110
2, 120639, Note_off_c, 0, 73, 127
2, 120719, Note_on_c, 0, 78, 110
2, 120954, Note_off_c, 0, 78, 127
2, 120960, Note_on_c, 0, 80, 110
2, 120960, Note_on_c, 0, 71, 110
2, 121600, Note_off_c, 0, 71, 127
2, 121680, Note_on_c, 0, 68, 110
2, 121915, Note_off_c, 0, 68, 127
2, 121919, Note_on_c, 0, 71, 110
2, 122154, Note_off_c, 0, 71, 127
2, 122160, Note_on_c, 0, 68, 110
2, 122394, Note_off_c, 0, 68, 127
2, 122400, Note_on_c, 0, 66, 110
2, 123040, Note_off_c, 0, 66, 127
2, 123120, Note_on_c, 0, 73, 110
2, 123520, Note_off_c, 0, 73, 127
2, 123600, Note_on_c, 0, 78, 110
2, 123834, Note_off_c, 0, 78, 127
2, 123839, Note_on_c, 0, 80, 110
2, 124480, Note_off_c, 0, 80, 127
2, 124559, Note_on_c, 0, 68, 110
2, 124795, Note_off_c, 0, 68, 127
2, 124799, Note_on_c, 0, 71, 110
2, 125034, Note_off_c, 0, 71, 127
2, 125040, Note_on_c, 0, 68, 110
2, 125275, Note_off_c, 0, 68, 127
2, 125279, Note_on_c, 0, 66, 110
2, 125919, Note_off_c, 0, 66, 127
2, 125999, Note_on_c, 0, 68, 110
2, 126235, Note_off_c, 0, 68, 127
2, 126239, Note_on_c, 0, 71, 110
2, 126474, Note_off_c, 0, 71, 127
2, 126480, Note_on_c, 0, 76, 110
2, 126715, Note_off_c, 0, 76, 127
2, 126719, Note_on_c, 0, 78, 110
2, 127120, Note_off_c, 0, 78, 127
2, 127200, Note_on_c, 0, 76, 110
2, 127840, Note_off_c, 0, 76, 127
2, 127920, Note_on_c, 0, 75, 110
2, 128155, Note_off_c, 0, 75, 127
2, 128159, Note_on_c, 0, 76, 110
2, 128394, Note_off_c, 0, 76, 127
2, 128400, Note_on_c, 0, 75, 110
2, 128634, Note_off_c, 0, 75, 127
2, 128640, Note_on_c, 0, 73, 110
2, 128875, Note_off_c, 0, 73, 127
2, 128879, Note_on_c, 0, 71, 110
2, 129280, Note_off_c, 0, 71, 127
2, 129359, Note_on_c, 0, 68, 110
2, 129595, Note_off_c, 0, 68, 127
2, 129599, Note_on_c, 0, 73, 110
2, 130239, Note_off_c, 0, 73, 127
2, 130319, Note_on_c, 0, 68, 110
2, 130554, Note_off_c, 0, 68, 127
2, 130560, Note_on_c, 0, 71, 110
2, 130795, Note_off_c, 0, 71, 127
2, 130799, Note_on_c, 0, 68, 110
2, 131035, Note_off_c, 0, 68, 127
2, 131039, Note_on_c, 0, 66, 110
2, 131679, Note_off_c, 0, 66, 127
2, 131759, Note_on_c, 0, 73, 110
2, 132159, Note_off_c, 0, 73, 127
2, 132239, Note_on_c, 0, 78, 110
2, 132474, Note_off_c, 0, 78, 127
2, 132480, Note_on_c, 0, 80, 110
2, 132480, Note_on_c, 0, 71, 110
2, 133119, Note_off_c, 0, 71, 127
2, 133200, Note_on_c, 0, 68, 110
2, 133434, Note_off_c, 0, 68, 127
2, 133440, Note_on_c, 0, 71, 110
2, 133675, Note_off_c, 0, 71, 127
2, 133679, Note_on_c, 0, 68, 110
2, 133914, Note_off_c, 0, 68, 127
2, 133920, Note_on_c, 0, 66, 110
2, 134560, Note_off_c, 0, 66, 127
2, 134640, Note_on_c, 0, 73, 110
2, 135039, Note_off_c, 0, 73, 127
2, 135119, Note_on_c, 0, 78, 110
2, 135354, Note_off_c, 0, 78, 127
2, 135360, Note_on_c, 0, 80, 110
2, 136000, Note_off_c, 0, 80, 127
2, 136080, Note_on_c, 0, 68, 110
2, 136315, Note_off_c, 0, 68, 127
2, 136319, Note_on_c, 0, 66, 110
2, 136555, Note_off_c, 0, 66, 127
2, 136559, Note_on_c, 0, 68, 110
2, 137035, Note_off_c, 0, 68, 127
2, 137039, Note_on_c, 0, 68, 110
2, 137275, Note_off_c, 0, 68, 127
2, 137279, Note_on_c, 0, 73, 110
2, 137514, Note_off_c, 0, 73, 127
2, 137520, Note_on_c, 0, 68, 110
2, 137755, Note_off_c, 0, 68, 127
2, 137759, Note_on_c, 0, 73, 110
2, 137994, Note_off_c, 0, 73, 127
2, 138000, Note_on_c, 0, 80, 110
2, 138234, Note_off_c, 0, 80, 127
2, 138960, Note_on_c, 0, 92, 110
2, 138960, Note_on_c, 0, 81, 110
2, 139195, Note_off_c, 0, 81, 127
2, 139199, Note_on_c, 0, 90, 110
2, 139434, Note_off_c, 0, 90, 127
2, 139440, Note_on_c, 0, 92, 110
2, 139674, Note_off_c, 0, 92, 127
2, 139680, Note_on_c, 0, 95, 110
2, 139915, Note_off_c, 0, 95, 127
2, 139919, Note_on_c, 0, 92, 110
2, 140154, Note_off_c, 0, 92, 127
2, 140160, Note_on_c, 0, 85, 110
2, 140394, Note_off_c, 0, 85, 127
2, 140399, Note_on_c, 0, 83, 110
2, 141040, Note_off_c, 0, 83, 127
2, 141119, Note_on_c, 0, 80, 110
2, 141520, Note_off_c, 0, 80, 127
2, 141600, Note_on_c, 0, 90, 110
2, 141835, Note_off_c, 0, 90, 127
2, 141839, Note_on_c, 0, 88, 110
2, 142240, Note_off_c, 0, 88, 127
2, 142320, Note_on_c, 0, 87, 110
2, 142555, Note_off_c, 0, 87, 127
2, 142559, Note_on_c, 0, 85, 110
2, 142795, Note_off_c, 0, 85, 127
2, 142799, Note_on_c, 0, 87, 110
2, 143034, Note_off_c, 0, 87, 127
2, 143040, Note_on_c, 0, 85, 110
2, 143275, Note_off_c, 0, 85, 127
2, 143279, Note_on_c, 0, 83, 110
2, 143680, Note_off_c, 0, 83, 127
2, 143760, Note_on_c, 0, 85, 110
2, 143995, Note_off_c, 0, 85, 127
2, 143999, Note_on_c, 0, 87, 110
2, 144234, Note_off_c, 0, 87, 127
2, 144240, Note_on_c, 0, 85, 110
2, 144474, Note_off_c, 0, 85, 127
2, 144480, Note_on_c, 0, 83, 110
2, 144715, Note_off_c, 0, 83, 127
2, 144719, Note_on_c, 0, 80, 110
2, 144954, Note_off_c, 0, 80, 127
2, 144960, Note_on_c, 0, 78, 110
2, 145194, Note_off_c, 0, 78, 127
2, 145200, Note_on_c, 0, 80, 110
2, 145435, Note_off_c, 0, 80, 127
2, 145439, Note_on_c, 0, 83, 110
2, 146079, Note_off_c, 0, 83, 127
2, 146159, Note_on_c, 0, 85, 110
2, 146394, Note_off_c, 0, 85, 127
2, 146400, Note_on_c, 0, 83, 110
2, 146635, Note_off_c, 0, 83, 127
2, 146639, Note_on_c, 0, 78, 110
2, 146875, Note_off_c, 0, 78, 127
2, 146879, Note_on_c, 0, 80, 110
2, 147280, Note_off_c, 0, 80, 127
2, 147359, Note_on_c, 0, 92, 110
2, 147595, Note_off_c, 0, 92, 127
2, 147599, Note_on_c, 0, 90, 110
2, 147999, Note_off_c, 0, 90, 127
2, 148079, Note_on_c, 0, 88, 110
2, 148315, Note_off_c, 0, 88, 127
2, 148319, Note_on_c, 0, 87, 110
2, 148554, Note_off_c, 0, 87, 127
2, 148560, Note_on_c, 0, 88, 110
2, 148795, Note_off_c, 0, 88, 127
2, 148799, Note_on_c, 0, 87, 110
2, 149034, Note_off_c, 0, 87, 127
2, 149040, Note_on_c, 0, 85, 110
2, 149439, Note_off_c, 0, 85, 127
2, 149519, Note_on_c, 0, 87, 110
2, 149754, Note_off_c, 0, 87, 127
2, 149760, Note_on_c, 0, 85, 110
2, 150159, Note_off_c, 0, 85, 127
2, 150239, Note_on_c, 0, 97, 110
2, 150474, Note_off_c, 0, 97, 127
2, 150480, Note_on_c, 0, 95, 110
2, 150879, Note_off_c, 0, 95, 127
2, 150959, Note_on_c, 0, 92, 110
2, 151194, Note_off_c, 0, 92, 127
2, 151200, Note_on_c, 0, 90, 110
2, 151599, Note_off_c, 0, 90, 127
2, 151679, Note_on_c, 0, 88, 110
2, 151914, Note_off_c, 0, 88, 127
2, 151920, Note_on_c, 0, 92, 110
2, 152560, Note_off_c, 0, 92, 127
2, 152640, Note_on_c, 0, 80, 110
2, 153039, Note_off_c, 0, 80, 127
2, 153119, Note_on_c, 0, 90, 110
2, 153354, Note_off_c, 0, 90, 127
2, 153360, Note_on_c, 0, 88, 110
2, 153759, Note_off_c, 0, 88, 127
2, 153839, Note_on_c, 0, 87, 110
2, 154074, Note_off_c, 0, 87, 127
2, 154080, Note_on_c, 0, 85, 110
2, 154315, Note_off_c, 0, 85, 127
2, 154319, Note_on_c, 0, 87, 110
2, 154554, Note_off_c, 0, 87, 127
2, 154560, Note_on_c, 0, 85, 110
2, 154794, Note_off_c, 0, 85, 127
2, 154800, Note_on_c, 0, 83, 110
2, 155199, Note_off_c, 0, 83, 127
2, 155280, Note_on_c, 0, 85, 110
2, 155514, Note_off_c, 0, 85, 127
2, 155520, Note_on_c, 0, 87, 110
2, 155755, Note_off_c, 0, 87, 127
2, 155759, Note_on_c, 0, 85, 110
2, 155994, Note_off_c, 0, 85, 127
2, 156000, Note_on_c, 0, 83, 110
2, 156234, Note_off_c, 0, 83, 127
2, 156240, Note_on_c, 0, 80, 110
2, 156475, Note_off_c, 0, 80, 127
2, 156479, Note_on_c, 0, 78, 110
2, 156714, Note_off_c, 0, 78, 127
2, 156720, Note_on_c, 0, 80, 110
2, 156954, Note_off_c, 0, 80, 127
2, 156959, Note_on_c, 0, 83, 110
2, 157600, Note_off_c, 0, 83, 127
2, 157679, Note_on_c, 0, 85, 110
2, 157915, Note_off_c, 0, 85, 127
2, 157919, Note_on_c, 0, 83, 110
2, 158154, Note_off_c, 0, 83, 127
2, 158160, Note_on_c, 0, 78, 110
2, 158395, Note_off_c, 0, 78, 127
2, 158399, Note_on_c, 0, 80, 110
2, 158800, Note_off_c, 0, 80, 127
2, 158880, Note_on_c, 0, 92, 110
2, 159115, Note_off_c, 0, 92, 127
2, 159119, Note_on_c, 0, 90, 110
2, 159520, Note_off_c, 0, 90, 127
2, 159600, Note_on_c, 0, 88, 110
2, 159835, Note_off_c, 0, 88, 127
2, 159839, Note_on_c, 0, 87, 110
2, 160074, Note_off_c, 0, 87, 127
2, 160080, Note_on_c, 0, 88, 110
2, 160314, Note_off_c, 0, 88, 127
2, 160320, Note_on_c, 0, 87, 110
2, 160555, Note_off_c, 0, 87, 127
2, 160559, Note_on_c, 0, 85, 110
2, 160960, Note_off_c, 0, 85, 127
2, 161040, Note_on_c, 0, 87, 110
2, 161275, Note_off_c, 0, 87, 127
2, 161279, Note_on_c, 0, 85, 110
2, 161680, Note_off_c, 0, 85, 127
2, 161760, Note_on_c, 0, 97, 110
2, 161995, Note_off_c, 0, 97, 127
2, 161999, Note_on_c, 0, 95, 110
2, 162400, Note_off_c, 0, 95, 127
2, 162479, Note_on_c, 0, 92, 110
2, 162715, Note_off_c, 0, 92, 127
2, 162719, Note_on_c, 0, 90, 110
2, 163120, Note_off_c, 0, 90, 127
2, 163199, Note_on_c, 0, 88, 110
2, 163435, Note_off_c, 0, 88, 127
2, 163439, Note_on_c, 0, 92, 110
2, 164079, Note_off_c, 0, 92, 127
2, 164879, Note_on_c, 0, 73, 110
2, 164879, Note_on_c, 0, 80, 110
2, 165114, Note_off_c, 0, 73, 127
2, 165120, Note_on_c, 0, 83, 110
2, 165355, Note_off_c, 0, 83, 127
2, 165359, Note_on_c, 0, 80, 110
2, 165594, Note_off_c, 0, 80, 127
2, 165600, Note_on_c, 0, 78, 110
2, 165999, Note_off_c, 0, 78, 127
2, 166079, Note_on_c, 0, 76, 110
2, 166314, Note_off_c, 0, 76, 127
2, 166320, Note_on_c, 0, 85, 110
2, 166719, Note_off_c, 0, 85, 127
2, 166799, Note_on_c, 0, 90, 110
2, 167034, Note_off_c, 0, 90, 127
2, 167040, Note_on_c, 0, 92, 110
2, 167040, Note_on_c, 0, 83, 110
2, 167680, Note_off_c, 0, 83, 127
2, 167760, Note_on_c, 0, 73, 110
2, 167760, Note_on_c, 0, 80, 110
2, 167994, Note_off_c, 0, 73, 127
2, 167999, Note_on_c, 0, 83, 110
2, 168235, Note_off_c, 0, 83, 127
2, 168239, Note_on_c, 0, 80, 110
2, 168474, Note_off_c, 0, 80, 127
2, 168480, Note_on_c, 0, 78, 110
2, 168879, Note_off_c, 0, 78, 127
2, 168959, Note_on_c, 0, 76, 110
2, 169194, Note_off_c, 0, 76, 127
2, 169200, Note_on_c, 0, 85, 110
2, 169599, Note_off_c, 0, 85, 127
2, 169679, Note_on_c, 0, 90, 110
2, 169914, Note_off_c, 0, 90, 127
2, 169920, Note_on_c, 0, 92, 110
2, 170560, Note_off_c, 0, 92, 127
2, 170640, Note_on_c, 0, 73, 110
2, 170640, Note_on_c, 0, 80, 110
2, 170875, Note_off_c, 0, 73, 127
2, 170879, Note_on_c, 0, 83, 110
2, 171114, Note_off_c, 0, 83, 127
2, 171120, Note_on_c, 0, 80, 110
2, 171354, Note_off_c, 0, 80, 127
2, 171360, Note_on_c, 0, 78, 110
2, 171759, Note_off_c, 0, 78, 127
2, 171840, Note_on_c, 0, 76, 110
2, 172074, Note_off_c, 0, 76, 127
2, 172080, Note_on_c, 0, 80, 110
2, 172315, Note_off_c, 0, 80, 127
2, 172319, Note_on_c, 0, 83, 110
2, 172554, Note_off_c, 0, 83, 127
2, 172560, Note_on_c, 0, 87, 110
2, 172794, Note_off_c, 0, 87, 127
2, 172800, Note_on_c, 0, 90, 110
2, 173200, Note_off_c, 0, 90, 127
2, 173280, Note_on_c, 0, 88, 110
2, 173755, Note_off_c, 0, 88, 127
2, 173759, Note_on_c, 0, 87, 110
2, 173994, Note_off_c, 0, 87, 127
2, 174000, Note_on_c, 0, 88, 110
2, 174235, Note_off_c, 0, 88, 127
2, 174239, Note_on_c, 0, 87, 110
2, 174475, Note_off_c, 0, 87, 127
2, 174479, Note_on_c, 0, 85, 110
2, 174714, Note_off_c, 0, 85, 127
2, 174720, Note_on_c, 0, 83, 110
2, 174955, Note_off_c, 0, 83, 127
2, 174959, Note_on_c, 0, 83, 110
2, 175360, Note_off_c, 0, 83, 127
2, 175440, Note_on_c, 0, 80, 110
2, 175675, Note_off_c, 0, 80, 127
2, 175679, Note_on_c, 0, 85, 110
2, 176319, Note_off_c, 0, 85, 127
2, 176399, Note_on_c, 0, 68, 110
2, 176634, Note_off_c, 0, 68, 127
2, 176640, Note_on_c, 0, 71, 110
2, 176874, Note_off_c, 0, 71, 127
2, 176880, Note_on_c, 0, 68, 110
2, 177115, Note_off_c, 0, 68, 127
2, 177119, Note_on_c, 0, 66, 110
2, 177759, Note_off_c, 0, 66, 127
2, 177839, Note_on_c, 0, 73, 110
2, 178240, Note_off_c, 0, 73, 127
2, 178320, Note_on_c, 0, 78, 110
2, 178555, Note_off_c, 0, 78, 127
2, 178559, Note_on_c, 0, 71, 110
2, 178559, Note_on_c, 0, 80, 110
2, 179199, Note_off_c, 0, 71, 127
2, 179279, Note_on_c, 0, 68, 110
2, 179514, Note_off_c, 0, 68, 127
2, 179520, Note_on_c, 0, 71, 110
2, 179755, Note_off_c, 0, 71, 127
2, 179759, Note_on_c, 0, 68, 110
2, 179995, Note_off_c, 0, 68, 127
2, 179999, Note_on_c, 0, 66, 110
2, 180639, Note_off_c, 0, 66, 127
2, 180719, Note_on_c, 0, 73, 110
2, 181119, Note_off_c, 0, 73, 127
2, 181199, Note_on_c, 0, 78, 110
2, 181435, Note_off_c, 0, 78, 127
2, 181439, Note_on_c, 0, 80, 110
2, 182079, Note_off_c, 0, 80, 127
2, 182160, Note_on_c, 0, 68, 110
2, 182394, Note_off_c, 0, 68, 127
2, 182400, Note_on_c, 0, 66, 110
2, 182635, Note_off_c, 0, 66, 127
2, 182639, Note_on_c, 0, 68, 110
2, 182874, Note_off_c, 0, 68, 127
2, 183120, Note_on_c, 0, 68, 110
2, 183355, Note_off_c, 0, 68, 127
2, 183359, Note_on_c, 0, 73, 110
2, 183594, Note_off_c, 0, 73, 127
2, 183600, Note_on_c, 0, 68, 110
2, 183834, Note_off_c, 0, 68, 127
2, 183840, Note_on_c, 0, 73, 110
2, 184075, Note_off_c, 0, 73, 127
2, 184079, Note_on_c, 0, 80, 110
2, 184314, Note_off_c, 0, 80, 127
2, 185040, Note_on_c, 0, 81, 110
2, 185040, Note_on_c, 0, 92, 110
2, 185275, Note_off_c, 0, 81, 127
2, 185279, Note_on_c, 0, 90, 110
2, 185515, Note_off_c, 0, 90, 127
2, 185519, Note_on_c, 0, 92, 110
2, 185754, Note_off_c, 0, 92, 127
2, 185760, Note_on_c, 0, 95, 110
2, 185995, Note_off_c, 0, 95, 127
2, 185999, Note_on_c, 0, 92, 110
2, 186235, Note_off_c, 0, 92, 127
2, 186239, Note_on_c, 0, 85, 110
2, 186474, Note_off_c, 0, 85, 127
2, 186480, Note_on_c, 0, 83, 110
2, 187120, Note_off_c, 0, 83, 127
2, 187200, Note_on_c, 0, 71, 110
2, 188394, Note_off_c, 0, 71, 127
2, 188400, Note_on_c, 0, 85, 110
2, 188400, Note_on_c, 0, 76, 110
2, 188634, Note_off_c, 0, 76, 127
2, 188640, Note_on_c, 0, 83, 110
2, 189834, Note_off_c, 0, 83, 127
2, 189840, Note_on_c, 0, 80, 110
2, 189840, Note_on_c, 0, 71, 110
2, 190074, Note_off_c, 0, 71, 127
2, 190079, Note_on_c, 0, 78, 110
2, 191274, Note_off_c, 0, 78, 127
2, 191280, Note_on_c, 0, 68, 110
2, 191280, Note_on_c, 0, 76, 110
2, 191515, Note_off_c, 0, 68, 127
2, 191519, Note_on_c, 0, 71, 110
2, 192714, Note_off_c, 0, 71, 127
2, 192720, Note_on_c, 0, 66, 110
2, 192955, Note_off_c, 0, 66, 127
2, 192959, Note_on_c, 0, 71, 110
2, 194154, Note_off_c, 0, 71, 127
2, 194160, Note_on_c, 0, 78, 110
2, 194160, Note_on_c, 0, 85, 110
2, 194395, Note_off_c, 0, 78, 127
2, 194399, Note_on_c, 0, 83, 110
2, 194399, Note_on_c, 0, 76, 110
2, 195039, Note_off_c, 0, 76, 127
2, 195119, Note_on_c, 0, 80, 110
2, 195655, Note_off_c, 0, 80, 127
2, 195659, Note_on_c, 0, 80, 110
2, 195715, Note_off_c, 0, 80, 127
2, 195719, Note_on_c, 0, 81, 110
2, 195835, Note_off_c, 0, 81, 127
2, 195839, Note_on_c, 0, 80, 110
2, 196074, Note_off_c, 0, 80, 127
2, 196080, Note_on_c, 0, 78, 110
2, 196315, Note_off_c, 0, 78, 127
2, 196319, Note_on_c, 0, 76, 110
2, 196555, Note_off_c, 0, 76, 127
2, 196559, Note_on_c, 0, 75, 110
2, 196794, Note_off_c, 0, 75, 127
2, 196800, Note_on_c, 0, 76, 110
2, 197035, Note_off_c, 0, 76, 127
2, 197039, Note_on_c, 0, 78, 110
2, 197275, Note_off_c, 0, 78, 127
2, 197279, Note_on_c, 0, 80, 110
2, 198475, Note_off_c, 0, 80, 127
2, 198479, Note_on_c, 0, 66, 110
2, 198714, Note_off_c, 0, 66, 127
2, 198720, Note_on_c, 0, 71, 110
2, 199915, Note_off_c, 0, 71, 127
2, 199919, Note_on_c, 0, 76, 110
2, 199919, Note_on_c, 0, 85, 110
2, 200154, Note_off_c, 0, 76, 127
2, 200160, Note_on_c, 0, 83, 110
2, 201355, Note_off_c, 0, 83, 127
2, 201359, Note_on_c, 0, 71, 110
2, 201359, Note_on_c, 0, 80, 110
2, 201594, Note_off_c, 0, 71, 127
2, 201600, Note_on_c, 0, 78, 110
2, 201600, Note_on_c, 0, 71, 110
2, 202795, Note_off_c, 0, 71, 127
2, 202799, Note_on_c, 0, 76, 110
2, 203034, Note_off_c, 0, 76, 127
2, 203040, Note_on_c, 0, 66, 110
2, 203040, Note_on_c, 0, 71, 110
2, 203680, Note_off_c, 0, 66, 127
2, 204240, Note_on_c, 0, 66, 110
2, 204474, Note_off_c, 0, 66, 127
2, 204480, Note_on_c, 0, 71, 110
2, 204480, Note_on_c, 0, 69, 110
2, 205674, Note_off_c, 0, 69, 127
2, 205680, Note_on_c, 0, 78, 110
2, 205680, Note_on_c, 0, 85, 110
2, 205914, Note_off_c, 0, 78, 127
2, 205920, Note_on_c, 0, 76, 110
2, 205920, Note_on_c, 0, 83, 110
2, 207114, Note_off_c, 0, 76, 127
2, 207120, Note_on_c, 0, 80, 110
2, 207355, Note_off_c, 0, 80, 127
2, 207359, Note_on_c, 0, 78, 110
2, 207359, Note_on_c, 0, 73, 110
2, 208554, Note_off_c, 0, 73, 127
2, 208560, Note_on_c, 0, 76, 110
2, 208795, Note_off_c, 0, 76, 127
2, 208799, Note_on_c, 0, 80, 110
2, 208799, Note_on_c, 0, 75, 110
2, 210119, Note_off_c, 0, 75, 127
2, 210959, Note_on_c, 0, 71, 110
2, 211194, Note_off_c, 0, 71, 127
2, 211200, Note_on_c, 0, 69, 110
2, 211434, Note_off_c, 0, 69, 127
2, 211440, Note_on_c, 0, 67, 110
2, 211675, Note_off_c, 0, 67, 127
2, 211739, Note_on_c, 0, 66, 110
2, 211914, Note_off_c, 0, 66, 127
2, 211920, Note_on_c, 0, 67, 110
2, 212034, Note_off_c, 0, 67, 127
2, 212040, Note_on_c, 0, 66, 110
2, 212395, Note_off_c, 0, 66, 127
2, 212399, Note_on_c, 0, 66, 110
2, 212634, Note_off_c, 0, 66, 127
2, 212640, Note_on_c, 0, 67, 110
2, 212875, Note_off_c, 0, 67, 127
2, 212879, Note_on_c, 0, 69, 110
2, 213115, Note_off_c, 0, 69, 127
2, 213119, Note_on_c, 0, 71, 110
2, 213354, Note_off_c, 0, 71, 127
2, 213360, Note_on_c, 0, 72, 110
2, 213595, Note_off_c, 0, 72, 127
2, 213599, Note_on_c, 0, 76, 110
2, 213835, Note_off_c, 0, 76, 127
2, 213839, Note_on_c, 0, 83, 110
2, 214074, Note_off_c, 0, 83, 127
2, 214080, Note_on_c, 0, 81, 110
2, 214315, Note_off_c, 0, 81, 127
2, 214319, Note_on_c, 0, 79, 110
2, 214555, Note_off_c, 0, 79, 127
2, 214620, Note_on_c, 0, 78, 110
2, 214794, Note_off_c, 0, 78, 127
2, 214800, Note_on_c, 0, 79, 110
2, 214914, Note_off_c, 0, 79, 127
2, 214919, Note_on_c, 0, 78, 110
2, 215035, Note_off_c, 0, 78, 127
2, 215039, Note_on_c, 0, 76, 110
2, 215274, Note_off_c, 0, 76, 127
2, 215280, Note_on_c, 0, 78, 110
2, 215514, Note_off_c, 0, 78, 127
2, 215520, Note_on_c, 0, 79, 110
2, 215755, Note_off_c, 0, 79, 127
2, 215759, Note_on_c, 0, 81, 110
2, 215994, Note_off_c, 0, 81, 127
2, 216000, Note_on_c, 0, 71, 110
2, 216000, Note_on_c, 0, 76, 110
2, 216054, Note_off_c, 0, 71, 127
2, 216060, Note_on_c, 0, 83, 110
2, 216475, Note_off_c, 0, 83, 127
2, 216479, Note_on_c, 0, 81, 110
2, 216714, Note_off_c, 0, 81, 127
2, 216720, Note_on_c, 0, 76, 110
2, 216954, Note_off_c, 0, 76, 127
2, 216960, Note_on_c, 0, 71, 110
2, 217195, Note_off_c, 0, 71, 127
2, 217199, Note_on_c, 0, 69, 110
2, 217434, Note_off_c, 0, 69, 127
2, 217440, Note_on_c, 0, 72, 110
2, 217440, Note_on_c, 0, 67, 110
2, 217494, Note_off_c, 0, 67, 127
2, 217500, Note_on_c, 0, 79, 110
2, 217915, Note_off_c, 0, 79, 127
2, 217919, Note_on_c, 0, 78, 110
2, 218154, Note_off_c, 0, 78, 127
2, 218160, Note_on_c, 0, 76, 110
2, 218395, Note_off_c, 0, 76, 127
2, 218399, Note_on_c, 0, 71, 110
2, 218635, Note_off_c, 0, 71, 127
2, 218639, Note_on_c, 0, 69, 110
2, 218874, Note_off_c, 0, 69, 127
2, 220559, Note_on_c, 0, 66, 110
2, 220559, Note_on_c, 0, 69, 110
2, 220960, Note_off_c, 0, 66, 127
2, 221040, Note_on_c, 0, 71, 110
2, 221040, Note_on_c, 0, 73, 110
2, 221040, Note_on_c, 0, 69, 110
2, 221275, Note_off_c, 0, 69, 127
2, 221279, Note_on_c, 0, 66, 110
2, 221514, Note_off_c, 0, 66, 127
2, 221520, Note_on_c, 0, 71, 110
2, 221520, Note_on_c, 0, 73, 110
2, 221520, Note_on_c, 0, 76, 110
2, 222400, Note_off_c, 0, 71, 127
2, 222480, Note_on_c, 0, 73, 110
2, 222480, Note_on_c, 0, 69, 110
2, 222880, Note_off_c, 0, 69, 127
2, 222960, Note_on_c, 0, 71, 110
2, 223194, Note_off_c, 0, 71, 127
2, 223199, Note_on_c, 0, 69, 110
2, 223435, Note_off_c, 0, 69, 127
2, 223439, Note_on_c, 0, 76, 110
2, 223439, Note_on_c, 0, 81, 110
2, 223439, Note_on_c, 0, 78, 110
2, 223674, Note_off_c, 0, 76, 127
2, 223680, Note_on_c, 0, 73, 110
2, 223915, Note_off_c, 0, 73, 127
2, 223919, Note_on_c, 0, 83, 110
2, 223919, Note_on_c, 0, 81, 110
2, 223919, Note_on_c, 0, 85, 110
2, 224155, Note_off_c, 0, 81, 127
2, 224159, Note_on_c, 0, 78, 110
2, 224394, Note_off_c, 0, 78, 127
2, 224400, Note_on_c, 0, 88, 110
2, 225279, Note_off_c, 0, 88, 127
2, 225959, Note_on_c, 0, 69, 110
2, 226075, Note_off_c, 0, 69, 127
2, 226199, Note_on_c, 0, 66, 110
2, 226314, Note_off_c, 0, 66, 127
2, 226320, Note_on_c, 0, 69, 110
2, 226434, Note_off_c, 0, 69, 127
2, 226440, Note_on_c, 0, 73, 110
2, 226554, Note_off_c, 0, 73, 127
2, 226560, Note_on_c, 0, 76, 110
2, 226675, Note_off_c, 0, 76, 127
2, 226679, Note_on_c, 0, 81, 110
2, 226795, Note_off_c, 0, 81, 127
2, 226799, Note_on_c, 0, 71, 110
2, 226915, Note_off_c, 0, 71, 127
2, 226919, Note_on_c, 0, 78, 110
2, 227034, Note_off_c, 0, 78, 127
2, 227040, Note_on_c, 0, 81, 110
2, 227154, Note_off_c, 0, 81, 127
2, 227160, Note_on_c, 0, 85, 110
2, 227274, Note_off_c, 0, 85, 127
2, 227280, Note_on_c, 0, 88, 110
2, 227395, Note_off_c, 0, 88, 127
2, 227399, Note_on_c, 0, 93, 110
2, 227515, Note_off_c, 0, 93, 127
2, 227519, Note_on_c, 0, 92, 110
2, 227754, Note_off_c, 0, 92, 127
2, 227760, Note_on_c, 0, 90, 110
2, 227874, Note_off_c, 0, 90, 127
2, 227880, Note_on_c, 0, 92, 110
2, 227994, Note_off_c, 0, 92, 127
2, 228000, Note_on_c, 0, 90, 110
2, 228235, Note_off_c, 0, 90, 127
2, 228239, Note_on_c, 0, 88, 110
2, 228474, Note_off_c, 0, 88, 127
2, 228480, Note_on_c, 0, 85, 110
2, 228714, Note_off_c, 0, 85, 127
2, 228719, Note_on_c, 0, 83, 110
2, 228955, Note_off_c, 0, 83, 127
2, 228959, Note_on_c, 0, 80, 110
2, 229194, Note_off_c, 0, 80, 127
2, 229200, Note_on_c, 0, 78, 110
2, 229435, Note_off_c, 0, 78, 127
2, 229439, Note_on_c, 0, 76, 110
2, 229675, Note_off_c, 0, 76, 127
2, 229679, Note_on_c, 0, 73, 110
2, 229914, Note_off_c, 0, 73, 127
2, 229920, Note_on_c, 0, 71, 110
2, 230155, Note_off_c, 0, 71, 127
2, 230159, Note_on_c, 0, 66, 110
2, 230395, Note_off_c, 0, 66, 127
2, 230399, Note_on_c, 0, 88, 110
2, 230634, Note_off_c, 0, 88, 127
2, 230640, Note_on_c, 0, 85, 110
2, 230875, Note_off_c, 0, 85, 127
2, 230879, Note_on_c, 0, 80, 110
2, 231115, Note_off_c, 0, 80, 127
2, 231119, Note_on_c, 0, 78, 110
2, 231354, Note_off_c, 0, 78, 127
2, 231360, Note_on_c, 0, 80, 110
2, 231595, Note_off_c, 0, 80, 127
2, 231599, Note_on_c, 0, 76, 110
2, 231834, Note_off_c, 0, 76, 127
2, 231840, Note_on_c, 0, 71, 110
2, 231840, Note_on_c, 0, 73, 110
2, 231840, Note_on_c, 0, 69, 110
2, 232074, Note_off_c, 0, 69, 127
2, 232080, Note_on_c, 0, 78, 110
2, 232315, Note_off_c, 0, 78, 127
2, 232319, Note_on_c, 0, 73, 110
2, 232554, Note_off_c, 0, 73, 127
2, 232560, Note_on_c, 0, 71, 110
2, 232794, Note_off_c, 0, 71, 127
2, 232800, Note_on_c, 0, 66, 110
2, 233035, Note_off_c, 0, 66, 127
2, 233039, Note_on_c, 0, 68, 110
2, 233274, Note_off_c, 0, 68, 127
2, 233280, Note_on_c, 0, 76, 110
2, 233514, Note_off_c, 0, 76, 127
2, 233520, Note_on_c, 0, 73, 110
2, 233755, Note_off_c, 0, 73, 127
2, 233759, Note_on_c, 0, 68, 110
2, 233994, Note_off_c, 0, 68, 127
2, 234000, Note_on_c, 0, 66, 110
2, 234234, Note_off_c, 0, 66, 127
2, 234239, Note_on_c, 0, 68, 110
2, 234955, Note_off_c, 0, 68, 127
2, 234959, Note_on_c, 0, 66, 110
2, 236080, Note_off_c, 0, 66, 127
2, 238080, Note_on_c, 0, 66, 110
2, 238314, Note_off_c, 0, 66, 127
2, 238320, Note_on_c, 0, 71, 110
2, 238555, Note_off_c, 0, 71, 127
2, 238559, Note_on_c, 0, 76, 110
2, 238794, Note_off_c, 0, 76, 127
2, 238800, Note_on_c, 0, 78, 110
2, 239034, Note_off_c, 0, 78, 127
2, 239040, Note_on_c, 0, 81, 110
2, 239040, Note_on_c, 0, 71, 110
2, 239040, Note_on_c, 0, 76, 110
2, 239275, Note_off_c, 0, 71, 127
2, 239279, Note_on_c, 0, 76, 110
2, 239514, Note_off_c, 0, 76, 127
2, 239520, Note_on_c, 0, 71, 110
2, 239754, Note_off_c, 0, 71, 127
2, 240240, Note_on_c, 0, 71, 110
2, 240475, Note_off_c, 0, 71, 127
2, 240479, Note_on_c, 0, 69, 110
2, 241120, Note_off_c, 0, 69, 127
2, 241439, Note_on_c, 0, 69, 110
2, 241494, Note_off_c, 0, 69, 127
2, 241500, Note_on_c, 0, 76, 110
2, 241614, Note_off_c, 0, 76, 127
2, 241620, Note_on_c, 0, 78, 110
2, 241674, Note_off_c, 0, 78, 127
2, 241680, Note_on_c, 0, 81, 110
2, 241915, Note_off_c, 0, 81, 127
2, 241919, Note_on_c, 0, 88, 110
2, 242559, Note_off_c, 0, 88, 127
2, 244799, End_track
3, 0, Start_track
3, 0, Title_t, "Track 1-2"
3, 13920, Note_on_c, 2, 64, 110
3, 13920, Control_c, 2, 91, 0
3, 13920, Control_c, 2, 7, 127
3, 13920, Control_c, 2, 93, 0
3, 13920, Control_c, 2, 10, 64
3, 13920, Control_c, 2, 121, 0
3, 13920, Program_c, 2, 0
3, 13920, Control_c, 2, 32, 0
3, 13920, Control_c, 2, 0, 0
3, 14155, Note_off_c, 2, 64, 127
3, 14159, Note_on_c, 2, 59, 110
3, 14395, Note_off_c, 2, 59, 127
3, 38160, Note_on_c, 2, 61, 110
3, 39354, Note_off_c, 2, 61, 127
3, 39360, Note_on_c, 2, 64, 110
3, 39594, Note_off_c, 2, 64, 127
3, 41039, Note_on_c, 2, 61, 110
3, 42234, Note_off_c, 2, 61, 127
3, 42240, Note_on_c, 2, 64, 110
3, 42475, Note_off_c, 2, 64, 127
3, 43919, Note_on_c, 2, 61, 110
3, 45114, Note_off_c, 2, 61, 127
3, 45120, Note_on_c, 2, 64, 110
3, 45999, Note_off_c, 2, 64, 127
3, 49680, Note_on_c, 2, 61, 110
3, 50875, Note_off_c, 2, 61, 127
3, 50879, Note_on_c, 2, 64, 110
3, 51174, Note_off_c, 2, 64, 127
3, 52560, Note_on_c, 2, 61, 110
3, 53755, Note_off_c, 2, 61, 127
3, 53759, Note_on_c, 2, 64, 110
3, 54054, Note_off_c, 2, 64, 127
3, 55440, Note_on_c, 2, 61, 110
3, 55440, Note_on_c, 2, 57, 110
3, 56080, Note_off_c, 2, 57, 127
3, 56160, Note_on_c, 2, 61, 110
3, 57480, Note_off_c, 2, 61, 127
3, 60479, Note_on_c, 2, 64, 110
3, 61799, Note_off_c, 2, 64, 127
3, 65760, Note_on_c, 2, 64, 110
3, 66159, Note_off_c, 2, 64, 127
3, 66240, Note_on_c, 2, 64, 110
3, 67559, Note_off_c, 2, 64, 127
3, 71280, Note_on_c, 2, 63, 110
3, 71515, Note_off_c, 2, 63, 127
3, 71519, Note_on_c, 2, 64, 110
3, 71920, Note_off_c, 2, 64, 127
3, 72000, Note_on_c, 2, 64, 110
3, 73320, Note_off_c, 2, 64, 127
3, 76800, Note_on_c, 2, 64, 110
3, 77035, Note_off_c, 2, 64, 127
3, 77039, Note_on_c, 2, 63, 110
3, 77274, Note_off_c, 2, 63, 127
3, 77280, Note_on_c, 2, 64, 110
3, 77679, Note_off_c, 2, 64, 127
3, 77759, Note_on_c, 2, 64, 110
3, 79079, Note_off_c, 2, 64, 127
3, 94560, Note_on_c, 2, 64, 110
3, 94794, Note_off_c, 2, 64, 127
3, 94800, Note_on_c, 2, 59, 110
3, 95035, Note_off_c, 2, 59, 127
3, 118800, Note_on_c, 2, 61, 110
3, 119995, Note_off_c, 2, 61, 127
3, 119999, Note_on_c, 2, 64, 110
3, 120234, Note_off_c, 2, 64, 127
3, 121680, Note_on_c, 2, 61, 110
3, 122874, Note_off_c, 2, 61, 127
3, 122880, Note_on_c, 2, 64, 110
3, 123114, Note_off_c, 2, 64, 127
3, 124559, Note_on_c, 2, 61, 110
3, 125754, Note_off_c, 2, 61, 127
3, 125760, Note_on_c, 2, 64, 110
3, 126639, Note_off_c, 2, 64, 127
3, 130319, Note_on_c, 2, 61, 110
3, 131515, Note_off_c, 2, 61, 127
3, 131519, Note_on_c, 2, 64, 110
3, 131814, Note_off_c, 2, 64, 127
3, 133200, Note_on_c, 2, 61, 110
3, 134395, Note_off_c, 2, 61, 127
3, 134399, Note_on_c, 2, 64, 110
3, 134694, Note_off_c, 2, 64, 127
3, 136080, Note_on_c, 2, 61, 110
3, 136080, Note_on_c, 2, 57, 110
3, 136720, Note_off_c, 2, 57, 127
3, 136800, Note_on_c, 2, 61, 110
3, 138120, Note_off_c, 2, 61, 127
3, 176399, Note_on_c, 2, 61, 110
3, 177594, Note_off_c, 2, 61, 127
3, 177600, Note_on_c, 2, 64, 110
3, 177835, Note_off_c, 2, 64, 127
3, 179279, Note_on_c, 2, 61, 110
3, 180475, Note_off_c, 2, 61, 127
3, 180479, Note_on_c, 2, 64, 110
3, 180715, Note_off_c, 2, 64, 127
3, 182160, Note_on_c, 2, 61, 110
3, 182160, Note_on_c, 2, 57, 110
3, 182799, Note_off_c, 2, 57, 127
3, 182880, Note_on_c, 2, 61, 110
3, 184199, Note_off_c, 2, 61, 127
3, 187200, Note_on_c, 2, 64, 110
3, 188520, Note_off_c, 2, 64, 127
3, 192479, Note_on_c, 2, 64, 110
3, 192879, Note_off_c, 2, 64, 127
3, 192959, Note_on_c, 2, 64, 110
3, 194279, Note_off_c, 2, 64, 127
3, 197999, Note_on_c, 2, 63, 110
3, 198234, Note_off_c, 2, 63, 127
3, 198240, Note_on_c, 2, 64, 110
3, 198639, Note_off_c, 2, 64, 127
3, 198720, Note_on_c, 2, 64, 110
3, 200039, Note_off_c, 2, 64, 127
3, 202320, Note_on_c, 2, 64, 110
3, 202960, Note_off_c, 2, 64, 127
3, 203519, Note_on_c, 2, 64, 110
3, 203754, Note_off_c, 2, 64, 127
3, 203760, Note_on_c, 2, 63, 110
3, 203995, Note_off_c, 2, 63, 127
3, 203999, Note_on_c, 2, 64, 110
3, 204400, Note_off_c, 2, 64, 127
3, 204480, Note_on_c, 2, 64, 110
3, 205800, Note_off_c, 2, 64, 127
3, 210299, Note_on_c, 2, 59, 110
3, 210474, Note_off_c, 2, 59, 127
3, 210480, Note_on_c, 2, 60, 110
3, 210714, Note_off_c, 2, 60, 127
3, 210720, Note_on_c, 2, 64, 110
3, 211599, Note_off_c, 2, 64, 127
3, 212159, Note_on_c, 2, 64, 110
3, 213039, Note_off_c, 2, 64, 127
3, 220559, Note_on_c, 2, 64, 110
3, 220794, Note_off_c, 2, 64, 127
3, 220800, Note_on_c, 2, 61, 110
3, 221680, Note_off_c, 2, 61, 127
3, 222719, Note_on_c, 2, 64, 110
3, 224520, Note_off_c, 2, 64, 127
3, 225720, Note_on_c, 2, 61, 110
3, 225834, Note_off_c, 2, 61, 127
3, 225840, Note_on_c, 2, 64, 110
3, 226075, Note_off_c, 2, 64, 127
3, 226079, Note_on_c, 2, 59, 110
3, 226195, Note_off_c, 2, 59, 127
3, 234479, Note_on_c, 2, 64, 110
3, 234714, Note_off_c, 2, 64, 127
3, 234720, Note_on_c, 2, 61, 110
3, 234720, Note_on_c, 2, 59, 110
3, 234720, Note_on_c, 2, 57, 110
3, 235119, Note_off_c, 2, 57, 127
3, 235199, Note_on_c, 2, 61, 110
3, 235434, Note_off_c, 2, 61, 127
3, 235440, Note_on_c, 2, 59, 110
3, 235675, Note_off_c, 2, 59, 127
3, 235679, Note_on_c, 2, 54, 110
3, 235915, Note_off_c, 2, 54, 127
3, 235919, Note_on_c, 2, 56, 110
3, 236154, Note_off_c, 2, 56, 127
3, 236160, Note_on_c, 2, 64, 110
3, 236395, Note_off_c, 2, 64, 127
3, 236399, Note_on_c, 2, 61, 110
3, 236635, Note_off_c, 2, 61, 127
3, 236639, Note_on_c, 2, 56, 110
3, 236874, Note_off_c, 2, 56, 127
3, 236880, Note_on_c, 2, 52, 110
3, 237115, Note_off_c, 2, 52, 127
3, 237119, Note_on_c, 2, 54, 110
3, 237354, Note_off_c, 2, 54, 127
3, 237360, Note_on_c, 2, 56, 110
3, 237594, Note_off_c, 2, 56, 127
3, 237600, Note_on_c, 2, 61, 110
3, 237835, Note_off_c, 2, 61, 127
3, 237839, Note_on_c, 2, 59, 110
3, 238960, Note_off_c, 2, 59, 127
3, 239759, Note_on_c, 2, 64, 110
3, 239995, Note_off_c, 2, 64, 127
3, 239999, Note_on_c, 2, 62, 110
3, 240234, Note_off_c, 2, 62, 127
3, 240240, Note_on_c, 2, 64, 110
3, 240475, Note_off_c, 2, 64, 127
3, 244799, End_track
4, 0, Start_track
4, 0, Title_t, "Staff-1"
4, 0, Control_c, 2, 7, 127
4, 0, Control_c, 2, 91, 0
4, 0, Control_c, 2, 7, 100
4, 0, Control_c, 2, 93, 0
4, 0, Control_c, 2, 10, 64
4, 0, Control_c, 2, 121, 0
4, 0, Program_c, 2, 0
4, 0, Control_c, 2, 32, 0
4, 0, Control_c, 2, 0, 0
4, 0, Control_c, 2, 10, 64
4, 244799, End_track
5, 0, Start_track
5, 0, Title_t, "Track 2"
5, 0, Control_c, 3, 121, 0
5, 0, Program_c, 3, 0
5, 0, Control_c, 3, 32, 0
5, 0, Control_c, 3, 0, 0
5, 0, Control_c, 3, 7, 127
5, 0, Control_c, 3, 10, 64
5, 0, Control_c, 3, 91, 0
5, 0, Control_c, 3, 7, 127
5, 0, Control_c, 3, 93, 0
5, 0, Control_c, 3, 10, 64
5, 2880, Note_on_c, 3, 67, 110
5, 2880, Note_on_c, 3, 64, 110
5, 2880, Note_on_c, 3, 60, 110
5, 3520, Note_off_c, 3, 60, 127
5, 3600, Note_on_c, 3, 69, 110
5, 4240, Note_off_c, 3, 69, 127
5, 4320, Note_on_c, 3, 74, 110
5, 4320, Note_on_c, 3, 71, 110
5, 4320, Note_on_c, 3, 67, 110
5, 4320, Note_on_c, 3, 64, 110
5, 4960, Note_off_c, 3, 64, 127
5, 5040, Note_on_c, 3, 66, 110
5, 5680, Note_off_c, 3, 66, 127
5, 5760, Note_on_c, 3, 79, 110
5, 5760, Note_on_c, 3, 76, 110
5, 5760, Note_on_c, 3, 72, 110
5, 5760, Note_on_c, 3, 69, 110
5, 6400, Note_off_c, 3, 69, 127
5, 6480, Note_on_c, 3, 81, 110
5, 7120, Note_off_c, 3, 81, 127
5, 7200, Note_on_c, 3, 86, 110
5, 7200, Note_on_c, 3, 83, 110
5, 7200, Note_on_c, 3, 79, 110
5, 7200, Note_on_c, 3, 76, 110
5, 7840, Note_off_c, 3, 76, 127
5, 7919, Note_on_c, 3, 78, 110
5, 8560, Note_off_c, 3, 78, 127
5, 8639, Note_on_c, 3, 60, 110
5, 8875, Note_off_c, 3, 60, 127
5, 8879, Note_on_c, 3, 67, 110
5, 9114, Note_off_c, 3, 67, 127
5, 9120, Note_on_c, 3, 74, 110
5, 9355, Note_off_c, 3, 74, 127
5, 9359, Note_on_c, 3, 76, 110
5, 9999, Note_off_c, 3, 76, 127
5, 10319, Note_on_c, 3, 64, 110
5, 10554, Note_off_c, 3, 64, 127
5, 10560, Note_on_c, 3, 69, 110
5, 10795, Note_off_c, 3, 69, 127
5, 10799, Note_on_c, 3, 72, 110
5, 11439, Note_off_c, 3, 72, 127
5, 11760, Note_on_c, 3, 66, 110
5, 11994, Note_off_c, 3, 66, 127
5, 12000, Note_on_c, 3, 69, 110
5, 12235, Note_off_c, 3, 69, 127
5, 12239, Note_on_c, 3, 76, 110
5, 12239, Note_on_c, 3, 73, 110
5, 12239, Note_on_c, 3, 66, 110
5, 12879, Note_off_c, 3, 66, 127
5, 12959, Note_on_c, 3, 66, 110
5, 13134, Note_off_c, 3, 66, 127
5, 14399, Note_on_c, 3, 61, 110
5, 14514, Note_off_c, 3, 61, 127
5, 15119, Note_on_c, 3, 61, 110
5, 15294, Note_off_c, 3, 61, 127
5, 15839, Note_on_c, 3, 61, 110
5, 16014, Note_off_c, 3, 61, 127
5, 20160, Note_on_c, 3, 61, 110
5, 20395, Note_off_c, 3, 61, 127
5, 20880, Note_on_c, 3, 61, 110
5, 20994, Note_off_c, 3, 61, 127
5, 21600, Note_on_c, 3, 61, 110
5, 21775, Note_off_c, 3, 61, 127
5, 25919, Note_on_c, 3, 61, 110
5, 26035, Note_off_c, 3, 61, 127
5, 26639, Note_on_c, 3, 61, 110
5, 26815, Note_off_c, 3, 61, 127
5, 27359, Note_on_c, 3, 61, 110
5, 27475, Note_off_c, 3, 61, 127
5, 31679, Note_on_c, 3, 61, 110
5, 31914, Note_off_c, 3, 61, 127
5, 32399, Note_on_c, 3, 61, 110
5, 32514, Note_off_c, 3, 61, 127
5, 33120, Note_on_c, 3, 61, 110
5, 33294, Note_off_c, 3, 61, 127
5, 47760, Note_on_c, 3, 61, 110
5, 48879, Note_off_c, 3, 61, 127
5, 57839, Note_on_c, 3, 66, 110
5, 58074, Note_off_c, 3, 66, 127
5, 58080, Note_on_c, 3, 73, 110
5, 58315, Note_off_c, 3, 73, 127
5, 58319, Note_on_c, 3, 75, 110
5, 58960, Note_off_c, 3, 75, 127
5, 59039, Note_on_c, 3, 71, 110
5, 60359, Note_off_c, 3, 71, 127
5, 61199, Note_on_c, 3, 61, 110
5, 61434, Note_off_c, 3, 61, 127
5, 61440, Note_on_c, 3, 64, 110
5, 62154, Note_off_c, 3, 64, 127
5, 62160, Note_on_c, 3, 73, 110
5, 62394, Note_off_c, 3, 73, 127
5, 62400, Note_on_c, 3, 71, 110
5, 62635, Note_off_c, 3, 71, 127
5, 62639, Note_on_c, 3, 64, 110
5, 63279, Note_off_c, 3, 64, 127
5, 64079, Note_on_c, 3, 64, 110
5, 64719, Note_off_c, 3, 64, 127
5, 64799, Note_on_c, 3, 66, 110
5, 65199, Note_off_c, 3, 66, 127
5, 65279, Note_on_c, 3, 64, 110
5, 65515, Note_off_c, 3, 64, 127
5, 65519, Note_on_c, 3, 63, 110
5, 66159, Note_off_c, 3, 63, 127
5, 66960, Note_on_c, 3, 61, 110
5, 67194, Note_off_c, 3, 61, 127
5, 67200, Note_on_c, 3, 64, 110
5, 67599, Note_off_c, 3, 64, 127
5, 67680, Note_on_c, 3, 68, 110
5, 68320, Note_off_c, 3, 68, 127
5, 68400, Note_on_c, 3, 64, 110
5, 69040, Note_off_c, 3, 64, 127
5, 69599, Note_on_c, 3, 61, 110
5, 69834, Note_off_c, 3, 61, 127
5, 69840, Note_on_c, 3, 64, 110
5, 70075, Note_off_c, 3, 64, 127
5, 70079, Note_on_c, 3, 61, 110
5, 70480, Note_off_c, 3, 61, 127
5, 71039, Note_on_c, 3, 61, 110
5, 71920, Note_off_c, 3, 61, 127
5, 72720, Note_on_c, 3, 61, 110
5, 72955, Note_off_c, 3, 61, 127
5, 72959, Note_on_c, 3, 64, 110
5, 73675, Note_off_c, 3, 64, 127
5, 73679, Note_on_c, 3, 73, 110
5, 73914, Note_off_c, 3, 73, 127
5, 73920, Note_on_c, 3, 71, 110
5, 74154, Note_off_c, 3, 71, 127
5, 74159, Note_on_c, 3, 64, 110
5, 74800, Note_off_c, 3, 64, 127
5, 75599, Note_on_c, 3, 64, 110
5, 76239, Note_off_c, 3, 64, 127
5, 76800, Note_on_c, 3, 61, 110
5, 77035, Note_off_c, 3, 61, 127
5, 78479, Note_on_c, 3, 61, 110
5, 78714, Note_off_c, 3, 61, 127
5, 78720, Note_on_c, 3, 64, 110
5, 79434, Note_off_c, 3, 64, 127
5, 79440, Note_on_c, 3, 64, 110
5, 79674, Note_off_c, 3, 64, 127
5, 79679, Note_on_c, 3, 61, 110
5, 80559, Note_off_c, 3, 61, 127
5, 83520, Note_on_c, 3, 67, 110
5, 83520, Note_on_c, 3, 64, 110
5, 83520, Note_on_c, 3, 60, 110
5, 84159, Note_off_c, 3, 60, 127
5, 84240, Note_on_c, 3, 69, 110
5, 84880, Note_off_c, 3, 69, 127
5, 84960, Note_on_c, 3, 74, 110
5, 84960, Note_on_c, 3, 71, 110
5, 84960, Note_on_c, 3, 67, 110
5, 84960, Note_on_c, 3, 64, 110
5, 85600, Note_off_c, 3, 64, 127
5, 85680, Note_on_c, 3, 66, 110
5, 86320, Note_off_c, 3, 66, 127
5, 86400, Note_on_c, 3, 79, 110
5, 86400, Note_on_c, 3, 76, 110
5, 86400, Note_on_c, 3, 72, 110
5, 86400, Note_on_c, 3, 69, 110
5, 87040, Note_off_c, 3, 69, 127
5, 87120, Note_on_c, 3, 81, 110
5, 87760, Note_off_c, 3, 81, 127
5, 87840, Note_on_c, 3, 86, 110
5, 87840, Note_on_c, 3, 83, 110
5, 87840, Note_on_c, 3, 79, 110
5, 87840, Note_on_c, 3, 76, 110
5, 88480, Note_off_c, 3, 76, 127
5, 88560, Note_on_c, 3, 78, 110
5, 89200, Note_off_c, 3, 78, 127
5, 89280, Note_on_c, 3, 60, 110
5, 89515, Note_off_c, 3, 60, 127
5, 89519, Note_on_c, 3, 67, 110
5, 89754, Note_off_c, 3, 67, 127
5, 89760, Note_on_c, 3, 74, 110
5, 89994, Note_off_c, 3, 74, 127
5, 90000, Note_on_c, 3, 76, 110
5, 90640, Note_off_c, 3, 76, 127
5, 90959, Note_on_c, 3, 64, 110
5, 91194, Note_off_c, 3, 64, 127
5, 91200, Note_on_c, 3, 69, 110
5, 91435, Note_off_c, 3, 69, 127
5, 91439, Note_on_c, 3, 72, 110
5, 92080, Note_off_c, 3, 72, 127
5, 92399, Note_on_c, 3, 66, 110
5, 92634, Note_off_c, 3, 66, 127
5, 92640, Note_on_c, 3, 69, 110
5, 92875, Note_off_c, 3, 69, 127
5, 92879, Note_on_c, 3, 76, 110
5, 92879, Note_on_c, 3, 73, 110
5, 92879, Note_on_c, 3, 66, 110
5, 93519, Note_off_c, 3, 66, 127
5, 93599, Note_on_c, 3, 66, 110
5, 93775, Note_off_c, 3, 66, 127
5, 95039, Note_on_c, 3, 61, 110
5, 95155, Note_off_c, 3, 61, 127
5, 95759, Note_on_c, 3, 61, 110
5, 95934, Note_off_c, 3, 61, 127
5, 96479, Note_on_c, 3, 61, 110
5, 96654, Note_off_c, 3, 61, 127
5, 100800, Note_on_c, 3, 61, 110
5, 101034, Note_off_c, 3, 61, 127
5, 101520, Note_on_c, 3, 61, 110
5, 101634, Note_off_c, 3, 61, 127
5, 102240, Note_on_c, 3, 61, 110
5, 102414, Note_off_c, 3, 61, 127
5, 106560, Note_on_c, 3, 61, 110
5, 106675, Note_off_c, 3, 61, 127
5, 107279, Note_on_c, 3, 61, 110
5, 107455, Note_off_c, 3, 61, 127
5, 107999, Note_on_c, 3, 61, 110
5, 108115, Note_off_c, 3, 61, 127
5, 112319, Note_on_c, 3, 61, 110
5, 112554, Note_off_c, 3, 61, 127
5, 113039, Note_on_c, 3, 61, 110
5, 113154, Note_off_c, 3, 61, 127
5, 113759, Note_on_c, 3, 61, 110
5, 113934, Note_off_c, 3, 61, 127
5, 128400, Note_on_c, 3, 61, 110
5, 129519, Note_off_c, 3, 61, 127
5, 138479, Note_on_c, 3, 66, 110
5, 138714, Note_off_c, 3, 66, 127
5, 138720, Note_on_c, 3, 73, 110
5, 138954, Note_off_c, 3, 73, 127
5, 138960, Note_on_c, 3, 75, 110
5, 139600, Note_off_c, 3, 75, 127
5, 139680, Note_on_c, 3, 71, 110
5, 141000, Note_off_c, 3, 71, 127
5, 141119, Note_on_c, 3, 68, 110
5, 141355, Note_off_c, 3, 68, 127
5, 141359, Note_on_c, 3, 69, 110
5, 141594, Note_off_c, 3, 69, 127
5, 141600, Note_on_c, 3, 73, 110
5, 141835, Note_off_c, 3, 73, 127
5, 141839, Note_on_c, 3, 66, 110
5, 142075, Note_off_c, 3, 66, 127
5, 142079, Note_on_c, 3, 69, 110
5, 142314, Note_off_c, 3, 69, 127
5, 142320, Note_on_c, 3, 73, 110
5, 142555, Note_off_c, 3, 73, 127
5, 142559, Note_on_c, 3, 64, 110
5, 142795, Note_off_c, 3, 64, 127
5, 142799, Note_on_c, 3, 69, 110
5, 143034, Note_off_c, 3, 69, 127
5, 143040, Note_on_c, 3, 73, 110
5, 143275, Note_off_c, 3, 73, 127
5, 143279, Note_on_c, 3, 66, 110
5, 143514, Note_off_c, 3, 66, 127
5, 143520, Note_on_c, 3, 69, 110
5, 143754, Note_off_c, 3, 69, 127
5, 143760, Note_on_c, 3, 73, 110
5, 143995, Note_off_c, 3, 73, 127
5, 143999, Note_on_c, 3, 63, 110
5, 144234, Note_off_c, 3, 63, 127
5, 144240, Note_on_c, 3, 64, 110
5, 144474, Note_off_c, 3, 64, 127
5, 144480, Note_on_c, 3, 68, 110
5, 144715, Note_off_c, 3, 68, 127
5, 144719, Note_on_c, 3, 61, 110
5, 144954, Note_off_c, 3, 61, 127
5, 144960, Note_on_c, 3, 64, 110
5, 145194, Note_off_c, 3, 64, 127
5, 145200, Note_on_c, 3, 68, 110
5, 145435, Note_off_c, 3, 68, 127
5, 145680, Note_on_c, 3, 64, 110
5, 145914, Note_off_c, 3, 64, 127
5, 145919, Note_on_c, 3, 68, 110
5, 146155, Note_off_c, 3, 68, 127
5, 146159, Note_on_c, 3, 61, 110
5, 146394, Note_off_c, 3, 61, 127
5, 146400, Note_on_c, 3, 64, 110
5, 146635, Note_off_c, 3, 64, 127
5, 146639, Note_on_c, 3, 68, 110
5, 146875, Note_off_c, 3, 68, 127
5, 146879, Note_on_c, 3, 68, 110
5, 147114, Note_off_c, 3, 68, 127
5, 147120, Note_on_c, 3, 69, 110
5, 147355, Note_off_c, 3, 69, 127
5, 147359, Note_on_c, 3, 73, 110
5, 147595, Note_off_c, 3, 73, 127
5, 147599, Note_on_c, 3, 66, 110
5, 147834, Note_off_c, 3, 66, 127
5, 147840, Note_on_c, 3, 69, 110
5, 148075, Note_off_c, 3, 69, 127
5, 148079, Note_on_c, 3, 73, 110
5, 148315, Note_off_c, 3, 73, 127
5, 148319, Note_on_c, 3, 64, 110
5, 148554, Note_off_c, 3, 64, 127
5, 148560, Note_on_c, 3, 69, 110
5, 148795, Note_off_c, 3, 69, 127
5, 148799, Note_on_c, 3, 73, 110
5, 149034, Note_off_c, 3, 73, 127
5, 149040, Note_on_c, 3, 66, 110
5, 149274, Note_off_c, 3, 66, 127
5, 149280, Note_on_c, 3, 69, 110
5, 149515, Note_off_c, 3, 69, 127
5, 149519, Note_on_c, 3, 73, 110
5, 149754, Note_off_c, 3, 73, 127
5, 149760, Note_on_c, 3, 63, 110
5, 149994, Note_off_c, 3, 63, 127
5, 150000, Note_on_c, 3, 64, 110
5, 150235, Note_off_c, 3, 64, 127
5, 150239, Note_on_c, 3, 68, 110
5, 150474, Note_off_c, 3, 68, 127
5, 150480, Note_on_c, 3, 61, 110
5, 150714, Note_off_c, 3, 61, 127
5, 150720, Note_on_c, 3, 64, 110
5, 150955, Note_off_c, 3, 64, 127
5, 150959, Note_on_c, 3, 68, 110
5, 151194, Note_off_c, 3, 68, 127
5, 151439, Note_on_c, 3, 64, 110
5, 151675, Note_off_c, 3, 64, 127
5, 151679, Note_on_c, 3, 68, 110
5, 151914, Note_off_c, 3, 68, 127
5, 151920, Note_on_c, 3, 61, 110
5, 152155, Note_off_c, 3, 61, 127
5, 152159, Note_on_c, 3, 64, 110
5, 152395, Note_off_c, 3, 64, 127
5, 152399, Note_on_c, 3, 68, 110
5, 152634, Note_off_c, 3, 68, 127
5, 152640, Note_on_c, 3, 68, 110
5, 152875, Note_off_c, 3, 68, 127
5, 152879, Note_on_c, 3, 69, 110
5, 153115, Note_off_c, 3, 69, 127
5, 153119, Note_on_c, 3, 73, 110
5, 153354, Note_off_c, 3, 73, 127
5, 153360, Note_on_c, 3, 66, 110
5, 153595, Note_off_c, 3, 66, 127
5, 153599, Note_on_c, 3, 69, 110
5, 153835, Note_off_c, 3, 69, 127
5, 153839, Note_on_c, 3, 73, 110
5, 154074, Note_off_c, 3, 73, 127
5, 154080, Note_on_c, 3, 64, 110
5, 154315, Note_off_c, 3, 64, 127
5, 154319, Note_on_c, 3, 69, 110
5, 154554, Note_off_c, 3, 69, 127
5, 154560, Note_on_c, 3, 73, 110
5, 154794, Note_off_c, 3, 73, 127
5, 154800, Note_on_c, 3, 66, 110
5, 155035, Note_off_c, 3, 66, 127
5, 155039, Note_on_c, 3, 69, 110
5, 155274, Note_off_c, 3, 69, 127
5, 155280, Note_on_c, 3, 73, 110
5, 155514, Note_off_c, 3, 73, 127
5, 155520, Note_on_c, 3, 63, 110
5, 155755, Note_off_c, 3, 63, 127
5, 155759, Note_on_c, 3, 64, 110
5, 155994, Note_off_c, 3, 64, 127
5, 156000, Note_on_c, 3, 68, 110
5, 156234, Note_off_c, 3, 68, 127
5, 156240, Note_on_c, 3, 61, 110
5, 156475, Note_off_c, 3, 61, 127
5, 156479, Note_on_c, 3, 64, 110
5, 156714, Note_off_c, 3, 64, 127
5, 156720, Note_on_c, 3, 68, 110
5, 156954, Note_off_c, 3, 68, 127
5, 157199, Note_on_c, 3, 64, 110
5, 157434, Note_off_c, 3, 64, 127
5, 157440, Note_on_c, 3, 68, 110
5, 157675, Note_off_c, 3, 68, 127
5, 157679, Note_on_c, 3, 61, 110
5, 157915, Note_off_c, 3, 61, 127
5, 157919, Note_on_c, 3, 64, 110
5, 158154, Note_off_c, 3, 64, 127
5, 158160, Note_on_c, 3, 68, 110
5, 158395, Note_off_c, 3, 68, 127
5, 158399, Note_on_c, 3, 68, 110
5, 158635, Note_off_c, 3, 68, 127
5, 158639, Note_on_c, 3, 69, 110
5, 158874, Note_off_c, 3, 69, 127
5, 158880, Note_on_c, 3, 73, 110
5, 159115, Note_off_c, 3, 73, 127
5, 159119, Note_on_c, 3, 66, 110
5, 159355, Note_off_c, 3, 66, 127
5, 159359, Note_on_c, 3, 69, 110
5, 159594, Note_off_c, 3, 69, 127
5, 159600, Note_on_c, 3, 73, 110
5, 159835, Note_off_c, 3, 73, 127
5, 159839, Note_on_c, 3, 64, 110
5, 160074, Note_off_c, 3, 64, 127
5, 160080, Note_on_c, 3, 69, 110
5, 160314, Note_off_c, 3, 69, 127
5, 160320, Note_on_c, 3, 73, 110
5, 160555, Note_off_c, 3, 73, 127
5, 160559, Note_on_c, 3, 66, 110
5, 160794, Note_off_c, 3, 66, 127
5, 160800, Note_on_c, 3, 69, 110
5, 161034, Note_off_c, 3, 69, 127
5, 161040, Note_on_c, 3, 73, 110
5, 161275, Note_off_c, 3, 73, 127
5, 161279, Note_on_c, 3, 63, 110
5, 161514, Note_off_c, 3, 63, 127
5, 161520, Note_on_c, 3, 64, 110
5, 161754, Note_off_c, 3, 64, 127
5, 161760, Note_on_c, 3, 68, 110
5, 161995, Note_off_c, 3, 68, 127
5, 161999, Note_on_c, 3, 61, 110
5, 162234, Note_off_c, 3, 61, 127
5, 162240, Note_on_c, 3, 64, 110
5, 162474, Note_off_c, 3, 64, 127
5, 162479, Note_on_c, 3, 68, 110
5, 162715, Note_off_c, 3, 68, 127
5, 162960, Note_on_c, 3, 64, 110
5, 163195, Note_off_c, 3, 64, 127
5, 163199, Note_on_c, 3, 68, 110
5, 163435, Note_off_c, 3, 68, 127
5, 163439, Note_on_c, 3, 61, 110
5, 164079, Note_off_c, 3, 61, 127
5, 164400, Note_on_c, 3, 64, 110
5, 164635, Note_off_c, 3, 64, 127
5, 164639, Note_on_c, 3, 68, 110
5, 165720, Note_off_c, 3, 68, 127
5, 165840, Note_on_c, 3, 66, 110
5, 166075, Note_off_c, 3, 66, 127
5, 166079, Note_on_c, 3, 68, 110
5, 166314, Note_off_c, 3, 68, 127
5, 166320, Note_on_c, 3, 69, 110
5, 166554, Note_off_c, 3, 69, 127
5, 166560, Note_on_c, 3, 68, 110
5, 166795, Note_off_c, 3, 68, 127
5, 166799, Note_on_c, 3, 66, 110
5, 167034, Note_off_c, 3, 66, 127
5, 167280, Note_on_c, 3, 61, 110
5, 167515, Note_off_c, 3, 61, 127
5, 167519, Note_on_c, 3, 66, 110
5, 168600, Note_off_c, 3, 66, 127
5, 168719, Note_on_c, 3, 66, 110
5, 168955, Note_off_c, 3, 66, 127
5, 168959, Note_on_c, 3, 68, 110
5, 169194, Note_off_c, 3, 68, 127
5, 169200, Note_on_c, 3, 64, 110
5, 169435, Note_off_c, 3, 64, 127
5, 169439, Note_on_c, 3, 63, 110
5, 169840, Note_off_c, 3, 63, 127
5, 170399, Note_on_c, 3, 61, 110
5, 170634, Note_off_c, 3, 61, 127
5, 170640, Note_on_c, 3, 63, 110
5, 170875, Note_off_c, 3, 63, 127
5, 170879, Note_on_c, 3, 64, 110
5, 171114, Note_off_c, 3, 64, 127
5, 171120, Note_on_c, 3, 66, 110
5, 171595, Note_off_c, 3, 66, 127
5, 171599, Note_on_c, 3, 68, 110
5, 171834, Note_off_c, 3, 68, 127
5, 171840, Note_on_c, 3, 71, 110
5, 172074, Note_off_c, 3, 71, 127
5, 172080, Note_on_c, 3, 66, 110
5, 172315, Note_off_c, 3, 66, 127
5, 172319, Note_on_c, 3, 64, 110
5, 172720, Note_off_c, 3, 64, 127
5, 173280, Note_on_c, 3, 61, 110
5, 173514, Note_off_c, 3, 61, 127
5, 173519, Note_on_c, 3, 63, 110
5, 173755, Note_off_c, 3, 63, 127
5, 173759, Note_on_c, 3, 64, 110
5, 173994, Note_off_c, 3, 64, 127
5, 174000, Note_on_c, 3, 66, 110
5, 174235, Note_off_c, 3, 66, 127
5, 174239, Note_on_c, 3, 68, 110
5, 174475, Note_off_c, 3, 68, 127
5, 174479, Note_on_c, 3, 73, 110
5, 174714, Note_off_c, 3, 73, 127
5, 174720, Note_on_c, 3, 68, 110
5, 174955, Note_off_c, 3, 68, 127
5, 174959, Note_on_c, 3, 66, 110
5, 175599, Note_off_c, 3, 66, 127
5, 184559, Note_on_c, 3, 66, 110
5, 184795, Note_off_c, 3, 66, 127
5, 184799, Note_on_c, 3, 73, 110
5, 185034, Note_off_c, 3, 73, 127
5, 185040, Note_on_c, 3, 75, 110
5, 185680, Note_off_c, 3, 75, 127
5, 185760, Note_on_c, 3, 71, 110
5, 187080, Note_off_c, 3, 71, 127
5, 187920, Note_on_c, 3, 61, 110
5, 188155, Note_off_c, 3, 61, 127
5, 188159, Note_on_c, 3, 64, 110
5, 188875, Note_off_c, 3, 64, 127
5, 188879, Note_on_c, 3, 73, 110
5, 189114, Note_off_c, 3, 73, 127
5, 189120, Note_on_c, 3, 71, 110
5, 189354, Note_off_c, 3, 71, 127
5, 189360, Note_on_c, 3, 64, 110
5, 190000, Note_off_c, 3, 64, 127
5, 190799, Note_on_c, 3, 64, 110
5, 191440, Note_off_c, 3, 64, 127
5, 191519, Note_on_c, 3, 66, 110
5, 191920, Note_off_c, 3, 66, 127
5, 192000, Note_on_c, 3, 64, 110
5, 192235, Note_off_c, 3, 64, 127
5, 192239, Note_on_c, 3, 63, 110
5, 192879, Note_off_c, 3, 63, 127
5, 193679, Note_on_c, 3, 61, 110
5, 193914, Note_off_c, 3, 61, 127
5, 193920, Note_on_c, 3, 64, 110
5, 194319, Note_off_c, 3, 64, 127
5, 194399, Note_on_c, 3, 68, 110
5, 195039, Note_off_c, 3, 68, 127
5, 195119, Note_on_c, 3, 64, 110
5, 195759, Note_off_c, 3, 64, 127
5, 196319, Note_on_c, 3, 61, 110
5, 196555, Note_off_c, 3, 61, 127
5, 196559, Note_on_c, 3, 64, 110
5, 196794, Note_off_c, 3, 64, 127
5, 196800, Note_on_c, 3, 61, 110
5, 197199, Note_off_c, 3, 61, 127
5, 197759, Note_on_c, 3, 61, 110
5, 198639, Note_off_c, 3, 61, 127
5, 199440, Note_on_c, 3, 61, 110
5, 199674, Note_off_c, 3, 61, 127
5, 199680, Note_on_c, 3, 64, 110
5, 200394, Note_off_c, 3, 64, 127
5, 200400, Note_on_c, 3, 73, 110
5, 200635, Note_off_c, 3, 73, 127
5, 200639, Note_on_c, 3, 71, 110
5, 200874, Note_off_c, 3, 71, 127
5, 200880, Note_on_c, 3, 64, 110
5, 201520, Note_off_c, 3, 64, 127
5, 203519, Note_on_c, 3, 61, 110
5, 203754, Note_off_c, 3, 61, 127
5, 205200, Note_on_c, 3, 61, 110
5, 205435, Note_off_c, 3, 61, 127
5, 205439, Note_on_c, 3, 64, 110
5, 206155, Note_off_c, 3, 64, 127
5, 206159, Note_on_c, 3, 64, 110
5, 206394, Note_off_c, 3, 64, 127
5, 206400, Note_on_c, 3, 61, 110
5, 207280, Note_off_c, 3, 61, 127
5, 211679, Note_on_c, 3, 62, 110
5, 213055, Note_off_c, 3, 62, 127
5, 213059, Note_on_c, 3, 60, 110
5, 213115, Note_off_c, 3, 60, 127
5, 213119, Note_on_c, 3, 67, 110
5, 213119, Note_on_c, 3, 64, 110
5, 214435, Note_off_c, 3, 64, 127
5, 214439, Note_on_c, 3, 64, 110
5, 214495, Note_off_c, 3, 64, 127
5, 214499, Note_on_c, 3, 67, 110
5, 214499, Note_on_c, 3, 71, 110
5, 214555, Note_off_c, 3, 67, 127
5, 214559, Note_on_c, 3, 74, 110
5, 215935, Note_off_c, 3, 74, 127
5, 215939, Note_on_c, 3, 62, 110
5, 217319, Note_off_c, 3, 62, 127
5, 219600, Note_on_c, 3, 61, 110
5, 221754, Note_off_c, 3, 61, 127
5, 222240, Note_on_c, 3, 61, 110
5, 224635, Note_off_c, 3, 61, 127
5, 228239, Note_on_c, 3, 69, 110
5, 228239, Note_on_c, 3, 73, 110
5, 228239, Note_on_c, 3, 66, 110
5, 228239, Note_on_c, 3, 76, 110
5, 228879, Note_off_c, 3, 66, 127
5, 228959, Note_on_c, 3, 69, 110
5, 228959, Note_on_c, 3, 66, 110
5, 230279, Note_off_c, 3, 66, 127
5, 230399, Note_on_c, 3, 64, 110
5, 230634, Note_off_c, 3, 64, 127
5, 230640, Note_on_c, 3, 66, 110
5, 230875, Note_off_c, 3, 66, 127
5, 230879, Note_on_c, 3, 71, 110
5, 231115, Note_off_c, 3, 71, 127
5, 231119, Note_on_c, 3, 73, 110
5, 231759, Note_off_c, 3, 73, 127
5, 231840, Note_on_c, 3, 66, 110
5, 233159, Note_off_c, 3, 66, 127
5, 234000, Note_on_c, 3, 61, 110
5, 236154, Note_off_c, 3, 61, 127
5, 241319, Note_on_c, 3, 64, 110
5, 241915, Note_off_c, 3, 64, 127
5, 244799, End_track
6, 0, Start_track
6, 0, Title_t, "Track 3"
6, 0, Control_c, 4, 0, 0
6, 0, Control_c, 4, 10, 64
6, 0, Control_c, 4, 121, 0
6, 0, Program_c, 4, 0
6, 0, Control_c, 4, 7, 127
6, 0, Control_c, 4, 91, 0
6, 0, Control_c, 4, 32, 0
6, 0, Control_c, 4, 7, 127
6, 0, Control_c, 4, 10, 64
6, 0, Control_c, 4, 93, 0
6, 2880, Note_on_c, 4, 57, 110
6, 4200, Note_off_c, 4, 57, 127
6, 10079, Note_on_c, 4, 57, 110
6, 11399, Note_off_c, 4, 57, 127
6, 11519, Note_on_c, 4, 59, 110
6, 12839, Note_off_c, 4, 59, 127
6, 13679, Note_on_c, 4, 59, 110
6, 13854, Note_off_c, 4, 59, 127
6, 14399, Note_on_c, 4, 57, 110
6, 14399, Note_on_c, 4, 56, 110
6, 14574, Note_off_c, 4, 56, 127
6, 15119, Note_on_c, 4, 57, 110
6, 15119, Note_on_c, 4, 54, 110
6, 15294, Note_off_c, 4, 54, 127
6, 15839, Note_on_c, 4, 57, 110
6, 15839, Note_on_c, 4, 52, 110
6, 16239, Note_off_c, 4, 52, 127
6, 16319, Note_on_c, 4, 52, 110
6, 16554, Note_off_c, 4, 52, 127
6, 16560, Note_on_c, 4, 57, 110
6, 16560, Note_on_c, 4, 51, 110
6, 16734, Note_off_c, 4, 51, 127
6, 17280, Note_on_c, 4, 56, 110
6, 17280, Note_on_c, 4, 52, 110
6, 17280, Note_on_c, 4, 51, 110
6, 17454, Note_off_c, 4, 51, 127
6, 18000, Note_on_c, 4, 56, 110
6, 18000, Note_on_c, 4, 52, 110
6, 18000, Note_on_c, 4, 49, 110
6, 18174, Note_off_c, 4, 49, 127
6, 18720, Note_on_c, 4, 56, 110
6, 18720, Note_on_c, 4, 52, 110
6, 18720, Note_on_c, 4, 47, 110
6, 19119, Note_off_c, 4, 47, 127
6, 19199, Note_on_c, 4, 47, 110
6, 19434, Note_off_c, 4, 47, 127
6, 19440, Note_on_c, 4, 49, 110
6, 19675, Note_off_c, 4, 49, 127
6, 19679, Note_on_c, 4, 52, 110
6, 19915, Note_off_c, 4, 52, 127
6, 19919, Note_on_c, 4, 59, 110
6, 20154, Note_off_c, 4, 59, 127
6, 20160, Note_on_c, 4, 57, 110
6, 20160, Note_on_c, 4, 56, 110
6, 20800, Note_off_c, 4, 56, 127
6, 20880, Note_on_c, 4, 57, 110
6, 20880, Note_on_c, 4, 54, 110
6, 20994, Note_off_c, 4, 54, 127
6, 21600, Note_on_c, 4, 57, 110
6, 21600, Note_on_c, 4, 52, 110
6, 21999, Note_off_c, 4, 52, 127
6, 22080, Note_on_c, 4, 52, 110
6, 22314, Note_off_c, 4, 52, 127
6, 22320, Note_on_c, 4, 57, 110
6, 22320, Note_on_c, 4, 51, 110
6, 22555, Note_off_c, 4, 51, 127
6, 22559, Note_on_c, 4, 49, 110
6, 22794, Note_off_c, 4, 49, 127
6, 22800, Note_on_c, 4, 51, 110
6, 23034, Note_off_c, 4, 51, 127
6, 23040, Note_on_c, 4, 56, 110
6, 23040, Note_on_c, 4, 52, 110
6, 23040, Note_on_c, 4, 51, 110
6, 23215, Note_off_c, 4, 51, 127
6, 23760, Note_on_c, 4, 56, 110
6, 23760, Note_on_c, 4, 52, 110
6, 23760, Note_on_c, 4, 49, 110
6, 23935, Note_off_c, 4, 49, 127
6, 24479, Note_on_c, 4, 56, 110
6, 24479, Note_on_c, 4, 52, 110
6, 24479, Note_on_c, 4, 47, 110
6, 24880, Note_off_c, 4, 47, 127
6, 24960, Note_on_c, 4, 47, 110
6, 25195, Note_off_c, 4, 47, 127
6, 25199, Note_on_c, 4, 49, 110
6, 25840, Note_off_c, 4, 49, 127
6, 25919, Note_on_c, 4, 57, 110
6, 25919, Note_on_c, 4, 56, 110
6, 26035, Note_off_c, 4, 56, 127
6, 26639, Note_on_c, 4, 57, 110
6, 26639, Note_on_c, 4, 54, 110
6, 26755, Note_off_c, 4, 54, 127
6, 27359, Note_on_c, 4, 57, 110
6, 27359, Note_on_c, 4, 52, 110
6, 27760, Note_off_c, 4, 52, 127
6, 27840, Note_on_c, 4, 52, 110
6, 28075, Note_off_c, 4, 52, 127
6, 28079, Note_on_c, 4, 57, 110
6, 28079, Note_on_c, 4, 51, 110
6, 28195, Note_off_c, 4, 51, 127
6, 28799, Note_on_c, 4, 56, 110
6, 28799, Note_on_c, 4, 52, 110
6, 28799, Note_on_c, 4, 51, 110
6, 28915, Note_off_c, 4, 51, 127
6, 29519, Note_on_c, 4, 56, 110
6, 29519, Note_on_c, 4, 52, 110
6, 29519, Note_on_c, 4, 49, 110
6, 29635, Note_off_c, 4, 49, 127
6, 30239, Note_on_c, 4, 56, 110
6, 30239, Note_on_c, 4, 52, 110
6, 30239, Note_on_c, 4, 47, 110
6, 30640, Note_off_c, 4, 47, 127
6, 30719, Note_on_c, 4, 47, 110
6, 30955, Note_off_c, 4, 47, 127
6, 30959, Note_on_c, 4, 49, 110
6, 31194, Note_off_c, 4, 49, 127
6, 31200, Note_on_c, 4, 52, 110
6, 31435, Note_off_c, 4, 52, 127
6, 31439, Note_on_c, 4, 59, 110
6, 31675, Note_off_c, 4, 59, 127
6, 31679, Note_on_c, 4, 57, 110
6, 31679, Note_on_c, 4, 56, 110
6, 31914, Note_off_c, 4, 56, 127
6, 32399, Note_on_c, 4, 57, 110
6, 32399, Note_on_c, 4, 54, 110
6, 32514, Note_off_c, 4, 54, 127
6, 33120, Note_on_c, 4, 57, 110
6, 33120, Note_on_c, 4, 52, 110
6, 33519, Note_off_c, 4, 52, 127
6, 33599, Note_on_c, 4, 52, 110
6, 33834, Note_off_c, 4, 52, 127
6, 33840, Note_on_c, 4, 57, 110
6, 33840, Note_on_c, 4, 51, 110
6, 34239, Note_off_c, 4, 51, 127
6, 34319, Note_on_c, 4, 51, 110
6, 34554, Note_off_c, 4, 51, 127
6, 34560, Note_on_c, 4, 56, 110
6, 34560, Note_on_c, 4, 52, 110
6, 34560, Note_on_c, 4, 51, 110
6, 34734, Note_off_c, 4, 51, 127
6, 35280, Note_on_c, 4, 56, 110
6, 35280, Note_on_c, 4, 52, 110
6, 35280, Note_on_c, 4, 49, 110
6, 35394, Note_off_c, 4, 49, 127
6, 36000, Note_on_c, 4, 56, 110
6, 36000, Note_on_c, 4, 52, 110
6, 36000, Note_on_c, 4, 47, 110
6, 36399, Note_off_c, 4, 47, 127
6, 36479, Note_on_c, 4, 47, 110
6, 36714, Note_off_c, 4, 47, 127
6, 36720, Note_on_c, 4, 49, 110
6, 37360, Note_off_c, 4, 49, 127
6, 37440, Note_on_c, 4, 45, 110
6, 37675, Note_off_c, 4, 45, 127
6, 37679, Note_on_c, 4, 52, 110
6, 37915, Note_off_c, 4, 52, 127
6, 37919, Note_on_c, 4, 56, 110
6, 38999, Note_off_c, 4, 56, 127
6, 39119, Note_on_c, 4, 54, 110
6, 39354, Note_off_c, 4, 54, 127
6, 39360, Note_on_c, 4, 56, 110
6, 39594, Note_off_c, 4, 56, 127
6, 39600, Note_on_c, 4, 57, 110
6, 39835, Note_off_c, 4, 57, 127
6, 39839, Note_on_c, 4, 56, 110
6, 40074, Note_off_c, 4, 56, 127
6, 40080, Note_on_c, 4, 54, 110
6, 40314, Note_off_c, 4, 54, 127
6, 40320, Note_on_c, 4, 42, 110
6, 40555, Note_off_c, 4, 42, 127
6, 40559, Note_on_c, 4, 49, 110
6, 40794, Note_off_c, 4, 49, 127
6, 40800, Note_on_c, 4, 52, 110
6, 41879, Note_off_c, 4, 52, 127
6, 41999, Note_on_c, 4, 54, 110
6, 42234, Note_off_c, 4, 54, 127
6, 42240, Note_on_c, 4, 56, 110
6, 42475, Note_off_c, 4, 56, 127
6, 42479, Note_on_c, 4, 52, 110
6, 42715, Note_off_c, 4, 52, 127
6, 42719, Note_on_c, 4, 49, 110
6, 42954, Note_off_c, 4, 49, 127
6, 42960, Note_on_c, 4, 47, 110
6, 43195, Note_off_c, 4, 47, 127
6, 43439, Note_on_c, 4, 44, 110
6, 43674, Note_off_c, 4, 44, 127
6, 43680, Note_on_c, 4, 49, 110
6, 43915, Note_off_c, 4, 49, 127
6, 43919, Note_on_c, 4, 51, 110
6, 44154, Note_off_c, 4, 51, 127
6, 44160, Note_on_c, 4, 52, 110
6, 44394, Note_off_c, 4, 52, 127
6, 44400, Note_on_c, 4, 54, 110
6, 44874, Note_off_c, 4, 54, 127
6, 44880, Note_on_c, 4, 56, 110
6, 45114, Note_off_c, 4, 56, 127
6, 45120, Note_on_c, 4, 59, 110
6, 45355, Note_off_c, 4, 59, 127
6, 45359, Note_on_c, 4, 54, 110
6, 45594, Note_off_c, 4, 54, 127
6, 45600, Note_on_c, 4, 52, 110
6, 45834, Note_off_c, 4, 52, 127
6, 45840, Note_on_c, 4, 44, 110
6, 46075, Note_off_c, 4, 44, 127
6, 46320, Note_on_c, 4, 44, 110
6, 46554, Note_off_c, 4, 44, 127
6, 46559, Note_on_c, 4, 49, 110
6, 46795, Note_off_c, 4, 49, 127
6, 46799, Note_on_c, 4, 51, 110
6, 47034, Note_off_c, 4, 51, 127
6, 47040, Note_on_c, 4, 52, 110
6, 47275, Note_off_c, 4, 52, 127
6, 47279, Note_on_c, 4, 54, 110
6, 47920, Note_off_c, 4, 54, 127
6, 47999, Note_on_c, 4, 56, 110
6, 48235, Note_off_c, 4, 56, 127
6, 48239, Note_on_c, 4, 54, 110
6, 48474, Note_off_c, 4, 54, 127
6, 48480, Note_on_c, 4, 52, 110
6, 48715, Note_off_c, 4, 52, 127
6, 48719, Note_on_c, 4, 51, 110
6, 48955, Note_off_c, 4, 51, 127
6, 48959, Note_on_c, 4, 45, 110
6, 49194, Note_off_c, 4, 45, 127
6, 49200, Note_on_c, 4, 52, 110
6, 49435, Note_off_c, 4, 52, 127
6, 49439, Note_on_c, 4, 56, 110
6, 50520, Note_off_c, 4, 56, 127
6, 50640, Note_on_c, 4, 54, 110
6, 50875, Note_off_c, 4, 54, 127
6, 50879, Note_on_c, 4, 56, 110
6, 51114, Note_off_c, 4, 56, 127
6, 51120, Note_on_c, 4, 57, 110
6, 51354, Note_off_c, 4, 57, 127
6, 51360, Note_on_c, 4, 56, 110
6, 51595, Note_off_c, 4, 56, 127
6, 51599, Note_on_c, 4, 54, 110
6, 51834, Note_off_c, 4, 54, 127
6, 51840, Note_on_c, 4, 42, 110
6, 52074, Note_off_c, 4, 42, 127
6, 52079, Note_on_c, 4, 49, 110
6, 52315, Note_off_c, 4, 49, 127
6, 52319, Note_on_c, 4, 52, 110
6, 52554, Note_off_c, 4, 52, 127
6, 52560, Note_on_c, 4, 54, 110
6, 53400, Note_off_c, 4, 54, 127
6, 53519, Note_on_c, 4, 54, 110
6, 53755, Note_off_c, 4, 54, 127
6, 53759, Note_on_c, 4, 56, 110
6, 53994, Note_off_c, 4, 56, 127
6, 54000, Note_on_c, 4, 52, 110
6, 54235, Note_off_c, 4, 52, 127
6, 54239, Note_on_c, 4, 51, 110
6, 54475, Note_off_c, 4, 51, 127
6, 54479, Note_on_c, 4, 47, 110
6, 54714, Note_off_c, 4, 47, 127
6, 54959, Note_on_c, 4, 42, 110
6, 55194, Note_off_c, 4, 42, 127
6, 55200, Note_on_c, 4, 49, 110
6, 55434, Note_off_c, 4, 49, 127
6, 55440, Note_on_c, 4, 51, 110
6, 57594, Note_off_c, 4, 51, 127
6, 57599, Note_on_c, 4, 59, 110
6, 59755, Note_off_c, 4, 59, 127
6, 59759, Note_on_c, 4, 47, 110
6, 60399, Note_off_c, 4, 47, 127
6, 60479, Note_on_c, 4, 45, 110
6, 60714, Note_off_c, 4, 45, 127
6, 60720, Note_on_c, 4, 52, 110
6, 60954, Note_off_c, 4, 52, 127
6, 60960, Note_on_c, 4, 57, 110
6, 63355, Note_off_c, 4, 57, 127
6, 63359, Note_on_c, 4, 44, 110
6, 63594, Note_off_c, 4, 44, 127
6, 63600, Note_on_c, 4, 52, 110
6, 63835, Note_off_c, 4, 52, 127
6, 63839, Note_on_c, 4, 59, 110
6, 66234, Note_off_c, 4, 59, 127
6, 66240, Note_on_c, 4, 45, 110
6, 66474, Note_off_c, 4, 45, 127
6, 66480, Note_on_c, 4, 52, 110
6, 66715, Note_off_c, 4, 52, 127
6, 66719, Note_on_c, 4, 57, 110
6, 69114, Note_off_c, 4, 57, 127
6, 69120, Note_on_c, 4, 49, 110
6, 69355, Note_off_c, 4, 49, 127
6, 69359, Note_on_c, 4, 56, 110
6, 70239, Note_off_c, 4, 56, 127
6, 70319, Note_on_c, 4, 56, 110
6, 70554, Note_off_c, 4, 56, 127
6, 70560, Note_on_c, 4, 47, 110
6, 70795, Note_off_c, 4, 47, 127
6, 70799, Note_on_c, 4, 56, 110
6, 71920, Note_off_c, 4, 56, 127
6, 72000, Note_on_c, 4, 45, 110
6, 72235, Note_off_c, 4, 45, 127
6, 72239, Note_on_c, 4, 52, 110
6, 72474, Note_off_c, 4, 52, 127
6, 72480, Note_on_c, 4, 57, 110
6, 74875, Note_off_c, 4, 57, 127
6, 74879, Note_on_c, 4, 44, 110
6, 75115, Note_off_c, 4, 44, 127
6, 75119, Note_on_c, 4, 52, 110
6, 75354, Note_off_c, 4, 52, 127
6, 75360, Note_on_c, 4, 59, 110
6, 75835, Note_off_c, 4, 59, 127
6, 75839, Note_on_c, 4, 59, 110
6, 76074, Note_off_c, 4, 59, 127
6, 76080, Note_on_c, 4, 52, 110
6, 76315, Note_off_c, 4, 52, 127
6, 76319, Note_on_c, 4, 49, 110
6, 76555, Note_off_c, 4, 49, 127
6, 76559, Note_on_c, 4, 56, 110
6, 76959, Note_off_c, 4, 56, 127
6, 77039, Note_on_c, 4, 47, 110
6, 77274, Note_off_c, 4, 47, 127
6, 77280, Note_on_c, 4, 56, 110
6, 77514, Note_off_c, 4, 56, 127
6, 77520, Note_on_c, 4, 59, 110
6, 77755, Note_off_c, 4, 59, 127
6, 77759, Note_on_c, 4, 42, 110
6, 77994, Note_off_c, 4, 42, 127
6, 78000, Note_on_c, 4, 52, 110
6, 78234, Note_off_c, 4, 52, 127
6, 78240, Note_on_c, 4, 57, 110
6, 79799, Note_off_c, 4, 57, 127
6, 79919, Note_on_c, 4, 57, 110
6, 80154, Note_off_c, 4, 57, 127
6, 80160, Note_on_c, 4, 52, 110
6, 80395, Note_off_c, 4, 52, 127
6, 80399, Note_on_c, 4, 49, 110
6, 80635, Note_off_c, 4, 49, 127
6, 80639, Note_on_c, 4, 57, 110
6, 80639, Note_on_c, 4, 47, 110
6, 80874, Note_off_c, 4, 47, 127
6, 80880, Note_on_c, 4, 52, 110
6, 81115, Note_off_c, 4, 52, 127
6, 81119, Note_on_c, 4, 54, 110
6, 81355, Note_off_c, 4, 54, 127
6, 81359, Note_on_c, 4, 57, 110
6, 81594, Note_off_c, 4, 57, 127
6, 81600, Note_on_c, 4, 54, 110
6, 81835, Note_off_c, 4, 54, 127
6, 81839, Note_on_c, 4, 52, 110
6, 82075, Note_off_c, 4, 52, 127
6, 82079, Note_on_c, 4, 47, 110
6, 82314, Note_off_c, 4, 47, 127
6, 82320, Note_on_c, 4, 42, 110
6, 82555, Note_off_c, 4, 42, 127
6, 82559, Note_on_c, 4, 47, 110
6, 83439, Note_off_c, 4, 47, 127
6, 83520, Note_on_c, 4, 57, 110
6, 84839, Note_off_c, 4, 57, 127
6, 90719, Note_on_c, 4, 57, 110
6, 92040, Note_off_c, 4, 57, 127
6, 92159, Note_on_c, 4, 59, 110
6, 93479, Note_off_c, 4, 59, 127
6, 94319, Note_on_c, 4, 59, 110
6, 94495, Note_off_c, 4, 59, 127
6, 95039, Note_on_c, 4, 57, 110
6, 95039, Note_on_c, 4, 56, 110
6, 95214, Note_off_c, 4, 56, 127
6, 95759, Note_on_c, 4, 57, 110
6, 95759, Note_on_c, 4, 54, 110
6, 95934, Note_off_c, 4, 54, 127
6, 96479, Note_on_c, 4, 57, 110
6, 96479, Note_on_c, 4, 52, 110
6, 96880, Note_off_c, 4, 52, 127
6, 96959, Note_on_c, 4, 52, 110
6, 97195, Note_off_c, 4, 52, 127
6, 97199, Note_on_c, 4, 57, 110
6, 97199, Note_on_c, 4, 51, 110
6, 97374, Note_off_c, 4, 51, 127
6, 97919, Note_on_c, 4, 56, 110
6, 97919, Note_on_c, 4, 52, 110
6, 97919, Note_on_c, 4, 51, 110
6, 98094, Note_off_c, 4, 51, 127
6, 98639, Note_on_c, 4, 56, 110
6, 98639, Note_on_c, 4, 52, 110
6, 98639, Note_on_c, 4, 49, 110
6, 98814, Note_off_c, 4, 49, 127
6, 99360, Note_on_c, 4, 56, 110
6, 99360, Note_on_c, 4, 52, 110
6, 99360, Note_on_c, 4, 47, 110
6, 99759, Note_off_c, 4, 47, 127
6, 99839, Note_on_c, 4, 47, 110
6, 100074, Note_off_c, 4, 47, 127
6, 100080, Note_on_c, 4, 49, 110
6, 100314, Note_off_c, 4, 49, 127
6, 100320, Note_on_c, 4, 52, 110
6, 100555, Note_off_c, 4, 52, 127
6, 100559, Note_on_c, 4, 59, 110
6, 100794, Note_off_c, 4, 59, 127
6, 100800, Note_on_c, 4, 57, 110
6, 100800, Note_on_c, 4, 56, 110
6, 101440, Note_off_c, 4, 56, 127
6, 101520, Note_on_c, 4, 57, 110
6, 101520, Note_on_c, 4, 54, 110
6, 101634, Note_off_c, 4, 54, 127
6, 102240, Note_on_c, 4, 57, 110
6, 102240, Note_on_c, 4, 52, 110
6, 102639, Note_off_c, 4, 52, 127
6, 102719, Note_on_c, 4, 52, 110
6, 102954, Note_off_c, 4, 52, 127
6, 102960, Note_on_c, 4, 57, 110
6, 102960, Note_on_c, 4, 51, 110
6, 103195, Note_off_c, 4, 51, 127
6, 103199, Note_on_c, 4, 49, 110
6, 103435, Note_off_c, 4, 49, 127
6, 103439, Note_on_c, 4, 51, 110
6, 103674, Note_off_c, 4, 51, 127
6, 103680, Note_on_c, 4, 56, 110
6, 103680, Note_on_c, 4, 52, 110
6, 103680, Note_on_c, 4, 51, 110
6, 103855, Note_off_c, 4, 51, 127
6, 104400, Note_on_c, 4, 56, 110
6, 104400, Note_on_c, 4, 52, 110
6, 104400, Note_on_c, 4, 49, 110
6, 104575, Note_off_c, 4, 49, 127
6, 105120, Note_on_c, 4, 56, 110
6, 105120, Note_on_c, 4, 52, 110
6, 105120, Note_on_c, 4, 47, 110
6, 105519, Note_off_c, 4, 47, 127
6, 105600, Note_on_c, 4, 47, 110
6, 105834, Note_off_c, 4, 47, 127
6, 105840, Note_on_c, 4, 49, 110
6, 106480, Note_off_c, 4, 49, 127
6, 106560, Note_on_c, 4, 57, 110
6, 106560, Note_on_c, 4, 56, 110
6, 106675, Note_off_c, 4, 56, 127
6, 107279, Note_on_c, 4, 57, 110
6, 107279, Note_on_c, 4, 54, 110
6, 107395, Note_off_c, 4, 54, 127
6, 107999, Note_on_c, 4, 57, 110
6, 107999, Note_on_c, 4, 52, 110
6, 108400, Note_off_c, 4, 52, 127
6, 108480, Note_on_c, 4, 52, 110
6, 108715, Note_off_c, 4, 52, 127
6, 108719, Note_on_c, 4, 57, 110
6, 108719, Note_on_c, 4, 51, 110
6, 108835, Note_off_c, 4, 51, 127
6, 109439, Note_on_c, 4, 56, 110
6, 109439, Note_on_c, 4, 52, 110
6, 109439, Note_on_c, 4, 51, 110
6, 109555, Note_off_c, 4, 51, 127
6, 110159, Note_on_c, 4, 56, 110
6, 110159, Note_on_c, 4, 52, 110
6, 110159, Note_on_c, 4, 49, 110
6, 110275, Note_off_c, 4, 49, 127
6, 110879, Note_on_c, 4, 56, 110
6, 110879, Note_on_c, 4, 52, 110
6, 110879, Note_on_c, 4, 47, 110
6, 111280, Note_off_c, 4, 47, 127
6, 111360, Note_on_c, 4, 47, 110
6, 111595, Note_off_c, 4, 47, 127
6, 111599, Note_on_c, 4, 49, 110
6, 111834, Note_off_c, 4, 49, 127
6, 111840, Note_on_c, 4, 52, 110
6, 112074, Note_off_c, 4, 52, 127
6, 112080, Note_on_c, 4, 59, 110
6, 112315, Note_off_c, 4, 59, 127
6, 112319, Note_on_c, 4, 57, 110
6, 112319, Note_on_c, 4, 56, 110
6, 112554, Note_off_c, 4, 56, 127
6, 113039, Note_on_c, 4, 57, 110
6, 113039, Note_on_c, 4, 54, 110
6, 113154, Note_off_c, 4, 54, 127
6, 113759, Note_on_c, 4, 57, 110
6, 113759, Note_on_c, 4, 52, 110
6, 114160, Note_off_c, 4, 52, 127
6, 114239, Note_on_c, 4, 52, 110
6, 114475, Note_off_c, 4, 52, 127
6, 114479, Note_on_c, 4, 57, 110
6, 114479, Note_on_c, 4, 51, 110
6, 114879, Note_off_c, 4, 51, 127
6, 114959, Note_on_c, 4, 51, 110
6, 115195, Note_off_c, 4, 51, 127
6, 115199, Note_on_c, 4, 56, 110
6, 115199, Note_on_c, 4, 52, 110
6, 115199, Note_on_c, 4, 51, 110
6, 115374, Note_off_c, 4, 51, 127
6, 115920, Note_on_c, 4, 56, 110
6, 115920, Note_on_c, 4, 52, 110
6, 115920, Note_on_c, 4, 49, 110
6, 116034, Note_off_c, 4, 49, 127
6, 116640, Note_on_c, 4, 56, 110
6, 116640, Note_on_c, 4, 52, 110
6, 116640, Note_on_c, 4, 47, 110
6, 117039, Note_off_c, 4, 47, 127
6, 117119, Note_on_c, 4, 47, 110
6, 117354, Note_off_c, 4, 47, 127
6, 117360, Note_on_c, 4, 49, 110
6, 118000, Note_off_c, 4, 49, 127
6, 118080, Note_on_c, 4, 45, 110
6, 118314, Note_off_c, 4, 45, 127
6, 118319, Note_on_c, 4, 52, 110
6, 118555, Note_off_c, 4, 52, 127
6, 118559, Note_on_c, 4, 56, 110
6, 119640, Note_off_c, 4, 56, 127
6, 119759, Note_on_c, 4, 54, 110
6, 119995, Note_off_c, 4, 54, 127
6, 119999, Note_on_c, 4, 56, 110
6, 120234, Note_off_c, 4, 56, 127
6, 120240, Note_on_c, 4, 57, 110
6, 120475, Note_off_c, 4, 57, 127
6, 120479, Note_on_c, 4, 56, 110
6, 120715, Note_off_c, 4, 56, 127
6, 120719, Note_on_c, 4, 54, 110
6, 120954, Note_off_c, 4, 54, 127
6, 120960, Note_on_c, 4, 42, 110
6, 121195, Note_off_c, 4, 42, 127
6, 121199, Note_on_c, 4, 49, 110
6, 121434, Note_off_c, 4, 49, 127
6, 121440, Note_on_c, 4, 52, 110
6, 122519, Note_off_c, 4, 52, 127
6, 122639, Note_on_c, 4, 54, 110
6, 122874, Note_off_c, 4, 54, 127
6, 122880, Note_on_c, 4, 56, 110
6, 123114, Note_off_c, 4, 56, 127
6, 123120, Note_on_c, 4, 52, 110
6, 123355, Note_off_c, 4, 52, 127
6, 123359, Note_on_c, 4, 49, 110
6, 123594, Note_off_c, 4, 49, 127
6, 123600, Note_on_c, 4, 47, 110
6, 123834, Note_off_c, 4, 47, 127
6, 124079, Note_on_c, 4, 44, 110
6, 124314, Note_off_c, 4, 44, 127
6, 124320, Note_on_c, 4, 49, 110
6, 124555, Note_off_c, 4, 49, 127
6, 124559, Note_on_c, 4, 51, 110
6, 124795, Note_off_c, 4, 51, 127
6, 124799, Note_on_c, 4, 52, 110
6, 125034, Note_off_c, 4, 52, 127
6, 125040, Note_on_c, 4, 54, 110
6, 125515, Note_off_c, 4, 54, 127
6, 125519, Note_on_c, 4, 56, 110
6, 125754, Note_off_c, 4, 56, 127
6, 125760, Note_on_c, 4, 59, 110
6, 125995, Note_off_c, 4, 59, 127
6, 125999, Note_on_c, 4, 54, 110
6, 126235, Note_off_c, 4, 54, 127
6, 126239, Note_on_c, 4, 52, 110
6, 126474, Note_off_c, 4, 52, 127
6, 126480, Note_on_c, 4, 44, 110
6, 126715, Note_off_c, 4, 44, 127
6, 126960, Note_on_c, 4, 44, 110
6, 127194, Note_off_c, 4, 44, 127
6, 127200, Note_on_c, 4, 49, 110
6, 127435, Note_off_c, 4, 49, 127
6, 127439, Note_on_c, 4, 51, 110
6, 127674, Note_off_c, 4, 51, 127
6, 127680, Note_on_c, 4, 52, 110
6, 127914, Note_off_c, 4, 52, 127
6, 127920, Note_on_c, 4, 54, 110
6, 128560, Note_off_c, 4, 54, 127
6, 128640, Note_on_c, 4, 56, 110
6, 128875, Note_off_c, 4, 56, 127
6, 128879, Note_on_c, 4, 54, 110
6, 129114, Note_off_c, 4, 54, 127
6, 129120, Note_on_c, 4, 52, 110
6, 129354, Note_off_c, 4, 52, 127
6, 129359, Note_on_c, 4, 51, 110
6, 129595, Note_off_c, 4, 51, 127
6, 129599, Note_on_c, 4, 45, 110
6, 129834, Note_off_c, 4, 45, 127
6, 129840, Note_on_c, 4, 52, 110
6, 130075, Note_off_c, 4, 52, 127
6, 130079, Note_on_c, 4, 56, 110
6, 131160, Note_off_c, 4, 56, 127
6, 131280, Note_on_c, 4, 54, 110
6, 131515, Note_off_c, 4, 54, 127
6, 131519, Note_on_c, 4, 56, 110
6, 131755, Note_off_c, 4, 56, 127
6, 131759, Note_on_c, 4, 57, 110
6, 131994, Note_off_c, 4, 57, 127
6, 132000, Note_on_c, 4, 56, 110
6, 132235, Note_off_c, 4, 56, 127
6, 132239, Note_on_c, 4, 54, 110
6, 132474, Note_off_c, 4, 54, 127
6, 132480, Note_on_c, 4, 42, 110
6, 132714, Note_off_c, 4, 42, 127
6, 132720, Note_on_c, 4, 49, 110
6, 132955, Note_off_c, 4, 49, 127
6, 132959, Note_on_c, 4, 52, 110
6, 133194, Note_off_c, 4, 52, 127
6, 133200, Note_on_c, 4, 54, 110
6, 134040, Note_off_c, 4, 54, 127
6, 134160, Note_on_c, 4, 54, 110
6, 134395, Note_off_c, 4, 54, 127
6, 134399, Note_on_c, 4, 56, 110
6, 134634, Note_off_c, 4, 56, 127
6, 134640, Note_on_c, 4, 52, 110
6, 134874, Note_off_c, 4, 52, 127
6, 134879, Note_on_c, 4, 51, 110
6, 135115, Note_off_c, 4, 51, 127
6, 135119, Note_on_c, 4, 47, 110
6, 135354, Note_off_c, 4, 47, 127
6, 135599, Note_on_c, 4, 42, 110
6, 135835, Note_off_c, 4, 42, 127
6, 135839, Note_on_c, 4, 49, 110
6, 136074, Note_off_c, 4, 49, 127
6, 136080, Note_on_c, 4, 51, 110
6, 138234, Note_off_c, 4, 51, 127
6, 138240, Note_on_c, 4, 59, 110
6, 140394, Note_off_c, 4, 59, 127
6, 140399, Note_on_c, 4, 47, 110
6, 141040, Note_off_c, 4, 47, 127
6, 145439, Note_on_c, 4, 59, 110
6, 146079, Note_off_c, 4, 59, 127
6, 151200, Note_on_c, 4, 59, 110
6, 151840, Note_off_c, 4, 59, 127
6, 156959, Note_on_c, 4, 59, 110
6, 157600, Note_off_c, 4, 59, 127
6, 162719, Note_on_c, 4, 59, 110
6, 163359, Note_off_c, 4, 59, 127
6, 164159, Note_on_c, 4, 57, 110
6, 166314, Note_off_c, 4, 57, 127
6, 167040, Note_on_c, 4, 54, 110
6, 169194, Note_off_c, 4, 54, 127
6, 169679, Note_on_c, 4, 59, 110
6, 169914, Note_off_c, 4, 59, 127
6, 169920, Note_on_c, 4, 49, 110
6, 170155, Note_off_c, 4, 49, 127
6, 170159, Note_on_c, 4, 56, 110
6, 172439, Note_off_c, 4, 56, 127
6, 172560, Note_on_c, 4, 56, 110
6, 172794, Note_off_c, 4, 56, 127
6, 172800, Note_on_c, 4, 49, 110
6, 173035, Note_off_c, 4, 49, 127
6, 173039, Note_on_c, 4, 56, 110
6, 175675, Note_off_c, 4, 56, 127
6, 175679, Note_on_c, 4, 45, 110
6, 175915, Note_off_c, 4, 45, 127
6, 175919, Note_on_c, 4, 52, 110
6, 176154, Note_off_c, 4, 52, 127
6, 176160, Note_on_c, 4, 56, 110
6, 177239, Note_off_c, 4, 56, 127
6, 177360, Note_on_c, 4, 54, 110
6, 177594, Note_off_c, 4, 54, 127
6, 177600, Note_on_c, 4, 56, 110
6, 177835, Note_off_c, 4, 56, 127
6, 177839, Note_on_c, 4, 57, 110
6, 178074, Note_off_c, 4, 57, 127
6, 178080, Note_on_c, 4, 56, 110
6, 178314, Note_off_c, 4, 56, 127
6, 178320, Note_on_c, 4, 54, 110
6, 178555, Note_off_c, 4, 54, 127
6, 178559, Note_on_c, 4, 42, 110
6, 178794, Note_off_c, 4, 42, 127
6, 178800, Note_on_c, 4, 49, 110
6, 179034, Note_off_c, 4, 49, 127
6, 179039, Note_on_c, 4, 52, 110
6, 179275, Note_off_c, 4, 52, 127
6, 179279, Note_on_c, 4, 54, 110
6, 180120, Note_off_c, 4, 54, 127
6, 180240, Note_on_c, 4, 54, 110
6, 180475, Note_off_c, 4, 54, 127
6, 180479, Note_on_c, 4, 56, 110
6, 180715, Note_off_c, 4, 56, 127
6, 180719, Note_on_c, 4, 52, 110
6, 180954, Note_off_c, 4, 52, 127
6, 180960, Note_on_c, 4, 51, 110
6, 181195, Note_off_c, 4, 51, 127
6, 181199, Note_on_c, 4, 47, 110
6, 181435, Note_off_c, 4, 47, 127
6, 181680, Note_on_c, 4, 42, 110
6, 181915, Note_off_c, 4, 42, 127
6, 181919, Note_on_c, 4, 49, 110
6, 182154, Note_off_c, 4, 49, 127
6, 182160, Note_on_c, 4, 51, 110
6, 184314, Note_off_c, 4, 51, 127
6, 184320, Note_on_c, 4, 59, 110
6, 186474, Note_off_c, 4, 59, 127
6, 186480, Note_on_c, 4, 47, 110
6, 187120, Note_off_c, 4, 47, 127
6, 187200, Note_on_c, 4, 45, 110
6, 187435, Note_off_c, 4, 45, 127
6, 187439, Note_on_c, 4, 52, 110
6, 187674, Note_off_c, 4, 52, 127
6, 187680, Note_on_c, 4, 57, 110
6, 190074, Note_off_c, 4, 57, 127
6, 190079, Note_on_c, 4, 44, 110
6, 190315, Note_off_c, 4, 44, 127
6, 190319, Note_on_c, 4, 52, 110
6, 190554, Note_off_c, 4, 52, 127
6, 190560, Note_on_c, 4, 59, 110
6, 192955, Note_off_c, 4, 59, 127
6, 192959, Note_on_c, 4, 45, 110
6, 193194, Note_off_c, 4, 45, 127
6, 193200, Note_on_c, 4, 52, 110
6, 193434, Note_off_c, 4, 52, 127
6, 193440, Note_on_c, 4, 57, 110
6, 195835, Note_off_c, 4, 57, 127
6, 195839, Note_on_c, 4, 49, 110
6, 196074, Note_off_c, 4, 49, 127
6, 196080, Note_on_c, 4, 56, 110
6, 196960, Note_off_c, 4, 56, 127
6, 197039, Note_on_c, 4, 56, 110
6, 197275, Note_off_c, 4, 56, 127
6, 197279, Note_on_c, 4, 47, 110
6, 197514, Note_off_c, 4, 47, 127
6, 197520, Note_on_c, 4, 56, 110
6, 198639, Note_off_c, 4, 56, 127
6, 198720, Note_on_c, 4, 45, 110
6, 198954, Note_off_c, 4, 45, 127
6, 198960, Note_on_c, 4, 52, 110
6, 199195, Note_off_c, 4, 52, 127
6, 199199, Note_on_c, 4, 57, 110
6, 201594, Note_off_c, 4, 57, 127
6, 201600, Note_on_c, 4, 44, 110
6, 201835, Note_off_c, 4, 44, 127
6, 201839, Note_on_c, 4, 52, 110
6, 202075, Note_off_c, 4, 52, 127
6, 202079, Note_on_c, 4, 59, 110
6, 202555, Note_off_c, 4, 59, 127
6, 202559, Note_on_c, 4, 59, 110
6, 202795, Note_off_c, 4, 59, 127
6, 202799, Note_on_c, 4, 52, 110
6, 203034, Note_off_c, 4, 52, 127
6, 203040, Note_on_c, 4, 49, 110
6, 203275, Note_off_c, 4, 49, 127
6, 203279, Note_on_c, 4, 56, 110
6, 203680, Note_off_c, 4, 56, 127
6, 203760, Note_on_c, 4, 47, 110
6, 203995, Note_off_c, 4, 47, 127
6, 203999, Note_on_c, 4, 56, 110
6, 204234, Note_off_c, 4, 56, 127
6, 204240, Note_on_c, 4, 59, 110
6, 204474, Note_off_c, 4, 59, 127
6, 204480, Note_on_c, 4, 42, 110
6, 204715, Note_off_c, 4, 42, 127
6, 204719, Note_on_c, 4, 52, 110
6, 204954, Note_off_c, 4, 52, 127
6, 204960, Note_on_c, 4, 57, 110
6, 206520, Note_off_c, 4, 57, 127
6, 206639, Note_on_c, 4, 57, 110
6, 206875, Note_off_c, 4, 57, 127
6, 206879, Note_on_c, 4, 52, 110
6, 207114, Note_off_c, 4, 52, 127
6, 207120, Note_on_c, 4, 49, 110
6, 207355, Note_off_c, 4, 49, 127
6, 207359, Note_on_c, 4, 57, 110
6, 207359, Note_on_c, 4, 47, 110
6, 207595, Note_off_c, 4, 47, 127
6, 207599, Note_on_c, 4, 52, 110
6, 207834, Note_off_c, 4, 52, 127
6, 207840, Note_on_c, 4, 54, 110
6, 208075, Note_off_c, 4, 54, 127
6, 208079, Note_on_c, 4, 57, 110
6, 208315, Note_off_c, 4, 57, 127
6, 208319, Note_on_c, 4, 54, 110
6, 208554, Note_off_c, 4, 54, 127
6, 208560, Note_on_c, 4, 52, 110
6, 208795, Note_off_c, 4, 52, 127
6, 208799, Note_on_c, 4, 47, 110
6, 209035, Note_off_c, 4, 47, 127
6, 209039, Note_on_c, 4, 42, 110
6, 209274, Note_off_c, 4, 42, 127
6, 209280, Note_on_c, 4, 47, 110
6, 210115, Note_off_c, 4, 47, 127
6, 210119, Note_on_c, 4, 45, 110
6, 210175, Note_off_c, 4, 45, 127
6, 210179, Note_on_c, 4, 48, 110
6, 210179, Note_on_c, 4, 52, 110
6, 210235, Note_off_c, 4, 48, 127
6, 210239, Note_on_c, 4, 55, 110
6, 211615, Note_off_c, 4, 55, 127
6, 211619, Note_on_c, 4, 55, 110
6, 211619, Note_on_c, 4, 52, 110
6, 211675, Note_off_c, 4, 52, 127
6, 211679, Note_on_c, 4, 59, 110
6, 213055, Note_off_c, 4, 59, 127
6, 213059, Note_on_c, 4, 57, 110
6, 214614, Note_off_c, 4, 57, 127
6, 215879, Note_on_c, 4, 55, 110
6, 215879, Note_on_c, 4, 48, 110
6, 217255, Note_off_c, 4, 48, 127
6, 217259, Note_on_c, 4, 45, 110
6, 217315, Note_off_c, 4, 45, 127
6, 217319, Note_on_c, 4, 52, 110
6, 217374, Note_off_c, 4, 52, 127
6, 217380, Note_on_c, 4, 57, 110
6, 218760, Note_off_c, 4, 57, 127
6, 219119, Note_on_c, 4, 45, 110
6, 219355, Note_off_c, 4, 45, 127
6, 219359, Note_on_c, 4, 49, 110
6, 219594, Note_off_c, 4, 49, 127
6, 219600, Note_on_c, 4, 57, 110
6, 219835, Note_off_c, 4, 57, 127
6, 219839, Note_on_c, 4, 52, 110
6, 220075, Note_off_c, 4, 52, 127
6, 220079, Note_on_c, 4, 59, 110
6, 220314, Note_off_c, 4, 59, 127
6, 220320, Note_on_c, 4, 57, 110
6, 221640, Note_off_c, 4, 57, 127
6, 221760, Note_on_c, 4, 47, 110
6, 221995, Note_off_c, 4, 47, 127
6, 221999, Note_on_c, 4, 57, 110
6, 224635, Note_off_c, 4, 57, 127
6, 224759, Note_on_c, 4, 42, 110
6, 224875, Note_off_c, 4, 42, 127
6, 224879, Note_on_c, 4, 45, 110
6, 224994, Note_off_c, 4, 45, 127
6, 225000, Note_on_c, 4, 49, 110
6, 225114, Note_off_c, 4, 49, 127
6, 225120, Note_on_c, 4, 52, 110
6, 225234, Note_off_c, 4, 52, 127
6, 225240, Note_on_c, 4, 57, 110
6, 225355, Note_off_c, 4, 57, 127
6, 225359, Note_on_c, 4, 47, 110
6, 225475, Note_off_c, 4, 47, 127
6, 225479, Note_on_c, 4, 54, 110
6, 225595, Note_off_c, 4, 54, 127
6, 225599, Note_on_c, 4, 57, 110
6, 225999, Note_off_c, 4, 57, 127
6, 228959, Note_on_c, 4, 59, 110
6, 230279, Note_off_c, 4, 59, 127
6, 231840, Note_on_c, 4, 59, 110
6, 232479, Note_off_c, 4, 59, 127
6, 232560, Note_on_c, 4, 47, 110
6, 233199, Note_off_c, 4, 47, 127
6, 233280, Note_on_c, 4, 52, 110
6, 233514, Note_off_c, 4, 52, 127
6, 233520, Note_on_c, 4, 54, 110
6, 233755, Note_off_c, 4, 54, 127
6, 233759, Note_on_c, 4, 59, 110
6, 234640, Note_off_c, 4, 59, 127
6, 234720, Note_on_c, 4, 54, 110
6, 234720, Note_on_c, 4, 47, 110
6, 236040, Note_off_c, 4, 47, 127
6, 236160, Note_on_c, 4, 40, 110
6, 237480, Note_off_c, 4, 40, 127
6, 237600, Note_on_c, 4, 45, 110
6, 238920, Note_off_c, 4, 45, 127
6, 239759, Note_on_c, 4, 43, 110
6, 239759, Note_on_c, 4, 53, 110
6, 239759, Note_on_c, 4, 50, 110
6, 239995, Note_off_c, 4, 43, 127
6, 239999, Note_on_c, 4, 45, 110
6, 239999, Note_on_c, 4, 52, 110
6, 240234, Note_off_c, 4, 45, 127
6, 240240, Note_on_c, 4, 47, 110
6, 240475, Note_off_c, 4, 47, 127
6, 240479, Note_on_c, 4, 38, 110
6, 241120, Note_off_c, 4, 38, 127
6, 241199, Note_on_c, 4, 50, 110
6, 241839, Note_off_c, 4, 50, 127
6, 244799, End_track
7, 0, Start_track
7, 0, Title_t, "Track 3-2"
7, 0, Control_c, 5, 32, 0
7, 0, Control_c, 5, 0, 0
7, 0, Control_c, 5, 10, 64
7, 0, Control_c, 5, 7, 127
7, 0, Control_c, 5, 91, 0
7, 0, Control_c, 5, 7, 127
7, 0, Control_c, 5, 93, 0
7, 0, Control_c, 5, 10, 64
7, 0, Control_c, 5, 121, 0
7, 0, Program_c, 5, 0
7, 43199, Note_on_c, 5, 37, 110
7, 43839, Note_off_c, 5, 37, 127
7, 46079, Note_on_c, 5, 37, 110
7, 47754, Note_off_c, 5, 37, 127
7, 54720, Note_on_c, 5, 35, 110
7, 57480, Note_off_c, 5, 35, 127
7, 82800, Note_on_c, 5, 35, 110
7, 83439, Note_off_c, 5, 35, 127
7, 123839, Note_on_c, 5, 37, 110
7, 124480, Note_off_c, 5, 37, 127
7, 126719, Note_on_c, 5, 37, 110
7, 128394, Note_off_c, 5, 37, 127
7, 135360, Note_on_c, 5, 35, 110
7, 138120, Note_off_c, 5, 35, 127
7, 181439, Note_on_c, 5, 35, 110
7, 184199, Note_off_c, 5, 35, 127
7, 209519, Note_on_c, 5, 35, 110
7, 210159, Note_off_c, 5, 35, 127
7, 218880, Note_on_c, 5, 35, 110
7, 221640, Note_off_c, 5, 35, 127
7, 224639, Note_on_c, 5, 35, 110
7, 224875, Note_off_c, 5, 35, 127
7, 235440, Note_on_c, 5, 35, 110
7, 236080, Note_off_c, 5, 35, 127
7, 237600, Note_on_c, 5, 35, 110
7, 238920, Note_off_c, 5, 35, 127
7, 239040, Note_on_c, 5, 26, 110
7, 239680, Note_off_c, 5, 26, 127
7, 241919, Note_on_c, 5, 28, 110
7, 242559, Note_off_c, 5, 28, 127
7, 244799, End_track
0, 0, End_of_file
