0, 0, Header, 1, 6, 480
1, 0, Start_track
1, 0, Copyright_t, "Copyright (c) xxxx Copyright Holder"
1, 0, Cue_point_t, "Created by Rosegarden"
1, 0, Cue_point_t, "http://www.rosegardenmusic.com/"
1, 0, Tempo, 438596
1, 0, Time_signature, 4, 2, 24, 8
1, 203519, End_track
2, 0, Start_track
2, 0, Title_t, "Staff"
2, 0, Control_c, 0, 0, 0
2, 0, Control_c, 0, 10, 64
2, 0, Control_c, 0, 121, 0
2, 0, Program_c, 0, 73
2, 0, Note_on_c, 0, 76, 110
2, 0, Control_c, 0, 91, 0
2, 0, Control_c, 0, 32, 0
2, 0, Control_c, 0, 7, 127
2, 0, Control_c, 0, 93, 0
2, 839, Note_off_c, 0, 76, 127
2, 960, Note_on_c, 0, 74, 110
2, 1359, Note_off_c, 0, 74, 127
2, 1439, Note_on_c, 0, 76, 110
2, 1839, Note_off_c, 0, 76, 127
2, 1919, Note_on_c, 0, 74, 110
2, 3720, Note_off_c, 0, 74, 127
2, 3839, Note_on_c, 0, 72, 110
2, 4679, Note_off_c, 0, 72, 127
2, 4800, Note_on_c, 0, 71, 110
2, 5200, Note_off_c, 0, 71, 127
2, 5279, Note_on_c, 0, 72, 110
2, 5679, Note_off_c, 0, 72, 127
2, 5759, Note_on_c, 0, 71, 110
2, 6600, Note_off_c, 0, 71, 127
2, 6720, Note_on_c, 0, 67, 110
2, 7559, Note_off_c, 0, 67, 127
2, 7679, Note_on_c, 0, 69, 110
2, 8079, Note_off_c, 0, 69, 127
2, 8159, Note_on_c, 0, 67, 110
2, 8559, Note_off_c, 0, 67, 127
2, 8640, Note_on_c, 0, 69, 110
2, 9040, Note_off_c, 0, 69, 127
2, 9120, Note_on_c, 0, 71, 110
2, 9520, Note_off_c, 0, 71, 127
2, 9599, Note_on_c, 0, 72, 110
2, 9999, Note_off_c, 0, 72, 127
2, 10079, Note_on_c, 0, 74, 110
2, 10479, Note_off_c, 0, 74, 127
2, 10560, Note_on_c, 0, 76, 110
2, 10960, Note_off_c, 0, 76, 127
2, 11040, Note_on_c, 0, 78, 110
2, 11440, Note_off_c, 0, 78, 127
2, 11519, Note_on_c, 0, 79, 110
2, 12360, Note_off_c, 0, 79, 127
2, 12479, Note_on_c, 0, 77, 110
2, 12879, Note_off_c, 0, 77, 127
2, 12960, Note_on_c, 0, 76, 110
2, 13360, Note_off_c, 0, 76, 127
2, 13440, Note_on_c, 0, 74, 110
2, 15239, Note_off_c, 0, 74, 127
2, 15360, Note_on_c, 0, 76, 110
2, 15760, Note_off_c, 0, 76, 127
2, 15839, Note_on_c, 0, 71, 110
2, 16239, Note_off_c, 0, 71, 127
2, 16319, Note_on_c, 0, 68, 110
2, 16719, Note_off_c, 0, 68, 127
2, 16799, Note_on_c, 0, 71, 110
2, 17200, Note_off_c, 0, 71, 127
2, 17280, Note_on_c, 0, 76, 110
2, 18119, Note_off_c, 0, 76, 127
2, 18239, Note_on_c, 0, 74, 110
2, 19080, Note_off_c, 0, 74, 127
2, 19200, Note_on_c, 0, 72, 110
2, 19600, Note_off_c, 0, 72, 127
2, 19680, Note_on_c, 0, 74, 110
2, 20080, Note_off_c, 0, 74, 127
2, 20159, Note_on_c, 0, 76, 110
2, 20559, Note_off_c, 0, 76, 127
2, 20639, Note_on_c, 0, 72, 110
2, 21039, Note_off_c, 0, 72, 127
2, 21120, Note_on_c, 0, 81, 110
2, 21959, Note_off_c, 0, 81, 127
2, 22079, Note_on_c, 0, 79, 110
2, 22479, Note_off_c, 0, 79, 127
2, 22559, Note_on_c, 0, 77, 110
2, 22959, Note_off_c, 0, 77, 127
2, 23039, Note_on_c, 0, 76, 110
2, 23879, Note_off_c, 0, 76, 127
2, 24000, Note_on_c, 0, 77, 110
2, 24400, Note_off_c, 0, 77, 127
2, 24479, Note_on_c, 0, 76, 110
2, 24879, Note_off_c, 0, 76, 127
2, 24959, Note_on_c, 0, 74, 110
2, 26279, Note_off_c, 0, 74, 127
2, 26399, Note_on_c, 0, 72, 110
2, 26799, Note_off_c, 0, 72, 127
2, 26879, Note_on_c, 0, 72, 110
2, 30599, Note_off_c, 0, 72, 127
2, 30719, Note_on_c, 0, 76, 110
2, 31560, Note_off_c, 0, 76, 127
2, 31680, Note_on_c, 0, 74, 110
2, 32080, Note_off_c, 0, 74, 127
2, 32160, Note_on_c, 0, 76, 110
2, 32560, Note_off_c, 0, 76, 127
2, 32639, Note_on_c, 0, 74, 110
2, 34439, Note_off_c, 0, 74, 127
2, 34560, Note_on_c, 0, 72, 110
2, 35400, Note_off_c, 0, 72, 127
2, 35519, Note_on_c, 0, 71, 110
2, 35919, Note_off_c, 0, 71, 127
2, 36000, Note_on_c, 0, 72, 110
2, 36400, Note_off_c, 0, 72, 127
2, 36480, Note_on_c, 0, 71, 110
2, 37319, Note_off_c, 0, 71, 127
2, 37439, Note_on_c, 0, 67, 110
2, 38280, Note_off_c, 0, 67, 127
2, 38400, Note_on_c, 0, 69, 110
2, 38800, Note_off_c, 0, 69, 127
2, 38879, Note_on_c, 0, 67, 110
2, 39279, Note_off_c, 0, 67, 127
2, 39359, Note_on_c, 0, 69, 110
2, 39759, Note_off_c, 0, 69, 127
2, 39839, Note_on_c, 0, 71, 110
2, 40239, Note_off_c, 0, 71, 127
2, 40320, Note_on_c, 0, 72, 110
2, 40720, Note_off_c, 0, 72, 127
2, 40800, Note_on_c, 0, 74, 110
2, 41200, Note_off_c, 0, 74, 127
2, 41279, Note_on_c, 0, 76, 110
2, 41679, Note_off_c, 0, 76, 127
2, 41759, Note_on_c, 0, 78, 110
2, 42159, Note_off_c, 0, 78, 127
2, 42240, Note_on_c, 0, 79, 110
2, 43079, Note_off_c, 0, 79, 127
2, 43199, Note_on_c, 0, 77, 110
2, 43599, Note_off_c, 0, 77, 127
2, 43679, Note_on_c, 0, 76, 110
2, 44079, Note_off_c, 0, 76, 127
2, 44159, Note_on_c, 0, 74, 110
2, 45960, Note_off_c, 0, 74, 127
2, 46079, Note_on_c, 0, 76, 110
2, 46479, Note_off_c, 0, 76, 127
2, 46560, Note_on_c, 0, 71, 110
2, 46960, Note_off_c, 0, 71, 127
2, 47040, Note_on_c, 0, 68, 110
2, 47440, Note_off_c, 0, 68, 127
2, 47519, Note_on_c, 0, 71, 110
2, 47919, Note_off_c, 0, 71, 127
2, 47999, Note_on_c, 0, 76, 110
2, 48840, Note_off_c, 0, 76, 127
2, 48960, Note_on_c, 0, 74, 110
2, 49799, Note_off_c, 0, 74, 127
2, 49919, Note_on_c, 0, 72, 110
2, 50319, Note_off_c, 0, 72, 127
2, 50399, Note_on_c, 0, 74, 110
2, 50799, Note_off_c, 0, 74, 127
2, 50880, Note_on_c, 0, 76, 110
2, 51280, Note_off_c, 0, 76, 127
2, 51360, Note_on_c, 0, 72, 110
2, 51760, Note_off_c, 0, 72, 127
2, 51839, Note_on_c, 0, 81, 110
2, 52680, Note_off_c, 0, 81, 127
2, 52800, Note_on_c, 0, 79, 110
2, 53200, Note_off_c, 0, 79, 127
2, 53280, Note_on_c, 0, 77, 110
2, 53680, Note_off_c, 0, 77, 127
2, 53759, Note_on_c, 0, 76, 110
2, 54600, Note_off_c, 0, 76, 127
2, 54720, Note_on_c, 0, 77, 110
2, 55120, Note_off_c, 0, 77, 127
2, 55200, Note_on_c, 0, 76, 110
2, 55600, Note_off_c, 0, 76, 127
2, 55680, Note_on_c, 0, 74, 110
2, 57000, Note_off_c, 0, 74, 127
2, 57120, Note_on_c, 0, 72, 110
2, 57520, Note_off_c, 0, 72, 127
2, 57600, Note_on_c, 0, 72, 110
2, 61320, Note_off_c, 0, 72, 127
2, 61440, Note_on_c, 0, 69, 110
2, 61840, Note_off_c, 0, 69, 127
2, 61920, Note_on_c, 0, 67, 110
2, 62320, Note_off_c, 0, 67, 127
2, 62399, Note_on_c, 0, 69, 110
2, 62799, Note_off_c, 0, 69, 127
2, 62879, Note_on_c, 0, 71, 110
2, 63279, Note_off_c, 0, 71, 127
2, 63360, Note_on_c, 0, 72, 110
2, 64199, Note_off_c, 0, 72, 127
2, 64319, Note_on_c, 0, 74, 110
2, 65160, Note_off_c, 0, 74, 127
2, 65280, Note_on_c, 0, 72, 110
2, 65919, Note_off_c, 0, 72, 127
2, 65999, Note_on_c, 0, 67, 110
2, 66235, Note_off_c, 0, 67, 127
2, 66239, Note_on_c, 0, 67, 110
2, 69000, Note_off_c, 0, 67, 127
2, 69119, Note_on_c, 0, 71, 110
2, 69519, Note_off_c, 0, 71, 127
2, 69600, Note_on_c, 0, 69, 110
2, 70000, Note_off_c, 0, 69, 127
2, 70080, Note_on_c, 0, 71, 110
2, 70480, Note_off_c, 0, 71, 127
2, 70559, Note_on_c, 0, 72, 110
2, 70959, Note_off_c, 0, 72, 127
2, 71039, Note_on_c, 0, 74, 110
2, 71880, Note_off_c, 0, 74, 127
2, 72000, Note_on_c, 0, 77, 110
2, 72400, Note_off_c, 0, 77, 127
2, 72480, Note_on_c, 0, 74, 110
2, 72879, Note_off_c, 0, 74, 127
2, 72959, Note_on_c, 0, 76, 110
2, 76679, Note_off_c, 0, 76, 127
2, 76799, Note_on_c, 0, 69, 110
2, 77199, Note_off_c, 0, 69, 127
2, 77279, Note_on_c, 0, 67, 110
2, 77679, Note_off_c, 0, 67, 127
2, 77759, Note_on_c, 0, 69, 110
2, 78159, Note_off_c, 0, 69, 127
2, 78240, Note_on_c, 0, 71, 110
2, 78640, Note_off_c, 0, 71, 127
2, 78720, Note_on_c, 0, 72, 110
2, 79560, Note_off_c, 0, 72, 127
2, 79679, Note_on_c, 0, 71, 110
2, 80079, Note_off_c, 0, 71, 127
2, 80160, Note_on_c, 0, 69, 110
2, 80560, Note_off_c, 0, 69, 127
2, 80640, Note_on_c, 0, 66, 110
2, 81040, Note_off_c, 0, 66, 127
2, 81119, Note_on_c, 0, 64, 110
2, 81519, Note_off_c, 0, 64, 127
2, 81599, Note_on_c, 0, 66, 110
2, 81999, Note_off_c, 0, 66, 127
2, 82080, Note_on_c, 0, 67, 110
2, 82480, Note_off_c, 0, 67, 127
2, 82560, Note_on_c, 0, 69, 110
2, 82960, Note_off_c, 0, 69, 127
2, 83040, Note_on_c, 0, 71, 110
2, 83439, Note_off_c, 0, 71, 127
2, 83519, Note_on_c, 0, 72, 110
2, 83919, Note_off_c, 0, 72, 127
2, 83999, Note_on_c, 0, 76, 110
2, 84399, Note_off_c, 0, 76, 127
2, 84480, Note_on_c, 0, 74, 110
2, 84880, Note_off_c, 0, 74, 127
2, 84960, Note_on_c, 0, 71, 110
2, 85360, Note_off_c, 0, 71, 127
2, 85439, Note_on_c, 0, 69, 110
2, 85839, Note_off_c, 0, 69, 127
2, 85919, Note_on_c, 0, 67, 110
2, 86319, Note_off_c, 0, 67, 127
2, 86400, Note_on_c, 0, 62, 110
2, 86800, Note_off_c, 0, 62, 127
2, 86880, Note_on_c, 0, 67, 110
2, 87280, Note_off_c, 0, 67, 127
2, 87359, Note_on_c, 0, 71, 110
2, 87759, Note_off_c, 0, 71, 127
2, 87839, Note_on_c, 0, 74, 110
2, 88239, Note_off_c, 0, 74, 127
2, 88319, Note_on_c, 0, 76, 110
2, 89639, Note_off_c, 0, 76, 127
2, 89759, Note_on_c, 0, 77, 110
2, 89994, Note_off_c, 0, 77, 127
2, 90000, Note_on_c, 0, 76, 110
2, 90235, Note_off_c, 0, 76, 127
2, 90239, Note_on_c, 0, 74, 110
2, 92039, Note_off_c, 0, 74, 127
2, 92159, Note_on_c, 0, 76, 110
2, 93000, Note_off_c, 0, 76, 127
2, 93120, Note_on_c, 0, 74, 110
2, 93520, Note_off_c, 0, 74, 127
2, 93599, Note_on_c, 0, 76, 110
2, 93999, Note_off_c, 0, 76, 127
2, 94079, Note_on_c, 0, 74, 110
2, 95879, Note_off_c, 0, 74, 127
2, 95999, Note_on_c, 0, 72, 110
2, 96840, Note_off_c, 0, 72, 127
2, 96960, Note_on_c, 0, 71, 110
2, 97360, Note_off_c, 0, 71, 127
2, 97440, Note_on_c, 0, 72, 110
2, 97840, Note_off_c, 0, 72, 127
2, 97919, Note_on_c, 0, 71, 110
2, 98760, Note_off_c, 0, 71, 127
2, 98879, Note_on_c, 0, 67, 110
2, 99719, Note_off_c, 0, 67, 127
2, 99840, Note_on_c, 0, 69, 110
2, 100239, Note_off_c, 0, 69, 127
2, 100319, Note_on_c, 0, 67, 110
2, 100719, Note_off_c, 0, 67, 127
2, 100799, Note_on_c, 0, 69, 110
2, 101199, Note_off_c, 0, 69, 127
2, 101280, Note_on_c, 0, 71, 110
2, 101680, Note_off_c, 0, 71, 127
2, 101760, Note_on_c, 0, 72, 110
2, 102160, Note_off_c, 0, 72, 127
2, 102239, Note_on_c, 0, 74, 110
2, 102639, Note_off_c, 0, 74, 127
2, 102719, Note_on_c, 0, 76, 110
2, 103119, Note_off_c, 0, 76, 127
2, 103200, Note_on_c, 0, 78, 110
2, 103600, Note_off_c, 0, 78, 127
2, 103680, Note_on_c, 0, 79, 110
2, 104519, Note_off_c, 0, 79, 127
2, 104639, Note_on_c, 0, 77, 110
2, 105039, Note_off_c, 0, 77, 127
2, 105119, Note_on_c, 0, 76, 110
2, 105519, Note_off_c, 0, 76, 127
2, 105600, Note_on_c, 0, 74, 110
2, 107400, Note_off_c, 0, 74, 127
2, 107520, Note_on_c, 0, 76, 110
2, 107920, Note_off_c, 0, 76, 127
2, 108000, Note_on_c, 0, 71, 110
2, 108400, Note_off_c, 0, 71, 127
2, 108479, Note_on_c, 0, 68, 110
2, 108879, Note_off_c, 0, 68, 127
2, 108959, Note_on_c, 0, 71, 110
2, 109359, Note_off_c, 0, 71, 127
2, 109440, Note_on_c, 0, 76, 110
2, 110279, Note_off_c, 0, 76, 127
2, 110400, Note_on_c, 0, 74, 110
2, 111240, Note_off_c, 0, 74, 127
2, 111359, Note_on_c, 0, 72, 110
2, 111759, Note_off_c, 0, 72, 127
2, 111840, Note_on_c, 0, 74, 110
2, 112240, Note_off_c, 0, 74, 127
2, 112320, Note_on_c, 0, 76, 110
2, 112720, Note_off_c, 0, 76, 127
2, 112799, Note_on_c, 0, 72, 110
2, 113199, Note_off_c, 0, 72, 127
2, 113279, Note_on_c, 0, 81, 110
2, 114119, Note_off_c, 0, 81, 127
2, 114240, Note_on_c, 0, 79, 110
2, 114640, Note_off_c, 0, 79, 127
2, 114719, Note_on_c, 0, 77, 110
2, 115119, Note_off_c, 0, 77, 127
2, 115199, Note_on_c, 0, 76, 110
2, 116040, Note_off_c, 0, 76, 127
2, 116160, Note_on_c, 0, 77, 110
2, 116560, Note_off_c, 0, 77, 127
2, 116640, Note_on_c, 0, 76, 110
2, 117040, Note_off_c, 0, 76, 127
2, 117119, Note_on_c, 0, 74, 110
2, 118439, Note_off_c, 0, 74, 127
2, 118560, Note_on_c, 0, 72, 110
2, 118960, Note_off_c, 0, 72, 127
2, 119039, Note_on_c, 0, 72, 110
2, 122759, Note_off_c, 0, 72, 127
2, 122880, Note_on_c, 0, 69, 110
2, 123280, Note_off_c, 0, 69, 127
2, 123359, Note_on_c, 0, 67, 110
2, 123759, Note_off_c, 0, 67, 127
2, 123839, Note_on_c, 0, 69, 110
2, 124239, Note_off_c, 0, 69, 127
2, 124320, Note_on_c, 0, 71, 110
2, 124720, Note_off_c, 0, 71, 127
2, 124800, Note_on_c, 0, 72, 110
2, 125639, Note_off_c, 0, 72, 127
2, 125759, Note_on_c, 0, 74, 110
2, 126600, Note_off_c, 0, 74, 127
2, 126720, Note_on_c, 0, 72, 110
2, 127359, Note_off_c, 0, 72, 127
2, 127440, Note_on_c, 0, 67, 110
2, 127675, Note_off_c, 0, 67, 127
2, 127679, Note_on_c, 0, 67, 110
2, 130440, Note_off_c, 0, 67, 127
2, 130560, Note_on_c, 0, 71, 110
2, 130960, Note_off_c, 0, 71, 127
2, 131040, Note_on_c, 0, 69, 110
2, 131440, Note_off_c, 0, 69, 127
2, 131519, Note_on_c, 0, 71, 110
2, 131919, Note_off_c, 0, 71, 127
2, 131999, Note_on_c, 0, 72, 110
2, 132399, Note_off_c, 0, 72, 127
2, 132479, Note_on_c, 0, 74, 110
2, 133319, Note_off_c, 0, 74, 127
2, 133440, Note_on_c, 0, 77, 110
2, 133840, Note_off_c, 0, 77, 127
2, 133919, Note_on_c, 0, 74, 110
2, 134319, Note_off_c, 0, 74, 127
2, 134399, Note_on_c, 0, 76, 110
2, 138119, Note_off_c, 0, 76, 127
2, 138239, Note_on_c, 0, 69, 110
2, 138639, Note_off_c, 0, 69, 127
2, 138719, Note_on_c, 0, 67, 110
2, 139119, Note_off_c, 0, 67, 127
2, 139200, Note_on_c, 0, 69, 110
2, 139600, Note_off_c, 0, 69, 127
2, 139680, Note_on_c, 0, 71, 110
2, 140080, Note_off_c, 0, 71, 127
2, 140159, Note_on_c, 0, 72, 110
2, 141000, Note_off_c, 0, 72, 127
2, 141120, Note_on_c, 0, 71, 110
2, 141520, Note_off_c, 0, 71, 127
2, 141600, Note_on_c, 0, 69, 110
2, 142000, Note_off_c, 0, 69, 127
2, 142079, Note_on_c, 0, 66, 110
2, 142479, Note_off_c, 0, 66, 127
2, 142559, Note_on_c, 0, 64, 110
2, 142959, Note_off_c, 0, 64, 127
2, 143039, Note_on_c, 0, 66, 110
2, 143439, Note_off_c, 0, 66, 127
2, 143520, Note_on_c, 0, 67, 110
2, 143920, Note_off_c, 0, 67, 127
2, 144000, Note_on_c, 0, 69, 110
2, 144400, Note_off_c, 0, 69, 127
2, 144479, Note_on_c, 0, 71, 110
2, 144879, Note_off_c, 0, 71, 127
2, 144959, Note_on_c, 0, 72, 110
2, 145359, Note_off_c, 0, 72, 127
2, 145440, Note_on_c, 0, 76, 110
2, 145840, Note_off_c, 0, 76, 127
2, 145920, Note_on_c, 0, 74, 110
2, 146320, Note_off_c, 0, 74, 127
2, 146399, Note_on_c, 0, 71, 110
2, 146799, Note_off_c, 0, 71, 127
2, 146879, Note_on_c, 0, 69, 110
2, 147279, Note_off_c, 0, 69, 127
2, 147360, Note_on_c, 0, 67, 110
2, 147760, Note_off_c, 0, 67, 127
2, 147840, Note_on_c, 0, 62, 110
2, 148240, Note_off_c, 0, 62, 127
2, 148319, Note_on_c, 0, 67, 110
2, 148719, Note_off_c, 0, 67, 127
2, 148799, Note_on_c, 0, 71, 110
2, 149199, Note_off_c, 0, 71, 127
2, 149279, Note_on_c, 0, 74, 110
2, 149679, Note_off_c, 0, 74, 127
2, 149760, Note_on_c, 0, 76, 110
2, 151080, Note_off_c, 0, 76, 127
2, 151199, Note_on_c, 0, 77, 110
2, 151435, Note_off_c, 0, 77, 127
2, 151440, Note_on_c, 0, 76, 110
2, 151674, Note_off_c, 0, 76, 127
2, 151680, Note_on_c, 0, 74, 110
2, 153480, Note_off_c, 0, 74, 127
2, 153599, Note_on_c, 0, 76, 110
2, 154439, Note_off_c, 0, 76, 127
2, 154560, Note_on_c, 0, 74, 110
2, 154959, Note_off_c, 0, 74, 127
2, 155039, Note_on_c, 0, 76, 110
2, 155439, Note_off_c, 0, 76, 127
2, 155519, Note_on_c, 0, 74, 110
2, 157320, Note_off_c, 0, 74, 127
2, 157439, Note_on_c, 0, 72, 110
2, 158280, Note_off_c, 0, 72, 127
2, 158400, Note_on_c, 0, 71, 110
2, 158800, Note_off_c, 0, 71, 127
2, 158879, Note_on_c, 0, 72, 110
2, 159279, Note_off_c, 0, 72, 127
2, 159359, Note_on_c, 0, 71, 110
2, 160200, Note_off_c, 0, 71, 127
2, 160320, Note_on_c, 0, 67, 110
2, 161159, Note_off_c, 0, 67, 127
2, 161279, Note_on_c, 0, 69, 110
2, 161679, Note_off_c, 0, 69, 127
2, 161759, Note_on_c, 0, 67, 110
2, 162159, Note_off_c, 0, 67, 127
2, 162240, Note_on_c, 0, 69, 110
2, 162640, Note_off_c, 0, 69, 127
2, 162720, Note_on_c, 0, 71, 110
2, 163120, Note_off_c, 0, 71, 127
2, 163199, Note_on_c, 0, 72, 110
2, 163599, Note_off_c, 0, 72, 127
2, 163679, Note_on_c, 0, 74, 110
2, 164079, Note_off_c, 0, 74, 127
2, 164160, Note_on_c, 0, 76, 110
2, 164560, Note_off_c, 0, 76, 127
2, 164640, Note_on_c, 0, 78, 110
2, 165040, Note_off_c, 0, 78, 127
2, 165120, Note_on_c, 0, 79, 110
2, 165960, Note_off_c, 0, 79, 127
2, 166079, Note_on_c, 0, 77, 110
2, 166479, Note_off_c, 0, 77, 127
2, 166560, Note_on_c, 0, 76, 110
2, 166960, Note_off_c, 0, 76, 127
2, 167040, Note_on_c, 0, 74, 110
2, 168839, Note_off_c, 0, 74, 127
2, 168960, Note_on_c, 0, 76, 110
2, 169360, Note_off_c, 0, 76, 127
2, 169439, Note_on_c, 0, 71, 110
2, 169839, Note_off_c, 0, 71, 127
2, 169919, Note_on_c, 0, 68, 110
2, 170319, Note_off_c, 0, 68, 127
2, 170399, Note_on_c, 0, 71, 110
2, 170799, Note_off_c, 0, 71, 127
2, 170880, Note_on_c, 0, 76, 110
2, 171719, Note_off_c, 0, 76, 127
2, 171839, Note_on_c, 0, 74, 110
2, 172680, Note_off_c, 0, 74, 127
2, 172800, Note_on_c, 0, 72, 110
2, 173200, Note_off_c, 0, 72, 127
2, 173280, Note_on_c, 0, 74, 110
2, 173680, Note_off_c, 0, 74, 127
2, 173759, Note_on_c, 0, 76, 110
2, 174159, Note_off_c, 0, 76, 127
2, 174239, Note_on_c, 0, 72, 110
2, 174639, Note_off_c, 0, 72, 127
2, 174720, Note_on_c, 0, 81, 110
2, 175559, Note_off_c, 0, 81, 127
2, 175679, Note_on_c, 0, 79, 110
2, 176079, Note_off_c, 0, 79, 127
2, 176159, Note_on_c, 0, 77, 110
2, 176559, Note_off_c, 0, 77, 127
2, 176639, Note_on_c, 0, 76, 110
2, 177479, Note_off_c, 0, 76, 127
2, 177600, Note_on_c, 0, 77, 110
2, 178000, Note_off_c, 0, 77, 127
2, 178079, Note_on_c, 0, 76, 110
2, 178479, Note_off_c, 0, 76, 127
2, 178559, Note_on_c, 0, 74, 110
2, 179879, Note_off_c, 0, 74, 127
2, 179999, Note_on_c, 0, 72, 110
2, 180399, Note_off_c, 0, 72, 127
2, 180479, Note_on_c, 0, 72, 110
2, 184199, Note_off_c, 0, 72, 127
2, 184319, Note_on_c, 0, 76, 110
2, 184719, Note_off_c, 0, 76, 127
2, 184799, Note_on_c, 0, 71, 110
2, 185199, Note_off_c, 0, 71, 127
2, 185280, Note_on_c, 0, 68, 110
2, 185680, Note_off_c, 0, 68, 127
2, 185760, Note_on_c, 0, 71, 110
2, 186160, Note_off_c, 0, 71, 127
2, 186239, Note_on_c, 0, 76, 110
2, 187080, Note_off_c, 0, 76, 127
2, 187199, Note_on_c, 0, 74, 110
2, 188039, Note_off_c, 0, 74, 127
2, 188160, Note_on_c, 0, 72, 110
2, 188560, Note_off_c, 0, 72, 127
2, 188639, Note_on_c, 0, 74, 110
2, 189039, Note_off_c, 0, 74, 127
2, 189119, Note_on_c, 0, 76, 110
2, 189519, Note_off_c, 0, 76, 127
2, 189600, Note_on_c, 0, 72, 110
2, 190000, Note_off_c, 0, 72, 127
2, 190080, Note_on_c, 0, 81, 110
2, 190919, Note_off_c, 0, 81, 127
2, 191039, Note_on_c, 0, 79, 110
2, 191439, Note_off_c, 0, 79, 127
2, 191520, Note_on_c, 0, 77, 110
2, 191920, Note_off_c, 0, 77, 127
2, 192000, Note_on_c, 0, 76, 110
2, 192839, Note_off_c, 0, 76, 127
2, 192959, Note_on_c, 0, 77, 110
2, 193359, Note_off_c, 0, 77, 127
2, 193439, Note_on_c, 0, 76, 110
2, 193839, Note_off_c, 0, 76, 127
2, 193920, Note_on_c, 0, 74, 110
2, 195240, Note_off_c, 0, 74, 127
2, 195359, Note_on_c, 0, 72, 110
2, 195759, Note_off_c, 0, 72, 127
2, 195840, Note_on_c, 0, 72, 110
2, 203399, Note_off_c, 0, 72, 127
2, 203519, End_track
3, 0, Start_track
3, 0, Title_t, "Staff-4"
3, 30719, Note_on_c, 1, 67, 110
3, 30719, Note_on_c, 1, 64, 110
3, 30719, Note_on_c, 1, 60, 110
3, 30719, Control_c, 1, 91, 0
3, 30719, Control_c, 1, 7, 127
3, 30719, Control_c, 1, 93, 0
3, 30719, Control_c, 1, 10, 64
3, 30719, Control_c, 1, 121, 0
3, 30719, Program_c, 1, 49
3, 30719, Control_c, 1, 32, 0
3, 30719, Control_c, 1, 0, 0
3, 32519, Note_off_c, 1, 60, 127
3, 32639, Note_on_c, 1, 67, 110
3, 32639, Note_on_c, 1, 62, 110
3, 32639, Note_on_c, 1, 59, 110
3, 34439, Note_off_c, 1, 59, 127
3, 34560, Note_on_c, 1, 69, 110
3, 34560, Note_on_c, 1, 64, 110
3, 34560, Note_on_c, 1, 60, 110
3, 36359, Note_off_c, 1, 60, 127
3, 36480, Note_on_c, 1, 67, 110
3, 36480, Note_on_c, 1, 62, 110
3, 36480, Note_on_c, 1, 59, 110
3, 38280, Note_off_c, 1, 59, 127
3, 38400, Note_on_c, 1, 69, 110
3, 38400, Note_on_c, 1, 65, 110
3, 38400, Note_on_c, 1, 60, 110
3, 40200, Note_off_c, 1, 60, 127
3, 40320, Note_on_c, 1, 69, 110
3, 40320, Note_on_c, 1, 66, 110
3, 40320, Note_on_c, 1, 62, 110
3, 42120, Note_off_c, 1, 62, 127
3, 42240, Note_on_c, 1, 71, 110
3, 42240, Note_on_c, 1, 67, 110
3, 42240, Note_on_c, 1, 62, 110
3, 44040, Note_off_c, 1, 62, 127
3, 46079, Note_on_c, 1, 71, 110
3, 46079, Note_on_c, 1, 68, 110
3, 46079, Note_on_c, 1, 64, 110
3, 47880, Note_off_c, 1, 64, 127
3, 47999, Note_on_c, 1, 64, 110
3, 49799, Note_off_c, 1, 64, 127
3, 49919, Note_on_c, 1, 69, 110
3, 49919, Note_on_c, 1, 64, 110
3, 49919, Note_on_c, 1, 60, 110
3, 51719, Note_off_c, 1, 60, 127
3, 51839, Note_on_c, 1, 69, 110
3, 51839, Note_on_c, 1, 65, 110
3, 51839, Note_on_c, 1, 60, 110
3, 53639, Note_off_c, 1, 60, 127
3, 53759, Note_on_c, 1, 67, 110
3, 53759, Note_on_c, 1, 64, 110
3, 53759, Note_on_c, 1, 60, 110
3, 55559, Note_off_c, 1, 60, 127
3, 55680, Note_on_c, 1, 67, 110
3, 55680, Note_on_c, 1, 62, 110
3, 55680, Note_on_c, 1, 59, 110
3, 57479, Note_off_c, 1, 59, 127
3, 57600, Note_on_c, 1, 67, 110
3, 57600, Note_on_c, 1, 64, 110
3, 57600, Note_on_c, 1, 60, 110
3, 60359, Note_off_c, 1, 60, 127
3, 60479, Note_on_c, 1, 67, 110
3, 60479, Note_on_c, 1, 62, 110
3, 60479, Note_on_c, 1, 59, 110
3, 61320, Note_off_c, 1, 59, 127
3, 61440, Note_on_c, 1, 69, 110
3, 61440, Note_on_c, 1, 65, 110
3, 61440, Note_on_c, 1, 60, 110
3, 65160, Note_off_c, 1, 60, 127
3, 65280, Note_on_c, 1, 67, 110
3, 65280, Note_on_c, 1, 64, 110
3, 69000, Note_off_c, 1, 64, 127
3, 69119, Note_on_c, 1, 62, 110
3, 69119, Note_on_c, 1, 59, 110
3, 72839, Note_off_c, 1, 59, 127
3, 72959, Note_on_c, 1, 64, 110
3, 72959, Note_on_c, 1, 60, 110
3, 76679, Note_off_c, 1, 60, 127
3, 76799, Note_on_c, 1, 69, 110
3, 76799, Note_on_c, 1, 65, 110
3, 80519, Note_off_c, 1, 65, 127
3, 80640, Note_on_c, 1, 66, 110
3, 80640, Note_on_c, 1, 62, 110
3, 84360, Note_off_c, 1, 62, 127
3, 84480, Note_on_c, 1, 71, 110
3, 84480, Note_on_c, 1, 67, 110
3, 88200, Note_off_c, 1, 67, 127
3, 88319, Note_on_c, 1, 64, 110
3, 90120, Note_off_c, 1, 64, 127
3, 90239, Note_on_c, 1, 62, 110
3, 92039, Note_off_c, 1, 62, 127
3, 92159, Note_on_c, 1, 67, 110
3, 92159, Note_on_c, 1, 64, 110
3, 92159, Note_on_c, 1, 60, 110
3, 93959, Note_off_c, 1, 60, 127
3, 94079, Note_on_c, 1, 67, 110
3, 94079, Note_on_c, 1, 62, 110
3, 94079, Note_on_c, 1, 59, 110
3, 95879, Note_off_c, 1, 59, 127
3, 95999, Note_on_c, 1, 69, 110
3, 95999, Note_on_c, 1, 64, 110
3, 95999, Note_on_c, 1, 60, 110
3, 97799, Note_off_c, 1, 60, 127
3, 97919, Note_on_c, 1, 67, 110
3, 97919, Note_on_c, 1, 62, 110
3, 97919, Note_on_c, 1, 59, 110
3, 99719, Note_off_c, 1, 59, 127
3, 99840, Note_on_c, 1, 69, 110
3, 99840, Note_on_c, 1, 65, 110
3, 99840, Note_on_c, 1, 60, 110
3, 101639, Note_off_c, 1, 60, 127
3, 101760, Note_on_c, 1, 69, 110
3, 101760, Note_on_c, 1, 66, 110
3, 101760, Note_on_c, 1, 62, 110
3, 103560, Note_off_c, 1, 62, 127
3, 103680, Note_on_c, 1, 71, 110
3, 103680, Note_on_c, 1, 67, 110
3, 103680, Note_on_c, 1, 62, 110
3, 105480, Note_off_c, 1, 62, 127
3, 107520, Note_on_c, 1, 71, 110
3, 107520, Note_on_c, 1, 68, 110
3, 107520, Note_on_c, 1, 64, 110
3, 109320, Note_off_c, 1, 64, 127
3, 109440, Note_on_c, 1, 64, 110
3, 111240, Note_off_c, 1, 64, 127
3, 111359, Note_on_c, 1, 69, 110
3, 111359, Note_on_c, 1, 64, 110
3, 111359, Note_on_c, 1, 60, 110
3, 113160, Note_off_c, 1, 60, 127
3, 113279, Note_on_c, 1, 69, 110
3, 113279, Note_on_c, 1, 65, 110
3, 113279, Note_on_c, 1, 60, 110
3, 115079, Note_off_c, 1, 60, 127
3, 115199, Note_on_c, 1, 67, 110
3, 115199, Note_on_c, 1, 64, 110
3, 115199, Note_on_c, 1, 60, 110
3, 116999, Note_off_c, 1, 60, 127
3, 117119, Note_on_c, 1, 67, 110
3, 117119, Note_on_c, 1, 62, 110
3, 117119, Note_on_c, 1, 59, 110
3, 118919, Note_off_c, 1, 59, 127
3, 119039, Note_on_c, 1, 67, 110
3, 119039, Note_on_c, 1, 64, 110
3, 119039, Note_on_c, 1, 60, 110
3, 121800, Note_off_c, 1, 60, 127
3, 121919, Note_on_c, 1, 67, 110
3, 121919, Note_on_c, 1, 62, 110
3, 121919, Note_on_c, 1, 59, 110
3, 122759, Note_off_c, 1, 59, 127
3, 122880, Note_on_c, 1, 69, 110
3, 122880, Note_on_c, 1, 65, 110
3, 122880, Note_on_c, 1, 60, 110
3, 126600, Note_off_c, 1, 60, 127
3, 126720, Note_on_c, 1, 67, 110
3, 126720, Note_on_c, 1, 64, 110
3, 130440, Note_off_c, 1, 64, 127
3, 130560, Note_on_c, 1, 62, 110
3, 130560, Note_on_c, 1, 59, 110
3, 134280, Note_off_c, 1, 59, 127
3, 134399, Note_on_c, 1, 64, 110
3, 134399, Note_on_c, 1, 60, 110
3, 138119, Note_off_c, 1, 60, 127
3, 138239, Note_on_c, 1, 69, 110
3, 138239, Note_on_c, 1, 65, 110
3, 141959, Note_off_c, 1, 65, 127
3, 142079, Note_on_c, 1, 66, 110
3, 142079, Note_on_c, 1, 62, 110
3, 145799, Note_off_c, 1, 62, 127
3, 145920, Note_on_c, 1, 71, 110
3, 145920, Note_on_c, 1, 67, 110
3, 149640, Note_off_c, 1, 67, 127
3, 149760, Note_on_c, 1, 64, 110
3, 151560, Note_off_c, 1, 64, 127
3, 151680, Note_on_c, 1, 62, 110
3, 153480, Note_off_c, 1, 62, 127
3, 153599, Note_on_c, 1, 67, 110
3, 153599, Note_on_c, 1, 64, 110
3, 153599, Note_on_c, 1, 60, 110
3, 155400, Note_off_c, 1, 60, 127
3, 155519, Note_on_c, 1, 67, 110
3, 155519, Note_on_c, 1, 62, 110
3, 155519, Note_on_c, 1, 59, 110
3, 157320, Note_off_c, 1, 59, 127
3, 157439, Note_on_c, 1, 69, 110
3, 157439, Note_on_c, 1, 64, 110
3, 157439, Note_on_c, 1, 60, 110
3, 159239, Note_off_c, 1, 60, 127
3, 159359, Note_on_c, 1, 67, 110
3, 159359, Note_on_c, 1, 62, 110
3, 159359, Note_on_c, 1, 59, 110
3, 161159, Note_off_c, 1, 59, 127
3, 161279, Note_on_c, 1, 69, 110
3, 161279, Note_on_c, 1, 60, 110
3, 161279, Note_on_c, 1, 65, 110
3, 163079, Note_off_c, 1, 60, 127
3, 163199, Note_on_c, 1, 69, 110
3, 163199, Note_on_c, 1, 66, 110
3, 163199, Note_on_c, 1, 62, 110
3, 164999, Note_off_c, 1, 62, 127
3, 165120, Note_on_c, 1, 71, 110
3, 165120, Note_on_c, 1, 67, 110
3, 165120, Note_on_c, 1, 62, 110
3, 166919, Note_off_c, 1, 62, 127
3, 168960, Note_on_c, 1, 64, 110
3, 168960, Note_on_c, 1, 71, 110
3, 168960, Note_on_c, 1, 68, 110
3, 170760, Note_off_c, 1, 64, 127
3, 170880, Note_on_c, 1, 64, 110
3, 172680, Note_off_c, 1, 64, 127
3, 172800, Note_on_c, 1, 60, 110
3, 172800, Note_on_c, 1, 69, 110
3, 172800, Note_on_c, 1, 64, 110
3, 174600, Note_off_c, 1, 60, 127
3, 174720, Note_on_c, 1, 65, 110
3, 174720, Note_on_c, 1, 60, 110
3, 174720, Note_on_c, 1, 69, 110
3, 176520, Note_off_c, 1, 60, 127
3, 176639, Note_on_c, 1, 60, 110
3, 176639, Note_on_c, 1, 67, 110
3, 176639, Note_on_c, 1, 64, 110
3, 178440, Note_off_c, 1, 60, 127
3, 178559, Note_on_c, 1, 67, 110
3, 178559, Note_on_c, 1, 62, 110
3, 178559, Note_on_c, 1, 59, 110
3, 180359, Note_off_c, 1, 59, 127
3, 180479, Note_on_c, 1, 60, 110
3, 180479, Note_on_c, 1, 64, 110
3, 180479, Note_on_c, 1, 67, 110
3, 183240, Note_off_c, 1, 60, 127
3, 183360, Note_on_c, 1, 67, 110
3, 183360, Note_on_c, 1, 59, 110
3, 183360, Note_on_c, 1, 62, 110
3, 184199, Note_off_c, 1, 59, 127
3, 184319, Note_on_c, 1, 64, 110
3, 184319, Note_on_c, 1, 68, 110
3, 184319, Note_on_c, 1, 71, 110
3, 186119, Note_off_c, 1, 64, 127
3, 186239, Note_on_c, 1, 64, 110
3, 188039, Note_off_c, 1, 64, 127
3, 188160, Note_on_c, 1, 60, 110
3, 188160, Note_on_c, 1, 64, 110
3, 188160, Note_on_c, 1, 69, 110
3, 189959, Note_off_c, 1, 60, 127
3, 190080, Note_on_c, 1, 65, 110
3, 190080, Note_on_c, 1, 60, 110
3, 190080, Note_on_c, 1, 69, 110
3, 191880, Note_off_c, 1, 60, 127
3, 192000, Note_on_c, 1, 64, 110
3, 192000, Note_on_c, 1, 60, 110
3, 192000, Note_on_c, 1, 67, 110
3, 193800, Note_off_c, 1, 60, 127
3, 193920, Note_on_c, 1, 59, 110
3, 193920, Note_on_c, 1, 67, 110
3, 193920, Note_on_c, 1, 62, 110
3, 195720, Note_off_c, 1, 59, 127
3, 195840, Note_on_c, 1, 67, 110
3, 195840, Note_on_c, 1, 60, 110
3, 195840, Note_on_c, 1, 64, 110
3, 198599, Note_off_c, 1, 60, 127
3, 198720, Note_on_c, 1, 67, 110
3, 198720, Note_on_c, 1, 62, 110
3, 198720, Note_on_c, 1, 59, 110
3, 199560, Note_off_c, 1, 59, 127
3, 199679, Note_on_c, 1, 67, 110
3, 199679, Note_on_c, 1, 64, 110
3, 199679, Note_on_c, 1, 60, 110
3, 203399, Note_off_c, 1, 60, 127
3, 203519, End_track
4, 0, Start_track
4, 0, Title_t, "Staff-5"
4, 30719, Control_c, 2, 7, 127
4, 30719, Control_c, 2, 93, 0
4, 30719, Control_c, 2, 10, 64
4, 30719, Control_c, 2, 121, 0
4, 30719, Program_c, 2, 48
4, 30719, Control_c, 2, 32, 0
4, 30719, Control_c, 2, 0, 0
4, 30719, Note_on_c, 2, 76, 110
4, 30719, Control_c, 2, 91, 0
4, 31560, Note_off_c, 2, 76, 127
4, 31680, Note_on_c, 2, 74, 110
4, 32080, Note_off_c, 2, 74, 127
4, 32160, Note_on_c, 2, 76, 110
4, 32560, Note_off_c, 2, 76, 127
4, 32639, Note_on_c, 2, 74, 110
4, 34439, Note_off_c, 2, 74, 127
4, 34560, Note_on_c, 2, 72, 110
4, 35400, Note_off_c, 2, 72, 127
4, 35519, Note_on_c, 2, 71, 110
4, 35919, Note_off_c, 2, 71, 127
4, 36000, Note_on_c, 2, 72, 110
4, 36400, Note_off_c, 2, 72, 127
4, 36480, Note_on_c, 2, 71, 110
4, 37319, Note_off_c, 2, 71, 127
4, 37439, Note_on_c, 2, 67, 110
4, 38280, Note_off_c, 2, 67, 127
4, 38400, Note_on_c, 2, 69, 110
4, 38800, Note_off_c, 2, 69, 127
4, 38879, Note_on_c, 2, 67, 110
4, 39279, Note_off_c, 2, 67, 127
4, 39359, Note_on_c, 2, 69, 110
4, 39759, Note_off_c, 2, 69, 127
4, 39839, Note_on_c, 2, 71, 110
4, 40239, Note_off_c, 2, 71, 127
4, 40320, Note_on_c, 2, 72, 110
4, 40720, Note_off_c, 2, 72, 127
4, 40800, Note_on_c, 2, 74, 110
4, 41200, Note_off_c, 2, 74, 127
4, 41279, Note_on_c, 2, 76, 110
4, 41679, Note_off_c, 2, 76, 127
4, 41759, Note_on_c, 2, 78, 110
4, 42159, Note_off_c, 2, 78, 127
4, 42240, Note_on_c, 2, 79, 110
4, 43079, Note_off_c, 2, 79, 127
4, 43199, Note_on_c, 2, 77, 110
4, 43599, Note_off_c, 2, 77, 127
4, 43679, Note_on_c, 2, 76, 110
4, 44079, Note_off_c, 2, 76, 127
4, 44159, Note_on_c, 2, 74, 110
4, 45960, Note_off_c, 2, 74, 127
4, 46079, Note_on_c, 2, 76, 110
4, 46479, Note_off_c, 2, 76, 127
4, 46560, Note_on_c, 2, 71, 110
4, 46960, Note_off_c, 2, 71, 127
4, 47040, Note_on_c, 2, 68, 110
4, 47440, Note_off_c, 2, 68, 127
4, 47519, Note_on_c, 2, 71, 110
4, 47919, Note_off_c, 2, 71, 127
4, 47999, Note_on_c, 2, 76, 110
4, 48840, Note_off_c, 2, 76, 127
4, 48960, Note_on_c, 2, 74, 110
4, 49799, Note_off_c, 2, 74, 127
4, 49919, Note_on_c, 2, 72, 110
4, 50319, Note_off_c, 2, 72, 127
4, 50399, Note_on_c, 2, 74, 110
4, 50799, Note_off_c, 2, 74, 127
4, 50880, Note_on_c, 2, 76, 110
4, 51280, Note_off_c, 2, 76, 127
4, 51360, Note_on_c, 2, 72, 110
4, 51760, Note_off_c, 2, 72, 127
4, 51839, Note_on_c, 2, 81, 110
4, 52680, Note_off_c, 2, 81, 127
4, 52800, Note_on_c, 2, 79, 110
4, 53200, Note_off_c, 2, 79, 127
4, 53280, Note_on_c, 2, 77, 110
4, 53680, Note_off_c, 2, 77, 127
4, 53759, Note_on_c, 2, 76, 110
4, 54600, Note_off_c, 2, 76, 127
4, 54720, Note_on_c, 2, 77, 110
4, 55120, Note_off_c, 2, 77, 127
4, 55200, Note_on_c, 2, 76, 110
4, 55600, Note_off_c, 2, 76, 127
4, 55680, Note_on_c, 2, 74, 110
4, 57000, Note_off_c, 2, 74, 127
4, 57120, Note_on_c, 2, 72, 110
4, 57520, Note_off_c, 2, 72, 127
4, 57600, Note_on_c, 2, 72, 110
4, 61320, Note_off_c, 2, 72, 127
4, 61440, Note_on_c, 2, 69, 110
4, 61840, Note_off_c, 2, 69, 127
4, 61920, Note_on_c, 2, 67, 110
4, 62320, Note_off_c, 2, 67, 127
4, 62399, Note_on_c, 2, 69, 110
4, 62799, Note_off_c, 2, 69, 127
4, 62879, Note_on_c, 2, 71, 110
4, 63279, Note_off_c, 2, 71, 127
4, 63360, Note_on_c, 2, 72, 110
4, 64199, Note_off_c, 2, 72, 127
4, 64319, Note_on_c, 2, 74, 110
4, 65160, Note_off_c, 2, 74, 127
4, 65280, Note_on_c, 2, 72, 110
4, 65919, Note_off_c, 2, 72, 127
4, 65999, Note_on_c, 2, 67, 110
4, 66235, Note_off_c, 2, 67, 127
4, 66239, Note_on_c, 2, 67, 110
4, 69000, Note_off_c, 2, 67, 127
4, 69119, Note_on_c, 2, 71, 110
4, 69519, Note_off_c, 2, 71, 127
4, 69600, Note_on_c, 2, 69, 110
4, 70000, Note_off_c, 2, 69, 127
4, 70080, Note_on_c, 2, 71, 110
4, 70480, Note_off_c, 2, 71, 127
4, 70559, Note_on_c, 2, 72, 110
4, 70959, Note_off_c, 2, 72, 127
4, 71039, Note_on_c, 2, 74, 110
4, 71880, Note_off_c, 2, 74, 127
4, 72000, Note_on_c, 2, 77, 110
4, 72400, Note_off_c, 2, 77, 127
4, 72480, Note_on_c, 2, 74, 110
4, 72879, Note_off_c, 2, 74, 127
4, 72959, Note_on_c, 2, 76, 110
4, 76679, Note_off_c, 2, 76, 127
4, 76799, Note_on_c, 2, 69, 110
4, 77199, Note_off_c, 2, 69, 127
4, 77279, Note_on_c, 2, 67, 110
4, 77679, Note_off_c, 2, 67, 127
4, 77759, Note_on_c, 2, 69, 110
4, 78159, Note_off_c, 2, 69, 127
4, 78240, Note_on_c, 2, 71, 110
4, 78640, Note_off_c, 2, 71, 127
4, 78720, Note_on_c, 2, 72, 110
4, 79560, Note_off_c, 2, 72, 127
4, 79679, Note_on_c, 2, 71, 110
4, 80079, Note_off_c, 2, 71, 127
4, 80160, Note_on_c, 2, 69, 110
4, 80560, Note_off_c, 2, 69, 127
4, 80640, Note_on_c, 2, 66, 110
4, 81040, Note_off_c, 2, 66, 127
4, 81119, Note_on_c, 2, 64, 110
4, 81519, Note_off_c, 2, 64, 127
4, 81599, Note_on_c, 2, 66, 110
4, 81999, Note_off_c, 2, 66, 127
4, 82080, Note_on_c, 2, 67, 110
4, 82480, Note_off_c, 2, 67, 127
4, 82560, Note_on_c, 2, 69, 110
4, 82960, Note_off_c, 2, 69, 127
4, 83040, Note_on_c, 2, 71, 110
4, 83439, Note_off_c, 2, 71, 127
4, 83519, Note_on_c, 2, 72, 110
4, 83919, Note_off_c, 2, 72, 127
4, 83999, Note_on_c, 2, 76, 110
4, 84399, Note_off_c, 2, 76, 127
4, 84480, Note_on_c, 2, 74, 110
4, 84880, Note_off_c, 2, 74, 127
4, 84960, Note_on_c, 2, 71, 110
4, 85360, Note_off_c, 2, 71, 127
4, 85439, Note_on_c, 2, 69, 110
4, 85839, Note_off_c, 2, 69, 127
4, 85919, Note_on_c, 2, 67, 110
4, 86319, Note_off_c, 2, 67, 127
4, 86880, Note_on_c, 2, 67, 110
4, 87280, Note_off_c, 2, 67, 127
4, 87359, Note_on_c, 2, 71, 110
4, 87759, Note_off_c, 2, 71, 127
4, 87839, Note_on_c, 2, 74, 110
4, 88239, Note_off_c, 2, 74, 127
4, 88319, Note_on_c, 2, 76, 110
4, 89639, Note_off_c, 2, 76, 127
4, 89759, Note_on_c, 2, 77, 110
4, 89994, Note_off_c, 2, 77, 127
4, 90000, Note_on_c, 2, 76, 110
4, 90235, Note_off_c, 2, 76, 127
4, 90239, Note_on_c, 2, 74, 110
4, 92039, Note_off_c, 2, 74, 127
4, 92159, Note_on_c, 2, 76, 110
4, 93000, Note_off_c, 2, 76, 127
4, 93120, Note_on_c, 2, 74, 110
4, 93520, Note_off_c, 2, 74, 127
4, 93599, Note_on_c, 2, 76, 110
4, 93999, Note_off_c, 2, 76, 127
4, 94079, Note_on_c, 2, 74, 110
4, 95879, Note_off_c, 2, 74, 127
4, 95999, Note_on_c, 2, 72, 110
4, 96840, Note_off_c, 2, 72, 127
4, 96960, Note_on_c, 2, 71, 110
4, 97360, Note_off_c, 2, 71, 127
4, 97440, Note_on_c, 2, 72, 110
4, 97840, Note_off_c, 2, 72, 127
4, 97919, Note_on_c, 2, 71, 110
4, 98760, Note_off_c, 2, 71, 127
4, 98879, Note_on_c, 2, 67, 110
4, 99719, Note_off_c, 2, 67, 127
4, 99840, Note_on_c, 2, 69, 110
4, 100239, Note_off_c, 2, 69, 127
4, 100319, Note_on_c, 2, 67, 110
4, 100719, Note_off_c, 2, 67, 127
4, 100799, Note_on_c, 2, 69, 110
4, 101199, Note_off_c, 2, 69, 127
4, 101280, Note_on_c, 2, 71, 110
4, 101680, Note_off_c, 2, 71, 127
4, 101760, Note_on_c, 2, 72, 110
4, 102160, Note_off_c, 2, 72, 127
4, 102239, Note_on_c, 2, 74, 110
4, 102639, Note_off_c, 2, 74, 127
4, 102719, Note_on_c, 2, 76, 110
4, 103119, Note_off_c, 2, 76, 127
4, 103200, Note_on_c, 2, 78, 110
4, 103600, Note_off_c, 2, 78, 127
4, 103680, Note_on_c, 2, 79, 110
4, 104519, Note_off_c, 2, 79, 127
4, 104639, Note_on_c, 2, 77, 110
4, 105039, Note_off_c, 2, 77, 127
4, 105119, Note_on_c, 2, 76, 110
4, 105519, Note_off_c, 2, 76, 127
4, 105600, Note_on_c, 2, 74, 110
4, 107400, Note_off_c, 2, 74, 127
4, 107520, Note_on_c, 2, 76, 110
4, 107920, Note_off_c, 2, 76, 127
4, 108000, Note_on_c, 2, 71, 110
4, 108400, Note_off_c, 2, 71, 127
4, 108479, Note_on_c, 2, 68, 110
4, 108879, Note_off_c, 2, 68, 127
4, 108959, Note_on_c, 2, 71, 110
4, 109359, Note_off_c, 2, 71, 127
4, 109440, Note_on_c, 2, 76, 110
4, 110279, Note_off_c, 2, 76, 127
4, 110400, Note_on_c, 2, 74, 110
4, 111240, Note_off_c, 2, 74, 127
4, 111359, Note_on_c, 2, 72, 110
4, 111759, Note_off_c, 2, 72, 127
4, 111840, Note_on_c, 2, 74, 110
4, 112240, Note_off_c, 2, 74, 127
4, 112320, Note_on_c, 2, 76, 110
4, 112720, Note_off_c, 2, 76, 127
4, 112799, Note_on_c, 2, 72, 110
4, 113199, Note_off_c, 2, 72, 127
4, 113279, Note_on_c, 2, 81, 110
4, 114119, Note_off_c, 2, 81, 127
4, 114240, Note_on_c, 2, 79, 110
4, 114640, Note_off_c, 2, 79, 127
4, 114719, Note_on_c, 2, 77, 110
4, 115119, Note_off_c, 2, 77, 127
4, 115199, Note_on_c, 2, 76, 110
4, 116040, Note_off_c, 2, 76, 127
4, 116160, Note_on_c, 2, 77, 110
4, 116560, Note_off_c, 2, 77, 127
4, 116640, Note_on_c, 2, 76, 110
4, 117040, Note_off_c, 2, 76, 127
4, 117119, Note_on_c, 2, 74, 110
4, 118439, Note_off_c, 2, 74, 127
4, 118560, Note_on_c, 2, 72, 110
4, 118960, Note_off_c, 2, 72, 127
4, 119039, Note_on_c, 2, 72, 110
4, 122759, Note_off_c, 2, 72, 127
4, 122880, Note_on_c, 2, 69, 110
4, 123280, Note_off_c, 2, 69, 127
4, 123359, Note_on_c, 2, 67, 110
4, 123759, Note_off_c, 2, 67, 127
4, 123839, Note_on_c, 2, 69, 110
4, 124239, Note_off_c, 2, 69, 127
4, 124320, Note_on_c, 2, 71, 110
4, 124720, Note_off_c, 2, 71, 127
4, 124800, Note_on_c, 2, 72, 110
4, 125639, Note_off_c, 2, 72, 127
4, 125759, Note_on_c, 2, 74, 110
4, 126600, Note_off_c, 2, 74, 127
4, 126720, Note_on_c, 2, 72, 110
4, 127359, Note_off_c, 2, 72, 127
4, 127440, Note_on_c, 2, 67, 110
4, 127675, Note_off_c, 2, 67, 127
4, 127679, Note_on_c, 2, 67, 110
4, 130440, Note_off_c, 2, 67, 127
4, 130560, Note_on_c, 2, 71, 110
4, 130960, Note_off_c, 2, 71, 127
4, 131040, Note_on_c, 2, 69, 110
4, 131440, Note_off_c, 2, 69, 127
4, 131519, Note_on_c, 2, 71, 110
4, 131919, Note_off_c, 2, 71, 127
4, 131999, Note_on_c, 2, 72, 110
4, 132399, Note_off_c, 2, 72, 127
4, 132479, Note_on_c, 2, 74, 110
4, 133319, Note_off_c, 2, 74, 127
4, 133440, Note_on_c, 2, 77, 110
4, 133840, Note_off_c, 2, 77, 127
4, 133919, Note_on_c, 2, 74, 110
4, 134319, Note_off_c, 2, 74, 127
4, 134399, Note_on_c, 2, 76, 110
4, 138119, Note_off_c, 2, 76, 127
4, 138239, Note_on_c, 2, 69, 110
4, 138639, Note_off_c, 2, 69, 127
4, 138719, Note_on_c, 2, 67, 110
4, 139119, Note_off_c, 2, 67, 127
4, 139200, Note_on_c, 2, 69, 110
4, 139600, Note_off_c, 2, 69, 127
4, 139680, Note_on_c, 2, 71, 110
4, 140080, Note_off_c, 2, 71, 127
4, 140159, Note_on_c, 2, 72, 110
4, 141000, Note_off_c, 2, 72, 127
4, 141120, Note_on_c, 2, 71, 110
4, 141520, Note_off_c, 2, 71, 127
4, 141600, Note_on_c, 2, 69, 110
4, 142000, Note_off_c, 2, 69, 127
4, 142079, Note_on_c, 2, 66, 110
4, 142479, Note_off_c, 2, 66, 127
4, 142559, Note_on_c, 2, 64, 110
4, 142959, Note_off_c, 2, 64, 127
4, 143039, Note_on_c, 2, 66, 110
4, 143439, Note_off_c, 2, 66, 127
4, 143520, Note_on_c, 2, 67, 110
4, 143920, Note_off_c, 2, 67, 127
4, 144000, Note_on_c, 2, 69, 110
4, 144400, Note_off_c, 2, 69, 127
4, 144479, Note_on_c, 2, 71, 110
4, 144879, Note_off_c, 2, 71, 127
4, 144959, Note_on_c, 2, 72, 110
4, 145359, Note_off_c, 2, 72, 127
4, 145440, Note_on_c, 2, 76, 110
4, 145840, Note_off_c, 2, 76, 127
4, 145920, Note_on_c, 2, 74, 110
4, 146320, Note_off_c, 2, 74, 127
4, 146399, Note_on_c, 2, 71, 110
4, 146799, Note_off_c, 2, 71, 127
4, 146879, Note_on_c, 2, 69, 110
4, 147279, Note_off_c, 2, 69, 127
4, 147360, Note_on_c, 2, 67, 110
4, 147760, Note_off_c, 2, 67, 127
4, 148319, Note_on_c, 2, 67, 110
4, 148719, Note_off_c, 2, 67, 127
4, 148799, Note_on_c, 2, 71, 110
4, 149199, Note_off_c, 2, 71, 127
4, 149279, Note_on_c, 2, 74, 110
4, 149679, Note_off_c, 2, 74, 127
4, 149760, Note_on_c, 2, 76, 110
4, 151080, Note_off_c, 2, 76, 127
4, 151199, Note_on_c, 2, 77, 110
4, 151435, Note_off_c, 2, 77, 127
4, 151440, Note_on_c, 2, 76, 110
4, 151674, Note_off_c, 2, 76, 127
4, 151680, Note_on_c, 2, 74, 110
4, 153480, Note_off_c, 2, 74, 127
4, 153599, Note_on_c, 2, 76, 110
4, 154439, Note_off_c, 2, 76, 127
4, 154560, Note_on_c, 2, 74, 110
4, 154959, Note_off_c, 2, 74, 127
4, 155039, Note_on_c, 2, 76, 110
4, 155439, Note_off_c, 2, 76, 127
4, 155519, Note_on_c, 2, 74, 110
4, 157320, Note_off_c, 2, 74, 127
4, 157439, Note_on_c, 2, 72, 110
4, 158280, Note_off_c, 2, 72, 127
4, 158400, Note_on_c, 2, 71, 110
4, 158800, Note_off_c, 2, 71, 127
4, 158879, Note_on_c, 2, 72, 110
4, 159279, Note_off_c, 2, 72, 127
4, 159359, Note_on_c, 2, 71, 110
4, 160200, Note_off_c, 2, 71, 127
4, 160320, Note_on_c, 2, 67, 110
4, 161159, Note_off_c, 2, 67, 127
4, 161279, Note_on_c, 2, 69, 110
4, 161679, Note_off_c, 2, 69, 127
4, 161759, Note_on_c, 2, 67, 110
4, 162159, Note_off_c, 2, 67, 127
4, 162240, Note_on_c, 2, 69, 110
4, 162640, Note_off_c, 2, 69, 127
4, 162720, Note_on_c, 2, 71, 110
4, 163120, Note_off_c, 2, 71, 127
4, 163199, Note_on_c, 2, 72, 110
4, 163599, Note_off_c, 2, 72, 127
4, 163679, Note_on_c, 2, 74, 110
4, 164079, Note_off_c, 2, 74, 127
4, 164160, Note_on_c, 2, 76, 110
4, 164560, Note_off_c, 2, 76, 127
4, 164640, Note_on_c, 2, 78, 110
4, 165040, Note_off_c, 2, 78, 127
4, 165120, Note_on_c, 2, 79, 110
4, 165960, Note_off_c, 2, 79, 127
4, 166079, Note_on_c, 2, 77, 110
4, 166479, Note_off_c, 2, 77, 127
4, 166560, Note_on_c, 2, 76, 110
4, 166960, Note_off_c, 2, 76, 127
4, 167040, Note_on_c, 2, 74, 110
4, 168839, Note_off_c, 2, 74, 127
4, 168960, Note_on_c, 2, 76, 110
4, 169360, Note_off_c, 2, 76, 127
4, 169439, Note_on_c, 2, 71, 110
4, 169839, Note_off_c, 2, 71, 127
4, 169919, Note_on_c, 2, 68, 110
4, 170319, Note_off_c, 2, 68, 127
4, 170399, Note_on_c, 2, 71, 110
4, 170799, Note_off_c, 2, 71, 127
4, 170880, Note_on_c, 2, 76, 110
4, 171719, Note_off_c, 2, 76, 127
4, 171839, Note_on_c, 2, 74, 110
4, 172680, Note_off_c, 2, 74, 127
4, 172800, Note_on_c, 2, 72, 110
4, 173200, Note_off_c, 2, 72, 127
4, 173280, Note_on_c, 2, 74, 110
4, 173680, Note_off_c, 2, 74, 127
4, 173759, Note_on_c, 2, 76, 110
4, 174159, Note_off_c, 2, 76, 127
4, 174239, Note_on_c, 2, 72, 110
4, 174639, Note_off_c, 2, 72, 127
4, 174720, Note_on_c, 2, 81, 110
4, 175559, Note_off_c, 2, 81, 127
4, 175679, Note_on_c, 2, 79, 110
4, 176079, Note_off_c, 2, 79, 127
4, 176159, Note_on_c, 2, 77, 110
4, 176559, Note_off_c, 2, 77, 127
4, 176639, Note_on_c, 2, 76, 110
4, 177479, Note_off_c, 2, 76, 127
4, 177600, Note_on_c, 2, 77, 110
4, 178000, Note_off_c, 2, 77, 127
4, 178079, Note_on_c, 2, 76, 110
4, 178479, Note_off_c, 2, 76, 127
4, 178559, Note_on_c, 2, 74, 110
4, 179879, Note_off_c, 2, 74, 127
4, 179999, Note_on_c, 2, 72, 110
4, 180399, Note_off_c, 2, 72, 127
4, 180479, Note_on_c, 2, 72, 110
4, 184199, Note_off_c, 2, 72, 127
4, 184319, Note_on_c, 2, 76, 110
4, 184719, Note_off_c, 2, 76, 127
4, 184799, Note_on_c, 2, 71, 110
4, 185199, Note_off_c, 2, 71, 127
4, 185280, Note_on_c, 2, 68, 110
4, 185680, Note_off_c, 2, 68, 127
4, 185760, Note_on_c, 2, 71, 110
4, 186160, Note_off_c, 2, 71, 127
4, 186239, Note_on_c, 2, 76, 110
4, 187080, Note_off_c, 2, 76, 127
4, 187199, Note_on_c, 2, 74, 110
4, 188039, Note_off_c, 2, 74, 127
4, 188160, Note_on_c, 2, 72, 110
4, 188560, Note_off_c, 2, 72, 127
4, 188639, Note_on_c, 2, 74, 110
4, 189039, Note_off_c, 2, 74, 127
4, 189119, Note_on_c, 2, 76, 110
4, 189519, Note_off_c, 2, 76, 127
4, 189600, Note_on_c, 2, 72, 110
4, 190000, Note_off_c, 2, 72, 127
4, 190080, Note_on_c, 2, 81, 110
4, 190919, Note_off_c, 2, 81, 127
4, 191039, Note_on_c, 2, 79, 110
4, 191439, Note_off_c, 2, 79, 127
4, 191520, Note_on_c, 2, 77, 110
4, 191920, Note_off_c, 2, 77, 127
4, 192000, Note_on_c, 2, 76, 110
4, 192839, Note_off_c, 2, 76, 127
4, 192959, Note_on_c, 2, 77, 110
4, 193359, Note_off_c, 2, 77, 127
4, 193439, Note_on_c, 2, 76, 110
4, 193839, Note_off_c, 2, 76, 127
4, 193920, Note_on_c, 2, 74, 110
4, 195240, Note_off_c, 2, 74, 127
4, 195359, Note_on_c, 2, 72, 110
4, 195759, Note_off_c, 2, 72, 127
4, 195840, Note_on_c, 2, 72, 110
4, 203399, Note_off_c, 2, 72, 127
4, 203519, End_track
5, 0, Start_track
5, 0, Title_t, "Staff-2"
5, 0, Control_c, 3, 121, 0
5, 0, Program_c, 3, 25
5, 0, Control_c, 3, 32, 0
5, 0, Control_c, 3, 0, 0
5, 0, Note_on_c, 3, 60, 110
5, 0, Control_c, 3, 91, 0
5, 0, Control_c, 3, 7, 127
5, 0, Control_c, 3, 93, 0
5, 0, Control_c, 3, 10, 64
5, 400, Note_off_c, 3, 60, 127
5, 480, Note_on_c, 3, 62, 110
5, 880, Note_off_c, 3, 62, 127
5, 960, Note_on_c, 3, 64, 110
5, 1359, Note_off_c, 3, 64, 127
5, 1439, Note_on_c, 3, 60, 110
5, 1839, Note_off_c, 3, 60, 127
5, 1919, Note_on_c, 3, 59, 110
5, 2319, Note_off_c, 3, 59, 127
5, 2400, Note_on_c, 3, 60, 110
5, 2800, Note_off_c, 3, 60, 127
5, 2880, Note_on_c, 3, 62, 110
5, 3720, Note_off_c, 3, 62, 127
5, 3839, Note_on_c, 3, 57, 110
5, 4239, Note_off_c, 3, 57, 127
5, 4320, Note_on_c, 3, 59, 110
5, 4720, Note_off_c, 3, 59, 127
5, 4800, Note_on_c, 3, 60, 110
5, 5200, Note_off_c, 3, 60, 127
5, 5279, Note_on_c, 3, 57, 110
5, 5679, Note_off_c, 3, 57, 127
5, 6239, Note_on_c, 3, 57, 110
5, 6639, Note_off_c, 3, 57, 127
5, 6720, Note_on_c, 3, 59, 110
5, 7559, Note_off_c, 3, 59, 127
5, 8640, Note_on_c, 3, 57, 110
5, 9479, Note_off_c, 3, 57, 127
5, 10079, Note_on_c, 3, 57, 110
5, 10479, Note_off_c, 3, 57, 127
5, 10560, Note_on_c, 3, 62, 110
5, 11399, Note_off_c, 3, 62, 127
5, 11999, Note_on_c, 3, 57, 110
5, 12399, Note_off_c, 3, 57, 127
5, 12479, Note_on_c, 3, 59, 110
5, 12879, Note_off_c, 3, 59, 127
5, 12960, Note_on_c, 3, 62, 110
5, 13360, Note_off_c, 3, 62, 127
5, 13440, Note_on_c, 3, 67, 110
5, 13840, Note_off_c, 3, 67, 127
5, 13919, Note_on_c, 3, 62, 110
5, 14319, Note_off_c, 3, 62, 127
5, 14399, Note_on_c, 3, 59, 110
5, 14799, Note_off_c, 3, 59, 127
5, 15839, Note_on_c, 3, 59, 110
5, 16239, Note_off_c, 3, 59, 127
5, 16319, Note_on_c, 3, 64, 110
5, 16719, Note_off_c, 3, 64, 127
5, 16799, Note_on_c, 3, 59, 110
5, 17200, Note_off_c, 3, 59, 127
5, 17760, Note_on_c, 3, 59, 110
5, 18159, Note_off_c, 3, 59, 127
5, 18239, Note_on_c, 3, 64, 110
5, 18639, Note_off_c, 3, 64, 127
5, 18719, Note_on_c, 3, 59, 110
5, 19119, Note_off_c, 3, 59, 127
5, 19200, Note_on_c, 3, 57, 110
5, 19600, Note_off_c, 3, 57, 127
5, 19680, Note_on_c, 3, 59, 110
5, 20080, Note_off_c, 3, 59, 127
5, 20159, Note_on_c, 3, 60, 110
5, 20559, Note_off_c, 3, 60, 127
5, 20639, Note_on_c, 3, 57, 110
5, 21039, Note_off_c, 3, 57, 127
5, 22079, Note_on_c, 3, 57, 110
5, 22479, Note_off_c, 3, 57, 127
5, 23039, Note_on_c, 3, 60, 110
5, 23439, Note_off_c, 3, 60, 127
5, 23520, Note_on_c, 3, 64, 110
5, 23920, Note_off_c, 3, 64, 127
5, 24000, Note_on_c, 3, 67, 110
5, 24840, Note_off_c, 3, 67, 127
5, 25440, Note_on_c, 3, 59, 110
5, 25840, Note_off_c, 3, 59, 127
5, 25920, Note_on_c, 3, 62, 110
5, 26320, Note_off_c, 3, 62, 127
5, 26399, Note_on_c, 3, 67, 110
5, 26799, Note_off_c, 3, 67, 127
5, 26879, Note_on_c, 3, 65, 110
5, 27720, Note_off_c, 3, 65, 127
5, 27840, Note_on_c, 3, 64, 110
5, 28240, Note_off_c, 3, 64, 127
5, 28320, Note_on_c, 3, 62, 110
5, 28719, Note_off_c, 3, 62, 127
5, 28799, Note_on_c, 3, 64, 110
5, 29199, Note_off_c, 3, 64, 127
5, 29279, Note_on_c, 3, 67, 110
5, 29679, Note_off_c, 3, 67, 127
5, 29760, Note_on_c, 3, 65, 110
5, 30160, Note_off_c, 3, 65, 127
5, 30240, Note_on_c, 3, 62, 110
5, 30640, Note_off_c, 3, 62, 127
5, 30719, Note_on_c, 3, 60, 110
5, 31119, Note_off_c, 3, 60, 127
5, 31199, Note_on_c, 3, 62, 110
5, 31599, Note_off_c, 3, 62, 127
5, 31680, Note_on_c, 3, 64, 110
5, 32080, Note_off_c, 3, 64, 127
5, 32160, Note_on_c, 3, 60, 110
5, 32560, Note_off_c, 3, 60, 127
5, 32639, Note_on_c, 3, 59, 110
5, 33039, Note_off_c, 3, 59, 127
5, 33119, Note_on_c, 3, 60, 110
5, 33519, Note_off_c, 3, 60, 127
5, 33599, Note_on_c, 3, 62, 110
5, 34439, Note_off_c, 3, 62, 127
5, 34560, Note_on_c, 3, 57, 110
5, 34960, Note_off_c, 3, 57, 127
5, 35039, Note_on_c, 3, 59, 110
5, 35439, Note_off_c, 3, 59, 127
5, 35519, Note_on_c, 3, 60, 110
5, 35919, Note_off_c, 3, 60, 127
5, 36000, Note_on_c, 3, 57, 110
5, 36400, Note_off_c, 3, 57, 127
5, 36959, Note_on_c, 3, 57, 110
5, 37359, Note_off_c, 3, 57, 127
5, 37439, Note_on_c, 3, 59, 110
5, 38280, Note_off_c, 3, 59, 127
5, 39359, Note_on_c, 3, 57, 110
5, 40200, Note_off_c, 3, 57, 127
5, 40800, Note_on_c, 3, 57, 110
5, 41200, Note_off_c, 3, 57, 127
5, 41279, Note_on_c, 3, 62, 110
5, 42120, Note_off_c, 3, 62, 127
5, 42720, Note_on_c, 3, 57, 110
5, 43120, Note_off_c, 3, 57, 127
5, 43199, Note_on_c, 3, 59, 110
5, 43599, Note_off_c, 3, 59, 127
5, 43679, Note_on_c, 3, 62, 110
5, 44079, Note_off_c, 3, 62, 127
5, 44159, Note_on_c, 3, 67, 110
5, 44560, Note_off_c, 3, 67, 127
5, 44640, Note_on_c, 3, 62, 110
5, 45040, Note_off_c, 3, 62, 127
5, 45120, Note_on_c, 3, 59, 110
5, 45519, Note_off_c, 3, 59, 127
5, 46560, Note_on_c, 3, 59, 110
5, 46960, Note_off_c, 3, 59, 127
5, 47040, Note_on_c, 3, 64, 110
5, 47440, Note_off_c, 3, 64, 127
5, 47519, Note_on_c, 3, 59, 110
5, 47919, Note_off_c, 3, 59, 127
5, 48480, Note_on_c, 3, 59, 110
5, 48880, Note_off_c, 3, 59, 127
5, 48960, Note_on_c, 3, 64, 110
5, 49360, Note_off_c, 3, 64, 127
5, 49439, Note_on_c, 3, 59, 110
5, 49839, Note_off_c, 3, 59, 127
5, 49919, Note_on_c, 3, 57, 110
5, 50319, Note_off_c, 3, 57, 127
5, 50399, Note_on_c, 3, 59, 110
5, 50799, Note_off_c, 3, 59, 127
5, 50880, Note_on_c, 3, 60, 110
5, 51280, Note_off_c, 3, 60, 127
5, 51360, Note_on_c, 3, 57, 110
5, 51760, Note_off_c, 3, 57, 127
5, 52800, Note_on_c, 3, 57, 110
5, 53200, Note_off_c, 3, 57, 127
5, 53759, Note_on_c, 3, 60, 110
5, 54159, Note_off_c, 3, 60, 127
5, 54239, Note_on_c, 3, 64, 110
5, 54639, Note_off_c, 3, 64, 127
5, 54720, Note_on_c, 3, 67, 110
5, 55559, Note_off_c, 3, 67, 127
5, 56159, Note_on_c, 3, 59, 110
5, 56559, Note_off_c, 3, 59, 127
5, 56639, Note_on_c, 3, 62, 110
5, 57039, Note_off_c, 3, 62, 127
5, 57120, Note_on_c, 3, 67, 110
5, 57520, Note_off_c, 3, 67, 127
5, 57600, Note_on_c, 3, 65, 110
5, 58440, Note_off_c, 3, 65, 127
5, 58559, Note_on_c, 3, 64, 110
5, 58959, Note_off_c, 3, 64, 127
5, 59040, Note_on_c, 3, 62, 110
5, 59440, Note_off_c, 3, 62, 127
5, 59520, Note_on_c, 3, 64, 110
5, 59920, Note_off_c, 3, 64, 127
5, 59999, Note_on_c, 3, 67, 110
5, 60399, Note_off_c, 3, 67, 127
5, 60479, Note_on_c, 3, 65, 110
5, 60879, Note_off_c, 3, 65, 127
5, 60959, Note_on_c, 3, 62, 110
5, 61359, Note_off_c, 3, 62, 127
5, 61920, Note_on_c, 3, 57, 110
5, 62320, Note_off_c, 3, 57, 127
5, 62399, Note_on_c, 3, 60, 110
5, 62799, Note_off_c, 3, 60, 127
5, 62879, Note_on_c, 3, 57, 110
5, 63279, Note_off_c, 3, 57, 127
5, 63840, Note_on_c, 3, 57, 110
5, 64240, Note_off_c, 3, 57, 127
5, 64319, Note_on_c, 3, 60, 110
5, 64719, Note_off_c, 3, 60, 127
5, 64799, Note_on_c, 3, 57, 110
5, 65199, Note_off_c, 3, 57, 127
5, 65280, Note_on_c, 3, 60, 110
5, 65680, Note_off_c, 3, 60, 127
5, 65760, Note_on_c, 3, 64, 110
5, 66160, Note_off_c, 3, 64, 127
5, 66239, Note_on_c, 3, 67, 110
5, 66639, Note_off_c, 3, 67, 127
5, 66719, Note_on_c, 3, 64, 110
5, 67119, Note_off_c, 3, 64, 127
5, 67199, Note_on_c, 3, 60, 110
5, 67599, Note_off_c, 3, 60, 127
5, 67680, Note_on_c, 3, 64, 110
5, 68080, Note_off_c, 3, 64, 127
5, 68160, Note_on_c, 3, 67, 110
5, 68560, Note_off_c, 3, 67, 127
5, 68639, Note_on_c, 3, 64, 110
5, 69039, Note_off_c, 3, 64, 127
5, 69119, Note_on_c, 3, 62, 110
5, 69519, Note_off_c, 3, 62, 127
5, 69600, Note_on_c, 3, 59, 110
5, 70000, Note_off_c, 3, 59, 127
5, 70559, Note_on_c, 3, 59, 110
5, 70959, Note_off_c, 3, 59, 127
5, 71039, Note_on_c, 3, 62, 110
5, 71439, Note_off_c, 3, 62, 127
5, 71519, Note_on_c, 3, 59, 110
5, 71920, Note_off_c, 3, 59, 127
5, 72480, Note_on_c, 3, 59, 110
5, 72879, Note_off_c, 3, 59, 127
5, 72959, Note_on_c, 3, 60, 110
5, 73359, Note_off_c, 3, 60, 127
5, 73439, Note_on_c, 3, 64, 110
5, 73839, Note_off_c, 3, 64, 127
5, 73920, Note_on_c, 3, 67, 110
5, 74320, Note_off_c, 3, 67, 127
5, 74400, Note_on_c, 3, 64, 110
5, 74800, Note_off_c, 3, 64, 127
5, 74879, Note_on_c, 3, 60, 110
5, 75279, Note_off_c, 3, 60, 127
5, 75359, Note_on_c, 3, 64, 110
5, 75759, Note_off_c, 3, 64, 127
5, 75840, Note_on_c, 3, 67, 110
5, 76240, Note_off_c, 3, 67, 127
5, 76320, Note_on_c, 3, 64, 110
5, 76720, Note_off_c, 3, 64, 127
5, 76799, Note_on_c, 3, 65, 110
5, 77199, Note_off_c, 3, 65, 127
5, 77279, Note_on_c, 3, 60, 110
5, 77679, Note_off_c, 3, 60, 127
5, 77759, Note_on_c, 3, 57, 110
5, 78159, Note_off_c, 3, 57, 127
5, 78720, Note_on_c, 3, 65, 110
5, 79120, Note_off_c, 3, 65, 127
5, 79199, Note_on_c, 3, 60, 110
5, 79599, Note_off_c, 3, 60, 127
5, 79679, Note_on_c, 3, 57, 110
5, 80079, Note_off_c, 3, 57, 127
5, 80640, Note_on_c, 3, 57, 110
5, 81040, Note_off_c, 3, 57, 127
5, 81119, Note_on_c, 3, 62, 110
5, 81519, Note_off_c, 3, 62, 127
5, 81599, Note_on_c, 3, 66, 110
5, 81999, Note_off_c, 3, 66, 127
5, 82080, Note_on_c, 3, 69, 110
5, 82480, Note_off_c, 3, 69, 127
5, 82560, Note_on_c, 3, 57, 110
5, 82960, Note_off_c, 3, 57, 127
5, 83040, Note_on_c, 3, 62, 110
5, 83439, Note_off_c, 3, 62, 127
5, 83519, Note_on_c, 3, 66, 110
5, 83919, Note_off_c, 3, 66, 127
5, 83999, Note_on_c, 3, 69, 110
5, 84399, Note_off_c, 3, 69, 127
5, 84960, Note_on_c, 3, 59, 110
5, 85360, Note_off_c, 3, 59, 127
5, 85439, Note_on_c, 3, 62, 110
5, 85839, Note_off_c, 3, 62, 127
5, 85919, Note_on_c, 3, 59, 110
5, 86319, Note_off_c, 3, 59, 127
5, 86880, Note_on_c, 3, 59, 110
5, 87280, Note_off_c, 3, 59, 127
5, 87359, Note_on_c, 3, 62, 110
5, 87759, Note_off_c, 3, 62, 127
5, 87839, Note_on_c, 3, 59, 110
5, 88239, Note_off_c, 3, 59, 127
5, 88800, Note_on_c, 3, 59, 110
5, 89200, Note_off_c, 3, 59, 127
5, 89280, Note_on_c, 3, 64, 110
5, 89680, Note_off_c, 3, 64, 127
5, 89759, Note_on_c, 3, 59, 110
5, 90159, Note_off_c, 3, 59, 127
5, 90720, Note_on_c, 3, 59, 110
5, 91120, Note_off_c, 3, 59, 127
5, 91200, Note_on_c, 3, 62, 110
5, 91600, Note_off_c, 3, 62, 127
5, 91679, Note_on_c, 3, 59, 110
5, 92079, Note_off_c, 3, 59, 127
5, 92159, Note_on_c, 3, 60, 110
5, 92559, Note_off_c, 3, 60, 127
5, 92640, Note_on_c, 3, 62, 110
5, 93040, Note_off_c, 3, 62, 127
5, 93120, Note_on_c, 3, 64, 110
5, 93520, Note_off_c, 3, 64, 127
5, 93599, Note_on_c, 3, 60, 110
5, 93999, Note_off_c, 3, 60, 127
5, 94079, Note_on_c, 3, 59, 110
5, 94479, Note_off_c, 3, 59, 127
5, 94559, Note_on_c, 3, 60, 110
5, 94959, Note_off_c, 3, 60, 127
5, 95040, Note_on_c, 3, 62, 110
5, 95879, Note_off_c, 3, 62, 127
5, 95999, Note_on_c, 3, 57, 110
5, 96399, Note_off_c, 3, 57, 127
5, 96479, Note_on_c, 3, 59, 110
5, 96879, Note_off_c, 3, 59, 127
5, 96960, Note_on_c, 3, 60, 110
5, 97360, Note_off_c, 3, 60, 127
5, 97440, Note_on_c, 3, 57, 110
5, 97840, Note_off_c, 3, 57, 127
5, 98399, Note_on_c, 3, 57, 110
5, 98799, Note_off_c, 3, 57, 127
5, 98879, Note_on_c, 3, 59, 110
5, 99719, Note_off_c, 3, 59, 127
5, 100799, Note_on_c, 3, 57, 110
5, 101639, Note_off_c, 3, 57, 127
5, 102239, Note_on_c, 3, 57, 110
5, 102639, Note_off_c, 3, 57, 127
5, 102719, Note_on_c, 3, 62, 110
5, 103560, Note_off_c, 3, 62, 127
5, 104159, Note_on_c, 3, 57, 110
5, 104559, Note_off_c, 3, 57, 127
5, 104639, Note_on_c, 3, 59, 110
5, 105039, Note_off_c, 3, 59, 127
5, 105119, Note_on_c, 3, 62, 110
5, 105519, Note_off_c, 3, 62, 127
5, 105600, Note_on_c, 3, 67, 110
5, 106000, Note_off_c, 3, 67, 127
5, 106080, Note_on_c, 3, 62, 110
5, 106480, Note_off_c, 3, 62, 127
5, 106559, Note_on_c, 3, 59, 110
5, 106959, Note_off_c, 3, 59, 127
5, 108000, Note_on_c, 3, 59, 110
5, 108400, Note_off_c, 3, 59, 127
5, 108479, Note_on_c, 3, 64, 110
5, 108879, Note_off_c, 3, 64, 127
5, 108959, Note_on_c, 3, 59, 110
5, 109359, Note_off_c, 3, 59, 127
5, 109920, Note_on_c, 3, 59, 110
5, 110320, Note_off_c, 3, 59, 127
5, 110400, Note_on_c, 3, 64, 110
5, 110799, Note_off_c, 3, 64, 127
5, 110879, Note_on_c, 3, 59, 110
5, 111279, Note_off_c, 3, 59, 127
5, 111359, Note_on_c, 3, 57, 110
5, 111759, Note_off_c, 3, 57, 127
5, 111840, Note_on_c, 3, 59, 110
5, 112240, Note_off_c, 3, 59, 127
5, 112320, Note_on_c, 3, 60, 110
5, 112720, Note_off_c, 3, 60, 127
5, 112799, Note_on_c, 3, 57, 110
5, 113199, Note_off_c, 3, 57, 127
5, 114240, Note_on_c, 3, 57, 110
5, 114640, Note_off_c, 3, 57, 127
5, 115199, Note_on_c, 3, 60, 110
5, 115599, Note_off_c, 3, 60, 127
5, 115679, Note_on_c, 3, 64, 110
5, 116079, Note_off_c, 3, 64, 127
5, 116160, Note_on_c, 3, 67, 110
5, 116999, Note_off_c, 3, 67, 127
5, 117599, Note_on_c, 3, 59, 110
5, 117999, Note_off_c, 3, 59, 127
5, 118080, Note_on_c, 3, 62, 110
5, 118480, Note_off_c, 3, 62, 127
5, 118560, Note_on_c, 3, 67, 110
5, 118960, Note_off_c, 3, 67, 127
5, 119039, Note_on_c, 3, 65, 110
5, 119880, Note_off_c, 3, 65, 127
5, 120000, Note_on_c, 3, 64, 110
5, 120400, Note_off_c, 3, 64, 127
5, 120480, Note_on_c, 3, 62, 110
5, 120880, Note_off_c, 3, 62, 127
5, 120959, Note_on_c, 3, 64, 110
5, 121359, Note_off_c, 3, 64, 127
5, 121439, Note_on_c, 3, 67, 110
5, 121839, Note_off_c, 3, 67, 127
5, 121919, Note_on_c, 3, 65, 110
5, 122319, Note_off_c, 3, 65, 127
5, 122400, Note_on_c, 3, 62, 110
5, 122800, Note_off_c, 3, 62, 127
5, 123359, Note_on_c, 3, 57, 110
5, 123759, Note_off_c, 3, 57, 127
5, 123839, Note_on_c, 3, 60, 110
5, 124239, Note_off_c, 3, 60, 127
5, 124320, Note_on_c, 3, 57, 110
5, 124720, Note_off_c, 3, 57, 127
5, 125279, Note_on_c, 3, 57, 110
5, 125679, Note_off_c, 3, 57, 127
5, 125759, Note_on_c, 3, 60, 110
5, 126159, Note_off_c, 3, 60, 127
5, 126239, Note_on_c, 3, 57, 110
5, 126640, Note_off_c, 3, 57, 127
5, 126720, Note_on_c, 3, 60, 110
5, 127120, Note_off_c, 3, 60, 127
5, 127200, Note_on_c, 3, 64, 110
5, 127599, Note_off_c, 3, 64, 127
5, 127679, Note_on_c, 3, 67, 110
5, 128079, Note_off_c, 3, 67, 127
5, 128159, Note_on_c, 3, 64, 110
5, 128559, Note_off_c, 3, 64, 127
5, 128640, Note_on_c, 3, 60, 110
5, 129040, Note_off_c, 3, 60, 127
5, 129120, Note_on_c, 3, 64, 110
5, 129520, Note_off_c, 3, 64, 127
5, 129599, Note_on_c, 3, 67, 110
5, 129999, Note_off_c, 3, 67, 127
5, 130079, Note_on_c, 3, 64, 110
5, 130479, Note_off_c, 3, 64, 127
5, 130560, Note_on_c, 3, 62, 110
5, 130960, Note_off_c, 3, 62, 127
5, 131040, Note_on_c, 3, 59, 110
5, 131440, Note_off_c, 3, 59, 127
5, 131999, Note_on_c, 3, 59, 110
5, 132399, Note_off_c, 3, 59, 127
5, 132479, Note_on_c, 3, 62, 110
5, 132879, Note_off_c, 3, 62, 127
5, 132960, Note_on_c, 3, 59, 110
5, 133360, Note_off_c, 3, 59, 127
5, 133919, Note_on_c, 3, 59, 110
5, 134319, Note_off_c, 3, 59, 127
5, 134399, Note_on_c, 3, 60, 110
5, 134799, Note_off_c, 3, 60, 127
5, 134880, Note_on_c, 3, 64, 110
5, 135280, Note_off_c, 3, 64, 127
5, 135360, Note_on_c, 3, 67, 110
5, 135760, Note_off_c, 3, 67, 127
5, 135839, Note_on_c, 3, 64, 110
5, 136239, Note_off_c, 3, 64, 127
5, 136319, Note_on_c, 3, 60, 110
5, 136719, Note_off_c, 3, 60, 127
5, 136800, Note_on_c, 3, 64, 110
5, 137200, Note_off_c, 3, 64, 127
5, 137280, Note_on_c, 3, 67, 110
5, 137680, Note_off_c, 3, 67, 127
5, 137760, Note_on_c, 3, 64, 110
5, 138159, Note_off_c, 3, 64, 127
5, 138239, Note_on_c, 3, 65, 110
5, 138639, Note_off_c, 3, 65, 127
5, 138719, Note_on_c, 3, 60, 110
5, 139119, Note_off_c, 3, 60, 127
5, 139200, Note_on_c, 3, 57, 110
5, 139600, Note_off_c, 3, 57, 127
5, 140159, Note_on_c, 3, 65, 110
5, 140559, Note_off_c, 3, 65, 127
5, 140639, Note_on_c, 3, 60, 110
5, 141039, Note_off_c, 3, 60, 127
5, 141120, Note_on_c, 3, 57, 110
5, 141520, Note_off_c, 3, 57, 127
5, 142079, Note_on_c, 3, 57, 110
5, 142479, Note_off_c, 3, 57, 127
5, 142559, Note_on_c, 3, 62, 110
5, 142959, Note_off_c, 3, 62, 127
5, 143039, Note_on_c, 3, 66, 110
5, 143439, Note_off_c, 3, 66, 127
5, 143520, Note_on_c, 3, 69, 110
5, 143920, Note_off_c, 3, 69, 127
5, 144000, Note_on_c, 3, 57, 110
5, 144400, Note_off_c, 3, 57, 127
5, 144479, Note_on_c, 3, 62, 110
5, 144879, Note_off_c, 3, 62, 127
5, 144959, Note_on_c, 3, 66, 110
5, 145359, Note_off_c, 3, 66, 127
5, 145440, Note_on_c, 3, 69, 110
5, 145840, Note_off_c, 3, 69, 127
5, 146399, Note_on_c, 3, 59, 110
5, 146799, Note_off_c, 3, 59, 127
5, 146879, Note_on_c, 3, 62, 110
5, 147279, Note_off_c, 3, 62, 127
5, 147360, Note_on_c, 3, 59, 110
5, 147760, Note_off_c, 3, 59, 127
5, 148319, Note_on_c, 3, 59, 110
5, 148719, Note_off_c, 3, 59, 127
5, 148799, Note_on_c, 3, 62, 110
5, 149199, Note_off_c, 3, 62, 127
5, 149279, Note_on_c, 3, 59, 110
5, 149679, Note_off_c, 3, 59, 127
5, 150240, Note_on_c, 3, 59, 110
5, 150640, Note_off_c, 3, 59, 127
5, 150719, Note_on_c, 3, 64, 110
5, 151119, Note_off_c, 3, 64, 127
5, 151199, Note_on_c, 3, 59, 110
5, 151599, Note_off_c, 3, 59, 127
5, 152160, Note_on_c, 3, 59, 110
5, 152560, Note_off_c, 3, 59, 127
5, 152639, Note_on_c, 3, 62, 110
5, 153039, Note_off_c, 3, 62, 127
5, 153119, Note_on_c, 3, 59, 110
5, 153519, Note_off_c, 3, 59, 127
5, 153599, Note_on_c, 3, 60, 110
5, 154000, Note_off_c, 3, 60, 127
5, 154080, Note_on_c, 3, 62, 110
5, 154480, Note_off_c, 3, 62, 127
5, 154560, Note_on_c, 3, 64, 110
5, 154959, Note_off_c, 3, 64, 127
5, 155039, Note_on_c, 3, 60, 110
5, 155439, Note_off_c, 3, 60, 127
5, 155519, Note_on_c, 3, 59, 110
5, 155919, Note_off_c, 3, 59, 127
5, 156000, Note_on_c, 3, 60, 110
5, 156400, Note_off_c, 3, 60, 127
5, 156480, Note_on_c, 3, 62, 110
5, 157320, Note_off_c, 3, 62, 127
5, 157439, Note_on_c, 3, 57, 110
5, 157839, Note_off_c, 3, 57, 127
5, 157920, Note_on_c, 3, 59, 110
5, 158320, Note_off_c, 3, 59, 127
5, 158400, Note_on_c, 3, 60, 110
5, 158800, Note_off_c, 3, 60, 127
5, 158879, Note_on_c, 3, 57, 110
5, 159279, Note_off_c, 3, 57, 127
5, 159839, Note_on_c, 3, 57, 110
5, 160239, Note_off_c, 3, 57, 127
5, 160320, Note_on_c, 3, 59, 110
5, 161159, Note_off_c, 3, 59, 127
5, 162240, Note_on_c, 3, 57, 110
5, 163079, Note_off_c, 3, 57, 127
5, 163679, Note_on_c, 3, 57, 110
5, 164079, Note_off_c, 3, 57, 127
5, 164160, Note_on_c, 3, 62, 110
5, 164999, Note_off_c, 3, 62, 127
5, 165599, Note_on_c, 3, 57, 110
5, 165999, Note_off_c, 3, 57, 127
5, 166079, Note_on_c, 3, 59, 110
5, 166479, Note_off_c, 3, 59, 127
5, 166560, Note_on_c, 3, 62, 110
5, 166960, Note_off_c, 3, 62, 127
5, 167040, Note_on_c, 3, 67, 110
5, 167440, Note_off_c, 3, 67, 127
5, 167519, Note_on_c, 3, 62, 110
5, 167919, Note_off_c, 3, 62, 127
5, 167999, Note_on_c, 3, 59, 110
5, 168399, Note_off_c, 3, 59, 127
5, 169439, Note_on_c, 3, 59, 110
5, 169839, Note_off_c, 3, 59, 127
5, 169919, Note_on_c, 3, 64, 110
5, 170319, Note_off_c, 3, 64, 127
5, 170399, Note_on_c, 3, 59, 110
5, 170799, Note_off_c, 3, 59, 127
5, 171360, Note_on_c, 3, 59, 110
5, 171760, Note_off_c, 3, 59, 127
5, 171839, Note_on_c, 3, 64, 110
5, 172239, Note_off_c, 3, 64, 127
5, 172319, Note_on_c, 3, 59, 110
5, 172719, Note_off_c, 3, 59, 127
5, 172800, Note_on_c, 3, 57, 110
5, 173200, Note_off_c, 3, 57, 127
5, 173280, Note_on_c, 3, 59, 110
5, 173680, Note_off_c, 3, 59, 127
5, 173759, Note_on_c, 3, 60, 110
5, 174159, Note_off_c, 3, 60, 127
5, 174239, Note_on_c, 3, 57, 110
5, 174639, Note_off_c, 3, 57, 127
5, 175679, Note_on_c, 3, 57, 110
5, 176079, Note_off_c, 3, 57, 127
5, 176639, Note_on_c, 3, 60, 110
5, 177039, Note_off_c, 3, 60, 127
5, 177120, Note_on_c, 3, 64, 110
5, 177520, Note_off_c, 3, 64, 127
5, 177600, Note_on_c, 3, 67, 110
5, 178440, Note_off_c, 3, 67, 127
5, 179040, Note_on_c, 3, 59, 110
5, 179440, Note_off_c, 3, 59, 127
5, 179520, Note_on_c, 3, 62, 110
5, 179920, Note_off_c, 3, 62, 127
5, 179999, Note_on_c, 3, 67, 110
5, 180399, Note_off_c, 3, 67, 127
5, 180479, Note_on_c, 3, 65, 110
5, 181320, Note_off_c, 3, 65, 127
5, 181440, Note_on_c, 3, 64, 110
5, 181840, Note_off_c, 3, 64, 127
5, 181920, Note_on_c, 3, 62, 110
5, 182319, Note_off_c, 3, 62, 127
5, 182399, Note_on_c, 3, 64, 110
5, 182799, Note_off_c, 3, 64, 127
5, 182879, Note_on_c, 3, 67, 110
5, 183279, Note_off_c, 3, 67, 127
5, 183360, Note_on_c, 3, 65, 110
5, 183760, Note_off_c, 3, 65, 127
5, 183840, Note_on_c, 3, 62, 110
5, 184240, Note_off_c, 3, 62, 127
5, 184799, Note_on_c, 3, 59, 110
5, 185199, Note_off_c, 3, 59, 127
5, 185280, Note_on_c, 3, 64, 110
5, 185680, Note_off_c, 3, 64, 127
5, 185760, Note_on_c, 3, 59, 110
5, 186160, Note_off_c, 3, 59, 127
5, 186719, Note_on_c, 3, 59, 110
5, 187119, Note_off_c, 3, 59, 127
5, 187199, Note_on_c, 3, 64, 110
5, 187599, Note_off_c, 3, 64, 127
5, 187680, Note_on_c, 3, 59, 110
5, 188080, Note_off_c, 3, 59, 127
5, 188160, Note_on_c, 3, 57, 110
5, 188560, Note_off_c, 3, 57, 127
5, 188639, Note_on_c, 3, 59, 110
5, 189039, Note_off_c, 3, 59, 127
5, 189119, Note_on_c, 3, 60, 110
5, 189519, Note_off_c, 3, 60, 127
5, 189600, Note_on_c, 3, 57, 110
5, 190000, Note_off_c, 3, 57, 127
5, 191039, Note_on_c, 3, 57, 110
5, 191439, Note_off_c, 3, 57, 127
5, 192000, Note_on_c, 3, 60, 110
5, 192400, Note_off_c, 3, 60, 127
5, 192480, Note_on_c, 3, 64, 110
5, 192879, Note_off_c, 3, 64, 127
5, 192959, Note_on_c, 3, 67, 110
5, 193800, Note_off_c, 3, 67, 127
5, 194400, Note_on_c, 3, 59, 110
5, 194800, Note_off_c, 3, 59, 127
5, 194879, Note_on_c, 3, 62, 110
5, 195279, Note_off_c, 3, 62, 127
5, 195359, Note_on_c, 3, 67, 110
5, 195759, Note_off_c, 3, 67, 127
5, 195840, Note_on_c, 3, 65, 110
5, 196679, Note_off_c, 3, 65, 127
5, 196799, Note_on_c, 3, 64, 110
5, 197199, Note_off_c, 3, 64, 127
5, 197279, Note_on_c, 3, 62, 110
5, 197679, Note_off_c, 3, 62, 127
5, 197759, Note_on_c, 3, 64, 110
5, 198159, Note_off_c, 3, 64, 127
5, 198240, Note_on_c, 3, 67, 110
5, 198640, Note_off_c, 3, 67, 127
5, 198720, Note_on_c, 3, 65, 110
5, 199120, Note_off_c, 3, 65, 127
5, 199199, Note_on_c, 3, 62, 110
5, 199599, Note_off_c, 3, 62, 127
5, 199679, Note_on_c, 3, 60, 110
5, 201479, Note_off_c, 3, 60, 127
5, 201599, Note_on_c, 3, 60, 110
5, 203399, Note_off_c, 3, 60, 127
5, 203519, End_track
6, 0, Start_track
6, 0, Title_t, "Staff-3"
6, 0, Note_on_c, 4, 55, 110
6, 0, Control_c, 4, 91, 0
6, 0, Control_c, 4, 7, 127
6, 0, Control_c, 4, 93, 0
6, 0, Control_c, 4, 10, 64
6, 0, Control_c, 4, 121, 0
6, 0, Program_c, 4, 25
6, 0, Control_c, 4, 32, 0
6, 0, Control_c, 4, 0, 0
6, 1800, Note_off_c, 4, 55, 127
6, 1919, Note_on_c, 4, 50, 110
6, 3720, Note_off_c, 4, 50, 127
6, 3839, Note_on_c, 4, 52, 110
6, 5639, Note_off_c, 4, 52, 127
6, 5759, Note_on_c, 4, 55, 110
6, 5759, Note_on_c, 4, 50, 110
6, 6159, Note_off_c, 4, 50, 127
6, 7679, Note_on_c, 4, 53, 110
6, 7679, Note_on_c, 4, 48, 110
6, 8079, Note_off_c, 4, 48, 127
6, 8159, Note_on_c, 4, 55, 110
6, 8559, Note_off_c, 4, 55, 127
6, 9599, Note_on_c, 4, 54, 110
6, 9599, Note_on_c, 4, 50, 110
6, 9999, Note_off_c, 4, 50, 127
6, 11519, Note_on_c, 4, 55, 110
6, 11519, Note_on_c, 4, 50, 110
6, 11919, Note_off_c, 4, 50, 127
6, 13440, Note_on_c, 4, 50, 110
6, 14760, Note_off_c, 4, 50, 127
6, 14880, Note_on_c, 4, 55, 110
6, 15280, Note_off_c, 4, 55, 127
6, 15360, Note_on_c, 4, 56, 110
6, 15360, Note_on_c, 4, 52, 110
6, 15760, Note_off_c, 4, 52, 127
6, 17280, Note_on_c, 4, 56, 110
6, 17280, Note_on_c, 4, 52, 110
6, 17680, Note_off_c, 4, 52, 127
6, 19200, Note_on_c, 4, 52, 110
6, 21000, Note_off_c, 4, 52, 127
6, 21120, Note_on_c, 4, 48, 110
6, 21120, Note_on_c, 4, 53, 110
6, 21520, Note_off_c, 4, 48, 127
6, 21600, Note_on_c, 4, 55, 110
6, 22000, Note_off_c, 4, 55, 127
6, 22559, Note_on_c, 4, 53, 110
6, 22959, Note_off_c, 4, 53, 127
6, 23039, Note_on_c, 4, 52, 110
6, 24840, Note_off_c, 4, 52, 127
6, 24959, Note_on_c, 4, 55, 110
6, 24959, Note_on_c, 4, 50, 110
6, 25359, Note_off_c, 4, 50, 127
6, 26879, Note_on_c, 4, 48, 110
6, 29640, Note_off_c, 4, 48, 127
6, 29760, Note_on_c, 4, 50, 110
6, 30599, Note_off_c, 4, 50, 127
6, 30719, Note_on_c, 4, 55, 110
6, 32519, Note_off_c, 4, 55, 127
6, 32639, Note_on_c, 4, 50, 110
6, 34439, Note_off_c, 4, 50, 127
6, 34560, Note_on_c, 4, 52, 110
6, 36359, Note_off_c, 4, 52, 127
6, 36480, Note_on_c, 4, 55, 110
6, 36480, Note_on_c, 4, 50, 110
6, 36880, Note_off_c, 4, 50, 127
6, 38400, Note_on_c, 4, 53, 110
6, 38400, Note_on_c, 4, 48, 110
6, 38800, Note_off_c, 4, 48, 127
6, 38879, Note_on_c, 4, 55, 110
6, 39279, Note_off_c, 4, 55, 127
6, 40320, Note_on_c, 4, 54, 110
6, 40320, Note_on_c, 4, 50, 110
6, 40720, Note_off_c, 4, 50, 127
6, 42240, Note_on_c, 4, 55, 110
6, 42240, Note_on_c, 4, 50, 110
6, 42640, Note_off_c, 4, 50, 127
6, 44159, Note_on_c, 4, 50, 110
6, 45479, Note_off_c, 4, 50, 127
6, 45599, Note_on_c, 4, 55, 110
6, 45999, Note_off_c, 4, 55, 127
6, 46079, Note_on_c, 4, 56, 110
6, 46079, Note_on_c, 4, 52, 110
6, 46479, Note_off_c, 4, 52, 127
6, 47999, Note_on_c, 4, 56, 110
6, 47999, Note_on_c, 4, 52, 110
6, 48399, Note_off_c, 4, 52, 127
6, 49919, Note_on_c, 4, 52, 110
6, 51719, Note_off_c, 4, 52, 127
6, 51839, Note_on_c, 4, 53, 110
6, 51839, Note_on_c, 4, 48, 110
6, 52239, Note_off_c, 4, 48, 127
6, 52319, Note_on_c, 4, 55, 110
6, 52719, Note_off_c, 4, 55, 127
6, 53280, Note_on_c, 4, 53, 110
6, 53680, Note_off_c, 4, 53, 127
6, 53759, Note_on_c, 4, 52, 110
6, 55559, Note_off_c, 4, 52, 127
6, 55680, Note_on_c, 4, 55, 110
6, 55680, Note_on_c, 4, 50, 110
6, 56079, Note_off_c, 4, 50, 127
6, 57600, Note_on_c, 4, 48, 110
6, 59399, Note_off_c, 4, 48, 127
6, 59520, Note_on_c, 4, 48, 110
6, 60359, Note_off_c, 4, 48, 127
6, 60479, Note_on_c, 4, 50, 110
6, 61320, Note_off_c, 4, 50, 127
6, 61440, Note_on_c, 4, 53, 110
6, 61440, Note_on_c, 4, 48, 110
6, 61840, Note_off_c, 4, 48, 127
6, 63360, Note_on_c, 4, 53, 110
6, 63360, Note_on_c, 4, 48, 110
6, 63760, Note_off_c, 4, 48, 127
6, 65280, Note_on_c, 4, 55, 110
6, 67080, Note_off_c, 4, 55, 127
6, 67199, Note_on_c, 4, 55, 110
6, 69000, Note_off_c, 4, 55, 127
6, 69119, Note_on_c, 4, 50, 110
6, 69959, Note_off_c, 4, 50, 127
6, 70080, Note_on_c, 4, 55, 110
6, 70480, Note_off_c, 4, 55, 127
6, 71039, Note_on_c, 4, 50, 110
6, 71880, Note_off_c, 4, 50, 127
6, 72000, Note_on_c, 4, 55, 110
6, 72400, Note_off_c, 4, 55, 127
6, 72959, Note_on_c, 4, 55, 110
6, 74759, Note_off_c, 4, 55, 127
6, 74879, Note_on_c, 4, 55, 110
6, 76679, Note_off_c, 4, 55, 127
6, 76799, Note_on_c, 4, 48, 110
6, 78120, Note_off_c, 4, 48, 127
6, 78240, Note_on_c, 4, 53, 110
6, 78640, Note_off_c, 4, 53, 127
6, 78720, Note_on_c, 4, 48, 110
6, 80040, Note_off_c, 4, 48, 127
6, 80160, Note_on_c, 4, 53, 110
6, 80560, Note_off_c, 4, 53, 127
6, 80640, Note_on_c, 4, 54, 110
6, 82440, Note_off_c, 4, 54, 127
6, 82560, Note_on_c, 4, 54, 110
6, 84360, Note_off_c, 4, 54, 127
6, 84480, Note_on_c, 4, 55, 110
6, 84480, Note_on_c, 4, 50, 110
6, 84880, Note_off_c, 4, 50, 127
6, 86400, Note_on_c, 4, 55, 110
6, 86400, Note_on_c, 4, 50, 110
6, 86800, Note_off_c, 4, 50, 127
6, 88319, Note_on_c, 4, 55, 110
6, 88319, Note_on_c, 4, 52, 110
6, 88719, Note_off_c, 4, 52, 127
6, 90239, Note_on_c, 4, 55, 110
6, 90239, Note_on_c, 4, 50, 110
6, 90639, Note_off_c, 4, 50, 127
6, 92159, Note_on_c, 4, 55, 110
6, 93959, Note_off_c, 4, 55, 127
6, 94079, Note_on_c, 4, 50, 110
6, 95879, Note_off_c, 4, 50, 127
6, 95999, Note_on_c, 4, 52, 110
6, 97799, Note_off_c, 4, 52, 127
6, 97919, Note_on_c, 4, 55, 110
6, 97919, Note_on_c, 4, 50, 110
6, 98319, Note_off_c, 4, 50, 127
6, 99840, Note_on_c, 4, 53, 110
6, 99840, Note_on_c, 4, 48, 110
6, 100239, Note_off_c, 4, 48, 127
6, 100319, Note_on_c, 4, 55, 110
6, 100719, Note_off_c, 4, 55, 127
6, 101760, Note_on_c, 4, 54, 110
6, 101760, Note_on_c, 4, 50, 110
6, 102160, Note_off_c, 4, 50, 127
6, 103680, Note_on_c, 4, 55, 110
6, 103680, Note_on_c, 4, 50, 110
6, 104080, Note_off_c, 4, 50, 127
6, 105600, Note_on_c, 4, 50, 110
6, 106920, Note_off_c, 4, 50, 127
6, 107039, Note_on_c, 4, 55, 110
6, 107439, Note_off_c, 4, 55, 127
6, 107520, Note_on_c, 4, 56, 110
6, 107520, Note_on_c, 4, 52, 110
6, 107920, Note_off_c, 4, 52, 127
6, 109440, Note_on_c, 4, 56, 110
6, 109440, Note_on_c, 4, 52, 110
6, 109840, Note_off_c, 4, 52, 127
6, 111359, Note_on_c, 4, 52, 110
6, 113160, Note_off_c, 4, 52, 127
6, 113279, Note_on_c, 4, 53, 110
6, 113279, Note_on_c, 4, 48, 110
6, 113679, Note_off_c, 4, 48, 127
6, 113760, Note_on_c, 4, 55, 110
6, 114160, Note_off_c, 4, 55, 127
6, 114719, Note_on_c, 4, 53, 110
6, 115119, Note_off_c, 4, 53, 127
6, 115199, Note_on_c, 4, 52, 110
6, 116999, Note_off_c, 4, 52, 127
6, 117119, Note_on_c, 4, 55, 110
6, 117119, Note_on_c, 4, 50, 110
6, 117519, Note_off_c, 4, 50, 127
6, 119039, Note_on_c, 4, 48, 110
6, 120839, Note_off_c, 4, 48, 127
6, 120959, Note_on_c, 4, 48, 110
6, 121800, Note_off_c, 4, 48, 127
6, 121919, Note_on_c, 4, 50, 110
6, 122759, Note_off_c, 4, 50, 127
6, 122880, Note_on_c, 4, 53, 110
6, 122880, Note_on_c, 4, 48, 110
6, 123280, Note_off_c, 4, 48, 127
6, 124800, Note_on_c, 4, 53, 110
6, 124800, Note_on_c, 4, 48, 110
6, 125200, Note_off_c, 4, 48, 127
6, 126720, Note_on_c, 4, 55, 110
6, 128520, Note_off_c, 4, 55, 127
6, 128640, Note_on_c, 4, 55, 110
6, 130440, Note_off_c, 4, 55, 127
6, 130560, Note_on_c, 4, 50, 110
6, 131399, Note_off_c, 4, 50, 127
6, 131519, Note_on_c, 4, 55, 110
6, 131919, Note_off_c, 4, 55, 127
6, 132479, Note_on_c, 4, 50, 110
6, 133319, Note_off_c, 4, 50, 127
6, 133440, Note_on_c, 4, 55, 110
6, 133840, Note_off_c, 4, 55, 127
6, 134399, Note_on_c, 4, 55, 110
6, 136199, Note_off_c, 4, 55, 127
6, 136319, Note_on_c, 4, 55, 110
6, 138119, Note_off_c, 4, 55, 127
6, 138239, Note_on_c, 4, 48, 110
6, 139559, Note_off_c, 4, 48, 127
6, 139680, Note_on_c, 4, 53, 110
6, 140080, Note_off_c, 4, 53, 127
6, 140159, Note_on_c, 4, 48, 110
6, 141479, Note_off_c, 4, 48, 127
6, 141600, Note_on_c, 4, 53, 110
6, 142000, Note_off_c, 4, 53, 127
6, 142079, Note_on_c, 4, 54, 110
6, 143879, Note_off_c, 4, 54, 127
6, 144000, Note_on_c, 4, 54, 110
6, 145799, Note_off_c, 4, 54, 127
6, 145920, Note_on_c, 4, 55, 110
6, 145920, Note_on_c, 4, 50, 110
6, 146320, Note_off_c, 4, 50, 127
6, 147840, Note_on_c, 4, 55, 110
6, 147840, Note_on_c, 4, 50, 110
6, 148240, Note_off_c, 4, 50, 127
6, 149760, Note_on_c, 4, 55, 110
6, 149760, Note_on_c, 4, 52, 110
6, 150160, Note_off_c, 4, 52, 127
6, 151680, Note_on_c, 4, 55, 110
6, 151680, Note_on_c, 4, 50, 110
6, 152080, Note_off_c, 4, 50, 127
6, 153599, Note_on_c, 4, 55, 110
6, 155400, Note_off_c, 4, 55, 127
6, 155519, Note_on_c, 4, 50, 110
6, 157320, Note_off_c, 4, 50, 127
6, 157439, Note_on_c, 4, 52, 110
6, 159239, Note_off_c, 4, 52, 127
6, 159359, Note_on_c, 4, 55, 110
6, 159359, Note_on_c, 4, 50, 110
6, 159759, Note_off_c, 4, 50, 127
6, 161279, Note_on_c, 4, 53, 110
6, 161279, Note_on_c, 4, 48, 110
6, 161679, Note_off_c, 4, 48, 127
6, 161759, Note_on_c, 4, 55, 110
6, 162159, Note_off_c, 4, 55, 127
6, 163199, Note_on_c, 4, 50, 110
6, 163199, Note_on_c, 4, 54, 110
6, 163599, Note_off_c, 4, 50, 127
6, 165120, Note_on_c, 4, 50, 110
6, 165120, Note_on_c, 4, 55, 110
6, 165519, Note_off_c, 4, 50, 127
6, 167040, Note_on_c, 4, 50, 110
6, 168360, Note_off_c, 4, 50, 127
6, 168480, Note_on_c, 4, 55, 110
6, 168880, Note_off_c, 4, 55, 127
6, 168960, Note_on_c, 4, 56, 110
6, 168960, Note_on_c, 4, 52, 110
6, 169360, Note_off_c, 4, 52, 127
6, 170880, Note_on_c, 4, 52, 110
6, 170880, Note_on_c, 4, 56, 110
6, 171280, Note_off_c, 4, 52, 127
6, 172800, Note_on_c, 4, 52, 110
6, 174600, Note_off_c, 4, 52, 127
6, 174720, Note_on_c, 4, 53, 110
6, 174720, Note_on_c, 4, 48, 110
6, 175120, Note_off_c, 4, 48, 127
6, 175200, Note_on_c, 4, 55, 110
6, 175600, Note_off_c, 4, 55, 127
6, 176159, Note_on_c, 4, 53, 110
6, 176559, Note_off_c, 4, 53, 127
6, 176639, Note_on_c, 4, 52, 110
6, 178440, Note_off_c, 4, 52, 127
6, 178559, Note_on_c, 4, 50, 110
6, 178559, Note_on_c, 4, 55, 110
6, 178959, Note_off_c, 4, 50, 127
6, 180479, Note_on_c, 4, 48, 110
6, 182279, Note_off_c, 4, 48, 127
6, 182399, Note_on_c, 4, 48, 110
6, 183240, Note_off_c, 4, 48, 127
6, 183360, Note_on_c, 4, 50, 110
6, 184199, Note_off_c, 4, 50, 127
6, 184319, Note_on_c, 4, 56, 110
6, 184319, Note_on_c, 4, 52, 110
6, 184719, Note_off_c, 4, 52, 127
6, 186239, Note_on_c, 4, 52, 110
6, 186239, Note_on_c, 4, 56, 110
6, 186639, Note_off_c, 4, 52, 127
6, 188160, Note_on_c, 4, 52, 110
6, 189959, Note_off_c, 4, 52, 127
6, 190080, Note_on_c, 4, 48, 110
6, 190080, Note_on_c, 4, 53, 110
6, 190480, Note_off_c, 4, 48, 127
6, 190559, Note_on_c, 4, 55, 110
6, 190959, Note_off_c, 4, 55, 127
6, 191520, Note_on_c, 4, 53, 110
6, 191920, Note_off_c, 4, 53, 127
6, 192000, Note_on_c, 4, 52, 110
6, 193800, Note_off_c, 4, 52, 127
6, 193920, Note_on_c, 4, 50, 110
6, 193920, Note_on_c, 4, 55, 110
6, 194320, Note_off_c, 4, 50, 127
6, 195840, Note_on_c, 4, 48, 110
6, 197640, Note_off_c, 4, 48, 127
6, 197759, Note_on_c, 4, 48, 110
6, 198599, Note_off_c, 4, 48, 127
6, 198720, Note_on_c, 4, 50, 110
6, 199560, Note_off_c, 4, 50, 127
6, 199679, Note_on_c, 4, 55, 110
6, 201479, Note_off_c, 4, 55, 127
6, 201599, Note_on_c, 4, 55, 110
6, 203399, Note_off_c, 4, 55, 127
6, 203519, End_track
0, 0, End_of_file
