0, 0, Header, 1, 4, 384
1, 0, Start_track
1, 0, MIDI_port, 0
1, 0, Unknown_meta_event, 9, 1, 48
1, 0, System_exclusive, 5, 126, 127, 9, 1, 247
1, 0, Instrument_name_t, "GM"
1, 0, Tempo, 2000000
1, 0, Time_signature, 4, 2, 24, 8
1, 7, Program_c, 4, 80
1, 7, Program_c, 4, 80
1, 7, Program_c, 4, 80
1, 7, Control_c, 4, 121, 0
1, 7, Control_c, 4, 123, 0
1, 7, Control_c, 4, 123, 0
1, 7, Control_c, 4, 91, 0
1, 7, Control_c, 4, 7, 100
1, 7, Control_c, 4, 93, 0
1, 7, Control_c, 4, 10, 64
1, 7, Pitch_bend_c, 4, 8192
1, 74, Control_c, 4, 0, 0
1, 74, Control_c, 4, 123, 0
1, 75, Control_c, 4, 32, 0
1, 76, Program_c, 4, 80
1, 77, Control_c, 4, 65, 0
1, 81, Control_c, 4, 91, 0
1, 81, Control_c, 4, 7, 127
1, 84, Control_c, 4, 93, 0
1, 282, Pitch_bend_c, 4, 8192
1, 282, Note_on_c, 4, 62, 90
1, 301, Pitch_bend_c, 4, 8192
1, 301, Note_on_c, 4, 61, 90
1, 302, Note_on_c, 4, 62, 0
1, 321, Note_on_c, 4, 61, 0
1, 340, Pitch_bend_c, 4, 8192
1, 340, Note_on_c, 4, 60, 90
1, 359, Pitch_bend_c, 4, 8192
1, 359, Note_on_c, 4, 59, 90
1, 360, Note_on_c, 4, 60, 0
1, 379, Note_on_c, 4, 59, 0
1, 397, Pitch_bend_c, 4, 8192
1, 397, Note_on_c, 4, 55, 90
1, 417, Note_on_c, 4, 55, 0
1, 417, Pitch_bend_c, 4, 8192
1, 417, Note_on_c, 4, 53, 90
1, 437, Note_on_c, 4, 53, 0
1, 455, Pitch_bend_c, 4, 8192
1, 455, Note_on_c, 4, 52, 90
1, 474, Pitch_bend_c, 4, 8160
1, 474, Note_on_c, 4, 50, 90
1, 475, Note_on_c, 4, 52, 0
1, 503, Note_on_c, 4, 50, 0
1, 532, Pitch_bend_c, 4, 8192
1, 532, Note_on_c, 4, 62, 90
1, 561, Note_on_c, 4, 62, 0
1, 589, Pitch_bend_c, 4, 8160
1, 589, Note_on_c, 4, 50, 90
1, 618, Note_on_c, 4, 50, 0
1, 647, Pitch_bend_c, 4, 8192
1, 647, Note_on_c, 4, 55, 90
1, 676, Note_on_c, 4, 55, 0
1, 705, Pitch_bend_c, 4, 8164
1, 705, Note_on_c, 4, 48, 90
1, 734, Note_on_c, 4, 48, 0
1, 762, Pitch_bend_c, 4, 8192
1, 762, Note_on_c, 4, 55, 90
1, 791, Note_on_c, 4, 55, 0
1, 820, Pitch_bend_c, 4, 8164
1, 820, Note_on_c, 4, 48, 90
1, 849, Note_on_c, 4, 48, 0
1, 877, Pitch_bend_c, 4, 8192
1, 877, Note_on_c, 4, 55, 90
1, 906, Note_on_c, 4, 55, 0
1, 935, Pitch_bend_c, 4, 8165
1, 935, Note_on_c, 4, 47, 90
1, 964, Note_on_c, 4, 47, 0
1, 993, Pitch_bend_c, 4, 8192
1, 993, Note_on_c, 4, 55, 90
1, 1022, Note_on_c, 4, 55, 0
1, 1050, Pitch_bend_c, 4, 8165
1, 1050, Note_on_c, 4, 47, 90
1, 1079, Note_on_c, 4, 47, 0
1, 1108, Pitch_bend_c, 4, 8192
1, 1108, Note_on_c, 4, 55, 90
1, 1137, Note_on_c, 4, 55, 0
1, 1165, Pitch_bend_c, 4, 8167
1, 1165, Note_on_c, 4, 46, 90
1, 1194, Note_on_c, 4, 46, 0
1, 1223, Pitch_bend_c, 4, 8192
1, 1223, Note_on_c, 4, 55, 90
1, 1252, Note_on_c, 4, 55, 0
1, 1281, Pitch_bend_c, 4, 8167
1, 1281, Note_on_c, 4, 46, 90
1, 1310, Note_on_c, 4, 46, 0
1, 1338, Pitch_bend_c, 4, 8192
1, 1338, Note_on_c, 4, 55, 90
1, 1367, Note_on_c, 4, 55, 0
1, 1396, Pitch_bend_c, 4, 8168
1, 1396, Note_on_c, 4, 45, 90
1, 1425, Note_on_c, 4, 45, 0
1, 1453, Pitch_bend_c, 4, 8192
1, 1453, Note_on_c, 4, 55, 90
1, 1482, Note_on_c, 4, 55, 0
1, 1511, Pitch_bend_c, 4, 8168
1, 1511, Note_on_c, 4, 45, 90
1, 1540, Note_on_c, 4, 45, 0
1, 1569, Pitch_bend_c, 4, 8192
1, 1569, Note_on_c, 4, 55, 90
1, 1598, Note_on_c, 4, 55, 0
1, 1626, Pitch_bend_c, 4, 8173
1, 1626, Note_on_c, 4, 41, 90
1, 1655, Note_on_c, 4, 41, 0
1, 1684, Pitch_bend_c, 4, 8192
1, 1684, Note_on_c, 4, 53, 90
1, 1713, Note_on_c, 4, 53, 0
1, 1741, Pitch_bend_c, 4, 8172
1, 1741, Note_on_c, 4, 42, 90
1, 1770, Note_on_c, 4, 42, 0
1, 1799, Pitch_bend_c, 4, 8192
1, 1799, Note_on_c, 4, 54, 90
1, 1828, Note_on_c, 4, 54, 0
1, 1857, Pitch_bend_c, 4, 8171
1, 1857, Note_on_c, 4, 43, 90
1, 1886, Note_on_c, 4, 43, 0
1, 1914, Pitch_bend_c, 4, 8192
1, 1914, Note_on_c, 4, 55, 90
1, 1943, Note_on_c, 4, 55, 0
1, 1972, Pitch_bend_c, 4, 8168
1, 1972, Note_on_c, 4, 45, 90
1, 2001, Note_on_c, 4, 45, 0
1, 2029, Pitch_bend_c, 4, 8192
1, 2029, Note_on_c, 4, 57, 90
1, 2058, Note_on_c, 4, 57, 0
1, 2087, Pitch_bend_c, 4, 8160
1, 2087, Note_on_c, 4, 50, 90
1, 2116, Note_on_c, 4, 50, 0
1, 2144, Pitch_bend_c, 4, 8192
1, 2144, Note_on_c, 4, 53, 90
1, 2173, Note_on_c, 4, 53, 0
1, 2202, Pitch_bend_c, 4, 8171
1, 2202, Note_on_c, 4, 43, 90
1, 2231, Note_on_c, 4, 43, 0
1, 2260, Pitch_bend_c, 4, 8160
1, 2260, Note_on_c, 4, 50, 90
1, 2289, Note_on_c, 4, 50, 0
1, 2317, Pitch_bend_c, 4, 8164
1, 2317, Note_on_c, 4, 48, 90
1, 2346, Note_on_c, 4, 48, 0
1, 2375, Pitch_bend_c, 4, 8171
1, 2375, Note_on_c, 4, 43, 90
1, 2404, Note_on_c, 4, 43, 0
1, 2433, Pitch_bend_c, 4, 8164
1, 2433, Note_on_c, 4, 48, 90
1, 2462, Note_on_c, 4, 48, 0
1, 2548, Pitch_bend_c, 4, 8164
1, 2548, Note_on_c, 4, 48, 90
1, 2577, Note_on_c, 4, 48, 0
1, 2605, Pitch_bend_c, 4, 8160
1, 2605, Note_on_c, 4, 50, 90
1, 2634, Note_on_c, 4, 50, 0
1, 2663, Pitch_bend_c, 4, 8192
1, 2663, Note_on_c, 4, 52, 90
1, 2692, Note_on_c, 4, 52, 0
1, 2721, Pitch_bend_c, 4, 8192
1, 2721, Note_on_c, 4, 55, 90
1, 2750, Note_on_c, 4, 55, 0
1, 2778, Pitch_bend_c, 4, 8192
1, 2778, Note_on_c, 4, 57, 90
1, 2807, Note_on_c, 4, 57, 0
1, 2836, Pitch_bend_c, 4, 8192
1, 2836, Note_on_c, 4, 55, 90
1, 2865, Note_on_c, 4, 55, 0
1, 2893, Pitch_bend_c, 4, 8192
1, 2893, Note_on_c, 4, 52, 90
1, 2922, Note_on_c, 4, 52, 0
1, 2951, Pitch_bend_c, 4, 8164
1, 2951, Note_on_c, 4, 48, 90
1, 2980, Note_on_c, 4, 48, 0
1, 3009, Pitch_bend_c, 4, 8160
1, 3009, Note_on_c, 4, 50, 90
1, 3038, Note_on_c, 4, 50, 0
1, 3066, Pitch_bend_c, 4, 8192
1, 3066, Note_on_c, 4, 52, 90
1, 3095, Note_on_c, 4, 52, 0
1, 3124, Pitch_bend_c, 4, 8192
1, 3124, Note_on_c, 4, 54, 90
1, 3153, Note_on_c, 4, 54, 0
1, 3181, Pitch_bend_c, 4, 8168
1, 3181, Note_on_c, 4, 45, 90
1, 3210, Note_on_c, 4, 45, 0
1, 3239, Pitch_bend_c, 4, 8160
1, 3239, Note_on_c, 4, 50, 90
1, 3259, Note_on_c, 4, 50, 0
1, 3277, Pitch_bend_c, 4, 8192
1, 3277, Note_on_c, 4, 52, 90
1, 3297, Note_on_c, 4, 52, 0
1, 3297, Pitch_bend_c, 4, 8164
1, 3297, Note_on_c, 4, 48, 90
1, 3326, Note_on_c, 4, 48, 0
1, 3354, Pitch_bend_c, 4, 8165
1, 3354, Note_on_c, 4, 47, 90
1, 3383, Note_on_c, 4, 47, 0
1, 3412, Pitch_bend_c, 4, 8168
1, 3412, Note_on_c, 4, 45, 90
1, 3441, Note_on_c, 4, 45, 0
1, 3469, Pitch_bend_c, 4, 8171
1, 3469, Note_on_c, 4, 43, 90
1, 3498, Note_on_c, 4, 43, 0
1, 3527, Pitch_bend_c, 4, 8192
1, 3527, Note_on_c, 4, 55, 90
1, 3556, Note_on_c, 4, 55, 0
1, 3585, Pitch_bend_c, 4, 8192
1, 3585, Note_on_c, 4, 53, 90
1, 3614, Note_on_c, 4, 53, 0
1, 3642, Pitch_bend_c, 4, 8160
1, 3642, Note_on_c, 4, 50, 90
1, 3671, Note_on_c, 4, 50, 0
1, 3700, Pitch_bend_c, 4, 8165
1, 3700, Note_on_c, 4, 47, 90
1, 3729, Note_on_c, 4, 47, 0
1, 3757, Pitch_bend_c, 4, 8171
1, 3757, Note_on_c, 4, 43, 90
1, 3786, Note_on_c, 4, 43, 0
1, 3815, Pitch_bend_c, 4, 8168
1, 3815, Note_on_c, 4, 45, 90
1, 3844, Note_on_c, 4, 45, 0
1, 3873, Pitch_bend_c, 4, 8165
1, 3873, Note_on_c, 4, 47, 90
1, 3902, Note_on_c, 4, 47, 0
1, 3930, Pitch_bend_c, 4, 8164
1, 3930, Note_on_c, 4, 48, 90
1, 3959, Note_on_c, 4, 48, 0
1, 3988, Pitch_bend_c, 4, 8162
1, 3988, Note_on_c, 4, 49, 90
1, 4017, Note_on_c, 4, 49, 0
1, 4045, Pitch_bend_c, 4, 8160
1, 4045, Note_on_c, 4, 50, 90
1, 4074, Note_on_c, 4, 50, 0
1, 4103, Pitch_bend_c, 4, 8159
1, 4103, Note_on_c, 4, 51, 90
1, 4132, Note_on_c, 4, 51, 0
1, 4160, Pitch_bend_c, 4, 8192
1, 4160, Note_on_c, 4, 52, 90
1, 4180, Note_on_c, 4, 52, 0
1, 4199, Pitch_bend_c, 4, 8165
1, 4199, Note_on_c, 4, 47, 90
1, 4218, Pitch_bend_c, 4, 8168
1, 4218, Note_on_c, 4, 45, 90
1, 4219, Note_on_c, 4, 47, 0
1, 4247, Note_on_c, 4, 45, 0
1, 4276, Pitch_bend_c, 4, 8171
1, 4276, Note_on_c, 4, 43, 90
1, 4305, Note_on_c, 4, 43, 0
1, 4333, Pitch_bend_c, 4, 8165
1, 4333, Note_on_c, 4, 47, 90
1, 4362, Note_on_c, 4, 47, 0
1, 4391, Pitch_bend_c, 4, 8164
1, 4391, Note_on_c, 4, 48, 90
1, 4420, Note_on_c, 4, 48, 0
1, 4448, Pitch_bend_c, 4, 8160
1, 4448, Note_on_c, 4, 50, 90
1, 4477, Note_on_c, 4, 50, 0
1, 4506, Pitch_bend_c, 4, 8192
1, 4506, Note_on_c, 4, 52, 90
1, 4535, Note_on_c, 4, 52, 0
1, 4564, Pitch_bend_c, 4, 8192
1, 4564, Note_on_c, 4, 55, 90
1, 4593, Note_on_c, 4, 55, 0
1, 4621, Pitch_bend_c, 4, 8192
1, 4621, Note_on_c, 4, 57, 90
1, 4650, Note_on_c, 4, 57, 0
1, 4679, Pitch_bend_c, 4, 8192
1, 4679, Note_on_c, 4, 55, 90
1, 4708, Note_on_c, 4, 55, 0
1, 4737, Pitch_bend_c, 4, 8192
1, 4737, Note_on_c, 4, 52, 90
1, 4766, Note_on_c, 4, 52, 0
1, 4794, Pitch_bend_c, 4, 8164
1, 4794, Note_on_c, 4, 48, 90
1, 4823, Note_on_c, 4, 48, 0
1, 4852, Pitch_bend_c, 4, 8160
1, 4852, Note_on_c, 4, 50, 90
1, 4881, Note_on_c, 4, 50, 0
1, 4909, Pitch_bend_c, 4, 8192
1, 4909, Note_on_c, 4, 52, 90
1, 4938, Note_on_c, 4, 52, 0
1, 4967, Pitch_bend_c, 4, 8192
1, 4967, Note_on_c, 4, 54, 90
1, 4996, Note_on_c, 4, 54, 0
1, 5025, Pitch_bend_c, 4, 8168
1, 5025, Note_on_c, 4, 45, 90
1, 5054, Note_on_c, 4, 45, 0
1, 5082, Pitch_bend_c, 4, 8160
1, 5082, Note_on_c, 4, 50, 90
1, 5102, Note_on_c, 4, 50, 0
1, 5121, Pitch_bend_c, 4, 8192
1, 5121, Note_on_c, 4, 52, 90
1, 5140, Pitch_bend_c, 4, 8164
1, 5140, Note_on_c, 4, 48, 90
1, 5141, Note_on_c, 4, 52, 0
1, 5169, Note_on_c, 4, 48, 0
1, 5197, Pitch_bend_c, 4, 8165
1, 5197, Note_on_c, 4, 47, 90
1, 5226, Note_on_c, 4, 47, 0
1, 5255, Pitch_bend_c, 4, 8168
1, 5255, Note_on_c, 4, 45, 90
1, 5284, Note_on_c, 4, 45, 0
1, 5313, Pitch_bend_c, 4, 8171
1, 5313, Note_on_c, 4, 43, 90
1, 5342, Note_on_c, 4, 43, 0
1, 5370, Pitch_bend_c, 4, 8192
1, 5370, Note_on_c, 4, 55, 90
1, 5399, Note_on_c, 4, 55, 0
1, 5428, Pitch_bend_c, 4, 8192
1, 5428, Note_on_c, 4, 53, 90
1, 5457, Note_on_c, 4, 53, 0
1, 5485, Pitch_bend_c, 4, 8160
1, 5485, Note_on_c, 4, 50, 90
1, 5514, Note_on_c, 4, 50, 0
1, 5543, Pitch_bend_c, 4, 8165
1, 5543, Note_on_c, 4, 47, 90
1, 5572, Note_on_c, 4, 47, 0
1, 5601, Pitch_bend_c, 4, 8171
1, 5601, Note_on_c, 4, 43, 90
1, 5630, Note_on_c, 4, 43, 0
1, 5658, Pitch_bend_c, 4, 8168
1, 5658, Note_on_c, 4, 45, 90
1, 5687, Note_on_c, 4, 45, 0
1, 5716, Pitch_bend_c, 4, 8165
1, 5716, Note_on_c, 4, 47, 90
1, 5745, Note_on_c, 4, 47, 0
1, 5773, Pitch_bend_c, 4, 8164
1, 5773, Note_on_c, 4, 48, 90
1, 5802, Note_on_c, 4, 48, 0
1, 5831, Pitch_bend_c, 4, 8171
1, 5831, Note_on_c, 4, 43, 90
1, 5860, Note_on_c, 4, 43, 0
1, 5889, Pitch_bend_c, 4, 8168
1, 5889, Note_on_c, 4, 45, 90
1, 5918, Note_on_c, 4, 45, 0
1, 5946, Pitch_bend_c, 4, 8165
1, 5946, Note_on_c, 4, 47, 90
1, 5975, Note_on_c, 4, 47, 0
1, 6004, Pitch_bend_c, 4, 8164
1, 6004, Note_on_c, 4, 48, 90
1, 6033, Note_on_c, 4, 48, 0
1, 6100, Pitch_bend_c, 4, 8164
1, 6100, Note_on_c, 4, 48, 90
1, 6120, Note_on_c, 4, 48, 0
1, 6234, Pitch_bend_c, 4, 8192
1, 6234, Note_on_c, 4, 52, 90
1, 6263, Note_on_c, 4, 52, 0
1, 6292, Pitch_bend_c, 4, 8192
1, 6292, Note_on_c, 4, 59, 90
1, 6321, Note_on_c, 4, 59, 0
1, 6349, Pitch_bend_c, 4, 8192
1, 6349, Note_on_c, 4, 56, 90
1, 6378, Note_on_c, 4, 56, 0
1, 6407, Pitch_bend_c, 4, 8192
1, 6407, Note_on_c, 4, 53, 90
1, 6436, Note_on_c, 4, 53, 0
1, 6465, Pitch_bend_c, 4, 8192
1, 6465, Note_on_c, 4, 52, 90
1, 6494, Note_on_c, 4, 52, 0
1, 6522, Pitch_bend_c, 4, 8160
1, 6522, Note_on_c, 4, 50, 90
1, 6551, Note_on_c, 4, 50, 0
1, 6580, Pitch_bend_c, 4, 8165
1, 6580, Note_on_c, 4, 47, 90
1, 6609, Note_on_c, 4, 47, 0
1, 6637, Pitch_bend_c, 4, 8170
1, 6637, Note_on_c, 4, 44, 90
1, 6666, Note_on_c, 4, 44, 0
1, 6695, Pitch_bend_c, 4, 8168
1, 6695, Note_on_c, 4, 45, 90
1, 6724, Note_on_c, 4, 45, 0
1, 6753, Pitch_bend_c, 4, 8165
1, 6753, Note_on_c, 4, 47, 90
1, 6782, Note_on_c, 4, 47, 0
1, 6810, Pitch_bend_c, 4, 8164
1, 6810, Note_on_c, 4, 48, 90
1, 6839, Note_on_c, 4, 48, 0
1, 6868, Pitch_bend_c, 4, 8160
1, 6868, Note_on_c, 4, 50, 90
1, 6897, Note_on_c, 4, 50, 0
1, 6925, Pitch_bend_c, 4, 8192
1, 6925, Note_on_c, 4, 52, 90
1, 6954, Note_on_c, 4, 52, 0
1, 6983, Pitch_bend_c, 4, 8164
1, 6983, Note_on_c, 4, 48, 90
1, 7012, Note_on_c, 4, 48, 0
1, 7041, Pitch_bend_c, 4, 8165
1, 7041, Note_on_c, 4, 47, 90
1, 7070, Note_on_c, 4, 47, 0
1, 7098, Pitch_bend_c, 4, 8168
1, 7098, Note_on_c, 4, 45, 90
1, 7127, Note_on_c, 4, 45, 0
1, 7156, Pitch_bend_c, 4, 8160
1, 7156, Note_on_c, 4, 50, 90
1, 7185, Note_on_c, 4, 50, 0
1, 7213, Pitch_bend_c, 4, 8192
1, 7213, Note_on_c, 4, 52, 90
1, 7242, Note_on_c, 4, 52, 0
1, 7271, Pitch_bend_c, 4, 8192
1, 7271, Note_on_c, 4, 54, 90
1, 7300, Note_on_c, 4, 54, 0
1, 7329, Pitch_bend_c, 4, 8192
1, 7329, Note_on_c, 4, 57, 90
1, 7358, Note_on_c, 4, 57, 0
1, 7386, Pitch_bend_c, 4, 8160
1, 7386, Note_on_c, 4, 50, 90
1, 7415, Note_on_c, 4, 50, 0
1, 7444, Pitch_bend_c, 4, 8168
1, 7444, Note_on_c, 4, 45, 90
1, 7473, Note_on_c, 4, 45, 0
1, 7501, Pitch_bend_c, 4, 8160
1, 7501, Note_on_c, 4, 50, 90
1, 7530, Note_on_c, 4, 50, 0
1, 7559, Pitch_bend_c, 4, 8192
1, 7559, Note_on_c, 4, 54, 90
1, 7588, Note_on_c, 4, 54, 0
1, 7617, Pitch_bend_c, 4, 8192
1, 7617, Note_on_c, 4, 55, 90
1, 7646, Note_on_c, 4, 55, 0
1, 7674, Pitch_bend_c, 4, 8192
1, 7674, Note_on_c, 4, 53, 90
1, 7703, Note_on_c, 4, 53, 0
1, 7732, Pitch_bend_c, 4, 8160
1, 7732, Note_on_c, 4, 50, 90
1, 7761, Note_on_c, 4, 50, 0
1, 7789, Pitch_bend_c, 4, 8165
1, 7789, Note_on_c, 4, 47, 90
1, 7818, Note_on_c, 4, 47, 0
1, 7847, Pitch_bend_c, 4, 8160
1, 7847, Note_on_c, 4, 50, 90
1, 7876, Note_on_c, 4, 50, 0
1, 7905, Pitch_bend_c, 4, 8165
1, 7905, Note_on_c, 4, 47, 90
1, 7934, Note_on_c, 4, 47, 0
1, 7962, Pitch_bend_c, 4, 8168
1, 7962, Note_on_c, 4, 45, 90
1, 7991, Note_on_c, 4, 45, 0
1, 8020, Pitch_bend_c, 4, 8171
1, 8020, Note_on_c, 4, 43, 90
1, 8049, Note_on_c, 4, 43, 0
1, 8077, Pitch_bend_c, 4, 8164
1, 8077, Note_on_c, 4, 48, 90
1, 8106, Note_on_c, 4, 48, 0
1, 8135, Pitch_bend_c, 4, 8192
1, 8135, Note_on_c, 4, 55, 90
1, 8164, Note_on_c, 4, 55, 0
1, 8192, Pitch_bend_c, 4, 8164
1, 8192, Note_on_c, 4, 48, 90
1, 8221, Note_on_c, 4, 48, 0
1, 8250, Pitch_bend_c, 4, 8192
1, 8250, Note_on_c, 4, 55, 90
1, 8279, Note_on_c, 4, 55, 0
1, 8308, Pitch_bend_c, 4, 8165
1, 8308, Note_on_c, 4, 47, 90
1, 8337, Note_on_c, 4, 47, 0
1, 8365, Pitch_bend_c, 4, 8192
1, 8365, Note_on_c, 4, 55, 90
1, 8394, Note_on_c, 4, 55, 0
1, 8423, Pitch_bend_c, 4, 8165
1, 8423, Note_on_c, 4, 47, 90
1, 8452, Note_on_c, 4, 47, 0
1, 8480, Pitch_bend_c, 4, 8192
1, 8480, Note_on_c, 4, 55, 90
1, 8509, Note_on_c, 4, 55, 0
1, 8538, Pitch_bend_c, 4, 8167
1, 8538, Note_on_c, 4, 46, 90
1, 8567, Note_on_c, 4, 46, 0
1, 8596, Pitch_bend_c, 4, 8192
1, 8596, Note_on_c, 4, 55, 90
1, 8625, Note_on_c, 4, 55, 0
1, 8653, Pitch_bend_c, 4, 8167
1, 8653, Note_on_c, 4, 46, 90
1, 8682, Note_on_c, 4, 46, 0
1, 8711, Pitch_bend_c, 4, 8192
1, 8711, Note_on_c, 4, 55, 90
1, 8740, Note_on_c, 4, 55, 0
1, 8768, Pitch_bend_c, 4, 8168
1, 8768, Note_on_c, 4, 45, 90
1, 8797, Note_on_c, 4, 45, 0
1, 8826, Pitch_bend_c, 4, 8192
1, 8826, Note_on_c, 4, 55, 90
1, 8855, Note_on_c, 4, 55, 0
1, 8884, Pitch_bend_c, 4, 8168
1, 8884, Note_on_c, 4, 45, 90
1, 8913, Note_on_c, 4, 45, 0
1, 8941, Pitch_bend_c, 4, 8192
1, 8941, Note_on_c, 4, 55, 90
1, 8970, Note_on_c, 4, 55, 0
1, 8999, Pitch_bend_c, 4, 8173
1, 8999, Note_on_c, 4, 41, 90
1, 9028, Note_on_c, 4, 41, 0
1, 9056, Pitch_bend_c, 4, 8192
1, 9056, Note_on_c, 4, 53, 90
1, 9085, Note_on_c, 4, 53, 0
1, 9114, Pitch_bend_c, 4, 8172
1, 9114, Note_on_c, 4, 42, 90
1, 9143, Note_on_c, 4, 42, 0
1, 9172, Pitch_bend_c, 4, 8192
1, 9172, Note_on_c, 4, 54, 90
1, 9201, Note_on_c, 4, 54, 0
1, 9229, Pitch_bend_c, 4, 8171
1, 9229, Note_on_c, 4, 43, 90
1, 9258, Note_on_c, 4, 43, 0
1, 9287, Pitch_bend_c, 4, 8192
1, 9287, Note_on_c, 4, 55, 90
1, 9316, Note_on_c, 4, 55, 0
1, 9344, Pitch_bend_c, 4, 8168
1, 9344, Note_on_c, 4, 45, 90
1, 9373, Note_on_c, 4, 45, 0
1, 9402, Pitch_bend_c, 4, 8192
1, 9402, Note_on_c, 4, 57, 90
1, 9431, Note_on_c, 4, 57, 0
1, 9460, Pitch_bend_c, 4, 8160
1, 9460, Note_on_c, 4, 50, 90
1, 9489, Note_on_c, 4, 50, 0
1, 9517, Pitch_bend_c, 4, 8192
1, 9517, Note_on_c, 4, 53, 90
1, 9546, Note_on_c, 4, 53, 0
1, 9575, Pitch_bend_c, 4, 8171
1, 9575, Note_on_c, 4, 43, 90
1, 9604, Note_on_c, 4, 43, 0
1, 9633, Pitch_bend_c, 4, 8160
1, 9633, Note_on_c, 4, 50, 90
1, 9662, Note_on_c, 4, 50, 0
1, 9690, Pitch_bend_c, 4, 8164
1, 9690, Note_on_c, 4, 48, 90
1, 9719, Note_on_c, 4, 48, 0
1, 9748, Pitch_bend_c, 4, 8171
1, 9748, Note_on_c, 4, 43, 90
1, 9777, Note_on_c, 4, 43, 0
1, 9805, Pitch_bend_c, 4, 8164
1, 9805, Note_on_c, 4, 48, 90
1, 9834, Note_on_c, 4, 48, 0
1, 9921, Pitch_bend_c, 4, 8164
1, 9921, Note_on_c, 4, 48, 90
1, 9950, Note_on_c, 4, 48, 0
1, 9978, Pitch_bend_c, 4, 8160
1, 9978, Note_on_c, 4, 50, 90
1, 10007, Note_on_c, 4, 50, 0
1, 10036, Pitch_bend_c, 4, 8192
1, 10036, Note_on_c, 4, 52, 90
1, 10065, Note_on_c, 4, 52, 0
1, 10093, Pitch_bend_c, 4, 8192
1, 10093, Note_on_c, 4, 55, 90
1, 10122, Note_on_c, 4, 55, 0
1, 10151, Pitch_bend_c, 4, 8192
1, 10151, Note_on_c, 4, 57, 90
1, 10180, Note_on_c, 4, 57, 0
1, 10209, Pitch_bend_c, 4, 8192
1, 10209, Note_on_c, 4, 55, 90
1, 10225, Note_on_c, 4, 55, 0
1, 10225, End_track
2, 0, Start_track
2, 0, MIDI_port, 0
2, 0, Unknown_meta_event, 9, 1, 48
2, 0, Title_t, "Super Mario Bros. 2"
2, 0, Program_c, 0, 80
2, 0, Control_c, 0, 10, 64
2, 0, Control_c, 0, 121, 0
2, 0, Control_c, 0, 123, 0
2, 0, Control_c, 0, 123, 0
2, 0, Control_c, 0, 91, 0
2, 0, Control_c, 0, 7, 100
2, 0, Control_c, 0, 93, 0
2, 49, Control_c, 0, 0, 0
2, 49, Control_c, 0, 123, 0
2, 50, Control_c, 0, 32, 0
2, 51, Program_c, 0, 80
2, 52, Control_c, 0, 65, 0
2, 55, Control_c, 0, 91, 0
2, 55, Control_c, 0, 7, 127
2, 58, Control_c, 0, 93, 0
2, 282, Control_c, 0, 11, 108
2, 282, Pitch_bend_c, 0, 8192
2, 282, Note_on_c, 0, 71, 127
2, 288, Control_c, 0, 11, 103
2, 295, Control_c, 0, 11, 98
2, 301, Control_c, 0, 11, 108
2, 301, Pitch_bend_c, 0, 8192
2, 301, Note_on_c, 0, 70, 127
2, 302, Note_on_c, 0, 71, 0
2, 308, Control_c, 0, 11, 103
2, 314, Control_c, 0, 11, 98
2, 321, Control_c, 0, 11, 0
2, 340, Note_on_c, 0, 70, 0
2, 340, Control_c, 0, 11, 108
2, 340, Pitch_bend_c, 0, 8192
2, 340, Note_on_c, 0, 69, 127
2, 346, Control_c, 0, 11, 103
2, 353, Control_c, 0, 11, 98
2, 359, Control_c, 0, 11, 108
2, 359, Pitch_bend_c, 0, 8192
2, 359, Note_on_c, 0, 65, 127
2, 360, Note_on_c, 0, 69, 0
2, 365, Control_c, 0, 11, 103
2, 372, Control_c, 0, 11, 98
2, 378, Control_c, 0, 11, 0
2, 397, Control_c, 0, 11, 108
2, 397, Pitch_bend_c, 0, 8160
2, 397, Note_on_c, 0, 62, 127
2, 398, Note_on_c, 0, 65, 0
2, 404, Control_c, 0, 11, 103
2, 410, Control_c, 0, 11, 98
2, 417, Note_on_c, 0, 62, 0
2, 417, Control_c, 0, 11, 108
2, 417, Pitch_bend_c, 0, 8164
2, 417, Note_on_c, 0, 60, 127
2, 423, Control_c, 0, 11, 103
2, 429, Control_c, 0, 11, 98
2, 436, Control_c, 0, 11, 0
2, 455, Control_c, 0, 11, 108
2, 455, Pitch_bend_c, 0, 8165
2, 455, Note_on_c, 0, 59, 127
2, 456, Note_on_c, 0, 60, 0
2, 461, Control_c, 0, 11, 103
2, 468, Control_c, 0, 11, 98
2, 474, Control_c, 0, 11, 108
2, 474, Pitch_bend_c, 0, 8165
2, 474, Note_on_c, 0, 59, 127
2, 475, Note_on_c, 0, 59, 0
2, 481, Control_c, 0, 11, 103
2, 487, Control_c, 0, 11, 98
2, 497, Control_c, 0, 11, 92
2, 503, Control_c, 0, 11, 0
2, 532, Note_on_c, 0, 59, 0
2, 532, Control_c, 0, 11, 108
2, 532, Pitch_bend_c, 0, 8192
2, 532, Note_on_c, 0, 71, 127
2, 538, Control_c, 0, 11, 103
2, 544, Control_c, 0, 11, 98
2, 554, Control_c, 0, 11, 92
2, 560, Control_c, 0, 11, 0
2, 589, Control_c, 0, 11, 108
2, 589, Pitch_bend_c, 0, 8192
2, 589, Note_on_c, 0, 65, 127
2, 590, Note_on_c, 0, 71, 0
2, 596, Control_c, 0, 11, 103
2, 602, Control_c, 0, 11, 98
2, 612, Control_c, 0, 11, 92
2, 634, Control_c, 0, 11, 86
2, 641, Control_c, 0, 11, 80
2, 644, Control_c, 0, 11, 73
2, 647, Control_c, 0, 11, 0
2, 705, Note_on_c, 0, 65, 0
2, 705, Control_c, 0, 11, 92
2, 705, Pitch_bend_c, 0, 8192
2, 705, Note_on_c, 0, 72, 127
2, 711, Control_c, 0, 11, 86
2, 724, Control_c, 0, 11, 0
2, 743, Control_c, 0, 11, 92
2, 743, Pitch_bend_c, 0, 8192
2, 743, Note_on_c, 0, 64, 127
2, 744, Note_on_c, 0, 72, 0
2, 749, Control_c, 0, 11, 86
2, 762, Control_c, 0, 11, 92
2, 762, Pitch_bend_c, 0, 8192
2, 762, Note_on_c, 0, 67, 127
2, 763, Note_on_c, 0, 64, 0
2, 769, Control_c, 0, 11, 86
2, 781, Control_c, 0, 11, 0
2, 801, Note_on_c, 0, 67, 0
2, 801, Control_c, 0, 11, 92
2, 801, Pitch_bend_c, 0, 8192
2, 801, Note_on_c, 0, 72, 127
2, 807, Control_c, 0, 11, 86
2, 820, Control_c, 0, 11, 80
2, 858, Control_c, 0, 11, 92
2, 858, Pitch_bend_c, 0, 8192
2, 858, Note_on_c, 0, 64, 127
2, 859, Note_on_c, 0, 72, 0
2, 865, Control_c, 0, 11, 86
2, 877, Control_c, 0, 11, 92
2, 877, Pitch_bend_c, 0, 8192
2, 877, Note_on_c, 0, 67, 127
2, 878, Note_on_c, 0, 64, 0
2, 884, Control_c, 0, 11, 86
2, 897, Control_c, 0, 11, 0
2, 916, Note_on_c, 0, 67, 0
2, 916, Control_c, 0, 11, 92
2, 916, Pitch_bend_c, 0, 8192
2, 916, Note_on_c, 0, 72, 127
2, 922, Control_c, 0, 11, 86
2, 935, Control_c, 0, 11, 92
2, 935, Pitch_bend_c, 0, 8159
2, 935, Note_on_c, 0, 63, 127
2, 936, Note_on_c, 0, 72, 0
2, 941, Control_c, 0, 11, 86
2, 954, Control_c, 0, 11, 92
2, 954, Pitch_bend_c, 0, 8192
2, 954, Note_on_c, 0, 67, 127
2, 955, Note_on_c, 0, 63, 0
2, 961, Control_c, 0, 11, 86
2, 973, Control_c, 0, 11, 92
2, 973, Pitch_bend_c, 0, 8192
2, 973, Note_on_c, 0, 71, 127
2, 974, Note_on_c, 0, 67, 0
2, 980, Control_c, 0, 11, 86
2, 993, Note_on_c, 0, 71, 0
2, 993, Control_c, 0, 11, 92
2, 993, Pitch_bend_c, 0, 8192
2, 993, Note_on_c, 0, 75, 127
2, 999, Control_c, 0, 11, 86
2, 1012, Control_c, 0, 11, 0
2, 1031, Control_c, 0, 11, 92
2, 1031, Pitch_bend_c, 0, 8192
2, 1031, Note_on_c, 0, 71, 127
2, 1032, Note_on_c, 0, 75, 0
2, 1037, Control_c, 0, 11, 86
2, 1050, Control_c, 0, 11, 80
2, 1146, Control_c, 0, 11, 0
2, 1165, Control_c, 0, 11, 92
2, 1165, Pitch_bend_c, 0, 8192
2, 1165, Note_on_c, 0, 70, 127
2, 1166, Note_on_c, 0, 71, 0
2, 1172, Control_c, 0, 11, 86
2, 1185, Control_c, 0, 11, 0
2, 1204, Note_on_c, 0, 70, 0
2, 1204, Control_c, 0, 11, 92
2, 1204, Pitch_bend_c, 0, 8160
2, 1204, Note_on_c, 0, 62, 127
2, 1210, Control_c, 0, 11, 86
2, 1223, Control_c, 0, 11, 92
2, 1223, Pitch_bend_c, 0, 8192
2, 1223, Note_on_c, 0, 67, 127
2, 1224, Note_on_c, 0, 62, 0
2, 1229, Control_c, 0, 11, 86
2, 1242, Control_c, 0, 11, 0
2, 1261, Control_c, 0, 11, 92
2, 1261, Pitch_bend_c, 0, 8192
2, 1261, Note_on_c, 0, 70, 127
2, 1262, Note_on_c, 0, 67, 0
2, 1268, Control_c, 0, 11, 86
2, 1281, Control_c, 0, 11, 80
2, 1319, Note_on_c, 0, 70, 0
2, 1319, Control_c, 0, 11, 92
2, 1319, Pitch_bend_c, 0, 8160
2, 1319, Note_on_c, 0, 62, 127
2, 1325, Control_c, 0, 11, 86
2, 1338, Control_c, 0, 11, 92
2, 1338, Pitch_bend_c, 0, 8192
2, 1338, Note_on_c, 0, 67, 127
2, 1339, Note_on_c, 0, 62, 0
2, 1345, Control_c, 0, 11, 86
2, 1357, Control_c, 0, 11, 0
2, 1377, Note_on_c, 0, 67, 0
2, 1377, Control_c, 0, 11, 92
2, 1377, Pitch_bend_c, 0, 8192
2, 1377, Note_on_c, 0, 70, 127
2, 1383, Control_c, 0, 11, 86
2, 1396, Control_c, 0, 11, 92
2, 1396, Pitch_bend_c, 0, 8192
2, 1396, Note_on_c, 0, 64, 127
2, 1397, Note_on_c, 0, 70, 0
2, 1402, Control_c, 0, 11, 86
2, 1415, Control_c, 0, 11, 92
2, 1415, Pitch_bend_c, 0, 8192
2, 1415, Note_on_c, 0, 69, 127
2, 1416, Note_on_c, 0, 64, 0
2, 1421, Control_c, 0, 11, 86
2, 1434, Control_c, 0, 11, 92
2, 1434, Pitch_bend_c, 0, 8192
2, 1434, Note_on_c, 0, 73, 127
2, 1435, Note_on_c, 0, 69, 0
2, 1441, Control_c, 0, 11, 86
2, 1453, Control_c, 0, 11, 92
2, 1453, Pitch_bend_c, 0, 8192
2, 1453, Note_on_c, 0, 76, 127
2, 1454, Note_on_c, 0, 73, 0
2, 1460, Control_c, 0, 11, 86
2, 1473, Control_c, 0, 11, 0
2, 1492, Note_on_c, 0, 76, 0
2, 1492, Control_c, 0, 11, 92
2, 1492, Pitch_bend_c, 0, 8192
2, 1492, Note_on_c, 0, 73, 127
2, 1498, Control_c, 0, 11, 86
2, 1511, Control_c, 0, 11, 80
2, 1607, Control_c, 0, 11, 92
2, 1607, Pitch_bend_c, 0, 8192
2, 1607, Note_on_c, 0, 76, 127
2, 1608, Note_on_c, 0, 73, 0
2, 1613, Control_c, 0, 11, 86
2, 1626, Control_c, 0, 11, 92
2, 1626, Pitch_bend_c, 0, 8192
2, 1626, Note_on_c, 0, 81, 127
2, 1627, Note_on_c, 0, 76, 0
2, 1633, Control_c, 0, 11, 86
2, 1645, Control_c, 0, 11, 0
2, 1665, Note_on_c, 0, 81, 0
2, 1665, Control_c, 0, 11, 92
2, 1665, Pitch_bend_c, 0, 8192
2, 1665, Note_on_c, 0, 79, 127
2, 1671, Control_c, 0, 11, 86
2, 1684, Control_c, 0, 11, 92
2, 1684, Pitch_bend_c, 0, 8192
2, 1684, Note_on_c, 0, 81, 127
2, 1685, Note_on_c, 0, 79, 0
2, 1690, Control_c, 0, 11, 86
2, 1703, Control_c, 0, 11, 0
2, 1722, Control_c, 0, 11, 92
2, 1722, Pitch_bend_c, 0, 8192
2, 1722, Note_on_c, 0, 77, 127
2, 1723, Note_on_c, 0, 81, 0
2, 1729, Control_c, 0, 11, 86
2, 1741, Control_c, 0, 11, 80
2, 1780, Note_on_c, 0, 77, 0
2, 1780, Control_c, 0, 11, 92
2, 1780, Pitch_bend_c, 0, 8192
2, 1780, Note_on_c, 0, 81, 127
2, 1786, Control_c, 0, 11, 86
2, 1799, Control_c, 0, 11, 92
2, 1799, Pitch_bend_c, 0, 8192
2, 1799, Note_on_c, 0, 79, 127
2, 1800, Note_on_c, 0, 81, 0
2, 1805, Control_c, 0, 11, 86
2, 1818, Control_c, 0, 11, 0
2, 1837, Control_c, 0, 11, 92
2, 1837, Pitch_bend_c, 0, 8192
2, 1837, Note_on_c, 0, 78, 127
2, 1838, Note_on_c, 0, 79, 0
2, 1844, Control_c, 0, 11, 86
2, 1857, Note_on_c, 0, 78, 0
2, 1857, Control_c, 0, 11, 92
2, 1857, Pitch_bend_c, 0, 8192
2, 1857, Note_on_c, 0, 76, 127
2, 1863, Control_c, 0, 11, 86
2, 1876, Control_c, 0, 11, 0
2, 1895, Control_c, 0, 11, 92
2, 1895, Pitch_bend_c, 0, 8192
2, 1895, Note_on_c, 0, 75, 127
2, 1896, Note_on_c, 0, 76, 0
2, 1901, Control_c, 0, 11, 86
2, 1914, Control_c, 0, 11, 92
2, 1914, Pitch_bend_c, 0, 8192
2, 1914, Note_on_c, 0, 76, 127
2, 1915, Note_on_c, 0, 75, 0
2, 1921, Control_c, 0, 11, 86
2, 1933, Control_c, 0, 11, 0
2, 1953, Note_on_c, 0, 76, 0
2, 1953, Control_c, 0, 11, 92
2, 1953, Pitch_bend_c, 0, 8192
2, 1953, Note_on_c, 0, 72, 127
2, 1959, Control_c, 0, 11, 86
2, 1972, Control_c, 0, 11, 80
2, 2010, Control_c, 0, 11, 92
2, 2010, Pitch_bend_c, 0, 8192
2, 2010, Note_on_c, 0, 69, 127
2, 2011, Note_on_c, 0, 72, 0
2, 2017, Control_c, 0, 11, 86
2, 2029, Control_c, 0, 11, 92
2, 2029, Pitch_bend_c, 0, 8192
2, 2029, Note_on_c, 0, 71, 127
2, 2030, Note_on_c, 0, 69, 0
2, 2036, Control_c, 0, 11, 86
2, 2048, Control_c, 0, 11, 0
2, 2068, Note_on_c, 0, 71, 0
2, 2068, Control_c, 0, 11, 92
2, 2068, Pitch_bend_c, 0, 8192
2, 2068, Note_on_c, 0, 73, 127
2, 2074, Control_c, 0, 11, 86
2, 2087, Control_c, 0, 11, 92
2, 2087, Pitch_bend_c, 0, 8192
2, 2087, Note_on_c, 0, 74, 127
2, 2088, Note_on_c, 0, 73, 0
2, 2093, Control_c, 0, 11, 86
2, 2106, Control_c, 0, 11, 0
2, 2125, Control_c, 0, 11, 92
2, 2125, Pitch_bend_c, 0, 8192
2, 2125, Note_on_c, 0, 72, 127
2, 2126, Note_on_c, 0, 74, 0
2, 2132, Control_c, 0, 11, 86
2, 2144, Control_c, 0, 11, 92
2, 2144, Pitch_bend_c, 0, 8192
2, 2144, Note_on_c, 0, 74, 127
2, 2145, Note_on_c, 0, 72, 0
2, 2151, Control_c, 0, 11, 86
2, 2164, Control_c, 0, 11, 0
2, 2183, Note_on_c, 0, 74, 0
2, 2183, Control_c, 0, 11, 92
2, 2183, Pitch_bend_c, 0, 8192
2, 2183, Note_on_c, 0, 67, 127
2, 2189, Control_c, 0, 11, 86
2, 2202, Control_c, 0, 11, 80
2, 2240, Control_c, 0, 11, 92
2, 2240, Pitch_bend_c, 0, 8192
2, 2240, Note_on_c, 0, 72, 127
2, 2241, Note_on_c, 0, 67, 0
2, 2247, Control_c, 0, 11, 86
2, 2260, Note_on_c, 0, 72, 0
2, 2260, Control_c, 0, 11, 92
2, 2260, Pitch_bend_c, 0, 8192
2, 2260, Note_on_c, 0, 71, 127
2, 2266, Control_c, 0, 11, 86
2, 2279, Control_c, 0, 11, 0
2, 2298, Control_c, 0, 11, 92
2, 2298, Pitch_bend_c, 0, 8192
2, 2298, Note_on_c, 0, 67, 127
2, 2299, Note_on_c, 0, 71, 0
2, 2304, Control_c, 0, 11, 86
2, 2317, Control_c, 0, 11, 80
2, 2413, Control_c, 0, 11, 0
2, 2548, Control_c, 0, 11, 32
2, 2586, Note_on_c, 0, 67, 0
2, 2586, Control_c, 0, 11, 108
2, 2586, Pitch_bend_c, 0, 8192
2, 2586, Note_on_c, 0, 67, 127
2, 2589, Control_c, 0, 11, 103
2, 2593, Control_c, 0, 11, 98
2, 2596, Control_c, 0, 11, 92
2, 2599, Control_c, 0, 11, 86
2, 2602, Control_c, 0, 11, 80
2, 2605, Control_c, 0, 11, 73
2, 2609, Control_c, 0, 11, 65
2, 2612, Control_c, 0, 11, 56
2, 2615, Control_c, 0, 11, 46
2, 2618, Control_c, 0, 11, 32
2, 2663, Note_on_c, 0, 67, 0
2, 2663, Control_c, 0, 11, 108
2, 2663, Pitch_bend_c, 0, 8192
2, 2663, Note_on_c, 0, 72, 127
2, 2666, Control_c, 0, 11, 103
2, 2669, Control_c, 0, 11, 98
2, 2673, Control_c, 0, 11, 92
2, 2676, Control_c, 0, 11, 86
2, 2679, Control_c, 0, 11, 80
2, 2682, Control_c, 0, 11, 32
2, 2721, Note_on_c, 0, 72, 0
2, 2721, Control_c, 0, 11, 108
2, 2721, Pitch_bend_c, 0, 8192
2, 2721, Note_on_c, 0, 76, 127
2, 2724, Control_c, 0, 11, 103
2, 2727, Control_c, 0, 11, 98
2, 2730, Control_c, 0, 11, 92
2, 2733, Control_c, 0, 11, 86
2, 2737, Control_c, 0, 11, 80
2, 2740, Control_c, 0, 11, 32
2, 2759, Control_c, 0, 11, 108
2, 2759, Pitch_bend_c, 0, 8192
2, 2759, Note_on_c, 0, 79, 127
2, 2760, Note_on_c, 0, 76, 0
2, 2762, Control_c, 0, 11, 103
2, 2765, Control_c, 0, 11, 98
2, 2769, Control_c, 0, 11, 92
2, 2772, Control_c, 0, 11, 86
2, 2775, Control_c, 0, 11, 80
2, 2778, Control_c, 0, 11, 73
2, 2781, Control_c, 0, 11, 65
2, 2785, Control_c, 0, 11, 56
2, 2788, Control_c, 0, 11, 46
2, 2791, Control_c, 0, 11, 32
2, 2893, Control_c, 0, 11, 108
2, 2893, Pitch_bend_c, 0, 8192
2, 2893, Note_on_c, 0, 76, 127
2, 2894, Note_on_c, 0, 79, 0
2, 2897, Control_c, 0, 11, 103
2, 2900, Control_c, 0, 11, 98
2, 2903, Control_c, 0, 11, 92
2, 2906, Control_c, 0, 11, 86
2, 2909, Control_c, 0, 11, 80
2, 2913, Control_c, 0, 11, 32
2, 2932, Note_on_c, 0, 76, 0
2, 2932, Control_c, 0, 11, 108
2, 2932, Pitch_bend_c, 0, 8192
2, 2932, Note_on_c, 0, 72, 127
2, 2935, Control_c, 0, 11, 103
2, 2938, Control_c, 0, 11, 98
2, 2941, Control_c, 0, 11, 92
2, 2945, Control_c, 0, 11, 86
2, 2948, Control_c, 0, 11, 80
2, 2951, Control_c, 0, 11, 108
2, 2951, Pitch_bend_c, 0, 8192
2, 2951, Note_on_c, 0, 69, 127
2, 2952, Note_on_c, 0, 72, 0
2, 2954, Control_c, 0, 11, 103
2, 2957, Control_c, 0, 11, 98
2, 2961, Control_c, 0, 11, 92
2, 2964, Control_c, 0, 11, 86
2, 2967, Control_c, 0, 11, 80
2, 2970, Control_c, 0, 11, 32
2, 2989, Control_c, 0, 11, 108
2, 2989, Pitch_bend_c, 0, 8192
2, 2989, Note_on_c, 0, 67, 127
2, 2990, Note_on_c, 0, 69, 0
2, 2993, Control_c, 0, 11, 103
2, 2996, Control_c, 0, 11, 98
2, 2999, Control_c, 0, 11, 92
2, 3002, Control_c, 0, 11, 86
2, 3005, Control_c, 0, 11, 80
2, 3009, Note_on_c, 0, 67, 0
2, 3009, Control_c, 0, 11, 108
2, 3009, Pitch_bend_c, 0, 8192
2, 3009, Note_on_c, 0, 66, 127
2, 3012, Control_c, 0, 11, 103
2, 3015, Control_c, 0, 11, 98
2, 3018, Control_c, 0, 11, 92
2, 3021, Control_c, 0, 11, 86
2, 3025, Control_c, 0, 11, 80
2, 3028, Control_c, 0, 11, 32
2, 3047, Control_c, 0, 11, 108
2, 3047, Pitch_bend_c, 0, 8192
2, 3047, Note_on_c, 0, 67, 127
2, 3048, Note_on_c, 0, 66, 0
2, 3050, Control_c, 0, 11, 103
2, 3053, Control_c, 0, 11, 98
2, 3057, Control_c, 0, 11, 92
2, 3060, Control_c, 0, 11, 86
2, 3063, Control_c, 0, 11, 80
2, 3066, Control_c, 0, 11, 108
2, 3066, Pitch_bend_c, 0, 8192
2, 3066, Note_on_c, 0, 66, 127
2, 3067, Note_on_c, 0, 67, 0
2, 3069, Control_c, 0, 11, 103
2, 3073, Control_c, 0, 11, 98
2, 3076, Control_c, 0, 11, 92
2, 3079, Control_c, 0, 11, 86
2, 3082, Control_c, 0, 11, 80
2, 3085, Control_c, 0, 11, 32
2, 3105, Note_on_c, 0, 66, 0
2, 3105, Control_c, 0, 11, 108
2, 3105, Pitch_bend_c, 0, 8192
2, 3105, Note_on_c, 0, 67, 127
2, 3108, Control_c, 0, 11, 103
2, 3111, Control_c, 0, 11, 98
2, 3114, Control_c, 0, 11, 92
2, 3117, Control_c, 0, 11, 86
2, 3121, Control_c, 0, 11, 80
2, 3124, Control_c, 0, 11, 108
2, 3124, Pitch_bend_c, 0, 8192
2, 3124, Note_on_c, 0, 66, 127
2, 3125, Note_on_c, 0, 67, 0
2, 3127, Control_c, 0, 11, 103
2, 3130, Control_c, 0, 11, 98
2, 3133, Control_c, 0, 11, 92
2, 3137, Control_c, 0, 11, 86
2, 3140, Control_c, 0, 11, 80
2, 3143, Control_c, 0, 11, 32
2, 3162, Control_c, 0, 11, 108
2, 3162, Pitch_bend_c, 0, 8160
2, 3162, Note_on_c, 0, 62, 127
2, 3163, Note_on_c, 0, 66, 0
2, 3165, Control_c, 0, 11, 103
2, 3169, Control_c, 0, 11, 98
2, 3172, Control_c, 0, 11, 92
2, 3175, Control_c, 0, 11, 86
2, 3178, Control_c, 0, 11, 80
2, 3181, Control_c, 0, 11, 32
2, 3220, Note_on_c, 0, 62, 0
2, 3220, Control_c, 0, 11, 108
2, 3220, Pitch_bend_c, 0, 8192
2, 3220, Note_on_c, 0, 66, 127
2, 3223, Control_c, 0, 11, 103
2, 3226, Control_c, 0, 11, 98
2, 3229, Control_c, 0, 11, 92
2, 3233, Control_c, 0, 11, 86
2, 3236, Control_c, 0, 11, 80
2, 3239, Control_c, 0, 11, 73
2, 3242, Control_c, 0, 11, 65
2, 3245, Control_c, 0, 11, 56
2, 3249, Control_c, 0, 11, 46
2, 3252, Control_c, 0, 11, 32
2, 3277, Control_c, 0, 11, 108
2, 3277, Pitch_bend_c, 0, 8160
2, 3277, Note_on_c, 0, 62, 127
2, 3278, Note_on_c, 0, 66, 0
2, 3281, Control_c, 0, 11, 103
2, 3284, Control_c, 0, 11, 98
2, 3287, Control_c, 0, 11, 92
2, 3290, Note_on_c, 0, 62, 0
2, 3290, Control_c, 0, 11, 108
2, 3290, Pitch_bend_c, 0, 8192
2, 3290, Note_on_c, 0, 66, 127
2, 3293, Control_c, 0, 11, 103
2, 3297, Control_c, 0, 11, 98
2, 3300, Control_c, 0, 11, 92
2, 3303, Note_on_c, 0, 66, 0
2, 3303, Control_c, 0, 11, 108
2, 3303, Pitch_bend_c, 0, 8160
2, 3303, Note_on_c, 0, 62, 127
2, 3306, Control_c, 0, 11, 103
2, 3309, Control_c, 0, 11, 98
2, 3313, Control_c, 0, 11, 92
2, 3316, Note_on_c, 0, 62, 0
2, 3316, Control_c, 0, 11, 108
2, 3316, Pitch_bend_c, 0, 8160
2, 3316, Note_on_c, 0, 62, 127
2, 3319, Control_c, 0, 11, 103
2, 3322, Control_c, 0, 11, 98
2, 3325, Control_c, 0, 11, 92
2, 3329, Note_on_c, 0, 62, 0
2, 3329, Control_c, 0, 11, 108
2, 3329, Pitch_bend_c, 0, 8192
2, 3329, Note_on_c, 0, 66, 127
2, 3332, Control_c, 0, 11, 103
2, 3335, Control_c, 0, 11, 98
2, 3338, Control_c, 0, 11, 92
2, 3341, Control_c, 0, 11, 108
2, 3341, Pitch_bend_c, 0, 8160
2, 3341, Note_on_c, 0, 62, 127
2, 3342, Note_on_c, 0, 66, 0
2, 3345, Control_c, 0, 11, 103
2, 3348, Control_c, 0, 11, 98
2, 3351, Control_c, 0, 11, 92
2, 3354, Note_on_c, 0, 62, 0
2, 3354, Control_c, 0, 11, 108
2, 3354, Pitch_bend_c, 0, 8192
2, 3354, Note_on_c, 0, 66, 127
2, 3357, Control_c, 0, 11, 103
2, 3361, Control_c, 0, 11, 98
2, 3364, Control_c, 0, 11, 92
2, 3367, Note_on_c, 0, 66, 0
2, 3367, Control_c, 0, 11, 108
2, 3367, Pitch_bend_c, 0, 8160
2, 3367, Note_on_c, 0, 62, 127
2, 3370, Control_c, 0, 11, 103
2, 3373, Control_c, 0, 11, 98
2, 3377, Control_c, 0, 11, 92
2, 3380, Note_on_c, 0, 62, 0
2, 3380, Control_c, 0, 11, 108
2, 3380, Pitch_bend_c, 0, 8192
2, 3380, Note_on_c, 0, 66, 127
2, 3383, Control_c, 0, 11, 103
2, 3386, Control_c, 0, 11, 98
2, 3389, Control_c, 0, 11, 92
2, 3393, Note_on_c, 0, 66, 0
2, 3393, Control_c, 0, 11, 108
2, 3393, Pitch_bend_c, 0, 8160
2, 3393, Note_on_c, 0, 62, 127
2, 3396, Control_c, 0, 11, 103
2, 3399, Control_c, 0, 11, 98
2, 3402, Control_c, 0, 11, 92
2, 3405, Control_c, 0, 11, 108
2, 3405, Pitch_bend_c, 0, 8192
2, 3405, Note_on_c, 0, 66, 127
2, 3406, Note_on_c, 0, 62, 0
2, 3409, Control_c, 0, 11, 103
2, 3412, Control_c, 0, 11, 98
2, 3415, Control_c, 0, 11, 92
2, 3418, Note_on_c, 0, 66, 0
2, 3418, Control_c, 0, 11, 108
2, 3418, Pitch_bend_c, 0, 8160
2, 3418, Note_on_c, 0, 62, 127
2, 3421, Control_c, 0, 11, 103
2, 3425, Control_c, 0, 11, 98
2, 3428, Control_c, 0, 11, 92
2, 3431, Control_c, 0, 11, 32
2, 3450, Note_on_c, 0, 62, 0
2, 3450, Control_c, 0, 11, 108
2, 3450, Pitch_bend_c, 0, 8192
2, 3450, Note_on_c, 0, 65, 127
2, 3453, Control_c, 0, 11, 103
2, 3457, Control_c, 0, 11, 98
2, 3460, Control_c, 0, 11, 92
2, 3463, Control_c, 0, 11, 86
2, 3466, Control_c, 0, 11, 80
2, 3469, Control_c, 0, 11, 73
2, 3473, Control_c, 0, 11, 65
2, 3476, Control_c, 0, 11, 56
2, 3479, Control_c, 0, 11, 46
2, 3482, Control_c, 0, 11, 32
2, 3508, Note_on_c, 0, 65, 0
2, 3508, Control_c, 0, 11, 108
2, 3508, Pitch_bend_c, 0, 8192
2, 3508, Note_on_c, 0, 67, 127
2, 3511, Control_c, 0, 11, 103
2, 3514, Control_c, 0, 11, 98
2, 3517, Control_c, 0, 11, 92
2, 3521, Control_c, 0, 11, 86
2, 3524, Control_c, 0, 11, 80
2, 3527, Control_c, 0, 11, 108
2, 3527, Pitch_bend_c, 0, 8192
2, 3527, Note_on_c, 0, 65, 127
2, 3528, Note_on_c, 0, 67, 0
2, 3530, Control_c, 0, 11, 103
2, 3533, Control_c, 0, 11, 98
2, 3537, Control_c, 0, 11, 92
2, 3540, Control_c, 0, 11, 86
2, 3543, Control_c, 0, 11, 80
2, 3546, Control_c, 0, 11, 32
2, 3565, Control_c, 0, 11, 108
2, 3565, Pitch_bend_c, 0, 8192
2, 3565, Note_on_c, 0, 67, 127
2, 3566, Note_on_c, 0, 65, 0
2, 3569, Control_c, 0, 11, 103
2, 3572, Control_c, 0, 11, 98
2, 3575, Control_c, 0, 11, 92
2, 3578, Control_c, 0, 11, 86
2, 3581, Control_c, 0, 11, 80
2, 3585, Note_on_c, 0, 67, 0
2, 3585, Control_c, 0, 11, 108
2, 3585, Pitch_bend_c, 0, 8192
2, 3585, Note_on_c, 0, 65, 127
2, 3588, Control_c, 0, 11, 103
2, 3591, Control_c, 0, 11, 98
2, 3594, Control_c, 0, 11, 92
2, 3597, Control_c, 0, 11, 86
2, 3601, Control_c, 0, 11, 80
2, 3604, Control_c, 0, 11, 32
2, 3623, Control_c, 0, 11, 108
2, 3623, Pitch_bend_c, 0, 8192
2, 3623, Note_on_c, 0, 67, 127
2, 3624, Note_on_c, 0, 65, 0
2, 3626, Control_c, 0, 11, 103
2, 3629, Control_c, 0, 11, 98
2, 3633, Control_c, 0, 11, 92
2, 3636, Control_c, 0, 11, 86
2, 3639, Control_c, 0, 11, 80
2, 3642, Control_c, 0, 11, 32
2, 3681, Note_on_c, 0, 67, 0
2, 3681, Control_c, 0, 11, 108
2, 3681, Pitch_bend_c, 0, 8192
2, 3681, Note_on_c, 0, 72, 127
2, 3684, Control_c, 0, 11, 103
2, 3687, Control_c, 0, 11, 98
2, 3690, Control_c, 0, 11, 92
2, 3693, Control_c, 0, 11, 86
2, 3697, Control_c, 0, 11, 80
2, 3700, Control_c, 0, 11, 73
2, 3703, Control_c, 0, 11, 65
2, 3706, Control_c, 0, 11, 56
2, 3709, Control_c, 0, 11, 46
2, 3713, Control_c, 0, 11, 32
2, 3738, Control_c, 0, 11, 108
2, 3738, Pitch_bend_c, 0, 8192
2, 3738, Note_on_c, 0, 71, 127
2, 3739, Note_on_c, 0, 72, 0
2, 3741, Control_c, 0, 11, 103
2, 3745, Control_c, 0, 11, 98
2, 3748, Control_c, 0, 11, 92
2, 3751, Control_c, 0, 11, 86
2, 3754, Control_c, 0, 11, 80
2, 3757, Control_c, 0, 11, 108
2, 3757, Pitch_bend_c, 0, 8192
2, 3757, Note_on_c, 0, 72, 127
2, 3758, Note_on_c, 0, 71, 0
2, 3761, Control_c, 0, 11, 103
2, 3764, Control_c, 0, 11, 98
2, 3767, Control_c, 0, 11, 92
2, 3770, Control_c, 0, 11, 86
2, 3773, Control_c, 0, 11, 80
2, 3777, Control_c, 0, 11, 32
2, 3796, Note_on_c, 0, 72, 0
2, 3796, Control_c, 0, 11, 108
2, 3796, Pitch_bend_c, 0, 8192
2, 3796, Note_on_c, 0, 71, 127
2, 3799, Control_c, 0, 11, 103
2, 3802, Control_c, 0, 11, 98
2, 3805, Control_c, 0, 11, 92
2, 3809, Control_c, 0, 11, 86
2, 3812, Control_c, 0, 11, 80
2, 3815, Control_c, 0, 11, 108
2, 3815, Pitch_bend_c, 0, 8192
2, 3815, Note_on_c, 0, 67, 127
2, 3816, Note_on_c, 0, 71, 0
2, 3818, Control_c, 0, 11, 103
2, 3821, Control_c, 0, 11, 98
2, 3825, Control_c, 0, 11, 92
2, 3828, Control_c, 0, 11, 86
2, 3831, Control_c, 0, 11, 80
2, 3834, Control_c, 0, 11, 32
2, 3853, Control_c, 0, 11, 108
2, 3853, Pitch_bend_c, 0, 8192
2, 3853, Note_on_c, 0, 65, 127
2, 3854, Note_on_c, 0, 67, 0
2, 3857, Control_c, 0, 11, 103
2, 3860, Control_c, 0, 11, 98
2, 3863, Control_c, 0, 11, 92
2, 3866, Control_c, 0, 11, 86
2, 3869, Control_c, 0, 11, 80
2, 3873, Note_on_c, 0, 65, 0
2, 3873, Control_c, 0, 11, 108
2, 3873, Pitch_bend_c, 0, 8192
2, 3873, Note_on_c, 0, 64, 127
2, 3876, Control_c, 0, 11, 103
2, 3879, Control_c, 0, 11, 98
2, 3882, Control_c, 0, 11, 92
2, 3885, Control_c, 0, 11, 86
2, 3889, Control_c, 0, 11, 80
2, 3892, Control_c, 0, 11, 32
2, 3911, Control_c, 0, 11, 108
2, 3911, Pitch_bend_c, 0, 8192
2, 3911, Note_on_c, 0, 72, 127
2, 3912, Note_on_c, 0, 64, 0
2, 3914, Control_c, 0, 11, 103
2, 3917, Control_c, 0, 11, 98
2, 3921, Control_c, 0, 11, 92
2, 3924, Control_c, 0, 11, 86
2, 3927, Control_c, 0, 11, 80
2, 3930, Control_c, 0, 11, 73
2, 3933, Control_c, 0, 11, 65
2, 3937, Control_c, 0, 11, 56
2, 3940, Control_c, 0, 11, 46
2, 3943, Control_c, 0, 11, 32
2, 3969, Note_on_c, 0, 72, 0
2, 3969, Control_c, 0, 11, 108
2, 3969, Pitch_bend_c, 0, 8192
2, 3969, Note_on_c, 0, 64, 127
2, 3972, Control_c, 0, 11, 103
2, 3975, Control_c, 0, 11, 98
2, 3978, Control_c, 0, 11, 92
2, 3981, Control_c, 0, 11, 108
2, 3981, Pitch_bend_c, 0, 8192
2, 3981, Note_on_c, 0, 72, 127
2, 3982, Note_on_c, 0, 64, 0
2, 3985, Control_c, 0, 11, 103
2, 3988, Control_c, 0, 11, 98
2, 3991, Control_c, 0, 11, 92
2, 3994, Note_on_c, 0, 72, 0
2, 3994, Control_c, 0, 11, 108
2, 3994, Pitch_bend_c, 0, 8192
2, 3994, Note_on_c, 0, 64, 127
2, 3997, Control_c, 0, 11, 103
2, 4001, Control_c, 0, 11, 98
2, 4004, Control_c, 0, 11, 92
2, 4007, Note_on_c, 0, 64, 0
2, 4007, Control_c, 0, 11, 108
2, 4007, Pitch_bend_c, 0, 8192
2, 4007, Note_on_c, 0, 72, 127
2, 4010, Control_c, 0, 11, 103
2, 4013, Control_c, 0, 11, 98
2, 4017, Control_c, 0, 11, 92
2, 4020, Note_on_c, 0, 72, 0
2, 4020, Control_c, 0, 11, 108
2, 4020, Pitch_bend_c, 0, 8192
2, 4020, Note_on_c, 0, 64, 127
2, 4023, Control_c, 0, 11, 103
2, 4026, Control_c, 0, 11, 98
2, 4029, Control_c, 0, 11, 92
2, 4033, Note_on_c, 0, 64, 0
2, 4033, Control_c, 0, 11, 108
2, 4033, Pitch_bend_c, 0, 8192
2, 4033, Note_on_c, 0, 72, 127
2, 4036, Control_c, 0, 11, 103
2, 4039, Control_c, 0, 11, 98
2, 4042, Control_c, 0, 11, 92
2, 4045, Control_c, 0, 11, 108
2, 4045, Pitch_bend_c, 0, 8192
2, 4045, Note_on_c, 0, 64, 127
2, 4046, Note_on_c, 0, 72, 0
2, 4049, Control_c, 0, 11, 103
2, 4052, Control_c, 0, 11, 98
2, 4055, Control_c, 0, 11, 92
2, 4058, Note_on_c, 0, 64, 0
2, 4058, Control_c, 0, 11, 108
2, 4058, Pitch_bend_c, 0, 8192
2, 4058, Note_on_c, 0, 72, 127
2, 4061, Control_c, 0, 11, 103
2, 4065, Control_c, 0, 11, 98
2, 4068, Control_c, 0, 11, 92
2, 4071, Note_on_c, 0, 72, 0
2, 4071, Control_c, 0, 11, 108
2, 4071, Pitch_bend_c, 0, 8192
2, 4071, Note_on_c, 0, 64, 127
2, 4074, Control_c, 0, 11, 103
2, 4077, Control_c, 0, 11, 98
2, 4081, Control_c, 0, 11, 92
2, 4084, Note_on_c, 0, 64, 0
2, 4084, Control_c, 0, 11, 108
2, 4084, Pitch_bend_c, 0, 8192
2, 4084, Note_on_c, 0, 72, 127
2, 4087, Control_c, 0, 11, 103
2, 4090, Control_c, 0, 11, 98
2, 4093, Control_c, 0, 11, 92
2, 4096, Control_c, 0, 11, 108
2, 4096, Pitch_bend_c, 0, 8192
2, 4096, Note_on_c, 0, 64, 127
2, 4097, Note_on_c, 0, 72, 0
2, 4100, Control_c, 0, 11, 103
2, 4103, Control_c, 0, 11, 98
2, 4106, Control_c, 0, 11, 92
2, 4109, Note_on_c, 0, 64, 0
2, 4109, Control_c, 0, 11, 108
2, 4109, Pitch_bend_c, 0, 8192
2, 4109, Note_on_c, 0, 72, 127
2, 4112, Control_c, 0, 11, 103
2, 4116, Control_c, 0, 11, 98
2, 4119, Control_c, 0, 11, 92
2, 4122, Control_c, 0, 11, 32
2, 4199, Note_on_c, 0, 72, 0
2, 4199, Control_c, 0, 11, 73
2, 4199, Pitch_bend_c, 0, 8192
2, 4199, Note_on_c, 0, 71, 127
2, 4205, Control_c, 0, 11, 80
2, 4208, Control_c, 0, 11, 92
2, 4212, Control_c, 0, 11, 98
2, 4215, Control_c, 0, 11, 103
2, 4218, Control_c, 0, 11, 32
2, 4237, Control_c, 0, 11, 73
2, 4237, Pitch_bend_c, 0, 8192
2, 4237, Note_on_c, 0, 69, 127
2, 4238, Note_on_c, 0, 71, 0
2, 4244, Control_c, 0, 11, 80
2, 4247, Control_c, 0, 11, 92
2, 4250, Control_c, 0, 11, 98
2, 4253, Control_c, 0, 11, 103
2, 4256, Control_c, 0, 11, 32
2, 4276, Note_on_c, 0, 69, 0
2, 4276, Control_c, 0, 11, 73
2, 4276, Pitch_bend_c, 0, 8192
2, 4276, Note_on_c, 0, 67, 127
2, 4282, Control_c, 0, 11, 80
2, 4285, Control_c, 0, 11, 92
2, 4288, Control_c, 0, 11, 98
2, 4292, Control_c, 0, 11, 103
2, 4295, Control_c, 0, 11, 32
2, 4314, Control_c, 0, 11, 73
2, 4314, Pitch_bend_c, 0, 8192
2, 4314, Note_on_c, 0, 65, 127
2, 4315, Note_on_c, 0, 67, 0
2, 4320, Control_c, 0, 11, 80
2, 4324, Control_c, 0, 11, 92
2, 4327, Control_c, 0, 11, 98
2, 4330, Control_c, 0, 11, 103
2, 4333, Control_c, 0, 11, 32
2, 4352, Control_c, 0, 11, 73
2, 4352, Pitch_bend_c, 0, 8159
2, 4352, Note_on_c, 0, 63, 127
2, 4353, Note_on_c, 0, 65, 0
2, 4359, Control_c, 0, 11, 80
2, 4362, Control_c, 0, 11, 92
2, 4365, Control_c, 0, 11, 98
2, 4368, Control_c, 0, 11, 103
2, 4372, Control_c, 0, 11, 32
2, 4429, Note_on_c, 0, 63, 0
2, 4429, Control_c, 0, 11, 108
2, 4429, Pitch_bend_c, 0, 8192
2, 4429, Note_on_c, 0, 67, 127
2, 4432, Control_c, 0, 11, 103
2, 4436, Control_c, 0, 11, 98
2, 4439, Control_c, 0, 11, 92
2, 4442, Control_c, 0, 11, 86
2, 4445, Control_c, 0, 11, 80
2, 4448, Control_c, 0, 11, 73
2, 4452, Control_c, 0, 11, 65
2, 4455, Control_c, 0, 11, 56
2, 4458, Control_c, 0, 11, 46
2, 4461, Control_c, 0, 11, 32
2, 4506, Note_on_c, 0, 67, 0
2, 4506, Control_c, 0, 11, 108
2, 4506, Pitch_bend_c, 0, 8192
2, 4506, Note_on_c, 0, 72, 127
2, 4509, Control_c, 0, 11, 103
2, 4512, Control_c, 0, 11, 98
2, 4516, Control_c, 0, 11, 92
2, 4519, Control_c, 0, 11, 86
2, 4522, Control_c, 0, 11, 80
2, 4525, Control_c, 0, 11, 32
2, 4564, Note_on_c, 0, 72, 0
2, 4564, Control_c, 0, 11, 108
2, 4564, Pitch_bend_c, 0, 8192
2, 4564, Note_on_c, 0, 76, 127
2, 4567, Control_c, 0, 11, 103
2, 4570, Control_c, 0, 11, 98
2, 4573, Control_c, 0, 11, 92
2, 4576, Control_c, 0, 11, 86
2, 4580, Control_c, 0, 11, 80
2, 4583, Control_c, 0, 11, 32
2, 4602, Control_c, 0, 11, 108
2, 4602, Pitch_bend_c, 0, 8192
2, 4602, Note_on_c, 0, 79, 127
2, 4603, Note_on_c, 0, 76, 0
2, 4605, Control_c, 0, 11, 103
2, 4608, Control_c, 0, 11, 98
2, 4612, Control_c, 0, 11, 92
2, 4615, Control_c, 0, 11, 86
2, 4618, Control_c, 0, 11, 80
2, 4621, Control_c, 0, 11, 73
2, 4624, Control_c, 0, 11, 65
2, 4628, Control_c, 0, 11, 56
2, 4631, Control_c, 0, 11, 46
2, 4634, Control_c, 0, 11, 32
2, 4737, Note_on_c, 0, 79, 0
2, 4737, Control_c, 0, 11, 108
2, 4737, Pitch_bend_c, 0, 8192
2, 4737, Note_on_c, 0, 76, 127
2, 4740, Control_c, 0, 11, 103
2, 4743, Control_c, 0, 11, 98
2, 4746, Control_c, 0, 11, 92
2, 4749, Control_c, 0, 11, 86
2, 4753, Control_c, 0, 11, 80
2, 4756, Control_c, 0, 11, 32
2, 4775, Control_c, 0, 11, 108
2, 4775, Pitch_bend_c, 0, 8192
2, 4775, Note_on_c, 0, 72, 127
2, 4776, Note_on_c, 0, 76, 0
2, 4778, Control_c, 0, 11, 103
2, 4781, Control_c, 0, 11, 98
2, 4785, Control_c, 0, 11, 92
2, 4788, Control_c, 0, 11, 86
2, 4791, Control_c, 0, 11, 80
2, 4794, Control_c, 0, 11, 108
2, 4794, Pitch_bend_c, 0, 8192
2, 4794, Note_on_c, 0, 69, 127
2, 4795, Note_on_c, 0, 72, 0
2, 4797, Control_c, 0, 11, 103
2, 4801, Control_c, 0, 11, 98
2, 4804, Control_c, 0, 11, 92
2, 4807, Control_c, 0, 11, 86
2, 4810, Control_c, 0, 11, 80
2, 4813, Control_c, 0, 11, 32
2, 4833, Note_on_c, 0, 69, 0
2, 4833, Control_c, 0, 11, 108
2, 4833, Pitch_bend_c, 0, 8192
2, 4833, Note_on_c, 0, 67, 127
2, 4836, Control_c, 0, 11, 103
2, 4839, Control_c, 0, 11, 98
2, 4842, Control_c, 0, 11, 92
2, 4845, Control_c, 0, 11, 86
2, 4849, Control_c, 0, 11, 80
2, 4852, Control_c, 0, 11, 108
2, 4852, Pitch_bend_c, 0, 8192
2, 4852, Note_on_c, 0, 66, 127
2, 4853, Note_on_c, 0, 67, 0
2, 4855, Control_c, 0, 11, 103
2, 4858, Control_c, 0, 11, 98
2, 4861, Control_c, 0, 11, 92
2, 4865, Control_c, 0, 11, 86
2, 4868, Control_c, 0, 11, 80
2, 4871, Control_c, 0, 11, 32
2, 4890, Control_c, 0, 11, 108
2, 4890, Pitch_bend_c, 0, 8192
2, 4890, Note_on_c, 0, 67, 127
2, 4891, Note_on_c, 0, 66, 0
2, 4893, Control_c, 0, 11, 103
2, 4897, Control_c, 0, 11, 98
2, 4900, Control_c, 0, 11, 92
2, 4903, Control_c, 0, 11, 86
2, 4906, Control_c, 0, 11, 80
2, 4909, Control_c, 0, 11, 108
2, 4909, Pitch_bend_c, 0, 8192
2, 4909, Note_on_c, 0, 66, 127
2, 4910, Note_on_c, 0, 67, 0
2, 4913, Control_c, 0, 11, 103
2, 4916, Control_c, 0, 11, 98
2, 4919, Control_c, 0, 11, 92
2, 4922, Control_c, 0, 11, 86
2, 4925, Control_c, 0, 11, 80
2, 4929, Control_c, 0, 11, 32
2, 4948, Note_on_c, 0, 66, 0
2, 4948, Control_c, 0, 11, 108
2, 4948, Pitch_bend_c, 0, 8192
2, 4948, Note_on_c, 0, 67, 127
2, 4951, Control_c, 0, 11, 103
2, 4954, Control_c, 0, 11, 98
2, 4957, Control_c, 0, 11, 92
2, 4961, Control_c, 0, 11, 86
2, 4964, Control_c, 0, 11, 80
2, 4967, Control_c, 0, 11, 108
2, 4967, Pitch_bend_c, 0, 8192
2, 4967, Note_on_c, 0, 66, 127
2, 4968, Note_on_c, 0, 67, 0
2, 4970, Control_c, 0, 11, 103
2, 4973, Control_c, 0, 11, 98
2, 4977, Control_c, 0, 11, 92
2, 4980, Control_c, 0, 11, 86
2, 4983, Control_c, 0, 11, 80
2, 4986, Control_c, 0, 11, 32
2, 5005, Control_c, 0, 11, 108
2, 5005, Pitch_bend_c, 0, 8160
2, 5005, Note_on_c, 0, 62, 127
2, 5006, Note_on_c, 0, 66, 0
2, 5009, Control_c, 0, 11, 103
2, 5012, Control_c, 0, 11, 98
2, 5015, Control_c, 0, 11, 92
2, 5018, Control_c, 0, 11, 86
2, 5021, Control_c, 0, 11, 80
2, 5025, Control_c, 0, 11, 32
2, 5063, Note_on_c, 0, 62, 0
2, 5063, Control_c, 0, 11, 108
2, 5063, Pitch_bend_c, 0, 8192
2, 5063, Note_on_c, 0, 66, 127
2, 5066, Control_c, 0, 11, 103
2, 5069, Control_c, 0, 11, 98
2, 5073, Control_c, 0, 11, 92
2, 5076, Control_c, 0, 11, 86
2, 5079, Control_c, 0, 11, 80
2, 5082, Control_c, 0, 11, 73
2, 5085, Control_c, 0, 11, 65
2, 5089, Control_c, 0, 11, 56
2, 5092, Control_c, 0, 11, 46
2, 5095, Control_c, 0, 11, 32
2, 5121, Note_on_c, 0, 66, 0
2, 5121, Control_c, 0, 11, 108
2, 5121, Pitch_bend_c, 0, 8160
2, 5121, Note_on_c, 0, 62, 127
2, 5124, Control_c, 0, 11, 103
2, 5127, Control_c, 0, 11, 98
2, 5130, Control_c, 0, 11, 92
2, 5133, Control_c, 0, 11, 108
2, 5133, Pitch_bend_c, 0, 8192
2, 5133, Note_on_c, 0, 66, 127
2, 5134, Note_on_c, 0, 62, 0
2, 5137, Control_c, 0, 11, 103
2, 5140, Control_c, 0, 11, 98
2, 5143, Control_c, 0, 11, 92
2, 5146, Note_on_c, 0, 66, 0
2, 5146, Control_c, 0, 11, 108
2, 5146, Pitch_bend_c, 0, 8160
2, 5146, Note_on_c, 0, 62, 127
2, 5149, Control_c, 0, 11, 103
2, 5153, Control_c, 0, 11, 98
2, 5156, Control_c, 0, 11, 92
2, 5159, Note_on_c, 0, 62, 0
2, 5159, Control_c, 0, 11, 108
2, 5159, Pitch_bend_c, 0, 8160
2, 5159, Note_on_c, 0, 62, 127
2, 5162, Control_c, 0, 11, 103
2, 5165, Control_c, 0, 11, 98
2, 5169, Control_c, 0, 11, 92
2, 5172, Note_on_c, 0, 62, 0
2, 5172, Control_c, 0, 11, 108
2, 5172, Pitch_bend_c, 0, 8192
2, 5172, Note_on_c, 0, 66, 127
2, 5175, Control_c, 0, 11, 103
2, 5178, Control_c, 0, 11, 98
2, 5181, Control_c, 0, 11, 92
2, 5185, Note_on_c, 0, 66, 0
2, 5185, Control_c, 0, 11, 108
2, 5185, Pitch_bend_c, 0, 8160
2, 5185, Note_on_c, 0, 62, 127
2, 5188, Control_c, 0, 11, 103
2, 5191, Control_c, 0, 11, 98
2, 5194, Control_c, 0, 11, 92
2, 5197, Control_c, 0, 11, 108
2, 5197, Pitch_bend_c, 0, 8192
2, 5197, Note_on_c, 0, 66, 127
2, 5198, Note_on_c, 0, 62, 0
2, 5201, Control_c, 0, 11, 103
2, 5204, Control_c, 0, 11, 98
2, 5207, Control_c, 0, 11, 92
2, 5210, Note_on_c, 0, 66, 0
2, 5210, Control_c, 0, 11, 108
2, 5210, Pitch_bend_c, 0, 8160
2, 5210, Note_on_c, 0, 62, 127
2, 5213, Control_c, 0, 11, 103
2, 5217, Control_c, 0, 11, 98
2, 5220, Control_c, 0, 11, 92
2, 5223, Note_on_c, 0, 62, 0
2, 5223, Control_c, 0, 11, 108
2, 5223, Pitch_bend_c, 0, 8192
2, 5223, Note_on_c, 0, 66, 127
2, 5226, Control_c, 0, 11, 103
2, 5229, Control_c, 0, 11, 98
2, 5233, Control_c, 0, 11, 92
2, 5236, Note_on_c, 0, 66, 0
2, 5236, Control_c, 0, 11, 108
2, 5236, Pitch_bend_c, 0, 8160
2, 5236, Note_on_c, 0, 62, 127
2, 5239, Control_c, 0, 11, 103
2, 5242, Control_c, 0, 11, 98
2, 5245, Control_c, 0, 11, 92
2, 5249, Note_on_c, 0, 62, 0
2, 5249, Control_c, 0, 11, 108
2, 5249, Pitch_bend_c, 0, 8192
2, 5249, Note_on_c, 0, 66, 127
2, 5252, Control_c, 0, 11, 103
2, 5255, Control_c, 0, 11, 98
2, 5258, Control_c, 0, 11, 92
2, 5261, Control_c, 0, 11, 108
2, 5261, Pitch_bend_c, 0, 8160
2, 5261, Note_on_c, 0, 62, 127
2, 5262, Note_on_c, 0, 66, 0
2, 5265, Control_c, 0, 11, 103
2, 5268, Control_c, 0, 11, 98
2, 5271, Control_c, 0, 11, 92
2, 5274, Control_c, 0, 11, 32
2, 5293, Note_on_c, 0, 62, 0
2, 5293, Control_c, 0, 11, 108
2, 5293, Pitch_bend_c, 0, 8192
2, 5293, Note_on_c, 0, 65, 127
2, 5297, Control_c, 0, 11, 103
2, 5300, Control_c, 0, 11, 98
2, 5303, Control_c, 0, 11, 92
2, 5306, Control_c, 0, 11, 86
2, 5309, Control_c, 0, 11, 80
2, 5313, Control_c, 0, 11, 73
2, 5316, Control_c, 0, 11, 65
2, 5319, Control_c, 0, 11, 56
2, 5322, Control_c, 0, 11, 46
2, 5325, Control_c, 0, 11, 32
2, 5351, Note_on_c, 0, 65, 0
2, 5351, Control_c, 0, 11, 108
2, 5351, Pitch_bend_c, 0, 8192
2, 5351, Note_on_c, 0, 67, 127
2, 5354, Control_c, 0, 11, 103
2, 5357, Control_c, 0, 11, 98
2, 5361, Control_c, 0, 11, 92
2, 5364, Control_c, 0, 11, 86
2, 5367, Control_c, 0, 11, 80
2, 5370, Control_c, 0, 11, 108
2, 5370, Pitch_bend_c, 0, 8192
2, 5370, Note_on_c, 0, 65, 127
2, 5371, Note_on_c, 0, 67, 0
2, 5373, Control_c, 0, 11, 103
2, 5377, Control_c, 0, 11, 98
2, 5380, Control_c, 0, 11, 92
2, 5383, Control_c, 0, 11, 86
2, 5386, Control_c, 0, 11, 80
2, 5389, Control_c, 0, 11, 32
2, 5409, Note_on_c, 0, 65, 0
2, 5409, Control_c, 0, 11, 108
2, 5409, Pitch_bend_c, 0, 8192
2, 5409, Note_on_c, 0, 67, 127
2, 5412, Control_c, 0, 11, 103
2, 5415, Control_c, 0, 11, 98
2, 5418, Control_c, 0, 11, 92
2, 5421, Control_c, 0, 11, 86
2, 5425, Control_c, 0, 11, 80
2, 5428, Control_c, 0, 11, 108
2, 5428, Pitch_bend_c, 0, 8192
2, 5428, Note_on_c, 0, 65, 127
2, 5429, Note_on_c, 0, 67, 0
2, 5431, Control_c, 0, 11, 103
2, 5434, Control_c, 0, 11, 98
2, 5437, Control_c, 0, 11, 92
2, 5441, Control_c, 0, 11, 86
2, 5444, Control_c, 0, 11, 80
2, 5447, Control_c, 0, 11, 32
2, 5466, Control_c, 0, 11, 108
2, 5466, Pitch_bend_c, 0, 8192
2, 5466, Note_on_c, 0, 67, 127
2, 5467, Note_on_c, 0, 65, 0
2, 5469, Control_c, 0, 11, 103
2, 5473, Control_c, 0, 11, 98
2, 5476, Control_c, 0, 11, 92
2, 5479, Control_c, 0, 11, 86
2, 5482, Control_c, 0, 11, 80
2, 5485, Control_c, 0, 11, 32
2, 5524, Note_on_c, 0, 67, 0
2, 5524, Control_c, 0, 11, 108
2, 5524, Pitch_bend_c, 0, 8192
2, 5524, Note_on_c, 0, 72, 127
2, 5527, Control_c, 0, 11, 103
2, 5530, Control_c, 0, 11, 98
2, 5533, Control_c, 0, 11, 92
2, 5537, Control_c, 0, 11, 86
2, 5540, Control_c, 0, 11, 80
2, 5543, Control_c, 0, 11, 73
2, 5546, Control_c, 0, 11, 65
2, 5549, Control_c, 0, 11, 56
2, 5553, Control_c, 0, 11, 46
2, 5556, Control_c, 0, 11, 32
2, 5581, Control_c, 0, 11, 108
2, 5581, Pitch_bend_c, 0, 8192
2, 5581, Note_on_c, 0, 71, 127
2, 5582, Note_on_c, 0, 72, 0
2, 5585, Control_c, 0, 11, 103
2, 5588, Control_c, 0, 11, 98
2, 5591, Control_c, 0, 11, 92
2, 5594, Control_c, 0, 11, 86
2, 5597, Control_c, 0, 11, 80
2, 5601, Note_on_c, 0, 71, 0
2, 5601, Control_c, 0, 11, 108
2, 5601, Pitch_bend_c, 0, 8192
2, 5601, Note_on_c, 0, 72, 127
2, 5604, Control_c, 0, 11, 103
2, 5607, Control_c, 0, 11, 98
2, 5610, Control_c, 0, 11, 92
2, 5613, Control_c, 0, 11, 86
2, 5617, Control_c, 0, 11, 80
2, 5620, Control_c, 0, 11, 32
2, 5639, Control_c, 0, 11, 108
2, 5639, Pitch_bend_c, 0, 8192
2, 5639, Note_on_c, 0, 71, 127
2, 5640, Note_on_c, 0, 72, 0
2, 5642, Control_c, 0, 11, 103
2, 5645, Control_c, 0, 11, 98
2, 5649, Control_c, 0, 11, 92
2, 5652, Control_c, 0, 11, 86
2, 5655, Control_c, 0, 11, 80
2, 5658, Control_c, 0, 11, 108
2, 5658, Pitch_bend_c, 0, 8192
2, 5658, Note_on_c, 0, 72, 127
2, 5659, Note_on_c, 0, 71, 0
2, 5661, Control_c, 0, 11, 103
2, 5665, Control_c, 0, 11, 98
2, 5668, Control_c, 0, 11, 92
2, 5671, Control_c, 0, 11, 86
2, 5674, Control_c, 0, 11, 80
2, 5677, Control_c, 0, 11, 32
2, 5697, Note_on_c, 0, 72, 0
2, 5697, Control_c, 0, 11, 108
2, 5697, Pitch_bend_c, 0, 8192
2, 5697, Note_on_c, 0, 71, 127
2, 5700, Control_c, 0, 11, 103
2, 5703, Control_c, 0, 11, 98
2, 5706, Control_c, 0, 11, 92
2, 5709, Control_c, 0, 11, 86
2, 5713, Control_c, 0, 11, 80
2, 5716, Control_c, 0, 11, 108
2, 5716, Pitch_bend_c, 0, 8192
2, 5716, Note_on_c, 0, 67, 127
2, 5717, Note_on_c, 0, 71, 0
2, 5719, Control_c, 0, 11, 103
2, 5722, Control_c, 0, 11, 98
2, 5725, Control_c, 0, 11, 92
2, 5729, Control_c, 0, 11, 86
2, 5732, Control_c, 0, 11, 80
2, 5735, Control_c, 0, 11, 32
2, 5754, Control_c, 0, 11, 108
2, 5754, Pitch_bend_c, 0, 8192
2, 5754, Note_on_c, 0, 64, 127
2, 5755, Note_on_c, 0, 67, 0
2, 5757, Control_c, 0, 11, 103
2, 5761, Control_c, 0, 11, 98
2, 5764, Control_c, 0, 11, 92
2, 5767, Control_c, 0, 11, 86
2, 5770, Control_c, 0, 11, 80
2, 5773, Control_c, 0, 11, 73
2, 5777, Control_c, 0, 11, 65
2, 5780, Control_c, 0, 11, 56
2, 5783, Control_c, 0, 11, 46
2, 5786, Control_c, 0, 11, 32
2, 5869, Control_c, 0, 11, 0
2, 5946, Control_c, 0, 11, 92
2, 5946, Pitch_bend_c, 0, 8192
2, 5946, Note_on_c, 0, 65, 127
2, 5947, Note_on_c, 0, 64, 0
2, 5953, Control_c, 0, 11, 86
2, 5965, Control_c, 0, 11, 0
2, 5985, Note_on_c, 0, 65, 0
2, 5985, Control_c, 0, 11, 92
2, 5985, Pitch_bend_c, 0, 8192
2, 5985, Note_on_c, 0, 64, 127
2, 5991, Control_c, 0, 11, 86
2, 6004, Control_c, 0, 11, 0
2, 6100, Control_c, 0, 11, 92
2, 6100, Pitch_bend_c, 0, 8192
2, 6100, Note_on_c, 0, 64, 127
2, 6101, Note_on_c, 0, 64, 0
2, 6106, Control_c, 0, 11, 86
2, 6119, Control_c, 0, 11, 0
2, 6177, Control_c, 0, 11, 32
2, 6215, Control_c, 0, 11, 108
2, 6215, Pitch_bend_c, 0, 8192
2, 6215, Note_on_c, 0, 64, 127
2, 6216, Note_on_c, 0, 64, 0
2, 6218, Control_c, 0, 11, 103
2, 6221, Control_c, 0, 11, 98
2, 6225, Control_c, 0, 11, 92
2, 6228, Control_c, 0, 11, 86
2, 6231, Control_c, 0, 11, 80
2, 6234, Control_c, 0, 11, 32
2, 6273, Note_on_c, 0, 64, 0
2, 6273, Control_c, 0, 11, 108
2, 6273, Pitch_bend_c, 0, 8192
2, 6273, Note_on_c, 0, 65, 127
2, 6276, Control_c, 0, 11, 103
2, 6279, Control_c, 0, 11, 98
2, 6282, Control_c, 0, 11, 92
2, 6285, Control_c, 0, 11, 86
2, 6289, Control_c, 0, 11, 80
2, 6292, Control_c, 0, 11, 108
2, 6292, Pitch_bend_c, 0, 8159
2, 6292, Note_on_c, 0, 63, 127
2, 6293, Note_on_c, 0, 65, 0
2, 6295, Control_c, 0, 11, 103
2, 6298, Control_c, 0, 11, 98
2, 6301, Control_c, 0, 11, 92
2, 6305, Control_c, 0, 11, 86
2, 6308, Control_c, 0, 11, 80
2, 6311, Control_c, 0, 11, 32
2, 6330, Control_c, 0, 11, 108
2, 6330, Pitch_bend_c, 0, 8192
2, 6330, Note_on_c, 0, 64, 127
2, 6331, Note_on_c, 0, 63, 0
2, 6333, Control_c, 0, 11, 103
2, 6337, Control_c, 0, 11, 98
2, 6340, Control_c, 0, 11, 92
2, 6343, Control_c, 0, 11, 86
2, 6346, Control_c, 0, 11, 80
2, 6349, Control_c, 0, 11, 108
2, 6349, Pitch_bend_c, 0, 8192
2, 6349, Note_on_c, 0, 65, 127
2, 6350, Note_on_c, 0, 64, 0
2, 6353, Control_c, 0, 11, 103
2, 6356, Control_c, 0, 11, 98
2, 6359, Control_c, 0, 11, 92
2, 6362, Control_c, 0, 11, 86
2, 6365, Control_c, 0, 11, 80
2, 6369, Control_c, 0, 11, 32
2, 6388, Note_on_c, 0, 65, 0
2, 6388, Control_c, 0, 11, 108
2, 6388, Pitch_bend_c, 0, 8159
2, 6388, Note_on_c, 0, 63, 127
2, 6391, Control_c, 0, 11, 103
2, 6394, Control_c, 0, 11, 98
2, 6397, Control_c, 0, 11, 92
2, 6401, Control_c, 0, 11, 86
2, 6404, Control_c, 0, 11, 80
2, 6407, Control_c, 0, 11, 108
2, 6407, Pitch_bend_c, 0, 8192
2, 6407, Note_on_c, 0, 64, 127
2, 6408, Note_on_c, 0, 63, 0
2, 6410, Control_c, 0, 11, 103
2, 6413, Control_c, 0, 11, 98
2, 6417, Control_c, 0, 11, 92
2, 6420, Control_c, 0, 11, 86
2, 6423, Control_c, 0, 11, 80
2, 6426, Control_c, 0, 11, 32
2, 6445, Control_c, 0, 11, 108
2, 6445, Pitch_bend_c, 0, 8192
2, 6445, Note_on_c, 0, 71, 127
2, 6446, Note_on_c, 0, 64, 0
2, 6449, Control_c, 0, 11, 103
2, 6452, Control_c, 0, 11, 98
2, 6455, Control_c, 0, 11, 92
2, 6458, Control_c, 0, 11, 86
2, 6461, Control_c, 0, 11, 80
2, 6465, Control_c, 0, 11, 73
2, 6468, Control_c, 0, 11, 65
2, 6471, Control_c, 0, 11, 56
2, 6474, Control_c, 0, 11, 46
2, 6477, Control_c, 0, 11, 32
2, 6522, Note_on_c, 0, 71, 0
2, 6522, Control_c, 0, 11, 108
2, 6522, Pitch_bend_c, 0, 8192
2, 6522, Note_on_c, 0, 68, 127
2, 6525, Control_c, 0, 11, 103
2, 6529, Control_c, 0, 11, 98
2, 6532, Control_c, 0, 11, 92
2, 6535, Control_c, 0, 11, 86
2, 6538, Control_c, 0, 11, 80
2, 6541, Control_c, 0, 11, 73
2, 6545, Control_c, 0, 11, 65
2, 6548, Control_c, 0, 11, 56
2, 6551, Control_c, 0, 11, 46
2, 6554, Control_c, 0, 11, 32
2, 6580, Note_on_c, 0, 68, 0
2, 6580, Control_c, 0, 11, 108
2, 6580, Pitch_bend_c, 0, 8192
2, 6580, Note_on_c, 0, 65, 127
2, 6583, Control_c, 0, 11, 103
2, 6586, Control_c, 0, 11, 98
2, 6589, Control_c, 0, 11, 92
2, 6593, Control_c, 0, 11, 86
2, 6596, Control_c, 0, 11, 80
2, 6599, Control_c, 0, 11, 73
2, 6602, Control_c, 0, 11, 65
2, 6605, Control_c, 0, 11, 56
2, 6609, Control_c, 0, 11, 46
2, 6612, Control_c, 0, 11, 32
2, 6637, Control_c, 0, 11, 108
2, 6637, Pitch_bend_c, 0, 8192
2, 6637, Note_on_c, 0, 64, 127
2, 6638, Note_on_c, 0, 65, 0
2, 6641, Control_c, 0, 11, 103
2, 6644, Control_c, 0, 11, 98
2, 6647, Control_c, 0, 11, 92
2, 6650, Control_c, 0, 11, 86
2, 6653, Control_c, 0, 11, 80
2, 6657, Control_c, 0, 11, 73
2, 6660, Control_c, 0, 11, 65
2, 6663, Control_c, 0, 11, 56
2, 6666, Control_c, 0, 11, 46
2, 6669, Control_c, 0, 11, 32
2, 6695, Note_on_c, 0, 64, 0
2, 6695, Control_c, 0, 11, 108
2, 6695, Pitch_bend_c, 0, 8160
2, 6695, Note_on_c, 0, 62, 127
2, 6698, Control_c, 0, 11, 103
2, 6701, Control_c, 0, 11, 98
2, 6705, Control_c, 0, 11, 92
2, 6708, Control_c, 0, 11, 86
2, 6711, Control_c, 0, 11, 80
2, 6714, Control_c, 0, 11, 108
2, 6714, Pitch_bend_c, 0, 8192
2, 6714, Note_on_c, 0, 64, 127
2, 6715, Note_on_c, 0, 62, 0
2, 6717, Control_c, 0, 11, 103
2, 6721, Control_c, 0, 11, 98
2, 6724, Control_c, 0, 11, 92
2, 6727, Note_on_c, 0, 64, 0
2, 6727, Control_c, 0, 11, 108
2, 6727, Pitch_bend_c, 0, 8160
2, 6727, Note_on_c, 0, 62, 127
2, 6730, Control_c, 0, 11, 103
2, 6733, Control_c, 0, 11, 98
2, 6737, Control_c, 0, 11, 92
2, 6740, Note_on_c, 0, 62, 0
2, 6740, Control_c, 0, 11, 108
2, 6740, Pitch_bend_c, 0, 8164
2, 6740, Note_on_c, 0, 60, 127
2, 6743, Control_c, 0, 11, 103
2, 6746, Control_c, 0, 11, 98
2, 6749, Control_c, 0, 11, 92
2, 6753, Note_on_c, 0, 60, 0
2, 6753, Control_c, 0, 11, 108
2, 6753, Pitch_bend_c, 0, 8165
2, 6753, Note_on_c, 0, 59, 127
2, 6756, Control_c, 0, 11, 103
2, 6759, Control_c, 0, 11, 98
2, 6762, Control_c, 0, 11, 92
2, 6765, Control_c, 0, 11, 86
2, 6769, Control_c, 0, 11, 80
2, 6772, Control_c, 0, 11, 32
2, 6791, Control_c, 0, 11, 108
2, 6791, Pitch_bend_c, 0, 8164
2, 6791, Note_on_c, 0, 60, 127
2, 6792, Note_on_c, 0, 59, 0
2, 6794, Control_c, 0, 11, 103
2, 6797, Control_c, 0, 11, 98
2, 6801, Control_c, 0, 11, 92
2, 6804, Control_c, 0, 11, 86
2, 6807, Control_c, 0, 11, 80
2, 6810, Control_c, 0, 11, 108
2, 6810, Pitch_bend_c, 0, 8160
2, 6810, Note_on_c, 0, 62, 127
2, 6811, Note_on_c, 0, 60, 0
2, 6813, Control_c, 0, 11, 103
2, 6817, Control_c, 0, 11, 98
2, 6820, Control_c, 0, 11, 92
2, 6823, Control_c, 0, 11, 86
2, 6826, Control_c, 0, 11, 80
2, 6829, Control_c, 0, 11, 32
2, 6849, Note_on_c, 0, 62, 0
2, 6849, Control_c, 0, 11, 108
2, 6849, Pitch_bend_c, 0, 8164
2, 6849, Note_on_c, 0, 60, 127
2, 6852, Control_c, 0, 11, 103
2, 6855, Control_c, 0, 11, 98
2, 6858, Control_c, 0, 11, 92
2, 6861, Control_c, 0, 11, 86
2, 6865, Control_c, 0, 11, 80
2, 6868, Control_c, 0, 11, 108
2, 6868, Pitch_bend_c, 0, 8165
2, 6868, Note_on_c, 0, 59, 127
2, 6869, Note_on_c, 0, 60, 0
2, 6871, Control_c, 0, 11, 103
2, 6874, Control_c, 0, 11, 98
2, 6877, Control_c, 0, 11, 92
2, 6881, Control_c, 0, 11, 86
2, 6884, Control_c, 0, 11, 80
2, 6887, Control_c, 0, 11, 32
2, 6906, Control_c, 0, 11, 108
2, 6906, Pitch_bend_c, 0, 8164
2, 6906, Note_on_c, 0, 60, 127
2, 6907, Note_on_c, 0, 59, 0
2, 6909, Control_c, 0, 11, 103
2, 6913, Control_c, 0, 11, 98
2, 6916, Control_c, 0, 11, 92
2, 6919, Control_c, 0, 11, 86
2, 6922, Control_c, 0, 11, 80
2, 6925, Control_c, 0, 11, 73
2, 6929, Control_c, 0, 11, 65
2, 6932, Control_c, 0, 11, 56
2, 6935, Control_c, 0, 11, 46
2, 6938, Control_c, 0, 11, 32
2, 7021, Control_c, 0, 11, 108
2, 7021, Pitch_bend_c, 0, 8164
2, 7021, Note_on_c, 0, 60, 127
2, 7022, Note_on_c, 0, 60, 0
2, 7025, Control_c, 0, 11, 103
2, 7028, Control_c, 0, 11, 98
2, 7031, Control_c, 0, 11, 92
2, 7034, Control_c, 0, 11, 86
2, 7037, Control_c, 0, 11, 80
2, 7041, Note_on_c, 0, 60, 0
2, 7041, Control_c, 0, 11, 108
2, 7041, Pitch_bend_c, 0, 8165
2, 7041, Note_on_c, 0, 59, 127
2, 7044, Control_c, 0, 11, 103
2, 7047, Control_c, 0, 11, 98
2, 7050, Control_c, 0, 11, 92
2, 7053, Control_c, 0, 11, 86
2, 7057, Control_c, 0, 11, 80
2, 7060, Control_c, 0, 11, 73
2, 7063, Control_c, 0, 11, 65
2, 7066, Control_c, 0, 11, 56
2, 7069, Control_c, 0, 11, 46
2, 7073, Control_c, 0, 11, 32
2, 7098, Control_c, 0, 11, 108
2, 7098, Pitch_bend_c, 0, 8164
2, 7098, Note_on_c, 0, 60, 127
2, 7099, Note_on_c, 0, 59, 0
2, 7101, Control_c, 0, 11, 103
2, 7105, Control_c, 0, 11, 98
2, 7108, Control_c, 0, 11, 92
2, 7111, Control_c, 0, 11, 86
2, 7114, Control_c, 0, 11, 80
2, 7117, Control_c, 0, 11, 73
2, 7121, Control_c, 0, 11, 65
2, 7124, Control_c, 0, 11, 56
2, 7127, Control_c, 0, 11, 46
2, 7130, Control_c, 0, 11, 32
2, 7194, Control_c, 0, 11, 108
2, 7194, Pitch_bend_c, 0, 8160
2, 7194, Note_on_c, 0, 62, 127
2, 7195, Note_on_c, 0, 60, 0
2, 7197, Control_c, 0, 11, 103
2, 7201, Control_c, 0, 11, 98
2, 7204, Control_c, 0, 11, 92
2, 7207, Control_c, 0, 11, 86
2, 7210, Control_c, 0, 11, 80
2, 7213, Control_c, 0, 11, 73
2, 7217, Control_c, 0, 11, 65
2, 7220, Control_c, 0, 11, 56
2, 7223, Control_c, 0, 11, 46
2, 7226, Control_c, 0, 11, 32
2, 7271, Note_on_c, 0, 62, 0
2, 7271, Control_c, 0, 11, 108
2, 7271, Pitch_bend_c, 0, 8162
2, 7271, Note_on_c, 0, 61, 127
2, 7274, Control_c, 0, 11, 103
2, 7277, Control_c, 0, 11, 98
2, 7281, Control_c, 0, 11, 92
2, 7284, Control_c, 0, 11, 86
2, 7287, Control_c, 0, 11, 80
2, 7290, Control_c, 0, 11, 73
2, 7293, Control_c, 0, 11, 65
2, 7297, Control_c, 0, 11, 56
2, 7300, Control_c, 0, 11, 46
2, 7303, Control_c, 0, 11, 32
2, 7329, Note_on_c, 0, 61, 0
2, 7329, Control_c, 0, 11, 108
2, 7329, Pitch_bend_c, 0, 8160
2, 7329, Note_on_c, 0, 62, 127
2, 7332, Control_c, 0, 11, 103
2, 7335, Control_c, 0, 11, 98
2, 7338, Control_c, 0, 11, 92
2, 7341, Control_c, 0, 11, 86
2, 7345, Control_c, 0, 11, 80
2, 7348, Control_c, 0, 11, 32
2, 7367, Control_c, 0, 11, 108
2, 7367, Pitch_bend_c, 0, 8192
2, 7367, Note_on_c, 0, 69, 127
2, 7368, Note_on_c, 0, 62, 0
2, 7370, Control_c, 0, 11, 103
2, 7373, Control_c, 0, 11, 98
2, 7377, Control_c, 0, 11, 92
2, 7380, Control_c, 0, 11, 86
2, 7383, Control_c, 0, 11, 80
2, 7386, Control_c, 0, 11, 73
2, 7389, Control_c, 0, 11, 65
2, 7393, Control_c, 0, 11, 56
2, 7396, Control_c, 0, 11, 46
2, 7399, Control_c, 0, 11, 32
2, 7444, Note_on_c, 0, 69, 0
2, 7444, Control_c, 0, 11, 108
2, 7444, Pitch_bend_c, 0, 8192
2, 7444, Note_on_c, 0, 66, 127
2, 7447, Control_c, 0, 11, 103
2, 7450, Control_c, 0, 11, 98
2, 7453, Control_c, 0, 11, 92
2, 7457, Control_c, 0, 11, 86
2, 7460, Control_c, 0, 11, 80
2, 7463, Control_c, 0, 11, 73
2, 7466, Control_c, 0, 11, 65
2, 7469, Control_c, 0, 11, 56
2, 7473, Control_c, 0, 11, 46
2, 7476, Control_c, 0, 11, 32
2, 7501, Control_c, 0, 11, 108
2, 7501, Pitch_bend_c, 0, 8192
2, 7501, Note_on_c, 0, 67, 127
2, 7502, Note_on_c, 0, 66, 0
2, 7505, Control_c, 0, 11, 103
2, 7508, Control_c, 0, 11, 98
2, 7511, Control_c, 0, 11, 92
2, 7514, Control_c, 0, 11, 86
2, 7517, Control_c, 0, 11, 80
2, 7521, Control_c, 0, 11, 73
2, 7524, Control_c, 0, 11, 65
2, 7527, Control_c, 0, 11, 56
2, 7530, Control_c, 0, 11, 46
2, 7533, Control_c, 0, 11, 32
2, 7559, Note_on_c, 0, 67, 0
2, 7559, Control_c, 0, 11, 108
2, 7559, Pitch_bend_c, 0, 8192
2, 7559, Note_on_c, 0, 69, 127
2, 7562, Control_c, 0, 11, 103
2, 7565, Control_c, 0, 11, 98
2, 7569, Control_c, 0, 11, 92
2, 7572, Control_c, 0, 11, 86
2, 7575, Control_c, 0, 11, 80
2, 7578, Control_c, 0, 11, 73
2, 7581, Control_c, 0, 11, 65
2, 7585, Control_c, 0, 11, 56
2, 7588, Control_c, 0, 11, 46
2, 7591, Control_c, 0, 11, 32
2, 7617, Note_on_c, 0, 69, 0
2, 7617, Control_c, 0, 11, 108
2, 7617, Pitch_bend_c, 0, 8192
2, 7617, Note_on_c, 0, 71, 127
2, 7620, Control_c, 0, 11, 103
2, 7623, Control_c, 0, 11, 98
2, 7626, Control_c, 0, 11, 92
2, 7629, Control_c, 0, 11, 86
2, 7633, Control_c, 0, 11, 80
2, 7636, Control_c, 0, 11, 32
2, 7655, Control_c, 0, 11, 108
2, 7655, Pitch_bend_c, 0, 8192
2, 7655, Note_on_c, 0, 70, 127
2, 7656, Note_on_c, 0, 71, 0
2, 7658, Control_c, 0, 11, 103
2, 7661, Control_c, 0, 11, 98
2, 7665, Control_c, 0, 11, 92
2, 7668, Control_c, 0, 11, 86
2, 7671, Control_c, 0, 11, 80
2, 7674, Control_c, 0, 11, 108
2, 7674, Pitch_bend_c, 0, 8192
2, 7674, Note_on_c, 0, 71, 127
2, 7675, Note_on_c, 0, 70, 0
2, 7677, Control_c, 0, 11, 103
2, 7681, Control_c, 0, 11, 98
2, 7684, Control_c, 0, 11, 92
2, 7687, Control_c, 0, 11, 86
2, 7690, Control_c, 0, 11, 80
2, 7693, Control_c, 0, 11, 32
2, 7713, Note_on_c, 0, 71, 0
2, 7713, Control_c, 0, 11, 108
2, 7713, Pitch_bend_c, 0, 8192
2, 7713, Note_on_c, 0, 83, 127
2, 7716, Control_c, 0, 11, 103
2, 7719, Control_c, 0, 11, 98
2, 7722, Control_c, 0, 11, 92
2, 7725, Control_c, 0, 11, 86
2, 7729, Control_c, 0, 11, 80
2, 7732, Control_c, 0, 11, 108
2, 7732, Pitch_bend_c, 0, 8192
2, 7732, Note_on_c, 0, 69, 127
2, 7733, Note_on_c, 0, 83, 0
2, 7735, Control_c, 0, 11, 103
2, 7738, Control_c, 0, 11, 98
2, 7741, Control_c, 0, 11, 92
2, 7745, Control_c, 0, 11, 86
2, 7748, Control_c, 0, 11, 80
2, 7751, Control_c, 0, 11, 32
2, 7770, Control_c, 0, 11, 108
2, 7770, Pitch_bend_c, 0, 8192
2, 7770, Note_on_c, 0, 68, 127
2, 7771, Note_on_c, 0, 69, 0
2, 7773, Control_c, 0, 11, 103
2, 7777, Control_c, 0, 11, 98
2, 7780, Control_c, 0, 11, 92
2, 7783, Control_c, 0, 11, 86
2, 7786, Control_c, 0, 11, 80
2, 7789, Control_c, 0, 11, 108
2, 7789, Pitch_bend_c, 0, 8192
2, 7789, Note_on_c, 0, 69, 127
2, 7790, Note_on_c, 0, 68, 0
2, 7793, Control_c, 0, 11, 103
2, 7796, Control_c, 0, 11, 98
2, 7799, Control_c, 0, 11, 92
2, 7802, Control_c, 0, 11, 86
2, 7805, Control_c, 0, 11, 80
2, 7809, Control_c, 0, 11, 32
2, 7828, Note_on_c, 0, 69, 0
2, 7828, Control_c, 0, 11, 108
2, 7828, Pitch_bend_c, 0, 8192
2, 7828, Note_on_c, 0, 81, 127
2, 7831, Control_c, 0, 11, 103
2, 7834, Control_c, 0, 11, 98
2, 7837, Control_c, 0, 11, 92
2, 7841, Control_c, 0, 11, 86
2, 7844, Control_c, 0, 11, 80
2, 7847, Control_c, 0, 11, 108
2, 7847, Pitch_bend_c, 0, 8192
2, 7847, Note_on_c, 0, 68, 127
2, 7848, Note_on_c, 0, 81, 0
2, 7850, Control_c, 0, 11, 103
2, 7853, Control_c, 0, 11, 98
2, 7857, Control_c, 0, 11, 92
2, 7860, Control_c, 0, 11, 86
2, 7863, Control_c, 0, 11, 80
2, 7866, Control_c, 0, 11, 32
2, 7885, Control_c, 0, 11, 108
2, 7885, Pitch_bend_c, 0, 8192
2, 7885, Note_on_c, 0, 67, 127
2, 7886, Note_on_c, 0, 68, 0
2, 7889, Control_c, 0, 11, 103
2, 7892, Control_c, 0, 11, 98
2, 7895, Control_c, 0, 11, 92
2, 7898, Control_c, 0, 11, 86
2, 7901, Control_c, 0, 11, 80
2, 7905, Note_on_c, 0, 67, 0
2, 7905, Control_c, 0, 11, 108
2, 7905, Pitch_bend_c, 0, 8192
2, 7905, Note_on_c, 0, 68, 127
2, 7908, Control_c, 0, 11, 103
2, 7911, Control_c, 0, 11, 98
2, 7914, Control_c, 0, 11, 92
2, 7917, Control_c, 0, 11, 86
2, 7921, Control_c, 0, 11, 80
2, 7924, Control_c, 0, 11, 32
2, 7943, Control_c, 0, 11, 108
2, 7943, Pitch_bend_c, 0, 8192
2, 7943, Note_on_c, 0, 80, 127
2, 7944, Note_on_c, 0, 68, 0
2, 7946, Control_c, 0, 11, 103
2, 7949, Control_c, 0, 11, 98
2, 7953, Control_c, 0, 11, 92
2, 7956, Control_c, 0, 11, 86
2, 7959, Control_c, 0, 11, 80
2, 7962, Control_c, 0, 11, 108
2, 7962, Pitch_bend_c, 0, 8192
2, 7962, Note_on_c, 0, 67, 127
2, 7963, Note_on_c, 0, 80, 0
2, 7965, Control_c, 0, 11, 103
2, 7969, Control_c, 0, 11, 98
2, 7972, Control_c, 0, 11, 92
2, 7975, Control_c, 0, 11, 86
2, 7978, Control_c, 0, 11, 80
2, 7981, Control_c, 0, 11, 32
2, 8001, Note_on_c, 0, 67, 0
2, 8001, Control_c, 0, 11, 108
2, 8001, Pitch_bend_c, 0, 8160
2, 8001, Note_on_c, 0, 62, 127
2, 8004, Control_c, 0, 11, 103
2, 8007, Control_c, 0, 11, 98
2, 8010, Control_c, 0, 11, 92
2, 8013, Control_c, 0, 11, 86
2, 8017, Control_c, 0, 11, 80
2, 8020, Control_c, 0, 11, 108
2, 8020, Pitch_bend_c, 0, 8165
2, 8020, Note_on_c, 0, 59, 127
2, 8021, Note_on_c, 0, 62, 0
2, 8023, Control_c, 0, 11, 103
2, 8026, Control_c, 0, 11, 98
2, 8029, Control_c, 0, 11, 92
2, 8033, Control_c, 0, 11, 86
2, 8036, Control_c, 0, 11, 80
2, 8039, Control_c, 0, 11, 32
2, 8058, Control_c, 0, 11, 108
2, 8058, Pitch_bend_c, 0, 8171
2, 8058, Note_on_c, 0, 55, 127
2, 8059, Note_on_c, 0, 59, 0
2, 8061, Control_c, 0, 11, 103
2, 8065, Control_c, 0, 11, 98
2, 8068, Control_c, 0, 11, 92
2, 8071, Control_c, 0, 11, 86
2, 8074, Control_c, 0, 11, 80
2, 8077, Control_c, 0, 11, 92
2, 8077, Pitch_bend_c, 0, 8192
2, 8077, Note_on_c, 0, 72, 127
2, 8078, Note_on_c, 0, 55, 0
2, 8084, Control_c, 0, 11, 86
2, 8097, Control_c, 0, 11, 0
2, 8116, Note_on_c, 0, 72, 0
2, 8116, Control_c, 0, 11, 92
2, 8116, Pitch_bend_c, 0, 8192
2, 8116, Note_on_c, 0, 64, 127
2, 8122, Control_c, 0, 11, 86
2, 8135, Control_c, 0, 11, 92
2, 8135, Pitch_bend_c, 0, 8192
2, 8135, Note_on_c, 0, 67, 127
2, 8136, Note_on_c, 0, 64, 0
2, 8141, Control_c, 0, 11, 86
2, 8154, Control_c, 0, 11, 0
2, 8173, Control_c, 0, 11, 92
2, 8173, Pitch_bend_c, 0, 8192
2, 8173, Note_on_c, 0, 72, 127
2, 8174, Note_on_c, 0, 67, 0
2, 8180, Control_c, 0, 11, 86
2, 8192, Control_c, 0, 11, 80
2, 8231, Note_on_c, 0, 72, 0
2, 8231, Control_c, 0, 11, 92
2, 8231, Pitch_bend_c, 0, 8192
2, 8231, Note_on_c, 0, 64, 127
2, 8237, Control_c, 0, 11, 86
2, 8250, Control_c, 0, 11, 92
2, 8250, Pitch_bend_c, 0, 8192
2, 8250, Note_on_c, 0, 67, 127
2, 8251, Note_on_c, 0, 64, 0
2, 8256, Control_c, 0, 11, 86
2, 8269, Control_c, 0, 11, 0
2, 8288, Control_c, 0, 11, 92
2, 8288, Pitch_bend_c, 0, 8192
2, 8288, Note_on_c, 0, 72, 127
2, 8289, Note_on_c, 0, 67, 0
2, 8295, Control_c, 0, 11, 86
2, 8308, Note_on_c, 0, 72, 0
2, 8308, Control_c, 0, 11, 92
2, 8308, Pitch_bend_c, 0, 8159
2, 8308, Note_on_c, 0, 63, 127
2, 8314, Control_c, 0, 11, 86
2, 8327, Control_c, 0, 11, 92
2, 8327, Pitch_bend_c, 0, 8192
2, 8327, Note_on_c, 0, 67, 127
2, 8328, Note_on_c, 0, 63, 0
2, 8333, Control_c, 0, 11, 86
2, 8346, Control_c, 0, 11, 92
2, 8346, Pitch_bend_c, 0, 8192
2, 8346, Note_on_c, 0, 71, 127
2, 8347, Note_on_c, 0, 67, 0
2, 8352, Control_c, 0, 11, 86
2, 8365, Control_c, 0, 11, 92
2, 8365, Pitch_bend_c, 0, 8192
2, 8365, Note_on_c, 0, 75, 127
2, 8366, Note_on_c, 0, 71, 0
2, 8372, Control_c, 0, 11, 86
2, 8384, Control_c, 0, 11, 0
2, 8404, Note_on_c, 0, 75, 0
2, 8404, Control_c, 0, 11, 92
2, 8404, Pitch_bend_c, 0, 8192
2, 8404, Note_on_c, 0, 71, 127
2, 8410, Control_c, 0, 11, 86
2, 8423, Control_c, 0, 11, 80
2, 8519, Control_c, 0, 11, 0
2, 8538, Control_c, 0, 11, 92
2, 8538, Pitch_bend_c, 0, 8192
2, 8538, Note_on_c, 0, 70, 127
2, 8539, Note_on_c, 0, 71, 0
2, 8544, Control_c, 0, 11, 86
2, 8557, Control_c, 0, 11, 0
2, 8576, Control_c, 0, 11, 92
2, 8576, Pitch_bend_c, 0, 8160
2, 8576, Note_on_c, 0, 62, 127
2, 8577, Note_on_c, 0, 70, 0
2, 8583, Control_c, 0, 11, 86
2, 8596, Note_on_c, 0, 62, 0
2, 8596, Control_c, 0, 11, 92
2, 8596, Pitch_bend_c, 0, 8192
2, 8596, Note_on_c, 0, 67, 127
2, 8602, Control_c, 0, 11, 86
2, 8615, Control_c, 0, 11, 0
2, 8634, Control_c, 0, 11, 92
2, 8634, Pitch_bend_c, 0, 8192
2, 8634, Note_on_c, 0, 70, 127
2, 8635, Note_on_c, 0, 67, 0
2, 8640, Control_c, 0, 11, 86
2, 8653, Control_c, 0, 11, 80
2, 8692, Note_on_c, 0, 70, 0
2, 8692, Control_c, 0, 11, 92
2, 8692, Pitch_bend_c, 0, 8160
2, 8692, Note_on_c, 0, 62, 127
2, 8698, Control_c, 0, 11, 86
2, 8711, Control_c, 0, 11, 92
2, 8711, Pitch_bend_c, 0, 8192
2, 8711, Note_on_c, 0, 67, 127
2, 8712, Note_on_c, 0, 62, 0
2, 8717, Control_c, 0, 11, 86
2, 8730, Control_c, 0, 11, 0
2, 8749, Control_c, 0, 11, 92
2, 8749, Pitch_bend_c, 0, 8192
2, 8749, Note_on_c, 0, 70, 127
2, 8750, Note_on_c, 0, 67, 0
2, 8756, Control_c, 0, 11, 86
2, 8768, Control_c, 0, 11, 92
2, 8768, Pitch_bend_c, 0, 8192
2, 8768, Note_on_c, 0, 64, 127
2, 8769, Note_on_c, 0, 70, 0
2, 8775, Control_c, 0, 11, 86
2, 8788, Note_on_c, 0, 64, 0
2, 8788, Control_c, 0, 11, 92
2, 8788, Pitch_bend_c, 0, 8192
2, 8788, Note_on_c, 0, 69, 127
2, 8794, Control_c, 0, 11, 86
2, 8807, Control_c, 0, 11, 92
2, 8807, Pitch_bend_c, 0, 8192
2, 8807, Note_on_c, 0, 73, 127
2, 8808, Note_on_c, 0, 69, 0
2, 8813, Control_c, 0, 11, 86
2, 8826, Control_c, 0, 11, 92
2, 8826, Pitch_bend_c, 0, 8192
2, 8826, Note_on_c, 0, 76, 127
2, 8827, Note_on_c, 0, 73, 0
2, 8832, Control_c, 0, 11, 86
2, 8845, Control_c, 0, 11, 0
2, 8864, Control_c, 0, 11, 92
2, 8864, Pitch_bend_c, 0, 8192
2, 8864, Note_on_c, 0, 73, 127
2, 8865, Note_on_c, 0, 76, 0
2, 8871, Control_c, 0, 11, 86
2, 8884, Control_c, 0, 11, 80
2, 8980, Note_on_c, 0, 73, 0
2, 8980, Control_c, 0, 11, 92
2, 8980, Pitch_bend_c, 0, 8192
2, 8980, Note_on_c, 0, 76, 127
2, 8986, Control_c, 0, 11, 86
2, 8999, Control_c, 0, 11, 92
2, 8999, Pitch_bend_c, 0, 8192
2, 8999, Note_on_c, 0, 81, 127
2, 9000, Note_on_c, 0, 76, 0
2, 9005, Control_c, 0, 11, 86
2, 9018, Control_c, 0, 11, 0
2, 9037, Control_c, 0, 11, 92
2, 9037, Pitch_bend_c, 0, 8192
2, 9037, Note_on_c, 0, 79, 127
2, 9038, Note_on_c, 0, 81, 0
2, 9044, Control_c, 0, 11, 86
2, 9056, Control_c, 0, 11, 92
2, 9056, Pitch_bend_c, 0, 8192
2, 9056, Note_on_c, 0, 81, 127
2, 9057, Note_on_c, 0, 79, 0
2, 9063, Control_c, 0, 11, 86
2, 9076, Control_c, 0, 11, 0
2, 9095, Note_on_c, 0, 81, 0
2, 9095, Control_c, 0, 11, 92
2, 9095, Pitch_bend_c, 0, 8192
2, 9095, Note_on_c, 0, 77, 127
2, 9101, Control_c, 0, 11, 86
2, 9114, Control_c, 0, 11, 80
2, 9152, Control_c, 0, 11, 92
2, 9152, Pitch_bend_c, 0, 8192
2, 9152, Note_on_c, 0, 81, 127
2, 9153, Note_on_c, 0, 77, 0
2, 9159, Control_c, 0, 11, 86
2, 9172, Note_on_c, 0, 81, 0
2, 9172, Control_c, 0, 11, 92
2, 9172, Pitch_bend_c, 0, 8192
2, 9172, Note_on_c, 0, 79, 127
2, 9178, Control_c, 0, 11, 86
2, 9191, Control_c, 0, 11, 0
2, 9210, Control_c, 0, 11, 92
2, 9210, Pitch_bend_c, 0, 8192
2, 9210, Note_on_c, 0, 78, 127
2, 9211, Note_on_c, 0, 79, 0
2, 9216, Control_c, 0, 11, 86
2, 9229, Control_c, 0, 11, 92
2, 9229, Pitch_bend_c, 0, 8192
2, 9229, Note_on_c, 0, 76, 127
2, 9230, Note_on_c, 0, 78, 0
2, 9236, Control_c, 0, 11, 86
2, 9248, Control_c, 0, 11, 0
2, 9268, Note_on_c, 0, 76, 0
2, 9268, Control_c, 0, 11, 92
2, 9268, Pitch_bend_c, 0, 8192
2, 9268, Note_on_c, 0, 75, 127
2, 9274, Control_c, 0, 11, 86
2, 9287, Control_c, 0, 11, 92
2, 9287, Pitch_bend_c, 0, 8192
2, 9287, Note_on_c, 0, 76, 127
2, 9288, Note_on_c, 0, 75, 0
2, 9293, Control_c, 0, 11, 86
2, 9306, Control_c, 0, 11, 0
2, 9325, Control_c, 0, 11, 92
2, 9325, Pitch_bend_c, 0, 8192
2, 9325, Note_on_c, 0, 72, 127
2, 9326, Note_on_c, 0, 76, 0
2, 9332, Control_c, 0, 11, 86
2, 9344, Control_c, 0, 11, 80
2, 9383, Note_on_c, 0, 72, 0
2, 9383, Control_c, 0, 11, 92
2, 9383, Pitch_bend_c, 0, 8192
2, 9383, Note_on_c, 0, 69, 127
2, 9389, Control_c, 0, 11, 86
2, 9402, Control_c, 0, 11, 92
2, 9402, Pitch_bend_c, 0, 8192
2, 9402, Note_on_c, 0, 71, 127
2, 9403, Note_on_c, 0, 69, 0
2, 9409, Control_c, 0, 11, 86
2, 9421, Control_c, 0, 11, 0
2, 9441, Note_on_c, 0, 71, 0
2, 9441, Control_c, 0, 11, 92
2, 9441, Pitch_bend_c, 0, 8192
2, 9441, Note_on_c, 0, 73, 127
2, 9447, Control_c, 0, 11, 86
2, 9460, Control_c, 0, 11, 92
2, 9460, Pitch_bend_c, 0, 8192
2, 9460, Note_on_c, 0, 74, 127
2, 9461, Note_on_c, 0, 73, 0
2, 9466, Control_c, 0, 11, 86
2, 9479, Control_c, 0, 11, 0
2, 9498, Control_c, 0, 11, 92
2, 9498, Pitch_bend_c, 0, 8192
2, 9498, Note_on_c, 0, 72, 127
2, 9499, Note_on_c, 0, 74, 0
2, 9505, Control_c, 0, 11, 86
2, 9517, Control_c, 0, 11, 92
2, 9517, Pitch_bend_c, 0, 8192
2, 9517, Note_on_c, 0, 74, 127
2, 9518, Note_on_c, 0, 72, 0
2, 9524, Control_c, 0, 11, 86
2, 9537, Control_c, 0, 11, 0
2, 9556, Note_on_c, 0, 74, 0
2, 9556, Control_c, 0, 11, 92
2, 9556, Pitch_bend_c, 0, 8192
2, 9556, Note_on_c, 0, 67, 127
2, 9562, Control_c, 0, 11, 86
2, 9575, Control_c, 0, 11, 80
2, 9613, Control_c, 0, 11, 92
2, 9613, Pitch_bend_c, 0, 8192
2, 9613, Note_on_c, 0, 72, 127
2, 9614, Note_on_c, 0, 67, 0
2, 9620, Control_c, 0, 11, 86
2, 9633, Note_on_c, 0, 72, 0
2, 9633, Control_c, 0, 11, 92
2, 9633, Pitch_bend_c, 0, 8192
2, 9633, Note_on_c, 0, 71, 127
2, 9639, Control_c, 0, 11, 86
2, 9652, Control_c, 0, 11, 0
2, 9671, Control_c, 0, 11, 92
2, 9671, Pitch_bend_c, 0, 8192
2, 9671, Note_on_c, 0, 67, 127
2, 9672, Note_on_c, 0, 71, 0
2, 9677, Control_c, 0, 11, 86
2, 9690, Control_c, 0, 11, 80
2, 9786, Control_c, 0, 11, 0
2, 9921, Control_c, 0, 11, 32
2, 9959, Note_on_c, 0, 67, 0
2, 9959, Control_c, 0, 11, 108
2, 9959, Pitch_bend_c, 0, 8192
2, 9959, Note_on_c, 0, 67, 127
2, 9962, Control_c, 0, 11, 103
2, 9965, Control_c, 0, 11, 98
2, 9969, Control_c, 0, 11, 92
2, 9972, Control_c, 0, 11, 86
2, 9975, Control_c, 0, 11, 80
2, 9978, Control_c, 0, 11, 73
2, 9981, Control_c, 0, 11, 65
2, 9985, Control_c, 0, 11, 56
2, 9988, Control_c, 0, 11, 46
2, 9991, Control_c, 0, 11, 32
2, 10036, Note_on_c, 0, 67, 0
2, 10036, Control_c, 0, 11, 108
2, 10036, Pitch_bend_c, 0, 8192
2, 10036, Note_on_c, 0, 72, 127
2, 10039, Control_c, 0, 11, 103
2, 10042, Control_c, 0, 11, 98
2, 10045, Control_c, 0, 11, 92
2, 10049, Control_c, 0, 11, 86
2, 10052, Control_c, 0, 11, 80
2, 10055, Control_c, 0, 11, 32
2, 10093, Control_c, 0, 11, 108
2, 10093, Pitch_bend_c, 0, 8192
2, 10093, Note_on_c, 0, 76, 127
2, 10094, Note_on_c, 0, 72, 0
2, 10097, Control_c, 0, 11, 103
2, 10100, Control_c, 0, 11, 98
2, 10103, Control_c, 0, 11, 92
2, 10106, Control_c, 0, 11, 86
2, 10109, Control_c, 0, 11, 80
2, 10113, Control_c, 0, 11, 32
2, 10132, Note_on_c, 0, 76, 0
2, 10132, Control_c, 0, 11, 108
2, 10132, Pitch_bend_c, 0, 8192
2, 10132, Note_on_c, 0, 79, 127
2, 10135, Control_c, 0, 11, 103
2, 10138, Control_c, 0, 11, 98
2, 10141, Control_c, 0, 11, 92
2, 10145, Control_c, 0, 11, 86
2, 10148, Control_c, 0, 11, 80
2, 10151, Control_c, 0, 11, 73
2, 10154, Control_c, 0, 11, 65
2, 10157, Control_c, 0, 11, 56
2, 10161, Control_c, 0, 11, 46
2, 10164, Control_c, 0, 11, 32
2, 10225, Note_on_c, 0, 79, 0
2, 10225, End_track
3, 0, Start_track
3, 0, MIDI_port, 0
3, 0, Unknown_meta_event, 9, 1, 48
3, 0, Title_t, "Imported MIDI"
3, 4, Program_c, 3, 80
3, 4, Program_c, 3, 80
3, 4, Control_c, 3, 10, 64
3, 4, Control_c, 3, 121, 0
3, 4, Control_c, 3, 123, 0
3, 4, Control_c, 3, 123, 0
3, 4, Control_c, 3, 91, 0
3, 4, Control_c, 3, 7, 100
3, 4, Control_c, 3, 93, 0
3, 4, Pitch_bend_c, 3, 8192
3, 61, Control_c, 3, 0, 0
3, 61, Control_c, 3, 123, 0
3, 62, Control_c, 3, 32, 0
3, 63, Program_c, 3, 80
3, 64, Control_c, 3, 65, 0
3, 68, Control_c, 3, 91, 0
3, 68, Control_c, 3, 7, 127
3, 71, Control_c, 3, 93, 0
3, 71, Control_c, 3, 101, 0
3, 72, Control_c, 3, 100, 0
3, 73, Control_c, 3, 6, 12
3, 282, Control_c, 3, 11, 108
3, 282, Pitch_bend_c, 3, 8192
3, 282, Note_on_c, 3, 79, 127
3, 288, Control_c, 3, 11, 103
3, 295, Control_c, 3, 11, 98
3, 301, Control_c, 3, 11, 108
3, 301, Pitch_bend_c, 3, 8192
3, 301, Note_on_c, 3, 78, 127
3, 302, Note_on_c, 3, 79, 0
3, 308, Control_c, 3, 11, 103
3, 314, Control_c, 3, 11, 98
3, 321, Control_c, 3, 11, 0
3, 340, Note_on_c, 3, 78, 0
3, 340, Control_c, 3, 11, 108
3, 340, Pitch_bend_c, 3, 8192
3, 340, Note_on_c, 3, 77, 127
3, 346, Control_c, 3, 11, 103
3, 353, Control_c, 3, 11, 98
3, 359, Control_c, 3, 11, 108
3, 359, Pitch_bend_c, 3, 8192
3, 359, Note_on_c, 3, 74, 127
3, 360, Note_on_c, 3, 77, 0
3, 365, Control_c, 3, 11, 103
3, 372, Control_c, 3, 11, 98
3, 378, Control_c, 3, 11, 0
3, 397, Control_c, 3, 11, 108
3, 397, Pitch_bend_c, 3, 8192
3, 397, Note_on_c, 3, 71, 127
3, 398, Note_on_c, 3, 74, 0
3, 404, Control_c, 3, 11, 103
3, 410, Control_c, 3, 11, 98
3, 417, Note_on_c, 3, 71, 0
3, 417, Control_c, 3, 11, 108
3, 417, Pitch_bend_c, 3, 8192
3, 417, Note_on_c, 3, 69, 127
3, 423, Control_c, 3, 11, 103
3, 429, Control_c, 3, 11, 98
3, 436, Control_c, 3, 11, 0
3, 455, Control_c, 3, 11, 108
3, 455, Pitch_bend_c, 3, 8192
3, 455, Note_on_c, 3, 68, 127
3, 456, Note_on_c, 3, 69, 0
3, 461, Control_c, 3, 11, 103
3, 468, Control_c, 3, 11, 98
3, 474, Control_c, 3, 11, 108
3, 474, Pitch_bend_c, 3, 8192
3, 474, Note_on_c, 3, 67, 127
3, 475, Note_on_c, 3, 68, 0
3, 481, Control_c, 3, 11, 103
3, 487, Control_c, 3, 11, 98
3, 497, Control_c, 3, 11, 92
3, 503, Control_c, 3, 11, 0
3, 532, Note_on_c, 3, 67, 0
3, 532, Control_c, 3, 11, 108
3, 532, Pitch_bend_c, 3, 8192
3, 532, Note_on_c, 3, 79, 127
3, 538, Control_c, 3, 11, 103
3, 544, Control_c, 3, 11, 98
3, 554, Control_c, 3, 11, 92
3, 560, Control_c, 3, 11, 0
3, 589, Control_c, 3, 11, 108
3, 589, Pitch_bend_c, 3, 8192
3, 589, Note_on_c, 3, 67, 127
3, 590, Note_on_c, 3, 79, 0
3, 596, Control_c, 3, 11, 103
3, 602, Control_c, 3, 11, 98
3, 612, Control_c, 3, 11, 92
3, 634, Control_c, 3, 11, 86
3, 641, Control_c, 3, 11, 80
3, 644, Control_c, 3, 11, 73
3, 647, Control_c, 3, 11, 0
3, 705, Note_on_c, 3, 67, 0
3, 705, Control_c, 3, 11, 92
3, 705, Pitch_bend_c, 3, 8192
3, 705, Note_on_c, 3, 79, 127
3, 711, Control_c, 3, 11, 86
3, 724, Control_c, 3, 11, 0
3, 743, Control_c, 3, 11, 92
3, 743, Pitch_bend_c, 3, 8192
3, 743, Note_on_c, 3, 72, 127
3, 744, Note_on_c, 3, 79, 0
3, 749, Control_c, 3, 11, 86
3, 762, Control_c, 3, 11, 92
3, 762, Pitch_bend_c, 3, 8192
3, 762, Note_on_c, 3, 76, 127
3, 763, Note_on_c, 3, 72, 0
3, 769, Control_c, 3, 11, 86
3, 781, Control_c, 3, 11, 0
3, 801, Note_on_c, 3, 76, 0
3, 801, Control_c, 3, 11, 92
3, 801, Pitch_bend_c, 3, 8192
3, 801, Note_on_c, 3, 79, 127
3, 807, Control_c, 3, 11, 86
3, 820, Control_c, 3, 11, 80
3, 858, Control_c, 3, 11, 92
3, 858, Pitch_bend_c, 3, 8192
3, 858, Note_on_c, 3, 72, 127
3, 859, Note_on_c, 3, 79, 0
3, 865, Control_c, 3, 11, 86
3, 877, Control_c, 3, 11, 92
3, 877, Pitch_bend_c, 3, 8192
3, 877, Note_on_c, 3, 76, 127
3, 878, Note_on_c, 3, 72, 0
3, 884, Control_c, 3, 11, 86
3, 897, Control_c, 3, 11, 0
3, 916, Note_on_c, 3, 76, 0
3, 916, Control_c, 3, 11, 92
3, 916, Pitch_bend_c, 3, 8192
3, 916, Note_on_c, 3, 79, 127
3, 922, Control_c, 3, 11, 86
3, 935, Control_c, 3, 11, 92
3, 935, Pitch_bend_c, 3, 8192
3, 935, Note_on_c, 3, 71, 127
3, 936, Note_on_c, 3, 79, 0
3, 941, Control_c, 3, 11, 86
3, 954, Control_c, 3, 11, 92
3, 954, Pitch_bend_c, 3, 8192
3, 954, Note_on_c, 3, 75, 127
3, 955, Note_on_c, 3, 71, 0
3, 961, Control_c, 3, 11, 86
3, 973, Control_c, 3, 11, 92
3, 973, Pitch_bend_c, 3, 8192
3, 973, Note_on_c, 3, 79, 127
3, 974, Note_on_c, 3, 75, 0
3, 980, Control_c, 3, 11, 86
3, 993, Note_on_c, 3, 79, 0
3, 993, Control_c, 3, 11, 92
3, 993, Pitch_bend_c, 3, 8192
3, 993, Note_on_c, 3, 83, 127
3, 999, Control_c, 3, 11, 86
3, 1012, Control_c, 3, 11, 0
3, 1031, Control_c, 3, 11, 92
3, 1031, Pitch_bend_c, 3, 8192
3, 1031, Note_on_c, 3, 81, 127
3, 1032, Note_on_c, 3, 83, 0
3, 1037, Control_c, 3, 11, 86
3, 1050, Control_c, 3, 11, 80
3, 1146, Control_c, 3, 11, 0
3, 1165, Control_c, 3, 11, 92
3, 1165, Pitch_bend_c, 3, 8192
3, 1165, Note_on_c, 3, 79, 127
3, 1166, Note_on_c, 3, 81, 0
3, 1172, Control_c, 3, 11, 86
3, 1185, Control_c, 3, 11, 0
3, 1204, Note_on_c, 3, 79, 0
3, 1204, Control_c, 3, 11, 92
3, 1204, Pitch_bend_c, 3, 8192
3, 1204, Note_on_c, 3, 70, 127
3, 1210, Control_c, 3, 11, 86
3, 1223, Control_c, 3, 11, 92
3, 1223, Pitch_bend_c, 3, 8192
3, 1223, Note_on_c, 3, 74, 127
3, 1224, Note_on_c, 3, 70, 0
3, 1229, Control_c, 3, 11, 86
3, 1242, Control_c, 3, 11, 0
3, 1261, Control_c, 3, 11, 92
3, 1261, Pitch_bend_c, 3, 8192
3, 1261, Note_on_c, 3, 79, 127
3, 1262, Note_on_c, 3, 74, 0
3, 1268, Control_c, 3, 11, 86
3, 1281, Control_c, 3, 11, 80
3, 1319, Note_on_c, 3, 79, 0
3, 1319, Control_c, 3, 11, 92
3, 1319, Pitch_bend_c, 3, 8192
3, 1319, Note_on_c, 3, 70, 127
3, 1325, Control_c, 3, 11, 86
3, 1338, Control_c, 3, 11, 92
3, 1338, Pitch_bend_c, 3, 8192
3, 1338, Note_on_c, 3, 74, 127
3, 1339, Note_on_c, 3, 70, 0
3, 1345, Control_c, 3, 11, 86
3, 1357, Control_c, 3, 11, 0
3, 1377, Note_on_c, 3, 74, 0
3, 1377, Control_c, 3, 11, 92
3, 1377, Pitch_bend_c, 3, 8192
3, 1377, Note_on_c, 3, 79, 127
3, 1383, Control_c, 3, 11, 86
3, 1396, Control_c, 3, 11, 92
3, 1396, Pitch_bend_c, 3, 8192
3, 1396, Note_on_c, 3, 73, 127
3, 1397, Note_on_c, 3, 79, 0
3, 1402, Control_c, 3, 11, 86
3, 1415, Control_c, 3, 11, 92
3, 1415, Pitch_bend_c, 3, 8192
3, 1415, Note_on_c, 3, 76, 127
3, 1416, Note_on_c, 3, 73, 0
3, 1421, Control_c, 3, 11, 86
3, 1434, Control_c, 3, 11, 92
3, 1434, Pitch_bend_c, 3, 8192
3, 1434, Note_on_c, 3, 79, 127
3, 1435, Note_on_c, 3, 76, 0
3, 1441, Control_c, 3, 11, 86
3, 1453, Control_c, 3, 11, 92
3, 1453, Pitch_bend_c, 3, 8192
3, 1453, Note_on_c, 3, 83, 127
3, 1454, Note_on_c, 3, 79, 0
3, 1460, Control_c, 3, 11, 86
3, 1473, Control_c, 3, 11, 0
3, 1492, Note_on_c, 3, 83, 0
3, 1492, Control_c, 3, 11, 92
3, 1492, Pitch_bend_c, 3, 8192
3, 1492, Note_on_c, 3, 81, 127
3, 1498, Control_c, 3, 11, 86
3, 1511, Control_c, 3, 11, 80
3, 1607, Control_c, 3, 11, 92
3, 1607, Pitch_bend_c, 3, 8192
3, 1607, Note_on_c, 3, 83, 127
3, 1608, Note_on_c, 3, 81, 0
3, 1613, Control_c, 3, 11, 86
3, 1626, Control_c, 3, 11, 92
3, 1626, Pitch_bend_c, 3, 8192
3, 1626, Note_on_c, 3, 84, 127
3, 1627, Note_on_c, 3, 83, 0
3, 1633, Control_c, 3, 11, 86
3, 1645, Control_c, 3, 11, 0
3, 1665, Note_on_c, 3, 84, 0
3, 1665, Control_c, 3, 11, 92
3, 1665, Pitch_bend_c, 3, 8192
3, 1665, Note_on_c, 3, 83, 127
3, 1671, Control_c, 3, 11, 86
3, 1684, Control_c, 3, 11, 92
3, 1684, Pitch_bend_c, 3, 8192
3, 1684, Note_on_c, 3, 84, 127
3, 1685, Note_on_c, 3, 83, 0
3, 1690, Control_c, 3, 11, 86
3, 1703, Control_c, 3, 11, 0
3, 1722, Control_c, 3, 11, 92
3, 1722, Pitch_bend_c, 3, 8192
3, 1722, Note_on_c, 3, 81, 127
3, 1723, Note_on_c, 3, 84, 0
3, 1729, Control_c, 3, 11, 86
3, 1741, Control_c, 3, 11, 80
3, 1780, Note_on_c, 3, 81, 0
3, 1780, Control_c, 3, 11, 92
3, 1780, Pitch_bend_c, 3, 8192
3, 1780, Note_on_c, 3, 84, 127
3, 1786, Control_c, 3, 11, 86
3, 1799, Control_c, 3, 11, 92
3, 1799, Pitch_bend_c, 3, 8192
3, 1799, Note_on_c, 3, 83, 127
3, 1800, Note_on_c, 3, 84, 0
3, 1805, Control_c, 3, 11, 86
3, 1818, Control_c, 3, 11, 0
3, 1837, Control_c, 3, 11, 92
3, 1837, Pitch_bend_c, 3, 8192
3, 1837, Note_on_c, 3, 81, 127
3, 1838, Note_on_c, 3, 83, 0
3, 1844, Control_c, 3, 11, 86
3, 1857, Note_on_c, 3, 81, 0
3, 1857, Control_c, 3, 11, 92
3, 1857, Pitch_bend_c, 3, 8192
3, 1857, Note_on_c, 3, 79, 127
3, 1863, Control_c, 3, 11, 86
3, 1876, Control_c, 3, 11, 0
3, 1895, Control_c, 3, 11, 92
3, 1895, Pitch_bend_c, 3, 8192
3, 1895, Note_on_c, 3, 78, 127
3, 1896, Note_on_c, 3, 79, 0
3, 1901, Control_c, 3, 11, 86
3, 1914, Control_c, 3, 11, 92
3, 1914, Pitch_bend_c, 3, 8192
3, 1914, Note_on_c, 3, 79, 127
3, 1915, Note_on_c, 3, 78, 0
3, 1921, Control_c, 3, 11, 86
3, 1933, Control_c, 3, 11, 0
3, 1953, Note_on_c, 3, 79, 0
3, 1953, Control_c, 3, 11, 92
3, 1953, Pitch_bend_c, 3, 8192
3, 1953, Note_on_c, 3, 76, 127
3, 1959, Control_c, 3, 11, 86
3, 1972, Control_c, 3, 11, 80
3, 2010, Control_c, 3, 11, 92
3, 2010, Pitch_bend_c, 3, 8192
3, 2010, Note_on_c, 3, 73, 127
3, 2011, Note_on_c, 3, 76, 0
3, 2017, Control_c, 3, 11, 86
3, 2029, Control_c, 3, 11, 92
3, 2029, Pitch_bend_c, 3, 8192
3, 2029, Note_on_c, 3, 74, 127
3, 2030, Note_on_c, 3, 73, 0
3, 2036, Control_c, 3, 11, 86
3, 2048, Control_c, 3, 11, 0
3, 2068, Note_on_c, 3, 74, 0
3, 2068, Control_c, 3, 11, 92
3, 2068, Pitch_bend_c, 3, 8192
3, 2068, Note_on_c, 3, 76, 127
3, 2074, Control_c, 3, 11, 86
3, 2087, Control_c, 3, 11, 92
3, 2087, Pitch_bend_c, 3, 8192
3, 2087, Note_on_c, 3, 77, 127
3, 2088, Note_on_c, 3, 76, 0
3, 2093, Control_c, 3, 11, 86
3, 2106, Control_c, 3, 11, 0
3, 2125, Control_c, 3, 11, 92
3, 2125, Pitch_bend_c, 3, 8192
3, 2125, Note_on_c, 3, 76, 127
3, 2126, Note_on_c, 3, 77, 0
3, 2132, Control_c, 3, 11, 86
3, 2144, Control_c, 3, 11, 92
3, 2144, Pitch_bend_c, 3, 8192
3, 2144, Note_on_c, 3, 77, 127
3, 2145, Note_on_c, 3, 76, 0
3, 2151, Control_c, 3, 11, 86
3, 2164, Control_c, 3, 11, 0
3, 2183, Note_on_c, 3, 77, 0
3, 2183, Control_c, 3, 11, 92
3, 2183, Pitch_bend_c, 3, 8192
3, 2183, Note_on_c, 3, 71, 127
3, 2189, Control_c, 3, 11, 86
3, 2202, Control_c, 3, 11, 80
3, 2240, Control_c, 3, 11, 92
3, 2240, Pitch_bend_c, 3, 8192
3, 2240, Note_on_c, 3, 76, 127
3, 2241, Note_on_c, 3, 71, 0
3, 2247, Control_c, 3, 11, 86
3, 2260, Note_on_c, 3, 76, 0
3, 2260, Control_c, 3, 11, 92
3, 2260, Pitch_bend_c, 3, 8192
3, 2260, Note_on_c, 3, 74, 127
3, 2266, Control_c, 3, 11, 86
3, 2279, Control_c, 3, 11, 0
3, 2298, Control_c, 3, 11, 92
3, 2298, Pitch_bend_c, 3, 8192
3, 2298, Note_on_c, 3, 72, 127
3, 2299, Note_on_c, 3, 74, 0
3, 2304, Control_c, 3, 11, 86
3, 2317, Control_c, 3, 11, 80
3, 2413, Control_c, 3, 11, 0
3, 2548, Control_c, 3, 11, 32
3, 2586, Note_on_c, 3, 72, 0
3, 2586, Control_c, 3, 11, 108
3, 2586, Pitch_bend_c, 3, 8192
3, 2586, Note_on_c, 3, 76, 127
3, 2589, Control_c, 3, 11, 103
3, 2593, Control_c, 3, 11, 98
3, 2596, Control_c, 3, 11, 92
3, 2599, Control_c, 3, 11, 86
3, 2602, Control_c, 3, 11, 80
3, 2605, Control_c, 3, 11, 73
3, 2609, Control_c, 3, 11, 65
3, 2612, Control_c, 3, 11, 56
3, 2615, Control_c, 3, 11, 46
3, 2618, Control_c, 3, 11, 32
3, 2663, Note_on_c, 3, 76, 0
3, 2663, Control_c, 3, 11, 108
3, 2663, Pitch_bend_c, 3, 8192
3, 2663, Note_on_c, 3, 79, 127
3, 2666, Control_c, 3, 11, 103
3, 2669, Control_c, 3, 11, 98
3, 2673, Control_c, 3, 11, 92
3, 2676, Control_c, 3, 11, 86
3, 2679, Control_c, 3, 11, 80
3, 2682, Control_c, 3, 11, 32
3, 2721, Note_on_c, 3, 79, 0
3, 2721, Control_c, 3, 11, 108
3, 2721, Pitch_bend_c, 3, 8192
3, 2721, Note_on_c, 3, 81, 127
3, 2724, Control_c, 3, 11, 103
3, 2727, Control_c, 3, 11, 98
3, 2730, Control_c, 3, 11, 92
3, 2733, Control_c, 3, 11, 86
3, 2737, Control_c, 3, 11, 80
3, 2740, Control_c, 3, 11, 32
3, 2759, Control_c, 3, 11, 108
3, 2759, Pitch_bend_c, 3, 8192
3, 2759, Note_on_c, 3, 84, 127
3, 2760, Note_on_c, 3, 81, 0
3, 2762, Control_c, 3, 11, 103
3, 2765, Control_c, 3, 11, 98
3, 2769, Control_c, 3, 11, 92
3, 2772, Control_c, 3, 11, 86
3, 2775, Control_c, 3, 11, 80
3, 2778, Control_c, 3, 11, 73
3, 2781, Control_c, 3, 11, 65
3, 2785, Control_c, 3, 11, 56
3, 2788, Control_c, 3, 11, 46
3, 2791, Control_c, 3, 11, 32
3, 2893, Control_c, 3, 11, 108
3, 2893, Pitch_bend_c, 3, 8192
3, 2893, Note_on_c, 3, 81, 127
3, 2894, Note_on_c, 3, 84, 0
3, 2897, Control_c, 3, 11, 103
3, 2900, Control_c, 3, 11, 98
3, 2903, Control_c, 3, 11, 92
3, 2906, Control_c, 3, 11, 86
3, 2909, Control_c, 3, 11, 80
3, 2913, Control_c, 3, 11, 32
3, 2932, Note_on_c, 3, 81, 0
3, 2932, Control_c, 3, 11, 108
3, 2932, Pitch_bend_c, 3, 8192
3, 2932, Note_on_c, 3, 79, 127
3, 2935, Control_c, 3, 11, 103
3, 2938, Control_c, 3, 11, 98
3, 2941, Control_c, 3, 11, 92
3, 2945, Control_c, 3, 11, 86
3, 2948, Control_c, 3, 11, 80
3, 2951, Control_c, 3, 11, 108
3, 2951, Pitch_bend_c, 3, 8192
3, 2951, Note_on_c, 3, 76, 127
3, 2952, Note_on_c, 3, 79, 0
3, 2954, Control_c, 3, 11, 103
3, 2957, Control_c, 3, 11, 98
3, 2961, Control_c, 3, 11, 92
3, 2964, Control_c, 3, 11, 86
3, 2967, Control_c, 3, 11, 80
3, 2970, Control_c, 3, 11, 32
3, 2989, Control_c, 3, 11, 108
3, 2989, Pitch_bend_c, 3, 8192
3, 2989, Note_on_c, 3, 72, 127
3, 2990, Note_on_c, 3, 76, 0
3, 2993, Control_c, 3, 11, 103
3, 2996, Control_c, 3, 11, 98
3, 2999, Control_c, 3, 11, 92
3, 3002, Control_c, 3, 11, 86
3, 3005, Control_c, 3, 11, 80
3, 3009, Note_on_c, 3, 72, 0
3, 3009, Control_c, 3, 11, 108
3, 3009, Pitch_bend_c, 3, 8192
3, 3009, Note_on_c, 3, 74, 127
3, 3012, Control_c, 3, 11, 103
3, 3015, Control_c, 3, 11, 98
3, 3018, Control_c, 3, 11, 92
3, 3021, Control_c, 3, 11, 86
3, 3025, Control_c, 3, 11, 80
3, 3028, Control_c, 3, 11, 32
3, 3047, Control_c, 3, 11, 108
3, 3047, Pitch_bend_c, 3, 8192
3, 3047, Note_on_c, 3, 76, 127
3, 3048, Note_on_c, 3, 74, 0
3, 3050, Control_c, 3, 11, 103
3, 3053, Control_c, 3, 11, 98
3, 3057, Control_c, 3, 11, 92
3, 3060, Control_c, 3, 11, 86
3, 3063, Control_c, 3, 11, 80
3, 3066, Control_c, 3, 11, 108
3, 3066, Pitch_bend_c, 3, 8192
3, 3066, Note_on_c, 3, 74, 127
3, 3067, Note_on_c, 3, 76, 0
3, 3069, Control_c, 3, 11, 103
3, 3073, Control_c, 3, 11, 98
3, 3076, Control_c, 3, 11, 92
3, 3079, Control_c, 3, 11, 86
3, 3082, Control_c, 3, 11, 80
3, 3085, Control_c, 3, 11, 32
3, 3105, Note_on_c, 3, 74, 0
3, 3105, Control_c, 3, 11, 108
3, 3105, Pitch_bend_c, 3, 8192
3, 3105, Note_on_c, 3, 76, 127
3, 3108, Control_c, 3, 11, 103
3, 3111, Control_c, 3, 11, 98
3, 3114, Control_c, 3, 11, 92
3, 3117, Control_c, 3, 11, 86
3, 3121, Control_c, 3, 11, 80
3, 3124, Control_c, 3, 11, 108
3, 3124, Pitch_bend_c, 3, 8192
3, 3124, Note_on_c, 3, 74, 127
3, 3125, Note_on_c, 3, 76, 0
3, 3127, Control_c, 3, 11, 103
3, 3130, Control_c, 3, 11, 98
3, 3133, Control_c, 3, 11, 92
3, 3137, Control_c, 3, 11, 86
3, 3140, Control_c, 3, 11, 80
3, 3143, Control_c, 3, 11, 32
3, 3162, Control_c, 3, 11, 108
3, 3162, Pitch_bend_c, 3, 8192
3, 3162, Note_on_c, 3, 69, 127
3, 3163, Note_on_c, 3, 74, 0
3, 3165, Control_c, 3, 11, 103
3, 3169, Control_c, 3, 11, 98
3, 3172, Control_c, 3, 11, 92
3, 3175, Control_c, 3, 11, 86
3, 3178, Control_c, 3, 11, 80
3, 3181, Control_c, 3, 11, 32
3, 3220, Note_on_c, 3, 69, 0
3, 3220, Control_c, 3, 11, 108
3, 3220, Pitch_bend_c, 3, 8192
3, 3220, Note_on_c, 3, 74, 127
3, 3223, Control_c, 3, 11, 103
3, 3226, Control_c, 3, 11, 98
3, 3229, Control_c, 3, 11, 92
3, 3233, Control_c, 3, 11, 86
3, 3236, Control_c, 3, 11, 80
3, 3239, Control_c, 3, 11, 73
3, 3242, Control_c, 3, 11, 65
3, 3245, Control_c, 3, 11, 56
3, 3249, Control_c, 3, 11, 46
3, 3252, Control_c, 3, 11, 32
3, 3277, Control_c, 3, 11, 108
3, 3277, Pitch_bend_c, 3, 8192
3, 3277, Note_on_c, 3, 69, 127
3, 3278, Note_on_c, 3, 74, 0
3, 3281, Control_c, 3, 11, 103
3, 3284, Control_c, 3, 11, 98
3, 3287, Control_c, 3, 11, 92
3, 3290, Note_on_c, 3, 69, 0
3, 3290, Control_c, 3, 11, 108
3, 3290, Pitch_bend_c, 3, 8192
3, 3290, Note_on_c, 3, 74, 127
3, 3293, Control_c, 3, 11, 103
3, 3297, Control_c, 3, 11, 98
3, 3300, Control_c, 3, 11, 92
3, 3303, Note_on_c, 3, 74, 0
3, 3303, Control_c, 3, 11, 108
3, 3303, Pitch_bend_c, 3, 8192
3, 3303, Note_on_c, 3, 69, 127
3, 3306, Control_c, 3, 11, 103
3, 3309, Control_c, 3, 11, 98
3, 3313, Control_c, 3, 11, 92
3, 3316, Note_on_c, 3, 69, 0
3, 3316, Control_c, 3, 11, 108
3, 3316, Pitch_bend_c, 3, 8192
3, 3316, Note_on_c, 3, 74, 127
3, 3319, Control_c, 3, 11, 103
3, 3322, Control_c, 3, 11, 98
3, 3325, Control_c, 3, 11, 92
3, 3329, Note_on_c, 3, 74, 0
3, 3329, Control_c, 3, 11, 108
3, 3329, Pitch_bend_c, 3, 8192
3, 3329, Note_on_c, 3, 69, 127
3, 3332, Control_c, 3, 11, 103
3, 3335, Control_c, 3, 11, 98
3, 3338, Control_c, 3, 11, 92
3, 3341, Control_c, 3, 11, 108
3, 3341, Pitch_bend_c, 3, 8192
3, 3341, Note_on_c, 3, 74, 127
3, 3342, Note_on_c, 3, 69, 0
3, 3345, Control_c, 3, 11, 103
3, 3348, Control_c, 3, 11, 98
3, 3351, Control_c, 3, 11, 92
3, 3354, Note_on_c, 3, 74, 0
3, 3354, Control_c, 3, 11, 108
3, 3354, Pitch_bend_c, 3, 8192
3, 3354, Note_on_c, 3, 69, 127
3, 3357, Control_c, 3, 11, 103
3, 3361, Control_c, 3, 11, 98
3, 3364, Control_c, 3, 11, 92
3, 3367, Note_on_c, 3, 69, 0
3, 3367, Control_c, 3, 11, 108
3, 3367, Pitch_bend_c, 3, 8192
3, 3367, Note_on_c, 3, 74, 127
3, 3370, Control_c, 3, 11, 103
3, 3373, Control_c, 3, 11, 98
3, 3377, Control_c, 3, 11, 92
3, 3380, Note_on_c, 3, 74, 0
3, 3380, Control_c, 3, 11, 108
3, 3380, Pitch_bend_c, 3, 8192
3, 3380, Note_on_c, 3, 69, 127
3, 3383, Control_c, 3, 11, 103
3, 3386, Control_c, 3, 11, 98
3, 3389, Control_c, 3, 11, 92
3, 3393, Note_on_c, 3, 69, 0
3, 3393, Control_c, 3, 11, 108
3, 3393, Pitch_bend_c, 3, 8192
3, 3393, Note_on_c, 3, 74, 127
3, 3396, Control_c, 3, 11, 103
3, 3399, Control_c, 3, 11, 98
3, 3402, Control_c, 3, 11, 92
3, 3405, Control_c, 3, 11, 108
3, 3405, Pitch_bend_c, 3, 8192
3, 3405, Note_on_c, 3, 69, 127
3, 3406, Note_on_c, 3, 74, 0
3, 3409, Control_c, 3, 11, 103
3, 3412, Control_c, 3, 11, 98
3, 3415, Control_c, 3, 11, 92
3, 3418, Note_on_c, 3, 69, 0
3, 3418, Control_c, 3, 11, 108
3, 3418, Pitch_bend_c, 3, 8192
3, 3418, Note_on_c, 3, 74, 127
3, 3421, Control_c, 3, 11, 103
3, 3425, Control_c, 3, 11, 98
3, 3428, Control_c, 3, 11, 92
3, 3431, Control_c, 3, 11, 32
3, 3450, Note_on_c, 3, 74, 0
3, 3450, Control_c, 3, 11, 108
3, 3450, Pitch_bend_c, 3, 8192
3, 3450, Note_on_c, 3, 74, 127
3, 3453, Control_c, 3, 11, 103
3, 3457, Control_c, 3, 11, 98
3, 3460, Control_c, 3, 11, 92
3, 3463, Control_c, 3, 11, 86
3, 3466, Control_c, 3, 11, 80
3, 3469, Control_c, 3, 11, 73
3, 3473, Control_c, 3, 11, 65
3, 3476, Control_c, 3, 11, 56
3, 3479, Control_c, 3, 11, 46
3, 3482, Control_c, 3, 11, 32
3, 3508, Note_on_c, 3, 74, 0
3, 3508, Control_c, 3, 11, 108
3, 3508, Pitch_bend_c, 3, 8192
3, 3508, Note_on_c, 3, 76, 127
3, 3511, Control_c, 3, 11, 103
3, 3514, Control_c, 3, 11, 98
3, 3517, Control_c, 3, 11, 92
3, 3521, Control_c, 3, 11, 86
3, 3524, Control_c, 3, 11, 80
3, 3527, Control_c, 3, 11, 108
3, 3527, Pitch_bend_c, 3, 8192
3, 3527, Note_on_c, 3, 74, 127
3, 3528, Note_on_c, 3, 76, 0
3, 3530, Control_c, 3, 11, 103
3, 3533, Control_c, 3, 11, 98
3, 3537, Control_c, 3, 11, 92
3, 3540, Control_c, 3, 11, 86
3, 3543, Control_c, 3, 11, 80
3, 3546, Control_c, 3, 11, 32
3, 3565, Control_c, 3, 11, 108
3, 3565, Pitch_bend_c, 3, 8192
3, 3565, Note_on_c, 3, 76, 127
3, 3566, Note_on_c, 3, 74, 0
3, 3569, Control_c, 3, 11, 103
3, 3572, Control_c, 3, 11, 98
3, 3575, Control_c, 3, 11, 92
3, 3578, Control_c, 3, 11, 86
3, 3581, Control_c, 3, 11, 80
3, 3585, Note_on_c, 3, 76, 0
3, 3585, Control_c, 3, 11, 108
3, 3585, Pitch_bend_c, 3, 8192
3, 3585, Note_on_c, 3, 74, 127
3, 3588, Control_c, 3, 11, 103
3, 3591, Control_c, 3, 11, 98
3, 3594, Control_c, 3, 11, 92
3, 3597, Control_c, 3, 11, 86
3, 3601, Control_c, 3, 11, 80
3, 3604, Control_c, 3, 11, 32
3, 3623, Control_c, 3, 11, 108
3, 3623, Pitch_bend_c, 3, 8192
3, 3623, Note_on_c, 3, 76, 127
3, 3624, Note_on_c, 3, 74, 0
3, 3626, Control_c, 3, 11, 103
3, 3629, Control_c, 3, 11, 98
3, 3633, Control_c, 3, 11, 92
3, 3636, Control_c, 3, 11, 86
3, 3639, Control_c, 3, 11, 80
3, 3642, Control_c, 3, 11, 32
3, 3681, Note_on_c, 3, 76, 0
3, 3681, Control_c, 3, 11, 108
3, 3681, Pitch_bend_c, 3, 8192
3, 3681, Note_on_c, 3, 81, 127
3, 3684, Control_c, 3, 11, 103
3, 3687, Control_c, 3, 11, 98
3, 3690, Control_c, 3, 11, 92
3, 3693, Control_c, 3, 11, 86
3, 3697, Control_c, 3, 11, 80
3, 3700, Control_c, 3, 11, 73
3, 3703, Control_c, 3, 11, 65
3, 3706, Control_c, 3, 11, 56
3, 3709, Control_c, 3, 11, 46
3, 3713, Control_c, 3, 11, 32
3, 3738, Control_c, 3, 11, 108
3, 3738, Pitch_bend_c, 3, 8192
3, 3738, Note_on_c, 3, 79, 127
3, 3739, Note_on_c, 3, 81, 0
3, 3741, Control_c, 3, 11, 103
3, 3745, Control_c, 3, 11, 98
3, 3748, Control_c, 3, 11, 92
3, 3751, Control_c, 3, 11, 86
3, 3754, Control_c, 3, 11, 80
3, 3757, Control_c, 3, 11, 108
3, 3757, Pitch_bend_c, 3, 8192
3, 3757, Note_on_c, 3, 81, 127
3, 3758, Note_on_c, 3, 79, 0
3, 3761, Control_c, 3, 11, 103
3, 3764, Control_c, 3, 11, 98
3, 3767, Control_c, 3, 11, 92
3, 3770, Control_c, 3, 11, 86
3, 3773, Control_c, 3, 11, 80
3, 3777, Control_c, 3, 11, 32
3, 3796, Note_on_c, 3, 81, 0
3, 3796, Control_c, 3, 11, 108
3, 3796, Pitch_bend_c, 3, 8192
3, 3796, Note_on_c, 3, 79, 127
3, 3799, Control_c, 3, 11, 103
3, 3802, Control_c, 3, 11, 98
3, 3805, Control_c, 3, 11, 92
3, 3809, Control_c, 3, 11, 86
3, 3812, Control_c, 3, 11, 80
3, 3815, Control_c, 3, 11, 108
3, 3815, Pitch_bend_c, 3, 8192
3, 3815, Note_on_c, 3, 76, 127
3, 3816, Note_on_c, 3, 79, 0
3, 3818, Control_c, 3, 11, 103
3, 3821, Control_c, 3, 11, 98
3, 3825, Control_c, 3, 11, 92
3, 3828, Control_c, 3, 11, 86
3, 3831, Control_c, 3, 11, 80
3, 3834, Control_c, 3, 11, 32
3, 3853, Control_c, 3, 11, 108
3, 3853, Pitch_bend_c, 3, 8192
3, 3853, Note_on_c, 3, 74, 127
3, 3854, Note_on_c, 3, 76, 0
3, 3857, Control_c, 3, 11, 103
3, 3860, Control_c, 3, 11, 98
3, 3863, Control_c, 3, 11, 92
3, 3866, Control_c, 3, 11, 86
3, 3869, Control_c, 3, 11, 80
3, 3873, Note_on_c, 3, 74, 0
3, 3873, Control_c, 3, 11, 108
3, 3873, Pitch_bend_c, 3, 8192
3, 3873, Note_on_c, 3, 72, 127
3, 3876, Control_c, 3, 11, 103
3, 3879, Control_c, 3, 11, 98
3, 3882, Control_c, 3, 11, 92
3, 3885, Control_c, 3, 11, 86
3, 3889, Control_c, 3, 11, 80
3, 3892, Control_c, 3, 11, 32
3, 3911, Control_c, 3, 11, 108
3, 3911, Pitch_bend_c, 3, 8192
3, 3911, Note_on_c, 3, 76, 127
3, 3912, Note_on_c, 3, 72, 0
3, 3914, Control_c, 3, 11, 103
3, 3917, Control_c, 3, 11, 98
3, 3921, Control_c, 3, 11, 92
3, 3924, Control_c, 3, 11, 86
3, 3927, Control_c, 3, 11, 80
3, 3930, Control_c, 3, 11, 73
3, 3933, Control_c, 3, 11, 65
3, 3937, Control_c, 3, 11, 56
3, 3940, Control_c, 3, 11, 46
3, 3943, Control_c, 3, 11, 32
3, 3969, Note_on_c, 3, 76, 0
3, 3969, Control_c, 3, 11, 108
3, 3969, Pitch_bend_c, 3, 8192
3, 3969, Note_on_c, 3, 67, 127
3, 3972, Control_c, 3, 11, 103
3, 3975, Control_c, 3, 11, 98
3, 3978, Control_c, 3, 11, 92
3, 3981, Control_c, 3, 11, 108
3, 3981, Pitch_bend_c, 3, 8192
3, 3981, Note_on_c, 3, 76, 127
3, 3982, Note_on_c, 3, 67, 0
3, 3985, Control_c, 3, 11, 103
3, 3988, Control_c, 3, 11, 98
3, 3991, Control_c, 3, 11, 92
3, 3994, Note_on_c, 3, 76, 0
3, 3994, Control_c, 3, 11, 108
3, 3994, Pitch_bend_c, 3, 8192
3, 3994, Note_on_c, 3, 67, 127
3, 3997, Control_c, 3, 11, 103
3, 4001, Control_c, 3, 11, 98
3, 4004, Control_c, 3, 11, 92
3, 4007, Note_on_c, 3, 67, 0
3, 4007, Control_c, 3, 11, 108
3, 4007, Pitch_bend_c, 3, 8192
3, 4007, Note_on_c, 3, 76, 127
3, 4010, Control_c, 3, 11, 103
3, 4013, Control_c, 3, 11, 98
3, 4017, Control_c, 3, 11, 92
3, 4020, Note_on_c, 3, 76, 0
3, 4020, Control_c, 3, 11, 108
3, 4020, Pitch_bend_c, 3, 8192
3, 4020, Note_on_c, 3, 67, 127
3, 4023, Control_c, 3, 11, 103
3, 4026, Control_c, 3, 11, 98
3, 4029, Control_c, 3, 11, 92
3, 4033, Note_on_c, 3, 67, 0
3, 4033, Control_c, 3, 11, 108
3, 4033, Pitch_bend_c, 3, 8192
3, 4033, Note_on_c, 3, 76, 127
3, 4036, Control_c, 3, 11, 103
3, 4039, Control_c, 3, 11, 98
3, 4042, Control_c, 3, 11, 92
3, 4045, Control_c, 3, 11, 108
3, 4045, Pitch_bend_c, 3, 8192
3, 4045, Note_on_c, 3, 67, 127
3, 4046, Note_on_c, 3, 76, 0
3, 4049, Control_c, 3, 11, 103
3, 4052, Control_c, 3, 11, 98
3, 4055, Control_c, 3, 11, 92
3, 4058, Note_on_c, 3, 67, 0
3, 4058, Control_c, 3, 11, 108
3, 4058, Pitch_bend_c, 3, 8192
3, 4058, Note_on_c, 3, 76, 127
3, 4061, Control_c, 3, 11, 103
3, 4065, Control_c, 3, 11, 98
3, 4068, Control_c, 3, 11, 92
3, 4071, Note_on_c, 3, 76, 0
3, 4071, Control_c, 3, 11, 108
3, 4071, Pitch_bend_c, 3, 8192
3, 4071, Note_on_c, 3, 67, 127
3, 4074, Control_c, 3, 11, 103
3, 4077, Control_c, 3, 11, 98
3, 4081, Control_c, 3, 11, 92
3, 4084, Note_on_c, 3, 67, 0
3, 4084, Control_c, 3, 11, 108
3, 4084, Pitch_bend_c, 3, 8192
3, 4084, Note_on_c, 3, 76, 127
3, 4087, Control_c, 3, 11, 103
3, 4090, Control_c, 3, 11, 98
3, 4093, Control_c, 3, 11, 92
3, 4096, Control_c, 3, 11, 108
3, 4096, Pitch_bend_c, 3, 8192
3, 4096, Note_on_c, 3, 67, 127
3, 4097, Note_on_c, 3, 76, 0
3, 4100, Control_c, 3, 11, 103
3, 4103, Control_c, 3, 11, 98
3, 4106, Control_c, 3, 11, 92
3, 4109, Note_on_c, 3, 67, 0
3, 4109, Control_c, 3, 11, 108
3, 4109, Pitch_bend_c, 3, 8192
3, 4109, Note_on_c, 3, 76, 127
3, 4112, Control_c, 3, 11, 103
3, 4116, Control_c, 3, 11, 98
3, 4119, Control_c, 3, 11, 92
3, 4122, Control_c, 3, 11, 32
3, 4199, Note_on_c, 3, 76, 0
3, 4199, Control_c, 3, 11, 73
3, 4199, Pitch_bend_c, 3, 8192
3, 4199, Note_on_c, 3, 79, 127
3, 4205, Control_c, 3, 11, 80
3, 4208, Control_c, 3, 11, 92
3, 4212, Control_c, 3, 11, 98
3, 4215, Control_c, 3, 11, 103
3, 4218, Control_c, 3, 11, 32
3, 4237, Control_c, 3, 11, 73
3, 4237, Pitch_bend_c, 3, 8192
3, 4237, Note_on_c, 3, 75, 127
3, 4238, Note_on_c, 3, 79, 0
3, 4244, Control_c, 3, 11, 80
3, 4247, Control_c, 3, 11, 92
3, 4250, Control_c, 3, 11, 98
3, 4253, Control_c, 3, 11, 103
3, 4256, Control_c, 3, 11, 32
3, 4276, Note_on_c, 3, 75, 0
3, 4276, Control_c, 3, 11, 73
3, 4276, Pitch_bend_c, 3, 8192
3, 4276, Note_on_c, 3, 71, 127
3, 4282, Control_c, 3, 11, 80
3, 4285, Control_c, 3, 11, 92
3, 4288, Control_c, 3, 11, 98
3, 4292, Control_c, 3, 11, 103
3, 4295, Control_c, 3, 11, 32
3, 4314, Control_c, 3, 11, 73
3, 4314, Pitch_bend_c, 3, 8192
3, 4314, Note_on_c, 3, 69, 127
3, 4315, Note_on_c, 3, 71, 0
3, 4320, Control_c, 3, 11, 80
3, 4324, Control_c, 3, 11, 92
3, 4327, Control_c, 3, 11, 98
3, 4330, Control_c, 3, 11, 103
3, 4333, Control_c, 3, 11, 32
3, 4352, Control_c, 3, 11, 73
3, 4352, Pitch_bend_c, 3, 8192
3, 4352, Note_on_c, 3, 67, 127
3, 4353, Note_on_c, 3, 69, 0
3, 4359, Control_c, 3, 11, 80
3, 4362, Control_c, 3, 11, 92
3, 4365, Control_c, 3, 11, 98
3, 4368, Control_c, 3, 11, 103
3, 4372, Control_c, 3, 11, 32
3, 4429, Note_on_c, 3, 67, 0
3, 4429, Control_c, 3, 11, 108
3, 4429, Pitch_bend_c, 3, 8192
3, 4429, Note_on_c, 3, 76, 127
3, 4432, Control_c, 3, 11, 103
3, 4436, Control_c, 3, 11, 98
3, 4439, Control_c, 3, 11, 92
3, 4442, Control_c, 3, 11, 86
3, 4445, Control_c, 3, 11, 80
3, 4448, Control_c, 3, 11, 73
3, 4452, Control_c, 3, 11, 65
3, 4455, Control_c, 3, 11, 56
3, 4458, Control_c, 3, 11, 46
3, 4461, Control_c, 3, 11, 32
3, 4506, Note_on_c, 3, 76, 0
3, 4506, Control_c, 3, 11, 108
3, 4506, Pitch_bend_c, 3, 8192
3, 4506, Note_on_c, 3, 79, 127
3, 4509, Control_c, 3, 11, 103
3, 4512, Control_c, 3, 11, 98
3, 4516, Control_c, 3, 11, 92
3, 4519, Control_c, 3, 11, 86
3, 4522, Control_c, 3, 11, 80
3, 4525, Control_c, 3, 11, 32
3, 4564, Note_on_c, 3, 79, 0
3, 4564, Control_c, 3, 11, 108
3, 4564, Pitch_bend_c, 3, 8192
3, 4564, Note_on_c, 3, 81, 127
3, 4567, Control_c, 3, 11, 103
3, 4570, Control_c, 3, 11, 98
3, 4573, Control_c, 3, 11, 92
3, 4576, Control_c, 3, 11, 86
3, 4580, Control_c, 3, 11, 80
3, 4583, Control_c, 3, 11, 32
3, 4602, Control_c, 3, 11, 108
3, 4602, Pitch_bend_c, 3, 8192
3, 4602, Note_on_c, 3, 84, 127
3, 4603, Note_on_c, 3, 81, 0
3, 4605, Control_c, 3, 11, 103
3, 4608, Control_c, 3, 11, 98
3, 4612, Control_c, 3, 11, 92
3, 4615, Control_c, 3, 11, 86
3, 4618, Control_c, 3, 11, 80
3, 4621, Control_c, 3, 11, 73
3, 4624, Control_c, 3, 11, 65
3, 4628, Control_c, 3, 11, 56
3, 4631, Control_c, 3, 11, 46
3, 4634, Control_c, 3, 11, 32
3, 4737, Note_on_c, 3, 84, 0
3, 4737, Control_c, 3, 11, 108
3, 4737, Pitch_bend_c, 3, 8192
3, 4737, Note_on_c, 3, 81, 127
3, 4740, Control_c, 3, 11, 103
3, 4743, Control_c, 3, 11, 98
3, 4746, Control_c, 3, 11, 92
3, 4749, Control_c, 3, 11, 86
3, 4753, Control_c, 3, 11, 80
3, 4756, Control_c, 3, 11, 32
3, 4775, Control_c, 3, 11, 108
3, 4775, Pitch_bend_c, 3, 8192
3, 4775, Note_on_c, 3, 79, 127
3, 4776, Note_on_c, 3, 81, 0
3, 4778, Control_c, 3, 11, 103
3, 4781, Control_c, 3, 11, 98
3, 4785, Control_c, 3, 11, 92
3, 4788, Control_c, 3, 11, 86
3, 4791, Control_c, 3, 11, 80
3, 4794, Control_c, 3, 11, 108
3, 4794, Pitch_bend_c, 3, 8192
3, 4794, Note_on_c, 3, 76, 127
3, 4795, Note_on_c, 3, 79, 0
3, 4797, Control_c, 3, 11, 103
3, 4801, Control_c, 3, 11, 98
3, 4804, Control_c, 3, 11, 92
3, 4807, Control_c, 3, 11, 86
3, 4810, Control_c, 3, 11, 80
3, 4813, Control_c, 3, 11, 32
3, 4833, Note_on_c, 3, 76, 0
3, 4833, Control_c, 3, 11, 108
3, 4833, Pitch_bend_c, 3, 8192
3, 4833, Note_on_c, 3, 72, 127
3, 4836, Control_c, 3, 11, 103
3, 4839, Control_c, 3, 11, 98
3, 4842, Control_c, 3, 11, 92
3, 4845, Control_c, 3, 11, 86
3, 4849, Control_c, 3, 11, 80
3, 4852, Control_c, 3, 11, 108
3, 4852, Pitch_bend_c, 3, 8192
3, 4852, Note_on_c, 3, 74, 127
3, 4853, Note_on_c, 3, 72, 0
3, 4855, Control_c, 3, 11, 103
3, 4858, Control_c, 3, 11, 98
3, 4861, Control_c, 3, 11, 92
3, 4865, Control_c, 3, 11, 86
3, 4868, Control_c, 3, 11, 80
3, 4871, Control_c, 3, 11, 32
3, 4890, Control_c, 3, 11, 108
3, 4890, Pitch_bend_c, 3, 8192
3, 4890, Note_on_c, 3, 76, 127
3, 4891, Note_on_c, 3, 74, 0
3, 4893, Control_c, 3, 11, 103
3, 4897, Control_c, 3, 11, 98
3, 4900, Control_c, 3, 11, 92
3, 4903, Control_c, 3, 11, 86
3, 4906, Control_c, 3, 11, 80
3, 4909, Control_c, 3, 11, 108
3, 4909, Pitch_bend_c, 3, 8192
3, 4909, Note_on_c, 3, 74, 127
3, 4910, Note_on_c, 3, 76, 0
3, 4913, Control_c, 3, 11, 103
3, 4916, Control_c, 3, 11, 98
3, 4919, Control_c, 3, 11, 92
3, 4922, Control_c, 3, 11, 86
3, 4925, Control_c, 3, 11, 80
3, 4929, Control_c, 3, 11, 32
3, 4948, Note_on_c, 3, 74, 0
3, 4948, Control_c, 3, 11, 108
3, 4948, Pitch_bend_c, 3, 8192
3, 4948, Note_on_c, 3, 76, 127
3, 4951, Control_c, 3, 11, 103
3, 4954, Control_c, 3, 11, 98
3, 4957, Control_c, 3, 11, 92
3, 4961, Control_c, 3, 11, 86
3, 4964, Control_c, 3, 11, 80
3, 4967, Control_c, 3, 11, 108
3, 4967, Pitch_bend_c, 3, 8192
3, 4967, Note_on_c, 3, 74, 127
3, 4968, Note_on_c, 3, 76, 0
3, 4970, Control_c, 3, 11, 103
3, 4973, Control_c, 3, 11, 98
3, 4977, Control_c, 3, 11, 92
3, 4980, Control_c, 3, 11, 86
3, 4983, Control_c, 3, 11, 80
3, 4986, Control_c, 3, 11, 32
3, 5005, Control_c, 3, 11, 108
3, 5005, Pitch_bend_c, 3, 8192
3, 5005, Note_on_c, 3, 69, 127
3, 5006, Note_on_c, 3, 74, 0
3, 5009, Control_c, 3, 11, 103
3, 5012, Control_c, 3, 11, 98
3, 5015, Control_c, 3, 11, 92
3, 5018, Control_c, 3, 11, 86
3, 5021, Control_c, 3, 11, 80
3, 5025, Control_c, 3, 11, 32
3, 5063, Note_on_c, 3, 69, 0
3, 5063, Control_c, 3, 11, 108
3, 5063, Pitch_bend_c, 3, 8192
3, 5063, Note_on_c, 3, 74, 127
3, 5066, Control_c, 3, 11, 103
3, 5069, Control_c, 3, 11, 98
3, 5073, Control_c, 3, 11, 92
3, 5076, Control_c, 3, 11, 86
3, 5079, Control_c, 3, 11, 80
3, 5082, Control_c, 3, 11, 73
3, 5085, Control_c, 3, 11, 65
3, 5089, Control_c, 3, 11, 56
3, 5092, Control_c, 3, 11, 46
3, 5095, Control_c, 3, 11, 32
3, 5121, Note_on_c, 3, 74, 0
3, 5121, Control_c, 3, 11, 108
3, 5121, Pitch_bend_c, 3, 8192
3, 5121, Note_on_c, 3, 69, 127
3, 5124, Control_c, 3, 11, 103
3, 5127, Control_c, 3, 11, 98
3, 5130, Control_c, 3, 11, 92
3, 5133, Control_c, 3, 11, 108
3, 5133, Pitch_bend_c, 3, 8192
3, 5133, Note_on_c, 3, 74, 127
3, 5134, Note_on_c, 3, 69, 0
3, 5137, Control_c, 3, 11, 103
3, 5140, Control_c, 3, 11, 98
3, 5143, Control_c, 3, 11, 92
3, 5146, Note_on_c, 3, 74, 0
3, 5146, Control_c, 3, 11, 108
3, 5146, Pitch_bend_c, 3, 8192
3, 5146, Note_on_c, 3, 69, 127
3, 5149, Control_c, 3, 11, 103
3, 5153, Control_c, 3, 11, 98
3, 5156, Control_c, 3, 11, 92
3, 5159, Note_on_c, 3, 69, 0
3, 5159, Control_c, 3, 11, 108
3, 5159, Pitch_bend_c, 3, 8192
3, 5159, Note_on_c, 3, 74, 127
3, 5162, Control_c, 3, 11, 103
3, 5165, Control_c, 3, 11, 98
3, 5169, Control_c, 3, 11, 92
3, 5172, Note_on_c, 3, 74, 0
3, 5172, Control_c, 3, 11, 108
3, 5172, Pitch_bend_c, 3, 8192
3, 5172, Note_on_c, 3, 69, 127
3, 5175, Control_c, 3, 11, 103
3, 5178, Control_c, 3, 11, 98
3, 5181, Control_c, 3, 11, 92
3, 5185, Note_on_c, 3, 69, 0
3, 5185, Control_c, 3, 11, 108
3, 5185, Pitch_bend_c, 3, 8192
3, 5185, Note_on_c, 3, 74, 127
3, 5188, Control_c, 3, 11, 103
3, 5191, Control_c, 3, 11, 98
3, 5194, Control_c, 3, 11, 92
3, 5197, Control_c, 3, 11, 108
3, 5197, Pitch_bend_c, 3, 8192
3, 5197, Note_on_c, 3, 69, 127
3, 5198, Note_on_c, 3, 74, 0
3, 5201, Control_c, 3, 11, 103
3, 5204, Control_c, 3, 11, 98
3, 5207, Control_c, 3, 11, 92
3, 5210, Note_on_c, 3, 69, 0
3, 5210, Control_c, 3, 11, 108
3, 5210, Pitch_bend_c, 3, 8192
3, 5210, Note_on_c, 3, 74, 127
3, 5213, Control_c, 3, 11, 103
3, 5217, Control_c, 3, 11, 98
3, 5220, Control_c, 3, 11, 92
3, 5223, Note_on_c, 3, 74, 0
3, 5223, Control_c, 3, 11, 108
3, 5223, Pitch_bend_c, 3, 8192
3, 5223, Note_on_c, 3, 69, 127
3, 5226, Control_c, 3, 11, 103
3, 5229, Control_c, 3, 11, 98
3, 5233, Control_c, 3, 11, 92
3, 5236, Note_on_c, 3, 69, 0
3, 5236, Control_c, 3, 11, 108
3, 5236, Pitch_bend_c, 3, 8192
3, 5236, Note_on_c, 3, 74, 127
3, 5239, Control_c, 3, 11, 103
3, 5242, Control_c, 3, 11, 98
3, 5245, Control_c, 3, 11, 92
3, 5249, Note_on_c, 3, 74, 0
3, 5249, Control_c, 3, 11, 108
3, 5249, Pitch_bend_c, 3, 8192
3, 5249, Note_on_c, 3, 69, 127
3, 5252, Control_c, 3, 11, 103
3, 5255, Control_c, 3, 11, 98
3, 5258, Control_c, 3, 11, 92
3, 5261, Control_c, 3, 11, 108
3, 5261, Pitch_bend_c, 3, 8192
3, 5261, Note_on_c, 3, 74, 127
3, 5262, Note_on_c, 3, 69, 0
3, 5265, Control_c, 3, 11, 103
3, 5268, Control_c, 3, 11, 98
3, 5271, Control_c, 3, 11, 92
3, 5274, Control_c, 3, 11, 32
3, 5293, Note_on_c, 3, 74, 0
3, 5293, Control_c, 3, 11, 108
3, 5293, Pitch_bend_c, 3, 8192
3, 5293, Note_on_c, 3, 74, 127
3, 5297, Control_c, 3, 11, 103
3, 5300, Control_c, 3, 11, 98
3, 5303, Control_c, 3, 11, 92
3, 5306, Control_c, 3, 11, 86
3, 5309, Control_c, 3, 11, 80
3, 5313, Control_c, 3, 11, 73
3, 5316, Control_c, 3, 11, 65
3, 5319, Control_c, 3, 11, 56
3, 5322, Control_c, 3, 11, 46
3, 5325, Control_c, 3, 11, 32
3, 5351, Note_on_c, 3, 74, 0
3, 5351, Control_c, 3, 11, 108
3, 5351, Pitch_bend_c, 3, 8192
3, 5351, Note_on_c, 3, 76, 127
3, 5354, Control_c, 3, 11, 103
3, 5357, Control_c, 3, 11, 98
3, 5361, Control_c, 3, 11, 92
3, 5364, Control_c, 3, 11, 86
3, 5367, Control_c, 3, 11, 80
3, 5370, Control_c, 3, 11, 108
3, 5370, Pitch_bend_c, 3, 8192
3, 5370, Note_on_c, 3, 74, 127
3, 5371, Note_on_c, 3, 76, 0
3, 5373, Control_c, 3, 11, 103
3, 5377, Control_c, 3, 11, 98
3, 5380, Control_c, 3, 11, 92
3, 5383, Control_c, 3, 11, 86
3, 5386, Control_c, 3, 11, 80
3, 5389, Control_c, 3, 11, 32
3, 5409, Note_on_c, 3, 74, 0
3, 5409, Control_c, 3, 11, 108
3, 5409, Pitch_bend_c, 3, 8192
3, 5409, Note_on_c, 3, 76, 127
3, 5412, Control_c, 3, 11, 103
3, 5415, Control_c, 3, 11, 98
3, 5418, Control_c, 3, 11, 92
3, 5421, Control_c, 3, 11, 86
3, 5425, Control_c, 3, 11, 80
3, 5428, Control_c, 3, 11, 108
3, 5428, Pitch_bend_c, 3, 8192
3, 5428, Note_on_c, 3, 74, 127
3, 5429, Note_on_c, 3, 76, 0
3, 5431, Control_c, 3, 11, 103
3, 5434, Control_c, 3, 11, 98
3, 5437, Control_c, 3, 11, 92
3, 5441, Control_c, 3, 11, 86
3, 5444, Control_c, 3, 11, 80
3, 5447, Control_c, 3, 11, 32
3, 5466, Control_c, 3, 11, 108
3, 5466, Pitch_bend_c, 3, 8192
3, 5466, Note_on_c, 3, 76, 127
3, 5467, Note_on_c, 3, 74, 0
3, 5469, Control_c, 3, 11, 103
3, 5473, Control_c, 3, 11, 98
3, 5476, Control_c, 3, 11, 92
3, 5479, Control_c, 3, 11, 86
3, 5482, Control_c, 3, 11, 80
3, 5485, Control_c, 3, 11, 32
3, 5524, Note_on_c, 3, 76, 0
3, 5524, Control_c, 3, 11, 108
3, 5524, Pitch_bend_c, 3, 8192
3, 5524, Note_on_c, 3, 81, 127
3, 5527, Control_c, 3, 11, 103
3, 5530, Control_c, 3, 11, 98
3, 5533, Control_c, 3, 11, 92
3, 5537, Control_c, 3, 11, 86
3, 5540, Control_c, 3, 11, 80
3, 5543, Control_c, 3, 11, 73
3, 5546, Control_c, 3, 11, 65
3, 5549, Control_c, 3, 11, 56
3, 5553, Control_c, 3, 11, 46
3, 5556, Control_c, 3, 11, 32
3, 5581, Control_c, 3, 11, 108
3, 5581, Pitch_bend_c, 3, 8192
3, 5581, Note_on_c, 3, 79, 127
3, 5582, Note_on_c, 3, 81, 0
3, 5585, Control_c, 3, 11, 103
3, 5588, Control_c, 3, 11, 98
3, 5591, Control_c, 3, 11, 92
3, 5594, Control_c, 3, 11, 86
3, 5597, Control_c, 3, 11, 80
3, 5601, Note_on_c, 3, 79, 0
3, 5601, Control_c, 3, 11, 108
3, 5601, Pitch_bend_c, 3, 8192
3, 5601, Note_on_c, 3, 81, 127
3, 5604, Control_c, 3, 11, 103
3, 5607, Control_c, 3, 11, 98
3, 5610, Control_c, 3, 11, 92
3, 5613, Control_c, 3, 11, 86
3, 5617, Control_c, 3, 11, 80
3, 5620, Control_c, 3, 11, 32
3, 5639, Control_c, 3, 11, 108
3, 5639, Pitch_bend_c, 3, 8192
3, 5639, Note_on_c, 3, 79, 127
3, 5640, Note_on_c, 3, 81, 0
3, 5642, Control_c, 3, 11, 103
3, 5645, Control_c, 3, 11, 98
3, 5649, Control_c, 3, 11, 92
3, 5652, Control_c, 3, 11, 86
3, 5655, Control_c, 3, 11, 80
3, 5658, Control_c, 3, 11, 108
3, 5658, Pitch_bend_c, 3, 8192
3, 5658, Note_on_c, 3, 81, 127
3, 5659, Note_on_c, 3, 79, 0
3, 5661, Control_c, 3, 11, 103
3, 5665, Control_c, 3, 11, 98
3, 5668, Control_c, 3, 11, 92
3, 5671, Control_c, 3, 11, 86
3, 5674, Control_c, 3, 11, 80
3, 5677, Control_c, 3, 11, 32
3, 5697, Note_on_c, 3, 81, 0
3, 5697, Control_c, 3, 11, 108
3, 5697, Pitch_bend_c, 3, 8192
3, 5697, Note_on_c, 3, 79, 127
3, 5700, Control_c, 3, 11, 103
3, 5703, Control_c, 3, 11, 98
3, 5706, Control_c, 3, 11, 92
3, 5709, Control_c, 3, 11, 86
3, 5713, Control_c, 3, 11, 80
3, 5716, Control_c, 3, 11, 108
3, 5716, Pitch_bend_c, 3, 8192
3, 5716, Note_on_c, 3, 76, 127
3, 5717, Note_on_c, 3, 79, 0
3, 5719, Control_c, 3, 11, 103
3, 5722, Control_c, 3, 11, 98
3, 5725, Control_c, 3, 11, 92
3, 5729, Control_c, 3, 11, 86
3, 5732, Control_c, 3, 11, 80
3, 5735, Control_c, 3, 11, 32
3, 5754, Control_c, 3, 11, 108
3, 5754, Pitch_bend_c, 3, 8192
3, 5754, Note_on_c, 3, 72, 127
3, 5755, Note_on_c, 3, 76, 0
3, 5757, Control_c, 3, 11, 103
3, 5761, Control_c, 3, 11, 98
3, 5764, Control_c, 3, 11, 92
3, 5767, Control_c, 3, 11, 86
3, 5770, Control_c, 3, 11, 80
3, 5773, Control_c, 3, 11, 73
3, 5777, Control_c, 3, 11, 65
3, 5780, Control_c, 3, 11, 56
3, 5783, Control_c, 3, 11, 46
3, 5786, Control_c, 3, 11, 32
3, 5869, Control_c, 3, 11, 92
3, 5869, Pitch_bend_c, 3, 8192
3, 5869, Note_on_c, 3, 66, 127
3, 5870, Note_on_c, 3, 72, 0
3, 5876, Control_c, 3, 11, 86
3, 5889, Note_on_c, 3, 66, 0
3, 5889, Control_c, 3, 11, 92
3, 5889, Pitch_bend_c, 3, 8192
3, 5889, Note_on_c, 3, 67, 127
3, 5895, Control_c, 3, 11, 86
3, 5908, Control_c, 3, 11, 0
3, 5927, Control_c, 3, 11, 92
3, 5927, Pitch_bend_c, 3, 8192
3, 5927, Note_on_c, 3, 68, 127
3, 5928, Note_on_c, 3, 67, 0
3, 5933, Control_c, 3, 11, 86
3, 5946, Control_c, 3, 11, 92
3, 5946, Pitch_bend_c, 3, 8192
3, 5946, Note_on_c, 3, 69, 127
3, 5947, Note_on_c, 3, 68, 0
3, 5953, Control_c, 3, 11, 86
3, 5965, Control_c, 3, 11, 0
3, 5985, Note_on_c, 3, 69, 0
3, 5985, Control_c, 3, 11, 92
3, 5985, Pitch_bend_c, 3, 8192
3, 5985, Note_on_c, 3, 72, 127
3, 5991, Control_c, 3, 11, 86
3, 6004, Control_c, 3, 11, 0
3, 6100, Control_c, 3, 11, 92
3, 6100, Pitch_bend_c, 3, 8192
3, 6100, Note_on_c, 3, 72, 127
3, 6101, Note_on_c, 3, 72, 0
3, 6106, Control_c, 3, 11, 86
3, 6119, Control_c, 3, 11, 0
3, 6177, Control_c, 3, 11, 32
3, 6215, Control_c, 3, 11, 108
3, 6215, Pitch_bend_c, 3, 8332
3, 6215, Note_on_c, 3, 76, 127
3, 6216, Note_on_c, 3, 72, 0
3, 6218, Control_c, 3, 11, 103
3, 6221, Control_c, 3, 11, 98
3, 6225, Control_c, 3, 11, 92
3, 6228, Control_c, 3, 11, 86
3, 6231, Control_c, 3, 11, 80
3, 6234, Control_c, 3, 11, 32
3, 6273, Note_on_c, 3, 76, 0
3, 6273, Control_c, 3, 11, 108
3, 6273, Pitch_bend_c, 3, 8340
3, 6273, Note_on_c, 3, 77, 127
3, 6276, Control_c, 3, 11, 103
3, 6279, Control_c, 3, 11, 98
3, 6282, Control_c, 3, 11, 92
3, 6285, Control_c, 3, 11, 86
3, 6289, Control_c, 3, 11, 80
3, 6292, Control_c, 3, 11, 108
3, 6292, Pitch_bend_c, 3, 8324
3, 6292, Note_on_c, 3, 75, 127
3, 6293, Note_on_c, 3, 77, 0
3, 6295, Control_c, 3, 11, 103
3, 6298, Control_c, 3, 11, 98
3, 6301, Control_c, 3, 11, 92
3, 6305, Control_c, 3, 11, 86
3, 6308, Control_c, 3, 11, 80
3, 6311, Control_c, 3, 11, 32
3, 6330, Control_c, 3, 11, 108
3, 6330, Pitch_bend_c, 3, 8332
3, 6330, Note_on_c, 3, 76, 127
3, 6331, Note_on_c, 3, 75, 0
3, 6333, Control_c, 3, 11, 103
3, 6337, Control_c, 3, 11, 98
3, 6340, Control_c, 3, 11, 92
3, 6343, Control_c, 3, 11, 86
3, 6346, Control_c, 3, 11, 80
3, 6349, Control_c, 3, 11, 108
3, 6349, Pitch_bend_c, 3, 8340
3, 6349, Note_on_c, 3, 77, 127
3, 6350, Note_on_c, 3, 76, 0
3, 6353, Control_c, 3, 11, 103
3, 6356, Control_c, 3, 11, 98
3, 6359, Control_c, 3, 11, 92
3, 6362, Control_c, 3, 11, 86
3, 6365, Control_c, 3, 11, 80
3, 6369, Control_c, 3, 11, 32
3, 6388, Note_on_c, 3, 77, 0
3, 6388, Control_c, 3, 11, 108
3, 6388, Pitch_bend_c, 3, 8324
3, 6388, Note_on_c, 3, 75, 127
3, 6391, Control_c, 3, 11, 103
3, 6394, Control_c, 3, 11, 98
3, 6397, Control_c, 3, 11, 92
3, 6401, Control_c, 3, 11, 86
3, 6404, Control_c, 3, 11, 80
3, 6407, Control_c, 3, 11, 108
3, 6407, Pitch_bend_c, 3, 8332
3, 6407, Note_on_c, 3, 76, 127
3, 6408, Note_on_c, 3, 75, 0
3, 6410, Control_c, 3, 11, 103
3, 6413, Control_c, 3, 11, 98
3, 6417, Control_c, 3, 11, 92
3, 6420, Control_c, 3, 11, 86
3, 6423, Control_c, 3, 11, 80
3, 6426, Control_c, 3, 11, 32
3, 6445, Control_c, 3, 11, 108
3, 6445, Pitch_bend_c, 3, 8403
3, 6445, Note_on_c, 3, 83, 127
3, 6446, Note_on_c, 3, 76, 0
3, 6449, Control_c, 3, 11, 103
3, 6452, Control_c, 3, 11, 98
3, 6455, Control_c, 3, 11, 92
3, 6458, Control_c, 3, 11, 86
3, 6461, Control_c, 3, 11, 80
3, 6465, Control_c, 3, 11, 73
3, 6468, Control_c, 3, 11, 65
3, 6471, Control_c, 3, 11, 56
3, 6474, Control_c, 3, 11, 46
3, 6477, Control_c, 3, 11, 32
3, 6522, Note_on_c, 3, 83, 0
3, 6522, Control_c, 3, 11, 108
3, 6522, Pitch_bend_c, 3, 8369
3, 6522, Note_on_c, 3, 80, 127
3, 6525, Control_c, 3, 11, 103
3, 6529, Control_c, 3, 11, 98
3, 6532, Control_c, 3, 11, 92
3, 6535, Control_c, 3, 11, 86
3, 6538, Control_c, 3, 11, 80
3, 6541, Control_c, 3, 11, 73
3, 6545, Control_c, 3, 11, 65
3, 6548, Control_c, 3, 11, 56
3, 6551, Control_c, 3, 11, 46
3, 6554, Control_c, 3, 11, 32
3, 6580, Note_on_c, 3, 80, 0
3, 6580, Control_c, 3, 11, 108
3, 6580, Pitch_bend_c, 3, 8340
3, 6580, Note_on_c, 3, 77, 127
3, 6583, Control_c, 3, 11, 103
3, 6586, Control_c, 3, 11, 98
3, 6589, Control_c, 3, 11, 92
3, 6593, Control_c, 3, 11, 86
3, 6596, Control_c, 3, 11, 80
3, 6599, Control_c, 3, 11, 73
3, 6602, Control_c, 3, 11, 65
3, 6605, Control_c, 3, 11, 56
3, 6609, Control_c, 3, 11, 46
3, 6612, Control_c, 3, 11, 32
3, 6637, Control_c, 3, 11, 108
3, 6637, Pitch_bend_c, 3, 8332
3, 6637, Note_on_c, 3, 76, 127
3, 6638, Note_on_c, 3, 77, 0
3, 6641, Control_c, 3, 11, 103
3, 6644, Control_c, 3, 11, 98
3, 6647, Control_c, 3, 11, 92
3, 6650, Control_c, 3, 11, 86
3, 6653, Control_c, 3, 11, 80
3, 6657, Control_c, 3, 11, 73
3, 6660, Control_c, 3, 11, 65
3, 6663, Control_c, 3, 11, 56
3, 6666, Control_c, 3, 11, 46
3, 6669, Control_c, 3, 11, 32
3, 6695, Note_on_c, 3, 76, 0
3, 6695, Control_c, 3, 11, 108
3, 6695, Pitch_bend_c, 3, 8317
3, 6695, Note_on_c, 3, 74, 127
3, 6698, Control_c, 3, 11, 103
3, 6701, Control_c, 3, 11, 98
3, 6705, Control_c, 3, 11, 92
3, 6708, Control_c, 3, 11, 86
3, 6711, Control_c, 3, 11, 80
3, 6714, Control_c, 3, 11, 108
3, 6714, Pitch_bend_c, 3, 8332
3, 6714, Note_on_c, 3, 76, 127
3, 6715, Note_on_c, 3, 74, 0
3, 6717, Control_c, 3, 11, 103
3, 6721, Control_c, 3, 11, 98
3, 6724, Control_c, 3, 11, 92
3, 6727, Note_on_c, 3, 76, 0
3, 6727, Control_c, 3, 11, 108
3, 6727, Pitch_bend_c, 3, 8317
3, 6727, Note_on_c, 3, 74, 127
3, 6730, Control_c, 3, 11, 103
3, 6733, Control_c, 3, 11, 98
3, 6737, Control_c, 3, 11, 92
3, 6740, Note_on_c, 3, 74, 0
3, 6740, Control_c, 3, 11, 108
3, 6740, Pitch_bend_c, 3, 8303
3, 6740, Note_on_c, 3, 72, 127
3, 6743, Control_c, 3, 11, 103
3, 6746, Control_c, 3, 11, 98
3, 6749, Control_c, 3, 11, 92
3, 6753, Note_on_c, 3, 72, 0
3, 6753, Control_c, 3, 11, 108
3, 6753, Pitch_bend_c, 3, 8297
3, 6753, Note_on_c, 3, 71, 127
3, 6756, Control_c, 3, 11, 103
3, 6759, Control_c, 3, 11, 98
3, 6762, Control_c, 3, 11, 92
3, 6765, Control_c, 3, 11, 86
3, 6769, Control_c, 3, 11, 80
3, 6772, Control_c, 3, 11, 32
3, 6791, Control_c, 3, 11, 108
3, 6791, Pitch_bend_c, 3, 8303
3, 6791, Note_on_c, 3, 72, 127
3, 6792, Note_on_c, 3, 71, 0
3, 6794, Control_c, 3, 11, 103
3, 6797, Control_c, 3, 11, 98
3, 6801, Control_c, 3, 11, 92
3, 6804, Control_c, 3, 11, 86
3, 6807, Control_c, 3, 11, 80
3, 6810, Control_c, 3, 11, 108
3, 6810, Pitch_bend_c, 3, 8317
3, 6810, Note_on_c, 3, 74, 127
3, 6811, Note_on_c, 3, 72, 0
3, 6813, Control_c, 3, 11, 103
3, 6817, Control_c, 3, 11, 98
3, 6820, Control_c, 3, 11, 92
3, 6823, Control_c, 3, 11, 86
3, 6826, Control_c, 3, 11, 80
3, 6829, Control_c, 3, 11, 32
3, 6849, Note_on_c, 3, 74, 0
3, 6849, Control_c, 3, 11, 108
3, 6849, Pitch_bend_c, 3, 8303
3, 6849, Note_on_c, 3, 72, 127
3, 6852, Control_c, 3, 11, 103
3, 6855, Control_c, 3, 11, 98
3, 6858, Control_c, 3, 11, 92
3, 6861, Control_c, 3, 11, 86
3, 6865, Control_c, 3, 11, 80
3, 6868, Control_c, 3, 11, 108
3, 6868, Pitch_bend_c, 3, 8297
3, 6868, Note_on_c, 3, 71, 127
3, 6869, Note_on_c, 3, 72, 0
3, 6871, Control_c, 3, 11, 103
3, 6874, Control_c, 3, 11, 98
3, 6877, Control_c, 3, 11, 92
3, 6881, Control_c, 3, 11, 86
3, 6884, Control_c, 3, 11, 80
3, 6887, Control_c, 3, 11, 32
3, 6906, Control_c, 3, 11, 108
3, 6906, Pitch_bend_c, 3, 8303
3, 6906, Note_on_c, 3, 72, 127
3, 6907, Note_on_c, 3, 71, 0
3, 6909, Control_c, 3, 11, 103
3, 6913, Control_c, 3, 11, 98
3, 6916, Control_c, 3, 11, 92
3, 6919, Control_c, 3, 11, 86
3, 6922, Control_c, 3, 11, 80
3, 6925, Control_c, 3, 11, 73
3, 6929, Control_c, 3, 11, 65
3, 6932, Control_c, 3, 11, 56
3, 6935, Control_c, 3, 11, 46
3, 6938, Control_c, 3, 11, 32
3, 7021, Control_c, 3, 11, 108
3, 7021, Pitch_bend_c, 3, 8303
3, 7021, Note_on_c, 3, 72, 127
3, 7022, Note_on_c, 3, 72, 0
3, 7025, Control_c, 3, 11, 103
3, 7028, Control_c, 3, 11, 98
3, 7031, Control_c, 3, 11, 92
3, 7034, Control_c, 3, 11, 86
3, 7037, Control_c, 3, 11, 80
3, 7041, Note_on_c, 3, 72, 0
3, 7041, Control_c, 3, 11, 108
3, 7041, Pitch_bend_c, 3, 8297
3, 7041, Note_on_c, 3, 71, 127
3, 7044, Control_c, 3, 11, 103
3, 7047, Control_c, 3, 11, 98
3, 7050, Control_c, 3, 11, 92
3, 7053, Control_c, 3, 11, 86
3, 7057, Control_c, 3, 11, 80
3, 7060, Control_c, 3, 11, 73
3, 7063, Control_c, 3, 11, 65
3, 7066, Control_c, 3, 11, 56
3, 7069, Control_c, 3, 11, 46
3, 7073, Control_c, 3, 11, 32
3, 7098, Control_c, 3, 11, 108
3, 7098, Pitch_bend_c, 3, 8303
3, 7098, Note_on_c, 3, 72, 127
3, 7099, Note_on_c, 3, 71, 0
3, 7101, Control_c, 3, 11, 103
3, 7105, Control_c, 3, 11, 98
3, 7108, Control_c, 3, 11, 92
3, 7111, Control_c, 3, 11, 86
3, 7114, Control_c, 3, 11, 80
3, 7117, Control_c, 3, 11, 73
3, 7121, Control_c, 3, 11, 65
3, 7124, Control_c, 3, 11, 56
3, 7127, Control_c, 3, 11, 46
3, 7130, Control_c, 3, 11, 32
3, 7194, Control_c, 3, 11, 108
3, 7194, Pitch_bend_c, 3, 8317
3, 7194, Note_on_c, 3, 74, 127
3, 7195, Note_on_c, 3, 72, 0
3, 7197, Control_c, 3, 11, 103
3, 7201, Control_c, 3, 11, 98
3, 7204, Control_c, 3, 11, 92
3, 7207, Control_c, 3, 11, 86
3, 7210, Control_c, 3, 11, 80
3, 7213, Control_c, 3, 11, 73
3, 7217, Control_c, 3, 11, 65
3, 7220, Control_c, 3, 11, 56
3, 7223, Control_c, 3, 11, 46
3, 7226, Control_c, 3, 11, 32
3, 7271, Note_on_c, 3, 74, 0
3, 7271, Control_c, 3, 11, 108
3, 7271, Pitch_bend_c, 3, 8310
3, 7271, Note_on_c, 3, 73, 127
3, 7274, Control_c, 3, 11, 103
3, 7277, Control_c, 3, 11, 98
3, 7281, Control_c, 3, 11, 92
3, 7284, Control_c, 3, 11, 86
3, 7287, Control_c, 3, 11, 80
3, 7290, Control_c, 3, 11, 73
3, 7293, Control_c, 3, 11, 65
3, 7297, Control_c, 3, 11, 56
3, 7300, Control_c, 3, 11, 46
3, 7303, Control_c, 3, 11, 32
3, 7329, Note_on_c, 3, 73, 0
3, 7329, Control_c, 3, 11, 108
3, 7329, Pitch_bend_c, 3, 8317
3, 7329, Note_on_c, 3, 74, 127
3, 7332, Control_c, 3, 11, 103
3, 7335, Control_c, 3, 11, 98
3, 7338, Control_c, 3, 11, 92
3, 7341, Control_c, 3, 11, 86
3, 7345, Control_c, 3, 11, 80
3, 7348, Control_c, 3, 11, 32
3, 7367, Control_c, 3, 11, 108
3, 7367, Pitch_bend_c, 3, 8379
3, 7367, Note_on_c, 3, 81, 127
3, 7368, Note_on_c, 3, 74, 0
3, 7370, Control_c, 3, 11, 103
3, 7373, Control_c, 3, 11, 98
3, 7377, Control_c, 3, 11, 92
3, 7380, Control_c, 3, 11, 86
3, 7383, Control_c, 3, 11, 80
3, 7386, Control_c, 3, 11, 73
3, 7389, Control_c, 3, 11, 65
3, 7393, Control_c, 3, 11, 56
3, 7396, Control_c, 3, 11, 46
3, 7399, Control_c, 3, 11, 32
3, 7444, Note_on_c, 3, 81, 0
3, 7444, Control_c, 3, 11, 108
3, 7444, Pitch_bend_c, 3, 8349
3, 7444, Note_on_c, 3, 78, 127
3, 7447, Control_c, 3, 11, 103
3, 7450, Control_c, 3, 11, 98
3, 7453, Control_c, 3, 11, 92
3, 7457, Control_c, 3, 11, 86
3, 7460, Control_c, 3, 11, 80
3, 7463, Control_c, 3, 11, 73
3, 7466, Control_c, 3, 11, 65
3, 7469, Control_c, 3, 11, 56
3, 7473, Control_c, 3, 11, 46
3, 7476, Control_c, 3, 11, 32
3, 7501, Control_c, 3, 11, 108
3, 7501, Pitch_bend_c, 3, 8359
3, 7501, Note_on_c, 3, 79, 127
3, 7502, Note_on_c, 3, 78, 0
3, 7505, Control_c, 3, 11, 103
3, 7508, Control_c, 3, 11, 98
3, 7511, Control_c, 3, 11, 92
3, 7514, Control_c, 3, 11, 86
3, 7517, Control_c, 3, 11, 80
3, 7521, Control_c, 3, 11, 73
3, 7524, Control_c, 3, 11, 65
3, 7527, Control_c, 3, 11, 56
3, 7530, Control_c, 3, 11, 46
3, 7533, Control_c, 3, 11, 32
3, 7559, Note_on_c, 3, 79, 0
3, 7559, Control_c, 3, 11, 108
3, 7559, Pitch_bend_c, 3, 8379
3, 7559, Note_on_c, 3, 81, 127
3, 7562, Control_c, 3, 11, 103
3, 7565, Control_c, 3, 11, 98
3, 7569, Control_c, 3, 11, 92
3, 7572, Control_c, 3, 11, 86
3, 7575, Control_c, 3, 11, 80
3, 7578, Control_c, 3, 11, 73
3, 7581, Control_c, 3, 11, 65
3, 7585, Control_c, 3, 11, 56
3, 7588, Control_c, 3, 11, 46
3, 7591, Control_c, 3, 11, 32
3, 7617, Note_on_c, 3, 81, 0
3, 7617, Control_c, 3, 11, 108
3, 7617, Pitch_bend_c, 3, 8403
3, 7617, Note_on_c, 3, 83, 127
3, 7620, Control_c, 3, 11, 103
3, 7623, Control_c, 3, 11, 98
3, 7626, Control_c, 3, 11, 92
3, 7629, Control_c, 3, 11, 86
3, 7633, Control_c, 3, 11, 80
3, 7636, Control_c, 3, 11, 73
3, 7639, Control_c, 3, 11, 65
3, 7642, Control_c, 3, 11, 56
3, 7645, Control_c, 3, 11, 46
3, 7649, Control_c, 3, 11, 32
3, 7732, Control_c, 3, 11, 108
3, 7732, Pitch_bend_c, 3, 8379
3, 7732, Note_on_c, 3, 81, 127
3, 7733, Note_on_c, 3, 83, 0
3, 7735, Control_c, 3, 11, 103
3, 7738, Control_c, 3, 11, 98
3, 7741, Control_c, 3, 11, 92
3, 7745, Control_c, 3, 11, 86
3, 7748, Control_c, 3, 11, 80
3, 7751, Control_c, 3, 11, 73
3, 7754, Control_c, 3, 11, 65
3, 7757, Control_c, 3, 11, 56
3, 7761, Control_c, 3, 11, 46
3, 7764, Control_c, 3, 11, 32
3, 7847, Control_c, 3, 11, 108
3, 7847, Pitch_bend_c, 3, 8369
3, 7847, Note_on_c, 3, 80, 127
3, 7848, Note_on_c, 3, 81, 0
3, 7850, Control_c, 3, 11, 103
3, 7853, Control_c, 3, 11, 98
3, 7857, Control_c, 3, 11, 92
3, 7860, Control_c, 3, 11, 86
3, 7863, Control_c, 3, 11, 80
3, 7866, Control_c, 3, 11, 73
3, 7869, Control_c, 3, 11, 65
3, 7873, Control_c, 3, 11, 56
3, 7876, Control_c, 3, 11, 46
3, 7879, Control_c, 3, 11, 32
3, 7962, Control_c, 3, 11, 108
3, 7962, Pitch_bend_c, 3, 8359
3, 7962, Note_on_c, 3, 79, 127
3, 7963, Note_on_c, 3, 80, 0
3, 7965, Control_c, 3, 11, 103
3, 7969, Control_c, 3, 11, 98
3, 7972, Control_c, 3, 11, 92
3, 7975, Control_c, 3, 11, 86
3, 7978, Control_c, 3, 11, 80
3, 7981, Control_c, 3, 11, 32
3, 8001, Note_on_c, 3, 79, 0
3, 8001, Control_c, 3, 11, 108
3, 8001, Pitch_bend_c, 3, 8317
3, 8001, Note_on_c, 3, 74, 127
3, 8004, Control_c, 3, 11, 103
3, 8007, Control_c, 3, 11, 98
3, 8010, Control_c, 3, 11, 92
3, 8013, Control_c, 3, 11, 86
3, 8017, Control_c, 3, 11, 80
3, 8020, Control_c, 3, 11, 108
3, 8020, Pitch_bend_c, 3, 8297
3, 8020, Note_on_c, 3, 71, 127
3, 8021, Note_on_c, 3, 74, 0
3, 8023, Control_c, 3, 11, 103
3, 8026, Control_c, 3, 11, 98
3, 8029, Control_c, 3, 11, 92
3, 8033, Control_c, 3, 11, 86
3, 8036, Control_c, 3, 11, 80
3, 8039, Control_c, 3, 11, 32
3, 8058, Control_c, 3, 11, 108
3, 8058, Pitch_bend_c, 3, 8275
3, 8058, Note_on_c, 3, 67, 127
3, 8059, Note_on_c, 3, 71, 0
3, 8061, Control_c, 3, 11, 103
3, 8065, Control_c, 3, 11, 98
3, 8068, Control_c, 3, 11, 92
3, 8071, Control_c, 3, 11, 86
3, 8074, Control_c, 3, 11, 80
3, 8077, Control_c, 3, 11, 92
3, 8077, Pitch_bend_c, 3, 8359
3, 8077, Note_on_c, 3, 79, 127
3, 8078, Note_on_c, 3, 67, 0
3, 8084, Control_c, 3, 11, 86
3, 8097, Control_c, 3, 11, 0
3, 8116, Note_on_c, 3, 79, 0
3, 8116, Control_c, 3, 11, 92
3, 8116, Pitch_bend_c, 3, 8192
3, 8116, Note_on_c, 3, 72, 127
3, 8122, Control_c, 3, 11, 86
3, 8135, Control_c, 3, 11, 92
3, 8135, Pitch_bend_c, 3, 8192
3, 8135, Note_on_c, 3, 76, 127
3, 8136, Note_on_c, 3, 72, 0
3, 8141, Control_c, 3, 11, 86
3, 8154, Control_c, 3, 11, 0
3, 8173, Control_c, 3, 11, 92
3, 8173, Pitch_bend_c, 3, 8192
3, 8173, Note_on_c, 3, 79, 127
3, 8174, Note_on_c, 3, 76, 0
3, 8180, Control_c, 3, 11, 86
3, 8192, Control_c, 3, 11, 80
3, 8231, Note_on_c, 3, 79, 0
3, 8231, Control_c, 3, 11, 92
3, 8231, Pitch_bend_c, 3, 8192
3, 8231, Note_on_c, 3, 72, 127
3, 8237, Control_c, 3, 11, 86
3, 8250, Control_c, 3, 11, 92
3, 8250, Pitch_bend_c, 3, 8192
3, 8250, Note_on_c, 3, 76, 127
3, 8251, Note_on_c, 3, 72, 0
3, 8256, Control_c, 3, 11, 86
3, 8269, Control_c, 3, 11, 0
3, 8288, Control_c, 3, 11, 92
3, 8288, Pitch_bend_c, 3, 8192
3, 8288, Note_on_c, 3, 79, 127
3, 8289, Note_on_c, 3, 76, 0
3, 8295, Control_c, 3, 11, 86
3, 8308, Note_on_c, 3, 79, 0
3, 8308, Control_c, 3, 11, 92
3, 8308, Pitch_bend_c, 3, 8192
3, 8308, Note_on_c, 3, 71, 127
3, 8314, Control_c, 3, 11, 86
3, 8327, Control_c, 3, 11, 92
3, 8327, Pitch_bend_c, 3, 8192
3, 8327, Note_on_c, 3, 75, 127
3, 8328, Note_on_c, 3, 71, 0
3, 8333, Control_c, 3, 11, 86
3, 8346, Control_c, 3, 11, 92
3, 8346, Pitch_bend_c, 3, 8192
3, 8346, Note_on_c, 3, 79, 127
3, 8347, Note_on_c, 3, 75, 0
3, 8352, Control_c, 3, 11, 86
3, 8365, Control_c, 3, 11, 92
3, 8365, Pitch_bend_c, 3, 8192
3, 8365, Note_on_c, 3, 83, 127
3, 8366, Note_on_c, 3, 79, 0
3, 8372, Control_c, 3, 11, 86
3, 8384, Control_c, 3, 11, 0
3, 8404, Note_on_c, 3, 83, 0
3, 8404, Control_c, 3, 11, 92
3, 8404, Pitch_bend_c, 3, 8192
3, 8404, Note_on_c, 3, 81, 127
3, 8410, Control_c, 3, 11, 86
3, 8423, Control_c, 3, 11, 80
3, 8519, Control_c, 3, 11, 0
3, 8538, Control_c, 3, 11, 92
3, 8538, Pitch_bend_c, 3, 8192
3, 8538, Note_on_c, 3, 79, 127
3, 8539, Note_on_c, 3, 81, 0
3, 8544, Control_c, 3, 11, 86
3, 8557, Control_c, 3, 11, 0
3, 8576, Control_c, 3, 11, 92
3, 8576, Pitch_bend_c, 3, 8192
3, 8576, Note_on_c, 3, 70, 127
3, 8577, Note_on_c, 3, 79, 0
3, 8583, Control_c, 3, 11, 86
3, 8596, Note_on_c, 3, 70, 0
3, 8596, Control_c, 3, 11, 92
3, 8596, Pitch_bend_c, 3, 8192
3, 8596, Note_on_c, 3, 74, 127
3, 8602, Control_c, 3, 11, 86
3, 8615, Control_c, 3, 11, 0
3, 8634, Control_c, 3, 11, 92
3, 8634, Pitch_bend_c, 3, 8192
3, 8634, Note_on_c, 3, 79, 127
3, 8635, Note_on_c, 3, 74, 0
3, 8640, Control_c, 3, 11, 86
3, 8653, Control_c, 3, 11, 80
3, 8692, Note_on_c, 3, 79, 0
3, 8692, Control_c, 3, 11, 92
3, 8692, Pitch_bend_c, 3, 8192
3, 8692, Note_on_c, 3, 70, 127
3, 8698, Control_c, 3, 11, 86
3, 8711, Control_c, 3, 11, 92
3, 8711, Pitch_bend_c, 3, 8192
3, 8711, Note_on_c, 3, 74, 127
3, 8712, Note_on_c, 3, 70, 0
3, 8717, Control_c, 3, 11, 86
3, 8730, Control_c, 3, 11, 0
3, 8749, Control_c, 3, 11, 92
3, 8749, Pitch_bend_c, 3, 8192
3, 8749, Note_on_c, 3, 79, 127
3, 8750, Note_on_c, 3, 74, 0
3, 8756, Control_c, 3, 11, 86
3, 8768, Control_c, 3, 11, 92
3, 8768, Pitch_bend_c, 3, 8192
3, 8768, Note_on_c, 3, 73, 127
3, 8769, Note_on_c, 3, 79, 0
3, 8775, Control_c, 3, 11, 86
3, 8788, Note_on_c, 3, 73, 0
3, 8788, Control_c, 3, 11, 92
3, 8788, Pitch_bend_c, 3, 8192
3, 8788, Note_on_c, 3, 76, 127
3, 8794, Control_c, 3, 11, 86
3, 8807, Control_c, 3, 11, 92
3, 8807, Pitch_bend_c, 3, 8192
3, 8807, Note_on_c, 3, 79, 127
3, 8808, Note_on_c, 3, 76, 0
3, 8813, Control_c, 3, 11, 86
3, 8826, Control_c, 3, 11, 92
3, 8826, Pitch_bend_c, 3, 8192
3, 8826, Note_on_c, 3, 83, 127
3, 8827, Note_on_c, 3, 79, 0
3, 8832, Control_c, 3, 11, 86
3, 8845, Control_c, 3, 11, 0
3, 8864, Control_c, 3, 11, 92
3, 8864, Pitch_bend_c, 3, 8192
3, 8864, Note_on_c, 3, 81, 127
3, 8865, Note_on_c, 3, 83, 0
3, 8871, Control_c, 3, 11, 86
3, 8884, Control_c, 3, 11, 80
3, 8980, Note_on_c, 3, 81, 0
3, 8980, Control_c, 3, 11, 92
3, 8980, Pitch_bend_c, 3, 8192
3, 8980, Note_on_c, 3, 83, 127
3, 8986, Control_c, 3, 11, 86
3, 8999, Control_c, 3, 11, 92
3, 8999, Pitch_bend_c, 3, 8192
3, 8999, Note_on_c, 3, 84, 127
3, 9000, Note_on_c, 3, 83, 0
3, 9005, Control_c, 3, 11, 86
3, 9018, Control_c, 3, 11, 0
3, 9037, Control_c, 3, 11, 92
3, 9037, Pitch_bend_c, 3, 8192
3, 9037, Note_on_c, 3, 83, 127
3, 9038, Note_on_c, 3, 84, 0
3, 9044, Control_c, 3, 11, 86
3, 9056, Control_c, 3, 11, 92
3, 9056, Pitch_bend_c, 3, 8192
3, 9056, Note_on_c, 3, 84, 127
3, 9057, Note_on_c, 3, 83, 0
3, 9063, Control_c, 3, 11, 86
3, 9076, Control_c, 3, 11, 0
3, 9095, Note_on_c, 3, 84, 0
3, 9095, Control_c, 3, 11, 92
3, 9095, Pitch_bend_c, 3, 8192
3, 9095, Note_on_c, 3, 81, 127
3, 9101, Control_c, 3, 11, 86
3, 9114, Control_c, 3, 11, 80
3, 9152, Control_c, 3, 11, 92
3, 9152, Pitch_bend_c, 3, 8192
3, 9152, Note_on_c, 3, 84, 127
3, 9153, Note_on_c, 3, 81, 0
3, 9159, Control_c, 3, 11, 86
3, 9172, Note_on_c, 3, 84, 0
3, 9172, Control_c, 3, 11, 92
3, 9172, Pitch_bend_c, 3, 8192
3, 9172, Note_on_c, 3, 83, 127
3, 9178, Control_c, 3, 11, 86
3, 9191, Control_c, 3, 11, 0
3, 9210, Control_c, 3, 11, 92
3, 9210, Pitch_bend_c, 3, 8192
3, 9210, Note_on_c, 3, 81, 127
3, 9211, Note_on_c, 3, 83, 0
3, 9216, Control_c, 3, 11, 86
3, 9229, Control_c, 3, 11, 92
3, 9229, Pitch_bend_c, 3, 8192
3, 9229, Note_on_c, 3, 79, 127
3, 9230, Note_on_c, 3, 81, 0
3, 9236, Control_c, 3, 11, 86
3, 9248, Control_c, 3, 11, 0
3, 9268, Note_on_c, 3, 79, 0
3, 9268, Control_c, 3, 11, 92
3, 9268, Pitch_bend_c, 3, 8192
3, 9268, Note_on_c, 3, 78, 127
3, 9274, Control_c, 3, 11, 86
3, 9287, Control_c, 3, 11, 92
3, 9287, Pitch_bend_c, 3, 8192
3, 9287, Note_on_c, 3, 79, 127
3, 9288, Note_on_c, 3, 78, 0
3, 9293, Control_c, 3, 11, 86
3, 9306, Control_c, 3, 11, 0
3, 9325, Control_c, 3, 11, 92
3, 9325, Pitch_bend_c, 3, 8192
3, 9325, Note_on_c, 3, 76, 127
3, 9326, Note_on_c, 3, 79, 0
3, 9332, Control_c, 3, 11, 86
3, 9344, Control_c, 3, 11, 80
3, 9383, Note_on_c, 3, 76, 0
3, 9383, Control_c, 3, 11, 92
3, 9383, Pitch_bend_c, 3, 8192
3, 9383, Note_on_c, 3, 73, 127
3, 9389, Control_c, 3, 11, 86
3, 9402, Control_c, 3, 11, 92
3, 9402, Pitch_bend_c, 3, 8192
3, 9402, Note_on_c, 3, 74, 127
3, 9403, Note_on_c, 3, 73, 0
3, 9409, Control_c, 3, 11, 86
3, 9421, Control_c, 3, 11, 0
3, 9441, Note_on_c, 3, 74, 0
3, 9441, Control_c, 3, 11, 92
3, 9441, Pitch_bend_c, 3, 8192
3, 9441, Note_on_c, 3, 76, 127
3, 9447, Control_c, 3, 11, 86
3, 9460, Control_c, 3, 11, 92
3, 9460, Pitch_bend_c, 3, 8192
3, 9460, Note_on_c, 3, 77, 127
3, 9461, Note_on_c, 3, 76, 0
3, 9466, Control_c, 3, 11, 86
3, 9479, Control_c, 3, 11, 0
3, 9498, Control_c, 3, 11, 92
3, 9498, Pitch_bend_c, 3, 8192
3, 9498, Note_on_c, 3, 76, 127
3, 9499, Note_on_c, 3, 77, 0
3, 9505, Control_c, 3, 11, 86
3, 9517, Control_c, 3, 11, 92
3, 9517, Pitch_bend_c, 3, 8192
3, 9517, Note_on_c, 3, 77, 127
3, 9518, Note_on_c, 3, 76, 0
3, 9524, Control_c, 3, 11, 86
3, 9537, Control_c, 3, 11, 0
3, 9556, Note_on_c, 3, 77, 0
3, 9556, Control_c, 3, 11, 92
3, 9556, Pitch_bend_c, 3, 8192
3, 9556, Note_on_c, 3, 71, 127
3, 9562, Control_c, 3, 11, 86
3, 9575, Control_c, 3, 11, 80
3, 9613, Control_c, 3, 11, 92
3, 9613, Pitch_bend_c, 3, 8192
3, 9613, Note_on_c, 3, 76, 127
3, 9614, Note_on_c, 3, 71, 0
3, 9620, Control_c, 3, 11, 86
3, 9633, Note_on_c, 3, 76, 0
3, 9633, Control_c, 3, 11, 92
3, 9633, Pitch_bend_c, 3, 8192
3, 9633, Note_on_c, 3, 74, 127
3, 9639, Control_c, 3, 11, 86
3, 9652, Control_c, 3, 11, 0
3, 9671, Control_c, 3, 11, 92
3, 9671, Pitch_bend_c, 3, 8192
3, 9671, Note_on_c, 3, 72, 127
3, 9672, Note_on_c, 3, 74, 0
3, 9677, Control_c, 3, 11, 86
3, 9690, Control_c, 3, 11, 80
3, 9786, Control_c, 3, 11, 0
3, 9921, Control_c, 3, 11, 32
3, 9959, Note_on_c, 3, 72, 0
3, 9959, Control_c, 3, 11, 108
3, 9959, Pitch_bend_c, 3, 8192
3, 9959, Note_on_c, 3, 76, 127
3, 9962, Control_c, 3, 11, 103
3, 9965, Control_c, 3, 11, 98
3, 9969, Control_c, 3, 11, 92
3, 9972, Control_c, 3, 11, 86
3, 9975, Control_c, 3, 11, 80
3, 9978, Control_c, 3, 11, 73
3, 9981, Control_c, 3, 11, 65
3, 9985, Control_c, 3, 11, 56
3, 9988, Control_c, 3, 11, 46
3, 9991, Control_c, 3, 11, 32
3, 10036, Note_on_c, 3, 76, 0
3, 10036, Control_c, 3, 11, 108
3, 10036, Pitch_bend_c, 3, 8192
3, 10036, Note_on_c, 3, 79, 127
3, 10039, Control_c, 3, 11, 103
3, 10042, Control_c, 3, 11, 98
3, 10045, Control_c, 3, 11, 92
3, 10049, Control_c, 3, 11, 86
3, 10052, Control_c, 3, 11, 80
3, 10055, Control_c, 3, 11, 32
3, 10093, Control_c, 3, 11, 108
3, 10093, Pitch_bend_c, 3, 8192
3, 10093, Note_on_c, 3, 81, 127
3, 10094, Note_on_c, 3, 79, 0
3, 10097, Control_c, 3, 11, 103
3, 10100, Control_c, 3, 11, 98
3, 10103, Control_c, 3, 11, 92
3, 10106, Control_c, 3, 11, 86
3, 10109, Control_c, 3, 11, 80
3, 10113, Control_c, 3, 11, 32
3, 10132, Note_on_c, 3, 81, 0
3, 10132, Control_c, 3, 11, 108
3, 10132, Pitch_bend_c, 3, 8192
3, 10132, Note_on_c, 3, 84, 127
3, 10135, Control_c, 3, 11, 103
3, 10138, Control_c, 3, 11, 98
3, 10141, Control_c, 3, 11, 92
3, 10145, Control_c, 3, 11, 86
3, 10148, Control_c, 3, 11, 80
3, 10151, Control_c, 3, 11, 73
3, 10154, Control_c, 3, 11, 65
3, 10157, Control_c, 3, 11, 56
3, 10161, Control_c, 3, 11, 46
3, 10164, Control_c, 3, 11, 32
3, 10225, Note_on_c, 3, 84, 0
3, 10225, End_track
4, 0, Start_track
4, 0, MIDI_port, 0
4, 0, Unknown_meta_event, 9, 1, 48
4, 0, Title_t, "Imported MIDI"
4, 7, Program_c, 1, 80
4, 7, Program_c, 1, 80
4, 7, Program_c, 1, 80
4, 7, Control_c, 1, 121, 0
4, 7, Control_c, 1, 123, 0
4, 7, Control_c, 1, 123, 0
4, 7, Control_c, 1, 91, 0
4, 7, Control_c, 1, 7, 100
4, 7, Control_c, 1, 93, 0
4, 7, Control_c, 1, 10, 64
4, 7, Pitch_bend_c, 1, 8192
4, 74, Control_c, 1, 0, 0
4, 74, Control_c, 1, 123, 0
4, 75, Control_c, 1, 32, 0
4, 76, Program_c, 1, 80
4, 77, Control_c, 1, 65, 0
4, 81, Control_c, 1, 91, 0
4, 81, Control_c, 1, 7, 127
4, 84, Control_c, 1, 93, 0
4, 282, Pitch_bend_c, 1, 8192
4, 282, Note_on_c, 1, 62, 90
4, 301, Pitch_bend_c, 1, 8192
4, 301, Note_on_c, 1, 61, 90
4, 302, Note_on_c, 1, 62, 0
4, 321, Note_on_c, 1, 61, 0
4, 340, Pitch_bend_c, 1, 8192
4, 340, Note_on_c, 1, 60, 90
4, 359, Pitch_bend_c, 1, 8192
4, 359, Note_on_c, 1, 59, 90
4, 360, Note_on_c, 1, 60, 0
4, 379, Note_on_c, 1, 59, 0
4, 397, Pitch_bend_c, 1, 8192
4, 397, Note_on_c, 1, 55, 90
4, 417, Note_on_c, 1, 55, 0
4, 417, Pitch_bend_c, 1, 8192
4, 417, Note_on_c, 1, 53, 90
4, 437, Note_on_c, 1, 53, 0
4, 455, Pitch_bend_c, 1, 8192
4, 455, Note_on_c, 1, 52, 90
4, 474, Pitch_bend_c, 1, 8160
4, 474, Note_on_c, 1, 50, 90
4, 475, Note_on_c, 1, 52, 0
4, 503, Note_on_c, 1, 50, 0
4, 532, Pitch_bend_c, 1, 8192
4, 532, Note_on_c, 1, 62, 90
4, 561, Note_on_c, 1, 62, 0
4, 589, Pitch_bend_c, 1, 8160
4, 589, Note_on_c, 1, 50, 90
4, 618, Note_on_c, 1, 50, 0
4, 647, Pitch_bend_c, 1, 8192
4, 647, Note_on_c, 1, 55, 90
4, 676, Note_on_c, 1, 55, 0
4, 705, Pitch_bend_c, 1, 8164
4, 705, Note_on_c, 1, 48, 90
4, 734, Note_on_c, 1, 48, 0
4, 762, Pitch_bend_c, 1, 8192
4, 762, Note_on_c, 1, 55, 90
4, 791, Note_on_c, 1, 55, 0
4, 820, Pitch_bend_c, 1, 8164
4, 820, Note_on_c, 1, 48, 90
4, 849, Note_on_c, 1, 48, 0
4, 877, Pitch_bend_c, 1, 8192
4, 877, Note_on_c, 1, 55, 90
4, 906, Note_on_c, 1, 55, 0
4, 935, Pitch_bend_c, 1, 8165
4, 935, Note_on_c, 1, 47, 90
4, 964, Note_on_c, 1, 47, 0
4, 993, Pitch_bend_c, 1, 8192
4, 993, Note_on_c, 1, 55, 90
4, 1022, Note_on_c, 1, 55, 0
4, 1050, Pitch_bend_c, 1, 8165
4, 1050, Note_on_c, 1, 47, 90
4, 1079, Note_on_c, 1, 47, 0
4, 1108, Pitch_bend_c, 1, 8192
4, 1108, Note_on_c, 1, 55, 90
4, 1137, Note_on_c, 1, 55, 0
4, 1165, Pitch_bend_c, 1, 8167
4, 1165, Note_on_c, 1, 46, 90
4, 1194, Note_on_c, 1, 46, 0
4, 1223, Pitch_bend_c, 1, 8192
4, 1223, Note_on_c, 1, 55, 90
4, 1252, Note_on_c, 1, 55, 0
4, 1281, Pitch_bend_c, 1, 8167
4, 1281, Note_on_c, 1, 46, 90
4, 1310, Note_on_c, 1, 46, 0
4, 1338, Pitch_bend_c, 1, 8192
4, 1338, Note_on_c, 1, 55, 90
4, 1367, Note_on_c, 1, 55, 0
4, 1396, Pitch_bend_c, 1, 8168
4, 1396, Note_on_c, 1, 45, 90
4, 1425, Note_on_c, 1, 45, 0
4, 1453, Pitch_bend_c, 1, 8192
4, 1453, Note_on_c, 1, 55, 90
4, 1482, Note_on_c, 1, 55, 0
4, 1511, Pitch_bend_c, 1, 8168
4, 1511, Note_on_c, 1, 45, 90
4, 1540, Note_on_c, 1, 45, 0
4, 1569, Pitch_bend_c, 1, 8192
4, 1569, Note_on_c, 1, 55, 90
4, 1598, Note_on_c, 1, 55, 0
4, 1626, Pitch_bend_c, 1, 8173
4, 1626, Note_on_c, 1, 41, 90
4, 1655, Note_on_c, 1, 41, 0
4, 1684, Pitch_bend_c, 1, 8192
4, 1684, Note_on_c, 1, 53, 90
4, 1713, Note_on_c, 1, 53, 0
4, 1741, Pitch_bend_c, 1, 8172
4, 1741, Note_on_c, 1, 42, 90
4, 1770, Note_on_c, 1, 42, 0
4, 1799, Pitch_bend_c, 1, 8192
4, 1799, Note_on_c, 1, 54, 90
4, 1828, Note_on_c, 1, 54, 0
4, 1857, Pitch_bend_c, 1, 8171
4, 1857, Note_on_c, 1, 43, 90
4, 1886, Note_on_c, 1, 43, 0
4, 1914, Pitch_bend_c, 1, 8192
4, 1914, Note_on_c, 1, 55, 90
4, 1943, Note_on_c, 1, 55, 0
4, 1972, Pitch_bend_c, 1, 8168
4, 1972, Note_on_c, 1, 45, 90
4, 2001, Note_on_c, 1, 45, 0
4, 2029, Pitch_bend_c, 1, 8192
4, 2029, Note_on_c, 1, 57, 90
4, 2058, Note_on_c, 1, 57, 0
4, 2087, Pitch_bend_c, 1, 8160
4, 2087, Note_on_c, 1, 50, 90
4, 2116, Note_on_c, 1, 50, 0
4, 2144, Pitch_bend_c, 1, 8192
4, 2144, Note_on_c, 1, 53, 90
4, 2173, Note_on_c, 1, 53, 0
4, 2202, Pitch_bend_c, 1, 8171
4, 2202, Note_on_c, 1, 43, 90
4, 2231, Note_on_c, 1, 43, 0
4, 2260, Pitch_bend_c, 1, 8160
4, 2260, Note_on_c, 1, 50, 90
4, 2289, Note_on_c, 1, 50, 0
4, 2317, Pitch_bend_c, 1, 8164
4, 2317, Note_on_c, 1, 48, 90
4, 2346, Note_on_c, 1, 48, 0
4, 2375, Pitch_bend_c, 1, 8171
4, 2375, Note_on_c, 1, 43, 90
4, 2404, Note_on_c, 1, 43, 0
4, 2433, Pitch_bend_c, 1, 8164
4, 2433, Note_on_c, 1, 48, 90
4, 2462, Note_on_c, 1, 48, 0
4, 2548, Pitch_bend_c, 1, 8164
4, 2548, Note_on_c, 1, 48, 90
4, 2577, Note_on_c, 1, 48, 0
4, 2605, Pitch_bend_c, 1, 8160
4, 2605, Note_on_c, 1, 50, 90
4, 2634, Note_on_c, 1, 50, 0
4, 2663, Pitch_bend_c, 1, 8192
4, 2663, Note_on_c, 1, 52, 90
4, 2692, Note_on_c, 1, 52, 0
4, 2721, Pitch_bend_c, 1, 8192
4, 2721, Note_on_c, 1, 55, 90
4, 2750, Note_on_c, 1, 55, 0
4, 2778, Pitch_bend_c, 1, 8192
4, 2778, Note_on_c, 1, 57, 90
4, 2807, Note_on_c, 1, 57, 0
4, 2836, Pitch_bend_c, 1, 8192
4, 2836, Note_on_c, 1, 55, 90
4, 2865, Note_on_c, 1, 55, 0
4, 2893, Pitch_bend_c, 1, 8192
4, 2893, Note_on_c, 1, 52, 90
4, 2922, Note_on_c, 1, 52, 0
4, 2951, Pitch_bend_c, 1, 8164
4, 2951, Note_on_c, 1, 48, 90
4, 2980, Note_on_c, 1, 48, 0
4, 3009, Pitch_bend_c, 1, 8160
4, 3009, Note_on_c, 1, 50, 90
4, 3038, Note_on_c, 1, 50, 0
4, 3066, Pitch_bend_c, 1, 8192
4, 3066, Note_on_c, 1, 52, 90
4, 3095, Note_on_c, 1, 52, 0
4, 3124, Pitch_bend_c, 1, 8192
4, 3124, Note_on_c, 1, 54, 90
4, 3153, Note_on_c, 1, 54, 0
4, 3181, Pitch_bend_c, 1, 8168
4, 3181, Note_on_c, 1, 45, 90
4, 3210, Note_on_c, 1, 45, 0
4, 3239, Pitch_bend_c, 1, 8160
4, 3239, Note_on_c, 1, 50, 90
4, 3259, Note_on_c, 1, 50, 0
4, 3277, Pitch_bend_c, 1, 8192
4, 3277, Note_on_c, 1, 52, 90
4, 3297, Note_on_c, 1, 52, 0
4, 3297, Pitch_bend_c, 1, 8164
4, 3297, Note_on_c, 1, 48, 90
4, 3326, Note_on_c, 1, 48, 0
4, 3354, Pitch_bend_c, 1, 8165
4, 3354, Note_on_c, 1, 47, 90
4, 3383, Note_on_c, 1, 47, 0
4, 3412, Pitch_bend_c, 1, 8168
4, 3412, Note_on_c, 1, 45, 90
4, 3441, Note_on_c, 1, 45, 0
4, 3469, Pitch_bend_c, 1, 8171
4, 3469, Note_on_c, 1, 43, 90
4, 3498, Note_on_c, 1, 43, 0
4, 3527, Pitch_bend_c, 1, 8192
4, 3527, Note_on_c, 1, 55, 90
4, 3556, Note_on_c, 1, 55, 0
4, 3585, Pitch_bend_c, 1, 8192
4, 3585, Note_on_c, 1, 53, 90
4, 3614, Note_on_c, 1, 53, 0
4, 3642, Pitch_bend_c, 1, 8160
4, 3642, Note_on_c, 1, 50, 90
4, 3671, Note_on_c, 1, 50, 0
4, 3700, Pitch_bend_c, 1, 8165
4, 3700, Note_on_c, 1, 47, 90
4, 3729, Note_on_c, 1, 47, 0
4, 3757, Pitch_bend_c, 1, 8171
4, 3757, Note_on_c, 1, 43, 90
4, 3786, Note_on_c, 1, 43, 0
4, 3815, Pitch_bend_c, 1, 8168
4, 3815, Note_on_c, 1, 45, 90
4, 3844, Note_on_c, 1, 45, 0
4, 3873, Pitch_bend_c, 1, 8165
4, 3873, Note_on_c, 1, 47, 90
4, 3902, Note_on_c, 1, 47, 0
4, 3930, Pitch_bend_c, 1, 8164
4, 3930, Note_on_c, 1, 48, 90
4, 3959, Note_on_c, 1, 48, 0
4, 3988, Pitch_bend_c, 1, 8162
4, 3988, Note_on_c, 1, 49, 90
4, 4017, Note_on_c, 1, 49, 0
4, 4045, Pitch_bend_c, 1, 8160
4, 4045, Note_on_c, 1, 50, 90
4, 4074, Note_on_c, 1, 50, 0
4, 4103, Pitch_bend_c, 1, 8159
4, 4103, Note_on_c, 1, 51, 90
4, 4132, Note_on_c, 1, 51, 0
4, 4160, Pitch_bend_c, 1, 8192
4, 4160, Note_on_c, 1, 52, 90
4, 4180, Note_on_c, 1, 52, 0
4, 4199, Pitch_bend_c, 1, 8165
4, 4199, Note_on_c, 1, 47, 90
4, 4218, Pitch_bend_c, 1, 8168
4, 4218, Note_on_c, 1, 45, 90
4, 4219, Note_on_c, 1, 47, 0
4, 4247, Note_on_c, 1, 45, 0
4, 4276, Pitch_bend_c, 1, 8171
4, 4276, Note_on_c, 1, 43, 90
4, 4305, Note_on_c, 1, 43, 0
4, 4333, Pitch_bend_c, 1, 8165
4, 4333, Note_on_c, 1, 47, 90
4, 4362, Note_on_c, 1, 47, 0
4, 4391, Pitch_bend_c, 1, 8164
4, 4391, Note_on_c, 1, 48, 90
4, 4420, Note_on_c, 1, 48, 0
4, 4448, Pitch_bend_c, 1, 8160
4, 4448, Note_on_c, 1, 50, 90
4, 4477, Note_on_c, 1, 50, 0
4, 4506, Pitch_bend_c, 1, 8192
4, 4506, Note_on_c, 1, 52, 90
4, 4535, Note_on_c, 1, 52, 0
4, 4564, Pitch_bend_c, 1, 8192
4, 4564, Note_on_c, 1, 55, 90
4, 4593, Note_on_c, 1, 55, 0
4, 4621, Pitch_bend_c, 1, 8192
4, 4621, Note_on_c, 1, 57, 90
4, 4650, Note_on_c, 1, 57, 0
4, 4679, Pitch_bend_c, 1, 8192
4, 4679, Note_on_c, 1, 55, 90
4, 4708, Note_on_c, 1, 55, 0
4, 4737, Pitch_bend_c, 1, 8192
4, 4737, Note_on_c, 1, 52, 90
4, 4766, Note_on_c, 1, 52, 0
4, 4794, Pitch_bend_c, 1, 8164
4, 4794, Note_on_c, 1, 48, 90
4, 4823, Note_on_c, 1, 48, 0
4, 4852, Pitch_bend_c, 1, 8160
4, 4852, Note_on_c, 1, 50, 90
4, 4881, Note_on_c, 1, 50, 0
4, 4909, Pitch_bend_c, 1, 8192
4, 4909, Note_on_c, 1, 52, 90
4, 4938, Note_on_c, 1, 52, 0
4, 4967, Pitch_bend_c, 1, 8192
4, 4967, Note_on_c, 1, 54, 90
4, 4996, Note_on_c, 1, 54, 0
4, 5025, Pitch_bend_c, 1, 8168
4, 5025, Note_on_c, 1, 45, 90
4, 5054, Note_on_c, 1, 45, 0
4, 5082, Pitch_bend_c, 1, 8160
4, 5082, Note_on_c, 1, 50, 90
4, 5102, Note_on_c, 1, 50, 0
4, 5121, Pitch_bend_c, 1, 8192
4, 5121, Note_on_c, 1, 52, 90
4, 5140, Pitch_bend_c, 1, 8164
4, 5140, Note_on_c, 1, 48, 90
4, 5141, Note_on_c, 1, 52, 0
4, 5169, Note_on_c, 1, 48, 0
4, 5197, Pitch_bend_c, 1, 8165
4, 5197, Note_on_c, 1, 47, 90
4, 5226, Note_on_c, 1, 47, 0
4, 5255, Pitch_bend_c, 1, 8168
4, 5255, Note_on_c, 1, 45, 90
4, 5284, Note_on_c, 1, 45, 0
4, 5313, Pitch_bend_c, 1, 8171
4, 5313, Note_on_c, 1, 43, 90
4, 5342, Note_on_c, 1, 43, 0
4, 5370, Pitch_bend_c, 1, 8192
4, 5370, Note_on_c, 1, 55, 90
4, 5399, Note_on_c, 1, 55, 0
4, 5428, Pitch_bend_c, 1, 8192
4, 5428, Note_on_c, 1, 53, 90
4, 5457, Note_on_c, 1, 53, 0
4, 5485, Pitch_bend_c, 1, 8160
4, 5485, Note_on_c, 1, 50, 90
4, 5514, Note_on_c, 1, 50, 0
4, 5543, Pitch_bend_c, 1, 8165
4, 5543, Note_on_c, 1, 47, 90
4, 5572, Note_on_c, 1, 47, 0
4, 5601, Pitch_bend_c, 1, 8171
4, 5601, Note_on_c, 1, 43, 90
4, 5630, Note_on_c, 1, 43, 0
4, 5658, Pitch_bend_c, 1, 8168
4, 5658, Note_on_c, 1, 45, 90
4, 5687, Note_on_c, 1, 45, 0
4, 5716, Pitch_bend_c, 1, 8165
4, 5716, Note_on_c, 1, 47, 90
4, 5745, Note_on_c, 1, 47, 0
4, 5773, Pitch_bend_c, 1, 8164
4, 5773, Note_on_c, 1, 48, 90
4, 5802, Note_on_c, 1, 48, 0
4, 5831, Pitch_bend_c, 1, 8171
4, 5831, Note_on_c, 1, 43, 90
4, 5860, Note_on_c, 1, 43, 0
4, 5889, Pitch_bend_c, 1, 8168
4, 5889, Note_on_c, 1, 45, 90
4, 5918, Note_on_c, 1, 45, 0
4, 5946, Pitch_bend_c, 1, 8165
4, 5946, Note_on_c, 1, 47, 90
4, 5975, Note_on_c, 1, 47, 0
4, 6004, Pitch_bend_c, 1, 8164
4, 6004, Note_on_c, 1, 48, 90
4, 6033, Note_on_c, 1, 48, 0
4, 6100, Pitch_bend_c, 1, 8164
4, 6100, Note_on_c, 1, 48, 90
4, 6120, Note_on_c, 1, 48, 0
4, 6234, Pitch_bend_c, 1, 8192
4, 6234, Note_on_c, 1, 52, 90
4, 6263, Note_on_c, 1, 52, 0
4, 6292, Pitch_bend_c, 1, 8192
4, 6292, Note_on_c, 1, 59, 90
4, 6321, Note_on_c, 1, 59, 0
4, 6349, Pitch_bend_c, 1, 8192
4, 6349, Note_on_c, 1, 56, 90
4, 6378, Note_on_c, 1, 56, 0
4, 6407, Pitch_bend_c, 1, 8192
4, 6407, Note_on_c, 1, 53, 90
4, 6436, Note_on_c, 1, 53, 0
4, 6465, Pitch_bend_c, 1, 8192
4, 6465, Note_on_c, 1, 52, 90
4, 6494, Note_on_c, 1, 52, 0
4, 6522, Pitch_bend_c, 1, 8160
4, 6522, Note_on_c, 1, 50, 90
4, 6551, Note_on_c, 1, 50, 0
4, 6580, Pitch_bend_c, 1, 8165
4, 6580, Note_on_c, 1, 47, 90
4, 6609, Note_on_c, 1, 47, 0
4, 6637, Pitch_bend_c, 1, 8170
4, 6637, Note_on_c, 1, 44, 90
4, 6666, Note_on_c, 1, 44, 0
4, 6695, Pitch_bend_c, 1, 8168
4, 6695, Note_on_c, 1, 45, 90
4, 6724, Note_on_c, 1, 45, 0
4, 6753, Pitch_bend_c, 1, 8165
4, 6753, Note_on_c, 1, 47, 90
4, 6782, Note_on_c, 1, 47, 0
4, 6810, Pitch_bend_c, 1, 8164
4, 6810, Note_on_c, 1, 48, 90
4, 6839, Note_on_c, 1, 48, 0
4, 6868, Pitch_bend_c, 1, 8160
4, 6868, Note_on_c, 1, 50, 90
4, 6897, Note_on_c, 1, 50, 0
4, 6925, Pitch_bend_c, 1, 8192
4, 6925, Note_on_c, 1, 52, 90
4, 6954, Note_on_c, 1, 52, 0
4, 6983, Pitch_bend_c, 1, 8164
4, 6983, Note_on_c, 1, 48, 90
4, 7012, Note_on_c, 1, 48, 0
4, 7041, Pitch_bend_c, 1, 8165
4, 7041, Note_on_c, 1, 47, 90
4, 7070, Note_on_c, 1, 47, 0
4, 7098, Pitch_bend_c, 1, 8168
4, 7098, Note_on_c, 1, 45, 90
4, 7127, Note_on_c, 1, 45, 0
4, 7156, Pitch_bend_c, 1, 8160
4, 7156, Note_on_c, 1, 50, 90
4, 7185, Note_on_c, 1, 50, 0
4, 7213, Pitch_bend_c, 1, 8192
4, 7213, Note_on_c, 1, 52, 90
4, 7242, Note_on_c, 1, 52, 0
4, 7271, Pitch_bend_c, 1, 8192
4, 7271, Note_on_c, 1, 54, 90
4, 7300, Note_on_c, 1, 54, 0
4, 7329, Pitch_bend_c, 1, 8192
4, 7329, Note_on_c, 1, 57, 90
4, 7358, Note_on_c, 1, 57, 0
4, 7386, Pitch_bend_c, 1, 8160
4, 7386, Note_on_c, 1, 50, 90
4, 7415, Note_on_c, 1, 50, 0
4, 7444, Pitch_bend_c, 1, 8168
4, 7444, Note_on_c, 1, 45, 90
4, 7473, Note_on_c, 1, 45, 0
4, 7501, Pitch_bend_c, 1, 8160
4, 7501, Note_on_c, 1, 50, 90
4, 7530, Note_on_c, 1, 50, 0
4, 7559, Pitch_bend_c, 1, 8192
4, 7559, Note_on_c, 1, 54, 90
4, 7588, Note_on_c, 1, 54, 0
4, 7617, Pitch_bend_c, 1, 8192
4, 7617, Note_on_c, 1, 55, 90
4, 7646, Note_on_c, 1, 55, 0
4, 7674, Pitch_bend_c, 1, 8192
4, 7674, Note_on_c, 1, 53, 90
4, 7703, Note_on_c, 1, 53, 0
4, 7732, Pitch_bend_c, 1, 8160
4, 7732, Note_on_c, 1, 50, 90
4, 7761, Note_on_c, 1, 50, 0
4, 7789, Pitch_bend_c, 1, 8165
4, 7789, Note_on_c, 1, 47, 90
4, 7818, Note_on_c, 1, 47, 0
4, 7847, Pitch_bend_c, 1, 8160
4, 7847, Note_on_c, 1, 50, 90
4, 7876, Note_on_c, 1, 50, 0
4, 7905, Pitch_bend_c, 1, 8165
4, 7905, Note_on_c, 1, 47, 90
4, 7934, Note_on_c, 1, 47, 0
4, 7962, Pitch_bend_c, 1, 8168
4, 7962, Note_on_c, 1, 45, 90
4, 7991, Note_on_c, 1, 45, 0
4, 8020, Pitch_bend_c, 1, 8171
4, 8020, Note_on_c, 1, 43, 90
4, 8049, Note_on_c, 1, 43, 0
4, 8077, Pitch_bend_c, 1, 8164
4, 8077, Note_on_c, 1, 48, 90
4, 8106, Note_on_c, 1, 48, 0
4, 8135, Pitch_bend_c, 1, 8192
4, 8135, Note_on_c, 1, 55, 90
4, 8164, Note_on_c, 1, 55, 0
4, 8192, Pitch_bend_c, 1, 8164
4, 8192, Note_on_c, 1, 48, 90
4, 8221, Note_on_c, 1, 48, 0
4, 8250, Pitch_bend_c, 1, 8192
4, 8250, Note_on_c, 1, 55, 90
4, 8279, Note_on_c, 1, 55, 0
4, 8308, Pitch_bend_c, 1, 8165
4, 8308, Note_on_c, 1, 47, 90
4, 8337, Note_on_c, 1, 47, 0
4, 8365, Pitch_bend_c, 1, 8192
4, 8365, Note_on_c, 1, 55, 90
4, 8394, Note_on_c, 1, 55, 0
4, 8423, Pitch_bend_c, 1, 8165
4, 8423, Note_on_c, 1, 47, 90
4, 8452, Note_on_c, 1, 47, 0
4, 8480, Pitch_bend_c, 1, 8192
4, 8480, Note_on_c, 1, 55, 90
4, 8509, Note_on_c, 1, 55, 0
4, 8538, Pitch_bend_c, 1, 8167
4, 8538, Note_on_c, 1, 46, 90
4, 8567, Note_on_c, 1, 46, 0
4, 8596, Pitch_bend_c, 1, 8192
4, 8596, Note_on_c, 1, 55, 90
4, 8625, Note_on_c, 1, 55, 0
4, 8653, Pitch_bend_c, 1, 8167
4, 8653, Note_on_c, 1, 46, 90
4, 8682, Note_on_c, 1, 46, 0
4, 8711, Pitch_bend_c, 1, 8192
4, 8711, Note_on_c, 1, 55, 90
4, 8740, Note_on_c, 1, 55, 0
4, 8768, Pitch_bend_c, 1, 8168
4, 8768, Note_on_c, 1, 45, 90
4, 8797, Note_on_c, 1, 45, 0
4, 8826, Pitch_bend_c, 1, 8192
4, 8826, Note_on_c, 1, 55, 90
4, 8855, Note_on_c, 1, 55, 0
4, 8884, Pitch_bend_c, 1, 8168
4, 8884, Note_on_c, 1, 45, 90
4, 8913, Note_on_c, 1, 45, 0
4, 8941, Pitch_bend_c, 1, 8192
4, 8941, Note_on_c, 1, 55, 90
4, 8970, Note_on_c, 1, 55, 0
4, 8999, Pitch_bend_c, 1, 8173
4, 8999, Note_on_c, 1, 41, 90
4, 9028, Note_on_c, 1, 41, 0
4, 9056, Pitch_bend_c, 1, 8192
4, 9056, Note_on_c, 1, 53, 90
4, 9085, Note_on_c, 1, 53, 0
4, 9114, Pitch_bend_c, 1, 8172
4, 9114, Note_on_c, 1, 42, 90
4, 9143, Note_on_c, 1, 42, 0
4, 9172, Pitch_bend_c, 1, 8192
4, 9172, Note_on_c, 1, 54, 90
4, 9201, Note_on_c, 1, 54, 0
4, 9229, Pitch_bend_c, 1, 8171
4, 9229, Note_on_c, 1, 43, 90
4, 9258, Note_on_c, 1, 43, 0
4, 9287, Pitch_bend_c, 1, 8192
4, 9287, Note_on_c, 1, 55, 90
4, 9316, Note_on_c, 1, 55, 0
4, 9344, Pitch_bend_c, 1, 8168
4, 9344, Note_on_c, 1, 45, 90
4, 9373, Note_on_c, 1, 45, 0
4, 9402, Pitch_bend_c, 1, 8192
4, 9402, Note_on_c, 1, 57, 90
4, 9431, Note_on_c, 1, 57, 0
4, 9460, Pitch_bend_c, 1, 8160
4, 9460, Note_on_c, 1, 50, 90
4, 9489, Note_on_c, 1, 50, 0
4, 9517, Pitch_bend_c, 1, 8192
4, 9517, Note_on_c, 1, 53, 90
4, 9546, Note_on_c, 1, 53, 0
4, 9575, Pitch_bend_c, 1, 8171
4, 9575, Note_on_c, 1, 43, 90
4, 9604, Note_on_c, 1, 43, 0
4, 9633, Pitch_bend_c, 1, 8160
4, 9633, Note_on_c, 1, 50, 90
4, 9662, Note_on_c, 1, 50, 0
4, 9690, Pitch_bend_c, 1, 8164
4, 9690, Note_on_c, 1, 48, 90
4, 9719, Note_on_c, 1, 48, 0
4, 9748, Pitch_bend_c, 1, 8171
4, 9748, Note_on_c, 1, 43, 90
4, 9777, Note_on_c, 1, 43, 0
4, 9805, Pitch_bend_c, 1, 8164
4, 9805, Note_on_c, 1, 48, 90
4, 9834, Note_on_c, 1, 48, 0
4, 9921, Pitch_bend_c, 1, 8164
4, 9921, Note_on_c, 1, 48, 90
4, 9950, Note_on_c, 1, 48, 0
4, 9978, Pitch_bend_c, 1, 8160
4, 9978, Note_on_c, 1, 50, 90
4, 10007, Note_on_c, 1, 50, 0
4, 10036, Pitch_bend_c, 1, 8192
4, 10036, Note_on_c, 1, 52, 90
4, 10065, Note_on_c, 1, 52, 0
4, 10093, Pitch_bend_c, 1, 8192
4, 10093, Note_on_c, 1, 55, 90
4, 10122, Note_on_c, 1, 55, 0
4, 10151, Pitch_bend_c, 1, 8192
4, 10151, Note_on_c, 1, 57, 90
4, 10180, Note_on_c, 1, 57, 0
4, 10209, Pitch_bend_c, 1, 8192
4, 10209, Note_on_c, 1, 55, 90
4, 10225, Note_on_c, 1, 55, 0
4, 10225, End_track
0, 0, End_of_file
