0, 0, Header, 1, 7, 480
1, 0, Start_track
1, 0, Copyright_t, "All Rights Reserved"
1, 0, Cue_point_t, "Created by Rosegarden"
1, 0, Cue_point_t, "http://www.rosegardenmusic.com/"
1, 0, Tempo, 600000
1, 0, Time_signature, 4, 2, 24, 8
1, 134400, End_track
2, 0, Start_track
2, 0, Title_t, "Staff"
2, 0, Control_c, 0, 0, 0
2, 0, Control_c, 0, 10, 64
2, 0, Control_c, 0, 121, 0
2, 0, Program_c, 0, 0
2, 0, Note_on_c, 0, 81, 110
2, 0, Control_c, 0, 91, 0
2, 0, Control_c, 0, 32, 0
2, 0, Control_c, 0, 7, 127
2, 0, Control_c, 0, 93, 0
2, 55, Note_off_c, 0, 81, 127
2, 60, Note_on_c, 0, 93, 110
2, 295, Note_off_c, 0, 93, 127
2, 300, Note_on_c, 0, 91, 110
2, 535, Note_off_c, 0, 91, 127
2, 540, Note_on_c, 0, 90, 110
2, 715, Note_off_c, 0, 90, 127
2, 720, Note_on_c, 0, 86, 110
2, 894, Note_off_c, 0, 86, 127
2, 900, Note_on_c, 0, 85, 110
2, 1015, Note_off_c, 0, 85, 127
2, 1019, Note_on_c, 0, 81, 110
2, 1194, Note_off_c, 0, 81, 127
2, 1200, Note_on_c, 0, 79, 110
2, 1375, Note_off_c, 0, 79, 127
2, 1380, Note_on_c, 0, 78, 110
2, 1494, Note_off_c, 0, 78, 127
2, 1500, Note_on_c, 0, 74, 110
2, 1855, Note_off_c, 0, 74, 127
2, 1860, Note_on_c, 0, 74, 110
2, 1975, Note_off_c, 0, 74, 127
2, 1980, Note_on_c, 0, 74, 110
2, 2455, Note_off_c, 0, 74, 127
2, 2460, Note_on_c, 0, 76, 110
2, 2694, Note_off_c, 0, 76, 127
2, 2700, Note_on_c, 0, 78, 110
2, 2935, Note_off_c, 0, 78, 127
2, 2939, Note_on_c, 0, 76, 110
2, 3414, Note_off_c, 0, 76, 127
2, 3420, Note_on_c, 0, 73, 110
2, 4239, Note_off_c, 0, 73, 127
2, 4379, Note_on_c, 0, 73, 110
2, 4614, Note_off_c, 0, 73, 127
2, 4620, Note_on_c, 0, 74, 110
2, 4854, Note_off_c, 0, 74, 127
2, 4860, Note_on_c, 0, 73, 110
2, 5275, Note_off_c, 0, 73, 127
2, 7020, Note_on_c, 0, 74, 110
2, 7495, Note_off_c, 0, 74, 127
2, 7500, Note_on_c, 0, 74, 110
2, 8079, Note_off_c, 0, 74, 127
2, 8459, Note_on_c, 0, 74, 110
2, 9040, Note_off_c, 0, 74, 127
2, 10979, Note_on_c, 0, 73, 110
2, 11440, Note_off_c, 0, 73, 127
2, 12959, Note_on_c, 0, 81, 110
2, 13015, Note_off_c, 0, 81, 127
2, 13019, Note_on_c, 0, 93, 110
2, 13434, Note_off_c, 0, 93, 127
2, 24780, Note_on_c, 0, 73, 110
2, 26280, Note_off_c, 0, 73, 127
2, 26939, Note_on_c, 0, 73, 110
2, 27175, Note_off_c, 0, 73, 127
2, 27180, Note_on_c, 0, 74, 110
2, 27760, Note_off_c, 0, 74, 127
2, 30780, Note_on_c, 0, 74, 110
2, 31494, Note_off_c, 0, 74, 127
2, 31500, Note_on_c, 0, 74, 110
2, 31735, Note_off_c, 0, 74, 127
2, 31739, Note_on_c, 0, 73, 110
2, 32560, Note_off_c, 0, 73, 127
2, 42960, Note_on_c, 0, 73, 110
2, 43014, Note_off_c, 0, 73, 127
2, 43019, Note_on_c, 0, 85, 110
2, 43019, Note_on_c, 0, 78, 110
2, 43600, Note_off_c, 0, 78, 127
2, 43739, Note_on_c, 0, 83, 110
2, 43739, Note_on_c, 0, 74, 110
2, 44155, Note_off_c, 0, 74, 127
2, 44580, Note_on_c, 0, 93, 110
2, 44694, Note_off_c, 0, 93, 127
2, 44700, Note_on_c, 0, 91, 110
2, 44875, Note_off_c, 0, 91, 127
2, 44880, Note_on_c, 0, 90, 110
2, 45055, Note_off_c, 0, 90, 127
2, 45060, Note_on_c, 0, 86, 110
2, 45175, Note_off_c, 0, 86, 127
2, 45180, Note_on_c, 0, 81, 110
2, 45294, Note_off_c, 0, 81, 127
2, 45300, Note_on_c, 0, 79, 110
2, 45414, Note_off_c, 0, 79, 127
2, 45419, Note_on_c, 0, 78, 110
2, 45535, Note_off_c, 0, 78, 127
2, 45539, Note_on_c, 0, 74, 110
2, 46000, Note_off_c, 0, 74, 127
2, 46139, Note_on_c, 0, 74, 110
2, 46614, Note_off_c, 0, 74, 127
2, 46619, Note_on_c, 0, 76, 110
2, 47094, Note_off_c, 0, 76, 127
2, 47100, Note_on_c, 0, 78, 110
2, 47575, Note_off_c, 0, 78, 127
2, 47580, Note_on_c, 0, 81, 110
2, 47814, Note_off_c, 0, 81, 127
2, 47819, Note_on_c, 0, 78, 110
2, 48535, Note_off_c, 0, 78, 127
2, 48539, Note_on_c, 0, 76, 110
2, 48655, Note_off_c, 0, 76, 127
2, 48660, Note_on_c, 0, 74, 110
2, 48775, Note_off_c, 0, 74, 127
2, 48780, Note_on_c, 0, 73, 110
2, 49360, Note_off_c, 0, 73, 127
2, 49980, Note_on_c, 0, 76, 110
2, 50214, Note_off_c, 0, 76, 127
2, 50219, Note_on_c, 0, 78, 110
2, 50455, Note_off_c, 0, 78, 127
2, 50460, Note_on_c, 0, 74, 110
2, 51654, Note_off_c, 0, 74, 127
2, 51660, Note_on_c, 0, 74, 110
2, 52135, Note_off_c, 0, 74, 127
2, 52139, Note_on_c, 0, 76, 110
2, 53160, Note_off_c, 0, 76, 127
2, 53820, Note_on_c, 0, 74, 110
2, 54295, Note_off_c, 0, 74, 127
2, 54300, Note_on_c, 0, 76, 110
2, 54775, Note_off_c, 0, 76, 127
2, 54779, Note_on_c, 0, 78, 110
2, 55254, Note_off_c, 0, 78, 127
2, 55260, Note_on_c, 0, 81, 110
2, 55495, Note_off_c, 0, 81, 127
2, 55500, Note_on_c, 0, 85, 110
2, 56214, Note_off_c, 0, 85, 127
2, 56220, Note_on_c, 0, 76, 110
2, 56335, Note_off_c, 0, 76, 127
2, 56339, Note_on_c, 0, 74, 110
2, 56454, Note_off_c, 0, 74, 127
2, 56460, Note_on_c, 0, 73, 110
2, 56935, Note_off_c, 0, 73, 127
2, 56939, Note_on_c, 0, 74, 110
2, 57175, Note_off_c, 0, 74, 127
2, 57179, Note_on_c, 0, 81, 110
2, 57595, Note_off_c, 0, 81, 127
2, 57660, Note_on_c, 0, 85, 110
2, 57660, Note_on_c, 0, 79, 110
2, 57660, Note_on_c, 0, 74, 110
2, 57895, Note_off_c, 0, 74, 127
2, 57900, Note_on_c, 0, 86, 110
2, 58135, Note_off_c, 0, 86, 127
2, 58139, Note_on_c, 0, 83, 110
2, 58854, Note_off_c, 0, 83, 127
2, 58860, Note_on_c, 0, 81, 110
2, 59095, Note_off_c, 0, 81, 127
2, 59100, Note_on_c, 0, 83, 110
2, 59335, Note_off_c, 0, 83, 127
2, 59339, Note_on_c, 0, 81, 110
2, 60839, Note_off_c, 0, 81, 127
2, 61020, Note_on_c, 0, 73, 110
2, 61254, Note_off_c, 0, 73, 127
2, 61260, Note_on_c, 0, 81, 110
2, 61495, Note_off_c, 0, 81, 127
2, 61500, Note_on_c, 0, 86, 110
2, 61500, Note_on_c, 0, 78, 110
2, 61500, Note_on_c, 0, 74, 110
2, 62214, Note_off_c, 0, 74, 127
2, 62220, Note_on_c, 0, 86, 110
2, 62220, Note_on_c, 0, 78, 110
2, 62220, Note_on_c, 0, 74, 110
2, 62454, Note_off_c, 0, 74, 127
2, 62460, Note_on_c, 0, 85, 110
2, 62460, Note_on_c, 0, 78, 110
2, 62460, Note_on_c, 0, 73, 110
2, 62935, Note_off_c, 0, 73, 127
2, 62939, Note_on_c, 0, 83, 110
2, 62939, Note_on_c, 0, 78, 110
2, 63175, Note_off_c, 0, 78, 127
2, 63179, Note_on_c, 0, 83, 110
2, 63179, Note_on_c, 0, 78, 110
2, 63654, Note_off_c, 0, 78, 127
2, 63660, Note_on_c, 0, 81, 110
2, 63660, Note_on_c, 0, 76, 110
2, 64679, Note_off_c, 0, 76, 127
2, 64860, Note_on_c, 0, 78, 110
2, 64860, Note_on_c, 0, 73, 110
2, 65095, Note_off_c, 0, 73, 127
2, 65100, Note_on_c, 0, 81, 110
2, 65335, Note_off_c, 0, 81, 127
2, 65339, Note_on_c, 0, 83, 110
2, 65339, Note_on_c, 0, 74, 110
2, 66054, Note_off_c, 0, 74, 127
2, 66060, Note_on_c, 0, 83, 110
2, 66295, Note_off_c, 0, 83, 127
2, 66300, Note_on_c, 0, 81, 110
2, 66535, Note_off_c, 0, 81, 127
2, 66539, Note_on_c, 0, 79, 110
2, 66775, Note_off_c, 0, 79, 127
2, 66779, Note_on_c, 0, 74, 110
2, 67014, Note_off_c, 0, 74, 127
2, 67020, Note_on_c, 0, 78, 110
2, 67495, Note_off_c, 0, 78, 127
2, 67500, Note_on_c, 0, 76, 110
2, 68935, Note_off_c, 0, 76, 127
2, 68939, Note_on_c, 0, 73, 110
2, 69175, Note_off_c, 0, 73, 127
2, 69179, Note_on_c, 0, 74, 110
2, 69595, Note_off_c, 0, 74, 127
2, 69660, Note_on_c, 0, 76, 110
2, 70075, Note_off_c, 0, 76, 127
2, 70139, Note_on_c, 0, 78, 110
2, 70554, Note_off_c, 0, 78, 127
2, 70620, Note_on_c, 0, 79, 110
2, 70854, Note_off_c, 0, 79, 127
2, 70860, Note_on_c, 0, 81, 110
2, 71879, Note_off_c, 0, 81, 127
2, 72300, Note_on_c, 0, 81, 110
2, 72535, Note_off_c, 0, 81, 127
2, 72539, Note_on_c, 0, 79, 110
2, 72775, Note_off_c, 0, 79, 127
2, 72779, Note_on_c, 0, 74, 110
2, 73014, Note_off_c, 0, 74, 127
2, 73020, Note_on_c, 0, 78, 110
2, 73495, Note_off_c, 0, 78, 127
2, 73500, Note_on_c, 0, 74, 110
2, 73735, Note_off_c, 0, 74, 127
2, 73739, Note_on_c, 0, 73, 110
2, 74320, Note_off_c, 0, 73, 127
2, 74460, Note_on_c, 0, 76, 110
2, 74695, Note_off_c, 0, 76, 127
2, 74700, Note_on_c, 0, 74, 110
2, 74935, Note_off_c, 0, 74, 127
2, 74939, Note_on_c, 0, 74, 110
2, 76679, Note_off_c, 0, 74, 127
2, 77820, Note_on_c, 0, 74, 110
2, 78175, Note_off_c, 0, 74, 127
2, 78179, Note_on_c, 0, 78, 110
2, 78475, Note_off_c, 0, 78, 127
2, 78479, Note_on_c, 0, 81, 110
2, 78775, Note_off_c, 0, 81, 127
2, 78779, Note_on_c, 0, 85, 110
2, 79495, Note_off_c, 0, 85, 127
2, 79500, Note_on_c, 0, 83, 110
2, 79735, Note_off_c, 0, 83, 127
2, 79739, Note_on_c, 0, 83, 110
2, 81479, Note_off_c, 0, 83, 127
2, 81660, Note_on_c, 0, 83, 110
2, 82014, Note_off_c, 0, 83, 127
2, 82020, Note_on_c, 0, 85, 110
2, 82314, Note_off_c, 0, 85, 127
2, 82320, Note_on_c, 0, 86, 110
2, 82614, Note_off_c, 0, 86, 127
2, 82620, Note_on_c, 0, 83, 110
2, 83335, Note_off_c, 0, 83, 127
2, 83339, Note_on_c, 0, 81, 110
2, 83575, Note_off_c, 0, 81, 127
2, 83579, Note_on_c, 0, 81, 110
2, 85320, Note_off_c, 0, 81, 127
2, 85500, Note_on_c, 0, 78, 110
2, 85854, Note_off_c, 0, 78, 127
2, 85860, Note_on_c, 0, 78, 110
2, 86154, Note_off_c, 0, 78, 127
2, 86160, Note_on_c, 0, 79, 110
2, 86454, Note_off_c, 0, 79, 127
2, 86460, Note_on_c, 0, 81, 110
2, 87175, Note_off_c, 0, 81, 127
2, 87179, Note_on_c, 0, 79, 110
2, 87295, Note_off_c, 0, 79, 127
2, 87300, Note_on_c, 0, 78, 110
2, 87414, Note_off_c, 0, 78, 127
2, 87420, Note_on_c, 0, 79, 110
2, 89160, Note_off_c, 0, 79, 127
2, 89339, Note_on_c, 0, 76, 110
2, 89339, Note_on_c, 0, 79, 110
2, 89695, Note_off_c, 0, 76, 127
2, 89700, Note_on_c, 0, 78, 110
2, 89700, Note_on_c, 0, 81, 110
2, 89995, Note_off_c, 0, 78, 127
2, 90000, Note_on_c, 0, 79, 110
2, 90000, Note_on_c, 0, 83, 110
2, 90295, Note_off_c, 0, 79, 127
2, 90300, Note_on_c, 0, 83, 110
2, 90300, Note_on_c, 0, 78, 110
2, 90300, Note_on_c, 0, 74, 110
2, 91014, Note_off_c, 0, 74, 127
2, 91020, Note_on_c, 0, 81, 110
2, 91254, Note_off_c, 0, 81, 127
2, 91260, Note_on_c, 0, 81, 110
2, 91260, Note_on_c, 0, 74, 110
2, 93000, Note_off_c, 0, 74, 127
2, 93179, Note_on_c, 0, 74, 110
2, 93535, Note_off_c, 0, 74, 127
2, 93539, Note_on_c, 0, 78, 110
2, 93835, Note_off_c, 0, 78, 127
2, 93839, Note_on_c, 0, 81, 110
2, 94135, Note_off_c, 0, 81, 127
2, 94139, Note_on_c, 0, 85, 110
2, 94139, Note_on_c, 0, 73, 110
2, 94139, Note_on_c, 0, 78, 110
2, 94854, Note_off_c, 0, 73, 127
2, 94860, Note_on_c, 0, 83, 110
2, 95095, Note_off_c, 0, 83, 127
2, 95100, Note_on_c, 0, 83, 110
2, 95100, Note_on_c, 0, 78, 110
2, 95100, Note_on_c, 0, 74, 110
2, 96839, Note_off_c, 0, 74, 127
2, 97020, Note_on_c, 0, 83, 110
2, 97375, Note_off_c, 0, 83, 127
2, 97379, Note_on_c, 0, 73, 110
2, 97379, Note_on_c, 0, 85, 110
2, 97675, Note_off_c, 0, 73, 127
2, 97679, Note_on_c, 0, 86, 110
2, 97679, Note_on_c, 0, 74, 110
2, 97975, Note_off_c, 0, 74, 127
2, 97979, Note_on_c, 0, 85, 110
2, 97979, Note_on_c, 0, 81, 110
2, 97979, Note_on_c, 0, 76, 110
2, 97979, Note_on_c, 0, 73, 110
2, 98695, Note_off_c, 0, 73, 127
2, 98700, Note_on_c, 0, 81, 110
2, 99279, Note_off_c, 0, 81, 127
2, 99420, Note_on_c, 0, 85, 110
2, 99420, Note_on_c, 0, 73, 110
2, 99835, Note_off_c, 0, 73, 127
2, 99900, Note_on_c, 0, 83, 110
2, 101160, Note_off_c, 0, 83, 127
2, 101579, Note_on_c, 0, 81, 110
2, 101814, Note_off_c, 0, 81, 127
2, 101820, Note_on_c, 0, 81, 110
2, 102054, Note_off_c, 0, 81, 127
2, 102060, Note_on_c, 0, 79, 110
2, 102295, Note_off_c, 0, 79, 127
2, 102300, Note_on_c, 0, 86, 110
2, 102300, Note_on_c, 0, 79, 110
2, 102300, Note_on_c, 0, 74, 110
2, 102775, Note_off_c, 0, 74, 127
2, 102779, Note_on_c, 0, 79, 110
2, 103495, Note_off_c, 0, 79, 127
2, 103500, Note_on_c, 0, 74, 110
2, 103615, Note_off_c, 0, 74, 127
2, 103620, Note_on_c, 0, 76, 110
2, 103734, Note_off_c, 0, 76, 127
2, 103740, Note_on_c, 0, 78, 110
2, 104454, Note_off_c, 0, 78, 127
2, 104459, Note_on_c, 0, 78, 110
2, 104934, Note_off_c, 0, 78, 127
2, 104940, Note_on_c, 0, 76, 110
2, 105175, Note_off_c, 0, 76, 127
2, 105179, Note_on_c, 0, 74, 110
2, 105415, Note_off_c, 0, 74, 127
2, 105420, Note_on_c, 0, 73, 110
2, 105654, Note_off_c, 0, 73, 127
2, 105659, Note_on_c, 0, 76, 110
2, 107334, Note_off_c, 0, 76, 127
2, 107340, Note_on_c, 0, 74, 110
2, 107575, Note_off_c, 0, 74, 127
2, 107579, Note_on_c, 0, 74, 110
2, 111240, Note_off_c, 0, 74, 127
2, 112379, Note_on_c, 0, 76, 110
2, 112615, Note_off_c, 0, 76, 127
2, 112620, Note_on_c, 0, 74, 110
2, 112854, Note_off_c, 0, 74, 127
2, 112859, Note_on_c, 0, 78, 110
2, 113095, Note_off_c, 0, 78, 127
2, 113100, Note_on_c, 0, 81, 110
2, 113275, Note_off_c, 0, 81, 127
2, 113279, Note_on_c, 0, 74, 110
2, 113334, Note_off_c, 0, 74, 127
2, 113340, Note_on_c, 0, 78, 110
2, 113340, Note_on_c, 0, 85, 110
2, 114054, Note_off_c, 0, 78, 127
2, 114059, Note_on_c, 0, 83, 110
2, 114295, Note_off_c, 0, 83, 127
2, 114300, Note_on_c, 0, 83, 110
2, 115254, Note_off_c, 0, 83, 127
2, 115259, Note_on_c, 0, 76, 110
2, 115259, Note_on_c, 0, 80, 110
2, 116079, Note_off_c, 0, 76, 127
2, 116220, Note_on_c, 0, 83, 110
2, 116220, Note_on_c, 0, 74, 110
2, 116575, Note_off_c, 0, 74, 127
2, 116579, Note_on_c, 0, 85, 110
2, 116579, Note_on_c, 0, 76, 110
2, 116875, Note_off_c, 0, 76, 127
2, 116879, Note_on_c, 0, 77, 110
2, 116879, Note_on_c, 0, 86, 110
2, 117175, Note_off_c, 0, 77, 127
2, 117179, Note_on_c, 0, 85, 110
2, 117179, Note_on_c, 0, 73, 110
2, 117179, Note_on_c, 0, 78, 110
2, 117895, Note_off_c, 0, 73, 127
2, 117900, Note_on_c, 0, 81, 110
2, 118479, Note_off_c, 0, 81, 127
2, 118620, Note_on_c, 0, 85, 110
2, 119034, Note_off_c, 0, 85, 127
2, 119040, Note_on_c, 0, 73, 110
2, 119095, Note_off_c, 0, 73, 127
2, 119100, Note_on_c, 0, 83, 110
2, 119100, Note_on_c, 0, 78, 110
2, 120359, Note_off_c, 0, 78, 127
2, 120540, Note_on_c, 0, 81, 110
2, 120954, Note_off_c, 0, 81, 127
2, 121020, Note_on_c, 0, 81, 110
2, 121020, Note_on_c, 0, 74, 110
2, 121254, Note_off_c, 0, 74, 127
2, 121259, Note_on_c, 0, 79, 110
2, 121259, Note_on_c, 0, 74, 110
2, 121495, Note_off_c, 0, 74, 127
2, 121500, Note_on_c, 0, 78, 110
2, 121500, Note_on_c, 0, 86, 110
2, 121500, Note_on_c, 0, 74, 110
2, 121915, Note_off_c, 0, 74, 127
2, 121979, Note_on_c, 0, 79, 110
2, 122695, Note_off_c, 0, 79, 127
2, 122700, Note_on_c, 0, 74, 110
2, 122815, Note_off_c, 0, 74, 127
2, 122820, Note_on_c, 0, 76, 110
2, 122934, Note_off_c, 0, 76, 127
2, 122940, Note_on_c, 0, 74, 110
2, 122940, Note_on_c, 0, 78, 110
2, 123654, Note_off_c, 0, 74, 127
2, 123659, Note_on_c, 0, 78, 110
2, 124134, Note_off_c, 0, 78, 127
2, 124140, Note_on_c, 0, 76, 110
2, 124375, Note_off_c, 0, 76, 127
2, 124379, Note_on_c, 0, 74, 110
2, 124615, Note_off_c, 0, 74, 127
2, 124620, Note_on_c, 0, 73, 110
2, 124854, Note_off_c, 0, 73, 127
2, 124859, Note_on_c, 0, 76, 110
2, 126534, Note_off_c, 0, 76, 127
2, 126540, Note_on_c, 0, 74, 110
2, 126775, Note_off_c, 0, 74, 127
2, 126779, Note_on_c, 0, 74, 110
2, 127600, Note_off_c, 0, 74, 127
2, 128220, Note_on_c, 0, 72, 110
2, 128634, Note_off_c, 0, 72, 127
2, 128700, Note_on_c, 0, 73, 110
2, 128700, Note_on_c, 0, 76, 110
2, 129175, Note_off_c, 0, 73, 127
2, 129179, Note_on_c, 0, 88, 110
2, 129295, Note_off_c, 0, 88, 127
2, 129300, Note_on_c, 0, 86, 110
2, 129354, Note_off_c, 0, 86, 127
2, 129359, Note_on_c, 0, 85, 110
2, 129415, Note_off_c, 0, 85, 127
2, 129420, Note_on_c, 0, 81, 110
2, 129534, Note_off_c, 0, 81, 127
2, 129540, Note_on_c, 0, 80, 110
2, 129595, Note_off_c, 0, 80, 127
2, 129600, Note_on_c, 0, 81, 110
2, 129654, Note_off_c, 0, 81, 127
2, 129659, Note_on_c, 0, 83, 110
2, 129775, Note_off_c, 0, 83, 127
2, 129779, Note_on_c, 0, 81, 110
2, 129834, Note_off_c, 0, 81, 127
2, 129840, Note_on_c, 0, 80, 110
2, 129895, Note_off_c, 0, 80, 127
2, 129900, Note_on_c, 0, 76, 110
2, 130015, Note_off_c, 0, 76, 127
2, 130020, Note_on_c, 0, 74, 110
2, 130075, Note_off_c, 0, 74, 127
2, 130079, Note_on_c, 0, 73, 110
2, 130134, Note_off_c, 0, 73, 127
2, 130140, Note_on_c, 0, 74, 110
2, 130254, Note_off_c, 0, 74, 127
2, 130259, Note_on_c, 0, 76, 110
2, 130315, Note_off_c, 0, 76, 127
2, 130320, Note_on_c, 0, 80, 110
2, 130375, Note_off_c, 0, 80, 127
2, 130379, Note_on_c, 0, 76, 110
2, 130554, Note_off_c, 0, 76, 127
2, 134400, End_track
3, 0, Start_track
3, 0, Title_t, "Staff-2"
3, 1680, Note_on_c, 1, 69, 110
3, 1680, Control_c, 1, 91, 0
3, 1680, Control_c, 1, 7, 127
3, 1680, Control_c, 1, 93, 0
3, 1680, Control_c, 1, 10, 64
3, 1680, Control_c, 1, 121, 0
3, 1680, Program_c, 1, 0
3, 1680, Control_c, 1, 32, 0
3, 1680, Control_c, 1, 0, 0
3, 1914, Note_off_c, 1, 69, 127
3, 1980, Note_on_c, 1, 69, 110
3, 2800, Note_off_c, 1, 69, 127
3, 2939, Note_on_c, 1, 69, 110
3, 3760, Note_off_c, 1, 69, 127
3, 3900, Note_on_c, 1, 71, 110
3, 3900, Note_on_c, 1, 66, 110
3, 4720, Note_off_c, 1, 66, 127
3, 4860, Note_on_c, 1, 66, 110
3, 5275, Note_off_c, 1, 66, 127
3, 5339, Note_on_c, 1, 57, 110
3, 5575, Note_off_c, 1, 57, 127
3, 5579, Note_on_c, 1, 62, 110
3, 5814, Note_off_c, 1, 62, 127
3, 5820, Note_on_c, 1, 64, 110
3, 5820, Note_on_c, 1, 59, 110
3, 6415, Note_off_c, 1, 59, 127
3, 6420, Note_on_c, 1, 62, 110
3, 6534, Note_off_c, 1, 62, 127
3, 6540, Note_on_c, 1, 61, 110
3, 6654, Note_off_c, 1, 61, 127
3, 6659, Note_on_c, 1, 62, 110
3, 6775, Note_off_c, 1, 62, 127
3, 6779, Note_on_c, 1, 69, 110
3, 6779, Note_on_c, 1, 62, 110
3, 7195, Note_off_c, 1, 62, 127
3, 7259, Note_on_c, 1, 62, 110
3, 7259, Note_on_c, 1, 68, 110
3, 7675, Note_off_c, 1, 62, 127
3, 7740, Note_on_c, 1, 67, 110
3, 7975, Note_off_c, 1, 67, 127
3, 7979, Note_on_c, 1, 66, 110
3, 8215, Note_off_c, 1, 66, 127
3, 8220, Note_on_c, 1, 67, 110
3, 8634, Note_off_c, 1, 67, 127
3, 8700, Note_on_c, 1, 62, 110
3, 9175, Note_off_c, 1, 62, 127
3, 9179, Note_on_c, 1, 66, 110
3, 9415, Note_off_c, 1, 66, 127
3, 9420, Note_on_c, 1, 64, 110
3, 10440, Note_off_c, 1, 64, 127
3, 10620, Note_on_c, 1, 65, 110
3, 10620, Note_on_c, 1, 61, 110
3, 11034, Note_off_c, 1, 61, 127
3, 11279, Note_on_c, 1, 71, 110
3, 11575, Note_off_c, 1, 71, 127
3, 11579, Note_on_c, 1, 69, 110
3, 12840, Note_off_c, 1, 69, 127
3, 15180, Note_on_c, 1, 57, 110
3, 15415, Note_off_c, 1, 57, 127
3, 15419, Note_on_c, 1, 62, 110
3, 15894, Note_off_c, 1, 62, 127
3, 15900, Note_on_c, 1, 64, 110
3, 16375, Note_off_c, 1, 64, 127
3, 16380, Note_on_c, 1, 66, 110
3, 16855, Note_off_c, 1, 66, 127
3, 16859, Note_on_c, 1, 69, 110
3, 17094, Note_off_c, 1, 69, 127
3, 17100, Note_on_c, 1, 66, 110
3, 18055, Note_off_c, 1, 66, 127
3, 18059, Note_on_c, 1, 64, 110
3, 18640, Note_off_c, 1, 64, 127
3, 18780, Note_on_c, 1, 62, 110
3, 19194, Note_off_c, 1, 62, 127
3, 19259, Note_on_c, 1, 64, 110
3, 19494, Note_off_c, 1, 64, 127
3, 19500, Note_on_c, 1, 66, 110
3, 19734, Note_off_c, 1, 66, 127
3, 19740, Note_on_c, 1, 62, 110
3, 20694, Note_off_c, 1, 62, 127
3, 20700, Note_on_c, 1, 59, 110
3, 20934, Note_off_c, 1, 59, 127
3, 20940, Note_on_c, 1, 62, 110
3, 21175, Note_off_c, 1, 62, 127
3, 21180, Note_on_c, 1, 64, 110
3, 21894, Note_off_c, 1, 64, 127
3, 21900, Note_on_c, 1, 61, 110
3, 21900, Note_on_c, 1, 57, 110
3, 22480, Note_off_c, 1, 57, 127
3, 22619, Note_on_c, 1, 59, 110
3, 22619, Note_on_c, 1, 55, 110
3, 22855, Note_off_c, 1, 55, 127
3, 22859, Note_on_c, 1, 57, 110
3, 23094, Note_off_c, 1, 57, 127
3, 23100, Note_on_c, 1, 62, 110
3, 23575, Note_off_c, 1, 62, 127
3, 23580, Note_on_c, 1, 64, 110
3, 24055, Note_off_c, 1, 64, 127
3, 24059, Note_on_c, 1, 66, 110
3, 24534, Note_off_c, 1, 66, 127
3, 24540, Note_on_c, 1, 69, 110
3, 24955, Note_off_c, 1, 69, 127
3, 25739, Note_on_c, 1, 64, 110
3, 26319, Note_off_c, 1, 64, 127
3, 26460, Note_on_c, 1, 69, 110
3, 27280, Note_off_c, 1, 69, 127
3, 27419, Note_on_c, 1, 71, 110
3, 28135, Note_off_c, 1, 71, 127
3, 28139, Note_on_c, 1, 69, 110
3, 28375, Note_off_c, 1, 69, 127
3, 28380, Note_on_c, 1, 71, 110
3, 28614, Note_off_c, 1, 71, 127
3, 28619, Note_on_c, 1, 69, 110
3, 30119, Note_off_c, 1, 69, 127
3, 30300, Note_on_c, 1, 69, 110
3, 31119, Note_off_c, 1, 69, 127
3, 32219, Note_on_c, 1, 71, 110
3, 32455, Note_off_c, 1, 71, 127
3, 32460, Note_on_c, 1, 71, 110
3, 32935, Note_off_c, 1, 71, 127
3, 32939, Note_on_c, 1, 69, 110
3, 33414, Note_off_c, 1, 69, 127
3, 33419, Note_on_c, 1, 64, 110
3, 33894, Note_off_c, 1, 64, 127
3, 33900, Note_on_c, 1, 62, 110
3, 34135, Note_off_c, 1, 62, 127
3, 34139, Note_on_c, 1, 66, 110
3, 34139, Note_on_c, 1, 61, 110
3, 34375, Note_off_c, 1, 61, 127
3, 34380, Note_on_c, 1, 69, 110
3, 34614, Note_off_c, 1, 69, 127
3, 34619, Note_on_c, 1, 71, 110
3, 35335, Note_off_c, 1, 71, 127
3, 35339, Note_on_c, 1, 71, 110
3, 35575, Note_off_c, 1, 71, 127
3, 35580, Note_on_c, 1, 69, 110
3, 36055, Note_off_c, 1, 69, 127
3, 36060, Note_on_c, 1, 67, 110
3, 36535, Note_off_c, 1, 67, 127
3, 36539, Note_on_c, 1, 67, 110
3, 36775, Note_off_c, 1, 67, 127
3, 36780, Note_on_c, 1, 64, 110
3, 37014, Note_off_c, 1, 64, 127
3, 37019, Note_on_c, 1, 66, 110
3, 37839, Note_off_c, 1, 66, 127
3, 38219, Note_on_c, 1, 66, 110
3, 38455, Note_off_c, 1, 66, 127
3, 38460, Note_on_c, 1, 66, 110
3, 38935, Note_off_c, 1, 66, 127
3, 38939, Note_on_c, 1, 64, 110
3, 39175, Note_off_c, 1, 64, 127
3, 39180, Note_on_c, 1, 66, 110
3, 39414, Note_off_c, 1, 66, 127
3, 39419, Note_on_c, 1, 67, 110
3, 39894, Note_off_c, 1, 67, 127
3, 39900, Note_on_c, 1, 66, 110
3, 40135, Note_off_c, 1, 66, 127
3, 40139, Note_on_c, 1, 64, 110
3, 40375, Note_off_c, 1, 64, 127
3, 40380, Note_on_c, 1, 64, 110
3, 40614, Note_off_c, 1, 64, 127
3, 40619, Note_on_c, 1, 62, 110
3, 41639, Note_off_c, 1, 62, 127
3, 41819, Note_on_c, 1, 59, 110
3, 42055, Note_off_c, 1, 59, 127
3, 42060, Note_on_c, 1, 62, 110
3, 43494, Note_off_c, 1, 62, 127
3, 43500, Note_on_c, 1, 64, 110
3, 43735, Note_off_c, 1, 64, 127
3, 43739, Note_on_c, 1, 66, 110
3, 43975, Note_off_c, 1, 66, 127
3, 43980, Note_on_c, 1, 69, 110
3, 44214, Note_off_c, 1, 69, 127
3, 44219, Note_on_c, 1, 64, 110
3, 44219, Note_on_c, 1, 58, 110
3, 45480, Note_off_c, 1, 58, 127
3, 45660, Note_on_c, 1, 69, 110
3, 46480, Note_off_c, 1, 69, 127
3, 48539, Note_on_c, 1, 69, 110
3, 48539, Note_on_c, 1, 66, 110
3, 48955, Note_off_c, 1, 66, 127
3, 49260, Note_on_c, 1, 66, 110
3, 49839, Note_off_c, 1, 66, 127
3, 49980, Note_on_c, 1, 71, 110
3, 49980, Note_on_c, 1, 67, 110
3, 51239, Note_off_c, 1, 67, 127
3, 51420, Note_on_c, 1, 71, 110
3, 51420, Note_on_c, 1, 67, 110
3, 51835, Note_off_c, 1, 67, 127
3, 52079, Note_on_c, 1, 67, 110
3, 52079, Note_on_c, 1, 62, 110
3, 52135, Note_off_c, 1, 62, 127
3, 52139, Note_on_c, 1, 71, 110
3, 52854, Note_off_c, 1, 71, 127
3, 52860, Note_on_c, 1, 62, 110
3, 53095, Note_off_c, 1, 62, 127
3, 53100, Note_on_c, 1, 59, 110
3, 53335, Note_off_c, 1, 59, 127
3, 53339, Note_on_c, 1, 61, 110
3, 53575, Note_off_c, 1, 61, 127
3, 53579, Note_on_c, 1, 69, 110
3, 54160, Note_off_c, 1, 69, 127
3, 56220, Note_on_c, 1, 69, 110
3, 56220, Note_on_c, 1, 64, 110
3, 56635, Note_off_c, 1, 64, 127
3, 60300, Note_on_c, 1, 71, 110
3, 60300, Note_on_c, 1, 67, 110
3, 60300, Note_on_c, 1, 62, 110
3, 60879, Note_off_c, 1, 62, 127
3, 61020, Note_on_c, 1, 71, 110
3, 61020, Note_on_c, 1, 64, 110
3, 61435, Note_off_c, 1, 64, 127
3, 62939, Note_on_c, 1, 71, 110
3, 63175, Note_off_c, 1, 71, 127
3, 63179, Note_on_c, 1, 71, 110
3, 63654, Note_off_c, 1, 71, 127
3, 63660, Note_on_c, 1, 69, 110
3, 64679, Note_off_c, 1, 69, 127
3, 64860, Note_on_c, 1, 66, 110
3, 65275, Note_off_c, 1, 66, 127
3, 65339, Note_on_c, 1, 71, 110
3, 66600, Note_off_c, 1, 71, 127
3, 66779, Note_on_c, 1, 71, 110
3, 66779, Note_on_c, 1, 66, 110
3, 68039, Note_off_c, 1, 66, 127
3, 68220, Note_on_c, 1, 61, 110
3, 68454, Note_off_c, 1, 61, 127
3, 68460, Note_on_c, 1, 64, 110
3, 68695, Note_off_c, 1, 64, 127
3, 68700, Note_on_c, 1, 69, 110
3, 69114, Note_off_c, 1, 69, 127
3, 73500, Note_on_c, 1, 71, 110
3, 73735, Note_off_c, 1, 71, 127
3, 73739, Note_on_c, 1, 69, 110
3, 73975, Note_off_c, 1, 69, 127
3, 73979, Note_on_c, 1, 71, 110
3, 73979, Note_on_c, 1, 67, 110
3, 74395, Note_off_c, 1, 67, 127
3, 74460, Note_on_c, 1, 71, 110
3, 74460, Note_on_c, 1, 67, 110
3, 74460, Note_on_c, 1, 64, 110
3, 74460, Note_on_c, 1, 62, 110
3, 74875, Note_off_c, 1, 62, 127
3, 74939, Note_on_c, 1, 66, 110
3, 74939, Note_on_c, 1, 62, 110
3, 75760, Note_off_c, 1, 62, 127
3, 75900, Note_on_c, 1, 67, 110
3, 76135, Note_off_c, 1, 67, 127
3, 76139, Note_on_c, 1, 66, 110
3, 76375, Note_off_c, 1, 66, 127
3, 76379, Note_on_c, 1, 64, 110
3, 76795, Note_off_c, 1, 64, 127
3, 76860, Note_on_c, 1, 66, 110
3, 76860, Note_on_c, 1, 62, 110
3, 77679, Note_off_c, 1, 62, 127
3, 90300, Note_on_c, 1, 71, 110
3, 91014, Note_off_c, 1, 71, 127
3, 91020, Note_on_c, 1, 69, 110
3, 91254, Note_off_c, 1, 69, 127
3, 91260, Note_on_c, 1, 71, 110
3, 91260, Note_on_c, 1, 69, 110
3, 93000, Note_off_c, 1, 69, 127
3, 93179, Note_on_c, 1, 62, 110
3, 93535, Note_off_c, 1, 62, 127
3, 93539, Note_on_c, 1, 66, 110
3, 93835, Note_off_c, 1, 66, 127
3, 93839, Note_on_c, 1, 69, 110
3, 94479, Note_off_c, 1, 69, 127
3, 94860, Note_on_c, 1, 71, 110
3, 95095, Note_off_c, 1, 71, 127
3, 95100, Note_on_c, 1, 71, 110
3, 96839, Note_off_c, 1, 71, 127
3, 97020, Note_on_c, 1, 71, 110
3, 97435, Note_off_c, 1, 71, 127
3, 98700, Note_on_c, 1, 69, 110
3, 99279, Note_off_c, 1, 69, 127
3, 99900, Note_on_c, 1, 71, 110
3, 101160, Note_off_c, 1, 71, 127
3, 108540, Note_on_c, 1, 69, 110
3, 108540, Note_on_c, 1, 62, 110
3, 109015, Note_off_c, 1, 62, 127
3, 109020, Note_on_c, 1, 67, 110
3, 109020, Note_on_c, 1, 62, 110
3, 109495, Note_off_c, 1, 62, 127
3, 109500, Note_on_c, 1, 62, 110
3, 109500, Note_on_c, 1, 66, 110
3, 111240, Note_off_c, 1, 62, 127
3, 115200, Note_on_c, 1, 71, 110
3, 116040, Note_off_c, 1, 71, 127
3, 120059, Note_on_c, 1, 71, 110
3, 120879, Note_off_c, 1, 71, 127
3, 121020, Note_on_c, 1, 71, 110
3, 121254, Note_off_c, 1, 71, 127
3, 121259, Note_on_c, 1, 71, 110
3, 121840, Note_off_c, 1, 71, 127
3, 122940, Note_on_c, 1, 67, 110
3, 124200, Note_off_c, 1, 67, 127
3, 124379, Note_on_c, 1, 67, 110
3, 124795, Note_off_c, 1, 67, 127
3, 126779, Note_on_c, 1, 66, 110
3, 127600, Note_off_c, 1, 66, 127
3, 127740, Note_on_c, 1, 64, 110
3, 127740, Note_on_c, 1, 69, 110
3, 127975, Note_off_c, 1, 64, 127
3, 127979, Note_on_c, 1, 62, 110
3, 128215, Note_off_c, 1, 62, 127
3, 128220, Note_on_c, 1, 65, 110
3, 128454, Note_off_c, 1, 65, 127
3, 128459, Note_on_c, 1, 62, 110
3, 128695, Note_off_c, 1, 62, 127
3, 128700, Note_on_c, 1, 69, 110
3, 128700, Note_on_c, 1, 66, 110
3, 130440, Note_off_c, 1, 66, 127
3, 132540, Note_on_c, 1, 71, 110
3, 132954, Note_off_c, 1, 71, 127
3, 134400, End_track
4, 0, Start_track
4, 0, Title_t, "Staff-1"
4, 1980, Note_on_c, 2, 67, 110
4, 1980, Note_on_c, 2, 59, 110
4, 1980, Control_c, 2, 91, 0
4, 1980, Control_c, 2, 7, 127
4, 1980, Control_c, 2, 93, 0
4, 1980, Control_c, 2, 10, 64
4, 1980, Control_c, 2, 121, 0
4, 1980, Program_c, 2, 0
4, 1980, Control_c, 2, 32, 0
4, 1980, Control_c, 2, 0, 0
4, 2455, Note_off_c, 2, 59, 127
4, 2460, Note_on_c, 2, 61, 110
4, 2694, Note_off_c, 2, 61, 127
4, 2700, Note_on_c, 2, 62, 110
4, 2935, Note_off_c, 2, 62, 127
4, 2939, Note_on_c, 2, 66, 110
4, 2939, Note_on_c, 2, 61, 110
4, 3414, Note_off_c, 2, 61, 127
4, 3420, Note_on_c, 2, 57, 110
4, 3895, Note_off_c, 2, 57, 127
4, 3900, Note_on_c, 2, 64, 110
4, 3900, Note_on_c, 2, 55, 110
4, 4375, Note_off_c, 2, 55, 127
4, 4379, Note_on_c, 2, 57, 110
4, 4614, Note_off_c, 2, 57, 127
4, 4620, Note_on_c, 2, 59, 110
4, 4854, Note_off_c, 2, 59, 127
4, 4860, Note_on_c, 2, 62, 110
4, 4860, Note_on_c, 2, 57, 110
4, 5679, Note_off_c, 2, 57, 127
4, 6300, Note_on_c, 2, 55, 110
4, 6715, Note_off_c, 2, 55, 127
4, 6779, Note_on_c, 2, 57, 110
4, 7195, Note_off_c, 2, 57, 127
4, 7259, Note_on_c, 2, 59, 110
4, 7675, Note_off_c, 2, 59, 127
4, 8459, Note_on_c, 2, 55, 110
4, 8695, Note_off_c, 2, 55, 127
4, 8700, Note_on_c, 2, 59, 110
4, 9520, Note_off_c, 2, 59, 127
4, 10140, Note_on_c, 2, 55, 110
4, 10375, Note_off_c, 2, 55, 127
4, 10379, Note_on_c, 2, 59, 110
4, 10615, Note_off_c, 2, 59, 127
4, 10620, Note_on_c, 2, 55, 110
4, 11440, Note_off_c, 2, 55, 127
4, 12300, Note_on_c, 2, 57, 110
4, 13319, Note_off_c, 2, 57, 127
4, 14219, Note_on_c, 2, 57, 110
4, 15240, Note_off_c, 2, 57, 127
4, 16140, Note_on_c, 2, 57, 110
4, 17159, Note_off_c, 2, 57, 127
4, 17819, Note_on_c, 2, 57, 110
4, 18055, Note_off_c, 2, 57, 127
4, 18059, Note_on_c, 2, 61, 110
4, 18640, Note_off_c, 2, 61, 127
4, 18780, Note_on_c, 2, 59, 110
4, 19194, Note_off_c, 2, 59, 127
4, 19980, Note_on_c, 2, 55, 110
4, 20559, Note_off_c, 2, 55, 127
4, 21659, Note_on_c, 2, 55, 110
4, 22480, Note_off_c, 2, 55, 127
4, 23819, Note_on_c, 2, 57, 110
4, 24840, Note_off_c, 2, 57, 127
4, 25500, Note_on_c, 2, 57, 110
4, 25735, Note_off_c, 2, 57, 127
4, 25739, Note_on_c, 2, 61, 110
4, 26760, Note_off_c, 2, 61, 127
4, 26939, Note_on_c, 2, 62, 110
4, 26939, Note_on_c, 2, 57, 110
4, 26939, Note_on_c, 2, 55, 110
4, 27355, Note_off_c, 2, 55, 127
4, 27900, Note_on_c, 2, 55, 110
4, 28135, Note_off_c, 2, 55, 127
4, 28139, Note_on_c, 2, 57, 110
4, 28375, Note_off_c, 2, 57, 127
4, 28380, Note_on_c, 2, 62, 110
4, 28794, Note_off_c, 2, 62, 127
4, 29339, Note_on_c, 2, 55, 110
4, 29575, Note_off_c, 2, 55, 127
4, 29580, Note_on_c, 2, 62, 110
4, 29814, Note_off_c, 2, 62, 127
4, 29819, Note_on_c, 2, 61, 110
4, 30055, Note_off_c, 2, 61, 127
4, 30060, Note_on_c, 2, 64, 110
4, 30639, Note_off_c, 2, 64, 127
4, 31260, Note_on_c, 2, 64, 110
4, 31494, Note_off_c, 2, 64, 127
4, 31500, Note_on_c, 2, 66, 110
4, 31500, Note_on_c, 2, 62, 110
4, 32080, Note_off_c, 2, 62, 127
4, 32219, Note_on_c, 2, 62, 110
4, 32635, Note_off_c, 2, 62, 127
4, 33180, Note_on_c, 2, 57, 110
4, 33414, Note_off_c, 2, 57, 127
4, 33419, Note_on_c, 2, 61, 110
4, 33894, Note_off_c, 2, 61, 127
4, 33900, Note_on_c, 2, 59, 110
4, 34135, Note_off_c, 2, 59, 127
4, 34139, Note_on_c, 2, 57, 110
4, 34555, Note_off_c, 2, 57, 127
4, 35100, Note_on_c, 2, 55, 110
4, 35335, Note_off_c, 2, 55, 127
4, 35339, Note_on_c, 2, 67, 110
4, 35575, Note_off_c, 2, 67, 127
4, 35580, Note_on_c, 2, 66, 110
4, 35814, Note_off_c, 2, 66, 127
4, 35819, Note_on_c, 2, 62, 110
4, 36055, Note_off_c, 2, 62, 127
4, 36060, Note_on_c, 2, 64, 110
4, 36294, Note_off_c, 2, 64, 127
4, 36300, Note_on_c, 2, 59, 110
4, 36880, Note_off_c, 2, 59, 127
4, 37260, Note_on_c, 2, 57, 110
4, 37494, Note_off_c, 2, 57, 127
4, 37500, Note_on_c, 2, 64, 110
4, 37500, Note_on_c, 2, 61, 110
4, 37735, Note_off_c, 2, 61, 127
4, 37739, Note_on_c, 2, 57, 110
4, 37975, Note_off_c, 2, 57, 127
4, 37980, Note_on_c, 2, 62, 110
4, 37980, Note_on_c, 2, 59, 110
4, 38394, Note_off_c, 2, 59, 127
4, 38700, Note_on_c, 2, 55, 110
4, 38935, Note_off_c, 2, 55, 127
4, 38939, Note_on_c, 2, 58, 110
4, 39175, Note_off_c, 2, 58, 127
4, 39180, Note_on_c, 2, 62, 110
4, 39594, Note_off_c, 2, 62, 127
4, 39600, Note_on_c, 2, 74, 110
4, 39655, Note_off_c, 2, 74, 127
4, 39660, Note_on_c, 2, 81, 110
4, 39660, Note_on_c, 2, 78, 110
4, 40614, Note_off_c, 2, 78, 127
4, 40619, Note_on_c, 2, 61, 110
4, 40855, Note_off_c, 2, 61, 127
4, 40860, Note_on_c, 2, 57, 110
4, 41275, Note_off_c, 2, 57, 127
4, 46380, Note_on_c, 2, 57, 110
4, 46614, Note_off_c, 2, 57, 127
4, 46619, Note_on_c, 2, 61, 110
4, 46855, Note_off_c, 2, 61, 127
4, 46860, Note_on_c, 2, 57, 110
4, 47094, Note_off_c, 2, 57, 127
4, 47100, Note_on_c, 2, 62, 110
4, 47335, Note_off_c, 2, 62, 127
4, 47339, Note_on_c, 2, 57, 110
4, 47814, Note_off_c, 2, 57, 127
4, 47819, Note_on_c, 2, 57, 110
4, 48400, Note_off_c, 2, 57, 127
4, 48539, Note_on_c, 2, 61, 110
4, 48775, Note_off_c, 2, 61, 127
4, 48780, Note_on_c, 2, 57, 110
4, 49014, Note_off_c, 2, 57, 127
4, 49019, Note_on_c, 2, 64, 110
4, 49255, Note_off_c, 2, 64, 127
4, 49260, Note_on_c, 2, 62, 110
4, 49494, Note_off_c, 2, 62, 127
4, 49500, Note_on_c, 2, 61, 110
4, 49914, Note_off_c, 2, 61, 127
4, 50939, Note_on_c, 2, 55, 110
4, 51175, Note_off_c, 2, 55, 127
4, 51180, Note_on_c, 2, 66, 110
4, 51414, Note_off_c, 2, 66, 127
4, 51420, Note_on_c, 2, 64, 110
4, 51654, Note_off_c, 2, 64, 127
4, 51660, Note_on_c, 2, 62, 110
4, 52239, Note_off_c, 2, 62, 127
4, 52379, Note_on_c, 2, 55, 110
4, 52614, Note_off_c, 2, 55, 127
4, 52620, Note_on_c, 2, 59, 110
4, 53200, Note_off_c, 2, 59, 127
4, 53339, Note_on_c, 2, 55, 110
4, 53754, Note_off_c, 2, 55, 127
4, 54060, Note_on_c, 2, 57, 110
4, 54295, Note_off_c, 2, 57, 127
4, 54300, Note_on_c, 2, 61, 110
4, 54535, Note_off_c, 2, 61, 127
4, 54539, Note_on_c, 2, 57, 110
4, 54775, Note_off_c, 2, 57, 127
4, 54779, Note_on_c, 2, 62, 110
4, 55014, Note_off_c, 2, 62, 127
4, 55020, Note_on_c, 2, 57, 110
4, 55254, Note_off_c, 2, 57, 127
4, 55260, Note_on_c, 2, 66, 110
4, 55495, Note_off_c, 2, 66, 127
4, 55500, Note_on_c, 2, 57, 110
4, 56079, Note_off_c, 2, 57, 127
4, 56220, Note_on_c, 2, 61, 110
4, 56454, Note_off_c, 2, 61, 127
4, 56460, Note_on_c, 2, 57, 110
4, 56695, Note_off_c, 2, 57, 127
4, 56700, Note_on_c, 2, 64, 110
4, 57114, Note_off_c, 2, 64, 127
4, 57420, Note_on_c, 2, 57, 110
4, 58000, Note_off_c, 2, 57, 127
4, 58139, Note_on_c, 2, 55, 110
4, 58375, Note_off_c, 2, 55, 127
4, 58379, Note_on_c, 2, 57, 110
4, 58614, Note_off_c, 2, 57, 127
4, 58620, Note_on_c, 2, 59, 110
4, 58854, Note_off_c, 2, 59, 127
4, 58860, Note_on_c, 2, 62, 110
4, 59095, Note_off_c, 2, 62, 127
4, 59100, Note_on_c, 2, 67, 110
4, 59514, Note_off_c, 2, 67, 127
4, 60060, Note_on_c, 2, 57, 110
4, 60879, Note_off_c, 2, 57, 127
4, 61020, Note_on_c, 2, 57, 110
4, 61435, Note_off_c, 2, 57, 127
4, 61979, Note_on_c, 2, 61, 110
4, 62395, Note_off_c, 2, 61, 127
4, 62460, Note_on_c, 2, 64, 110
4, 62875, Note_off_c, 2, 64, 127
4, 62939, Note_on_c, 2, 62, 110
4, 63354, Note_off_c, 2, 62, 127
4, 63900, Note_on_c, 2, 59, 110
4, 64314, Note_off_c, 2, 59, 127
4, 64379, Note_on_c, 2, 61, 110
4, 64614, Note_off_c, 2, 61, 127
4, 64620, Note_on_c, 2, 59, 110
4, 64854, Note_off_c, 2, 59, 127
4, 64860, Note_on_c, 2, 62, 110
4, 64860, Note_on_c, 2, 57, 110
4, 65275, Note_off_c, 2, 57, 127
4, 65820, Note_on_c, 2, 57, 110
4, 66054, Note_off_c, 2, 57, 127
4, 66060, Note_on_c, 2, 55, 110
4, 66295, Note_off_c, 2, 55, 127
4, 66300, Note_on_c, 2, 59, 110
4, 66775, Note_off_c, 2, 59, 127
4, 66779, Note_on_c, 2, 56, 110
4, 67195, Note_off_c, 2, 56, 127
4, 67739, Note_on_c, 2, 57, 110
4, 67975, Note_off_c, 2, 57, 127
4, 67979, Note_on_c, 2, 62, 110
4, 68560, Note_off_c, 2, 62, 127
4, 69660, Note_on_c, 2, 57, 110
4, 69895, Note_off_c, 2, 57, 127
4, 69900, Note_on_c, 2, 64, 110
4, 70135, Note_off_c, 2, 64, 127
4, 70139, Note_on_c, 2, 62, 110
4, 70960, Note_off_c, 2, 62, 127
4, 71760, Note_on_c, 2, 55, 110
4, 71935, Note_off_c, 2, 55, 127
4, 71939, Note_on_c, 2, 62, 110
4, 72054, Note_off_c, 2, 62, 127
4, 72060, Note_on_c, 2, 59, 110
4, 72879, Note_off_c, 2, 59, 127
4, 73500, Note_on_c, 2, 66, 110
4, 73500, Note_on_c, 2, 55, 110
4, 73735, Note_off_c, 2, 55, 127
4, 73739, Note_on_c, 2, 64, 110
4, 73975, Note_off_c, 2, 64, 127
4, 73979, Note_on_c, 2, 62, 110
4, 74800, Note_off_c, 2, 62, 127
4, 75660, Note_on_c, 2, 61, 110
4, 75895, Note_off_c, 2, 61, 127
4, 75900, Note_on_c, 2, 62, 110
4, 75900, Note_on_c, 2, 59, 110
4, 76135, Note_off_c, 2, 59, 127
4, 76139, Note_on_c, 2, 61, 110
4, 76139, Note_on_c, 2, 57, 110
4, 76375, Note_off_c, 2, 57, 127
4, 76379, Note_on_c, 2, 59, 110
4, 76379, Note_on_c, 2, 55, 110
4, 76795, Note_off_c, 2, 55, 127
4, 76860, Note_on_c, 2, 57, 110
4, 77679, Note_off_c, 2, 57, 127
4, 78779, Note_on_c, 2, 55, 110
4, 79014, Note_off_c, 2, 55, 127
4, 79020, Note_on_c, 2, 59, 110
4, 79254, Note_off_c, 2, 59, 127
4, 79260, Note_on_c, 2, 62, 110
4, 79495, Note_off_c, 2, 62, 127
4, 79500, Note_on_c, 2, 69, 110
4, 79735, Note_off_c, 2, 69, 127
4, 79739, Note_on_c, 2, 55, 110
4, 79975, Note_off_c, 2, 55, 127
4, 79979, Note_on_c, 2, 59, 110
4, 80214, Note_off_c, 2, 59, 127
4, 80220, Note_on_c, 2, 62, 110
4, 80454, Note_off_c, 2, 62, 127
4, 80460, Note_on_c, 2, 67, 110
4, 80695, Note_off_c, 2, 67, 127
4, 80700, Note_on_c, 2, 55, 110
4, 80935, Note_off_c, 2, 55, 127
4, 80939, Note_on_c, 2, 59, 110
4, 81175, Note_off_c, 2, 59, 127
4, 81179, Note_on_c, 2, 62, 110
4, 81414, Note_off_c, 2, 62, 127
4, 81420, Note_on_c, 2, 66, 110
4, 81654, Note_off_c, 2, 66, 127
4, 81660, Note_on_c, 2, 55, 110
4, 81895, Note_off_c, 2, 55, 127
4, 81900, Note_on_c, 2, 59, 110
4, 82135, Note_off_c, 2, 59, 127
4, 82139, Note_on_c, 2, 62, 110
4, 82375, Note_off_c, 2, 62, 127
4, 82379, Note_on_c, 2, 64, 110
4, 82854, Note_off_c, 2, 64, 127
4, 82860, Note_on_c, 2, 57, 110
4, 83095, Note_off_c, 2, 57, 127
4, 83100, Note_on_c, 2, 62, 110
4, 83335, Note_off_c, 2, 62, 127
4, 83339, Note_on_c, 2, 67, 110
4, 83814, Note_off_c, 2, 67, 127
4, 83820, Note_on_c, 2, 57, 110
4, 84054, Note_off_c, 2, 57, 127
4, 84060, Note_on_c, 2, 62, 110
4, 84295, Note_off_c, 2, 62, 127
4, 84300, Note_on_c, 2, 66, 110
4, 84775, Note_off_c, 2, 66, 127
4, 84779, Note_on_c, 2, 57, 110
4, 85014, Note_off_c, 2, 57, 127
4, 85020, Note_on_c, 2, 61, 110
4, 85254, Note_off_c, 2, 61, 127
4, 85260, Note_on_c, 2, 64, 110
4, 85735, Note_off_c, 2, 64, 127
4, 85739, Note_on_c, 2, 57, 110
4, 85975, Note_off_c, 2, 57, 127
4, 85979, Note_on_c, 2, 59, 110
4, 86214, Note_off_c, 2, 59, 127
4, 86220, Note_on_c, 2, 62, 110
4, 86695, Note_off_c, 2, 62, 127
4, 86700, Note_on_c, 2, 55, 110
4, 86935, Note_off_c, 2, 55, 127
4, 86939, Note_on_c, 2, 59, 110
4, 87175, Note_off_c, 2, 59, 127
4, 87179, Note_on_c, 2, 64, 110
4, 87654, Note_off_c, 2, 64, 127
4, 87660, Note_on_c, 2, 55, 110
4, 87895, Note_off_c, 2, 55, 127
4, 87900, Note_on_c, 2, 59, 110
4, 88135, Note_off_c, 2, 59, 127
4, 88139, Note_on_c, 2, 62, 110
4, 88720, Note_off_c, 2, 62, 127
4, 88860, Note_on_c, 2, 57, 110
4, 89095, Note_off_c, 2, 57, 127
4, 89100, Note_on_c, 2, 62, 110
4, 89679, Note_off_c, 2, 62, 127
4, 89820, Note_on_c, 2, 57, 110
4, 90054, Note_off_c, 2, 57, 127
4, 90060, Note_on_c, 2, 61, 110
4, 90639, Note_off_c, 2, 61, 127
4, 91739, Note_on_c, 2, 55, 110
4, 91975, Note_off_c, 2, 55, 127
4, 91979, Note_on_c, 2, 59, 110
4, 92454, Note_off_c, 2, 59, 127
4, 92460, Note_on_c, 2, 56, 110
4, 92695, Note_off_c, 2, 56, 127
4, 92700, Note_on_c, 2, 62, 110
4, 92935, Note_off_c, 2, 62, 127
4, 92939, Note_on_c, 2, 59, 110
4, 93175, Note_off_c, 2, 59, 127
4, 93179, Note_on_c, 2, 55, 110
4, 93179, Note_on_c, 2, 60, 110
4, 93595, Note_off_c, 2, 55, 127
4, 94620, Note_on_c, 2, 55, 110
4, 94854, Note_off_c, 2, 55, 127
4, 94860, Note_on_c, 2, 57, 110
4, 95095, Note_off_c, 2, 57, 127
4, 95100, Note_on_c, 2, 59, 110
4, 95335, Note_off_c, 2, 59, 127
4, 95339, Note_on_c, 2, 62, 110
4, 95575, Note_off_c, 2, 62, 127
4, 95579, Note_on_c, 2, 67, 110
4, 95995, Note_off_c, 2, 67, 127
4, 96539, Note_on_c, 2, 59, 110
4, 96775, Note_off_c, 2, 59, 127
4, 96779, Note_on_c, 2, 62, 110
4, 97014, Note_off_c, 2, 62, 127
4, 97020, Note_on_c, 2, 64, 110
4, 97020, Note_on_c, 2, 59, 110
4, 97020, Note_on_c, 2, 56, 110
4, 97435, Note_off_c, 2, 56, 127
4, 97500, Note_on_c, 2, 62, 110
4, 97914, Note_off_c, 2, 62, 127
4, 98460, Note_on_c, 2, 57, 110
4, 98695, Note_off_c, 2, 57, 127
4, 98700, Note_on_c, 2, 59, 110
4, 98935, Note_off_c, 2, 59, 127
4, 98939, Note_on_c, 2, 61, 110
4, 99175, Note_off_c, 2, 61, 127
4, 99179, Note_on_c, 2, 64, 110
4, 99414, Note_off_c, 2, 64, 127
4, 99420, Note_on_c, 2, 69, 110
4, 99654, Note_off_c, 2, 69, 127
4, 99660, Note_on_c, 2, 64, 110
4, 99895, Note_off_c, 2, 64, 127
4, 99900, Note_on_c, 2, 67, 110
4, 100135, Note_off_c, 2, 67, 127
4, 100139, Note_on_c, 2, 66, 110
4, 100375, Note_off_c, 2, 66, 127
4, 100379, Note_on_c, 2, 63, 110
4, 100614, Note_off_c, 2, 63, 127
4, 100620, Note_on_c, 2, 59, 110
4, 100854, Note_off_c, 2, 59, 127
4, 100860, Note_on_c, 2, 57, 110
4, 101275, Note_off_c, 2, 57, 127
4, 102300, Note_on_c, 2, 55, 110
4, 102300, Note_on_c, 2, 62, 110
4, 102300, Note_on_c, 2, 66, 110
4, 102300, Note_on_c, 2, 59, 110
4, 102775, Note_off_c, 2, 55, 127
4, 102779, Note_on_c, 2, 74, 110
4, 102779, Note_on_c, 2, 67, 110
4, 102779, Note_on_c, 2, 62, 110
4, 102779, Note_on_c, 2, 58, 110
4, 103600, Note_off_c, 2, 58, 127
4, 104220, Note_on_c, 2, 57, 110
4, 104454, Note_off_c, 2, 57, 127
4, 104459, Note_on_c, 2, 62, 110
4, 104695, Note_off_c, 2, 62, 127
4, 104700, Note_on_c, 2, 57, 110
4, 104700, Note_on_c, 2, 61, 110
4, 104700, Note_on_c, 2, 55, 110
4, 105115, Note_off_c, 2, 55, 127
4, 105179, Note_on_c, 2, 64, 110
4, 105595, Note_off_c, 2, 64, 127
4, 106379, Note_on_c, 2, 55, 110
4, 106615, Note_off_c, 2, 55, 127
4, 106620, Note_on_c, 2, 57, 110
4, 106854, Note_off_c, 2, 57, 127
4, 106859, Note_on_c, 2, 55, 110
4, 107095, Note_off_c, 2, 55, 127
4, 107100, Note_on_c, 2, 62, 110
4, 107100, Note_on_c, 2, 66, 110
4, 107515, Note_off_c, 2, 62, 127
4, 108540, Note_on_c, 2, 61, 110
4, 108954, Note_off_c, 2, 61, 127
4, 109020, Note_on_c, 2, 59, 110
4, 109434, Note_off_c, 2, 59, 127
4, 109500, Note_on_c, 2, 57, 110
4, 110320, Note_off_c, 2, 57, 127
4, 111420, Note_on_c, 2, 57, 110
4, 111654, Note_off_c, 2, 57, 127
4, 111659, Note_on_c, 2, 64, 110
4, 111895, Note_off_c, 2, 64, 127
4, 111900, Note_on_c, 2, 62, 110
4, 112134, Note_off_c, 2, 62, 127
4, 112140, Note_on_c, 2, 69, 110
4, 112720, Note_off_c, 2, 69, 127
4, 113279, Note_on_c, 2, 62, 110
4, 113334, Note_off_c, 2, 62, 127
4, 113340, Note_on_c, 2, 71, 110
4, 113340, Note_on_c, 2, 67, 110
4, 115079, Note_off_c, 2, 67, 127
4, 115200, Note_on_c, 2, 59, 110
4, 115254, Note_off_c, 2, 59, 127
4, 115259, Note_on_c, 2, 68, 110
4, 115259, Note_on_c, 2, 65, 110
4, 117000, Note_off_c, 2, 65, 127
4, 117120, Note_on_c, 2, 57, 110
4, 117175, Note_off_c, 2, 57, 127
4, 117179, Note_on_c, 2, 66, 110
4, 118920, Note_off_c, 2, 66, 127
4, 119040, Note_on_c, 2, 64, 110
4, 119095, Note_off_c, 2, 64, 127
4, 119100, Note_on_c, 2, 69, 110
4, 119100, Note_on_c, 2, 66, 110
4, 120054, Note_off_c, 2, 66, 127
4, 120059, Note_on_c, 2, 63, 110
4, 120879, Note_off_c, 2, 63, 127
4, 121020, Note_on_c, 2, 67, 110
4, 121020, Note_on_c, 2, 66, 110
4, 121254, Note_off_c, 2, 66, 127
4, 121259, Note_on_c, 2, 67, 110
4, 121259, Note_on_c, 2, 64, 110
4, 121495, Note_off_c, 2, 64, 127
4, 121500, Note_on_c, 2, 62, 110
4, 121500, Note_on_c, 2, 71, 110
4, 121500, Note_on_c, 2, 67, 110
4, 121915, Note_off_c, 2, 62, 127
4, 121979, Note_on_c, 2, 70, 110
4, 121979, Note_on_c, 2, 64, 110
4, 121979, Note_on_c, 2, 60, 110
4, 121979, Note_on_c, 2, 74, 110
4, 122800, Note_off_c, 2, 60, 127
4, 123179, Note_on_c, 2, 55, 110
4, 123415, Note_off_c, 2, 55, 127
4, 123420, Note_on_c, 2, 57, 110
4, 123654, Note_off_c, 2, 57, 127
4, 123659, Note_on_c, 2, 58, 110
4, 123895, Note_off_c, 2, 58, 127
4, 123900, Note_on_c, 2, 62, 110
4, 124134, Note_off_c, 2, 62, 127
4, 124140, Note_on_c, 2, 69, 110
4, 124375, Note_off_c, 2, 69, 127
4, 124379, Note_on_c, 2, 57, 110
4, 124379, Note_on_c, 2, 64, 110
4, 124795, Note_off_c, 2, 57, 127
4, 125340, Note_on_c, 2, 55, 110
4, 125575, Note_off_c, 2, 55, 127
4, 125579, Note_on_c, 2, 57, 110
4, 125815, Note_off_c, 2, 57, 127
4, 125820, Note_on_c, 2, 59, 110
4, 126054, Note_off_c, 2, 59, 127
4, 126059, Note_on_c, 2, 62, 110
4, 126295, Note_off_c, 2, 62, 127
4, 126300, Note_on_c, 2, 65, 110
4, 126715, Note_off_c, 2, 65, 127
4, 127500, Note_on_c, 2, 57, 110
4, 127734, Note_off_c, 2, 57, 127
4, 127740, Note_on_c, 2, 58, 110
4, 128215, Note_off_c, 2, 58, 127
4, 128220, Note_on_c, 2, 56, 110
4, 128634, Note_off_c, 2, 56, 127
4, 134400, End_track
5, 0, Start_track
5, 0, Title_t, "Staff-2-2"
5, 0, Control_c, 3, 121, 0
5, 0, Program_c, 3, 0
5, 0, Control_c, 3, 32, 0
5, 0, Control_c, 3, 0, 0
5, 0, Control_c, 3, 7, 127
5, 0, Control_c, 3, 10, 64
5, 0, Control_c, 3, 91, 0
5, 0, Control_c, 3, 7, 100
5, 0, Control_c, 3, 93, 0
5, 0, Control_c, 3, 10, 64
5, 60, Note_on_c, 3, 81, 110
5, 115, Note_off_c, 3, 81, 127
5, 120, Note_on_c, 3, 93, 110
5, 355, Note_off_c, 3, 93, 127
5, 360, Note_on_c, 3, 91, 110
5, 595, Note_off_c, 3, 91, 127
5, 600, Note_on_c, 3, 90, 110
5, 715, Note_off_c, 3, 90, 127
5, 720, Note_on_c, 3, 86, 110
5, 894, Note_off_c, 3, 86, 127
5, 900, Note_on_c, 3, 85, 110
5, 1075, Note_off_c, 3, 85, 127
5, 1080, Note_on_c, 3, 81, 110
5, 1194, Note_off_c, 3, 81, 127
5, 1200, Note_on_c, 3, 79, 110
5, 1375, Note_off_c, 3, 79, 127
5, 1380, Note_on_c, 3, 78, 110
5, 1555, Note_off_c, 3, 78, 127
5, 1560, Note_on_c, 3, 74, 110
5, 1855, Note_off_c, 3, 74, 127
5, 1860, Note_on_c, 3, 74, 110
5, 2035, Note_off_c, 3, 74, 127
5, 2039, Note_on_c, 3, 74, 110
5, 2514, Note_off_c, 3, 74, 127
5, 2519, Note_on_c, 3, 76, 110
5, 2755, Note_off_c, 3, 76, 127
5, 2760, Note_on_c, 3, 78, 110
5, 2994, Note_off_c, 3, 78, 127
5, 3000, Note_on_c, 3, 76, 110
5, 3475, Note_off_c, 3, 76, 127
5, 3479, Note_on_c, 3, 73, 110
5, 4239, Note_off_c, 3, 73, 127
5, 4439, Note_on_c, 3, 73, 110
5, 4675, Note_off_c, 3, 73, 127
5, 4679, Note_on_c, 3, 74, 110
5, 4914, Note_off_c, 3, 74, 127
5, 4920, Note_on_c, 3, 73, 110
5, 5275, Note_off_c, 3, 73, 127
5, 7079, Note_on_c, 3, 74, 110
5, 7554, Note_off_c, 3, 74, 127
5, 7559, Note_on_c, 3, 74, 110
5, 8079, Note_off_c, 3, 74, 127
5, 8520, Note_on_c, 3, 74, 110
5, 9040, Note_off_c, 3, 74, 127
5, 10979, Note_on_c, 3, 73, 110
5, 11440, Note_off_c, 3, 73, 127
5, 13019, Note_on_c, 3, 81, 110
5, 13075, Note_off_c, 3, 81, 127
5, 13080, Note_on_c, 3, 93, 110
5, 13434, Note_off_c, 3, 93, 127
5, 24840, Note_on_c, 3, 73, 110
5, 26280, Note_off_c, 3, 73, 127
5, 27000, Note_on_c, 3, 73, 110
5, 27235, Note_off_c, 3, 73, 127
5, 27239, Note_on_c, 3, 74, 110
5, 27760, Note_off_c, 3, 74, 127
5, 30839, Note_on_c, 3, 74, 110
5, 31555, Note_off_c, 3, 74, 127
5, 31560, Note_on_c, 3, 74, 110
5, 31794, Note_off_c, 3, 74, 127
5, 31800, Note_on_c, 3, 73, 110
5, 32560, Note_off_c, 3, 73, 127
5, 43019, Note_on_c, 3, 78, 110
5, 43019, Note_on_c, 3, 73, 110
5, 43075, Note_off_c, 3, 73, 127
5, 43080, Note_on_c, 3, 85, 110
5, 43600, Note_off_c, 3, 85, 127
5, 43800, Note_on_c, 3, 83, 110
5, 43800, Note_on_c, 3, 74, 110
5, 44155, Note_off_c, 3, 74, 127
5, 44580, Note_on_c, 3, 93, 110
5, 44755, Note_off_c, 3, 93, 127
5, 44760, Note_on_c, 3, 91, 110
5, 44875, Note_off_c, 3, 91, 127
5, 44880, Note_on_c, 3, 90, 110
5, 45055, Note_off_c, 3, 90, 127
5, 45060, Note_on_c, 3, 86, 110
5, 45235, Note_off_c, 3, 86, 127
5, 45239, Note_on_c, 3, 81, 110
5, 45355, Note_off_c, 3, 81, 127
5, 45360, Note_on_c, 3, 79, 110
5, 45475, Note_off_c, 3, 79, 127
5, 45480, Note_on_c, 3, 78, 110
5, 45594, Note_off_c, 3, 78, 127
5, 45600, Note_on_c, 3, 74, 110
5, 46000, Note_off_c, 3, 74, 127
5, 46200, Note_on_c, 3, 74, 110
5, 46675, Note_off_c, 3, 74, 127
5, 46680, Note_on_c, 3, 76, 110
5, 47155, Note_off_c, 3, 76, 127
5, 47160, Note_on_c, 3, 78, 110
5, 47635, Note_off_c, 3, 78, 127
5, 47639, Note_on_c, 3, 81, 110
5, 47875, Note_off_c, 3, 81, 127
5, 47880, Note_on_c, 3, 78, 110
5, 48594, Note_off_c, 3, 78, 127
5, 48600, Note_on_c, 3, 76, 110
5, 48714, Note_off_c, 3, 76, 127
5, 48719, Note_on_c, 3, 74, 110
5, 48835, Note_off_c, 3, 74, 127
5, 48839, Note_on_c, 3, 73, 110
5, 49360, Note_off_c, 3, 73, 127
5, 50039, Note_on_c, 3, 76, 110
5, 50275, Note_off_c, 3, 76, 127
5, 50280, Note_on_c, 3, 78, 110
5, 50514, Note_off_c, 3, 78, 127
5, 50519, Note_on_c, 3, 74, 110
5, 51714, Note_off_c, 3, 74, 127
5, 51720, Note_on_c, 3, 74, 110
5, 52195, Note_off_c, 3, 74, 127
5, 52200, Note_on_c, 3, 76, 110
5, 53160, Note_off_c, 3, 76, 127
5, 53879, Note_on_c, 3, 74, 110
5, 54354, Note_off_c, 3, 74, 127
5, 54360, Note_on_c, 3, 76, 110
5, 54835, Note_off_c, 3, 76, 127
5, 54839, Note_on_c, 3, 78, 110
5, 55314, Note_off_c, 3, 78, 127
5, 55320, Note_on_c, 3, 81, 110
5, 55554, Note_off_c, 3, 81, 127
5, 55560, Note_on_c, 3, 85, 110
5, 56275, Note_off_c, 3, 85, 127
5, 56279, Note_on_c, 3, 76, 110
5, 56395, Note_off_c, 3, 76, 127
5, 56400, Note_on_c, 3, 74, 110
5, 56514, Note_off_c, 3, 74, 127
5, 56520, Note_on_c, 3, 73, 110
5, 56995, Note_off_c, 3, 73, 127
5, 57000, Note_on_c, 3, 74, 110
5, 57235, Note_off_c, 3, 74, 127
5, 57239, Note_on_c, 3, 81, 110
5, 57595, Note_off_c, 3, 81, 127
5, 57720, Note_on_c, 3, 85, 110
5, 57720, Note_on_c, 3, 79, 110
5, 57720, Note_on_c, 3, 74, 110
5, 57954, Note_off_c, 3, 74, 127
5, 57960, Note_on_c, 3, 86, 110
5, 58195, Note_off_c, 3, 86, 127
5, 58200, Note_on_c, 3, 83, 110
5, 58914, Note_off_c, 3, 83, 127
5, 58920, Note_on_c, 3, 81, 110
5, 59154, Note_off_c, 3, 81, 127
5, 59160, Note_on_c, 3, 83, 110
5, 59395, Note_off_c, 3, 83, 127
5, 59400, Note_on_c, 3, 81, 110
5, 60839, Note_off_c, 3, 81, 127
5, 61079, Note_on_c, 3, 73, 110
5, 61314, Note_off_c, 3, 73, 127
5, 61320, Note_on_c, 3, 81, 110
5, 61554, Note_off_c, 3, 81, 127
5, 61560, Note_on_c, 3, 86, 110
5, 61560, Note_on_c, 3, 78, 110
5, 61560, Note_on_c, 3, 74, 110
5, 62275, Note_off_c, 3, 74, 127
5, 62279, Note_on_c, 3, 86, 110
5, 62279, Note_on_c, 3, 78, 110
5, 62279, Note_on_c, 3, 74, 110
5, 62514, Note_off_c, 3, 74, 127
5, 62520, Note_on_c, 3, 85, 110
5, 62520, Note_on_c, 3, 78, 110
5, 62520, Note_on_c, 3, 73, 110
5, 62995, Note_off_c, 3, 73, 127
5, 63000, Note_on_c, 3, 83, 110
5, 63000, Note_on_c, 3, 78, 110
5, 63235, Note_off_c, 3, 78, 127
5, 63239, Note_on_c, 3, 83, 110
5, 63239, Note_on_c, 3, 78, 110
5, 63714, Note_off_c, 3, 78, 127
5, 63720, Note_on_c, 3, 81, 110
5, 63720, Note_on_c, 3, 76, 110
5, 64679, Note_off_c, 3, 76, 127
5, 64920, Note_on_c, 3, 78, 110
5, 64920, Note_on_c, 3, 73, 110
5, 65154, Note_off_c, 3, 73, 127
5, 65160, Note_on_c, 3, 81, 110
5, 65395, Note_off_c, 3, 81, 127
5, 65400, Note_on_c, 3, 83, 110
5, 65400, Note_on_c, 3, 74, 110
5, 66114, Note_off_c, 3, 74, 127
5, 66120, Note_on_c, 3, 83, 110
5, 66354, Note_off_c, 3, 83, 127
5, 66360, Note_on_c, 3, 81, 110
5, 66595, Note_off_c, 3, 81, 127
5, 66600, Note_on_c, 3, 79, 110
5, 66835, Note_off_c, 3, 79, 127
5, 66839, Note_on_c, 3, 74, 110
5, 67075, Note_off_c, 3, 74, 127
5, 67079, Note_on_c, 3, 78, 110
5, 67554, Note_off_c, 3, 78, 127
5, 67560, Note_on_c, 3, 76, 110
5, 68995, Note_off_c, 3, 76, 127
5, 69000, Note_on_c, 3, 73, 110
5, 69235, Note_off_c, 3, 73, 127
5, 69239, Note_on_c, 3, 74, 110
5, 69595, Note_off_c, 3, 74, 127
5, 69720, Note_on_c, 3, 76, 110
5, 70075, Note_off_c, 3, 76, 127
5, 70200, Note_on_c, 3, 78, 110
5, 70554, Note_off_c, 3, 78, 127
5, 70679, Note_on_c, 3, 79, 110
5, 70914, Note_off_c, 3, 79, 127
5, 70920, Note_on_c, 3, 81, 110
5, 71879, Note_off_c, 3, 81, 127
5, 72360, Note_on_c, 3, 81, 110
5, 72595, Note_off_c, 3, 81, 127
5, 72600, Note_on_c, 3, 79, 110
5, 72835, Note_off_c, 3, 79, 127
5, 72839, Note_on_c, 3, 74, 110
5, 73075, Note_off_c, 3, 74, 127
5, 73079, Note_on_c, 3, 78, 110
5, 73554, Note_off_c, 3, 78, 127
5, 73560, Note_on_c, 3, 74, 110
5, 73795, Note_off_c, 3, 74, 127
5, 73800, Note_on_c, 3, 73, 110
5, 74320, Note_off_c, 3, 73, 127
5, 74520, Note_on_c, 3, 76, 110
5, 74754, Note_off_c, 3, 76, 127
5, 74760, Note_on_c, 3, 74, 110
5, 74995, Note_off_c, 3, 74, 127
5, 75000, Note_on_c, 3, 74, 110
5, 76679, Note_off_c, 3, 74, 127
5, 77879, Note_on_c, 3, 74, 110
5, 78175, Note_off_c, 3, 74, 127
5, 78179, Note_on_c, 3, 78, 110
5, 78475, Note_off_c, 3, 78, 127
5, 78479, Note_on_c, 3, 81, 110
5, 78835, Note_off_c, 3, 81, 127
5, 78839, Note_on_c, 3, 85, 110
5, 79554, Note_off_c, 3, 85, 127
5, 79560, Note_on_c, 3, 83, 110
5, 79795, Note_off_c, 3, 83, 127
5, 79800, Note_on_c, 3, 83, 110
5, 81479, Note_off_c, 3, 83, 127
5, 81720, Note_on_c, 3, 83, 110
5, 82014, Note_off_c, 3, 83, 127
5, 82020, Note_on_c, 3, 85, 110
5, 82314, Note_off_c, 3, 85, 127
5, 82320, Note_on_c, 3, 86, 110
5, 82675, Note_off_c, 3, 86, 127
5, 82679, Note_on_c, 3, 83, 110
5, 83395, Note_off_c, 3, 83, 127
5, 83400, Note_on_c, 3, 81, 110
5, 83635, Note_off_c, 3, 81, 127
5, 83639, Note_on_c, 3, 81, 110
5, 85320, Note_off_c, 3, 81, 127
5, 85560, Note_on_c, 3, 78, 110
5, 85854, Note_off_c, 3, 78, 127
5, 85860, Note_on_c, 3, 78, 110
5, 86154, Note_off_c, 3, 78, 127
5, 86160, Note_on_c, 3, 79, 110
5, 86514, Note_off_c, 3, 79, 127
5, 86520, Note_on_c, 3, 81, 110
5, 87235, Note_off_c, 3, 81, 127
5, 87239, Note_on_c, 3, 79, 110
5, 87354, Note_off_c, 3, 79, 127
5, 87360, Note_on_c, 3, 78, 110
5, 87475, Note_off_c, 3, 78, 127
5, 87479, Note_on_c, 3, 79, 110
5, 89160, Note_off_c, 3, 79, 127
5, 89400, Note_on_c, 3, 79, 110
5, 89400, Note_on_c, 3, 76, 110
5, 89695, Note_off_c, 3, 76, 127
5, 89700, Note_on_c, 3, 81, 110
5, 89700, Note_on_c, 3, 78, 110
5, 89995, Note_off_c, 3, 78, 127
5, 90000, Note_on_c, 3, 83, 110
5, 90000, Note_on_c, 3, 79, 110
5, 90354, Note_off_c, 3, 79, 127
5, 90360, Note_on_c, 3, 83, 110
5, 90360, Note_on_c, 3, 78, 110
5, 90360, Note_on_c, 3, 74, 110
5, 91075, Note_off_c, 3, 74, 127
5, 91079, Note_on_c, 3, 81, 110
5, 91314, Note_off_c, 3, 81, 127
5, 91320, Note_on_c, 3, 81, 110
5, 91320, Note_on_c, 3, 74, 110
5, 93000, Note_off_c, 3, 74, 127
5, 93239, Note_on_c, 3, 74, 110
5, 93535, Note_off_c, 3, 74, 127
5, 93539, Note_on_c, 3, 78, 110
5, 93835, Note_off_c, 3, 78, 127
5, 93839, Note_on_c, 3, 81, 110
5, 94195, Note_off_c, 3, 81, 127
5, 94200, Note_on_c, 3, 85, 110
5, 94200, Note_on_c, 3, 78, 110
5, 94200, Note_on_c, 3, 73, 110
5, 94914, Note_off_c, 3, 73, 127
5, 94920, Note_on_c, 3, 83, 110
5, 95154, Note_off_c, 3, 83, 127
5, 95160, Note_on_c, 3, 78, 110
5, 95160, Note_on_c, 3, 74, 110
5, 95160, Note_on_c, 3, 83, 110
5, 96839, Note_off_c, 3, 74, 127
5, 97079, Note_on_c, 3, 83, 110
5, 97375, Note_off_c, 3, 83, 127
5, 97379, Note_on_c, 3, 85, 110
5, 97379, Note_on_c, 3, 73, 110
5, 97675, Note_off_c, 3, 73, 127
5, 97679, Note_on_c, 3, 74, 110
5, 97679, Note_on_c, 3, 86, 110
5, 98035, Note_off_c, 3, 74, 127
5, 98039, Note_on_c, 3, 85, 110
5, 98039, Note_on_c, 3, 73, 110
5, 98039, Note_on_c, 3, 76, 110
5, 98039, Note_on_c, 3, 81, 110
5, 98754, Note_off_c, 3, 73, 127
5, 98760, Note_on_c, 3, 81, 110
5, 99279, Note_off_c, 3, 81, 127
5, 99479, Note_on_c, 3, 73, 110
5, 99479, Note_on_c, 3, 85, 110
5, 99835, Note_off_c, 3, 73, 127
5, 99960, Note_on_c, 3, 83, 110
5, 101160, Note_off_c, 3, 83, 127
5, 101639, Note_on_c, 3, 81, 110
5, 101875, Note_off_c, 3, 81, 127
5, 101879, Note_on_c, 3, 81, 110
5, 102114, Note_off_c, 3, 81, 127
5, 102120, Note_on_c, 3, 79, 110
5, 102354, Note_off_c, 3, 79, 127
5, 102360, Note_on_c, 3, 86, 110
5, 102360, Note_on_c, 3, 79, 110
5, 102360, Note_on_c, 3, 74, 110
5, 102834, Note_off_c, 3, 74, 127
5, 102840, Note_on_c, 3, 74, 110
5, 102840, Note_on_c, 3, 79, 110
5, 103554, Note_off_c, 3, 74, 127
5, 103559, Note_on_c, 3, 74, 110
5, 103675, Note_off_c, 3, 74, 127
5, 103679, Note_on_c, 3, 76, 110
5, 103795, Note_off_c, 3, 76, 127
5, 103800, Note_on_c, 3, 78, 110
5, 104515, Note_off_c, 3, 78, 127
5, 104520, Note_on_c, 3, 78, 110
5, 104995, Note_off_c, 3, 78, 127
5, 105000, Note_on_c, 3, 76, 110
5, 105234, Note_off_c, 3, 76, 127
5, 105240, Note_on_c, 3, 74, 110
5, 105475, Note_off_c, 3, 74, 127
5, 105479, Note_on_c, 3, 73, 110
5, 105715, Note_off_c, 3, 73, 127
5, 105720, Note_on_c, 3, 76, 110
5, 107395, Note_off_c, 3, 76, 127
5, 107400, Note_on_c, 3, 74, 110
5, 107634, Note_off_c, 3, 74, 127
5, 107640, Note_on_c, 3, 74, 110
5, 111240, Note_off_c, 3, 74, 127
5, 112440, Note_on_c, 3, 76, 110
5, 112675, Note_off_c, 3, 76, 127
5, 112679, Note_on_c, 3, 74, 110
5, 112915, Note_off_c, 3, 74, 127
5, 112920, Note_on_c, 3, 78, 110
5, 113154, Note_off_c, 3, 78, 127
5, 113159, Note_on_c, 3, 81, 110
5, 113334, Note_off_c, 3, 81, 127
5, 113340, Note_on_c, 3, 78, 110
5, 113340, Note_on_c, 3, 74, 110
5, 113395, Note_off_c, 3, 74, 127
5, 113400, Note_on_c, 3, 85, 110
5, 114115, Note_off_c, 3, 85, 127
5, 114120, Note_on_c, 3, 83, 110
5, 114354, Note_off_c, 3, 83, 127
5, 114359, Note_on_c, 3, 83, 110
5, 115254, Note_off_c, 3, 83, 127
5, 115259, Note_on_c, 3, 76, 110
5, 115315, Note_off_c, 3, 76, 127
5, 115320, Note_on_c, 3, 80, 110
5, 116079, Note_off_c, 3, 80, 127
5, 116279, Note_on_c, 3, 74, 110
5, 116279, Note_on_c, 3, 83, 110
5, 116575, Note_off_c, 3, 74, 127
5, 116579, Note_on_c, 3, 85, 110
5, 116579, Note_on_c, 3, 76, 110
5, 116875, Note_off_c, 3, 76, 127
5, 116879, Note_on_c, 3, 86, 110
5, 116879, Note_on_c, 3, 77, 110
5, 117175, Note_off_c, 3, 77, 127
5, 117179, Note_on_c, 3, 73, 110
5, 117179, Note_on_c, 3, 78, 110
5, 117234, Note_off_c, 3, 73, 127
5, 117240, Note_on_c, 3, 85, 110
5, 117954, Note_off_c, 3, 85, 127
5, 117959, Note_on_c, 3, 81, 110
5, 118479, Note_off_c, 3, 81, 127
5, 118679, Note_on_c, 3, 85, 110
5, 119034, Note_off_c, 3, 85, 127
5, 119100, Note_on_c, 3, 78, 110
5, 119100, Note_on_c, 3, 73, 110
5, 119154, Note_off_c, 3, 73, 127
5, 119159, Note_on_c, 3, 83, 110
5, 120359, Note_off_c, 3, 83, 127
5, 120600, Note_on_c, 3, 81, 110
5, 120954, Note_off_c, 3, 81, 127
5, 121079, Note_on_c, 3, 81, 110
5, 121079, Note_on_c, 3, 74, 110
5, 121315, Note_off_c, 3, 74, 127
5, 121320, Note_on_c, 3, 74, 110
5, 121320, Note_on_c, 3, 79, 110
5, 121554, Note_off_c, 3, 74, 127
5, 121559, Note_on_c, 3, 86, 110
5, 121559, Note_on_c, 3, 74, 110
5, 121559, Note_on_c, 3, 78, 110
5, 121915, Note_off_c, 3, 74, 127
5, 122040, Note_on_c, 3, 79, 110
5, 122754, Note_off_c, 3, 79, 127
5, 122759, Note_on_c, 3, 74, 110
5, 122875, Note_off_c, 3, 74, 127
5, 122879, Note_on_c, 3, 76, 110
5, 122995, Note_off_c, 3, 76, 127
5, 123000, Note_on_c, 3, 74, 110
5, 123000, Note_on_c, 3, 78, 110
5, 123715, Note_off_c, 3, 74, 127
5, 123720, Note_on_c, 3, 78, 110
5, 124195, Note_off_c, 3, 78, 127
5, 124200, Note_on_c, 3, 76, 110
5, 124434, Note_off_c, 3, 76, 127
5, 124440, Note_on_c, 3, 74, 110
5, 124675, Note_off_c, 3, 74, 127
5, 124679, Note_on_c, 3, 73, 110
5, 124915, Note_off_c, 3, 73, 127
5, 124920, Note_on_c, 3, 76, 110
5, 126595, Note_off_c, 3, 76, 127
5, 126600, Note_on_c, 3, 74, 110
5, 126834, Note_off_c, 3, 74, 127
5, 126840, Note_on_c, 3, 74, 110
5, 127600, Note_off_c, 3, 74, 127
5, 128279, Note_on_c, 3, 72, 110
5, 128634, Note_off_c, 3, 72, 127
5, 128759, Note_on_c, 3, 76, 110
5, 128759, Note_on_c, 3, 73, 110
5, 129234, Note_off_c, 3, 73, 127
5, 129240, Note_on_c, 3, 88, 110
5, 129295, Note_off_c, 3, 88, 127
5, 129300, Note_on_c, 3, 86, 110
5, 129354, Note_off_c, 3, 86, 127
5, 129359, Note_on_c, 3, 85, 110
5, 129475, Note_off_c, 3, 85, 127
5, 129479, Note_on_c, 3, 81, 110
5, 129534, Note_off_c, 3, 81, 127
5, 129540, Note_on_c, 3, 80, 110
5, 129595, Note_off_c, 3, 80, 127
5, 129600, Note_on_c, 3, 81, 110
5, 129715, Note_off_c, 3, 81, 127
5, 129720, Note_on_c, 3, 83, 110
5, 129775, Note_off_c, 3, 83, 127
5, 129779, Note_on_c, 3, 81, 110
5, 129834, Note_off_c, 3, 81, 127
5, 129840, Note_on_c, 3, 80, 110
5, 129954, Note_off_c, 3, 80, 127
5, 129959, Note_on_c, 3, 76, 110
5, 130015, Note_off_c, 3, 76, 127
5, 130020, Note_on_c, 3, 74, 110
5, 130075, Note_off_c, 3, 74, 127
5, 130079, Note_on_c, 3, 73, 110
5, 130195, Note_off_c, 3, 73, 127
5, 130200, Note_on_c, 3, 74, 110
5, 130254, Note_off_c, 3, 74, 127
5, 130259, Note_on_c, 3, 76, 110
5, 130315, Note_off_c, 3, 76, 127
5, 130320, Note_on_c, 3, 80, 110
5, 130434, Note_off_c, 3, 80, 127
5, 130440, Note_on_c, 3, 76, 110
5, 130554, Note_off_c, 3, 76, 127
5, 134400, End_track
6, 0, Start_track
6, 0, Title_t, "Staff-2-3"
6, 0, Control_c, 4, 7, 127
6, 0, Control_c, 4, 91, 0
6, 0, Control_c, 4, 7, 100
6, 0, Control_c, 4, 93, 0
6, 0, Control_c, 4, 10, 64
6, 0, Control_c, 4, 121, 0
6, 0, Program_c, 4, 0
6, 0, Control_c, 4, 32, 0
6, 0, Control_c, 4, 0, 0
6, 0, Control_c, 4, 10, 64
6, 1680, Note_on_c, 4, 69, 110
6, 1914, Note_off_c, 4, 69, 127
6, 2039, Note_on_c, 4, 69, 110
6, 2800, Note_off_c, 4, 69, 127
6, 3000, Note_on_c, 4, 69, 110
6, 3760, Note_off_c, 4, 69, 127
6, 3960, Note_on_c, 4, 71, 110
6, 3960, Note_on_c, 4, 66, 110
6, 4720, Note_off_c, 4, 66, 127
6, 4920, Note_on_c, 4, 66, 110
6, 5275, Note_off_c, 4, 66, 127
6, 5400, Note_on_c, 4, 57, 110
6, 5635, Note_off_c, 4, 57, 127
6, 5639, Note_on_c, 4, 62, 110
6, 5875, Note_off_c, 4, 62, 127
6, 5879, Note_on_c, 4, 64, 110
6, 5879, Note_on_c, 4, 59, 110
6, 6475, Note_off_c, 4, 59, 127
6, 6479, Note_on_c, 4, 62, 110
6, 6595, Note_off_c, 4, 62, 127
6, 6600, Note_on_c, 4, 61, 110
6, 6715, Note_off_c, 4, 61, 127
6, 6720, Note_on_c, 4, 62, 110
6, 6834, Note_off_c, 4, 62, 127
6, 6840, Note_on_c, 4, 69, 110
6, 6840, Note_on_c, 4, 62, 110
6, 7195, Note_off_c, 4, 62, 127
6, 7320, Note_on_c, 4, 68, 110
6, 7320, Note_on_c, 4, 62, 110
6, 7675, Note_off_c, 4, 62, 127
6, 7800, Note_on_c, 4, 67, 110
6, 8034, Note_off_c, 4, 67, 127
6, 8040, Note_on_c, 4, 66, 110
6, 8275, Note_off_c, 4, 66, 127
6, 8279, Note_on_c, 4, 67, 110
6, 8634, Note_off_c, 4, 67, 127
6, 8759, Note_on_c, 4, 62, 110
6, 9234, Note_off_c, 4, 62, 127
6, 9240, Note_on_c, 4, 66, 110
6, 9475, Note_off_c, 4, 66, 127
6, 9479, Note_on_c, 4, 64, 110
6, 10440, Note_off_c, 4, 64, 127
6, 10679, Note_on_c, 4, 65, 110
6, 10679, Note_on_c, 4, 61, 110
6, 11034, Note_off_c, 4, 61, 127
6, 11279, Note_on_c, 4, 71, 110
6, 11634, Note_off_c, 4, 71, 127
6, 11640, Note_on_c, 4, 69, 110
6, 13319, Note_off_c, 4, 69, 127
6, 15240, Note_on_c, 4, 57, 110
6, 15475, Note_off_c, 4, 57, 127
6, 15480, Note_on_c, 4, 62, 110
6, 15955, Note_off_c, 4, 62, 127
6, 15959, Note_on_c, 4, 64, 110
6, 16434, Note_off_c, 4, 64, 127
6, 16440, Note_on_c, 4, 66, 110
6, 16915, Note_off_c, 4, 66, 127
6, 16919, Note_on_c, 4, 69, 110
6, 17155, Note_off_c, 4, 69, 127
6, 17159, Note_on_c, 4, 66, 110
6, 18115, Note_off_c, 4, 66, 127
6, 18119, Note_on_c, 4, 64, 110
6, 18640, Note_off_c, 4, 64, 127
6, 18840, Note_on_c, 4, 62, 110
6, 19194, Note_off_c, 4, 62, 127
6, 19319, Note_on_c, 4, 64, 110
6, 19555, Note_off_c, 4, 64, 127
6, 19559, Note_on_c, 4, 66, 110
6, 19794, Note_off_c, 4, 66, 127
6, 19800, Note_on_c, 4, 62, 110
6, 20755, Note_off_c, 4, 62, 127
6, 20759, Note_on_c, 4, 59, 110
6, 20994, Note_off_c, 4, 59, 127
6, 21000, Note_on_c, 4, 62, 110
6, 21234, Note_off_c, 4, 62, 127
6, 21240, Note_on_c, 4, 64, 110
6, 21955, Note_off_c, 4, 64, 127
6, 21959, Note_on_c, 4, 61, 110
6, 21959, Note_on_c, 4, 57, 110
6, 22480, Note_off_c, 4, 57, 127
6, 22680, Note_on_c, 4, 59, 110
6, 22680, Note_on_c, 4, 55, 110
6, 22915, Note_off_c, 4, 55, 127
6, 22919, Note_on_c, 4, 57, 110
6, 23155, Note_off_c, 4, 57, 127
6, 23159, Note_on_c, 4, 62, 110
6, 23634, Note_off_c, 4, 62, 127
6, 23640, Note_on_c, 4, 64, 110
6, 24115, Note_off_c, 4, 64, 127
6, 24119, Note_on_c, 4, 66, 110
6, 24594, Note_off_c, 4, 66, 127
6, 24600, Note_on_c, 4, 69, 110
6, 24955, Note_off_c, 4, 69, 127
6, 25800, Note_on_c, 4, 64, 110
6, 26319, Note_off_c, 4, 64, 127
6, 26519, Note_on_c, 4, 69, 110
6, 27280, Note_off_c, 4, 69, 127
6, 27480, Note_on_c, 4, 71, 110
6, 28194, Note_off_c, 4, 71, 127
6, 28200, Note_on_c, 4, 69, 110
6, 28435, Note_off_c, 4, 69, 127
6, 28439, Note_on_c, 4, 71, 110
6, 28675, Note_off_c, 4, 71, 127
6, 28680, Note_on_c, 4, 69, 110
6, 30119, Note_off_c, 4, 69, 127
6, 30360, Note_on_c, 4, 69, 110
6, 30714, Note_off_c, 4, 69, 127
6, 32280, Note_on_c, 4, 71, 110
6, 32514, Note_off_c, 4, 71, 127
6, 32519, Note_on_c, 4, 71, 110
6, 32994, Note_off_c, 4, 71, 127
6, 33000, Note_on_c, 4, 69, 110
6, 33475, Note_off_c, 4, 69, 127
6, 33480, Note_on_c, 4, 64, 110
6, 33955, Note_off_c, 4, 64, 127
6, 33960, Note_on_c, 4, 62, 110
6, 34194, Note_off_c, 4, 62, 127
6, 34200, Note_on_c, 4, 66, 110
6, 34200, Note_on_c, 4, 61, 110
6, 34435, Note_off_c, 4, 61, 127
6, 34439, Note_on_c, 4, 69, 110
6, 34675, Note_off_c, 4, 69, 127
6, 34680, Note_on_c, 4, 71, 110
6, 35394, Note_off_c, 4, 71, 127
6, 35400, Note_on_c, 4, 71, 110
6, 35635, Note_off_c, 4, 71, 127
6, 35639, Note_on_c, 4, 69, 110
6, 36114, Note_off_c, 4, 69, 127
6, 36119, Note_on_c, 4, 67, 110
6, 36594, Note_off_c, 4, 67, 127
6, 36600, Note_on_c, 4, 67, 110
6, 36835, Note_off_c, 4, 67, 127
6, 36839, Note_on_c, 4, 64, 110
6, 37075, Note_off_c, 4, 64, 127
6, 37080, Note_on_c, 4, 66, 110
6, 37839, Note_off_c, 4, 66, 127
6, 38280, Note_on_c, 4, 66, 110
6, 38514, Note_off_c, 4, 66, 127
6, 38519, Note_on_c, 4, 66, 110
6, 38994, Note_off_c, 4, 66, 127
6, 39000, Note_on_c, 4, 64, 110
6, 39235, Note_off_c, 4, 64, 127
6, 39239, Note_on_c, 4, 66, 110
6, 39475, Note_off_c, 4, 66, 127
6, 39480, Note_on_c, 4, 67, 110
6, 39955, Note_off_c, 4, 67, 127
6, 39960, Note_on_c, 4, 66, 110
6, 40194, Note_off_c, 4, 66, 127
6, 40200, Note_on_c, 4, 64, 110
6, 40435, Note_off_c, 4, 64, 127
6, 40439, Note_on_c, 4, 64, 110
6, 40675, Note_off_c, 4, 64, 127
6, 40680, Note_on_c, 4, 62, 110
6, 41639, Note_off_c, 4, 62, 127
6, 41880, Note_on_c, 4, 59, 110
6, 42114, Note_off_c, 4, 59, 127
6, 42119, Note_on_c, 4, 62, 110
6, 43555, Note_off_c, 4, 62, 127
6, 43560, Note_on_c, 4, 64, 110
6, 43794, Note_off_c, 4, 64, 127
6, 43800, Note_on_c, 4, 66, 110
6, 44035, Note_off_c, 4, 66, 127
6, 44039, Note_on_c, 4, 69, 110
6, 44275, Note_off_c, 4, 69, 127
6, 44280, Note_on_c, 4, 64, 110
6, 44280, Note_on_c, 4, 58, 110
6, 45480, Note_off_c, 4, 58, 127
6, 45719, Note_on_c, 4, 69, 110
6, 46075, Note_off_c, 4, 69, 127
6, 48600, Note_on_c, 4, 69, 110
6, 48600, Note_on_c, 4, 66, 110
6, 48955, Note_off_c, 4, 66, 127
6, 49319, Note_on_c, 4, 66, 110
6, 49839, Note_off_c, 4, 66, 127
6, 50039, Note_on_c, 4, 71, 110
6, 50039, Note_on_c, 4, 67, 110
6, 51239, Note_off_c, 4, 67, 127
6, 51479, Note_on_c, 4, 71, 110
6, 51479, Note_on_c, 4, 67, 110
6, 51835, Note_off_c, 4, 67, 127
6, 52079, Note_on_c, 4, 62, 110
6, 52135, Note_off_c, 4, 62, 127
6, 52139, Note_on_c, 4, 71, 110
6, 52139, Note_on_c, 4, 67, 110
6, 52914, Note_off_c, 4, 67, 127
6, 52920, Note_on_c, 4, 62, 110
6, 53154, Note_off_c, 4, 62, 127
6, 53160, Note_on_c, 4, 59, 110
6, 53395, Note_off_c, 4, 59, 127
6, 53400, Note_on_c, 4, 61, 110
6, 53635, Note_off_c, 4, 61, 127
6, 53639, Note_on_c, 4, 69, 110
6, 54160, Note_off_c, 4, 69, 127
6, 56279, Note_on_c, 4, 69, 110
6, 56279, Note_on_c, 4, 64, 110
6, 56635, Note_off_c, 4, 64, 127
6, 60360, Note_on_c, 4, 71, 110
6, 60360, Note_on_c, 4, 67, 110
6, 60360, Note_on_c, 4, 62, 110
6, 60879, Note_off_c, 4, 62, 127
6, 61079, Note_on_c, 4, 71, 110
6, 61079, Note_on_c, 4, 64, 110
6, 61435, Note_off_c, 4, 64, 127
6, 63000, Note_on_c, 4, 71, 110
6, 63235, Note_off_c, 4, 71, 127
6, 63239, Note_on_c, 4, 71, 110
6, 63714, Note_off_c, 4, 71, 127
6, 63720, Note_on_c, 4, 69, 110
6, 64679, Note_off_c, 4, 69, 127
6, 64920, Note_on_c, 4, 66, 110
6, 65275, Note_off_c, 4, 66, 127
6, 65400, Note_on_c, 4, 71, 110
6, 66600, Note_off_c, 4, 71, 127
6, 66839, Note_on_c, 4, 71, 110
6, 66839, Note_on_c, 4, 66, 110
6, 68039, Note_off_c, 4, 66, 127
6, 68279, Note_on_c, 4, 61, 110
6, 68514, Note_off_c, 4, 61, 127
6, 68520, Note_on_c, 4, 64, 110
6, 68754, Note_off_c, 4, 64, 127
6, 68760, Note_on_c, 4, 69, 110
6, 69114, Note_off_c, 4, 69, 127
6, 73560, Note_on_c, 4, 71, 110
6, 73795, Note_off_c, 4, 71, 127
6, 73800, Note_on_c, 4, 69, 110
6, 74035, Note_off_c, 4, 69, 127
6, 74039, Note_on_c, 4, 71, 110
6, 74039, Note_on_c, 4, 67, 110
6, 74395, Note_off_c, 4, 67, 127
6, 74520, Note_on_c, 4, 71, 110
6, 74520, Note_on_c, 4, 67, 110
6, 74520, Note_on_c, 4, 64, 110
6, 74520, Note_on_c, 4, 62, 110
6, 74875, Note_off_c, 4, 62, 127
6, 75000, Note_on_c, 4, 66, 110
6, 75000, Note_on_c, 4, 62, 110
6, 75760, Note_off_c, 4, 62, 127
6, 75960, Note_on_c, 4, 67, 110
6, 76195, Note_off_c, 4, 67, 127
6, 76200, Note_on_c, 4, 66, 110
6, 76435, Note_off_c, 4, 66, 127
6, 76439, Note_on_c, 4, 64, 110
6, 76795, Note_off_c, 4, 64, 127
6, 76920, Note_on_c, 4, 66, 110
6, 76920, Note_on_c, 4, 62, 110
6, 77679, Note_off_c, 4, 62, 127
6, 90360, Note_on_c, 4, 71, 110
6, 91075, Note_off_c, 4, 71, 127
6, 91079, Note_on_c, 4, 69, 110
6, 91314, Note_off_c, 4, 69, 127
6, 91320, Note_on_c, 4, 69, 110
6, 91320, Note_on_c, 4, 71, 110
6, 93000, Note_off_c, 4, 69, 127
6, 93239, Note_on_c, 4, 62, 110
6, 93535, Note_off_c, 4, 62, 127
6, 93539, Note_on_c, 4, 66, 110
6, 93835, Note_off_c, 4, 66, 127
6, 93839, Note_on_c, 4, 69, 110
6, 94479, Note_off_c, 4, 69, 127
6, 94920, Note_on_c, 4, 71, 110
6, 95154, Note_off_c, 4, 71, 127
6, 95160, Note_on_c, 4, 71, 110
6, 96839, Note_off_c, 4, 71, 127
6, 97079, Note_on_c, 4, 71, 110
6, 97435, Note_off_c, 4, 71, 127
6, 98760, Note_on_c, 4, 69, 110
6, 99279, Note_off_c, 4, 69, 127
6, 99960, Note_on_c, 4, 71, 110
6, 101160, Note_off_c, 4, 71, 127
6, 102840, Note_on_c, 4, 67, 110
6, 103600, Note_off_c, 4, 67, 127
6, 108600, Note_on_c, 4, 69, 110
6, 108600, Note_on_c, 4, 62, 110
6, 109075, Note_off_c, 4, 62, 127
6, 109079, Note_on_c, 4, 67, 110
6, 109079, Note_on_c, 4, 62, 110
6, 109554, Note_off_c, 4, 62, 127
6, 109559, Note_on_c, 4, 62, 110
6, 109559, Note_on_c, 4, 66, 110
6, 111240, Note_off_c, 4, 62, 127
6, 115259, Note_on_c, 4, 71, 110
6, 116079, Note_off_c, 4, 71, 127
6, 120120, Note_on_c, 4, 71, 110
6, 120879, Note_off_c, 4, 71, 127
6, 121079, Note_on_c, 4, 71, 110
6, 121315, Note_off_c, 4, 71, 127
6, 121320, Note_on_c, 4, 71, 110
6, 121840, Note_off_c, 4, 71, 127
6, 123000, Note_on_c, 4, 67, 110
6, 124200, Note_off_c, 4, 67, 127
6, 124440, Note_on_c, 4, 67, 110
6, 124795, Note_off_c, 4, 67, 127
6, 126840, Note_on_c, 4, 66, 110
6, 127600, Note_off_c, 4, 66, 127
6, 127800, Note_on_c, 4, 69, 110
6, 127800, Note_on_c, 4, 64, 110
6, 128034, Note_off_c, 4, 64, 127
6, 128040, Note_on_c, 4, 62, 110
6, 128275, Note_off_c, 4, 62, 127
6, 128279, Note_on_c, 4, 65, 110
6, 128515, Note_off_c, 4, 65, 127
6, 128520, Note_on_c, 4, 62, 110
6, 128754, Note_off_c, 4, 62, 127
6, 128759, Note_on_c, 4, 69, 110
6, 128759, Note_on_c, 4, 66, 110
6, 130440, Note_off_c, 4, 66, 127
6, 134400, End_track
7, 0, Start_track
7, 0, Title_t, "Staff-3-2"
7, 0, Control_c, 5, 32, 0
7, 0, Control_c, 5, 0, 0
7, 0, Control_c, 5, 10, 64
7, 0, Control_c, 5, 7, 127
7, 0, Control_c, 5, 91, 0
7, 0, Control_c, 5, 7, 100
7, 0, Control_c, 5, 93, 0
7, 0, Control_c, 5, 10, 64
7, 0, Control_c, 5, 121, 0
7, 0, Program_c, 5, 0
7, 5879, Note_on_c, 5, 43, 110
7, 6114, Note_off_c, 5, 43, 127
7, 6120, Note_on_c, 5, 50, 110
7, 6640, Note_off_c, 5, 50, 127
7, 6840, Note_on_c, 5, 54, 110
7, 7195, Note_off_c, 5, 54, 127
7, 7320, Note_on_c, 5, 53, 110
7, 7675, Note_off_c, 5, 53, 127
7, 7800, Note_on_c, 5, 40, 110
7, 8034, Note_off_c, 5, 40, 127
7, 8040, Note_on_c, 5, 47, 110
7, 8275, Note_off_c, 5, 47, 127
7, 8279, Note_on_c, 5, 52, 110
7, 8634, Note_off_c, 5, 52, 127
7, 9720, Note_on_c, 5, 45, 110
7, 9954, Note_off_c, 5, 45, 127
7, 9959, Note_on_c, 5, 52, 110
7, 10479, Note_off_c, 5, 52, 127
7, 10679, Note_on_c, 5, 45, 110
7, 11440, Note_off_c, 5, 45, 127
7, 11640, Note_on_c, 5, 38, 110
7, 11875, Note_off_c, 5, 38, 127
7, 11879, Note_on_c, 5, 45, 110
7, 12115, Note_off_c, 5, 45, 127
7, 12120, Note_on_c, 5, 50, 110
7, 12354, Note_off_c, 5, 50, 127
7, 12359, Note_on_c, 5, 54, 110
7, 13319, Note_off_c, 5, 54, 127
7, 13559, Note_on_c, 5, 38, 110
7, 13794, Note_off_c, 5, 38, 127
7, 13800, Note_on_c, 5, 45, 110
7, 14034, Note_off_c, 5, 45, 127
7, 14040, Note_on_c, 5, 50, 110
7, 14275, Note_off_c, 5, 50, 127
7, 14280, Note_on_c, 5, 54, 110
7, 15240, Note_off_c, 5, 54, 127
7, 15480, Note_on_c, 5, 38, 110
7, 15715, Note_off_c, 5, 38, 127
7, 15719, Note_on_c, 5, 45, 110
7, 15955, Note_off_c, 5, 45, 127
7, 15959, Note_on_c, 5, 50, 110
7, 16194, Note_off_c, 5, 50, 127
7, 16200, Note_on_c, 5, 54, 110
7, 17159, Note_off_c, 5, 54, 127
7, 17400, Note_on_c, 5, 47, 110
7, 17634, Note_off_c, 5, 47, 127
7, 17640, Note_on_c, 5, 54, 110
7, 18159, Note_off_c, 5, 54, 127
7, 18600, Note_on_c, 5, 54, 110
7, 19119, Note_off_c, 5, 54, 127
7, 19319, Note_on_c, 5, 40, 110
7, 19555, Note_off_c, 5, 40, 127
7, 19559, Note_on_c, 5, 47, 110
7, 19794, Note_off_c, 5, 47, 127
7, 19800, Note_on_c, 5, 52, 110
7, 20155, Note_off_c, 5, 52, 127
7, 20759, Note_on_c, 5, 43, 110
7, 21115, Note_off_c, 5, 43, 127
7, 21240, Note_on_c, 5, 45, 110
7, 21475, Note_off_c, 5, 45, 127
7, 21480, Note_on_c, 5, 52, 110
7, 22000, Note_off_c, 5, 52, 127
7, 22440, Note_on_c, 5, 52, 110
7, 22959, Note_off_c, 5, 52, 127
7, 23159, Note_on_c, 5, 38, 110
7, 23394, Note_off_c, 5, 38, 127
7, 23400, Note_on_c, 5, 45, 110
7, 23634, Note_off_c, 5, 45, 127
7, 23640, Note_on_c, 5, 50, 110
7, 23875, Note_off_c, 5, 50, 127
7, 23880, Note_on_c, 5, 54, 110
7, 24840, Note_off_c, 5, 54, 127
7, 25080, Note_on_c, 5, 42, 110
7, 25315, Note_off_c, 5, 42, 127
7, 25319, Note_on_c, 5, 52, 110
7, 25839, Note_off_c, 5, 52, 127
7, 27480, Note_on_c, 5, 43, 110
7, 27714, Note_off_c, 5, 43, 127
7, 27719, Note_on_c, 5, 50, 110
7, 28239, Note_off_c, 5, 50, 127
7, 28919, Note_on_c, 5, 45, 110
7, 29155, Note_off_c, 5, 45, 127
7, 29160, Note_on_c, 5, 52, 110
7, 29680, Note_off_c, 5, 52, 127
7, 30839, Note_on_c, 5, 47, 110
7, 31075, Note_off_c, 5, 47, 127
7, 31080, Note_on_c, 5, 54, 110
7, 31600, Note_off_c, 5, 54, 127
7, 32039, Note_on_c, 5, 54, 110
7, 32560, Note_off_c, 5, 54, 127
7, 32760, Note_on_c, 5, 42, 110
7, 32994, Note_off_c, 5, 42, 127
7, 33000, Note_on_c, 5, 52, 110
7, 33519, Note_off_c, 5, 52, 127
7, 34680, Note_on_c, 5, 43, 110
7, 34914, Note_off_c, 5, 43, 127
7, 34919, Note_on_c, 5, 50, 110
7, 35439, Note_off_c, 5, 50, 127
7, 36600, Note_on_c, 5, 50, 110
7, 37360, Note_off_c, 5, 50, 127
7, 38280, Note_on_c, 5, 50, 110
7, 38514, Note_off_c, 5, 50, 127
7, 38519, Note_on_c, 5, 48, 110
7, 40200, Note_off_c, 5, 48, 127
7, 41160, Note_on_c, 5, 52, 110
7, 41394, Note_off_c, 5, 52, 127
7, 41400, Note_on_c, 5, 54, 110
7, 41635, Note_off_c, 5, 54, 127
7, 41639, Note_on_c, 5, 50, 110
7, 41875, Note_off_c, 5, 50, 127
7, 41880, Note_on_c, 5, 45, 110
7, 42235, Note_off_c, 5, 45, 127
7, 42360, Note_on_c, 5, 54, 110
7, 42360, Note_on_c, 5, 44, 110
7, 44039, Note_off_c, 5, 44, 127
7, 44280, Note_on_c, 5, 50, 110
7, 44280, Note_on_c, 5, 43, 110
7, 45960, Note_off_c, 5, 43, 127
7, 46200, Note_on_c, 5, 50, 110
7, 47400, Note_off_c, 5, 50, 127
7, 47639, Note_on_c, 5, 49, 110
7, 47994, Note_off_c, 5, 49, 127
7, 48119, Note_on_c, 5, 47, 110
7, 48355, Note_off_c, 5, 47, 127
7, 48360, Note_on_c, 5, 54, 110
7, 48880, Note_off_c, 5, 54, 127
7, 49800, Note_on_c, 5, 54, 110
7, 50035, Note_off_c, 5, 54, 127
7, 50039, Note_on_c, 5, 40, 110
7, 50275, Note_off_c, 5, 40, 127
7, 50280, Note_on_c, 5, 47, 110
7, 50514, Note_off_c, 5, 47, 127
7, 50519, Note_on_c, 5, 52, 110
7, 50755, Note_off_c, 5, 52, 127
7, 50760, Note_on_c, 5, 54, 110
7, 51279, Note_off_c, 5, 54, 127
7, 51960, Note_on_c, 5, 45, 110
7, 52195, Note_off_c, 5, 45, 127
7, 52200, Note_on_c, 5, 52, 110
7, 52720, Note_off_c, 5, 52, 127
7, 53400, Note_on_c, 5, 45, 110
7, 53754, Note_off_c, 5, 45, 127
7, 53879, Note_on_c, 5, 50, 110
7, 55560, Note_off_c, 5, 50, 127
7, 55800, Note_on_c, 5, 42, 110
7, 56035, Note_off_c, 5, 42, 127
7, 56039, Note_on_c, 5, 52, 110
7, 56560, Note_off_c, 5, 52, 127
7, 57239, Note_on_c, 5, 54, 110
7, 57595, Note_off_c, 5, 54, 127
7, 57720, Note_on_c, 5, 43, 110
7, 57954, Note_off_c, 5, 43, 127
7, 57960, Note_on_c, 5, 50, 110
7, 58479, Note_off_c, 5, 50, 127
7, 59639, Note_on_c, 5, 45, 110
7, 59875, Note_off_c, 5, 45, 127
7, 59879, Note_on_c, 5, 52, 110
7, 60400, Note_off_c, 5, 52, 127
7, 60839, Note_on_c, 5, 52, 110
7, 61360, Note_off_c, 5, 52, 127
7, 61560, Note_on_c, 5, 47, 110
7, 61795, Note_off_c, 5, 47, 127
7, 61800, Note_on_c, 5, 54, 110
7, 62275, Note_off_c, 5, 54, 127
7, 62279, Note_on_c, 5, 54, 110
7, 62754, Note_off_c, 5, 54, 127
7, 62760, Note_on_c, 5, 54, 110
7, 63235, Note_off_c, 5, 54, 127
7, 63239, Note_on_c, 5, 54, 110
7, 63475, Note_off_c, 5, 54, 127
7, 63479, Note_on_c, 5, 42, 110
7, 63714, Note_off_c, 5, 42, 127
7, 63720, Note_on_c, 5, 52, 110
7, 64195, Note_off_c, 5, 52, 127
7, 64200, Note_on_c, 5, 52, 110
7, 64720, Note_off_c, 5, 52, 127
7, 65400, Note_on_c, 5, 43, 110
7, 65635, Note_off_c, 5, 43, 127
7, 65639, Note_on_c, 5, 50, 110
7, 66160, Note_off_c, 5, 50, 127
7, 67320, Note_on_c, 5, 45, 110
7, 67554, Note_off_c, 5, 45, 127
7, 67560, Note_on_c, 5, 52, 110
7, 68079, Note_off_c, 5, 52, 127
7, 68279, Note_on_c, 5, 43, 110
7, 69039, Note_off_c, 5, 43, 127
7, 69239, Note_on_c, 5, 42, 110
7, 69475, Note_off_c, 5, 42, 127
7, 69479, Note_on_c, 5, 50, 110
7, 70000, Note_off_c, 5, 50, 127
7, 71160, Note_on_c, 5, 40, 110
7, 71275, Note_off_c, 5, 40, 127
7, 71279, Note_on_c, 5, 47, 110
7, 71454, Note_off_c, 5, 47, 127
7, 71460, Note_on_c, 5, 52, 110
7, 71635, Note_off_c, 5, 52, 127
7, 71639, Note_on_c, 5, 54, 110
7, 71995, Note_off_c, 5, 54, 127
7, 73800, Note_on_c, 5, 54, 110
7, 74035, Note_off_c, 5, 54, 127
7, 74039, Note_on_c, 5, 52, 110
7, 74514, Note_off_c, 5, 52, 127
7, 74520, Note_on_c, 5, 45, 110
7, 74875, Note_off_c, 5, 45, 127
7, 75000, Note_on_c, 5, 38, 110
7, 75235, Note_off_c, 5, 38, 127
7, 75239, Note_on_c, 5, 45, 110
7, 75475, Note_off_c, 5, 45, 127
7, 75479, Note_on_c, 5, 50, 110
7, 75835, Note_off_c, 5, 50, 127
7, 76920, Note_on_c, 5, 50, 110
7, 77679, Note_off_c, 5, 50, 127
7, 82679, Note_on_c, 5, 50, 110
7, 83439, Note_off_c, 5, 50, 127
7, 83639, Note_on_c, 5, 50, 110
7, 84400, Note_off_c, 5, 50, 127
7, 84600, Note_on_c, 5, 50, 110
7, 85360, Note_off_c, 5, 50, 127
7, 85560, Note_on_c, 5, 50, 110
7, 86320, Note_off_c, 5, 50, 127
7, 86520, Note_on_c, 5, 48, 110
7, 87279, Note_off_c, 5, 48, 127
7, 87479, Note_on_c, 5, 48, 110
7, 88239, Note_off_c, 5, 48, 127
7, 88439, Note_on_c, 5, 45, 110
7, 88675, Note_off_c, 5, 45, 127
7, 88679, Note_on_c, 5, 52, 110
7, 89200, Note_off_c, 5, 52, 127
7, 89400, Note_on_c, 5, 45, 110
7, 89635, Note_off_c, 5, 45, 127
7, 89639, Note_on_c, 5, 52, 110
7, 90160, Note_off_c, 5, 52, 127
7, 90360, Note_on_c, 5, 38, 110
7, 90595, Note_off_c, 5, 38, 127
7, 90600, Note_on_c, 5, 45, 110
7, 90835, Note_off_c, 5, 45, 127
7, 90839, Note_on_c, 5, 50, 110
7, 91075, Note_off_c, 5, 50, 127
7, 91079, Note_on_c, 5, 54, 110
7, 91314, Note_off_c, 5, 54, 127
7, 91320, Note_on_c, 5, 40, 110
7, 91554, Note_off_c, 5, 40, 127
7, 91560, Note_on_c, 5, 50, 110
7, 92079, Note_off_c, 5, 50, 127
7, 92279, Note_on_c, 5, 41, 110
7, 92754, Note_off_c, 5, 41, 127
7, 92760, Note_on_c, 5, 53, 110
7, 93114, Note_off_c, 5, 53, 127
7, 93239, Note_on_c, 5, 52, 110
7, 93595, Note_off_c, 5, 52, 127
7, 93720, Note_on_c, 5, 50, 110
7, 93720, Note_on_c, 5, 38, 110
7, 94075, Note_off_c, 5, 38, 127
7, 94200, Note_on_c, 5, 43, 110
7, 94435, Note_off_c, 5, 43, 127
7, 94439, Note_on_c, 5, 50, 110
7, 94960, Note_off_c, 5, 50, 127
7, 96120, Note_on_c, 5, 44, 110
7, 96354, Note_off_c, 5, 44, 127
7, 96360, Note_on_c, 5, 54, 110
7, 96879, Note_off_c, 5, 54, 127
7, 97079, Note_on_c, 5, 53, 110
7, 97839, Note_off_c, 5, 53, 127
7, 98039, Note_on_c, 5, 42, 110
7, 98275, Note_off_c, 5, 42, 127
7, 98279, Note_on_c, 5, 52, 110
7, 98800, Note_off_c, 5, 52, 127
7, 101160, Note_on_c, 5, 54, 110
7, 101395, Note_off_c, 5, 54, 127
7, 101400, Note_on_c, 5, 51, 110
7, 101635, Note_off_c, 5, 51, 127
7, 101639, Note_on_c, 5, 47, 110
7, 101875, Note_off_c, 5, 47, 127
7, 101879, Note_on_c, 5, 40, 110
7, 102834, Note_off_c, 5, 40, 127
7, 102840, Note_on_c, 5, 52, 110
7, 103600, Note_off_c, 5, 52, 127
7, 103800, Note_on_c, 5, 45, 110
7, 104034, Note_off_c, 5, 45, 127
7, 104040, Note_on_c, 5, 54, 110
7, 104559, Note_off_c, 5, 54, 127
7, 105959, Note_on_c, 5, 43, 110
7, 106195, Note_off_c, 5, 43, 127
7, 106200, Note_on_c, 5, 50, 110
7, 106554, Note_off_c, 5, 50, 127
7, 108600, Note_on_c, 5, 54, 110
7, 108954, Note_off_c, 5, 54, 127
7, 109079, Note_on_c, 5, 52, 110
7, 109434, Note_off_c, 5, 52, 127
7, 109559, Note_on_c, 5, 50, 110
7, 110320, Note_off_c, 5, 50, 127
7, 110520, Note_on_c, 5, 38, 110
7, 110754, Note_off_c, 5, 38, 127
7, 110759, Note_on_c, 5, 45, 110
7, 110995, Note_off_c, 5, 45, 127
7, 111000, Note_on_c, 5, 52, 110
7, 111234, Note_off_c, 5, 52, 127
7, 111240, Note_on_c, 5, 50, 110
7, 111759, Note_off_c, 5, 50, 127
7, 123000, Note_on_c, 5, 46, 110
7, 124679, Note_off_c, 5, 46, 127
7, 124920, Note_on_c, 5, 43, 110
7, 125154, Note_off_c, 5, 43, 127
7, 125159, Note_on_c, 5, 50, 110
7, 125679, Note_off_c, 5, 50, 127
7, 126840, Note_on_c, 5, 38, 110
7, 127075, Note_off_c, 5, 38, 127
7, 127079, Note_on_c, 5, 45, 110
7, 127315, Note_off_c, 5, 45, 127
7, 127320, Note_on_c, 5, 50, 110
7, 127675, Note_off_c, 5, 50, 127
7, 127800, Note_on_c, 5, 48, 110
7, 128275, Note_off_c, 5, 48, 127
7, 128279, Note_on_c, 5, 46, 110
7, 128634, Note_off_c, 5, 46, 127
7, 128759, Note_on_c, 5, 38, 110
7, 128995, Note_off_c, 5, 38, 127
7, 129000, Note_on_c, 5, 45, 110
7, 129234, Note_off_c, 5, 45, 127
7, 129240, Note_on_c, 5, 50, 110
7, 130440, Note_off_c, 5, 50, 127
7, 134400, End_track
0, 0, End_of_file
